<svg id="Слой_1" xmlns="http://www.w3.org/2000/svg" viewBox="35.1 -32.1 152.8 165.5"><style>.st0{fill:#fee300}</style><title>calc</title><g id="Layer_2"><path class="st0" d="M184.9 133.4H38.1c-1.7 0-3-1.3-3-3V-29.1c0-1.7 1.3-3 3-3h146.8c1.7 0 3 1.3 3 3v159.5c0 1.6-1.3 3-3 3zm-145.8-4h144.8V-28.1H39.1v157.5z"/><path class="st0" d="M170.3 27.6H52.8c-1.7 0-3-1.3-3-3v-37.9c0-1.7 1.3-3 3-3h117.5c1.7 0 3 1.3 3 3v37.9c0 1.7-1.4 3-3 3zm-116.6-4h115.5v-35.9H53.8l-.1 35.9zm17.1 37.9h-7.3c-3.4 0-6.2-2.8-6.2-6.2V48c0-3.4 2.8-6.2 6.2-6.2h7.3c3.4 0 6.2 2.8 6.2 6.2v7.3c0 3.4-2.8 6.2-6.2 6.2zm-7.3-15.6c-1.2 0-2.1.9-2.2 2.1v7.3c0 1.2 1 2.2 2.2 2.2h7.3c1.2 0 2.2-1 2.2-2.2V48c0-1.2-1-2.2-2.2-2.2l-7.3.1zm36.9 15.6h-7.3c-3.4 0-6.2-2.8-6.2-6.2V48c0-3.4 2.8-6.2 6.2-6.2h7.3c3.4 0 6.2 2.8 6.2 6.2v7.3c-.1 3.4-2.8 6.2-6.2 6.2zm-7.3-15.6c-1.2 0-2.1.9-2.2 2.1v7.3c0 1.2 1 2.2 2.2 2.2h7.3c1.2 0 2.2-1 2.2-2.2V48c0-1.2-1-2.2-2.2-2.2l-7.3.1zm36.8 15.6h-7.3c-3.4 0-6.2-2.8-6.2-6.2V48c0-3.4 2.8-6.2 6.2-6.2h7.3c3.4 0 6.2 2.8 6.2 6.2v7.3c0 3.4-2.7 6.2-6.2 6.2.1 0 .1 0 0 0zm-7.3-15.6c-1.2 0-2.1.9-2.2 2.1v7.3c0 1.2 1 2.2 2.2 2.2h7.3c1.2 0 2.2-1 2.2-2.2V48c0-1.2-1-2.2-2.2-2.2l-7.3.1zm36.9 15.6h-7.3c-3.4 0-6.2-2.8-6.2-6.2V48c0-3.4 2.8-6.2 6.2-6.2h7.3c3.4 0 6.2 2.8 6.2 6.2v7.3c0 3.4-2.7 6.2-6.2 6.2zm-7.3-15.6c-1.2 0-2.1.9-2.2 2.1v7.3c0 1.2 1 2.2 2.2 2.2h7.3c1.2 0 2.2-1 2.2-2.2V48c0-1.2-1-2.2-2.2-2.2l-7.3.1zM70.8 89.2h-7.3c-3.4 0-6.2-2.8-6.2-6.2v-7.3c0-3.4 2.8-6.2 6.2-6.2h7.3c3.4 0 6.2 2.8 6.2 6.2V83c-.1 3.5-2.8 6.2-6.2 6.2zm-7.3-15.6c-1.2 0-2.2 1-2.2 2.2v7.3c0 1.2 1 2.2 2.2 2.2h7.3c1.2 0 2.2-1 2.2-2.2v-7.3c0-1.2-1-2.2-2.2-2.2h-7.3zm36.9 15.6h-7.3c-3.4 0-6.2-2.8-6.2-6.2v-7.3c0-3.4 2.8-6.2 6.2-6.2h7.3c3.4 0 6.2 2.8 6.2 6.2V83c-.1 3.5-2.8 6.2-6.2 6.2zm-7.3-15.6c-1.2 0-2.2 1-2.2 2.2v7.3c0 1.2 1 2.2 2.2 2.2h7.3c1.2 0 2.2-1 2.2-2.2v-7.3c0-1.2-1-2.2-2.2-2.2h-7.3zm36.8 15.6h-7.3c-3.4 0-6.2-2.8-6.2-6.2v-7.3c0-3.4 2.8-6.2 6.2-6.2h7.3c3.4 0 6.2 2.8 6.2 6.2V83c0 3.5-2.8 6.2-6.2 6.2zm-7.3-15.6c-1.2 0-2.2 1-2.2 2.2v7.3c0 1.2 1 2.2 2.2 2.2h7.3c1.2 0 2.2-1 2.2-2.2v-7.3c0-1.2-1-2.2-2.2-2.2h-7.3zm36.9 43.4h-7.3c-3.4 0-6.2-2.8-6.2-6.2v-35c0-3.4 2.8-6.2 6.2-6.2h7.3c3.4 0 6.2 2.8 6.2 6.2v35c0 3.4-2.8 6.2-6.2 6.2zm-7.3-43.3c-1.2 0-2.2 1-2.2 2.2v35c0 1.2 1 2.2 2.2 2.2h7.3c1.2 0 2.2-1 2.2-2.2v-35c0-1.2-1-2.2-2.2-2.2h-7.3zM70.8 117h-7.3c-3.4 0-6.2-2.8-6.2-6.2v-7.3c0-3.4 2.8-6.2 6.2-6.2h7.3c3.4 0 6.2 2.8 6.2 6.2v7.3c-.1 3.4-2.8 6.2-6.2 6.2zm-7.3-15.6c-1.2 0-2.2 1-2.2 2.2v7.3c0 1.2 1 2.2 2.2 2.2h7.3c1.2 0 2.2-1 2.2-2.2v-7.3c0-1.2-1-2.2-2.2-2.2h-7.3zm36.9 15.6h-7.3c-3.4 0-6.2-2.8-6.2-6.2v-7.3c0-3.4 2.8-6.2 6.2-6.2h7.3c3.4 0 6.2 2.8 6.2 6.2v7.3c-.1 3.4-2.8 6.2-6.2 6.2zm-7.3-15.6c-1.2 0-2.2 1-2.2 2.2v7.3c0 1.2 1 2.2 2.2 2.2h7.3c1.2 0 2.2-1 2.2-2.2v-7.3c0-1.2-1-2.2-2.2-2.2h-7.3zm36.8 15.6h-7.3c-3.4 0-6.2-2.8-6.2-6.2v-7.3c0-3.4 2.8-6.2 6.2-6.2h7.3c3.4 0 6.2 2.8 6.2 6.2v7.3c0 3.4-2.8 6.2-6.2 6.2zm-7.3-15.6c-1.2 0-2.2 1-2.2 2.2v7.3c0 1.2 1 2.2 2.2 2.2h7.3c1.2 0 2.2-1 2.2-2.2v-7.3c0-1.2-1-2.2-2.2-2.2h-7.3z"/></g></svg>