<?xml version="1.0" encoding="utf-8"?>
<!-- Generator: Adobe Illustrator 19.0.0, SVG Export Plug-In . SVG Version: 6.00 Build 0)  -->
<svg version="1.1" id="Capa_1" xmlns="http://www.w3.org/2000/svg" xmlns:xlink="http://www.w3.org/1999/xlink" x="0px" y="0px"
	 viewBox="240.1 -202.1 430.9 505.1" style="enable-background:new 240.1 -202.1 430.9 505.1;" xml:space="preserve">
<style type="text/css">
	.st0{fill:#010002;}
</style>
<g>
	<g>
		<g>
			<path class="st0" d="M271.5-37.4h-1.3c-16.6,0-30.1,13.6-30.1,30.1v131.1c0,16.6,13.5,30.1,30.1,30.1h1.3
				c16.6,0,30.1-13.6,30.1-30.1V-7.3C301.7-23.9,288.1-37.4,271.5-37.4z"/>
			<path class="st0" d="M316.1,174.4c0,15.2,12.4,27.6,27.7,27.6h29.6v70.8c0,16.6,13.6,30.2,30.1,30.2h1.3
				c16.6,0,30.2-13.5,30.2-30.2V202h41.3v70.8c0,16.6,13.6,30.2,30.2,30.2h1.3c16.6,0,30.1-13.5,30.1-30.2V202h29.6
				c15.2,0,27.7-12.4,27.7-27.6v-207h-279V174.4z"/>
			<path class="st0" d="M525-158.2l23.5-36.3c1.5-2.3,0.8-5.4-1.5-6.9c-2.3-1.5-5.4-0.9-6.9,1.5l-24.4,37.5
				c-18.3-7.5-38.7-11.7-60.2-11.7c-21.6,0-41.9,4.2-60.2,11.7L371-199.9c-1.5-2.4-4.6-3-6.9-1.5c-2.3,1.5-3,4.6-1.5,6.9l23.5,36.3
				c-42.4,20.8-71,59.9-71,104.8c0,2.8,0.2,5.5,0.4,8.2h280.1c0.2-2.7,0.4-5.4,0.4-8.2C596-98.2,567.4-137.4,525-158.2z M390.7-93.2
				c-7.4,0-13.5-6-13.5-13.5s6-13.4,13.5-13.4c7.5,0,13.5,6,13.5,13.4S398.1-93.2,390.7-93.2z M520.5-93.2c-7.4,0-13.5-6-13.5-13.5
				s6-13.4,13.5-13.4c7.5,0,13.5,6,13.5,13.4C534-99.2,528-93.2,520.5-93.2z"/>
			<path class="st0" d="M640.9-37.4h-1.3c-16.6,0-30.2,13.6-30.2,30.1v131.1c0,16.6,13.6,30.1,30.2,30.1h1.3
				c16.6,0,30.1-13.6,30.1-30.1V-7.3C671-23.9,657.5-37.4,640.9-37.4z"/>
		</g>
	</g>
</g>
</svg>
