<svg xmlns="http://www.w3.org/2000/svg" viewBox="0 0 50 50"><title>depfin icons</title><g id="Layer_2_copy" data-name="Layer 2 copy"><path d="M24.81,27.57c-13.94,0-20.53-5.64-20.8-5.88a.75.75,0,0,1-.25-.56V18.05A3.09,3.09,0,0,1,6.84,15H42.77a3.09,3.09,0,0,1,3.09,3.09v3.12a.75.75,0,0,1-.26.57C45.33,22,38.75,27.57,24.81,27.57ZM5.25,20.76c1.32,1,7.7,5.31,19.55,5.31S43,21.8,44.36,20.81V18.05a1.59,1.59,0,0,0-1.59-1.59H6.84a1.59,1.59,0,0,0-1.59,1.59Z"/><path d="M42.77,42.33H6.84c-1.49,0-3.09-1.11-3.09-4.22v-14A.75.75,0,0,1,5,23.5c.06.05,6.18,5.09,19.82,5.09s19.77-4.8,19.83-4.85a.75.75,0,0,1,1.22.58V39.24A3.09,3.09,0,0,1,42.77,42.33ZM5.25,25.51v12.6c0,.82.16,2.72,1.59,2.72H42.77a1.59,1.59,0,0,0,1.59-1.59V25.72c-2.46,1.47-8.69,4.36-19.55,4.36S7.72,27.05,5.25,25.51Z"/><path d="M33.06,16.12a.75.75,0,0,1-.75-.75V12.92a1.76,1.76,0,0,0-1.76-1.76H19.07a1.76,1.76,0,0,0-1.76,1.76v2.45a.75.75,0,0,1-1.5,0V12.92a3.26,3.26,0,0,1,3.26-3.26H30.55a3.26,3.26,0,0,1,3.26,3.26v2.45A.75.75,0,0,1,33.06,16.12Z"/><path d="M27.47,32.76H22.14A1.75,1.75,0,0,1,20.39,31V29.65a.75.75,0,0,1,1.5,0V31a.25.25,0,0,0,.25.25h5.33a.25.25,0,0,0,.25-.25V29.65a.75.75,0,0,1,1.5,0V31A1.75,1.75,0,0,1,27.47,32.76Z"/></g></svg>