<?xml version="1.0" encoding="utf-8"?>
<!-- Generator: Adobe Illustrator 19.0.0, SVG Export Plug-In . SVG Version: 6.00 Build 0)  -->
<svg version="1.1" id="Слой_1" xmlns="http://www.w3.org/2000/svg" xmlns:xlink="http://www.w3.org/1999/xlink" x="0px" y="0px"
	 viewBox="35.1 -32.1 152.8 165.5" style="enable-background:new 35.1 -32.1 152.8 165.5;" xml:space="preserve">
<style type="text/css">
	.st0{fill:#FEE300;}
</style>
<g id="Layer_2">
	<path class="st0" d="M184.9,133.4H38.1c-1.7,0-3-1.3-3-3V-29.1c0-1.7,1.3-3,3-3h146.8c1.7,0,3,1.3,3,3v159.5
		C187.9,132,186.6,133.4,184.9,133.4z M39.1,129.4h144.8V-28.1H39.1L39.1,129.4z"/>
	<path class="st0" d="M170.3,27.6H52.8c-1.7,0-3-1.3-3-3v-37.9c0-1.7,1.3-3,3-3h117.5c1.7,0,3,1.3,3,3v37.9
		C173.3,26.3,171.9,27.6,170.3,27.6L170.3,27.6z M53.7,23.6h115.5v-35.9H53.8L53.7,23.6z"/>
	<path class="st0" d="M70.8,61.5h-7.3c-3.4,0-6.2-2.8-6.2-6.2V48c0-3.4,2.8-6.2,6.2-6.2h7.3c3.4,0,6.2,2.8,6.2,6.2v7.3
		C77,58.7,74.2,61.5,70.8,61.5C70.8,61.5,70.8,61.5,70.8,61.5z M63.5,45.9c-1.2,0-2.1,0.9-2.2,2.1v7.3c0,1.2,1,2.2,2.2,2.2h0h7.3
		c1.2,0,2.2-1,2.2-2.2l0,0V48c0-1.2-1-2.2-2.2-2.2l0,0L63.5,45.9z"/>
	<path class="st0" d="M100.4,61.5h-7.3c-3.4,0-6.2-2.8-6.2-6.2V48c0-3.4,2.8-6.2,6.2-6.2h7.3c3.4,0,6.2,2.8,6.2,6.2v7.3
		C106.5,58.7,103.8,61.5,100.4,61.5C100.4,61.5,100.4,61.5,100.4,61.5z M93.1,45.9c-1.2,0-2.1,0.9-2.2,2.1v7.3c0,1.2,1,2.2,2.2,2.2
		l0,0h7.3c1.2,0,2.2-1,2.2-2.2v0V48c0-1.2-1-2.2-2.2-2.2h0L93.1,45.9z"/>
	<path class="st0" d="M129.9,61.5h-7.3c-3.4,0-6.2-2.8-6.2-6.2V48c0-3.4,2.8-6.2,6.2-6.2h7.3c3.4,0,6.2,2.8,6.2,6.2v7.3
		C136.1,58.7,133.4,61.5,129.9,61.5C130,61.5,130,61.5,129.9,61.5z M122.6,45.9c-1.2,0-2.1,0.9-2.2,2.1v7.3c0,1.2,1,2.2,2.2,2.2h0
		h7.3c1.2,0,2.2-1,2.2-2.2v0V48c0-1.2-1-2.2-2.2-2.2h0L122.6,45.9z"/>
	<path class="st0" d="M159.5,61.5h-7.3c-3.4,0-6.2-2.8-6.2-6.2V48c0-3.4,2.8-6.2,6.2-6.2h7.3c3.4,0,6.2,2.8,6.2,6.2v7.3
		C165.7,58.7,163,61.5,159.5,61.5C159.5,61.5,159.5,61.5,159.5,61.5z M152.2,45.9c-1.2,0-2.1,0.9-2.2,2.1v7.3c0,1.2,1,2.2,2.2,2.2h0
		h7.3c1.2,0,2.2-1,2.2-2.2v0V48c0-1.2-1-2.2-2.2-2.2l0,0L152.2,45.9z"/>
	<path class="st0" d="M70.8,89.2h-7.3c-3.4,0-6.2-2.8-6.2-6.2v-7.3c0-3.4,2.8-6.2,6.2-6.2h7.3c3.4,0,6.2,2.8,6.2,6.2v7.3
		C76.9,86.5,74.2,89.2,70.8,89.2z M63.5,73.6c-1.2,0-2.2,1-2.2,2.2l0,0v7.3c0,1.2,1,2.2,2.2,2.2h0h7.3c1.2,0,2.2-1,2.2-2.2l0,0v-7.3
		c0-1.2-1-2.2-2.2-2.2l0,0H63.5z"/>
	<path class="st0" d="M100.4,89.2h-7.3c-3.4,0-6.2-2.8-6.2-6.2v-7.3c0-3.4,2.8-6.2,6.2-6.2h7.3c3.4,0,6.2,2.8,6.2,6.2v7.3
		C106.5,86.5,103.8,89.2,100.4,89.2z M93.1,73.6c-1.2,0-2.2,1-2.2,2.2l0,0v7.3c0,1.2,1,2.2,2.2,2.2l0,0h7.3c1.2,0,2.2-1,2.2-2.2v0
		v-7.3c0-1.2-1-2.2-2.2-2.2h0H93.1z"/>
	<path class="st0" d="M129.9,89.2h-7.3c-3.4,0-6.2-2.8-6.2-6.2v-7.3c0-3.4,2.8-6.2,6.2-6.2h7.3c3.4,0,6.2,2.8,6.2,6.2v7.3
		C136.1,86.5,133.3,89.2,129.9,89.2z M122.6,73.6c-1.2,0-2.2,1-2.2,2.2v0v7.3c0,1.2,1,2.2,2.2,2.2h0h7.3c1.2,0,2.2-1,2.2-2.2v0v-7.3
		c0-1.2-1-2.2-2.2-2.2l0,0H122.6z"/>
	<path class="st0" d="M159.5,117h-7.3c-3.4,0-6.2-2.8-6.2-6.2v-35c0-3.4,2.8-6.2,6.2-6.2h7.3c3.4,0,6.2,2.8,6.2,6.2v35
		C165.7,114.2,162.9,117,159.5,117z M152.2,73.7c-1.2,0-2.2,1-2.2,2.2v0v35c0,1.2,1,2.2,2.2,2.2h0h7.3c1.2,0,2.2-1,2.2-2.2l0,0v-35
		c0-1.2-1-2.2-2.2-2.2l0,0L152.2,73.7z"/>
	<path class="st0" d="M70.8,117h-7.3c-3.4,0-6.2-2.8-6.2-6.2v-7.3c0-3.4,2.8-6.2,6.2-6.2h7.3c3.4,0,6.2,2.8,6.2,6.2v7.3
		C76.9,114.2,74.2,117,70.8,117z M63.5,101.4c-1.2,0-2.2,1-2.2,2.2l0,0v7.3c0,1.2,1,2.2,2.2,2.2h7.3c1.2,0,2.2-1,2.2-2.2l0,0v-7.3
		c0-1.2-1-2.2-2.2-2.2l0,0L63.5,101.4z"/>
	<path class="st0" d="M100.4,117h-7.3c-3.4,0-6.2-2.8-6.2-6.2v-7.3c0-3.4,2.8-6.2,6.2-6.2h7.3c3.4,0,6.2,2.8,6.2,6.2v7.3
		C106.5,114.2,103.8,117,100.4,117z M93.1,101.4c-1.2,0-2.2,1-2.2,2.2l0,0v7.3c0,1.2,1,2.2,2.2,2.2h7.3c1.2,0,2.2-1,2.2-2.2l0,0
		v-7.3c0-1.2-1-2.2-2.2-2.2h0L93.1,101.4z"/>
	<path class="st0" d="M129.9,117h-7.3c-3.4,0-6.2-2.8-6.2-6.2v-7.3c0-3.4,2.8-6.2,6.2-6.2h7.3c3.4,0,6.2,2.8,6.2,6.2v7.3
		C136.1,114.2,133.3,117,129.9,117z M122.6,101.4c-1.2,0-2.2,1-2.2,2.2l0,0v7.3c0,1.2,1,2.2,2.2,2.2h7.3c1.2,0,2.2-1,2.2-2.2l0,0
		v-7.3c0-1.2-1-2.2-2.2-2.2l0,0L122.6,101.4z"/>
</g>
</svg>
