<svg xmlns="http://www.w3.org/2000/svg" viewBox="0 0 50 50"><title>depfin icons</title><g id="Layer_2_copy" data-name="Layer 2 copy"><path d="M47.24,16.34l-6.05-6a.75.75,0,0,0-.53-.22H17.32L14.21,3.3a.82.82,0,0,0-.69-.44.75.75,0,0,0-.68.46L10.21,9.49h-.15V8a.75.75,0,0,0-.75-.75H2.85A.75.75,0,0,0,2.1,8v8.92a.75.75,0,0,0,.75.75H4.47v3.65a.75.75,0,0,0,.75.75H9.71V46H3.5a.75.75,0,0,0,0,1.5h20a.75.75,0,1,0,0-1.5h-5.8V17.46l15.52.09v1.94a.75.75,0,0,0,.75.75h.8v6.28l-3.56,3.79a.75.75,0,0,0-.2.51v4a.75.75,0,0,0,.75.75h3.44a.73.73,0,0,0,.33-.08.73.73,0,0,0,.33.08h3.44a.75.75,0,0,0,.75-.75v-4a.75.75,0,0,0-.2-.51l-3.56-3.79V20.24h.8a.75.75,0,0,0,.75-.75V17.57l8.82,0h0a.75.75,0,0,0,.53-1.28ZM38.6,31.12v3H35.91a.73.73,0,0,0-.33.08.73.73,0,0,0-.33-.08H32.57v-3l3-3.21ZM26.31,16l3.95-4.36h0l4.21,4.41ZM11.7,41.18h4.56v4.19ZM4.83,15.55,9.29,11H9.4a.73.73,0,0,0,.56.62v3.94ZM11,12l3.79,3.51H11Zm1-.4h3.27v3Zm2.75,4.91L11,20.11V16.55Zm1.5,23.63H12L16.26,37Zm-.63-3.91-4.42,3.28V36.27Zm-4.42-1V32.07l4.19,3.21Zm.73-3.91h4.32v3.31Zm0-1,4.3-3.22v3.22Zm-.75-.69V26.45h4.3Zm0-4.22v-3l4.24,3Zm5-.65-4.24-3h4.24Zm-4.53-4,4.24-4H16a.73.73,0,0,0,.23,0v4Zm5-9.12h2.37l-2.37,2.76Zm8.46,4.06-3.49-4.06h7.16Zm6.44-4.06h7.62l-3.72,4.08ZM13.55,5.47l2,4.37a.74.74,0,0,0-.21.3H11.56Zm-5,3.23v1.54s0,0,0,0l-5,5.1V8.7ZM6,20.51V16.87a.74.74,0,0,0-.08-.32H10v4Zm5.24,21.58L15.45,46H11.21ZM17,16h0a.74.74,0,0,0-.23,0v-.06l3.67-4.28L24.17,16Zm19.38,2.78H34.78V17.55h1.61Zm.84-2.67-.09,0-.08,0h-.43l3.89-4.26,4.37,4.31Z"/></g></svg>