<?xml version="1.0" encoding="utf-8"?>
<!-- Generator: Adobe Illustrator 21.0.0, SVG Export Plug-In . SVG Version: 6.00 Build 0)  -->
<svg version="1.1" xmlns="http://www.w3.org/2000/svg" xmlns:xlink="http://www.w3.org/1999/xlink" x="0px" y="0px"
	 viewBox="0 0 50 50" style="enable-background:new 0 0 50 50;" xml:space="preserve">
<style type="text/css">
	.st0{fill:none;stroke:#000000;stroke-width:1.5;stroke-linecap:round;stroke-linejoin:round;stroke-miterlimit:10;}
</style>
<g id="Layer_1">
</g>
<g id="Layer_2_copy">
	<path d="M42.7,17.8H7.4c-0.4,0-0.8-0.3-0.8-0.8s0.3-0.8,0.8-0.8h35.4c0.4,0,0.8,0.3,0.8,0.8S43.2,17.8,42.7,17.8z"/>
	<path d="M40.9,38.4H9.2c-0.4,0-0.8-0.3-0.8-0.8s0.3-0.8,0.8-0.8h31.8c0.4,0,0.8,0.3,0.8,0.8S41.4,38.4,40.9,38.4z"/>
	<path d="M42.8,15H7.3c-0.3,0-0.6-0.2-0.7-0.6c-0.1-0.3,0.1-0.7,0.4-0.8l17.8-9.2c0.2-0.1,0.5-0.1,0.7,0l17.8,9.2
		c0.3,0.2,0.5,0.5,0.4,0.8C43.5,14.8,43.2,15,42.8,15z M10.4,13.5h29.4L25,5.9L10.4,13.5z"/>
	<path d="M41.8,44.9H8.3c-1,0-1.8-0.8-1.8-1.8v-1.6c0-1,0.8-1.8,1.8-1.8h33.6c1,0,1.8,0.8,1.8,1.8v1.6
		C43.6,44.1,42.8,44.9,41.8,44.9z M8.3,41.3c-0.1,0-0.2,0.1-0.2,0.2v1.6c0,0.1,0.1,0.2,0.2,0.2h33.6c0.1,0,0.2-0.1,0.2-0.2v-1.6
		c0-0.1-0.1-0.2-0.2-0.2H8.3z"/>
	<path d="M10.9,35.6c-0.4,0-0.8-0.3-0.8-0.8V20c0-0.4,0.3-0.8,0.8-0.8s0.8,0.3,0.8,0.8v14.8C11.7,35.2,11.3,35.6,10.9,35.6z"/>
	<path d="M16.4,35.6c-0.4,0-0.7-0.3-0.7-0.8V20c0-0.4,0.3-0.8,0.7-0.8c0.4,0,0.8,0.3,0.8,0.8v14.8C17.1,35.2,16.8,35.6,16.4,35.6z"
		/>
	<path d="M22.3,35.6c-0.4,0-0.8-0.3-0.8-0.8V20c0-0.4,0.3-0.8,0.8-0.8s0.8,0.3,0.8,0.8v14.8C23.1,35.2,22.7,35.6,22.3,35.6z"/>
	<path d="M27.8,35.6c-0.4,0-0.8-0.3-0.8-0.8V20c0-0.4,0.3-0.8,0.8-0.8s0.8,0.3,0.8,0.8v14.8C28.5,35.2,28.2,35.6,27.8,35.6z"/>
	<path d="M33.7,35.6c-0.4,0-0.8-0.3-0.8-0.8V20c0-0.4,0.3-0.8,0.8-0.8s0.8,0.3,0.8,0.8v14.8C34.5,35.2,34.1,35.6,33.7,35.6z"/>
	<path d="M38.9,35.6c-0.4,0-0.8-0.3-0.8-0.8V20c0-0.4,0.3-0.8,0.8-0.8s0.8,0.3,0.8,0.8v14.8C39.6,35.2,39.3,35.6,38.9,35.6z"/>
</g>
</svg>
