<?xml version="1.0" encoding="utf-8"?>
<!-- Generator: Adobe Illustrator 21.0.0, SVG Export Plug-In . SVG Version: 6.00 Build 0)  -->
<svg version="1.1" xmlns="http://www.w3.org/2000/svg" xmlns:xlink="http://www.w3.org/1999/xlink" x="0px" y="0px"
	 viewBox="0 0 50 50" style="enable-background:new 0 0 50 50;" xml:space="preserve">
<style type="text/css">
	.st0{fill:none;stroke:#000000;stroke-width:1.5;stroke-linecap:round;stroke-linejoin:round;stroke-miterlimit:10;}
</style>
<g id="Layer_1">
</g>
<g id="Layer_2_copy">
	<path d="M25.7,28.3c-5.2,0-9.4-4.2-9.4-9.4s4.2-9.4,9.4-9.4s9.4,4.2,9.4,9.4S30.9,28.3,25.7,28.3z M25.7,10.9
		c-4.4,0-7.9,3.6-7.9,7.9s3.6,7.9,7.9,7.9s7.9-3.6,7.9-7.9S30.1,10.9,25.7,10.9z"/>
	<path d="M23.8,22.8c-0.2,0-0.4-0.1-0.5-0.2l-3.3-3.5c-0.3-0.3-0.3-0.8,0-1.1c0.3-0.3,0.8-0.3,1.1,0l2.9,3l7-5.6
		c0.3-0.3,0.8-0.2,1.1,0.1c0.3,0.3,0.2,0.8-0.1,1.1l-7.6,6C24.1,22.7,23.9,22.8,23.8,22.8z"/>
	<path d="M25.9,33.4c-0.8,0-1.5-0.3-2.1-0.9c-0.7-0.7-2-1-3-0.8c-0.8,0.2-1.6,0.1-2.2-0.3c-0.7-0.4-1.2-1-1.4-1.8
		c-0.2-0.9-1.3-1.9-2.2-2.2c-0.8-0.2-1.4-0.7-1.8-1.4c-0.4-0.7-0.5-1.5-0.3-2.2c0.3-0.9-0.1-2.3-0.8-3c-0.6-0.6-0.9-1.3-0.9-2.1
		c0-0.8,0.3-1.5,0.9-2.1c0.7-0.7,1-2,0.8-3c-0.2-0.8-0.1-1.6,0.3-2.2c0.4-0.7,1-1.2,1.8-1.4C16,9.9,17,8.9,17.2,8
		c0.2-0.8,0.7-1.4,1.4-1.8c0.7-0.4,1.5-0.5,2.2-0.3c0.9,0.3,2.3-0.1,3-0.8l0,0C24.9,4,26.9,4,28,5.1c0.7,0.7,2,1,3,0.8
		c0.8-0.2,1.6-0.1,2.2,0.3s1.2,1,1.4,1.8c0.2,0.9,1.3,1.9,2.2,2.2c0.8,0.2,1.4,0.7,1.8,1.4c0.4,0.7,0.5,1.5,0.3,2.2
		c-0.3,0.9,0.1,2.3,0.8,3c0.6,0.6,0.9,1.3,0.9,2.1c0,0.8-0.3,1.5-0.9,2.1c-0.7,0.7-1,2-0.8,3c0.2,0.8,0.1,1.6-0.3,2.2
		c-0.4,0.7-1,1.2-1.8,1.4c-0.9,0.2-1.9,1.3-2.2,2.2c-0.2,0.8-0.7,1.4-1.4,1.8c-0.7,0.4-1.5,0.5-2.2,0.3c-0.9-0.3-2.3,0.1-3,0.8
		C27.4,33.1,26.7,33.4,25.9,33.4z M21.5,30.2c1.2,0,2.6,0.5,3.4,1.3c0.5,0.6,1.5,0.6,2,0c1-1.1,3-1.6,4.4-1.2
		c0.4,0.1,0.8,0.1,1.1-0.1s0.6-0.5,0.7-0.9c0.4-1.4,1.8-2.9,3.2-3.2c0.4-0.1,0.7-0.3,0.9-0.7s0.2-0.7,0.1-1.1
		c-0.4-1.4,0.1-3.4,1.2-4.4c0.3-0.3,0.4-0.6,0.4-1c0-0.4-0.2-0.8-0.4-1c-1.1-1-1.6-3-1.2-4.4c0.1-0.4,0.1-0.8-0.1-1.1
		c-0.2-0.3-0.5-0.6-0.9-0.7c-1.4-0.4-2.9-1.8-3.2-3.2C33,8,32.8,7.7,32.4,7.5c-0.3-0.2-0.7-0.2-1.1-0.1c-1.4,0.4-3.4-0.1-4.4-1.2
		c-0.5-0.6-1.5-0.6-2,0l-0.5-0.5l0.5,0.5c-1,1.1-3,1.6-4.4,1.2c-0.4-0.1-0.8-0.1-1.1,0.1C19,7.7,18.8,8,18.7,8.4
		c-0.4,1.4-1.8,2.9-3.2,3.2c-0.4,0.1-0.7,0.3-0.9,0.7c-0.2,0.3-0.2,0.7-0.1,1.1c0.4,1.4-0.1,3.4-1.2,4.4c-0.3,0.3-0.4,0.6-0.4,1
		c0,0.4,0.2,0.8,0.4,1c1.1,1,1.6,3,1.2,4.4c-0.1,0.4-0.1,0.8,0.1,1.1s0.5,0.6,0.9,0.7c1.4,0.4,2.9,1.8,3.2,3.2
		c0.1,0.4,0.3,0.7,0.7,0.9c0.3,0.2,0.7,0.2,1.1,0.1C20.8,30.2,21.1,30.2,21.5,30.2z"/>
	<path d="M19.9,46.8c-0.2,0-0.4-0.1-0.6-0.3l-3-3.7l-4.8,0.2c-0.3,0-0.5-0.1-0.7-0.3c-0.1-0.2-0.2-0.5-0.1-0.7l6-13.6
		c0.2-0.4,0.6-0.6,1-0.4c0.4,0.2,0.5,0.6,0.4,1l-5.5,12.5l3.9-0.2c0.2,0,0.5,0.1,0.6,0.3l2.5,3L24.9,33c0.2-0.4,0.6-0.5,1-0.4
		c0.4,0.2,0.6,0.6,0.4,1l-5.6,12.8c-0.1,0.2-0.3,0.4-0.6,0.4C20,46.8,20,46.8,19.9,46.8z"/>
	<path d="M32,46.8c0,0-0.1,0-0.1,0c-0.3,0-0.5-0.2-0.6-0.4l-5.7-12.9c-0.2-0.4,0-0.8,0.4-1c0.4-0.2,0.8,0,1,0.4l5.2,11.8l2.5-3
		c0.1-0.2,0.4-0.3,0.6-0.3l3.9,0.2l-5.6-12.8c-0.2-0.4,0-0.8,0.4-1c0.4-0.2,0.8,0,1,0.4l6.1,13.9c0.1,0.2,0.1,0.5-0.1,0.7
		c-0.1,0.2-0.4,0.3-0.7,0.3l-4.8-0.2l-3,3.7C32.4,46.7,32.2,46.8,32,46.8z"/>
</g>
</svg>
