<?xml version="1.0" encoding="utf-8"?>
<!-- Generator: Adobe Illustrator 21.0.0, SVG Export Plug-In . SVG Version: 6.00 Build 0)  -->
<svg version="1.1" xmlns="http://www.w3.org/2000/svg" xmlns:xlink="http://www.w3.org/1999/xlink" x="0px" y="0px"
	 viewBox="0 0 50 50" style="enable-background:new 0 0 50 50;" xml:space="preserve">
<style type="text/css">
	.st0{fill:none;stroke:#000000;stroke-width:1.5;stroke-linecap:round;stroke-linejoin:round;stroke-miterlimit:10;}
</style>
<g id="Layer_1">
</g>
<g id="Layer_2_copy">
	<path d="M26.3,46.1c-0.1,0-0.2,0-0.3,0H24c-0.2,0-0.4,0-0.6,0h-0.3c-0.1,0-0.2,0-0.3-0.1c-2.4-0.1-5.3-0.4-7.9-1.3
		c-5.1-1.7-7.7-5-7.7-9.8c0-13.1,11.5-21.9,12-22.3c0.1-0.1,0.3-0.2,0.5-0.2h10.6c0.2,0,0.3,0.1,0.5,0.2c0.5,0.4,12,9.2,12,22.3
		c0,4.8-2.6,8.2-7.7,9.8c-2.6,0.9-5.4,1.2-7.9,1.3c-0.1,0-0.2,0.1-0.3,0.1h-0.3C26.5,46.1,26.4,46.1,26.3,46.1z M19.9,14
		c-1.5,1.2-11.2,9.5-11.2,20.9c0,4.2,2.2,6.9,6.7,8.4c3.2,1,6.8,1.2,9.5,1.3c2.7,0,6.3-0.2,9.5-1.3c4.5-1.5,6.7-4.2,6.7-8.4
		c0-11.5-9.7-19.7-11.2-20.9H19.9z"/>
	<path d="M19.7,14c-0.2,0-0.4-0.1-0.6-0.3c-0.1-0.1-2.6-3.1-3.6-4.4c-0.7-0.9-0.8-2-0.3-2.9c0.4-0.7,1.2-1.1,2.1-0.9
		c1.5,0.2,2.9,0.5,3.7,0.7c0.2-0.1,0.6-0.4,0.9-0.7C22.8,4.8,23.9,4,25,4c1.2,0,2.2,0.7,3.2,1.3c0.4,0.3,0.9,0.6,1.2,0.7
		c0.5-0.1,2.2-0.2,3.2-0.5c1-0.2,2,0.1,2.5,0.9c0.5,0.7,0.5,1.6-0.1,2.5c-1,1.6-4.1,4.8-4.3,4.9c-0.3,0.3-0.8,0.3-1.1,0
		c-0.3-0.3-0.3-0.8,0-1.1c0,0,3.2-3.2,4.1-4.7C34,7.8,34.1,7.5,34,7.2c-0.1-0.2-0.5-0.4-1-0.3c-1.3,0.3-3.4,0.5-3.5,0.5
		c-0.1,0-0.2,0-0.3,0c-0.6-0.1-1.2-0.5-1.8-0.9C26.6,6,25.7,5.5,25,5.5c-0.6,0-1.5,0.7-2.1,1.2c-0.8,0.6-1.5,1.1-2.1,1
		C20,7.4,18.6,7.2,17.2,7c-0.2,0-0.5,0-0.7,0.2c-0.1,0.2-0.1,0.7,0.2,1.2c0.9,1.3,3.5,4.3,3.5,4.3c0.3,0.3,0.2,0.8-0.1,1.1
		C20,13.9,19.8,14,19.7,14z"/>
	<path d="M32.1,23.2c-0.4,0-0.7-0.3-0.7-0.7c-0.2-3.4-1.8-6.7-2.6-8.1c-0.8,0.9-2.1,2.5-2.2,4.3c0,0.4-0.4,0.7-0.8,0.7
		c-0.4,0-0.7-0.4-0.7-0.8c0.3-3.3,3.3-5.9,3.4-6c0.2-0.1,0.4-0.2,0.6-0.2c0.2,0,0.4,0.1,0.5,0.3c0.1,0.2,3.1,4.6,3.4,9.6
		C32.9,22.9,32.6,23.2,32.1,23.2C32.2,23.2,32.2,23.2,32.1,23.2z"/>
</g>
</svg>
