<?xml version="1.0" encoding="utf-8"?>
<!-- Generator: Adobe Illustrator 19.0.0, SVG Export Plug-In . SVG Version: 6.00 Build 0)  -->
<svg version="1.1" id="Слой_1" xmlns="http://www.w3.org/2000/svg" xmlns:xlink="http://www.w3.org/1999/xlink" x="0px" y="0px"
	 viewBox="-34 42 18 18" style="enable-background:new -34 42 18 18;" xml:space="preserve">
<path d="M-32,42h14c1.1,0,2,0.9,2,2v14c0,1.1-0.9,2-2,2h-14c-1.1,0-2-0.9-2-2V44C-34,42.9-33.1,42-32,42 M-19,44h-2.5
	c-1.9,0-3.5,1.6-3.5,3.5V50h-2v3h2v7h3v-7h3v-3h-3v-2c0-0.6,0.4-1,1-1h2V44z"/>
</svg>
