<svg xmlns="http://www.w3.org/2000/svg" viewBox="0 0 50 50"><title>depfin icons</title><g id="Layer_2_copy" data-name="Layer 2 copy"><path d="M25.52,7.48a17.8,17.8,0,1,0,17.8,17.8A17.82,17.82,0,0,0,25.52,7.48Zm11.85,5.89a.49.49,0,0,0,.11.23c.95,1,1.33,3.92,1.44,5.47l-3.35,3.19a17.49,17.49,0,0,0-6.36-2.76l-2-6A7.65,7.65,0,0,1,30,11l.05,0,6,2.12a.75.75,0,0,0,.8-.2C37.06,13.08,37.22,13.22,37.37,13.37Zm-24,18.72a.74.74,0,0,0,0-.14l-1.1-7.15a.72.72,0,0,0,0-.08,8.84,8.84,0,0,1,1-1.23l1.48-1.21a10,10,0,0,1,1.52-.83l6,4a28.8,28.8,0,0,0,.87,6.41l-4.91,3.34A17.88,17.88,0,0,1,13.37,32.09Zm10.72-.41h0a28.06,28.06,0,0,1-.84-6.22l5.78-5a16.71,16.71,0,0,1,6.06,2.65l.67,7.43a25,25,0,0,1-5.5,4.09ZM39.94,19h0A22.33,22.33,0,0,0,39.5,16a16.72,16.72,0,0,1,2.11,4.5ZM28.56,8.77a.74.74,0,0,0,.13.59l.65.87a8.66,8.66,0,0,0-3,2.75l-7.3.4a15.23,15.23,0,0,0-2.54-2.26,16.58,16.58,0,0,1,12-2.33ZM15.68,11.68a.49.49,0,0,0,.11.11A15.13,15.13,0,0,1,18.28,14L15.9,20.5h0a10.69,10.69,0,0,0-4.23,3.28L9.78,21a.74.74,0,0,0-.42-.29A16.8,16.8,0,0,1,15.68,11.68ZM11.09,33.85l1.64-1a18.73,18.73,0,0,0,5.08,3.29.72.72,0,0,0,.06.16l2.39,3.78-.76.57a.49.49,0,0,0-.15.21A16.84,16.84,0,0,1,11.09,33.85Zm9.3,7.42.61-.46,0,0c.11,0,2.82.32,4.47.32a25.4,25.4,0,0,0,3.31-.27c.59,0,1.65.06,2.68.06h.07a16.68,16.68,0,0,1-11.2.34Zm13.33-1.34a.49.49,0,0,0-.31-.07,30.78,30.78,0,0,1-3.55,0l.79-4.35a25.16,25.16,0,0,0,5.62-4.12.74.74,0,0,0,.2,0l4.57.23A16.85,16.85,0,0,1,33.72,39.94Z"/></g></svg>