<svg xmlns="http://www.w3.org/2000/svg" xmlns:xlink="http://www.w3.org/1999/xlink" version="1.1" x="0px" y="0px" viewBox="0 0 512 640" enable-background="new 0 0 512 512" xml:space="preserve"><g><path d="M427.7,260.6l-93.7-81.3c-1-0.8-2.1-1.6-3.2-2.2l-56.2-31.2c-2.8-1.6-5.9-2.4-9.1-2.4H152.9c-10.4,0-18.7,8.4-18.7,18.7   c0,10.4,8.4,18.7,18.7,18.7h89.2l-77,135.7c-5.1,9-1.9,20.5,7.1,25.6c2.9,1.6,6.1,2.4,9.2,2.4c6.5,0,12.9-3.4,16.3-9.5l31.6-55.7   l11.3,7.1l-64,112.8c-5.1,9-1.9,20.5,7.1,25.6c2.9,1.6,6.1,2.4,9.2,2.4c6.5,0,12.9-3.4,16.3-9.5l112.9-199.1l80.9,70.1   c3.6,3.1,7.9,4.6,12.3,4.6c5.2,0,10.5-2.2,14.2-6.5C436.3,279.2,435.5,267.4,427.7,260.6z"/><circle cx="321.6" cy="106" r="37.5"/><circle cx="115.4" cy="406" r="37.5"/></g><text x="0" y="527" fill="#000000" font-size="5px" font-weight="bold" font-family="'Helvetica Neue', Helvetica, Arial-Unicode, Arial, Sans-serif">Created by Creative Stall</text><text x="0" y="532" fill="#000000" font-size="5px" font-weight="bold" font-family="'Helvetica Neue', Helvetica, Arial-Unicode, Arial, Sans-serif">from the Noun Project</text></svg>