<svg xmlns="http://www.w3.org/2000/svg" viewBox="0 0 26.53 17.74"><defs><style>.cls-1{fill:#fff;}</style></defs><title>Untitled-1</title><g id="Layer_2" data-name="Layer 2"><path class="cls-1" d="M26.52,12.47c0-.09-2.16-9.32-2.52-10.76C23.54-.12,21.07,0,21,0a.5.5,0,0,0-.47.53A.49.49,0,0,0,21,1s1.74-.08,2,1c.31,1.22,1.89,8,2.37,10.13H24.16a5.12,5.12,0,0,0-10.2,0h-1.4a5.12,5.12,0,0,0-10.2,0H1.13C1.61,10,3.19,3.17,3.5,2c.26-1,2-1,2-1A.47.47,0,0,0,6,.53.5.5,0,0,0,5.56,0C5.46,0,3-.12,2.53,1.71,2.17,3.16,0,12.38,0,12.47a.5.5,0,0,0,.49.61H2.37a5.12,5.12,0,0,0,10.2,0H14a5.12,5.12,0,0,0,10.2,0H26a.5.5,0,0,0,.49-.61ZM7.46,16.74a4.15,4.15,0,1,1,4.15-4.15A4.15,4.15,0,0,1,7.46,16.74Zm11.6,0a4.15,4.15,0,1,1,4.15-4.15A4.15,4.15,0,0,1,19.06,16.74Z"/></g></svg>