<svg xmlns="http://www.w3.org/2000/svg" viewBox="0 0 26.42 16.78"><title>google_plus</title><path d="M0,8A8.37,8.37,0,0,1,8.39,0,8.5,8.5,0,0,1,14,2.08a29.87,29.87,0,0,1-2.13,2.2C10,3,7.25,2.59,5.34,4.11a5.37,5.37,0,0,0-.23,8.37c2.55,2.32,7.38,1.17,8.08-2.38-1.6,0-3.2,0-4.8-.05,0-1,0-1.91,0-2.86,2.67,0,5.34,0,8,0a9.62,9.62,0,0,1-1.51,6.49c-2.09,2.94-6.28,3.79-9.55,2.54A8.4,8.4,0,0,1,0,8Z" fill="#fff"/><path d="M21.62,4.78H24c0,.8,0,1.6,0,2.4l2.4,0V9.58L24,9.6q0,1.2,0,2.4H21.62c0-.8,0-1.59,0-2.39l-2.4,0V7.19l2.4,0Q21.61,6,21.62,4.78Z" fill="#fff"/></svg>
