<svg xmlns="http://www.w3.org/2000/svg" viewBox="0 0 50 50"><title>depfin icons</title><g id="Layer_2_copy" data-name="Layer 2 copy"><path d="M21.93,45.28a23.42,23.42,0,0,1-11.7-3.15C6.11,39.62,3.93,36,3.93,31.72c0-9.13,11.2-14,19.28-14a28.43,28.43,0,0,1,5.6.47.75.75,0,1,1-.27,1.48,27.07,27.07,0,0,0-5.33-.45,24.25,24.25,0,0,0-11.56,3.16C8.82,24,5.43,27,5.43,31.72S9.91,43.78,21.93,43.78c7.26,0,15.38-2.35,15.38-5.5,0-1.73-.94-2.48-2-3.36s-2.2-1.76-2.2-3.56A5.49,5.49,0,0,1,35.6,26.6c1-.8,1.71-1.37,1.71-2.87,0-.58-.58-1.24-1.64-1.86a.75.75,0,0,1,.76-1.29c1.58.92,2.38,2,2.38,3.15a4.74,4.74,0,0,1-2.27,4,4,4,0,0,0-2,3.6c0,1,.59,1.55,1.64,2.39s2.6,2.08,2.6,4.53C38.81,43.05,28.74,45.28,21.93,45.28Z"/><path d="M29.81,40.33c-2.07,0-3.7-1.2-3.7-2.73s1.62-2.73,3.7-2.73,3.7,1.2,3.7,2.73S31.89,40.33,29.81,40.33Zm0-4c-1.29,0-2.2.65-2.2,1.23s.9,1.23,2.2,1.23S32,38.18,32,37.6,31.11,36.37,29.81,36.37Z"/><path d="M17.85,40.89c-2.07,0-3.7-1.2-3.7-2.73s1.62-2.73,3.7-2.73,3.7,1.2,3.7,2.73S19.92,40.89,17.85,40.89Zm0-4c-1.29,0-2.2.65-2.2,1.23s.9,1.23,2.2,1.23,2.2-.65,2.2-1.23S19.15,36.93,17.85,36.93Z"/><path d="M12,34.23c-2.07,0-3.7-1.2-3.7-2.73s1.62-2.73,3.7-2.73,3.7,1.2,3.7,2.73S14,34.23,12,34.23Zm0-4c-1.29,0-2.2.65-2.2,1.23s.9,1.23,2.2,1.23,2.2-.65,2.2-1.23S13.25,30.27,12,30.27Z"/><path d="M17.06,27.73c-2.07,0-3.7-1.2-3.7-2.73s1.62-2.73,3.7-2.73,3.7,1.2,3.7,2.73S19.13,27.73,17.06,27.73Zm0-4c-1.29,0-2.2.65-2.2,1.23s.9,1.23,2.2,1.23,2.2-.65,2.2-1.23S18.35,23.77,17.06,23.77Z"/><path d="M23.41,31.95a.75.75,0,0,1-.75-.69c-.45-5.25,3-6.61,4.23-6.92A96.21,96.21,0,0,1,44.32,3.72h0a.82.82,0,0,1,.78-.17.76.76,0,0,1,.5.58c.23,1.26-11.2,17.8-16.27,22.25,0,1.25-.64,4.95-5.82,5.56ZM41.25,8.69A91.72,91.72,0,0,0,28,25.37a.75.75,0,0,1-.56.37c-.35,0-3.32.58-3.34,4.58,4-.85,3.71-4.07,3.7-4.22a.75.75,0,0,1,.27-.65C31.84,22.36,37.74,14,41.25,8.69Zm3.57-4.41h0Z"/></g></svg>