<svg xmlns="http://www.w3.org/2000/svg" viewBox="0 0 50 50"><title>depfin icons</title><g id="Layer_2_copy" data-name="Layer 2 copy"><path d="M17.1,29.27a13.9,13.9,0,0,1-3.7-3.73,3.58,3.58,0,0,0-2.93-1.81C10,21.14,9.39,17,9.33,16a3.5,3.5,0,0,0-2.17-3,1.5,1.5,0,0,0-1.67.87c-.68,1.28-.71,5.59-.68,12,0,.84,0,1.66,0,2.42,0,3.49,3.67,6.24,6.63,8.44,1.15.86,2.89,2.15,2.93,2.63v6a.75.75,0,0,0,.75.75H23a.75.75,0,0,0,.75-.75V38.55c0-3.42-.82-4.8-1.53-5.61A33.87,33.87,0,0,0,17.1,29.27Zm5.15,15.4H15.87V39.38c0-1.19-1.48-2.3-3.53-3.83-2.68-2-6-4.49-6-7.24,0-.76,0-1.58,0-2.43,0-4.09,0-10.26.51-11.31l.06-.1a2.26,2.26,0,0,1,1,1.62c.08,1.22.95,6.62,1.2,8.17a3.3,3.3,0,0,0-.36,4c.79,1.59,2.67,3.32,4.49,5,1.31,1.21,2.79,2.57,3,3.22A.75.75,0,0,0,17.6,36c-.32-1-1.51-2.09-3.42-3.85-1.64-1.51-3.5-3.22-4.17-4.56s-.11-2.07.16-2.31c.28,0,1.17-.09,2,1.13a15.44,15.44,0,0,0,4.18,4.19,33.71,33.71,0,0,1,4.77,3.37c.35.4,1.16,1.32,1.16,4.62Z"/><path d="M45.37,13.88A1.5,1.5,0,0,0,43.7,13a3.44,3.44,0,0,0-2.17,3c-.06,1-.71,5.14-1.13,7.72a3.58,3.58,0,0,0-2.93,1.81,13.94,13.94,0,0,1-3.7,3.73,33.9,33.9,0,0,0-5.12,3.67c-.71.81-1.53,2.18-1.53,5.61v6.87a.75.75,0,0,0,.75.75h7.88a.75.75,0,0,0,.75-.75v-6c0-.48,1.78-1.77,2.93-2.63,3-2.2,6.63-4.94,6.63-8.44,0-.76,0-1.57,0-2.41C46.08,19.48,46.05,15.17,45.37,13.88Zm-.82,12c0,.84,0,1.66,0,2.42,0,2.74-3.34,5.23-6,7.24C36.47,37.08,35,38.19,35,39.38v5.29H28.61V38.55c0-3.3.81-4.22,1.16-4.62a33.76,33.76,0,0,1,4.77-3.37,15.48,15.48,0,0,0,4.18-4.19,2,2,0,0,1,2-1.13c.23.21.85.92.16,2.31s-2.53,3.05-4.17,4.56C34.78,33.87,33.59,35,33.27,36a.75.75,0,0,0,1.42.47c.22-.65,1.7-2,3-3.22,1.82-1.68,3.7-3.41,4.49-5a3.3,3.3,0,0,0-.36-4c.25-1.54,1.13-7,1.2-8.17A2.43,2.43,0,0,1,44,14.46a.4.4,0,0,1,.09.13C44.6,15.63,44.57,21.81,44.56,25.9Z"/><path d="M25.77,27.82C26.27,27.51,38,20.12,38,11.57a6.76,6.76,0,0,0-7-6.67,7.16,7.16,0,0,0-5.71,2.54A7.16,7.16,0,0,0,19.67,4.9a6.76,6.76,0,0,0-7,6.67c0,8.55,11.77,15.94,12.27,16.25h0l0,0a.74.74,0,0,0,.33.08h0a.74.74,0,0,0,.33-.08l0,0ZM14.21,11.57A5.27,5.27,0,0,1,19.67,6.4a5.52,5.52,0,0,1,5,2.69l.05.07a.72.72,0,0,0,.1.12l.12.09.07.06h0l.15,0,.14,0,.14,0,.15,0h0l.07-.05.12-.1A.72.72,0,0,0,26,9.16a.7.7,0,0,0,.06-.07,5.55,5.55,0,0,1,5-2.69,5.27,5.27,0,0,1,5.46,5.17c0,6.9-9.15,13.37-11.17,14.71C23.36,24.94,14.21,18.47,14.21,11.57Z"/></g></svg>