<svg xmlns="http://www.w3.org/2000/svg" viewBox="0 0 50 50"><title>depfin icons</title><g id="Layer_2_copy" data-name="Layer 2 copy"><path d="M25.5,45.36a.75.75,0,0,1-.43-.13c-.64-.45-15.73-11.07-15.73-19.56V12.37a.75.75,0,0,1,.44-.68L25.18,4.58a.75.75,0,0,1,.63,0l15.41,7.11a.75.75,0,0,1,.44.68V25.66c0,9-15.1,19.15-15.74,19.57A.75.75,0,0,1,25.5,45.36ZM10.84,12.85V25.66c0,7,12.23,16.25,14.67,18C28,42,40.15,33.1,40.15,25.66V12.85L25.5,6.09Z"/><path d="M24.44,28.12a.75.75,0,0,1-.5-.19l-5.21-4.74a.75.75,0,0,1,1-1.11l5.21,4.74a.75.75,0,0,1-.5,1.31Z"/><path d="M24.44,28.12a.75.75,0,0,1-.53-1.28l8.53-8.41a.75.75,0,1,1,1.05,1.07L25,27.9A.75.75,0,0,1,24.44,28.12Z"/></g></svg>