<svg xmlns="http://www.w3.org/2000/svg" viewBox="0 0 50 50"><title>depfin icons</title><g id="Layer_2_copy" data-name="Layer 2 copy"><path d="M45.17,23.7a3,3,0,0,0-1.46-5.54H41.29l-1.65-4.64a5.5,5.5,0,0,0-5.18-3.65H15.54a5.5,5.5,0,0,0-5.18,3.65L8.71,18.16H6.29A3,3,0,0,0,4.83,23.7a3.15,3.15,0,0,0-1.44,2.64V36.66a2.72,2.72,0,0,0,2,2.61v2.9A2.61,2.61,0,0,0,8,44.78h2.36a2.61,2.61,0,0,0,2.61-2.61v-2.8H37.06v2.8a2.61,2.61,0,0,0,2.61,2.61H42a2.61,2.61,0,0,0,2.61-2.61v-2.9a2.72,2.72,0,0,0,2-2.61V26.34A3.15,3.15,0,0,0,45.17,23.7ZM11.77,14a4,4,0,0,1,3.76-2.66H34.46A4,4,0,0,1,38.23,14l1.54,4.33a.74.74,0,0,0,0,.33l.35,1.2a1,1,0,0,1-.93,1.24H10.61a1,1,0,0,1-.91-1.3l.24-.64h0Zm-.33,28.15a1.11,1.11,0,0,1-1.11,1.11H8a1.11,1.11,0,0,1-1.11-1.11v-2.8h4.58ZM42,43.28H39.67a1.11,1.11,0,0,1-1.11-1.11v-2.8h4.58v2.8A1.11,1.11,0,0,1,42,43.28Zm3.07-6.62a1.22,1.22,0,0,1-1.22,1.22H6.11a1.22,1.22,0,0,1-1.22-1.22V26.34A1.65,1.65,0,0,1,6.54,24.7a.75.75,0,0,0,.75-.75v-.61a.75.75,0,0,0-.75-.75H6.29a1.46,1.46,0,0,1,0-2.92H8.21a2.44,2.44,0,0,0,2.4,3H39.2a2.44,2.44,0,0,0,2.4-3h2.1a1.46,1.46,0,1,1,0,2.92h-.25a.75.75,0,0,0-.75.75v.61a.75.75,0,0,0,.75.75,1.65,1.65,0,0,1,1.65,1.65Z"/><path d="M10.62,26.51a3,3,0,1,0,3,3A3,3,0,0,0,10.62,26.51Zm0,4.49a1.49,1.49,0,1,1,1.49-1.49A1.5,1.5,0,0,1,10.62,31Z"/><path d="M39.88,26.51a3,3,0,1,0,3,3A3,3,0,0,0,39.88,26.51Zm0,4.49a1.49,1.49,0,1,1,1.49-1.49A1.5,1.5,0,0,1,39.88,31Z"/><path d="M31.67,31H18.33a.75.75,0,0,0-.75.75v3.39a.75.75,0,0,0,.75.75H31.67a.75.75,0,0,0,.75-.75V31.75A.75.75,0,0,0,31.67,31Zm-.75,3.39H19.08V32.5H30.92Z"/></g></svg>