<svg xmlns="http://www.w3.org/2000/svg" viewBox="0 0 50 50"><title>depfin icons</title><g id="Layer_2_copy" data-name="Layer 2 copy"><path d="M26.09,32.45A8.43,8.43,0,1,1,34.52,24,8.44,8.44,0,0,1,26.09,32.45Zm0-15.37A6.93,6.93,0,1,0,33,24,6.94,6.94,0,0,0,26.09,17.08Z"/><path d="M14.69,24.76H6.83a.75.75,0,0,1,0-1.5h7.86a.75.75,0,0,1,0,1.5Z"/><path d="M18,16.7a.75.75,0,0,1-.53-.22l-5.56-5.56A.75.75,0,0,1,13,9.86l5.56,5.56A.75.75,0,0,1,18,16.7Z"/><path d="M26.09,13.36a.75.75,0,0,1-.75-.75V4.75a.75.75,0,0,1,1.5,0v7.86A.75.75,0,0,1,26.09,13.36Z"/><path d="M34.15,16.7a.75.75,0,0,1-.53-1.28l5.56-5.56a.75.75,0,0,1,1.06,1.06l-5.56,5.56A.75.75,0,0,1,34.15,16.7Z"/><path d="M45.35,24.76H37.49a.75.75,0,0,1,0-1.5h7.86a.75.75,0,1,1,0,1.5Z"/><path d="M39.7,38.38a.75.75,0,0,1-.53-.22L33.62,32.6a.75.75,0,1,1,1.06-1.06l5.56,5.56a.75.75,0,0,1-.53,1.28Z"/><path d="M12.47,38.38a.75.75,0,0,1-.53-1.28l5.56-5.56a.75.75,0,1,1,1.06,1.06L13,38.16A.75.75,0,0,1,12.47,38.38Z"/><path d="M22.51,37.24a.75.75,0,0,1-.08-1.5l7.43-.85A.75.75,0,0,1,30,36.39l-7.43.85Z"/><path d="M22.51,42a.75.75,0,0,1-.08-1.5l7.43-.85A.75.75,0,1,1,30,41.18L22.6,42Z"/><path d="M23.75,46.59a.75.75,0,0,1-.08-1.5l4.8-.55A.75.75,0,1,1,28.63,46l-4.8.55Z"/></g></svg>