<?xml version="1.0" encoding="utf-8"?>
<!-- Generator: Adobe Illustrator 21.1.0, SVG Export Plug-In . SVG Version: 6.00 Build 0)  -->
<svg version="1.1" xmlns="http://www.w3.org/2000/svg" xmlns:xlink="http://www.w3.org/1999/xlink" x="0px" y="0px"
	 viewBox="0 0 24 24" style="enable-background:new 0 0 24 24;" xml:space="preserve">
<style type="text/css">
	.st0{fill:none;stroke:#000000;stroke-width:1.5;stroke-linecap:round;stroke-linejoin:round;stroke-miterlimit:10;}
	.st1{fill:#1D1D1B;}
</style>
<g id="Layer_1">
</g>
<g id="Layer_2_copy">
	<path class="st1" d="M8.2,12c0-0.1,0-0.2,0-0.3h-2c0,0.1,0,0.2,0,0.3c0,2.4,1.5,4.5,3.6,5.4l0.7-1.9C9.1,14.9,8.2,13.6,8.2,12z"/>
	<path class="st1" d="M15.9,3.9l-0.9,1.8C17.4,6.9,19,9.2,19,12c0,3.9-3.1,7-7,7c-3.9,0-7-3.1-7-7c0-0.1,0-0.2,0-0.3H3
		c0,0.1,0,0.2,0,0.3c0,5,4,9,9,9c5,0,9-4,9-9C21,8.4,18.9,5.4,15.9,3.9z"/>
	<path class="st1" d="M20.6,6.9C21.5,8.4,22,10.1,22,12c0,5.5-4.5,10-10,10C6.5,22,2,17.5,2,12c0-0.1,0-0.2,0-0.3H0
		c0,0.1,0,0.2,0,0.3c0,6.6,5.4,12,12,12c6.6,0,12-5.4,12-12c0-2.3-0.6-4.3-1.7-6.1L20.6,6.9z"/>
</g>
</svg>
