<svg xmlns="http://www.w3.org/2000/svg" viewBox="0 0 50 50"><title>depfin icons</title><g id="Layer_2_copy" data-name="Layer 2 copy"><path d="M42.84,5.89H8A1.75,1.75,0,0,0,6.21,7.64V42.51A1.75,1.75,0,0,0,8,44.26H42.84a1.75,1.75,0,0,0,1.75-1.75V7.64A1.75,1.75,0,0,0,42.84,5.89Zm.25,36.62a.25.25,0,0,1-.25.25H8a.25.25,0,0,1-.25-.25V7.64A.25.25,0,0,1,8,7.39H42.84a.25.25,0,0,1,.25.25Z"/><path d="M36.07,20H30.32V14.22a1.75,1.75,0,0,0-1.75-1.75H22.17a1.75,1.75,0,0,0-1.75,1.75V20H14.67a1.75,1.75,0,0,0-1.75,1.75v6.39a1.75,1.75,0,0,0,1.75,1.75h5.75v5.75a1.75,1.75,0,0,0,1.75,1.75h6.39a1.75,1.75,0,0,0,1.75-1.75V29.87h5.75a1.75,1.75,0,0,0,1.75-1.75V21.73A1.75,1.75,0,0,0,36.07,20Zm.25,8.15a.26.26,0,0,1-.25.25h-6.5a.75.75,0,0,0-.75.75v6.5a.26.26,0,0,1-.25.25H22.17a.26.26,0,0,1-.25-.25v-6.5a.75.75,0,0,0-.75-.75h-6.5a.26.26,0,0,1-.25-.25V21.73a.26.26,0,0,1,.25-.25h6.5a.75.75,0,0,0,.75-.75v-6.5a.26.26,0,0,1,.25-.25h6.39a.26.26,0,0,1,.25.25v6.5a.75.75,0,0,0,.75.75h6.5a.26.26,0,0,1,.25.25Z"/></g></svg>