<svg xmlns="http://www.w3.org/2000/svg" viewBox="0 0 50 50"><title>depfin icons</title><g id="Layer_2_copy" data-name="Layer 2 copy"><path d="M48.38,28.24,27.83,7.68a3.89,3.89,0,0,0-5.5,0L1.76,28.24a.75.75,0,0,0,.53,1.28H9l.12,14.3a.75.75,0,0,0,.75.74H20.2a.75.75,0,0,0,.75-.75V31.44h8.22V43.81a.75.75,0,0,0,.75.75h9.72a.75.75,0,0,0,.75-.75V29.52h7.47a.75.75,0,0,0,.53-1.28ZM39.63,28a.75.75,0,0,0-.75.75v14.3H30.66V30.69a.75.75,0,0,0-.75-.75H20.2a.75.75,0,0,0-.75.75V43.06H10.6l-.12-14.3A.75.75,0,0,0,9.73,28H4.11L23.39,8.74a2.39,2.39,0,0,1,3.38,0L46,28Z"/></g></svg>