<?xml version="1.0" encoding="utf-8"?>
<!-- Generator: Adobe Illustrator 22.0.1, SVG Export Plug-In . SVG Version: 6.00 Build 0)  -->
<svg version="1.1" id="Слой_1" xmlns="http://www.w3.org/2000/svg" xmlns:xlink="http://www.w3.org/1999/xlink" x="0px" y="0px"
	 viewBox="0 0 18 18" style="enable-background:new 0 0 18 18;" xml:space="preserve">
<style type="text/css">
	.st0{fill:#FEE300;}
</style>
<path class="st0" d="M15.3,5.5c-0.6,0-1.2-0.2-1.6-0.5L5.3,8.1c0,0.2,0.1,0.4,0.1,0.6c0,0.3-0.1,0.7-0.2,0.9l8.4,3.3
	c0.5-0.3,1-0.5,1.6-0.5c1.5,0,2.8,1.3,2.8,2.8c0,1.5-1.2,2.8-2.8,2.8s-2.8-1.3-2.8-2.8c0-0.3,0.1-0.6,0.2-0.9L4.2,11
	c-0.4,0.3-0.9,0.4-1.5,0.4C1.2,11.5,0,10.2,0,8.7S1.2,6,2.7,6C3.4,6,4,6.3,4.5,6.7l8.2-3.1c-0.1-0.3-0.1-0.6-0.1-0.9
	c0-1.5,1.2-2.7,2.7-2.7C16.8,0,18,1.2,18,2.7C18,4.3,16.8,5.5,15.3,5.5z"/>
</svg>
