<svg id="Слой_1" data-name="Слой 1" xmlns="http://www.w3.org/2000/svg" viewBox="0 0 18 18"><defs><style>.cls-1{fill:#fee300;}</style></defs><title>all_icons</title><path class="cls-1" d="M13.87,5.48a2.67,2.67,0,0,1-1.61-.54l-5.5,3.2a2.59,2.59,0,0,1-.11,1.55l5.55,3.26a2.7,2.7,0,0,1,1.61-.54,2.8,2.8,0,1,1-2.75,2.8,2.82,2.82,0,0,1,.16-.89L5.61,11a2.68,2.68,0,0,1-1.48.45A2.72,2.72,0,0,1,4.13,6a2.68,2.68,0,0,1,1.81.71L11.31,3.6a2.75,2.75,0,0,1-.15-.86,2.71,2.71,0,1,1,5.42,0A2.72,2.72,0,0,1,13.87,5.48Z"/></svg>