<svg xmlns="http://www.w3.org/2000/svg" viewBox="0 0 19.48 20"><title>instagram</title><path d="M13.62,20H5.86A5.87,5.87,0,0,1,0,14.14V5.86A5.87,5.87,0,0,1,5.86,0h7.75a5.87,5.87,0,0,1,5.86,5.86v8.27A5.87,5.87,0,0,1,13.62,20ZM5.86,2.12A3.75,3.75,0,0,0,2.12,5.86v8.27a3.75,3.75,0,0,0,3.75,3.75h7.75a3.75,3.75,0,0,0,3.75-3.75V5.86a3.75,3.75,0,0,0-3.75-3.75Z"/><path d="M9.74,15.53A5.56,5.56,0,0,1,4.18,10a5.65,5.65,0,0,1,1.7-4A5.32,5.32,0,0,1,9.78,4.42a5.73,5.73,0,0,1,4.13,1.69A5.38,5.38,0,0,1,15.3,10h0a5.68,5.68,0,0,1-1.64,3.9A5.47,5.47,0,0,1,9.74,15.53ZM9.62,7a2.76,2.76,0,0,0-1.93.8A3,3,0,0,0,6.77,10a3,3,0,1,0,5.94,0A2.9,2.9,0,0,0,12,7.88,3.22,3.22,0,0,0,9.7,7Z"/><circle cx="14.99" cy="4.7" r="1.2"/></svg>