<svg xmlns="http://www.w3.org/2000/svg" viewBox="0 0 50 50"><title>depfin icons</title><g id="Layer_2_copy" data-name="Layer 2 copy"><path d="M23.71,38H22.09v-9.1a.75.75,0,0,0-1.5,0V31H4.16V28.94a.75.75,0,0,0-1.5,0V38H.82a.75.75,0,1,0,0,1.5H2.66v2.81a.75.75,0,0,0,1.5,0V39.54H20.59v2.81a.75.75,0,0,0,1.5,0V39.54h1.62a.75.75,0,0,0,0-1.5Zm-3.12-5.55v2.14H4.16V32.49ZM4.16,38V36.13H20.59V38Z"/><path d="M49.53,31.72c0-2.86-2.49-13.81-6.64-13.81a2.6,2.6,0,0,0-1.22.33c-1.77-5.59-4.6-11.09-8-11.09-5.84,0-10,16.1-10,21.23a10,10,0,0,0,9.5,10v4a.75.75,0,0,0,1.5,0v-4a9.89,9.89,0,0,0,4-1.31,6.36,6.36,0,0,0,3.47,1.3v4a.75.75,0,0,0,1.5,0v-4A6.64,6.64,0,0,0,49.53,31.72ZM34.68,30.46l2.93-2.59a.75.75,0,0,0-1-1.12l-1.94,1.71V26.27a.75.75,0,0,0-1.5,0V31l-2.28-1.74A.75.75,0,0,0,30,30.42l3.19,2.44v4a8.48,8.48,0,0,1-8-8.46c0-5.22,4.22-19.73,8.48-19.73s8.48,14.51,8.48,19.73a8.49,8.49,0,0,1-7.46,8.41Zm9,6.33V36a.75.75,0,0,0-1.5,0v.83A5,5,0,0,1,40,36.12a10,10,0,0,0,3.69-7.74,36.86,36.86,0,0,0-1.53-8.65,1.35,1.35,0,0,1,.78-.31c2.4,0,5.14,8.74,5.14,12.31A5.13,5.13,0,0,1,43.64,36.79Z"/></g></svg>