<svg xmlns="http://www.w3.org/2000/svg" viewBox="0 0 20.19 17.77"><defs><style>.cls-1{fill:#0d46a1;}</style></defs><title>Asset 16</title><g id="Layer_2" data-name="Layer 2"><g id="Layer_1-2" data-name="Layer 1"><path class="cls-1" d="M8.51,17.62a8.93,8.93,0,0,0,9.2-4.16.65.65,0,1,0-1.12-.67A7.58,7.58,0,0,1,2.52,9l.13.15a.65.65,0,0,0,1-.85L2.54,7a.65.65,0,0,0-.26-.22h0l-.09,0H2a.65.65,0,0,0-.41.15L.23,8.07a.65.65,0,0,0,.85,1l.14-.12A8.9,8.9,0,0,0,8.51,17.62Zm9.2-6.84h0l.07.07,0,0,.07,0,0,0L18,11l.06,0h.3l.08,0h0l.08,0,0,0,0,0L20,9.7a.65.65,0,0,0-.85-1L19,8.83A8.88,8.88,0,0,0,2.45,4.35.65.65,0,1,0,3.57,5a7.58,7.58,0,0,1,14.1,3.74l-.14-.16a.65.65,0,1,0-1,.85Z"/></g></g></svg>