<svg xmlns="http://www.w3.org/2000/svg" viewBox="0 0 50 50"><title>depfin icons</title><g id="Layer_2_copy" data-name="Layer 2 copy"><path d="M49.71,16.93a.75.75,0,0,0,0-1.5H48.26V10.28h1.45a.75.75,0,0,0,0-1.5H48.26v-5a.75.75,0,0,0-1.5,0v5H42.4v-5a.75.75,0,0,0-1.5,0v5H36.18v-5a.75.75,0,0,0-1.5,0v5H30v-5a.75.75,0,0,0-1.5,0v5H28a.75.75,0,0,0-.29.06,14.48,14.48,0,0,0-5.68-1.58c-6.22-.65-8.62,2.56-9.49,4.53C11.29,14.7,12,19.21,12,19.41a.76.76,0,0,0,.08.25l.13.24a3.11,3.11,0,0,0-.39,2.54c.31,1.55.79,3.12.81,3.19a.75.75,0,0,0,.27.39l.81.59a20,20,0,0,0,2.14,3.66L14.7,31.95c-1.36.48-8.3,2.91-9.87,3.59a5.67,5.67,0,0,0-3.6,4.35c-.41,2-1.27,8.89-1.31,9.18a.75.75,0,0,0,.74.84H42.51a.75.75,0,0,0,.74-.86c0-.32-1.22-7.94-1.63-10-.5-2.5-3.75-3.84-5.12-4.29S29.93,32.4,28.75,32a.72.72,0,0,0-.06-.17l-1.14-1.93c.35-.49.67-1,.95-1.45v1.9a.75.75,0,0,0,1.5,0V25.77l.67-.58a.75.75,0,0,0,.24-.41l.24-1.14h3.53v6.59a.75.75,0,0,0,1.5,0V23.65H40.9v6.59a.75.75,0,0,0,1.5,0V23.65h4.36v6.59a.75.75,0,0,0,1.5,0V23.65h1.45a.75.75,0,0,0,0-1.5H48.26V16.93Zm-2.95-6.65v5.15H42.4V10.28Zm-5.86,0v5.15H36.18V10.28Zm-6.23,0v5.15H31.2a10.63,10.63,0,0,0-.16-2,6.75,6.75,0,0,0-1-2.59v-.61ZM14,12.4c1.23-2.76,4.05-4.05,8-3.65,3.33.35,5.45,1.17,6.62,2.65a.73.73,0,0,0,.27.37,5.43,5.43,0,0,1,.76,2,12.91,12.91,0,0,1-.16,4.56c-.34-1.1-.9-2.07-1.8-2.29-.94-.38-2.15.16-3.43.73a8.06,8.06,0,0,1-2.45.82,5.53,5.53,0,0,1-2.14-.7c-1.22-.57-2.61-1.21-3.94-.72s-1.73,1.94-1.95,3.36l-.24-.45C13.35,18.34,12.95,14.67,14,12.4Zm26.2,27c.32,1.59,1.15,6.93,1.48,9H1.52c.25-1.95.87-6.72,1.18-8.22a4.18,4.18,0,0,1,2.72-3.27c1.45-.62,8-2.91,9.62-3.49l6.08,4.82a.75.75,0,0,0,.92,0l6.32-4.83c1.44.53,6.4,2.36,7.66,2.78C36.91,36.5,39.8,37.59,40.16,39.37Zm-12.87-7L21.6,36.7l-5.41-4.29.65-1a6.7,6.7,0,0,0,4.75,2.45c1.94,0,3.63-1.26,5-2.78Zm-5.69,0c-1.64,0-3.08-1.21-4.2-2.59h0a18.77,18.77,0,0,1-2.39-4,.75.75,0,0,0-.25-.32L14,24.94c-.14-.49-.48-1.67-.7-2.8a2.73,2.73,0,0,1,0-.31l.41.75a.75.75,0,0,0,.66.39l.2,0a.75.75,0,0,0,.55-.76c-.09-1.74.24-4.31,1.1-4.63s1.79.21,2.79.67a6.55,6.55,0,0,0,2.82.84,8.88,8.88,0,0,0,3-1c.73-.32,1.94-.86,2.27-.71l.18.06c.54.1,1.13,2.28,1.22,4.48a.75.75,0,0,0,1.45.24L30,22l-.09.41a.73.73,0,0,0-.17.46.72.72,0,0,0,0,.18l-.24,1.15-.85.73a.74.74,0,0,0-.2.28C27.62,27.23,24.77,32.41,21.59,32.41Zm9.88-10.27.3-1.42a.75.75,0,0,0-.3-.77l-.76-.53a20.88,20.88,0,0,0,.42-2.49h3.56v5.21Zm4.71,0V16.93H40.9v5.21Zm10.58,0H42.4V16.93h4.36Z"/></g></svg>