<svg xmlns="http://www.w3.org/2000/svg" viewBox="0 0 50 50"><title>depfin icons</title><g id="Layer_2_copy" data-name="Layer 2 copy"><path d="M49.69,39.48c-.23,0-5.56.26-8.22,1.28-1.31.5-3.23,1.36-5.08,2.2s-3.73,1.68-5,2.16c-.59.22-1.14.48-1.66.72-1.73.81-3,1.39-4.71.43C22.47,44.84,5.55,33,3.68,31.15c-.51-.49-2.06-2-2.07-2.86a.65.65,0,0,1,.23-.49c.58-.58,1.6-.3,3.6,1,2.56,1.68,8.37,5.42,10.71,6.41a4,4,0,0,0,.92,2.3,5.11,5.11,0,0,0,3.61,1.84c1.56.11,3.18.08,5.05,0,1,0,2,0,3.13,0a18.78,18.78,0,0,1,2.85.24,12.8,12.8,0,0,0,1.83.17,6.3,6.3,0,0,0,2.16-.38,22.21,22.21,0,0,0,4.74-2.53.75.75,0,0,0-.87-1.22A21.06,21.06,0,0,1,35.22,38a6,6,0,0,1-3.28.14,20.09,20.09,0,0,0-3.06-.25c-1.12,0-2.17,0-3.16,0-1.84,0-3.43.06-4.92,0a3.6,3.6,0,0,1-2.55-1.29,2.36,2.36,0,0,1-.58-1.77,3,3,0,0,1,3.13-2.28l1,.06a34,34,0,0,0,7-.07,26.4,26.4,0,0,0,4.89-2.08c1.94-1,4.34-2.13,5.14-2.13A8.91,8.91,0,0,1,42,29.4a24.4,24.4,0,0,0,3.23,1.31c2.92.89,4.14,0,4.36-.14a.73.73,0,0,0,.1-1,.77.77,0,0,0-1-.16s-.82.54-3-.12a22.9,22.9,0,0,1-3-1.24A9.74,9.74,0,0,0,38.8,26.8c-1.07,0-2.9.86-5.8,2.29a27.25,27.25,0,0,1-4.51,2,33.2,33.2,0,0,1-6.58,0l-1-.06a4.56,4.56,0,0,0-.46,0,.74.74,0,0,0-.17-.17c-.07,0-6.7-4.42-7.48-5s-2.24-1.28-3.28-1a13.68,13.68,0,0,0-1.84.81A2.66,2.66,0,0,0,7,25.53a5.6,5.6,0,0,0-2.61.91c-1.2-.54-2.52-.76-3.57.29A2.14,2.14,0,0,0,.12,28.3c0,1.31,1.22,2.66,2.52,3.93,2,1.93,19,13.85,21.66,15.35a5,5,0,0,0,2.48.69,8.57,8.57,0,0,0,3.59-1.07c.49-.23,1-.47,1.56-.68,1.31-.5,3.23-1.36,5.08-2.2s3.73-1.68,5-2.16c2.44-.93,7.7-1.18,7.75-1.18a.75.75,0,0,0,.71-.78A.74.74,0,0,0,49.69,39.48ZM9.89,26.38a3.67,3.67,0,0,1,2,.76c.63.44,4.76,3.17,6.61,4.39-.12.06-.24.14-.36.21a.71.71,0,0,0-.1-.09c-3-1.8-6.47-3.83-8.73-5A5.59,5.59,0,0,1,9.89,26.38ZM6.78,27c.69.19,5.72,3.07,10.21,5.76a4,4,0,0,0-.56.94A117.18,117.18,0,0,1,6.27,27.56l-.36-.23A2.8,2.8,0,0,1,6.78,27Z"/><path d="M24,26a.68.68,0,0,0,.68,0,.68.68,0,0,0,.68,0c.58-.34,14.28-8.51,13.82-17.27C39,5.46,37.87,3.23,35.84,2.12,32,0,26.19,2.77,24.65,3.57,23.11,2.77,17.31,0,13.47,2.12c-2,1.11-3.15,3.34-3.32,6.63C9.7,17.51,23.39,25.68,24,26ZM14.19,3.43c3.63-2,10,1.61,10.1,1.65h0a.73.73,0,0,0,.2.06h.25A.73.73,0,0,0,25,5.09h0c.07,0,6.47-3.64,10.1-1.65,1.54.84,2.4,2.66,2.54,5.39C38,16.37,25.74,24,24.65,24.68c-1.09-.66-13.39-8.3-13-15.85C11.79,6.09,12.64,4.28,14.19,3.43Z"/></g></svg>