<svg xmlns="http://www.w3.org/2000/svg" viewBox="0 0 50 50"><title>depfin icons</title><g id="Layer_2_copy" data-name="Layer 2 copy"><path d="M49.54,49l-1.8-7.13a.75.75,0,0,0-.42-.5L32.86,34.82V27.76c2.18-4.39,2.34-10.19,2.33-12.28h.56l.2-.42a6.66,6.66,0,0,0-.56-6.29c-1.31-2.09-4.28-4.58-11-4.58-8.45,0-13.05,7.45-13.25,11.63-.09,1.94.77,3.23,2.26,3.38q.33,0,.65,0l.36,0a22.78,22.78,0,0,0,2.39,8.55v7.08L2.35,41.34a.75.75,0,0,0-.42.5L.14,49a.75.75,0,0,0,.73.93h48a.75.75,0,0,0,.73-.93ZM31.77,40.86,33.7,43.2l-6.08,5.2H26l6.26-11.83,2.52,3.06H32.35a.75.75,0,0,0-.58,1.23ZM22,48.4l-6.08-5.2,1.93-2.34a.75.75,0,0,0-.58-1.23H14.78L17.2,36.7,23.52,48.4Zm4.26-3.62c-.32,0-.83.06-1.65.06a10.32,10.32,0,0,1-1.33-.07l-.47-.86a8.28,8.28,0,0,0,1.79.19,8.56,8.56,0,0,0,2.16-.27Zm-.41.78-1.06,2-1.08-2c.26,0,.55,0,.9,0C25.09,45.59,25.5,45.58,25.83,45.57Zm1.42-2.68a7.38,7.38,0,0,1-2.66.47A6.92,6.92,0,0,1,22.31,43l-.5-.92a8.33,8.33,0,0,0,2.78.53,8.6,8.6,0,0,0,3.19-.72Zm1.11-2.09a8.86,8.86,0,0,1-3.77,1.06A8.29,8.29,0,0,1,21.25,41l-.51-.94a10,10,0,0,0,3.85,1A11.51,11.51,0,0,0,28.76,40Zm1-1.86a12.64,12.64,0,0,1-4.75,1.43A11,11,0,0,1,20.13,39l-.81-1.5a11.15,11.15,0,0,0,5.46,1.67A11.27,11.27,0,0,0,30,37.6Zm4.34-23H18.55c.06-.18.12-.36.15-.51h15C33.69,15.62,33.69,15.79,33.69,16ZM13.57,17.69c-.82-.08-.95-1-.91-1.81.17-3.56,4.36-10.2,11.76-10.2,4.69,0,8.13,1.38,9.7,3.88A5.36,5.36,0,0,1,34.77,14L18.08,14h-.69l-.06.69A4,4,0,0,1,16.12,17,3.35,3.35,0,0,1,13.57,17.69Zm3.51.51a4.5,4.5,0,0,0,1-1.23H33.66c-.12,3.28-.78,9.41-3.84,12.62a6.41,6.41,0,0,1-4.87,2.06c-6.4,0-8.67-7.81-9-12.78A4.19,4.19,0,0,0,17.08,18.2Zm7.87,15a7.94,7.94,0,0,0,6-2.53c.16-.17.31-.34.45-.51v4.83c-.84.66-3.67,2.69-6.58,2.69s-5.65-2-6.47-2.68V30A8.39,8.39,0,0,0,24.95,33.15ZM3.3,42.56l11.35-5.12-2,2.47a.75.75,0,0,0,.58,1.23h2.46l-1.38,1.68a.75.75,0,0,0,.09,1l5.31,4.54H1.83ZM29.92,48.4l5.31-4.54a.75.75,0,0,0,.09-1l-1.38-1.68h2.46A.75.75,0,0,0,37,39.91l-2.09-2.53,11.49,5.18,1.47,5.84Z"/><path d="M25.43,13.55c1.35,0,2.36-1.69,2.36-2.78v-3H22.89v3A2.87,2.87,0,0,0,25.43,13.55Zm-1-4.28H26.3v1.5c0,.49-.58,1.28-.86,1.28a1.42,1.42,0,0,1-1-1.3Z"/></g></svg>