<svg xmlns="http://www.w3.org/2000/svg" viewBox="0 0 50 50"><title>depfin icons</title><g id="Layer_2_copy" data-name="Layer 2 copy"><path d="M27.05,25.63A2.61,2.61,0,0,0,27.2,23l8.3-4.72a.75.75,0,0,0,.35-.86l-4.25-15a.75.75,0,0,0-.72-.55H18.19l-.14,0H18a.75.75,0,0,0-.24.13l0,0a.74.74,0,0,0-.14.16l0,.09a.72.72,0,0,0,0,.1l-4,15.22a.75.75,0,0,0,.38.86L22.47,23a2.61,2.61,0,0,0,.16,2.66,11.84,11.84,0,1,0,4.42,0ZM24.2,23.22l.65-.19.64.19a1.14,1.14,0,0,1,.52.94,1.16,1.16,0,0,1-2.32,0A1.14,1.14,0,0,1,24.2,23.22Zm10.05-6-8.12,4.62a2.63,2.63,0,0,0-1.28-.34h0a2.63,2.63,0,0,0-.42,0L19.19,3.31H30.31Zm-16-11.84,4.63,16.1L15,17.4Zm6.62,42.21A10.34,10.34,0,1,1,35.18,37.25,10.35,10.35,0,0,1,24.84,47.59Z"/><path d="M24.84,29.63a7.63,7.63,0,1,0,7.63,7.63A7.64,7.64,0,0,0,24.84,29.63Zm0,13.76A6.13,6.13,0,1,1,31,37.25,6.13,6.13,0,0,1,24.84,43.38Z"/></g></svg>