<svg xmlns="http://www.w3.org/2000/svg" viewBox="0 0 50 50"><title>depfin icons</title><g id="Layer_2_copy" data-name="Layer 2 copy"><path d="M18.84,9.11a4.33,4.33,0,1,0-4.33-4.33A4.33,4.33,0,0,0,18.84,9.11Zm0-7.16A2.83,2.83,0,1,1,16,4.78,2.83,2.83,0,0,1,18.84,2Z"/><path d="M24.64,21.8a3.28,3.28,0,1,0,3.28,3.28A3.28,3.28,0,0,0,24.64,21.8Zm0,5.06a1.78,1.78,0,1,1,1.78-1.78A1.78,1.78,0,0,1,24.64,26.86Z"/><path d="M30,11.53A4.33,4.33,0,1,0,25.65,7.2,4.33,4.33,0,0,0,30,11.53Zm0-7.16A2.83,2.83,0,1,1,27.15,7.2,2.83,2.83,0,0,1,30,4.37Z"/><path d="M42.3,28.44c-.59-1.24-5.42-12.3-5.94-13.6s-1.12-2.46-2.81-2.46H27.49c-.69-.6-2.71-2.2-4.57-2.2H15.6c-4.31,0-6.24,3.32-6.24,6.6V28.14c0,2.1.64,2.92,2.27,2.92h1.08V46.63c0,2,1.4,3.27,3.57,3.27h5a.75.75,0,0,0,.63-1.16l-.45-.7V34.15A.75.75,0,0,0,20,33.91s-.29.86-1.12,2.7a7.81,7.81,0,0,1-1.69,2.67c-.16-.11-.2-.3.06-1,.36-.95,1.55-3.61,1.59-3.7.38-.71.66-1.31.9-1.81s.4-.83.58-1.16C20.59,31.07,21,31,22,31h4.8c.41,0,1.78.06,2.12.9.6,1.47,1.12,3.17,1.58,4.68.17.55.33,1.07.47,1.53.22.69.13,1,.08,1.05a.41.41,0,0,1-.21.16,19.86,19.86,0,0,1-2-5.66.75.75,0,0,0-1.48.17V47.78l-.61,1a.75.75,0,0,0,.63,1.15H32c2,0,2.94-1.1,2.94-3.26V36.47h3a.75.75,0,0,0,.72-1L36.3,27.08C37,28.67,37.67,30,38,30.68a2.41,2.41,0,0,0,3.24,1.21A2.55,2.55,0,0,0,42.3,28.44Zm-1.7,2.12c-.43.23-.9,0-1.25-.62-1.27-2.24-6-13.22-6-13.33a.75.75,0,0,0-1.41.5L37,35H34.2a.75.75,0,0,0-.75.75V46.64c0,1.17-.22,1.76-1.44,1.76H28.72a.75.75,0,0,0,.12-.4V38.85c1,2.29,1.77,2.12,2.13,2A2,2,0,0,0,32.33,40a2.77,2.77,0,0,0,.05-2.26c-.14-.45-.3-1-.46-1.51-.47-1.53-1-3.27-1.62-4.81-.48-1.16-1.76-1.83-3.51-1.83H22A3,3,0,0,0,19,30.9c-.2.35-.4.76-.63,1.25s-.51,1.07-.87,1.76c-.07.13-1.31,2.91-1.67,3.87-.2.54-.82,2.19.89,3,1.19.53,2.37-1.16,3.23-2.9V48.26a.77.77,0,0,0,0,.14H16.28c-.77,0-2.07-.23-2.07-1.77V15.39a.75.75,0,0,0-1.5,0V29.56H11.63c-.6,0-.77,0-.77-1.42V16.8c0-.52.13-5.1,4.74-5.1h7.32c1.34,0,3.18,1.44,3.77,2a.75.75,0,0,0,.51.2h6.35c.64,0,.89.19,1.42,1.51s5.38,12.44,6,13.68A1.07,1.07,0,0,1,40.6,30.56Z"/></g></svg>