<svg xmlns="http://www.w3.org/2000/svg" viewBox="0 0 50 50"><title>depfin icons</title><g id="Layer_2_copy" data-name="Layer 2 copy"><path d="M40.61,36.58l-9.25-8c1.29-1.5,2.23-2.66,2.57-3.18,1.63-2.51,2.31-4,1.94-7.34a75.12,75.12,0,0,0-1.49-7.84l0-.07a3.8,3.8,0,0,0-.2-.71c-.71-1.81-2.29-3-4.82-3.74A28.66,28.66,0,0,0,21,5.7C19.75,6,16.18,7,15.56,10.16h0c-.09.25-2.16,6.28-2.11,9.06a11.59,11.59,0,0,0,1.86,5.93,38.46,38.46,0,0,0,3.07,3.47C15,31.68,11.6,34.7,9.08,36.91A.75.75,0,0,0,9,38l6.44,7.21a.75.75,0,0,0,.56.25h0a.75.75,0,0,0,.55-.25c.32-.36,4.33-4.76,8.42-9.35l8.14,9.34a.75.75,0,0,0,.57.26h0a.75.75,0,0,0,.57-.26l6.42-7.53A.75.75,0,0,0,40.61,36.58ZM21.42,7.15a23.13,23.13,0,0,1,4-.25,16.85,16.85,0,0,1,3.49.25c2,.57,3.3,1.5,3.82,2.85a5,5,0,0,1-.34,3.37,11.19,11.19,0,0,0-3.62-1.8,23.06,23.06,0,0,0-7.37,0,9.53,9.53,0,0,0-4.18,1.91A13.73,13.73,0,0,1,17,11.38C16.81,8.75,19.13,7.77,21.42,7.15Zm10.37,7.62a19,19,0,0,1-1.14,2,60.29,60.29,0,0,1-6,6.1c-2.21-2.16-5.29-5.26-5.76-6-.11-.17-.23-.33-.36-.5A7.53,7.53,0,0,1,17.73,15,8.55,8.55,0,0,1,21.63,13a21.58,21.58,0,0,1,6.88,0A10.81,10.81,0,0,1,31.79,14.77ZM16.53,24.28a10.07,10.07,0,0,1-1.58-5.09,21.39,21.39,0,0,1,.93-5c.08.29.16.57.25.81v0a8.2,8.2,0,0,0,1.21,2.15l.32.45c.65,1,4.49,4.76,5.92,6.17-1.29,1.21-2.69,2.48-4.1,3.77A38,38,0,0,1,16.53,24.28ZM16,43.56l-5.38-6c1.43-1.26,5.25-4.63,9.27-8.28L20,29.2l0,0c5.24-4.76,10.79-10,11.88-11.59a19.24,19.24,0,0,0,1.81-3.37c.26,1.32.53,2.8.67,4,.33,2.94-.18,4-1.7,6.36C31.5,26.39,21.58,37.44,16,43.56Zm17.68,0L26,34.7c1.56-1.75,3.08-3.48,4.38-5l8.69,7.51Z"/></g></svg>