<svg xmlns="http://www.w3.org/2000/svg" viewBox="0 0 50 50"><title>depfin icons</title><g id="Layer_2_copy" data-name="Layer 2 copy"><path d="M24.71,15.64a4.33,4.33,0,1,0-4.33-4.33A4.33,4.33,0,0,0,24.71,15.64Zm0-7.16a2.83,2.83,0,1,1-2.83,2.83A2.83,2.83,0,0,1,24.71,8.49Z"/><path d="M28.61,39a.75.75,0,0,0-.85.63,9.52,9.52,0,1,1-15.84-8.43.75.75,0,1,0-1-1.11,11,11,0,1,0,18.34,9.75A.75.75,0,0,0,28.61,39Z"/><path d="M44.56,43.09l-.45-.63-.7-1a1.53,1.53,0,0,0-2-.48L39.1,42.1c-1.6-2.92-4.84-8.85-5.13-9.47-.55-1.19-2.28-1.77-3.64-2-1-.2-4.67-.79-6.26-1,.33-2,1.2-7.22,1.3-8.83.16-2.35-.73-3.59-2.87-4a7.49,7.49,0,0,0-3.46.26c-2.89,1-9.64,3.55-10,4.09L7.73,23c-1.16,1.65-2.6,3.71-3,4.32a2.94,2.94,0,0,0,.57,3.9,2.74,2.74,0,0,0,3.47-.56c.5-.59,3.29-4.77,4-5.82.57-.24,2.14-.89,2.67-1.15-.29,1.54-1.1,6-1.28,7.36-.26,2,1.47,4.4,2.89,4.59l12.25,1.76c.94,1.69,5.15,9.18,5.75,10.12a3.14,3.14,0,0,0,2.53,1.6,2.07,2.07,0,0,0,1-.25c.84-.45,5.14-3.28,5.55-3.58A1.65,1.65,0,0,0,44.56,43.09ZM43.22,44c-.29.21-4.59,3.05-5.38,3.48-.42.23-1.1-.14-1.54-.84-.64-1-5.83-10.28-5.88-10.37a.75.75,0,0,0-.55-.38L17.23,34.12a3.39,3.39,0,0,1-1.61-2.91c.21-1.62,1.36-7.74,1.37-7.8a.75.75,0,0,0-.18-.64,1.91,1.91,0,0,0-1.34-.64,1.44,1.44,0,0,0-.65.16c-.44.22-2.21,1-2.86,1.23a.75.75,0,0,0-.34.28c-1.41,2.12-3.64,5.43-4,5.87A1.29,1.29,0,0,1,6.16,30,1.45,1.45,0,0,1,6,28.12c.39-.6,1.89-2.73,3-4.28L10.26,22c1.08-.54,8.32-3.27,9.32-3.63a6.07,6.07,0,0,1,2.65-.19c1.4.28,1.77.82,1.66,2.45-.12,1.88-1.4,9.35-1.41,9.42a.75.75,0,0,0,.62.87c.06,0,5.69.91,7,1.16,1.54.31,2.4.82,2.57,1.19.39.85,5.31,9.81,5.52,10.19a.75.75,0,0,0,1,.31L42,42.33c.08,0,.12,0,.14,0l.72,1,.41.54A.27.27,0,0,1,43.22,44Z"/></g></svg>