<svg xmlns="http://www.w3.org/2000/svg" viewBox="0 0 50 50"><title>depfin icons</title><g id="Layer_2_copy" data-name="Layer 2 copy"><path d="M14,26.61,6.65,24.7a.74.74,0,0,0-.65.13.75.75,0,0,0-.29.59V36.89a.75.75,0,0,0,.58.73l7.36,1.76.17,0a.75.75,0,0,0,.75-.75V27.34A.75.75,0,0,0,14,26.61ZM13.07,37.7,7.21,36.3V26.39l5.86,1.53Z"/><path d="M48,4.53a.74.74,0,0,0-.65-.13L25,10.22,2.62,4.4A.74.74,0,0,0,2,4.53a.75.75,0,0,0-.29.59V40.2a.75.75,0,0,0,.58.73l22.5,5.37.17,0H25l.17,0,22.5-5.37a.75.75,0,0,0,.58-.73V5.13A.75.75,0,0,0,48,4.53ZM24.18,44.62l-21-5V6.1l21,5.47Zm22.58-5-21,5V11.57l21-5.47Z"/><path d="M5.67,10.63l15.74,4.1.19,0a.75.75,0,0,0,.19-1.48L6.05,9.18a.75.75,0,1,0-.38,1.45Z"/><path d="M5.67,13.16l15.74,4.1.19,0a.75.75,0,0,0,.19-1.48L6.05,11.71a.75.75,0,1,0-.38,1.45Z"/><path d="M5.67,15.69l15.74,4.1.19,0a.75.75,0,0,0,.19-1.48L6.05,14.24a.75.75,0,1,0-.38,1.45Z"/><path d="M29,14.75l.19,0,15.74-4.1a.75.75,0,0,0-.38-1.45l-15.74,4.1A.75.75,0,0,0,29,14.75Z"/><path d="M29,17.28l.19,0,15.74-4.1a.75.75,0,0,0-.38-1.45l-15.74,4.1A.75.75,0,0,0,29,17.28Z"/><path d="M29,19.81l.19,0,15.74-4.1a.75.75,0,1,0-.38-1.45l-15.74,4.1A.75.75,0,0,0,29,19.81Z"/><path d="M44.62,18.09l-15.74,4.1a.37.37,0,0,0,.09.74h.1l15.74-4.1a.37.37,0,0,0-.19-.73Z"/><path d="M44.62,33l-15.74,4.1a.37.37,0,0,0,.09.74h.1l15.74-4.1a.37.37,0,1,0-.19-.73Z"/><path d="M44.62,35.67l-15.74,4.1a.37.37,0,0,0,.09.74h.1l15.74-4.1a.37.37,0,0,0-.19-.73Z"/><path d="M29.08,25.08h.1l8.56-2.23a.37.37,0,0,0-.19-.73L29,24.34a.37.37,0,0,0,.09.74Z"/><path d="M28.6,27.58A.38.38,0,0,0,29,28h.1l8.56-2.23a.37.37,0,1,0-.19-.73l-8.56,2.23A.37.37,0,0,0,28.6,27.58Z"/></g></svg>