<svg xmlns="http://www.w3.org/2000/svg" viewBox="0 0 50 50"><title>depfin icons</title><g id="Layer_2_copy" data-name="Layer 2 copy"><path d="M21.31,13.14A4.28,4.28,0,1,0,17,8.86,4.29,4.29,0,0,0,21.31,13.14Zm0-7.07a2.78,2.78,0,1,1-2.78,2.78A2.79,2.79,0,0,1,21.31,6.07Z"/><path d="M37.66,24.29a2.8,2.8,0,1,0-2.8-2.8A2.8,2.8,0,0,0,37.66,24.29Zm0-4.09a1.3,1.3,0,1,1-1.3,1.3A1.3,1.3,0,0,1,37.66,20.2Z"/><path d="M39.35,28.66H23.07a.75.75,0,0,0,0,1.5H25.3V49.1a.75.75,0,0,0,1.5,0v-15h9v15a.75.75,0,0,0,1.5,0V30.16h2a.75.75,0,0,0,0-1.5Zm-3.5,4h-9V30.16h9Z"/><path d="M31.87,23.95a.75.75,0,0,0,1,.24l1.48-.85a.75.75,0,0,0-.75-1.3l-.87.5L30.44,19a.75.75,0,1,0-1.25.82Z"/><path d="M24.52,22.71a.75.75,0,0,0,.55.91l2.33.57c.8,1.24,2.46,3.55,3.82,3.55h3a.75.75,0,0,0,.66-.39L36,25.4a.75.75,0,0,0-1.31-.72l-.86,1.56H31.22c-.45-.06-1.74-1.54-2.72-3.1a.75.75,0,0,0-.46-.33l-2.62-.65A.75.75,0,0,0,24.52,22.71Z"/><path d="M22.83,24.88a.74.74,0,0,0,.24,0,.75.75,0,0,0,.24-1.46L22,23l1.19-6.51c.19-1.05-.71-2.17-2.11-2.6l-3.37-1c-1.4-.43-2.77,0-3.17,1L7.73,30.78a3.35,3.35,0,0,0,.09,2.73A3.63,3.63,0,0,0,10,35.4l.14,0V48a1.89,1.89,0,0,0,1.89,1.89h2.49A1.89,1.89,0,0,0,16.46,48V37.22h.14a3.45,3.45,0,0,0,1.8-.5,3.29,3.29,0,0,0,1.54-2.25l1.82-10Zm-2.16-9.53c.76.23,1.1.74,1.07.89l-1.15,6.3-3-1-.46-7.25.2,0Zm-6.1,33H12.07a.39.39,0,0,1-.39-.39V35.9l3.27,1V48A.39.39,0,0,1,14.57,48.35Zm3.89-14.13a1.81,1.81,0,0,1-.84,1.24,2,2,0,0,1-1.66.18L10.48,34a2.1,2.1,0,0,1-1.31-1.1,1.86,1.86,0,0,1,0-1.52l6.54-16.16.44,6.94a.75.75,0,0,0,.51.66L20.32,24Z"/></g></svg>