<svg xmlns="http://www.w3.org/2000/svg" viewBox="0 0 50 50"><title>depfin icons</title><g id="Layer_2_copy" data-name="Layer 2 copy"><path d="M18,17.19a4.92,4.92,0,0,0,2.94-.73c1.59-.89,2.15-3.54,1.2-5.67A3,3,0,0,0,20.38,9.1a3.59,3.59,0,0,0-2.78.27,7,7,0,0,0-2.17,2.47l-3.67,3c-.59.29-3.36,1.9-5.15,6.9-2.15,6-2.75,20.53-2.77,21.14a.75.75,0,0,0,.75.78H8.14l.42,2.19a.72.72,0,0,0-.06.23l-.25,3.1A.75.75,0,0,0,9,50h4.53a.75.75,0,0,0,.75-.75c0-.79-.32-2.19-1.51-2.36-.24,0-.68-.47-1-.92l.8-2.3h2.83a.75.75,0,0,0,.75-.73l.33-12.33.22.2.27.36v2.41a.75.75,0,0,0,1.5,0v-.87h0a.75.75,0,0,0,.58-.27l.25-.3a.73.73,0,0,0,.22.09s.51.12.51.88V48.86a.75.75,0,0,0,1.5,0V33.08a2.32,2.32,0,0,0-1.24-2.18l.52-.62a.75.75,0,0,0-.29-1.17l-1.73-.71-2.07-2.33s0,0,0-.05C17,23.09,17.82,18.17,18,17.19Zm2.21-2c-.72.4-2,.9-2.7.23l2-2.08L21,12.38A2.79,2.79,0,0,1,20.21,15.15Zm-3.6-2.37.06-.09a5.89,5.89,0,0,1,1.62-2,2.15,2.15,0,0,1,1.6-.18,1.34,1.34,0,0,1,.61.45l-1.87,1.1a.76.76,0,0,0-.16.13L16.77,14A4.09,4.09,0,0,1,16.61,12.78Zm-1.19,1.88-.69.07a.72.72,0,0,0-.19.06l-.25-.12.93-.75A6,6,0,0,0,15.42,14.67ZM12.54,48.33a.31.31,0,0,1,.08.13H9.81l.13-1.67h.58A3.53,3.53,0,0,0,12.54,48.33Zm-2.16-3H10l-.32-1.67H11Zm7.84-15,.35-.39.46.19-.5.6Zm-1-1.11-5.1-4.71.06-5.25a.75.75,0,0,0-.74-.76h0a.75.75,0,0,0-.75.74L10.6,24.8a.75.75,0,0,0,.24.56L15,29.21l-.35,12.91H5.37C5.53,39,6.23,27.24,8,22.2c1.69-4.74,4.29-6,4.41-6.07a1.68,1.68,0,0,1,1.59.08,1,1,0,0,1,.43.53c-.12.72-1.41,6.92-1.42,7a.75.75,0,0,0,.17.65L17.36,29Zm-2.62-5.54c.28-1.37,1.25-6,1.36-6.67a1.63,1.63,0,0,0-.12-.86l.33,0a2.83,2.83,0,0,0,.47.5.72.72,0,0,0-.06.14c0,.21-.83,4.51-1.18,7.82Z"/><path d="M43.18,45.92a.74.74,0,0,0,.08-.31l.54-21.1s0,0,0,0a.73.73,0,0,0,0-.11.72.72,0,0,0,0-.1c-.3-.91-2.28-7-3.71-10.78a.73.73,0,0,0-.1-.27,19.68,19.68,0,0,0-1.14-2.65c-.88-1.38-2.72-1.51-3.7-1.47a5.11,5.11,0,0,0,.29-1h0V8a5.61,5.61,0,0,0-.72-3.74l1.42-.78a.75.75,0,1,0-.72-1.31l-1,.54-.05,0L30.76,1.21a.75.75,0,0,0-.8.15L26.37,4.74a.75.75,0,0,0-.18.83l.56,1.37L25,7.88a.75.75,0,1,0,.72,1.31l1.1-.61c.22,1.24.78,3.56,2.05,4.49a2.13,2.13,0,0,0,1.27.43,2.2,2.2,0,0,0,.42,0,27.76,27.76,0,0,0,1.21,4.3c.47,1,1.49,3.48,1.9,4.47l-3.06,3.37a.74.74,0,0,0-.18.44l-1.7.77a.75.75,0,0,0-.17,1.26l.32.27a3.37,3.37,0,0,0-.73,2.25V48.86a.75.75,0,0,0,1.5,0V30.6a1.9,1.9,0,0,1,.37-1.29L31,30a.75.75,0,0,0,.48.18h.09v.67a.75.75,0,1,0,1.5,0V28.58a.73.73,0,0,0-.11-.37.75.75,0,0,0,.52-.22l1.71-1.73.68,1.79L37.88,45.3c-.66.28-1.55.66-2.4,1.06a2.21,2.21,0,0,0-1.29,1.4,2.41,2.41,0,0,0,.33,1.85.75.75,0,0,0,.62.33h3.47a.75.75,0,0,0,.37-.1l.62-.35.57.31a.75.75,0,0,0,.36.09h2.15a.75.75,0,0,0,.75-.75V46.47A.74.74,0,0,0,43.18,45.92Zm-3.85-1.19-2-16.43,4.9-2.55-.49,19.07ZM33.41,5.09a2.38,2.38,0,0,1,.52,1.41c-.27-.2-.54-.4-.72-.56a1.15,1.15,0,0,0-1-.28,1.31,1.31,0,0,0-.17.06L33.33,5Zm-5.63.39,2.86-2.7,2.09.87L28.07,6.21Zm3.65.6-.09.06h0ZM29.8,11.87c-.83-.6-1.36-2.73-1.54-4.05l1.73-1,.38,1A.75.75,0,0,0,31,8.4.76.76,0,0,0,31.72,8a3.84,3.84,0,0,1,.66-.82c.43.35,1,.77,1.43,1C33.41,9.59,32,11.65,30.32,12A.61.61,0,0,1,29.8,11.87Zm3.38,5.29A28.53,28.53,0,0,1,32,12.92a7.12,7.12,0,0,0,2.33-2.33.74.74,0,0,0,.36,0l.21,0c-.78.93-1,2.35-.51,4.25.25,1.06,1,4.08,1.32,5.17l-.9,1C34.34,19.84,33.58,18,33.18,17.15ZM31.13,28.23l-.64-.53,1-.44,0,0Zm1.72-1.77L32.31,26l2.82-3.1,0,0,2-2.17a.75.75,0,0,0,.17-.69s-1.12-4.27-1.42-5.53c-.62-2.62.22-3.26,1.23-3.55a1.31,1.31,0,0,1,.45.4,19.06,19.06,0,0,1,1,2.43l-.13,7-3.29,3.33h0a.74.74,0,0,0-.43.45Zm6.88-4.82a.75.75,0,0,0,.22-.51L40,17.79c.73,2.11,1.5,4.39,2.13,6.33L37,26.82l-.65-1.72Zm2.2,26.75H40.72L40,48a.75.75,0,0,0-.73,0l-.81.46H35.63a.61.61,0,0,1,0-.29.8.8,0,0,1,.48-.44c1.55-.73,3.31-1.43,3.33-1.43l.07,0,2.45.09a.72.72,0,0,0,0,.15Z"/></g></svg>