<svg xmlns="http://www.w3.org/2000/svg" viewBox="0 0 50 50"><title>depfin icons</title><g id="Layer_2_copy" data-name="Layer 2 copy"><path d="M39.12,34.49a.75.75,0,0,0-.71-.52H29.57l-2.43-7.47A2.61,2.61,0,0,0,28.3,23L37,18.45a.75.75,0,0,0,.38-.86l-4-15.22a.72.72,0,0,0,0-.1l0-.09A.74.74,0,0,0,33.08,2l0,0a.75.75,0,0,0-.24-.13h-.08l-.14,0H19.89a.75.75,0,0,0-.72.55l-4.25,15a.75.75,0,0,0,.35.86L23.57,23a2.63,2.63,0,0,0-.3,1.2,2.65,2.65,0,0,0,1.79,2.5L22.69,34H13.85a.75.75,0,0,0-.44,1.36l7.15,5.19-2.73,8.4a.75.75,0,0,0,1.15.84l7.15-5.19,7.15,5.19a.75.75,0,0,0,1.15-.84l-2.73-8.4,7.15-5.19A.75.75,0,0,0,39.12,34.49Zm-11.2-13,4.63-16.1,3.19,12ZM20.46,3.31H31.58L26.35,21.54a2.43,2.43,0,0,0-1.7.3l-8.12-4.62Zm4.82,19.91.64-.19.65.19a1.12,1.12,0,0,1-.09,1.93.71.71,0,0,0-.86.1,1.12,1.12,0,0,1-.34-2Zm5.1,16.41a.75.75,0,0,0-.27.84l2.19,6.73L26.57,43a.75.75,0,0,0-.88,0L20,47.19l2.19-6.73a.75.75,0,0,0-.27-.84l-5.72-4.16h7.07a.75.75,0,0,0,.71-.52l2.18-6.73L28.32,35a.75.75,0,0,0,.71.52H36.1Z"/><path d="M26.61,33.94a.52.52,0,0,0-1,0l-.94,2.88h-3a.5.5,0,0,0-.29.9l2.45,1.78-.94,2.88a.5.5,0,0,0,.77.56l2.45-1.78L28.59,43a.5.5,0,0,0,.77-.56l-.94-2.88,2.45-1.78a.5.5,0,0,0-.29-.9h-3Zm.93,5a.5.5,0,0,0-.18.56l.57,1.77-1.5-1.09a.5.5,0,0,0-.59,0l-1.5,1.09.57-1.77a.5.5,0,0,0-.18-.56l-1.5-1.09h1.86a.5.5,0,0,0,.48-.35l.57-1.77.57,1.77a.5.5,0,0,0,.48.35H29Z"/></g></svg>