<svg xmlns="http://www.w3.org/2000/svg" viewBox="0 0 50 50"><title>depfin icons</title><g id="Layer_2_copy" data-name="Layer 2 copy"><path d="M30.22,13.22a4.33,4.33,0,1,0-4.33-4.33A4.33,4.33,0,0,0,30.22,13.22Zm0-7.16a2.83,2.83,0,1,1-2.83,2.83A2.83,2.83,0,0,1,30.22,6.07Z"/><path d="M14.2,31.09a4,4,0,1,0-4-4A4,4,0,0,0,14.2,31.09Zm0-6.42a2.46,2.46,0,1,1-2.46,2.46A2.46,2.46,0,0,1,14.2,24.66Z"/><path d="M42.95,28.91c-.27-.89-2.52-9-3-10.9s-1-2.69-2-3c-.56-.21-3.86-1.27-4-1.31l-.27-.09-.26.11a6,6,0,0,1-1.54.42A14,14,0,0,1,29.69,14l-.13,0-.13,0c-1.57.34-4.29,1.09-4.78,2.3-.42,1-3.35,9.38-4,11.53-.52,1.63.31,2.26.69,2.46a2.22,2.22,0,0,0,2.54-.48,70.5,70.5,0,0,0,3-7.59,2.17,2.17,0,0,1,.11-.28c0,1.26-.61,22.42-.69,24.41A3.52,3.52,0,0,0,27,49a2.15,2.15,0,0,0,1.61.62,2.33,2.33,0,0,0,2.16-1.78l0-.15c0-.13.89-12.78,1-13.59a3.29,3.29,0,0,1,.19-.89,3.64,3.64,0,0,1,.09.55c0,.22.1,1.35.21,2.87.27,3.77.67,9.46.82,10.68.28,2.37,1.75,2.37,2.45,2.37a2,2,0,0,0,2.25-1.85c0-.39-.07-3.7-.26-9.53s-.44-13.65-.43-15.91c.39,1.57,1,4.37,1.37,5.78l.24,1a3.25,3.25,0,0,0,1.58,2.06,1.71,1.71,0,0,0,1.39.18A2,2,0,0,0,42.95,28.91Zm-1.74,1.14a1.6,1.6,0,0,1-1-1.16l-.24-1c-.91-3.89-1.54-6.57-1.69-7a1.39,1.39,0,0,0-1.41-1.05c-.71.09-1.12.76-1.21,2-.08,1,.13,7.83.42,16.6.14,4.41.29,9,.27,9.37,0,.13,0,.47-.75.47s-.84,0-1-1-.56-7.08-.81-10.61c-.11-1.53-.19-2.67-.21-2.9-.16-1.81-.94-2.19-1.57-2.19-1.1,0-1.61,1.36-1.7,2.53-.07.79-.86,12.25-1,13.51-.06.17-.27.63-.69.63S28.14,48,28.1,48s-.33-.51-.29-1.59.76-23.84.68-24.63a1.66,1.66,0,0,0-1.35-1.49c-.35,0-1.2,0-1.68,1.46-.58,1.75-2.48,6.65-2.8,7.14a.83.83,0,0,1-.69.07s-.08-.22.06-.66c.67-2.06,3.61-10.43,4-11.41.22-.36,1.91-1,3.58-1.38A14.93,14.93,0,0,0,32,15.6a7.08,7.08,0,0,0,1.74-.43c1.08.35,3.27,1.05,3.67,1.2.19.07.57.21,1,2s2.74,10.06,3,11A.51.51,0,0,1,41.21,30.06Z"/><path d="M18.78,30.34a13.22,13.22,0,0,1-2.18.88l-1.14.28-.19.08a6.4,6.4,0,0,1-3.44.05,2.78,2.78,0,0,0-3.4.16,39.43,39.43,0,0,0-4,5.15c-1.14,1.73-.25,2.59.05,2.82a1.67,1.67,0,0,0,2.12,0c.25-.3,1.43-1.64,2.25-2.52a1,1,0,0,1,.12.51c0,.21-.08.79-.17,1.57-.25,2.2-.68,5.88-.68,7.58a2.44,2.44,0,0,0,.71,2,2,2,0,0,0,1.78.19l.26-.06c.82-.08,1-.94,1.38-3a18.85,18.85,0,0,1,.83-3.32A18.13,18.13,0,0,1,14,46.43c.12.72.23,1.34.34,1.74a1.76,1.76,0,0,0,1.77,1.37l.32,0C17.06,49.44,18,49,18,48.32c0-.07,0-.57-.12-1.32-.22-2.28-.68-7-.68-9.2s.95-2.67,2.25-3.51l.72-.48a3.2,3.2,0,0,0,1.55-2,1.7,1.7,0,0,0-.36-1.32C21,30.07,20.23,29.44,18.78,30.34Zm.53,2.24-.67.45c-1.38.89-2.94,1.9-2.94,4.77,0,2.24.46,7,.69,9.34l.08.85A.82.82,0,0,1,16,48s-.12,0-.18-.25-.2-.94-.31-1.59C15,43.5,14.6,41,13.09,41H13c-1.21.11-1.63,1.86-2.17,4.72-.12.65-.28,1.49-.41,1.88l-.12,0a2.53,2.53,0,0,1-.49.09s-.14-.16-.14-.86c0-1.62.42-5.24.67-7.41.09-.81.16-1.42.18-1.64a2.2,2.2,0,0,0-1.1-2.1,1.36,1.36,0,0,0-1.57.4c-.66.71-1.8,2-2.24,2.51a.37.37,0,0,1-.19-.06s-.06-.22.31-.79a39.22,39.22,0,0,1,3.74-4.86,1.31,1.31,0,0,1,1.49-.07c1,.73,3.92.6,5,.11l1.1-.28a14.48,14.48,0,0,0,2.56-1c.41-.25.56-.23.6-.19s.08.16.08.18S20.14,32,19.31,32.58Z"/></g></svg>