<svg xmlns="http://www.w3.org/2000/svg" viewBox="0 0 24.12 20.68"><title>twitter</title><path d="M21.66,5.89c0-.23,0-.45,0-.68a10,10,0,0,0,2.48-2.65,9.45,9.45,0,0,1-2.84.78A5,5,0,0,0,23.45.5a9.44,9.44,0,0,1-3.14,1.2A4.91,4.91,0,0,0,16.7,0a5,5,0,0,0-4.95,5.16,5.29,5.29,0,0,0,.13,1.19A13.92,13.92,0,0,1,1.68.72,5.46,5.46,0,0,0,1,3.36,5.43,5.43,0,0,0,3.21,7.78,4.75,4.75,0,0,1,1,7.1v.07a5.27,5.27,0,0,0,4,5.21,4.82,4.82,0,0,1-1.3.18,4.79,4.79,0,0,1-.93-.11,5,5,0,0,0,4.62,3.69,9.55,9.55,0,0,1-6.14,2.24A9.62,9.62,0,0,1,0,18.29a13.28,13.28,0,0,0,7.59,2.38c9.1,0,14.08-7.92,14.08-14.79Zm0,0" fill="#fff" fill-rule="evenodd"/></svg>
