<?xml version="1.0" encoding="utf-8"?>
<!-- Generator: Adobe Illustrator 19.0.0, SVG Export Plug-In . SVG Version: 6.00 Build 0)  -->
<svg version="1.1" id="Слой_1" xmlns="http://www.w3.org/2000/svg" xmlns:xlink="http://www.w3.org/1999/xlink" x="0px" y="0px"
	 viewBox="974 -846 1536 1792" style="enable-background:new 974 -846 1536 1792;" xml:space="preserve">
<path d="M2175-62c31.3,9.3,61.2,22,89.5,38s58,40.3,89,73s57.5,71.2,79.5,115.5c22,44.3,40.3,101.7,55,172s22,149.2,22,236.5
	c0,102.7-33.3,190.5-100,263.5S2263,946,2169,946h-854c-94,0-174.3-36.5-241-109.5S974,675.7,974,573c0-87.3,7.3-166.2,22-236.5
	s33-127.7,55-172c22-44.3,48.5-82.8,79.5-115.5s60.7-57,89-73s58.2-28.7,89.5-38c-52.7-83.3-79-174-79-272
	c0-69.3,13.5-135.5,40.5-198.5S1334-650,1380-696s100.5-82.5,163.5-109.5S1672.7-846,1742-846s135.5,13.5,198.5,40.5
	S2058-742,2104-696s82.5,100.5,109.5,163.5S2254-403.3,2254-334C2254-236,2227.7-145.3,2175-62z M1742-718
	c-106,0-196.5,37.5-271.5,112.5S1358-440,1358-334s37.5,196.5,112.5,271.5S1636,50,1742,50s196.5-37.5,271.5-112.5
	S2126-228,2126-334s-37.5-196.5-112.5-271.5S1848-718,1742-718z M2169,818c58.7,0,108.8-23.8,150.5-71.5S2382,641,2382,573
	c0-159.3-26.2-285-78.5-377S2176,55.7,2078,51c-96.7,84.7-208.7,127-336,127s-239.3-42.3-336-127c-98,4.7-173.2,53-225.5,145
	S1102,413.7,1102,573c0,68,20.8,125.8,62.5,173.5S1256.3,818,1315,818H2169z"/>
</svg>
