<svg xmlns="http://www.w3.org/2000/svg" viewBox="0 0 15.6 16.5"><defs><style>.cls-1{fill:#fff;}</style></defs><title>user</title><g id="Layer_2" data-name="Layer 2"><path class="cls-1" d="M14.11,9a6.09,6.09,0,0,0-2-1.62A5,5,0,0,0,12.65,5,5,5,0,0,0,2.58,5a5,5,0,0,0,.66,2.44A6,6,0,0,0,1.49,9,7.36,7.36,0,0,0,0,13.57c0,1.09.15,2.93,1.19,2.93H14.41c1,0,1.19-1.83,1.19-2.93A7.36,7.36,0,0,0,14.11,9ZM7.62,1.5A3.54,3.54,0,1,1,4.08,5,3.54,3.54,0,0,1,7.62,1.5ZM14,15H1.65a6.62,6.62,0,0,1,.66-4.61,4.55,4.55,0,0,1,1.86-1.7,5,5,0,0,0,7-.12,4.61,4.61,0,0,1,2.1,1.82A6.62,6.62,0,0,1,14,15Z"/></g></svg>