<svg xmlns="http://www.w3.org/2000/svg" viewBox="0 0 22 12.55"><title>vkontakte</title><path d="M21.88,11.34l-.07-.14a11.41,11.41,0,0,0-2.19-2.53l0,0h0q-.73-.7-.93-.94a.88.88,0,0,1-.16-.93,8.65,8.65,0,0,1,1-1.5l.74-1q2-2.64,1.72-3.37L21.9.79A.67.67,0,0,0,21.55.6a1.79,1.79,0,0,0-.73,0l-3.3,0a.43.43,0,0,0-.23,0l-.15,0-.06,0,0,0a.5.5,0,0,0-.13.12.79.79,0,0,0-.11.2A18.73,18.73,0,0,1,15.57,3.6q-.42.71-.78,1.23a6,6,0,0,1-.6.77,4.12,4.12,0,0,1-.44.39c-.13.1-.23.14-.3.13l-.19,0A.75.75,0,0,1,13,5.79a1.25,1.25,0,0,1-.13-.45q0-.27,0-.46c0-.13,0-.31,0-.55s0-.4,0-.48q0-.44,0-.95t0-.81q0-.3,0-.63a2.64,2.64,0,0,0,0-.52,1.77,1.77,0,0,0-.12-.37.61.61,0,0,0-.23-.27,1.32,1.32,0,0,0-.38-.16A7.68,7.68,0,0,0,10.58,0,7.52,7.52,0,0,0,7.85.28a1.54,1.54,0,0,0-.44.34Q7.21.87,7.35.9a1.41,1.41,0,0,1,1,.49l.07.14a2.16,2.16,0,0,1,.16.53,5.29,5.29,0,0,1,.1.84,8.83,8.83,0,0,1,0,1.43q-.06.59-.11.93a1.86,1.86,0,0,1-.15.54A2.18,2.18,0,0,1,8.26,6L8.2,6.1a.85.85,0,0,1-.31.06A.73.73,0,0,1,7.5,6,2.75,2.75,0,0,1,7,5.55a5.89,5.89,0,0,1-.56-.78q-.31-.5-.64-1.19l-.18-.33q-.17-.32-.47-.93T4.65,1.12A.76.76,0,0,0,4.38.76l-.06,0L4.14.63A1.22,1.22,0,0,0,3.87.55L.73.57A.8.8,0,0,0,.08.79L0,.86A.37.37,0,0,0,0,1a.91.91,0,0,0,.07.31Q.76,3,1.56,4.47T3,6.89q.6.92,1.21,1.73t.82,1l.32.34.29.28a6.73,6.73,0,0,0,.81.66,13.76,13.76,0,0,0,1.18.76,6.41,6.41,0,0,0,1.51.61,5.19,5.19,0,0,0,1.67.19h1.32a.91.91,0,0,0,.61-.25l0-.06a.76.76,0,0,0,.09-.21,1.16,1.16,0,0,0,0-.31,3.8,3.8,0,0,1,.07-.89,2.33,2.33,0,0,1,.2-.6,1.44,1.44,0,0,1,.25-.34,1,1,0,0,1,.19-.17l.09,0a.73.73,0,0,1,.65.18,3.84,3.84,0,0,1,.7.66q.33.4.78.89a5.47,5.47,0,0,0,.8.73l.23.14a2.77,2.77,0,0,0,.6.25,1.28,1.28,0,0,0,.64.06l2.93,0a1.33,1.33,0,0,0,.68-.14A.57.57,0,0,0,22,12a.89.89,0,0,0,0-.39,1.49,1.49,0,0,0-.08-.3Zm0,0"/></svg>