<svg xmlns="http://www.w3.org/2000/svg" viewBox="0 0 50 50"><title>depfin icons</title><g id="Layer_2_copy" data-name="Layer 2 copy"><circle cx="25.57" cy="36.59" r="4.37"/><path d="M12.09,30.89a1,1,0,0,1-.81-1.58c2.89-4.06,8.36-6.58,14.29-6.58,5.4,0,10.44,2.08,13.5,5.58a1,1,0,1,1-1.51,1.32c-2.68-3.06-7.16-4.89-12-4.89-5.29,0-10.14,2.2-12.66,5.74A1,1,0,0,1,12.09,30.89Z"/><path d="M45.71,23.47a1,1,0,0,1-.74-.33,26,26,0,0,0-19.41-8.23,26,26,0,0,0-19.4,8.23A1,1,0,0,1,4.68,21.8a28,28,0,0,1,20.89-8.89A28,28,0,0,1,46.46,21.8a1,1,0,0,1-.74,1.67Z"/></g></svg>