<svg xmlns="http://www.w3.org/2000/svg" viewBox="0 0 21.35 15.5"><title>youtube</title><path d="M21.27,4.41V4.23A4.52,4.52,0,0,0,16.89.06L14,0c-1.9,0-4.87,0-6.61,0l-3,0A4.47,4.47,0,0,0,.08,4.24v.17C0,6.25,0,9.22.07,11v.18a4.49,4.49,0,0,0,4.34,4.19l3,.06,3.29,0,3.32,0,2.89-.06a4.54,4.54,0,0,0,4.37-4.19v-.18C21.38,9.22,21.38,6.24,21.27,4.41Zm-1.81,6.54v.18a2.73,2.73,0,0,1-2.59,2.48L14,13.66c-1.8,0-4.74,0-6.55,0l-3-.06a2.64,2.64,0,0,1-2.56-2.47V11c-.09-1.78-.09-4.68,0-6.46V4.33A2.63,2.63,0,0,1,4.45,1.87l3,0,3.23,0,3.32,0,2.9,0a2.67,2.67,0,0,1,2.59,2.47v.18C19.56,6.29,19.56,9.18,19.46,10.95Z" fill="#fff"/><path d="M14.29,6.74,9.08,4a.91.91,0,0,0-1.33.8v5.46a.91.91,0,0,0,1.33.8l5.21-2.73a.9.9,0,0,0,0-1.6Zm-2.37.8L9.57,8.77V6.31Z" fill="#fff"/></svg>
