<svg xmlns="http://www.w3.org/2000/svg" width="14" height="15" viewBox="0 0 14 15"><path fill="#0d46a1" d="M.04 7.02v6.8C.04 14.48.56 15 1.2 15h10.6c.64 0 1.17-.53 1.17-1.17V7zm4.2 7.1H1l-.02-2.54 3.25.05zm-.03-3.29H.98L1 8.04h3.23zm.66 3.3l-.06-2.53 3.3-.02v2.54zm3.28-3.24l-3.32.02.04-2.87h3.24l.06 2.67zm3.83 3.23H8.75l.02-2.52 3.19.03zm.02-3.29H8.77l-.02-2.79h3.23zm1-4.48l-.04-2.6c0-.65-.52-1.35-1.17-1.35L10 2.38l-.05-.79a.6.6 0 0 0-.6-.6.6.6 0 0 0-.61.6v1l-.02-.2H3.96l-.02-.8a.6.6 0 0 0-.6-.6.6.6 0 0 0-.61.6l-.02.82-1.53.04C.53 2.45 0 3.12 0 3.76V6.4zm-9.66-.98a1.2 1.2 0 0 1-1.2-1.19c0-.44.24-.82.6-1.03v1.03c0 .33.27.6.6.6a.6.6 0 0 0 .6-.6V3.15c.37.2.61.59.61 1.03 0 .66-.54 1.2-1.2 1.2zm6.02 0a1.19 1.19 0 1 1-.6-2.22v1.03c0 .33.27.6.6.6a.6.6 0 0 0 .6-.6V3.15c.37.2.61.59.61 1.03 0 .66-.54 1.2-1.2 1.2z"/></svg>