<svg id="Слой_1" xmlns="http://www.w3.org/2000/svg" viewBox="-37.8 37.1 17.7 27.5"><style>.st0{fill:#fee300}</style><title>clean</title><path class="st0" d="M-22.3 52.7l.6-1.5c.1-.1.1-.3 0-.4l-.6-1.4c-.1-.2-.3-.3-.5-.3h-2.8c.3-1.6-.5-3.1-1.9-3.8v-6.8c-.2-1-1.1-1.6-2-1.4-.7.1-1.3.7-1.4 1.4v6.8c-1.4.7-2.2 2.2-1.9 3.8h-2.7c-.2 0-.3.1-.4.2l-.8 1.4c-.1.1-.1.3 0 .5l.7 1.5-1.8 11.4c0 .3.1.5.4.6h10.6c.2 0 .4-.1.5-.3l1.2-2.7 1.2 2.7c.1.2.3.3.5.3h2.9c.3 0 .5-.2.5-.5v-.1l-2.3-11.4zM-30 38.5c0-.4.4-.7.8-.7s.6.3.7.7V45c-.5-.1-1-.1-1.5 0v-6.5zm-1.2 8.2c1.1-1.1 2.8-1.1 3.9 0 .7.6.9 1.6.8 2.5h-5.3c-.3-.9-.1-1.9.6-2.5zm-4.1 3.4h12.2l.4.9-.5 1.1h-12.1l-.6-1.1.6-.9zm12.1 13.5l-1.5-3.4c-.1-.3-.5-.3-.7-.2-.1 0-.2.1-.2.2l-1.5 3.4h-9.6l1.6-10.5h11.9l2.1 10.5h-2.1z" id="Layer_2"/></svg>