<svg xmlns="http://www.w3.org/2000/svg" viewBox="0 0 35.6 42.1"><title>depfin icons-29</title><path d="M19.1 42.1h-3.2a.37.37 0 0 1-.3-.1 28.34 28.34 0 0 1-7.9-1.3C2.6 39 0 35.7 0 30.9 0 17.8 11.5 9 12 8.6a.76.76 0 0 1 .5-.2h10.6a1.06 1.06 0 0 1 .5.2c.5.4 12 9.2 12 22.3 0 4.8-2.6 8.2-7.7 9.8A27.77 27.77 0 0 1 20 42c-.1 0-.2.1-.3.1h-.6zM12.7 10c-1.5 1.2-11.2 9.5-11.2 20.9 0 4.2 2.2 6.9 6.7 8.4a37.27 37.27 0 0 0 9.5 1.3 30.1 30.1 0 0 0 9.5-1.3c4.5-1.5 6.7-4.2 6.7-8.4 0-11.5-9.7-19.7-11.2-20.9h-10z" fill="#00a7e7"/><path d="M12.5 10a.86.86 0 0 1-.6-.3c-.1-.1-2.6-3.1-3.6-4.4A2.6 2.6 0 0 1 8 2.4a1.89 1.89 0 0 1 2.1-.9 35.67 35.67 0 0 1 3.7.7 4.43 4.43 0 0 0 .9-.7A5.64 5.64 0 0 1 17.8 0 6.42 6.42 0 0 1 21 1.3a5.23 5.23 0 0 0 1.2.7 28.63 28.63 0 0 0 3.2-.5 2.33 2.33 0 0 1 2.5.9 2.11 2.11 0 0 1-.1 2.5 35.26 35.26 0 0 1-4.3 4.9.78.78 0 1 1-1.1-1.1A40.38 40.38 0 0 0 26.5 4a.67.67 0 0 0 .3-.8.94.94 0 0 0-1-.3 30.53 30.53 0 0 1-3.5.5H22a5.07 5.07 0 0 1-1.8-.9 5.37 5.37 0 0 0-2.4-1 4.55 4.55 0 0 0-2.1 1.2 3.33 3.33 0 0 1-2.1 1A20.83 20.83 0 0 0 10 3a1 1 0 0 0-.7.2 1.43 1.43 0 0 0 .2 1.2c.9 1.3 3.5 4.3 3.5 4.3a.79.79 0 0 1-.1 1.1.76.76 0 0 1-.4.2z" fill="#00a7e7"/><path d="M24.9 19.2a.68.68 0 0 1-.7-.7 20.16 20.16 0 0 0-2.6-8.1 7.68 7.68 0 0 0-2.2 4.3.752.752 0 1 1-1.5-.1c.3-3.3 3.3-5.9 3.4-6a1.42 1.42 0 0 1 .6-.2.55.55 0 0 1 .5.3 22 22 0 0 1 3.4 9.6.89.89 0 0 1-.9.9z" fill="#00a7e7"/></svg>