<svg xmlns="http://www.w3.org/2000/svg" viewBox="0 0 43.34 34.91"><title>depfin icons-32</title><path d="M38.67 34.91h-2.33a2.61 2.61 0 0 1-2.61-2.61v-2.84H9.61v2.8A2.61 2.61 0 0 1 7 34.87H4.67a2.61 2.61 0 0 1-2.61-2.61v-2.9a2.72 2.72 0 0 1-2-2.61V16.46a3.14 3.14 0 0 1 1.44-2.64 3 3 0 0 1 1.46-5.54h2.42l1.65-4.64a5.5 5.5 0 0 1 5.18-3.65h18.92a5.5 5.5 0 0 1 5.18 3.65l1.65 4.64h2.42a3 3 0 0 1 1.46 5.54 3.14 3.14 0 0 1 1.44 2.64v10.33a2.72 2.72 0 0 1-2 2.61v2.9a2.61 2.61 0 0 1-2.61 2.61zm-29.81-6.9h25.62a.75.75 0 0 1 .75.75v3.55a1.11 1.11 0 0 0 1.11 1.15h2.33a1.11 1.11 0 0 0 1.11-1.11v-3.59a.75.75 0 0 1 .75-.75 1.22 1.22 0 0 0 1.22-1.22V16.46a1.65 1.65 0 0 0-1.65-1.65.75.75 0 0 1-.75-.75v-.6a.75.75 0 0 1 .75-.75h.25a1.46 1.46 0 1 0 0-2.92h-2.92a.75.75 0 0 1-.71-.5l-1.83-5.14a4 4 0 0 0-3.76-2.69H12.21a4 4 0 0 0-3.76 2.66L6.62 9.29a.75.75 0 0 1-.71.5H2.96a1.46 1.46 0 0 0 0 2.92h.25a.75.75 0 0 1 .75.75v.61a.75.75 0 0 1-.75.75 1.65 1.65 0 0 0-1.65 1.64v10.33a1.22 1.22 0 0 0 1.22 1.22.75.75 0 0 1 .75.75v3.55a1.11 1.11 0 0 0 1.14 1.15h2.36a1.11 1.11 0 0 0 1.11-1.11v-3.59a.75.75 0 0 1 .72-.75z" fill="#b30653"/><path d="M7.29 22.63a3 3 0 1 1 3-3 3 3 0 0 1-3 3zm0-4.49a1.49 1.49 0 1 0 1.49 1.49 1.49 1.49 0 0 0-1.49-1.49zm29.26 4.49a3 3 0 1 1 3-3 3 3 0 0 1-3 3zm0-4.49a1.49 1.49 0 1 0 1.49 1.49 1.49 1.49 0 0 0-1.49-1.49zm-8.21 7.88H15a.75.75 0 0 1-.75-.75v-3.39a.75.75 0 0 1 .75-.75h13.34a.75.75 0 0 1 .75.75v3.39a.75.75 0 0 1-.75.75zm-12.59-1.5h11.84v-1.89H15.75v1.89zm20.12-11.78H7.28a2.47 2.47 0 0 1-2.31-3.28l.24-.64a.751.751 0 0 1 1.41.52l-.24.64a1 1 0 0 0 .91 1.3h28.58a1 1 0 0 0 .93-1.24l-.35-1.2a.751.751 0 0 1 1.44-.43l.35 1.2a2.47 2.47 0 0 1-2.37 3.16z" fill="#b30653"/></svg>