<svg xmlns="http://www.w3.org/2000/svg" viewBox="0 0 31.41 44.05"><title>depfin-icons-27</title><path d="M15.54 24.83a9.8 9.8 0 1 1 9.8-9.8 9.82 9.82 0 0 1-9.8 9.8zm0-18a8.2 8.2 0 1 0 8.2 8.2 8.17 8.17 0 0 0-8.2-8.2z" fill="#fca805"/><path d="M13.54 19.13a.76.76 0 0 1-.5-.2l-3.4-3.6a.78.78 0 0 1 1.1-1.1l3 3.1 7.3-5.8a.781.781 0 0 1 1 1.2l-7.9 6.2a3.93 3.93 0 0 1-.6.2z" fill="#fca805"/><path d="M15.74 30.13a3.1 3.1 0 0 1-2.2-.9 3.79 3.79 0 0 0-3.1-.8 3 3 0 0 1-2.3-.3 3.24 3.24 0 0 1-1.5-1.9 3.74 3.74 0 0 0-2.3-2.3 2.85 2.85 0 0 1-1.9-1.5 3.12 3.12 0 0 1-.3-2.3 3.55 3.55 0 0 0-.8-3.1 2.94 2.94 0 0 1-.9-2.2 3.1 3.1 0 0 1 .9-2.2 3.79 3.79 0 0 0 .8-3.1 3 3 0 0 1 .3-2.3 3.24 3.24 0 0 1 1.9-1.5 2.91 2.91 0 0 0 2.3-2.1 2.85 2.85 0 0 1 1.5-1.9 4.5 4.5 0 0 1 2.3-.1 3.55 3.55 0 0 0 3.1-.8 3.35 3.35 0 0 1 4.4 0 3.79 3.79 0 0 0 3.1.8 3 3 0 0 1 2.3.3 3.67 3.67 0 0 1 1.5 1.9 3.74 3.74 0 0 0 2.3 2.3 2.85 2.85 0 0 1 1.9 1.5 3.18 3.18 0 0 1 .3 2.3 3.55 3.55 0 0 0 .8 3.1 2.94 2.94 0 0 1 .9 2.2 3.1 3.1 0 0 1-.9 2.2 3.79 3.79 0 0 0-.8 3.1 3 3 0 0 1-.3 2.3 3.24 3.24 0 0 1-1.9 1.5 3.74 3.74 0 0 0-2.3 2.3 2.85 2.85 0 0 1-1.5 1.9 3.12 3.12 0 0 1-2.3.3 3.55 3.55 0 0 0-3.1.8 7.12 7.12 0 0 1-2.2.5zm-4.6-3.3a5.39 5.39 0 0 1 3.5 1.3 1.45 1.45 0 0 0 2.1 0 4.81 4.81 0 0 1 4.6-1.2 1.38 1.38 0 0 0 1.1-.1 1.6 1.6 0 0 0 .7-.9 5 5 0 0 1 3.3-3.3 1.27 1.27 0 0 0 .9-.7 1.42 1.42 0 0 0 .1-1.1 5.14 5.14 0 0 1 1.2-4.6 1.28 1.28 0 0 0 .4-1 1.53 1.53 0 0 0-.4-1 4.81 4.81 0 0 1-1.2-4.6 1.38 1.38 0 0 0-.1-1.1 1.6 1.6 0 0 0-.9-.7 5 5 0 0 1-3.3-3.3 1.26 1.26 0 0 0-.7-1 1.38 1.38 0 0 0-1.1-.1 5.14 5.14 0 0 1-4.6-1.2 1.45 1.45 0 0 0-2.1 0l-.5-.8.5.5a4.81 4.81 0 0 1-4.6 1.2 1.38 1.38 0 0 0-1.1.1 1.27 1.27 0 0 0-.7.9 5 5 0 0 1-3.3 3.3 1.27 1.27 0 0 0-.9.7 1.9 1.9 0 0 0-.1 1.3 5.14 5.14 0 0 1-1.2 4.6 1.28 1.28 0 0 0-.4 1 1.53 1.53 0 0 0 .4 1 4.81 4.81 0 0 1 1.2 4.6 1.38 1.38 0 0 0 .1 1.1 1.6 1.6 0 0 0 .9.7 5 5 0 0 1 3.3 3.3 1.27 1.27 0 0 0 .7.9 1.38 1.38 0 0 0 1.1.1 4.1 4.1 0 0 0 1.1.1z" fill="#fca805"/><path d="M9.54 44.03a.86.86 0 0 1-.6-.3l-3.1-3.8-5 .2a.91.91 0 0 1-.7-.3.88.88 0 0 1-.1-.7l6.2-14.1a.73.73 0 0 1 1-.4.82.82 0 0 1 .4 1l-5.7 13 4-.2a.71.71 0 0 1 .6.3l2.6 3.1 5.5-12a.82.82 0 0 1 1-.4.73.73 0 0 1 .4 1l-5.8 13.3a.56.56 0 0 1-.7.3z" fill="#fca805"/><path d="M22.04 44.03a.72.72 0 0 1-.7-.4l-5.9-13.4a.762.762 0 1 1 1.4-.6l5.4 12.2 2.6-3.1a.71.71 0 0 1 .6-.3l4 .2-5.8-13.3a.762.762 0 0 1 1.4-.6l6.3 14.4a.62.62 0 0 1-.1.7.78.78 0 0 1-.7.3l-5-.2-3.1 3.8a.35.35 0 0 1-.4.3z" fill="#fca805"/></svg>