<svg xmlns="http://www.w3.org/2000/svg" viewBox="0 0 43.51 31.09"><title>depfin-icons-31</title><path d="M21.76 31.09a.75.75 0 0 1-.65-.38l-6-10.45-1.95 5.5h1.23a.75.75 0 0 1 .75.75v3.54a.75.75 0 0 1-.75.75H.76a.75.75 0 0 1-.75-.75v-3.54a.75.75 0 0 1 .75-.75h2.08L12.45.48a.75.75 0 0 1 1.31-.12l8 14.65 8-14.65a.75.75 0 0 1 1.36.09l9.56 25.31h2.08a.75.75 0 0 1 .75.75v3.54a.75.75 0 0 1-.75.75H29.13a.75.75 0 0 1-.75-.75v-3.54a.75.75 0 0 1 .75-.75h1.23l-1.94-5.5-6 10.45a.75.75 0 0 1-.66.38zm8.12-1.79h12.14v-2h-1.86a.75.75 0 0 1-.7-.48L30.25 2.54l-7.83 14.43a.78.78 0 0 1-1.32 0L13.27 2.54 4.06 26.77a.75.75 0 0 1-.7.48H1.5v2h12.14v-2H12.1a.75.75 0 0 1-.71-1l2.83-8a.75.75 0 0 1 1.36-.12l6.18 10.7 6.18-10.74a.75.75 0 0 1 1.36.12l2.83 8a.75.75 0 0 1-.71 1h-1.54v2z" fill="#30b069"/></svg>