<svg xmlns="http://www.w3.org/2000/svg" viewBox="0 0 40.9 32.6"><title>depfin icons-30</title><path d="M4.2 19.7a.79.79 0 0 1-.8-.8v-4.4a.79.79 0 0 1 .8-.8.74.74 0 0 1 .8.8v4.4a1 1 0 0 1-.8.8z" fill="#34ad67"/><path d="M39 32.6H5.2a1.79 1.79 0 0 1-1.8-1.8V26a.79.79 0 0 1 .8-.8.74.74 0 0 1 .8.8v4.8a.22.22 0 0 0 .2.2h33.9a.22.22 0 0 0 .2-.2v-29a.22.22 0 0 0-.2-.2H5.2a.22.22 0 0 0-.2.2v5.9a.8.8 0 0 1-1.6 0V1.8A1.79 1.79 0 0 1 5.2 0h33.9a1.79 1.79 0 0 1 1.8 1.8v29a2 2 0 0 1-1.9 1.8z" fill="#34ad67"/><path d="M6.6 15.2H1.8A1.79 1.79 0 0 1 0 13.4V8.7a1.79 1.79 0 0 1 1.8-1.8h4.8a1.79 1.79 0 0 1 1.8 1.8v4.8a1.92 1.92 0 0 1-1.8 1.7zM1.8 8.5a.22.22 0 0 0-.2.2v4.8a.22.22 0 0 0 .2.2h4.8a.22.22 0 0 0 .2-.2V8.7a.22.22 0 0 0-.2-.2H1.8zm4.8 17.9H1.8A1.79 1.79 0 0 1 0 24.6v-4.8A1.79 1.79 0 0 1 1.8 18h4.8a1.79 1.79 0 0 1 1.8 1.8v4.9a1.92 1.92 0 0 1-1.8 1.7zm-4.8-6.7a.22.22 0 0 0-.2.2v4.8a.22.22 0 0 0 .2.2h4.8a.22.22 0 0 0 .2-.2v-4.8a.22.22 0 0 0-.2-.2H1.8zm20.4 3.4a6.6 6.6 0 1 1 6.6-6.6 6.66 6.66 0 0 1-6.6 6.6zm0-11.7a5.1 5.1 0 1 0 5.1 5.1 5.06 5.06 0 0 0-5.1-5.1zM33.6 17a.79.79 0 0 1-.8-.8V9.7a.79.79 0 0 1 .8-.8.74.74 0 0 1 .8.8v6.6a.77.77 0 0 1-.8.7z" fill="#34ad67"/></svg>