<svg xmlns="http://www.w3.org/2000/svg" viewBox="0 0 37.23 40.58"><title>depfin icons-28</title><path d="M36.2 13.48H.9a.79.79 0 0 1-.8-.8.74.74 0 0 1 .8-.8h35.4a.79.79 0 0 1 .8.8.82.82 0 0 1-.9.8zm-1.8 20.6H2.7a.79.79 0 0 1-.8-.8.74.74 0 0 1 .8-.8h31.8a.79.79 0 0 1 .8.8.82.82 0 0 1-.9.8zm1.9-23.4H.8a.73.73 0 0 1-.7-.6.68.68 0 0 1 .4-.8L18.3.08a.85.85 0 0 1 .7 0l17.8 9.2a.74.74 0 0 1 .4.8 1 1 0 0 1-.9.6zM3.9 9.18h29.4l-14.8-7.6zm31.4 31.4H1.8a1.79 1.79 0 0 1-1.8-1.8v-1.6a1.79 1.79 0 0 1 1.8-1.8h33.6a1.79 1.79 0 0 1 1.8 1.8v1.6a2 2 0 0 1-1.9 1.8zm-33.5-3.6a.22.22 0 0 0-.2.2v1.6a.22.22 0 0 0 .2.2h33.6a.22.22 0 0 0 .2-.2v-1.6a.22.22 0 0 0-.2-.2H1.8zm2.6-5.7a.79.79 0 0 1-.8-.8v-14.8a.79.79 0 0 1 .8-.8.74.74 0 0 1 .8.8v14.8a.86.86 0 0 1-.8.8zm5.5 0a.71.71 0 0 1-.7-.8v-14.8a.77.77 0 0 1 .7-.8.79.79 0 0 1 .8.8v14.8a1 1 0 0 1-.8.8zm5.9 0a.79.79 0 0 1-.8-.8v-14.8a.79.79 0 0 1 .8-.8.74.74 0 0 1 .8.8v14.8a.86.86 0 0 1-.8.8zm5.5 0a.79.79 0 0 1-.8-.8v-14.8a.79.79 0 0 1 .8-.8.74.74 0 0 1 .8.8v14.8a1 1 0 0 1-.8.8zm5.9 0a.79.79 0 0 1-.8-.8v-14.8a.79.79 0 0 1 .8-.8.74.74 0 0 1 .8.8v14.8a.86.86 0 0 1-.8.8zm5.2 0a.79.79 0 0 1-.8-.8v-14.8a.79.79 0 0 1 .8-.8.74.74 0 0 1 .8.8v14.8a1 1 0 0 1-.8.8z" fill="#ce4c72"/></svg>