<svg xmlns="http://www.w3.org/2000/svg" viewBox="0 0 47.8 44.02"><title>depfin-icons-33</title><path d="M47.15 23.55c-1-1-2.26-.78-3.4-.28a5.25 5.25 0 0 0-2.49-.87 2.43 2.43 0 0 0-.62.21 12.83 12.83 0 0 0-1.74-.74c-1-.3-2.5.47-3.15.92s-7 4.66-7.09 4.71a.73.73 0 0 0-.16.16h-.42l-1 .05a31.52 31.52 0 0 1-6.24 0 25.87 25.87 0 0 1-4.26-1.85c-2.75-1.35-4.49-2.17-5.51-2.17a9.25 9.25 0 0 0-3.64 1.08 21.67 21.67 0 0 1-2.87 1.17c-2 .59-2.74.16-2.8.12a.75.75 0 0 0-.94 1.17c.21.17 1.38 1 4.17.14a23.14 23.14 0 0 0 3.07-1.25 8.43 8.43 0 0 1 3-1c.74 0 3 1.12 4.85 2a25 25 0 0 0 4.64 2 32.3 32.3 0 0 0 6.6.06l1-.05a2.8 2.8 0 0 1 2.92 2.13 2.2 2.2 0 0 1-.52 1.61 3.37 3.37 0 0 1-2.39 1.21c-1.42.1-2.92.07-4.66 0h-3a19 19 0 0 0-2.91.24 5.68 5.68 0 0 1-3.09-.13 19.9 19.9 0 0 1-4.13-2.21.75.75 0 0 0-.87 1.22 21.05 21.05 0 0 0 4.5 2.4 6 6 0 0 0 2.06.36 12.18 12.18 0 0 0 1.74-.16 17.8 17.8 0 0 1 2.7-.23h3c1.77 0 3.31.06 4.79 0a4.88 4.88 0 0 0 3.42-1.7 3.79 3.79 0 0 0 .88-2.18 100.47 100.47 0 0 0 10.13-6.07c1.89-1.24 2.83-1.51 3.37-1a.57.57 0 0 1 .21.44c0 .81-1.47 2.22-1.95 2.68-1.77 1.71-17.79 13-20.22 14.32-1.61.9-2.79.35-4.43-.41-.5-.23-1-.47-1.58-.69-1.2-.46-3-1.27-4.73-2s-3.56-1.66-4.8-2.09c-2.53-1-7.59-1.2-7.8-1.21a.751.751 0 1 0-.08 1.5c.05 0 5 .24 7.33 1.12 1.2.46 3 1.27 4.73 2s3.58 1.59 4.83 2.08c.52.2 1 .43 1.48.65a8.16 8.16 0 0 0 3.42 1 4.78 4.78 0 0 0 2.4-.65c2.56-1.43 18.64-12.73 20.53-14.55 1.24-1.2 2.39-2.49 2.4-3.75a2.06 2.06 0 0 0-.68-1.51zM36.63 24a3.51 3.51 0 0 1 1.86-.71l.46.18q-2.65 1.4-8.2 4.74l-.08.08c-.09-.05-.16-.11-.25-.16 1.78-1.19 5.62-3.73 6.21-4.14zm-4.31 6.14a3.78 3.78 0 0 0-.49-.82c3.68-2.2 8.93-5.24 9.56-5.42a2.38 2.38 0 0 1 .8.25l-.29.17a107.68 107.68 0 0 1-9.59 5.81zM11.15 12.41h3.44v6.92a.75.75 0 0 0 .75.75h5a.75.75 0 0 0 .75-.75v-5.94h3.45v5.94a.75.75 0 0 0 .75.75h5.27a.75.75 0 0 0 .75-.74l.06-6.92h3a.75.75 0 0 0 .53-1.29L24.42.66a2.4 2.4 0 0 0-3.32 0L10.62 11.13a.75.75 0 0 0 .53 1.28zm11-10.69a.87.87 0 0 1 1.2 0l9.2 9.15h-2a.75.75 0 0 0-.75.74l-.06 6.92h-3.75v-5.89a.75.75 0 0 0-.75-.77h-4.95a.75.75 0 0 0-.75.75v5.94h-3.45v-6.9a.75.75 0 0 0-.75-.79h-2.38z" fill="#0096e1"/></svg>