<svg xmlns="http://www.w3.org/2000/svg" viewBox="0 0 50 50"><title>depfin icons</title><path d="M45.91 20.42l-21.45-7.6a.75.75 0 0 0-.5 0l-21.45 7.6a.75.75 0 0 0 0 1.41l8.15 2.88v7.8a.75.75 0 0 0 .19.5c.18.2 4.52 4.92 13.36 4.92s13.48-4.7 13.68-4.9a.75.75 0 0 0 .21-.52V24.6l3.49-1.24v4.78a2.5 2.5 0 1 0 1.5 0v-5.31l2.82-1a.75.75 0 0 0 0-1.41zm-3.57 11.1a1 1 0 1 1 1-1 1 1 0 0 1-1 1zm-5.74.67a18.85 18.85 0 0 1-12.39 4.25c-7.15 0-11.16-3.38-12.05-4.23v-7L24 29.43a.75.75 0 0 0 .5 0l12.14-4.3zm-12.39-4.26L5 21.13l19.2-6.8 19.2 6.8z" data-name="Layer 2 copy"/></svg>