<svg id="Слой_1" xmlns="http://www.w3.org/2000/svg" viewBox="0 0 50 50"><style>.st0{fill:#fca805}</style><g id="Layer_2_copy"><path class="st0" d="M25.7 28.4c-5.4 0-9.8-4.4-9.8-9.8s4.4-9.8 9.8-9.8 9.8 4.4 9.8 9.8-4.4 9.8-9.8 9.8zm0-18c-4.6 0-8.2 3.7-8.2 8.2s3.7 8.2 8.2 8.2 8.2-3.7 8.2-8.2-3.6-8.2-8.2-8.2z"/><path class="st0" d="M23.7 22.7c-.2 0-.4-.1-.5-.2l-3.4-3.6c-.3-.3-.3-.8 0-1.1.3-.3.8-.3 1.1 0l3 3.1 7.3-5.8c.3-.3.8-.2 1.1.1s.2.8-.1 1.1l-7.9 6.2c-.3.1-.5.2-.6.2z"/><path class="st0" d="M25.9 33.7c-.8 0-1.6-.3-2.2-.9-.7-.7-2.1-1-3.1-.8-.8.2-1.7.1-2.3-.3-.7-.4-1.2-1-1.5-1.9-.2-.9-1.3-2-2.3-2.3-.8-.2-1.5-.7-1.9-1.5-.4-.7-.5-1.6-.3-2.3.3-.9-.1-2.4-.8-3.1-.6-.6-.9-1.3-.9-2.2 0-.8.3-1.6.9-2.2.7-.7 1-2.1.8-3.1-.2-.8-.1-1.7.3-2.3.4-.7 1-1.2 1.9-1.5 1-.1 2.1-1.1 2.3-2.1.2-.8.7-1.5 1.5-1.9.7-.2 1.6-.3 2.3-.1.9.3 2.4-.1 3.1-.8 1.1-1.1 3.2-1.1 4.4 0 .7.7 2.1 1 3.1.8.8-.2 1.7-.1 2.3.3s1.2 1 1.5 1.9c.2.9 1.3 2 2.3 2.3.8.2 1.5.7 1.9 1.5s.5 1.6.3 2.3c-.3.9.1 2.4.8 3.1.6.6.9 1.3.9 2.2 0 .8-.3 1.6-.9 2.2-.7.7-1 2.1-.8 3.1.2.8.1 1.7-.3 2.3-.4.7-1 1.2-1.9 1.5-.9.2-2 1.3-2.3 2.3-.2.8-.7 1.5-1.5 1.9-.7.4-1.6.5-2.3.3-.9-.3-2.4.1-3.1.8-.6.2-1.4.5-2.2.5zm-4.6-3.3c1.2 0 2.7.5 3.5 1.3.5.6 1.6.6 2.1 0 1-1.1 3.1-1.7 4.6-1.2.4.1.8.1 1.1-.1s.6-.5.7-.9c.4-1.5 1.9-3 3.3-3.3.4-.1.7-.3.9-.7.2-.4.2-.7.1-1.1-.4-1.5.1-3.5 1.2-4.6.3-.3.4-.6.4-1s-.2-.8-.4-1c-1.1-1-1.7-3.1-1.2-4.6.1-.4.1-.8-.1-1.1-.2-.3-.5-.6-.9-.7-1.5-.4-3-1.9-3.3-3.3-.1-.5-.3-.8-.7-1-.3-.2-.7-.2-1.1-.1-1.5.4-3.5-.1-4.6-1.2-.5-.6-1.6-.6-2.1 0l-.5-.8.5.5c-1 1.1-3.1 1.7-4.6 1.2-.4-.1-.8-.1-1.1.1-.4.2-.6.5-.7.9-.4 1.5-1.9 3-3.3 3.3-.4.1-.7.3-.9.7-.2.4-.2.8-.1 1.3.4 1.5-.1 3.5-1.2 4.6-.3.3-.4.6-.4 1s.2.8.4 1c1.1 1 1.7 3.1 1.2 4.6-.1.4-.1.8.1 1.1s.5.6.9.7c1.5.4 3 1.9 3.3 3.3.1.4.3.7.7.9.3.2.7.2 1.1.1.4.1.7.1 1.1.1z"/><path class="st0" d="M19.7 47.6c-.2 0-.4-.1-.6-.3L16 43.5l-5 .2c-.3 0-.5-.1-.7-.3-.1-.2-.2-.5-.1-.7l6.2-14.1c.2-.4.6-.6 1-.4s.5.6.4 1l-5.7 13 4-.2c.2 0 .5.1.6.3l2.6 3.1 5.5-12c.2-.4.6-.5 1-.4.4.2.6.6.4 1l-5.8 13.3c-.1.2-.3.4-.7.3.1 0 .1 0 0 0z"/><path class="st0" d="M32.2 47.6c-.4 0-.6-.2-.7-.4l-5.9-13.4c-.2-.4 0-.8.4-1s.8 0 1 .4l5.4 12.2 2.6-3.1c.1-.2.4-.3.6-.3l4 .2-5.8-13.3c-.2-.4 0-.8.4-1s.8 0 1 .4l6.3 14.4c.1.2.1.5-.1.7-.1.2-.4.3-.7.3l-5-.2-3.1 3.8c0 .2-.2.3-.4.3z"/></g></svg>