<svg xmlns="http://www.w3.org/2000/svg"><symbol id="icon_android" viewBox="240.1 -202.1 430.9 505.1"><path class="st0" d="M271.5-37.4h-1.3c-16.6 0-30.1 13.6-30.1 30.1v131.1c0 16.6 13.5 30.1 30.1 30.1h1.3c16.6 0 30.1-13.6 30.1-30.1V-7.3c.1-16.6-13.5-30.1-30.1-30.1zm44.6 211.8c0 15.2 12.4 27.6 27.7 27.6h29.6v70.8c0 16.6 13.6 30.2 30.1 30.2h1.3c16.6 0 30.2-13.5 30.2-30.2V202h41.3v70.8c0 16.6 13.6 30.2 30.2 30.2h1.3c16.6 0 30.1-13.5 30.1-30.2V202h29.6c15.2 0 27.7-12.4 27.7-27.6v-207h-279v207zM525-158.2l23.5-36.3c1.5-2.3.8-5.4-1.5-6.9s-5.4-.9-6.9 1.5l-24.4 37.5c-18.3-7.5-38.7-11.7-60.2-11.7-21.6 0-41.9 4.2-60.2 11.7L371-199.9c-1.5-2.4-4.6-3-6.9-1.5-2.3 1.5-3 4.6-1.5 6.9l23.5 36.3c-42.4 20.8-71 59.9-71 104.8 0 2.8.2 5.5.4 8.2h280.1c.2-2.7.4-5.4.4-8.2 0-44.8-28.6-84-71-104.8zm-134.3 65c-7.4 0-13.5-6-13.5-13.5s6-13.4 13.5-13.4 13.5 6 13.5 13.4-6.1 13.5-13.5 13.5zm129.8 0c-7.4 0-13.5-6-13.5-13.5s6-13.4 13.5-13.4 13.5 6 13.5 13.4c0 7.5-6 13.5-13.5 13.5zm120.4 55.8h-1.3c-16.6 0-30.2 13.6-30.2 30.1v131.1c0 16.6 13.6 30.1 30.2 30.1h1.3c16.6 0 30.1-13.6 30.1-30.1V-7.3c0-16.6-13.5-30.1-30.1-30.1z"/></symbol><symbol id="icon_angle-arrow-slim" viewBox="0 0 14.39 27"><path stroke-linecap="round" stroke-miterlimit="50" stroke-width="2" d="M1.2 1l12 13-12 12"/></symbol><symbol id="icon_angle-arrow" viewBox="0 0 284.935 284.936"><path d="M222.701 135.9L89.652 2.857C87.748.955 85.557 0 83.084 0c-2.474 0-4.664.955-6.567 2.857L62.244 17.133c-1.906 1.903-2.855 4.089-2.855 6.567 0 2.478.949 4.664 2.855 6.567l112.204 112.204L62.244 254.677c-1.906 1.903-2.855 4.093-2.855 6.564 0 2.477.949 4.667 2.855 6.57l14.274 14.271c1.903 1.905 4.093 2.854 6.567 2.854 2.473 0 4.663-.951 6.567-2.854l133.042-133.044c1.902-1.902 2.854-4.093 2.854-6.567s-.945-4.664-2.847-6.571z"/></symbol><symbol id="icon_apple" viewBox="253.5 -206 416.9 512"><path d="M601.7 66c-.6-64.8 52.9-95.9 55.3-97.5-30.1-44-76.9-50-93.6-50.7-39.9-4-77.8 23.5-98 23.5-20.2 0-51.4-22.9-84.5-22.3-43.5.6-83.5 25.3-105.9 64.2-45.2 78.4-11.6 194.4 32.4 258 21.5 31.1 47.1 66 80.8 64.8 32.4-1.3 44.7-21 83.9-21s50.2 21 84.5 20.3c34.9-.6 57-31.7 78.3-62.9 24.7-36.1 34.9-71 35.5-72.8-.7-.3-68-26.1-68.7-103.6zm-64.4-190.2c17.9-21.7 29.9-51.8 26.6-81.8-25.7 1-56.9 17.1-75.4 38.8-16.6 19.2-31.1 49.8-27.2 79.2 28.8 2.2 58.1-14.6 76-36.2z"/></symbol><symbol id="icon_basket" viewBox="0 0 59 59"><path d="M29.5 51a1 1 0 0 0 1-1V17a1 1 0 1 0-2 0v33a1 1 0 0 0 1 1zm-10 0a1 1 0 0 0 1-1V17a1 1 0 1 0-2 0v33a1 1 0 0 0 1 1zm20 0a1 1 0 0 0 1-1V17a1 1 0 1 0-2 0v33a1 1 0 0 0 1 1z"/><path d="M52.5 6H38.456c-.11-1.25-.495-3.358-1.813-4.711C35.809.434 34.751 0 33.499 0H23.5c-1.252 0-2.31.434-3.144 1.289C19.038 2.642 18.653 4.75 18.543 6H6.5a1 1 0 1 0 0 2h2.041l1.915 46.021C10.493 55.743 11.565 59 15.364 59h28.272c3.799 0 4.871-3.257 4.907-4.958L50.459 8H52.5a1 1 0 1 0 0-2zM21.792 2.681C22.24 2.223 22.799 2 23.5 2h9.999c.701 0 1.26.223 1.708.681.805.823 1.128 2.271 1.24 3.319H20.553c.112-1.048.435-2.496 1.239-3.319zm24.752 51.298C46.538 54.288 46.4 57 43.636 57H15.364c-2.734 0-2.898-2.717-2.909-3.042L10.542 8h37.915l-1.913 45.979z"/></symbol><symbol id="icon_basketball-ball" viewBox="0 0 77.832 77.832"><path d="M38.916 0C17.458 0 0 17.458 0 38.916c0 2.489.245 4.923.693 7.284l-.146.175c.07.059.138.109.208.167 3.555 17.819 19.312 31.29 38.161 31.29 21.458 0 38.916-17.458 38.916-38.916S60.374 0 38.916 0zm33.145 25.249c-.052 12.625-11.312 15.317-16.045 15.888 3.945-13.604 2.821-26.663 1.959-32.572a36.084 36.084 0 0 1 14.086 16.684zM54.559 6.658c.653 3.375 3.119 18.577-1.675 34.318-9.122-2.418-10.416-9.061-12.143-18.104-1.169-6.126-2.491-12.99-6.694-19.474a35.626 35.626 0 0 1 20.512 3.26zM30.764 4.005c4.453 6.291 5.793 13.262 6.973 19.441 1.714 8.979 3.346 17.479 14.175 20.446a54.178 54.178 0 0 1-2.877 6.562c-22.46-10.88-36.241-28.358-39.237-32.423 4.988-6.937 12.389-12.024 20.966-14.026zM8.018 20.751c4.195 5.486 17.939 21.856 39.521 32.371a48.662 48.662 0 0 1-2.789 4.147c-5.908-2.934-11.457-3.388-16.834-3.826-7.44-.607-15.128-1.256-24.354-8.571a35.645 35.645 0 0 1 4.456-24.121zM4.647 49.475c8.612 5.83 15.922 6.438 23.021 7.018 5.113.417 9.972.82 15.12 3.232-4.148 4.854-9.563 9.235-16.591 12.709-10.265-3.909-18.289-12.396-21.55-22.959zm25.672 24.25c6.382-3.564 11.38-7.873 15.283-12.574 1.639.906 4.851 3.021 5.688 6.066.497 1.805.046 3.756-1.312 5.803a35.713 35.713 0 0 1-11.061 1.754 35.889 35.889 0 0 1-8.598-1.049zm23.815-2.351c.507-1.685.552-3.351.101-4.983-1.068-3.863-4.598-6.434-6.729-7.677a51.63 51.63 0 0 0 2.823-4.284 91.708 91.708 0 0 0 17.387 5.82 36.085 36.085 0 0 1-13.582 11.124zm15.423-13.851c-6.373-1.342-12.293-3.354-17.74-5.776a57.098 57.098 0 0 0 3.191-7.446c2.686-.195 10.21-1.199 15.299-6.387a16.162 16.162 0 0 0 3.758-6.096 35.86 35.86 0 0 1 .709 7.098 35.65 35.65 0 0 1-5.217 18.607z"/></symbol><symbol id="icon_briefcase" viewBox="0 0 50 50"><g id="Layer_2_copy"><path d="M24.81 27.57c-13.94 0-20.53-5.64-20.8-5.88a.75.75 0 0 1-.25-.56v-3.08A3.09 3.09 0 0 1 6.84 15h35.93a3.09 3.09 0 0 1 3.09 3.09v3.12a.75.75 0 0 1-.26.57c-.27.22-6.85 5.79-20.79 5.79zM5.25 20.76c1.32 1 7.7 5.31 19.55 5.31S43 21.8 44.36 20.81v-2.76a1.59 1.59 0 0 0-1.59-1.59H6.84a1.59 1.59 0 0 0-1.59 1.59z"/><path d="M42.77 42.33H6.84c-1.49 0-3.09-1.11-3.09-4.22v-14A.75.75 0 0 1 5 23.5c.06.05 6.18 5.09 19.82 5.09s19.77-4.8 19.83-4.85a.75.75 0 0 1 1.22.58v14.92a3.09 3.09 0 0 1-3.1 3.09zM5.25 25.51v12.6c0 .82.16 2.72 1.59 2.72h35.93a1.59 1.59 0 0 0 1.59-1.59V25.72c-2.46 1.47-8.69 4.36-19.55 4.36S7.72 27.05 5.25 25.51zm27.81-9.39a.75.75 0 0 1-.75-.75v-2.45a1.76 1.76 0 0 0-1.76-1.76H19.07a1.76 1.76 0 0 0-1.76 1.76v2.45a.75.75 0 0 1-1.5 0v-2.45a3.26 3.26 0 0 1 3.26-3.26h11.48a3.26 3.26 0 0 1 3.26 3.26v2.45a.75.75 0 0 1-.75.75z"/><path d="M27.47 32.76h-5.33A1.75 1.75 0 0 1 20.39 31v-1.35a.75.75 0 0 1 1.5 0V31a.25.25 0 0 0 .25.25h5.33a.25.25 0 0 0 .25-.25v-1.35a.75.75 0 0 1 1.5 0V31a1.75 1.75 0 0 1-1.75 1.76z"/></g></symbol><symbol id="icon_burger" viewBox="0 0 32 25"><rect width="32" height="3" rx="1.5" ry="1.5"/><rect y="10.97" width="32" height="3" rx="1.5" ry="1.5"/><rect y="22" width="32" height="3" rx="1.5" ry="1.5"/></symbol><symbol id="icon_calc" viewBox="35.1 -32.1 152.8 165.5"><g id="Layer_2"><path class="st0" d="M184.9 133.4H38.1c-1.7 0-3-1.3-3-3V-29.1c0-1.7 1.3-3 3-3h146.8c1.7 0 3 1.3 3 3v159.5c0 1.6-1.3 3-3 3zm-145.8-4h144.8V-28.1H39.1v157.5z"/><path class="st0" d="M170.3 27.6H52.8c-1.7 0-3-1.3-3-3v-37.9c0-1.7 1.3-3 3-3h117.5c1.7 0 3 1.3 3 3v37.9c0 1.7-1.4 3-3 3zm-116.6-4h115.5v-35.9H53.8l-.1 35.9zm17.1 37.9h-7.3c-3.4 0-6.2-2.8-6.2-6.2V48c0-3.4 2.8-6.2 6.2-6.2h7.3c3.4 0 6.2 2.8 6.2 6.2v7.3c0 3.4-2.8 6.2-6.2 6.2zm-7.3-15.6c-1.2 0-2.1.9-2.2 2.1v7.3c0 1.2 1 2.2 2.2 2.2h7.3c1.2 0 2.2-1 2.2-2.2V48c0-1.2-1-2.2-2.2-2.2l-7.3.1zm36.9 15.6h-7.3c-3.4 0-6.2-2.8-6.2-6.2V48c0-3.4 2.8-6.2 6.2-6.2h7.3c3.4 0 6.2 2.8 6.2 6.2v7.3c-.1 3.4-2.8 6.2-6.2 6.2zm-7.3-15.6c-1.2 0-2.1.9-2.2 2.1v7.3c0 1.2 1 2.2 2.2 2.2h7.3c1.2 0 2.2-1 2.2-2.2V48c0-1.2-1-2.2-2.2-2.2l-7.3.1zm36.8 15.6h-7.3c-3.4 0-6.2-2.8-6.2-6.2V48c0-3.4 2.8-6.2 6.2-6.2h7.3c3.4 0 6.2 2.8 6.2 6.2v7.3c0 3.4-2.7 6.2-6.2 6.2.1 0 .1 0 0 0zm-7.3-15.6c-1.2 0-2.1.9-2.2 2.1v7.3c0 1.2 1 2.2 2.2 2.2h7.3c1.2 0 2.2-1 2.2-2.2V48c0-1.2-1-2.2-2.2-2.2l-7.3.1zm36.9 15.6h-7.3c-3.4 0-6.2-2.8-6.2-6.2V48c0-3.4 2.8-6.2 6.2-6.2h7.3c3.4 0 6.2 2.8 6.2 6.2v7.3c0 3.4-2.7 6.2-6.2 6.2zm-7.3-15.6c-1.2 0-2.1.9-2.2 2.1v7.3c0 1.2 1 2.2 2.2 2.2h7.3c1.2 0 2.2-1 2.2-2.2V48c0-1.2-1-2.2-2.2-2.2l-7.3.1zM70.8 89.2h-7.3c-3.4 0-6.2-2.8-6.2-6.2v-7.3c0-3.4 2.8-6.2 6.2-6.2h7.3c3.4 0 6.2 2.8 6.2 6.2V83c-.1 3.5-2.8 6.2-6.2 6.2zm-7.3-15.6c-1.2 0-2.2 1-2.2 2.2v7.3c0 1.2 1 2.2 2.2 2.2h7.3c1.2 0 2.2-1 2.2-2.2v-7.3c0-1.2-1-2.2-2.2-2.2h-7.3zm36.9 15.6h-7.3c-3.4 0-6.2-2.8-6.2-6.2v-7.3c0-3.4 2.8-6.2 6.2-6.2h7.3c3.4 0 6.2 2.8 6.2 6.2V83c-.1 3.5-2.8 6.2-6.2 6.2zm-7.3-15.6c-1.2 0-2.2 1-2.2 2.2v7.3c0 1.2 1 2.2 2.2 2.2h7.3c1.2 0 2.2-1 2.2-2.2v-7.3c0-1.2-1-2.2-2.2-2.2h-7.3zm36.8 15.6h-7.3c-3.4 0-6.2-2.8-6.2-6.2v-7.3c0-3.4 2.8-6.2 6.2-6.2h7.3c3.4 0 6.2 2.8 6.2 6.2V83c0 3.5-2.8 6.2-6.2 6.2zm-7.3-15.6c-1.2 0-2.2 1-2.2 2.2v7.3c0 1.2 1 2.2 2.2 2.2h7.3c1.2 0 2.2-1 2.2-2.2v-7.3c0-1.2-1-2.2-2.2-2.2h-7.3zm36.9 43.4h-7.3c-3.4 0-6.2-2.8-6.2-6.2v-35c0-3.4 2.8-6.2 6.2-6.2h7.3c3.4 0 6.2 2.8 6.2 6.2v35c0 3.4-2.8 6.2-6.2 6.2zm-7.3-43.3c-1.2 0-2.2 1-2.2 2.2v35c0 1.2 1 2.2 2.2 2.2h7.3c1.2 0 2.2-1 2.2-2.2v-35c0-1.2-1-2.2-2.2-2.2h-7.3zM70.8 117h-7.3c-3.4 0-6.2-2.8-6.2-6.2v-7.3c0-3.4 2.8-6.2 6.2-6.2h7.3c3.4 0 6.2 2.8 6.2 6.2v7.3c-.1 3.4-2.8 6.2-6.2 6.2zm-7.3-15.6c-1.2 0-2.2 1-2.2 2.2v7.3c0 1.2 1 2.2 2.2 2.2h7.3c1.2 0 2.2-1 2.2-2.2v-7.3c0-1.2-1-2.2-2.2-2.2h-7.3zm36.9 15.6h-7.3c-3.4 0-6.2-2.8-6.2-6.2v-7.3c0-3.4 2.8-6.2 6.2-6.2h7.3c3.4 0 6.2 2.8 6.2 6.2v7.3c-.1 3.4-2.8 6.2-6.2 6.2zm-7.3-15.6c-1.2 0-2.2 1-2.2 2.2v7.3c0 1.2 1 2.2 2.2 2.2h7.3c1.2 0 2.2-1 2.2-2.2v-7.3c0-1.2-1-2.2-2.2-2.2h-7.3zm36.8 15.6h-7.3c-3.4 0-6.2-2.8-6.2-6.2v-7.3c0-3.4 2.8-6.2 6.2-6.2h7.3c3.4 0 6.2 2.8 6.2 6.2v7.3c0 3.4-2.8 6.2-6.2 6.2zm-7.3-15.6c-1.2 0-2.2 1-2.2 2.2v7.3c0 1.2 1 2.2 2.2 2.2h7.3c1.2 0 2.2-1 2.2-2.2v-7.3c0-1.2-1-2.2-2.2-2.2h-7.3z"/></g></symbol><symbol id="icon_calendar" viewBox="0 0 14 15"><path d="M.04 7.02v6.8C.04 14.48.56 15 1.2 15h10.6c.64 0 1.17-.53 1.17-1.17V7zm4.2 7.1H1l-.02-2.54 3.25.05zm-.03-3.29H.98L1 8.04h3.23zm.66 3.3l-.06-2.53 3.3-.02v2.54zm3.28-3.24l-3.32.02.04-2.87h3.24l.06 2.67zm3.83 3.23H8.75l.02-2.52 3.19.03zm.02-3.29H8.77l-.02-2.79h3.23zm1-4.48l-.04-2.6c0-.65-.52-1.35-1.17-1.35L10 2.38l-.05-.79a.6.6 0 0 0-.6-.6.6.6 0 0 0-.61.6v1l-.02-.2H3.96l-.02-.8a.6.6 0 0 0-.6-.6.6.6 0 0 0-.61.6l-.02.82-1.53.04C.53 2.45 0 3.12 0 3.76V6.4zm-9.66-.98a1.2 1.2 0 0 1-1.2-1.19c0-.44.24-.82.6-1.03v1.03c0 .33.27.6.6.6a.6.6 0 0 0 .6-.6V3.15c.37.2.61.59.61 1.03 0 .66-.54 1.2-1.2 1.2zm6.02 0a1.19 1.19 0 1 1-.6-2.22v1.03c0 .33.27.6.6.6a.6.6 0 0 0 .6-.6V3.15c.37.2.61.59.61 1.03 0 .66-.54 1.2-1.2 1.2z"/></symbol><symbol id="icon_cancel" viewBox="0 0 212.982 212.982"><path d="M131.804 106.491l75.936-75.936c6.99-6.99 6.99-18.323 0-25.312-6.99-6.99-18.322-6.99-25.312 0L106.491 81.18 30.554 5.242c-6.99-6.99-18.322-6.99-25.312 0-6.989 6.99-6.989 18.323 0 25.312l75.937 75.936-75.937 75.937c-6.989 6.99-6.989 18.323 0 25.312 6.99 6.99 18.322 6.99 25.312 0l75.937-75.937 75.937 75.937c6.989 6.99 18.322 6.99 25.312 0 6.99-6.99 6.99-18.322 0-25.312l-75.936-75.936z" fill-rule="evenodd" clip-rule="evenodd" id="Close"/></symbol><symbol id="icon_car" viewBox="0 0 50 50"><g id="Layer_2_copy"><path d="M45.17 23.7a3 3 0 0 0-1.46-5.54h-2.42l-1.65-4.64a5.5 5.5 0 0 0-5.18-3.65H15.54a5.5 5.5 0 0 0-5.18 3.65l-1.65 4.64H6.29a3 3 0 0 0-1.46 5.54 3.15 3.15 0 0 0-1.44 2.64v10.32a2.72 2.72 0 0 0 2 2.61v2.9A2.61 2.61 0 0 0 8 44.78h2.36a2.61 2.61 0 0 0 2.61-2.61v-2.8h24.09v2.8a2.61 2.61 0 0 0 2.61 2.61H42a2.61 2.61 0 0 0 2.61-2.61v-2.9a2.72 2.72 0 0 0 2-2.61V26.34a3.15 3.15 0 0 0-1.44-2.64zM11.77 14a4 4 0 0 1 3.76-2.66h18.93A4 4 0 0 1 38.23 14l1.54 4.33a.74.74 0 0 0 0 .33l.35 1.2a1 1 0 0 1-.93 1.24H10.61a1 1 0 0 1-.91-1.3l.24-.64zm-.33 28.15a1.11 1.11 0 0 1-1.11 1.11H8a1.11 1.11 0 0 1-1.11-1.11v-2.8h4.58zM42 43.28h-2.33a1.11 1.11 0 0 1-1.11-1.11v-2.8h4.58v2.8A1.11 1.11 0 0 1 42 43.28zm3.07-6.62a1.22 1.22 0 0 1-1.22 1.22H6.11a1.22 1.22 0 0 1-1.22-1.22V26.34a1.65 1.65 0 0 1 1.65-1.64.75.75 0 0 0 .75-.75v-.61a.75.75 0 0 0-.75-.75h-.25a1.46 1.46 0 0 1 0-2.92h1.92a2.44 2.44 0 0 0 2.4 3H39.2a2.44 2.44 0 0 0 2.4-3h2.1a1.46 1.46 0 1 1 0 2.92h-.25a.75.75 0 0 0-.75.75v.61a.75.75 0 0 0 .75.75 1.65 1.65 0 0 1 1.65 1.65z"/><path d="M10.62 26.51a3 3 0 1 0 3 3 3 3 0 0 0-3-3zm0 4.49a1.49 1.49 0 1 1 1.49-1.49A1.5 1.5 0 0 1 10.62 31zm29.26-4.49a3 3 0 1 0 3 3 3 3 0 0 0-3-3zm0 4.49a1.49 1.49 0 1 1 1.49-1.49A1.5 1.5 0 0 1 39.88 31zm-8.21 0H18.33a.75.75 0 0 0-.75.75v3.39a.75.75 0 0 0 .75.75h13.34a.75.75 0 0 0 .75-.75v-3.39a.75.75 0 0 0-.75-.75zm-.75 3.39H19.08V32.5h11.84z"/></g></symbol><symbol id="icon_caret" viewBox="0 0 11 6"><path stroke-linecap="round" stroke-miterlimit="10" d="M.5.5l5 5m5-5l-5 5"/></symbol><symbol id="icon_check-mark" viewBox="0 0 26 26"><path d="M.3 14c-.2-.2-.3-.5-.3-.7s.1-.5.3-.7l1.4-1.4c.4-.4 1-.4 1.4 0l.1.1 5.5 5.9c.2.2.5.2.7 0L22.8 3.3h.1c.4-.4 1-.4 1.4 0l1.4 1.4c.4.4.4 1 0 1.4l-16 16.6c-.2.2-.4.3-.7.3-.3 0-.5-.1-.7-.3L.5 14.3.3 14z"/></symbol><symbol id="icon_clean" viewBox="-37.8 37.1 17.7 27.5"><path class="st0" d="M-22.3 52.7l.6-1.5c.1-.1.1-.3 0-.4l-.6-1.4c-.1-.2-.3-.3-.5-.3h-2.8c.3-1.6-.5-3.1-1.9-3.8v-6.8c-.2-1-1.1-1.6-2-1.4-.7.1-1.3.7-1.4 1.4v6.8c-1.4.7-2.2 2.2-1.9 3.8h-2.7c-.2 0-.3.1-.4.2l-.8 1.4c-.1.1-.1.3 0 .5l.7 1.5-1.8 11.4c0 .3.1.5.4.6h10.6c.2 0 .4-.1.5-.3l1.2-2.7 1.2 2.7c.1.2.3.3.5.3h2.9c.3 0 .5-.2.5-.5v-.1l-2.3-11.4zM-30 38.5c0-.4.4-.7.8-.7s.6.3.7.7V45c-.5-.1-1-.1-1.5 0v-6.5zm-1.2 8.2c1.1-1.1 2.8-1.1 3.9 0 .7.6.9 1.6.8 2.5h-5.3c-.3-.9-.1-1.9.6-2.5zm-4.1 3.4h12.2l.4.9-.5 1.1h-12.1l-.6-1.1.6-.9zm12.1 13.5l-1.5-3.4c-.1-.3-.5-.3-.7-.2-.1 0-.2.1-.2.2l-1.5 3.4h-9.6l1.6-10.5h11.9l2.1 10.5h-2.1z" id="Layer_2"/></symbol><symbol id="icon_close" viewBox="0 0 23.51 23.51"><path d="M13.87 11.75l9.19-9.19A1.5 1.5 0 1 0 20.95.44l-9.2 9.19L2.56.44A1.5 1.5 0 0 0 .44 2.56l9.19 9.19-9.19 9.2a1.5 1.5 0 0 0 2.12 2.12l9.19-9.19 9.19 9.19a1.5 1.5 0 1 0 2.12-2.12z"/></symbol><symbol id="icon_crane" viewBox="0 0 50 50"><path d="M47.24 16.34l-6.05-6a.75.75 0 0 0-.53-.22H17.32L14.21 3.3a.82.82 0 0 0-.69-.44.75.75 0 0 0-.68.46l-2.63 6.17h-.15V8a.75.75 0 0 0-.75-.75H2.85A.75.75 0 0 0 2.1 8v8.92a.75.75 0 0 0 .75.75h1.62v3.65a.75.75 0 0 0 .75.75h4.49V46H3.5a.75.75 0 0 0 0 1.5h20a.75.75 0 1 0 0-1.5h-5.8V17.46l15.52.09v1.94a.75.75 0 0 0 .75.75h.8v6.28l-3.56 3.79a.75.75 0 0 0-.2.51v4a.75.75 0 0 0 .75.75h3.44a.73.73 0 0 0 .33-.08.73.73 0 0 0 .33.08h3.44a.75.75 0 0 0 .75-.75v-4a.75.75 0 0 0-.2-.51l-3.56-3.79v-6.28h.8a.75.75 0 0 0 .75-.75v-1.92h8.82a.75.75 0 0 0 .53-1.28zM38.6 31.12v3h-2.69a.73.73 0 0 0-.33.08.73.73 0 0 0-.33-.08h-2.68v-3l3-3.21zM26.31 16l3.95-4.36 4.21 4.41zM11.7 41.18h4.56v4.19zM4.83 15.55L9.29 11h.11a.73.73 0 0 0 .56.62v3.94zM11 12l3.79 3.51H11zm1-.4h3.27v3zm2.75 4.91L11 20.11v-3.56zm1.5 23.63H12L16.26 37zm-.63-3.91l-4.42 3.28v-3.24zm-4.42-1v-3.16l4.19 3.21zm.73-3.91h4.32v3.31zm0-1l4.3-3.22v3.22zm-.75-.69v-3.18h4.3zm0-4.22v-3l4.24 3zm5-.65l-4.24-3h4.24zm-4.53-4l4.24-4H16a.73.73 0 0 0 .23 0v4zm5-9.12h2.37l-2.37 2.76zm8.46 4.06l-3.49-4.06h7.16zm6.44-4.06h7.62l-3.72 4.08zm-18-6.17l2 4.37a.74.74 0 0 0-.21.3h-3.78zm-5 3.23v1.54l-5 5.1V8.7zM6 20.51v-3.64a.74.74 0 0 0-.08-.32H10v4zm5.24 21.58L15.45 46h-4.24zM17 16a.74.74 0 0 0-.23 0v-.06l3.67-4.28L24.17 16zm19.38 2.78h-1.6v-1.23h1.61zm.84-2.67h-.6l3.89-4.26 4.37 4.31z" id="Layer_2_copy"/></symbol><symbol id="icon_cross" viewBox="-34.8 38.8 22.4 21.9"><path class="st0" d="M-13.5 58.1l-1.4 1.4-8.7-8.7-9 9-1.4-1.4 8.6-8.6-8.6-8.6 1.4-1.4 8.7 8.7 9.1-9.1 1.4 1.4-8.6 8.6 8.5 8.7z"/></symbol><symbol id="icon_darts" viewBox="0 0 50 50"><g id="Layer_2_copy"><path d="M25.21 44.26a19.18 19.18 0 1 1 19.18-19.18 19.2 19.2 0 0 1-19.18 19.18zm0-36.86a17.68 17.68 0 1 0 17.68 17.68A17.7 17.7 0 0 0 25.21 7.39z"/><path d="M25.21 37.4a12.32 12.32 0 1 1 12.32-12.32A12.34 12.34 0 0 1 25.21 37.4zm0-23.14A10.82 10.82 0 1 0 36 25.08a10.83 10.83 0 0 0-10.79-10.83z"/><path d="M25.21 30.31a5.24 5.24 0 1 1 5.24-5.24 5.24 5.24 0 0 1-5.24 5.24zm0-9a3.74 3.74 0 1 0 3.74 3.74 3.74 3.74 0 0 0-3.74-3.71z"/></g></symbol><symbol id="icon_delete" viewBox="0 0 348.333 348.334"><path d="M336.559 68.611L231.016 174.165l105.543 105.549c15.699 15.705 15.699 41.145 0 56.85-7.844 7.844-18.128 11.769-28.407 11.769-10.296 0-20.581-3.919-28.419-11.769L174.167 231.003 68.609 336.563c-7.843 7.844-18.128 11.769-28.416 11.769-10.285 0-20.563-3.919-28.413-11.769-15.699-15.698-15.699-41.139 0-56.85l105.54-105.549L11.774 68.611c-15.699-15.699-15.699-41.145 0-56.844 15.696-15.687 41.127-15.687 56.829 0l105.563 105.554L279.721 11.767c15.705-15.687 41.139-15.687 56.832 0 15.705 15.699 15.705 41.145.006 56.844z"/></symbol><symbol id="icon_depfin-icons-27" viewBox="0 0 50 50"><g id="Layer_2_copy"><path d="M25.7 28.3c-5.2 0-9.4-4.2-9.4-9.4s4.2-9.4 9.4-9.4 9.4 4.2 9.4 9.4-4.2 9.4-9.4 9.4zm0-17.4c-4.4 0-7.9 3.6-7.9 7.9s3.6 7.9 7.9 7.9 7.9-3.6 7.9-7.9-3.5-7.9-7.9-7.9z"/><path d="M23.8 22.8c-.2 0-.4-.1-.5-.2L20 19.1c-.3-.3-.3-.8 0-1.1.3-.3.8-.3 1.1 0l2.9 3 7-5.6c.3-.3.8-.2 1.1.1.3.3.2.8-.1 1.1l-7.6 6c-.3.1-.5.2-.6.2z"/><path d="M25.9 33.4c-.8 0-1.5-.3-2.1-.9-.7-.7-2-1-3-.8-.8.2-1.6.1-2.2-.3-.7-.4-1.2-1-1.4-1.8-.2-.9-1.3-1.9-2.2-2.2-.8-.2-1.4-.7-1.8-1.4-.4-.7-.5-1.5-.3-2.2.3-.9-.1-2.3-.8-3-.6-.6-.9-1.3-.9-2.1s.3-1.5.9-2.1c.7-.7 1-2 .8-3-.2-.8-.1-1.6.3-2.2.4-.7 1-1.2 1.8-1.4 1-.1 2-1.1 2.2-2 .2-.8.7-1.4 1.4-1.8.7-.4 1.5-.5 2.2-.3.9.3 2.3-.1 3-.8C24.9 4 26.9 4 28 5.1c.7.7 2 1 3 .8.8-.2 1.6-.1 2.2.3s1.2 1 1.4 1.8c.2.9 1.3 1.9 2.2 2.2.8.2 1.4.7 1.8 1.4.4.7.5 1.5.3 2.2-.3.9.1 2.3.8 3 .6.6.9 1.3.9 2.1s-.3 1.5-.9 2.1c-.7.7-1 2-.8 3 .2.8.1 1.6-.3 2.2-.4.7-1 1.2-1.8 1.4-.9.2-1.9 1.3-2.2 2.2-.2.8-.7 1.4-1.4 1.8-.7.4-1.5.5-2.2.3-.9-.3-2.3.1-3 .8-.6.4-1.3.7-2.1.7zm-4.4-3.2c1.2 0 2.6.5 3.4 1.3.5.6 1.5.6 2 0 1-1.1 3-1.6 4.4-1.2.4.1.8.1 1.1-.1s.6-.5.7-.9c.4-1.4 1.8-2.9 3.2-3.2.4-.1.7-.3.9-.7s.2-.7.1-1.1c-.4-1.4.1-3.4 1.2-4.4.3-.3.4-.6.4-1s-.2-.8-.4-1c-1.1-1-1.6-3-1.2-4.4.1-.4.1-.8-.1-1.1-.2-.3-.5-.6-.9-.7-1.4-.4-2.9-1.8-3.2-3.2-.1-.5-.3-.8-.7-1-.3-.2-.7-.2-1.1-.1-1.4.4-3.4-.1-4.4-1.2-.5-.6-1.5-.6-2 0l-.5-.5.5.5c-1 1.1-3 1.6-4.4 1.2-.4-.1-.8-.1-1.1.1-.4.2-.6.5-.7.9-.4 1.4-1.8 2.9-3.2 3.2-.4.1-.7.3-.9.7-.2.3-.2.7-.1 1.1.4 1.4-.1 3.4-1.2 4.4-.3.3-.4.6-.4 1s.2.8.4 1c1.1 1 1.6 3 1.2 4.4-.1.4-.1.8.1 1.1s.5.6.9.7c1.4.4 2.9 1.8 3.2 3.2.1.4.3.7.7.9.3.2.7.2 1.1.1h1z"/><path d="M19.9 46.8c-.2 0-.4-.1-.6-.3l-3-3.7-4.8.2c-.3 0-.5-.1-.7-.3-.1-.2-.2-.5-.1-.7l6-13.6c.2-.4.6-.6 1-.4.4.2.5.6.4 1l-5.5 12.5 3.9-.2c.2 0 .5.1.6.3l2.5 3L24.9 33c.2-.4.6-.5 1-.4.4.2.6.6.4 1l-5.6 12.8c-.1.2-.3.4-.6.4h-.2z"/><path d="M32 46.8h-.1c-.3 0-.5-.2-.6-.4l-5.7-12.9c-.2-.4 0-.8.4-1 .4-.2.8 0 1 .4l5.2 11.8 2.5-3c.1-.2.4-.3.6-.3l3.9.2-5.6-12.8c-.2-.4 0-.8.4-1 .4-.2.8 0 1 .4l6.1 13.9c.1.2.1.5-.1.7-.1.2-.4.3-.7.3l-4.8-.2-3 3.7c-.1.1-.3.2-.5.2z"/></g></symbol><symbol id="icon_depfin-icons-28" viewBox="0 0 50 50"><path d="M42.7 17.8H7.4c-.4 0-.8-.3-.8-.8s.3-.8.8-.8h35.4c.4 0 .8.3.8.8s-.4.8-.9.8zm-1.8 20.6H9.2c-.4 0-.8-.3-.8-.8s.3-.8.8-.8H41c.4 0 .8.3.8.8s-.4.8-.9.8zM42.8 15H7.3c-.3 0-.6-.2-.7-.6-.1-.3.1-.7.4-.8l17.8-9.2c.2-.1.5-.1.7 0l17.8 9.2c.3.2.5.5.4.8-.2.4-.5.6-.9.6zm-32.4-1.5h29.4L25 5.9l-14.6 7.6zm31.4 31.4H8.3c-1 0-1.8-.8-1.8-1.8v-1.6c0-1 .8-1.8 1.8-1.8h33.6c1 0 1.8.8 1.8 1.8v1.6c-.1 1-.9 1.8-1.9 1.8zM8.3 41.3c-.1 0-.2.1-.2.2v1.6c0 .1.1.2.2.2h33.6c.1 0 .2-.1.2-.2v-1.6c0-.1-.1-.2-.2-.2H8.3zm2.6-5.7c-.4 0-.8-.3-.8-.8V20c0-.4.3-.8.8-.8s.8.3.8.8v14.8c0 .4-.4.8-.8.8zm5.5 0c-.4 0-.7-.3-.7-.8V20c0-.4.3-.8.7-.8.4 0 .8.3.8.8v14.8c-.1.4-.4.8-.8.8zm5.9 0c-.4 0-.8-.3-.8-.8V20c0-.4.3-.8.8-.8s.8.3.8.8v14.8c0 .4-.4.8-.8.8zm5.5 0c-.4 0-.8-.3-.8-.8V20c0-.4.3-.8.8-.8s.8.3.8.8v14.8c-.1.4-.4.8-.8.8zm5.9 0c-.4 0-.8-.3-.8-.8V20c0-.4.3-.8.8-.8s.8.3.8.8v14.8c0 .4-.4.8-.8.8zm5.2 0c-.4 0-.8-.3-.8-.8V20c0-.4.3-.8.8-.8s.8.3.8.8v14.8c-.1.4-.4.8-.8.8z" id="Layer_2_copy"/></symbol><symbol id="icon_depfin-icons-29" viewBox="0 0 50 50"><g id="Layer_2_copy"><path d="M26.3 46.1h-3.2c-.1 0-.2 0-.3-.1-2.4-.1-5.3-.4-7.9-1.3-5.1-1.7-7.7-5-7.7-9.8 0-13.1 11.5-21.9 12-22.3.1-.1.3-.2.5-.2h10.6c.2 0 .3.1.5.2.5.4 12 9.2 12 22.3 0 4.8-2.6 8.2-7.7 9.8-2.6.9-5.4 1.2-7.9 1.3-.1 0-.2.1-.3.1h-.6zM19.9 14c-1.5 1.2-11.2 9.5-11.2 20.9 0 4.2 2.2 6.9 6.7 8.4 3.2 1 6.8 1.2 9.5 1.3 2.7 0 6.3-.2 9.5-1.3 4.5-1.5 6.7-4.2 6.7-8.4 0-11.5-9.7-19.7-11.2-20.9h-10z"/><path d="M19.7 14c-.2 0-.4-.1-.6-.3-.1-.1-2.6-3.1-3.6-4.4-.7-.9-.8-2-.3-2.9.4-.7 1.2-1.1 2.1-.9 1.5.2 2.9.5 3.7.7.2-.1.6-.4.9-.7.9-.7 2-1.5 3.1-1.5 1.2 0 2.2.7 3.2 1.3.4.3.9.6 1.2.7.5-.1 2.2-.2 3.2-.5 1-.2 2 .1 2.5.9.5.7.5 1.6-.1 2.5-1 1.6-4.1 4.8-4.3 4.9-.3.3-.8.3-1.1 0-.3-.3-.3-.8 0-1.1 0 0 3.2-3.2 4.1-4.7.3-.2.4-.5.3-.8-.1-.2-.5-.4-1-.3-1.3.3-3.4.5-3.5.5h-.3c-.6-.1-1.2-.5-1.8-.9-.8-.5-1.7-1-2.4-1-.6 0-1.5.7-2.1 1.2-.8.6-1.5 1.1-2.1 1-.8-.3-2.2-.5-3.6-.7-.2 0-.5 0-.7.2-.1.2-.1.7.2 1.2.9 1.3 3.5 4.3 3.5 4.3.3.3.2.8-.1 1.1-.1.1-.3.2-.4.2z"/><path d="M32.1 23.2c-.4 0-.7-.3-.7-.7-.2-3.4-1.8-6.7-2.6-8.1-.8.9-2.1 2.5-2.2 4.3 0 .4-.4.7-.8.7s-.7-.4-.7-.8c.3-3.3 3.3-5.9 3.4-6 .2-.1.4-.2.6-.2.2 0 .4.1.5.3.1.2 3.1 4.6 3.4 9.6-.1.6-.4.9-.9.9.1 0 .1 0 0 0z"/></g></symbol><symbol id="icon_depfin-icons-30" viewBox="0 0 50 50"><g id="Layer_2_copy"><path d="M8.1 29c-.4 0-.8-.3-.8-.8v-4.4c0-.4.3-.8.8-.8s.8.3.8.8v4.4c-.1.4-.4.8-.8.8z"/><path d="M42.9 41.9H9.1c-1 0-1.8-.8-1.8-1.8v-4.8c0-.4.3-.8.8-.8s.8.3.8.8v4.8c0 .1.1.2.2.2H43c.1 0 .2-.1.2-.2v-29c0-.1-.1-.2-.2-.2H9.1c-.1 0-.2.1-.2.2V17c0 .4-.3.8-.8.8s-.8-.4-.8-.8v-5.9c0-1 .8-1.8 1.8-1.8H43c1 0 1.8.8 1.8 1.8v29c-.1 1-.9 1.8-1.9 1.8z"/><path d="M10.5 24.5H5.7c-1 0-1.8-.8-1.8-1.8V18c0-1 .8-1.8 1.8-1.8h4.8c1 0 1.8.8 1.8 1.8v4.8c-.1.9-.9 1.7-1.8 1.7zm-4.8-6.7c-.1 0-.2.1-.2.2v4.8c0 .1.1.2.2.2h4.8c.1 0 .2-.1.2-.2V18c0-.1-.1-.2-.2-.2H5.7zm4.8 17.9H5.7c-1 0-1.8-.8-1.8-1.8v-4.8c0-1 .8-1.8 1.8-1.8h4.8c1 0 1.8.8 1.8 1.8V34c-.1.9-.9 1.7-1.8 1.7zM5.7 29c-.1 0-.2.1-.2.2V34c0 .1.1.2.2.2h4.8c.1 0 .2-.1.2-.2v-4.8c0-.1-.1-.2-.2-.2H5.7zm20.4 3.4c-3.6 0-6.6-3-6.6-6.6s3-6.6 6.6-6.6c3.6 0 6.6 3 6.6 6.6s-2.9 6.6-6.6 6.6zm0-11.7c-2.8 0-5.1 2.3-5.1 5.1s2.3 5.1 5.1 5.1 5.1-2.3 5.1-5.1-2.2-5.1-5.1-5.1zm11.4 5.6c-.4 0-.8-.3-.8-.8V19c0-.4.3-.8.8-.8s.8.3.8.8v6.6c0 .4-.4.7-.8.7z"/></g></symbol><symbol id="icon_diagram-wave" viewBox="0 0 18.19 53.59"><g id="Слой_2"><g id="Layer_1"><path class="cls-1" d="M.5 26.8c0 6.48 4.58 7.62 4.58 13.53S.5 45.47.5 53.09h12.61c0-7.62 4.58-6.86 4.58-12.77s-4.58-7.05-4.58-13.53"/><path class="cls-1" d="M13.11 26.8c0-7.62 4.58-6.86 4.58-12.77S13.11 7 13.11.5H.5C.5 7 5.08 8.12 5.08 14S.5 19.17.5 26.8h.36"/></g></g></symbol><symbol id="icon_download" viewBox="0 0 18 18"><path d="M0 18v-2h18v2zM8 0h2v7h2.97c.76 0 1.23.8.25 1.8L9.02 13S6.78 10.86 5 8.98C4.06 8 4.32 7 5.25 7H8z"/></symbol><symbol id="icon_facebook-box" viewBox="-34 42 18 18"><path d="M-32 42h14c1.1 0 2 .9 2 2v14c0 1.1-.9 2-2 2h-14c-1.1 0-2-.9-2-2V44c0-1.1.9-2 2-2m13 2h-2.5c-1.9 0-3.5 1.6-3.5 3.5V50h-2v3h2v7h3v-7h3v-3h-3v-2c0-.6.4-1 1-1h2v-3z"/></symbol><symbol id="icon_favor-classic" viewBox="0 0 55.867 55.867"><path d="M55.818 21.578a1.002 1.002 0 0 0-.808-.681l-18.09-2.629-8.09-16.392a.998.998 0 0 0-1.792 0l-8.091 16.393-18.09 2.629a1.002 1.002 0 0 0-.555 1.705l13.091 12.76-3.091 18.018c-.064.375.09.754.397.978a.992.992 0 0 0 1.053.076l16.182-8.506 16.18 8.506a1 1 0 0 0 1.451-1.054l-3.09-18.017 13.091-12.761c.272-.267.37-.664.252-1.025z"/></symbol><symbol id="icon_favor" viewBox="0 0 18 16"><path d="M9 0l3.2 4.21 4.81 1.9-2.83 4.5-.23 5.39L9 14.57 4.05 16l-.23-5.39L1 6.11l4.8-1.9z"/></symbol><symbol id="icon_fb" viewBox="0 0 10.27 19"><path d="M9.89 0H7.42a4.33 4.33 0 0 0-4.56 4.68v2.15H.39a.39.39 0 0 0-.39.39v3.12a.39.39 0 0 0 .39.39h2.47v7.88a.39.39 0 0 0 .39.39h3.23a.39.39 0 0 0 .39-.39v-7.88h2.9a.39.39 0 0 0 .39-.39V7.22a.39.39 0 0 0-.16-.27.39.39 0 0 0-.27-.11H6.87V5c0-.88.21-1.32 1.35-1.32h1.67a.39.39 0 0 0 .39-.39V.39A.39.39 0 0 0 9.89 0zm0 0"/></symbol><symbol id="icon_football-player" viewBox="0 0 512 640"><path d="M427.7 260.6L334 179.3c-1-.8-2.1-1.6-3.2-2.2l-56.2-31.2c-2.8-1.6-5.9-2.4-9.1-2.4H152.9c-10.4 0-18.7 8.4-18.7 18.7 0 10.4 8.4 18.7 18.7 18.7h89.2l-77 135.7c-5.1 9-1.9 20.5 7.1 25.6 2.9 1.6 6.1 2.4 9.2 2.4 6.5 0 12.9-3.4 16.3-9.5l31.6-55.7 11.3 7.1-64 112.8c-5.1 9-1.9 20.5 7.1 25.6 2.9 1.6 6.1 2.4 9.2 2.4 6.5 0 12.9-3.4 16.3-9.5l112.9-199.1 80.9 70.1c3.6 3.1 7.9 4.6 12.3 4.6 5.2 0 10.5-2.2 14.2-6.5 6.8-7.7 6-19.5-1.8-26.3z"/><circle cx="321.6" cy="106" r="37.5"/><circle cx="115.4" cy="406" r="37.5"/><text y="527" font-size="5" font-weight="bold" font-family="'Helvetica Neue', Helvetica, Arial-Unicode, Arial, Sans-serif">Created by Creative Stall</text><text y="532" font-size="5" font-weight="bold" font-family="'Helvetica Neue', Helvetica, Arial-Unicode, Arial, Sans-serif">from the Noun Project</text></symbol><symbol id="icon_football" viewBox="0 0 50 50"><path d="M25.52 7.48a17.8 17.8 0 1 0 17.8 17.8 17.82 17.82 0 0 0-17.8-17.8zm11.85 5.89a.49.49 0 0 0 .11.23c.95 1 1.33 3.92 1.44 5.47l-3.35 3.19a17.49 17.49 0 0 0-6.36-2.76l-2-6A7.65 7.65 0 0 1 30 11h.05l6 2.12a.75.75 0 0 0 .8-.2c.21.16.37.3.52.45zm-24 18.72a.74.74 0 0 0 0-.14l-1.1-7.15a.72.72 0 0 0 0-.08 8.84 8.84 0 0 1 1-1.23l1.48-1.21a10 10 0 0 1 1.52-.83l6 4a28.8 28.8 0 0 0 .87 6.41l-4.91 3.34a17.88 17.88 0 0 1-4.86-3.11zm10.72-.41a28.06 28.06 0 0 1-.84-6.22l5.78-5a16.71 16.71 0 0 1 6.06 2.65l.67 7.43a25 25 0 0 1-5.5 4.09zM39.94 19a22.33 22.33 0 0 0-.44-3 16.72 16.72 0 0 1 2.11 4.5zM28.56 8.77a.74.74 0 0 0 .13.59l.65.87a8.66 8.66 0 0 0-3 2.75l-7.3.4a15.23 15.23 0 0 0-2.54-2.26 16.58 16.58 0 0 1 12-2.33zm-12.88 2.91a.49.49 0 0 0 .11.11A15.13 15.13 0 0 1 18.28 14l-2.38 6.5a10.69 10.69 0 0 0-4.23 3.28L9.78 21a.74.74 0 0 0-.42-.29 16.8 16.8 0 0 1 6.32-9.03zm-4.59 22.17l1.64-1a18.73 18.73 0 0 0 5.08 3.29.72.72 0 0 0 .06.16l2.39 3.78-.76.57a.49.49 0 0 0-.15.21 16.84 16.84 0 0 1-8.26-7.01zm9.3 7.42l.61-.46c.11 0 2.82.32 4.47.32a25.4 25.4 0 0 0 3.31-.27c.59 0 1.65.06 2.68.06h.07a16.68 16.68 0 0 1-11.2.34zm13.33-1.34a.49.49 0 0 0-.31-.07 30.78 30.78 0 0 1-3.55 0l.79-4.35a25.16 25.16 0 0 0 5.62-4.12.74.74 0 0 0 .2 0l4.57.23a16.85 16.85 0 0 1-7.32 8.32z" id="Layer_2_copy"/></symbol><symbol id="icon_glasses" viewBox="0 0 26.53 17.74"><path class="cls-1" d="M26.52 12.47c0-.09-2.16-9.32-2.52-10.76C23.54-.12 21.07 0 21 0a.5.5 0 0 0-.47.53A.49.49 0 0 0 21 1s1.74-.08 2 1c.31 1.22 1.89 8 2.37 10.13h-1.21a5.12 5.12 0 0 0-10.2 0h-1.4a5.12 5.12 0 0 0-10.2 0H1.13C1.61 10 3.19 3.17 3.5 2c.26-1 2-1 2-1A.47.47 0 0 0 6 .53.5.5 0 0 0 5.56 0C5.46 0 3-.12 2.53 1.71 2.17 3.16 0 12.38 0 12.47a.5.5 0 0 0 .49.61h1.88a5.12 5.12 0 0 0 10.2 0H14a5.12 5.12 0 0 0 10.2 0H26a.5.5 0 0 0 .49-.61zM7.46 16.74a4.15 4.15 0 1 1 4.15-4.15 4.15 4.15 0 0 1-4.15 4.15zm11.6 0a4.15 4.15 0 1 1 4.15-4.15 4.15 4.15 0 0 1-4.15 4.15z" id="Layer_2"/></symbol><symbol id="icon_glasses_2" viewBox="194 -142.9 487.8 386.1"><path d="M674.6 102.3L610-102.8c-9.1-29.9-40.9-46.8-70.8-37.7-7.1 2.2-11.2 9.7-9 16.8 2.2 7.1 9.7 11.2 16.8 9 15.7-4.8 32.3 4.1 37.1 19.8v.1l46.2 146.9c-14.7-8.3-31.6-13-49.6-13-51.8 0-94.6 39.2-100.4 89.4h-85c-6.6-49.4-49-87.6-100.2-87.6-18.1 0-35.1 4.8-49.8 13.1l46.8-148.8v-.1c4.8-15.7 21.4-24.6 37.1-19.8 7.1 2.2 14.7-1.9 16.8-9 2.2-7.1-1.9-14.7-9-16.8-29.9-9.1-61.6 7.8-70.8 37.7l-64.4 205.3c-.2.6-.3 1.1-.4 1.7-4.7 11.7-7.4 24.5-7.4 37.8 0 55.7 45.4 101.1 101.1 101.1 51.2 0 93.6-38.2 100.2-87.6h85.5c7.4 48.5 49.4 85.8 99.9 85.8 55.7 0 101.1-45.4 101.1-101.1.1-13.4-2.5-26.2-7.2-37.9zM295.2 216.1c-40.9 0-74.1-33.2-74.1-74.1s33.2-74.1 74.1-74.1c40.9 0 74.1 33.2 74.1 74.1s-33.3 74.1-74.1 74.1zm285.6-1.8c-40.9 0-74.1-33.2-74.1-74.1s33.3-74.1 74.1-74.1 74.1 33.2 74.1 74.1-33.2 74.1-74.1 74.1z"/></symbol><symbol id="icon_go" viewBox="0 0 26.42 16.78"><path d="M0 8a8.37 8.37 0 0 1 8.39-8A8.5 8.5 0 0 1 14 2.08a29.87 29.87 0 0 1-2.13 2.2C10 3 7.25 2.59 5.34 4.11a5.37 5.37 0 0 0-.23 8.37c2.55 2.32 7.38 1.17 8.08-2.38-1.6 0-3.2 0-4.8-.05V7.19h8a9.62 9.62 0 0 1-1.51 6.49c-2.09 2.94-6.28 3.79-9.55 2.54A8.4 8.4 0 0 1 0 8zm21.62-3.22H24v2.4h2.4v2.4L24 9.6V12h-2.38V9.61h-2.4V7.19h2.4q-.01-1.19 0-2.41z"/></symbol><symbol id="icon_graphic" viewBox="0 0 24 24"><g id="Layer_2_copy"><path class="st1" d="M8.2 12v-.3h-2v.3c0 2.4 1.5 4.5 3.6 5.4l.7-1.9c-1.4-.6-2.3-1.9-2.3-3.5z"/><path class="st1" d="M15.9 3.9L15 5.7c2.4 1.2 4 3.5 4 6.3 0 3.9-3.1 7-7 7s-7-3.1-7-7v-.3H3v.3c0 5 4 9 9 9s9-4 9-9c0-3.6-2.1-6.6-5.1-8.1z"/><path class="st1" d="M20.6 6.9c.9 1.5 1.4 3.2 1.4 5.1 0 5.5-4.5 10-10 10S2 17.5 2 12v-.3H0v.3c0 6.6 5.4 12 12 12s12-5.4 12-12c0-2.3-.6-4.3-1.7-6.1l-1.7 1z"/></g></symbol><symbol id="icon_green-daw" viewBox="0 0 21 21"><path fill-rule="evenodd" clip-rule="evenodd" d="M10.5 0C4.7 0 0 4.7 0 10.5S4.7 21 10.5 21 21 16.3 21 10.5 16.3 0 10.5 0zm5.1 8.2L11 15.6c-.5.5-1.4.5-1.9 0v-.1s-.1 0-.1-.1L5.4 12c-.5-.5-.5-1.3 0-1.9.5-.5 1.4-.5 1.9 0l2.5 2.4 3.9-6.2c.5-.5 1.4-.5 1.9 0 .5.6.5 1.4 0 1.9z"/></symbol><symbol id="icon_health-care" viewBox="0 0 50 50"><path d="M17.1 29.27a13.9 13.9 0 0 1-3.7-3.73 3.58 3.58 0 0 0-2.93-1.81C10 21.14 9.39 17 9.33 16a3.5 3.5 0 0 0-2.17-3 1.5 1.5 0 0 0-1.67.87c-.68 1.28-.71 5.59-.68 12v2.42c0 3.49 3.67 6.24 6.63 8.44 1.15.86 2.89 2.15 2.93 2.63v6a.75.75 0 0 0 .75.75H23a.75.75 0 0 0 .75-.75v-6.81c0-3.42-.82-4.8-1.53-5.61a33.87 33.87 0 0 0-5.12-3.67zm5.15 15.4h-6.38v-5.29c0-1.19-1.48-2.3-3.53-3.83-2.68-2-6-4.49-6-7.24v-2.43c0-4.09 0-10.26.51-11.31l.06-.1a2.26 2.26 0 0 1 1 1.62c.08 1.22.95 6.62 1.2 8.17a3.3 3.3 0 0 0-.36 4c.79 1.59 2.67 3.32 4.49 5 1.31 1.21 2.79 2.57 3 3.22A.75.75 0 0 0 17.6 36c-.32-1-1.51-2.09-3.42-3.85-1.64-1.51-3.5-3.22-4.17-4.56s-.11-2.07.16-2.31c.28 0 1.17-.09 2 1.13a15.44 15.44 0 0 0 4.18 4.19 33.71 33.71 0 0 1 4.77 3.37c.35.4 1.16 1.32 1.16 4.62zm23.12-30.79A1.5 1.5 0 0 0 43.7 13a3.44 3.44 0 0 0-2.17 3c-.06 1-.71 5.14-1.13 7.72a3.58 3.58 0 0 0-2.93 1.81 13.94 13.94 0 0 1-3.7 3.73 33.9 33.9 0 0 0-5.12 3.67c-.71.81-1.53 2.18-1.53 5.61v6.87a.75.75 0 0 0 .75.75h7.88a.75.75 0 0 0 .75-.75v-6c0-.48 1.78-1.77 2.93-2.63 3-2.2 6.63-4.94 6.63-8.44v-2.41c.02-6.45-.01-10.76-.69-12.05zm-.82 12v2.42c0 2.74-3.34 5.23-6 7.24-2.08 1.54-3.55 2.65-3.55 3.84v5.29h-6.39v-6.12c0-3.3.81-4.22 1.16-4.62a33.76 33.76 0 0 1 4.77-3.37 15.48 15.48 0 0 0 4.18-4.19 2 2 0 0 1 2-1.13c.23.21.85.92.16 2.31s-2.53 3.05-4.17 4.56C34.78 33.87 33.59 35 33.27 36a.75.75 0 0 0 1.42.47c.22-.65 1.7-2 3-3.22 1.82-1.68 3.7-3.41 4.49-5a3.3 3.3 0 0 0-.36-4c.25-1.54 1.13-7 1.2-8.17a2.43 2.43 0 0 1 .98-1.62.4.4 0 0 1 .09.13c.51 1.04.48 7.22.47 11.31zm-18.78 1.94c.5-.31 12.23-7.7 12.23-16.25a6.76 6.76 0 0 0-7-6.67 7.16 7.16 0 0 0-5.71 2.54 7.16 7.16 0 0 0-5.62-2.54 6.76 6.76 0 0 0-7 6.67c0 8.55 11.77 15.94 12.27 16.25a.74.74 0 0 0 .33.08.74.74 0 0 0 .33-.08zM14.21 11.57a5.27 5.27 0 0 1 5.46-5.17 5.52 5.52 0 0 1 5 2.69l.05.07a.72.72 0 0 0 .1.12l.12.09.07.06h.58l.07-.05.12-.1a.72.72 0 0 0 .22-.12.7.7 0 0 0 .06-.07 5.55 5.55 0 0 1 5-2.69 5.27 5.27 0 0 1 5.46 5.17c0 6.9-9.15 13.37-11.17 14.71-1.99-1.34-11.14-7.81-11.14-14.71z" id="Layer_2_copy"/></symbol><symbol id="icon_health-cross" viewBox="0 0 50 50"><g id="Layer_2_copy"><path d="M42.84 5.89H8a1.75 1.75 0 0 0-1.79 1.75v34.87A1.75 1.75 0 0 0 8 44.26h34.84a1.75 1.75 0 0 0 1.75-1.75V7.64a1.75 1.75 0 0 0-1.75-1.75zm.25 36.62a.25.25 0 0 1-.25.25H8a.25.25 0 0 1-.25-.25V7.64A.25.25 0 0 1 8 7.39h34.84a.25.25 0 0 1 .25.25z"/><path d="M36.07 20h-5.75v-5.78a1.75 1.75 0 0 0-1.75-1.75h-6.4a1.75 1.75 0 0 0-1.75 1.75V20h-5.75a1.75 1.75 0 0 0-1.75 1.75v6.39a1.75 1.75 0 0 0 1.75 1.75h5.75v5.75a1.75 1.75 0 0 0 1.75 1.75h6.39a1.75 1.75 0 0 0 1.75-1.75v-5.77h5.75a1.75 1.75 0 0 0 1.75-1.75v-6.39A1.75 1.75 0 0 0 36.07 20zm.25 8.15a.26.26 0 0 1-.25.25h-6.5a.75.75 0 0 0-.75.75v6.5a.26.26 0 0 1-.25.25h-6.4a.26.26 0 0 1-.25-.25v-6.5a.75.75 0 0 0-.75-.75h-6.5a.26.26 0 0 1-.25-.25v-6.42a.26.26 0 0 1 .25-.25h6.5a.75.75 0 0 0 .75-.75v-6.5a.26.26 0 0 1 .25-.25h6.39a.26.26 0 0 1 .25.25v6.5a.75.75 0 0 0 .75.75h6.5a.26.26 0 0 1 .25.25z"/></g></symbol><symbol id="icon_home" viewBox="0 0 50 50"><path d="M48.38 28.24L27.83 7.68a3.89 3.89 0 0 0-5.5 0L1.76 28.24a.75.75 0 0 0 .53 1.28H9l.12 14.3a.75.75 0 0 0 .75.74H20.2a.75.75 0 0 0 .75-.75V31.44h8.22v12.37a.75.75 0 0 0 .75.75h9.72a.75.75 0 0 0 .75-.75V29.52h7.47a.75.75 0 0 0 .53-1.28zM39.63 28a.75.75 0 0 0-.75.75v14.3h-8.22V30.69a.75.75 0 0 0-.75-.75H20.2a.75.75 0 0 0-.75.75v12.37H10.6l-.12-14.3a.75.75 0 0 0-.75-.76H4.11L23.39 8.74a2.39 2.39 0 0 1 3.38 0L46 28z" id="Layer_2_copy"/></symbol><symbol id="icon_icon-cross" viewBox="0 0 32.526 32.526"><path d="M32.526 2.828L29.698 0 16.263 13.435 2.828 0 0 2.828l13.435 13.435L0 29.698l2.828 2.828 13.435-13.435 13.435 13.435 2.828-2.828-13.435-13.435z"/></symbol><symbol id="icon_icon-error" viewBox="0 0 426.667 426.667"><path d="M213.333 0C95.514 0 0 95.514 0 213.333s95.514 213.333 213.333 213.333 213.333-95.514 213.333-213.333S331.153 0 213.333 0zm117.662 276.689l-54.302 54.306-63.36-63.356-63.36 63.36-54.302-54.31 63.356-63.356-63.356-63.36 54.302-54.302 63.36 63.356 63.36-63.356 54.302 54.302-63.356 63.36 63.356 63.356z"/></symbol><symbol id="icon_icon-glass" viewBox="0 0 451 451"><path d="M447.05 428l-109.6-109.6c29.4-33.8 47.2-77.9 47.2-126.1C384.65 86.2 298.35 0 192.35 0 86.25 0 .05 86.3.05 192.3s86.3 192.3 192.3 192.3c48.2 0 92.3-17.8 126.1-47.2L428.05 447c2.6 2.6 6.1 4 9.5 4s6.9-1.3 9.5-4c5.2-5.2 5.2-13.8 0-19zM26.95 192.3c0-91.2 74.2-165.3 165.3-165.3 91.2 0 165.3 74.2 165.3 165.3s-74.1 165.4-165.3 165.4c-91.1 0-165.3-74.2-165.3-165.4z"/></symbol><symbol id="icon_icon-next" viewBox="0 0 21.43 39"><path stroke-linecap="round" stroke-miterlimit="50" stroke-width="2" d="M1.29 37.81l18.93-18.48L1.62 1.17"/></symbol><symbol id="icon_icon-ok-ch" viewBox="0 0 8 8"><path fill-rule="evenodd" d="M7.832 1.555L4.687 6.273l.02.02-.101.101-.774 1.161L3.6 7.4l-.307.307-3-3 1.414-1.414L3.245 4.83 6.168.445l1.664 1.11z"/></symbol><symbol id="icon_icon-prev" viewBox="0 0 21.43 39"><path stroke-linecap="round" stroke-miterlimit="50" stroke-width="2" d="M20.14 37.81L1.22 19.33l18.6-18.16"/></symbol><symbol id="icon_icon-rss" viewBox="0 0 16 19"><path fill-rule="evenodd" d="M13.141 5.781c-.637 0-1.22-.217-1.695-.573L5.643 8.583c.046.205.076.417.076.636 0 .354-.073.689-.189 1.002l5.86 3.443a2.85 2.85 0 0 1 1.704-.57c1.605 0 2.906 1.322 2.906 2.953C16 17.678 14.699 19 13.094 19c-1.605 0-2.906-1.322-2.906-2.953 0-.332.066-.646.165-.944L4.426 11.62a2.832 2.832 0 0 1-1.567.474A2.867 2.867 0 0 1 0 9.219a2.867 2.867 0 0 1 2.859-2.875 2.83 2.83 0 0 1 1.913.751l5.667-3.296a2.904 2.904 0 0 1-.158-.908c0-1.597 1.28-2.891 2.86-2.891C14.72 0 16 1.294 16 2.891c0 1.596-1.28 2.89-2.859 2.89z"/></symbol><symbol id="icon_info" viewBox="0 0 401.998 401.998"><path d="M164.454 91.363h73.098c4.945 0 9.226-1.807 12.847-5.424 3.61-3.614 5.421-7.898 5.421-12.847V18.274c0-4.948-1.811-9.229-5.428-12.85C246.777 1.812 242.49 0 237.544 0h-73.091c-4.946 0-9.229 1.812-12.847 5.424-3.615 3.617-5.424 7.902-5.424 12.85v54.818c0 4.949 1.809 9.233 5.424 12.847 3.618 3.617 7.901 5.424 12.848 5.424zm122.482 242.968c-3.613-3.617-7.897-5.427-12.847-5.427h-18.274V164.452c0-4.947-1.807-9.229-5.421-12.845-3.62-3.617-7.904-5.426-12.847-5.426H127.912c-4.949 0-9.231 1.809-12.847 5.426-3.618 3.616-5.424 7.898-5.424 12.845v36.547c0 4.946 1.807 9.231 5.424 12.845 3.615 3.621 7.898 5.428 12.847 5.428h18.274v109.633h-18.274c-4.949 0-9.231 1.81-12.847 5.427-3.618 3.614-5.424 7.898-5.424 12.847v36.546c0 4.948 1.807 9.232 5.424 12.854 3.615 3.61 7.898 5.421 12.847 5.421h146.177c4.949 0 9.233-1.811 12.847-5.421 3.614-3.621 5.421-7.905 5.421-12.854v-36.546c0-4.95-1.797-9.234-5.421-12.848z"/></symbol><symbol id="icon_information" viewBox="0 0 512 512"><path d="M285.172 331.453c-12.453 13.25-20.547 18.781-26.094 18.781-3.859 0-5.172-3.422-4.312-11.142 2.593-20.062 17.531-84.578 21.781-107.625 4.266-19.719 3-29.953-2.562-29.953-10.641 0-36.733 17.516-53.827 35.016-.875 1.344-2.562 8.578-1.688 11.125 0 .875 1.266 1.312 1.266 1.312 10.266-8.125 18.391-12.844 23.109-12.844 2.109 0 2.938 3.406 1.688 9.406-5.125 25.625-13.672 65.405-20.078 98.28-5.984 28.672-2.172 40.188 6.812 40.188s33.766-11.983 53.906-38.906c.812-2.094 1.641-10.188 1.25-12.358-.001-.827-1.251-1.28-1.251-1.28zM281.281 128c-7.297 0-16.25 3.414-20.516 7.703-1.688 2.141-3.406 8.539-3.859 11.945.453 7.711 2.578 11.984 6.859 14.562 2.108 1.68 16.219.414 19.219-1.312 5.188-3.398 9.828-10.25 10.703-18.375.375-3.82-.438-8.984-2.142-11.531-.857-1.273-4.295-2.992-10.264-2.992z"/><path d="M256 0C114.609 0 0 114.609 0 256c0 141.391 114.609 256 256 256 141.391 0 256-114.609 256-256C512 114.609 397.391 0 256 0zm0 472c-119.297 0-216-96.703-216-216S136.703 40 256 40s216 96.703 216 216-96.703 216-216 216z"/></symbol><symbol id="icon_insta" viewBox="0 0 19.48 20"><path d="M13.62 20H5.86A5.87 5.87 0 0 1 0 14.14V5.86A5.87 5.87 0 0 1 5.86 0h7.75a5.87 5.87 0 0 1 5.86 5.86v8.27A5.87 5.87 0 0 1 13.62 20zM5.86 2.12a3.75 3.75 0 0 0-3.74 3.74v8.27a3.75 3.75 0 0 0 3.75 3.75h7.75a3.75 3.75 0 0 0 3.75-3.75V5.86a3.75 3.75 0 0 0-3.75-3.75z"/><path d="M9.74 15.53A5.56 5.56 0 0 1 4.18 10a5.65 5.65 0 0 1 1.7-4 5.32 5.32 0 0 1 3.9-1.58 5.73 5.73 0 0 1 4.13 1.69A5.38 5.38 0 0 1 15.3 10a5.68 5.68 0 0 1-1.64 3.9 5.47 5.47 0 0 1-3.92 1.63zM9.62 7a2.76 2.76 0 0 0-1.93.8 3 3 0 0 0-.92 2.2 3 3 0 1 0 5.94 0A2.9 2.9 0 0 0 12 7.88 3.22 3.22 0 0 0 9.7 7z"/><circle cx="14.99" cy="4.7" r="1.2"/></symbol><symbol id="icon_level-up" viewBox="0 0 401.71 401.71"><path d="M342.602 115.914L251.24 6.28C247.812 2.096 243.144 0 237.254 0c-5.899 0-10.564 2.093-13.99 6.28l-91.363 109.634c-4.947 5.905-5.802 12.371-2.568 19.414 3.427 7.044 8.951 10.566 16.562 10.566h54.821v182.723h-91.363c-3.046 0-5.426 1.048-7.139 3.142l-45.683 54.816c-2.284 2.854-2.663 6.19-1.143 9.996 1.525 3.433 4.283 5.14 8.282 5.14h200.995c2.67 0 4.853-.852 6.567-2.562 1.711-1.715 2.566-3.901 2.566-6.571V145.897h54.819c7.615 0 13.131-3.521 16.563-10.566 3.424-6.85 2.565-13.322-2.578-19.417z"/></symbol><symbol id="icon_light" viewBox="0 0 50 50"><path d="M26.09 32.45A8.43 8.43 0 1 1 34.52 24a8.44 8.44 0 0 1-8.43 8.45zm0-15.37A6.93 6.93 0 1 0 33 24a6.94 6.94 0 0 0-6.91-6.92zm-11.4 7.68H6.83a.75.75 0 0 1 0-1.5h7.86a.75.75 0 0 1 0 1.5zM18 16.7a.75.75 0 0 1-.53-.22l-5.56-5.56A.75.75 0 0 1 13 9.86l5.56 5.56A.75.75 0 0 1 18 16.7zm8.09-3.34a.75.75 0 0 1-.75-.75V4.75a.75.75 0 0 1 1.5 0v7.86a.75.75 0 0 1-.75.75zm8.06 3.34a.75.75 0 0 1-.53-1.28l5.56-5.56a.75.75 0 0 1 1.06 1.06l-5.56 5.56a.75.75 0 0 1-.53.22zm11.2 8.06h-7.86a.75.75 0 0 1 0-1.5h7.86a.75.75 0 1 1 0 1.5zM39.7 38.38a.75.75 0 0 1-.53-.22l-5.55-5.56a.75.75 0 1 1 1.06-1.06l5.56 5.56a.75.75 0 0 1-.53 1.28zm-27.23 0a.75.75 0 0 1-.53-1.28l5.56-5.56a.75.75 0 1 1 1.06 1.06L13 38.16a.75.75 0 0 1-.53.22zm10.04-1.14a.75.75 0 0 1-.08-1.5l7.43-.85a.75.75 0 0 1 .14 1.5l-7.43.85zm0 4.76a.75.75 0 0 1-.08-1.5l7.43-.85a.75.75 0 1 1 .14 1.53l-7.4.82zm1.24 4.59a.75.75 0 0 1-.08-1.5l4.8-.55a.75.75 0 1 1 .16 1.46l-4.8.55z" id="Layer_2_copy"/></symbol><symbol id="icon_logout" viewBox="0 0 24 24"><path d="M17 17.25V14h-7v-4h7V6.75L22.25 12 17 17.25M13 2c1.1 0 2 .9 2 2v4h-2V4H4v16h9v-4h2v4c0 1.1-.9 2-2 2H4c-1.1 0-2-.9-2-2V4c0-1.1.9-2 2-2h9z"/></symbol><symbol id="icon_mos" viewBox="179 -42 142.3 184"><path d="M179 96.8c0 8.7 7.1 15.9 15.9 15.9h43.6V142l9.6-10.1c13.7-14.2 24.6-19.2 41.7-19.2h15.6c8.8 0 15.9-7.1 15.9-15.9V-42H179V96.8zm10.5-128.3h121.3V96.8c0 3-2.4 5.4-5.4 5.4h-15.6c-15 0-28 2.5-42.5 18.3l-.1-18.3h-52.3c-3 0-5.4-2.4-5.4-5.4V-31.5z"/></symbol><symbol id="icon_odnokl" viewBox="0 0 12.01 20"><path d="M5 14.09a7.78 7.78 0 0 1-4.13-1.48c-.15-.12-.3-.23-.44-.36a1.18 1.18 0 0 1-.16-1.67 1.18 1.18 0 0 1 1.57-.35 2.49 2.49 0 0 1 .34.2 6.8 6.8 0 0 0 7.53.07 2 2 0 0 1 .73-.38 1.15 1.15 0 0 1 1.32.53 1.12 1.12 0 0 1-.08 1.47 6.1 6.1 0 0 1-2.18 1.41 10.34 10.34 0 0 1-2.5.56l.27.29 3.46 3.47a1.15 1.15 0 0 1 .27 1.34 1.37 1.37 0 0 1-1.28.8 1.25 1.25 0 0 1-.81-.41 92.21 92.21 0 0 1-2.61-2.63c-.25-.26-.37-.21-.58 0-.87.9-1.76 1.79-2.66 2.67a1.11 1.11 0 0 1-1.34.24 1.36 1.36 0 0 1-.79-1.25 1.25 1.25 0 0 1 .42-.84l3.41-3.42.24-.26zm0 0" fill-rule="evenodd"/><path d="M6 10.12a5.06 5.06 0 1 1 5.09-5 5.06 5.06 0 0 1-5.09 5zm2.48-5.06A2.48 2.48 0 1 0 6 7.54a2.47 2.47 0 0 0 2.48-2.48zm0 0" fill-rule="evenodd"/></symbol><symbol id="icon_paint" viewBox="0 0 50 50"><g id="Layer_2_copy"><path d="M21.93 45.28a23.42 23.42 0 0 1-11.7-3.15c-4.12-2.51-6.3-6.13-6.3-10.41 0-9.13 11.2-14 19.28-14a28.43 28.43 0 0 1 5.6.47.75.75 0 1 1-.27 1.48 27.07 27.07 0 0 0-5.33-.45 24.25 24.25 0 0 0-11.56 3.16C8.82 24 5.43 27 5.43 31.72s4.48 12.06 16.5 12.06c7.26 0 15.38-2.35 15.38-5.5 0-1.73-.94-2.48-2-3.36s-2.2-1.76-2.2-3.56a5.49 5.49 0 0 1 2.49-4.76c1-.8 1.71-1.37 1.71-2.87 0-.58-.58-1.24-1.64-1.86a.75.75 0 0 1 .76-1.29c1.58.92 2.38 2 2.38 3.15a4.74 4.74 0 0 1-2.27 4 4 4 0 0 0-2 3.6c0 1 .59 1.55 1.64 2.39s2.6 2.08 2.6 4.53c.03 4.8-10.04 7.03-16.85 7.03z"/><path d="M29.81 40.33c-2.07 0-3.7-1.2-3.7-2.73s1.62-2.73 3.7-2.73 3.7 1.2 3.7 2.73-1.62 2.73-3.7 2.73zm0-4c-1.29 0-2.2.65-2.2 1.23s.9 1.23 2.2 1.23S32 38.18 32 37.6s-.89-1.23-2.19-1.23zm-11.96 4.56c-2.07 0-3.7-1.2-3.7-2.73s1.62-2.73 3.7-2.73 3.7 1.2 3.7 2.73-1.63 2.73-3.7 2.73zm0-4c-1.29 0-2.2.65-2.2 1.23s.9 1.23 2.2 1.23 2.2-.65 2.2-1.23-.9-1.19-2.2-1.19zM12 34.23c-2.07 0-3.7-1.2-3.7-2.73s1.62-2.73 3.7-2.73 3.7 1.2 3.7 2.73-1.7 2.73-3.7 2.73zm0-4c-1.29 0-2.2.65-2.2 1.23s.9 1.23 2.2 1.23 2.2-.65 2.2-1.23-.95-1.19-2.2-1.19zm5.06-2.5c-2.07 0-3.7-1.2-3.7-2.73s1.62-2.73 3.7-2.73 3.7 1.2 3.7 2.73-1.63 2.73-3.7 2.73zm0-4c-1.29 0-2.2.65-2.2 1.23s.9 1.23 2.2 1.23 2.2-.65 2.2-1.23-.91-1.19-2.2-1.19zm6.35 8.22a.75.75 0 0 1-.75-.69c-.45-5.25 3-6.61 4.23-6.92A96.21 96.21 0 0 1 44.32 3.72a.82.82 0 0 1 .78-.17.76.76 0 0 1 .5.58c.23 1.26-11.2 17.8-16.27 22.25 0 1.25-.64 4.95-5.82 5.56zM41.25 8.69A91.72 91.72 0 0 0 28 25.37a.75.75 0 0 1-.56.37c-.35 0-3.32.58-3.34 4.58 4-.85 3.71-4.07 3.7-4.22a.75.75 0 0 1 .27-.65C31.84 22.36 37.74 14 41.25 8.69zm3.57-4.41z"/></g></symbol><symbol id="icon_park" viewBox="0 0 50 50"><path d="M23.71 38h-1.62v-9.1a.75.75 0 0 0-1.5 0V31H4.16v-2.06a.75.75 0 0 0-1.5 0V38H.82a.75.75 0 1 0 0 1.5h1.84v2.81a.75.75 0 0 0 1.5 0v-2.77h16.43v2.81a.75.75 0 0 0 1.5 0v-2.81h1.62a.75.75 0 0 0 0-1.5zm-3.12-5.55v2.14H4.16v-2.1zM4.16 38v-1.87h16.43V38zm45.37-6.28c0-2.86-2.49-13.81-6.64-13.81a2.6 2.6 0 0 0-1.22.33c-1.77-5.59-4.6-11.09-8-11.09-5.84 0-10 16.1-10 21.23a10 10 0 0 0 9.5 10v4a.75.75 0 0 0 1.5 0v-4a9.89 9.89 0 0 0 4-1.31 6.36 6.36 0 0 0 3.47 1.3v4a.75.75 0 0 0 1.5 0v-4a6.64 6.64 0 0 0 5.89-6.65zm-14.85-1.26l2.93-2.59a.75.75 0 0 0-1-1.12l-1.94 1.71v-2.19a.75.75 0 0 0-1.5 0V31l-2.28-1.74a.75.75 0 0 0-.89 1.16l3.19 2.44v4a8.48 8.48 0 0 1-8-8.46c0-5.22 4.22-19.73 8.48-19.73s8.48 14.51 8.48 19.73a8.49 8.49 0 0 1-7.46 8.41zm9 6.33V36a.75.75 0 0 0-1.5 0v.83a5 5 0 0 1-2.18-.71 10 10 0 0 0 3.69-7.74 36.86 36.86 0 0 0-1.53-8.65 1.35 1.35 0 0 1 .78-.31c2.4 0 5.14 8.74 5.14 12.31a5.13 5.13 0 0 1-4.44 5.06z" id="Layer_2_copy"/></symbol><symbol id="icon_pen" viewBox="0 0 512 512"><path d="M444.125 135.765L149.953 429.938l-67.875-67.875L376.219 67.859l67.906 67.906zm0-135.765l-45.281 45.234 67.906 67.906L512 67.859 444.125 0zM66.063 391.312L0 512l120.703-66.062-54.64-54.626z"/></symbol><symbol id="icon_refresh" viewBox="0 0 20.19 17.77"><g id="Layer_2"><path class="cls-1" d="M8.51 17.62a8.93 8.93 0 0 0 9.2-4.16.65.65 0 1 0-1.12-.67A7.58 7.58 0 0 1 2.52 9l.13.15a.65.65 0 0 0 1-.85L2.54 7a.65.65 0 0 0-.26-.22H2a.65.65 0 0 0-.41.15L.23 8.07a.65.65 0 0 0 .85 1l.14-.12a8.9 8.9 0 0 0 7.29 8.67zm9.2-6.84l.07.07h.07L18 11h.52L20 9.7a.65.65 0 0 0-.85-1l-.15.13A8.88 8.88 0 0 0 2.45 4.35.65.65 0 1 0 3.57 5a7.58 7.58 0 0 1 14.1 3.74l-.14-.16a.65.65 0 1 0-1 .85z" id="Layer_1-2"/></g></symbol><symbol id="icon_reply" viewBox="0 0 511.63 511.631"><path d="M496.5 233.842c-30.841-76.706-114.112-115.06-249.823-115.06h-63.953V45.693c0-4.952-1.809-9.235-5.424-12.85-3.617-3.617-7.896-5.426-12.847-5.426-4.952 0-9.235 1.809-12.85 5.426L5.424 179.021C1.809 182.641 0 186.922 0 191.871c0 4.948 1.809 9.229 5.424 12.847L151.604 350.9c3.619 3.613 7.902 5.428 12.85 5.428 4.947 0 9.229-1.814 12.847-5.428 3.616-3.614 5.424-7.898 5.424-12.848v-73.094h63.953c18.649 0 35.349.568 50.099 1.708a361.232 361.232 0 0 1 43.968 6.143c14.564 2.95 27.224 6.991 37.979 12.135 10.753 5.144 20.794 11.756 30.122 19.842 9.329 8.094 16.943 17.7 22.847 28.839 5.896 11.136 10.513 24.311 13.846 39.539 3.326 15.229 4.997 32.456 4.997 51.675 0 10.466-.479 22.176-1.428 35.118 0 1.137-.236 3.375-.715 6.708-.473 3.333-.712 5.852-.712 7.562 0 2.851.808 5.232 2.423 7.136 1.622 1.902 3.86 2.851 6.714 2.851 3.046 0 5.708-1.615 7.994-4.853 1.328-1.711 2.561-3.806 3.71-6.283a503.014 503.014 0 0 0 3.854-8.562 641.239 641.239 0 0 0 2.998-6.848c24.17-54.238 36.258-97.158 36.258-128.756-.002-37.873-5.043-69.568-15.132-95.07z"/></symbol><symbol id="icon_right-arrow" viewBox="0 0 612 612"><path d="M612 306C612 137.004 474.995 0 306 0 137.004 0 0 137.004 0 306c0 168.995 137.004 306 306 306 168.995 0 306-137.005 306-306zm-459-13.854h271.228l-76.5-97.419h27.818L459 306l-83.454 111.272h-27.818l76.5-97.363H153v-27.763z"/></symbol><symbol id="icon_safe-shield" viewBox="0 0 50 50"><g id="Layer_2_copy"><path d="M25.5 45.36a.75.75 0 0 1-.43-.13c-.64-.45-15.73-11.07-15.73-19.56v-13.3a.75.75 0 0 1 .44-.68l15.4-7.11a.75.75 0 0 1 .63 0l15.41 7.11a.75.75 0 0 1 .44.68v13.29c0 9-15.1 19.15-15.74 19.57a.75.75 0 0 1-.42.13zM10.84 12.85v12.81c0 7 12.23 16.25 14.67 18C28 42 40.15 33.1 40.15 25.66V12.85L25.5 6.09z"/><path d="M24.44 28.12a.75.75 0 0 1-.5-.19l-5.21-4.74a.75.75 0 0 1 1-1.11l5.21 4.74a.75.75 0 0 1-.5 1.31z"/><path d="M24.44 28.12a.75.75 0 0 1-.53-1.28l8.53-8.41a.75.75 0 1 1 1.05 1.07L25 27.9a.75.75 0 0 1-.56.22z"/></g></symbol><symbol id="icon_search" viewBox="0 0 56.966 56.966"><path d="M55.146 51.887L41.588 37.786A22.926 22.926 0 0 0 46.984 23c0-12.682-10.318-23-23-23s-23 10.318-23 23 10.318 23 23 23c4.761 0 9.298-1.436 13.177-4.162l13.661 14.208c.571.593 1.339.92 2.162.92.779 0 1.518-.297 2.079-.837a3.004 3.004 0 0 0 .083-4.242zM23.984 6c9.374 0 17 7.626 17 17s-7.626 17-17 17-17-7.626-17-17 7.626-17 17-17z"/></symbol><symbol id="icon_share-option" viewBox="0 0 511.626 511.627"><path d="M506.206 179.012L360.025 32.834c-3.617-3.617-7.898-5.426-12.847-5.426s-9.233 1.809-12.847 5.426c-3.617 3.619-5.428 7.902-5.428 12.85v73.089H264.95c-135.716 0-218.984 38.354-249.823 115.06C5.042 259.335 0 291.03 0 328.907c0 31.594 12.087 74.514 36.259 128.762.57 1.335 1.566 3.614 2.996 6.849a603.829 603.829 0 0 0 3.854 8.565c1.146 2.471 2.384 4.565 3.715 6.276 2.282 3.237 4.948 4.859 7.994 4.859 2.855 0 5.092-.951 6.711-2.854 1.615-1.902 2.424-4.284 2.424-7.132 0-1.718-.238-4.236-.715-7.569-.476-3.333-.715-5.564-.715-6.708-.953-12.938-1.429-24.653-1.429-35.114 0-19.223 1.668-36.449 4.996-51.675 3.333-15.229 7.948-28.407 13.85-39.543 5.901-11.14 13.512-20.745 22.841-28.835 9.325-8.09 19.364-14.702 30.118-19.842 10.756-5.141 23.413-9.186 37.974-12.135 14.56-2.95 29.215-4.997 43.968-6.14s31.455-1.711 50.109-1.711h63.953v73.091c0 4.948 1.807 9.232 5.421 12.847 3.62 3.613 7.901 5.424 12.847 5.424 4.948 0 9.232-1.811 12.854-5.424l146.178-146.183c3.617-3.617 5.424-7.898 5.424-12.847-.001-4.948-1.807-9.232-5.421-12.856z"/></symbol><symbol id="icon_share" viewBox="0 0 16 19"><path d="M10.52 3.75a1 1 0 0 1 .04-.22l.73-2.57a1 1 0 0 1 1.23-.68l2.52.73a1 1 0 0 1 .69 1.25l-.74 2.56a1 1 0 0 1-1.23.68l-1.88-.55-6.47 3.77-.35 1.22 6.36 3.74a.99.99 0 0 1 1.03-.3l2.59.75c.53.16.84.72.69 1.25l-.76 2.66a.99.99 0 0 1-1.23.68l-2.6-.76a1.01 1.01 0 0 1-.68-1.24l.38-1.33L4.4 11.6a1 1 0 0 1-.93.2l-2.51-.7a1 1 0 0 1-.68-1.24L1 7.3a1 1 0 0 1 1.24-.69l2.23.65z"/></symbol><symbol id="icon_soccer-ball" viewBox="0 0 72.371 72.372"><path d="M22.57 2.648a35.972 35.972 0 0 0-11.971 7.949A36.076 36.076 0 0 0 0 36.186c0 4.699.892 9.281 2.65 13.615a35.962 35.962 0 0 0 7.949 11.971 35.931 35.931 0 0 0 11.971 7.949 36.031 36.031 0 0 0 13.617 2.649 36.084 36.084 0 0 0 25.587-10.598 35.911 35.911 0 0 0 7.949-11.971 36.055 36.055 0 0 0 2.648-13.615c0-4.7-.891-9.282-2.648-13.618-1.82-4.488-4.496-8.518-7.949-11.971s-7.479-6.129-11.971-7.949A36.083 36.083 0 0 0 36.187 0c-4.7 0-9.281.891-13.617 2.648zM9.044 51.419c-1.743-1.094-3.349-2.354-4.771-3.838a34.114 34.114 0 0 1-1.101-19.01 30.391 30.391 0 0 1 2.318-3.845c.269-.379.518-.774.806-1.142l8.166 4.832v.205a62.903 62.903 0 0 0 1.313 13.049c.003.02.006.031.01.049l-6.333 9.93a4.994 4.994 0 0 1-.408-.23zm24.28 16.787a31.092 31.092 0 0 0 4.347 1.82 33.936 33.936 0 0 1-18.36-4.447L33 68.018c.105.067.212.131.324.188zm-.05-2.471L17.12 62.856c-1.89-2.295-3.59-4.723-5.051-7.318-.372-.66-.787-1.301-1.102-1.99l6.327-9.92c.14.035.296.072.473.119 3.958 1.059 7.986 1.812 12.042 2.402.237.033.435.062.604.08l7.584 13.113a290.676 290.676 0 0 1-4.007 5.51c-.226.303-.466.594-.716.883zm26.876-5.586a33.66 33.66 0 0 1-4.08 3.481 31.01 31.01 0 0 0-1.223-5.563l8.092-15.096c2.229-1.015 4.379-2.166 6.375-3.593.261-.185.478-.392.646-.618-.586 7.801-3.856 15.436-9.81 21.389zm-.359-19.578c.301.574.598 1.154.896 1.742l-7.816 14.58c-.045.01-.088.02-.133.026a71.292 71.292 0 0 1-12.779 1.229l-7.8-13.487a846.59 846.59 0 0 0 3.61-6.781c.81-1.536 1.606-3.082 2.401-4.627l16.143-1.658c1.977 2.9 3.85 5.862 5.478 8.976zm-3.275-17.294c-.766 2.023-1.586 4.025-2.401 6.031l-15.726 1.615a12.827 12.827 0 0 0-.588-.725c-1.857-2.103-3.726-4.193-5.592-6.289.017-.021.034-.037.051-.056-.753-.752-1.508-1.504-2.261-2.258l4.378-13.181a6.14 6.14 0 0 1 .913-.18c2.38-.242 4.763-.516 7.149-.654 1.461-.082 2.93-.129 4.416-.024l10.832 12.209c-.373 1.178-.737 2.359-1.171 3.512zm3.634-11.056a33.741 33.741 0 0 1 6.938 10.047 34.4 34.4 0 0 0-6.463-3.473 19.417 19.417 0 0 0-1.086-.402L48.877 6.376c.074-.519.113-1.039.129-1.563a33.729 33.729 0 0 1 11.144 7.408zM25.334 4.182c.042.031.062.057.086.064 2.437.842 4.654 2.082 6.744 3.553l-4.09 12.317a.44.44 0 0 0-.061.021c-.837.346-1.69.656-2.514 1.031-3.395 1.543-6.705 3.252-9.823 5.301l-8.071-4.775a2.44 2.44 0 0 1 .141-.736c.542-1.444 1.075-2.896 1.688-4.311a32.326 32.326 0 0 1 1.597-3.172 33.69 33.69 0 0 1 14.378-9.416c-.025.039-.051.08-.075.123z"/></symbol><symbol id="icon_study" viewBox="0 0 50 50"><path d="M45.91 20.42l-21.45-7.6a.75.75 0 0 0-.5 0l-21.45 7.6a.75.75 0 0 0 0 1.41l8.15 2.88v7.8a.75.75 0 0 0 .19.5c.18.2 4.52 4.92 13.36 4.92s13.48-4.7 13.68-4.9a.75.75 0 0 0 .21-.52V24.6l3.49-1.24v4.78a2.5 2.5 0 1 0 1.5 0v-5.31l2.82-1a.75.75 0 0 0 0-1.41zm-3.57 11.1a1 1 0 1 1 1-1 1 1 0 0 1-1 1zm-5.74.67a18.85 18.85 0 0 1-12.39 4.25c-7.15 0-11.16-3.38-12.05-4.23v-7L24 29.43a.75.75 0 0 0 .5 0l12.14-4.3zm-12.39-4.26L5 21.13l19.2-6.8 19.2 6.8z" id="Layer_2_copy"/></symbol><symbol id="icon_support-icon-1" viewBox="0 0 50 50"><g id="Layer_2_copy"><path d="M21.31 13.14A4.28 4.28 0 1 0 17 8.86a4.29 4.29 0 0 0 4.31 4.28zm0-7.07a2.78 2.78 0 1 1-2.78 2.78 2.79 2.79 0 0 1 2.78-2.78zm16.35 18.22a2.8 2.8 0 1 0-2.8-2.8 2.8 2.8 0 0 0 2.8 2.8zm0-4.09a1.3 1.3 0 1 1-1.3 1.3 1.3 1.3 0 0 1 1.3-1.3zm1.69 8.46H23.07a.75.75 0 0 0 0 1.5h2.23V49.1a.75.75 0 0 0 1.5 0v-15h9v15a.75.75 0 0 0 1.5 0V30.16h2a.75.75 0 0 0 0-1.5zm-3.5 4h-9v-2.5h9zm-3.98-8.71a.75.75 0 0 0 1 .24l1.48-.85a.75.75 0 0 0-.75-1.3l-.87.5L30.44 19a.75.75 0 1 0-1.25.82z"/><path d="M24.52 22.71a.75.75 0 0 0 .55.91l2.33.57c.8 1.24 2.46 3.55 3.82 3.55h3a.75.75 0 0 0 .66-.39L36 25.4a.75.75 0 0 0-1.31-.72l-.86 1.56h-2.61c-.45-.06-1.74-1.54-2.72-3.1a.75.75 0 0 0-.46-.33l-2.62-.65a.75.75 0 0 0-.9.55zm-1.69 2.17a.74.74 0 0 0 .24 0 .75.75 0 0 0 .24-1.46L22 23l1.19-6.51c.19-1.05-.71-2.17-2.11-2.6l-3.37-1c-1.4-.43-2.77 0-3.17 1L7.73 30.78a3.35 3.35 0 0 0 .09 2.73A3.63 3.63 0 0 0 10 35.4h.14V48a1.89 1.89 0 0 0 1.89 1.89h2.49A1.89 1.89 0 0 0 16.46 48V37.22h.14a3.45 3.45 0 0 0 1.8-.5 3.29 3.29 0 0 0 1.54-2.25l1.82-10zm-2.16-9.53c.76.23 1.1.74 1.07.89l-1.15 6.3-3-1-.46-7.25h.2zm-6.1 33h-2.5a.39.39 0 0 1-.39-.39V35.9l3.27 1V48a.39.39 0 0 1-.38.35zm3.89-14.13a1.81 1.81 0 0 1-.84 1.24 2 2 0 0 1-1.66.18L10.48 34a2.1 2.1 0 0 1-1.31-1.1 1.86 1.86 0 0 1 0-1.52l6.54-16.16.44 6.94a.75.75 0 0 0 .51.66L20.32 24z"/></g></symbol><symbol id="icon_support-icon-10" viewBox="0 0 50 50"><g id="Layer_2_copy"><path d="M49.69 39.48c-.23 0-5.56.26-8.22 1.28-1.31.5-3.23 1.36-5.08 2.2s-3.73 1.68-5 2.16c-.59.22-1.14.48-1.66.72-1.73.81-3 1.39-4.71.43C22.47 44.84 5.55 33 3.68 31.15c-.51-.49-2.06-2-2.07-2.86a.65.65 0 0 1 .23-.49c.58-.58 1.6-.3 3.6 1 2.56 1.68 8.37 5.42 10.71 6.41a4 4 0 0 0 .92 2.3 5.11 5.11 0 0 0 3.61 1.84c1.56.11 3.18.08 5.05 0h3.13a18.78 18.78 0 0 1 2.85.24 12.8 12.8 0 0 0 1.83.17 6.3 6.3 0 0 0 2.16-.38 22.21 22.21 0 0 0 4.74-2.53.75.75 0 0 0-.87-1.22A21.06 21.06 0 0 1 35.22 38a6 6 0 0 1-3.28.14 20.09 20.09 0 0 0-3.06-.25h-3.16c-1.84 0-3.43.06-4.92 0a3.6 3.6 0 0 1-2.55-1.29 2.36 2.36 0 0 1-.58-1.77 3 3 0 0 1 3.13-2.28l1 .06a34 34 0 0 0 7-.07 26.4 26.4 0 0 0 4.89-2.08c1.94-1 4.34-2.13 5.14-2.13A8.91 8.91 0 0 1 42 29.4a24.4 24.4 0 0 0 3.23 1.31c2.92.89 4.14 0 4.36-.14a.73.73 0 0 0 .1-1 .77.77 0 0 0-1-.16s-.82.54-3-.12a22.9 22.9 0 0 1-3-1.24 9.74 9.74 0 0 0-3.89-1.25c-1.07 0-2.9.86-5.8 2.29a27.25 27.25 0 0 1-4.51 2 33.2 33.2 0 0 1-6.58 0l-1-.06a4.56 4.56 0 0 0-.46 0 .74.74 0 0 0-.17-.17c-.07 0-6.7-4.42-7.48-5s-2.24-1.28-3.28-1a13.68 13.68 0 0 0-1.84.81 2.66 2.66 0 0 0-.68-.14 5.6 5.6 0 0 0-2.61.91c-1.2-.54-2.52-.76-3.57.29a2.14 2.14 0 0 0-.7 1.57c0 1.31 1.22 2.66 2.52 3.93 2 1.93 19 13.85 21.66 15.35a5 5 0 0 0 2.48.69 8.57 8.57 0 0 0 3.59-1.07c.49-.23 1-.47 1.56-.68 1.31-.5 3.23-1.36 5.08-2.2s3.73-1.68 5-2.16c2.44-.93 7.7-1.18 7.75-1.18a.75.75 0 0 0 .71-.78.74.74 0 0 0-.78-.72zm-39.8-13.1a3.67 3.67 0 0 1 2 .76c.63.44 4.76 3.17 6.61 4.39-.12.06-.24.14-.36.21a.71.71 0 0 0-.1-.09c-3-1.8-6.47-3.83-8.73-5a5.59 5.59 0 0 1 .58-.27zM6.78 27c.69.19 5.72 3.07 10.21 5.76a4 4 0 0 0-.56.94 117.18 117.18 0 0 1-10.16-6.14l-.36-.23a2.8 2.8 0 0 1 .87-.33z"/><path d="M24 26a.68.68 0 0 0 .68 0 .68.68 0 0 0 .68 0c.58-.34 14.28-8.51 13.82-17.27-.18-3.27-1.31-5.5-3.34-6.61C32 0 26.19 2.77 24.65 3.57c-1.54-.8-7.34-3.57-11.18-1.45-2 1.11-3.15 3.34-3.32 6.63C9.7 17.51 23.39 25.68 24 26zM14.19 3.43c3.63-2 10 1.61 10.1 1.65a.73.73 0 0 0 .2.06h.25a.73.73 0 0 0 .26-.05c.07 0 6.47-3.64 10.1-1.65 1.54.84 2.4 2.66 2.54 5.39C38 16.37 25.74 24 24.65 24.68c-1.09-.66-13.39-8.3-13-15.85.14-2.74.99-4.55 2.54-5.4z"/></g></symbol><symbol id="icon_support-icon-11" viewBox="0 0 50 50"><g id="Layer_2_copy"><path d="M14 26.61L6.65 24.7a.74.74 0 0 0-.65.13.75.75 0 0 0-.29.59v11.47a.75.75 0 0 0 .58.73l7.36 1.76h.17a.75.75 0 0 0 .75-.75V27.34a.75.75 0 0 0-.57-.73zm-.93 11.09l-5.86-1.4v-9.91l5.86 1.53z"/><path d="M48 4.53a.74.74 0 0 0-.65-.13L25 10.22 2.62 4.4a.74.74 0 0 0-.62.13.75.75 0 0 0-.29.59V40.2a.75.75 0 0 0 .58.73l22.5 5.37h.38l22.5-5.37a.75.75 0 0 0 .58-.73V5.13a.75.75 0 0 0-.25-.6zM24.18 44.62l-21-5V6.1l21 5.47zm22.58-5l-21 5V11.57l21-5.47z"/><path d="M5.67 10.63l15.74 4.1h.19a.75.75 0 0 0 .19-1.48L6.05 9.18a.75.75 0 1 0-.38 1.45zm0 2.53l15.74 4.1h.19a.75.75 0 0 0 .19-1.48L6.05 11.71a.75.75 0 1 0-.38 1.45zm0 2.53l15.74 4.1h.19a.75.75 0 0 0 .19-1.48L6.05 14.24a.75.75 0 1 0-.38 1.45zM29 14.75h.19l15.74-4.1a.75.75 0 0 0-.38-1.45l-15.74 4.1a.75.75 0 0 0 .19 1.45zm0 2.53h.19l15.74-4.1a.75.75 0 0 0-.38-1.45l-15.74 4.1a.75.75 0 0 0 .19 1.45zm0 2.53h.19l15.74-4.1a.75.75 0 1 0-.38-1.45l-15.74 4.1a.75.75 0 0 0 .19 1.45zm15.62-1.72l-15.74 4.1a.37.37 0 0 0 .09.74h.1l15.74-4.1a.37.37 0 0 0-.19-.73zm0 14.91l-15.74 4.1a.37.37 0 0 0 .09.74h.1l15.74-4.1a.37.37 0 1 0-.19-.73zm0 2.67l-15.74 4.1a.37.37 0 0 0 .09.74h.1l15.74-4.1a.37.37 0 0 0-.19-.73zM29.08 25.08h.1l8.56-2.23a.37.37 0 0 0-.19-.73L29 24.34a.37.37 0 0 0 .09.74zm-.48 2.5a.38.38 0 0 0 .4.42h.1l8.56-2.23a.37.37 0 1 0-.19-.73l-8.56 2.23a.37.37 0 0 0-.31.31z"/></g></symbol><symbol id="icon_support-icon-12" viewBox="0 0 50 50"><path d="M40.61 36.58l-9.25-8c1.29-1.5 2.23-2.66 2.57-3.18 1.63-2.51 2.31-4 1.94-7.34a75.12 75.12 0 0 0-1.49-7.84v-.07a3.8 3.8 0 0 0-.2-.71c-.71-1.81-2.29-3-4.82-3.74a28.66 28.66 0 0 0-8.36 0c-1.25.3-4.82 1.3-5.44 4.46-.09.25-2.16 6.28-2.11 9.06a11.59 11.59 0 0 0 1.86 5.93 38.46 38.46 0 0 0 3.07 3.47 826.69 826.69 0 0 1-9.3 8.29A.75.75 0 0 0 9 38l6.44 7.21a.75.75 0 0 0 .56.25.75.75 0 0 0 .55-.25c.32-.36 4.33-4.76 8.42-9.35l8.14 9.34a.75.75 0 0 0 .57.26.75.75 0 0 0 .57-.26l6.42-7.53a.75.75 0 0 0-.06-1.09zM21.42 7.15a23.13 23.13 0 0 1 4-.25 16.85 16.85 0 0 1 3.49.25c2 .57 3.3 1.5 3.82 2.85a5 5 0 0 1-.34 3.37 11.19 11.19 0 0 0-3.62-1.8 23.06 23.06 0 0 0-7.37 0 9.53 9.53 0 0 0-4.18 1.91 13.73 13.73 0 0 1-.22-2.1c-.19-2.63 2.13-3.61 4.42-4.23zm10.37 7.62a19 19 0 0 1-1.14 2 60.29 60.29 0 0 1-6 6.1c-2.21-2.16-5.29-5.26-5.76-6-.11-.17-.23-.33-.36-.5a7.53 7.53 0 0 1-.8-1.37 8.55 8.55 0 0 1 3.9-2 21.58 21.58 0 0 1 6.88 0 10.81 10.81 0 0 1 3.28 1.77zm-15.26 9.51a10.07 10.07 0 0 1-1.58-5.09 21.39 21.39 0 0 1 .93-5c.08.29.16.57.25.81a8.2 8.2 0 0 0 1.21 2.15l.32.45c.65 1 4.49 4.76 5.92 6.17-1.29 1.21-2.69 2.48-4.1 3.77a38 38 0 0 1-2.95-3.26zM16 43.56l-5.38-6c1.43-1.26 5.25-4.63 9.27-8.28l.11-.08c5.24-4.76 10.79-10 11.88-11.59a19.24 19.24 0 0 0 1.81-3.37c.26 1.32.53 2.8.67 4 .33 2.94-.18 4-1.7 6.36C31.5 26.39 21.58 37.44 16 43.56zm17.68 0L26 34.7c1.56-1.75 3.08-3.48 4.38-5l8.69 7.51z" id="Layer_2_copy"/></symbol><symbol id="icon_support-icon-2" viewBox="0 0 50 50"><g id="Layer_2_copy"><path d="M18.84 9.11a4.33 4.33 0 1 0-4.33-4.33 4.33 4.33 0 0 0 4.33 4.33zm0-7.16A2.83 2.83 0 1 1 16 4.78 2.83 2.83 0 0 1 18.84 2zm5.8 19.85a3.28 3.28 0 1 0 3.28 3.28 3.28 3.28 0 0 0-3.28-3.28zm0 5.06a1.78 1.78 0 1 1 1.78-1.78 1.78 1.78 0 0 1-1.78 1.78zM30 11.53a4.33 4.33 0 1 0-4.35-4.33A4.33 4.33 0 0 0 30 11.53zm0-7.16a2.83 2.83 0 1 1-2.85 2.83A2.83 2.83 0 0 1 30 4.37z"/><path d="M42.3 28.44c-.59-1.24-5.42-12.3-5.94-13.6s-1.12-2.46-2.81-2.46h-6.06c-.69-.6-2.71-2.2-4.57-2.2H15.6c-4.31 0-6.24 3.32-6.24 6.6v11.36c0 2.1.64 2.92 2.27 2.92h1.08v15.57c0 2 1.4 3.27 3.57 3.27h5a.75.75 0 0 0 .63-1.16l-.45-.7V34.15a.75.75 0 0 0-1.46-.24s-.29.86-1.12 2.7a7.81 7.81 0 0 1-1.69 2.67c-.16-.11-.2-.3.06-1 .36-.95 1.55-3.61 1.59-3.7.38-.71.66-1.31.9-1.81s.4-.83.58-1.16c.27-.54.68-.61 1.68-.61h4.8c.41 0 1.78.06 2.12.9.6 1.47 1.12 3.17 1.58 4.68.17.55.33 1.07.47 1.53.22.69.13 1 .08 1.05a.41.41 0 0 1-.21.16 19.86 19.86 0 0 1-2-5.66.75.75 0 0 0-1.48.17v13.95l-.61 1a.75.75 0 0 0 .63 1.15H32c2 0 2.94-1.1 2.94-3.26v-10.2h3a.75.75 0 0 0 .72-1l-2.36-8.39c.7 1.59 1.37 2.92 1.7 3.6a2.41 2.41 0 0 0 3.24 1.21 2.55 2.55 0 0 0 1.06-3.45zm-1.7 2.12c-.43.23-.9 0-1.25-.62-1.27-2.24-6-13.22-6-13.33a.75.75 0 0 0-1.41.5L37 35h-2.8a.75.75 0 0 0-.75.75v10.89c0 1.17-.22 1.76-1.44 1.76h-3.29a.75.75 0 0 0 .12-.4v-9.15c1 2.29 1.77 2.12 2.13 2a2 2 0 0 0 1.36-.85 2.77 2.77 0 0 0 .05-2.26c-.14-.45-.3-1-.46-1.51-.47-1.53-1-3.27-1.62-4.81-.48-1.16-1.76-1.83-3.51-1.83H22a3 3 0 0 0-3 1.31c-.2.35-.4.76-.63 1.25s-.51 1.07-.87 1.76c-.07.13-1.31 2.91-1.67 3.87-.2.54-.82 2.19.89 3 1.19.53 2.37-1.16 3.23-2.9v10.38a.77.77 0 0 0 0 .14h-3.67c-.77 0-2.07-.23-2.07-1.77V15.39a.75.75 0 0 0-1.5 0v14.17h-1.08c-.6 0-.77 0-.77-1.42V16.8c0-.52.13-5.1 4.74-5.1h7.32c1.34 0 3.18 1.44 3.77 2a.75.75 0 0 0 .51.2h6.35c.64 0 .89.19 1.42 1.51s5.38 12.44 6 13.68a1.07 1.07 0 0 1-.37 1.47z"/></g></symbol><symbol id="icon_support-icon-3" viewBox="0 0 50 50"><path d="M18 17.19a4.92 4.92 0 0 0 2.94-.73c1.59-.89 2.15-3.54 1.2-5.67a3 3 0 0 0-1.76-1.69 3.59 3.59 0 0 0-2.78.27 7 7 0 0 0-2.17 2.47l-3.67 3c-.59.29-3.36 1.9-5.15 6.9-2.15 6-2.75 20.53-2.77 21.14a.75.75 0 0 0 .75.78h3.55l.42 2.19a.72.72 0 0 0-.06.23l-.25 3.1A.75.75 0 0 0 9 50h4.53a.75.75 0 0 0 .75-.75c0-.79-.32-2.19-1.51-2.36-.24 0-.68-.47-1-.92l.8-2.3h2.83a.75.75 0 0 0 .75-.73l.33-12.33.22.2.27.36v2.41a.75.75 0 0 0 1.5 0v-.87a.75.75 0 0 0 .58-.27l.25-.3a.73.73 0 0 0 .22.09s.51.12.51.88v15.75a.75.75 0 0 0 1.5 0V33.08a2.32 2.32 0 0 0-1.24-2.18l.52-.62a.75.75 0 0 0-.29-1.17l-1.73-.71-2.07-2.33v-.05c.28-2.93 1.1-7.85 1.28-8.83zm2.21-2c-.72.4-2 .9-2.7.23l2-2.08 1.49-.96a2.79 2.79 0 0 1-.79 2.77zm-3.6-2.37l.06-.09a5.89 5.89 0 0 1 1.62-2 2.15 2.15 0 0 1 1.6-.18 1.34 1.34 0 0 1 .61.45l-1.87 1.1a.76.76 0 0 0-.16.13L16.77 14a4.09 4.09 0 0 1-.16-1.22zm-1.19 1.88l-.69.07a.72.72 0 0 0-.19.06l-.25-.12.93-.75a6 6 0 0 0 .2.71zm-2.88 33.63a.31.31 0 0 1 .08.13H9.81l.13-1.67h.58a3.53 3.53 0 0 0 2.02 1.54zm-2.16-3H10l-.32-1.67H11zm7.84-15l.35-.39.46.19-.5.6zm-1-1.11l-5.1-4.71.06-5.25a.75.75 0 0 0-.74-.76.75.75 0 0 0-.75.74l-.09 5.56a.75.75 0 0 0 .24.56L15 29.21l-.35 12.91H5.37C5.53 39 6.23 27.24 8 22.2c1.69-4.74 4.29-6 4.41-6.07a1.68 1.68 0 0 1 1.59.08 1 1 0 0 1 .43.53c-.12.72-1.41 6.92-1.42 7a.75.75 0 0 0 .17.65L17.36 29zm-2.62-5.54c.28-1.37 1.25-6 1.36-6.67a1.63 1.63 0 0 0-.12-.86h.33a2.83 2.83 0 0 0 .47.5.72.72 0 0 0-.06.14c0 .21-.83 4.51-1.18 7.82zm28.58 22.24a.74.74 0 0 0 .08-.31l.54-21.1a.73.73 0 0 0 0-.11.72.72 0 0 0 0-.1c-.3-.91-2.28-7-3.71-10.78a.73.73 0 0 0-.1-.27 19.68 19.68 0 0 0-1.14-2.65c-.88-1.38-2.72-1.51-3.7-1.47a5.11 5.11 0 0 0 .29-1V8a5.61 5.61 0 0 0-.72-3.74l1.42-.78a.75.75 0 1 0-.72-1.31l-1 .54h-.05l-3.61-1.5a.75.75 0 0 0-.8.15l-3.59 3.38a.75.75 0 0 0-.18.83l.56 1.37-1.75.94a.75.75 0 1 0 .72 1.31l1.1-.61c.22 1.24.78 3.56 2.05 4.49a2.13 2.13 0 0 0 1.27.43 2.2 2.2 0 0 0 .42 0 27.76 27.76 0 0 0 1.21 4.3c.47 1 1.49 3.48 1.9 4.47l-3.06 3.37a.74.74 0 0 0-.18.44l-1.7.77a.75.75 0 0 0-.17 1.26l.32.27a3.37 3.37 0 0 0-.73 2.25v18.23a.75.75 0 0 0 1.5 0V30.6a1.9 1.9 0 0 1 .37-1.29L31 30a.75.75 0 0 0 .48.18h.09v.67a.75.75 0 1 0 1.5 0v-2.27a.73.73 0 0 0-.11-.37.75.75 0 0 0 .52-.22l1.71-1.73.68 1.79 2.01 17.25c-.66.28-1.55.66-2.4 1.06a2.21 2.21 0 0 0-1.29 1.4 2.41 2.41 0 0 0 .33 1.85.75.75 0 0 0 .62.33h3.47a.75.75 0 0 0 .37-.1l.62-.35.57.31a.75.75 0 0 0 .36.09h2.15a.75.75 0 0 0 .75-.75v-2.67a.74.74 0 0 0-.25-.55zm-3.85-1.19l-2-16.43 4.9-2.55-.49 19.07zM33.41 5.09a2.38 2.38 0 0 1 .52 1.41c-.27-.2-.54-.4-.72-.56a1.15 1.15 0 0 0-1-.28 1.31 1.31 0 0 0-.17.06L33.33 5zm-5.63.39l2.86-2.7 2.09.87-4.66 2.56zm3.65.6l-.09.06zm-1.63 5.79c-.83-.6-1.36-2.73-1.54-4.05l1.73-1 .38 1a.75.75 0 0 0 .63.58.76.76 0 0 0 .72-.4 3.84 3.84 0 0 1 .66-.82c.43.35 1 .77 1.43 1-.4 1.41-1.81 3.47-3.49 3.82a.61.61 0 0 1-.52-.13zm3.38 5.29A28.53 28.53 0 0 1 32 12.92a7.12 7.12 0 0 0 2.33-2.33.74.74 0 0 0 .36 0h.21c-.78.93-1 2.35-.51 4.25.25 1.06 1 4.08 1.32 5.17l-.9 1c-.47-1.17-1.23-3.01-1.63-3.86zm-2.05 11.07l-.64-.53 1-.44zm1.72-1.77l-.54-.46 2.82-3.1 2-2.17a.75.75 0 0 0 .17-.69s-1.12-4.27-1.42-5.53c-.62-2.62.22-3.26 1.23-3.55a1.31 1.31 0 0 1 .45.4 19.06 19.06 0 0 1 1 2.43l-.13 7-3.29 3.33a.74.74 0 0 0-.43.45zm6.88-4.82a.75.75 0 0 0 .22-.51l.05-3.34c.73 2.11 1.5 4.39 2.13 6.33L37 26.82l-.65-1.72zm2.2 26.75h-1.21L40 48a.75.75 0 0 0-.73 0l-.81.46h-2.83a.61.61 0 0 1 0-.29.8.8 0 0 1 .48-.44c1.55-.73 3.31-1.43 3.33-1.43h.07l2.45.09a.72.72 0 0 0 0 .15z" id="Layer_2_copy"/></symbol><symbol id="icon_support-icon-4" viewBox="0 0 50 50"><g id="Layer_2_copy"><path d="M49.54 49l-1.8-7.13a.75.75 0 0 0-.42-.5l-14.46-6.55v-7.06c2.18-4.39 2.34-10.19 2.33-12.28h.56l.2-.42a6.66 6.66 0 0 0-.56-6.29c-1.31-2.09-4.28-4.58-11-4.58-8.45 0-13.05 7.45-13.25 11.63-.09 1.94.77 3.23 2.26 3.38h1.01a22.78 22.78 0 0 0 2.39 8.55v7.08L2.35 41.34a.75.75 0 0 0-.42.5L.14 49a.75.75 0 0 0 .73.93h48a.75.75 0 0 0 .73-.93zm-17.77-8.14l1.93 2.34-6.08 5.2H26l6.26-11.83 2.52 3.06h-2.43a.75.75 0 0 0-.58 1.23zM22 48.4l-6.08-5.2 1.93-2.34a.75.75 0 0 0-.58-1.23h-2.49l2.42-2.93 6.32 11.7zm4.26-3.62c-.32 0-.83.06-1.65.06a10.32 10.32 0 0 1-1.33-.07l-.47-.86a8.28 8.28 0 0 0 1.79.19 8.56 8.56 0 0 0 2.16-.27zm-.41.78l-1.06 2-1.08-2h.9c.48.03.89.02 1.22.01zm1.42-2.68a7.38 7.38 0 0 1-2.66.47 6.92 6.92 0 0 1-2.3-.35l-.5-.92a8.33 8.33 0 0 0 2.78.53 8.6 8.6 0 0 0 3.19-.72zm1.11-2.09a8.86 8.86 0 0 1-3.77 1.06 8.29 8.29 0 0 1-3.36-.85l-.51-.94a10 10 0 0 0 3.85 1A11.51 11.51 0 0 0 28.76 40zm1-1.86a12.64 12.64 0 0 1-4.75 1.43 11 11 0 0 1-4.5-1.36l-.81-1.5a11.15 11.15 0 0 0 5.46 1.67A11.27 11.27 0 0 0 30 37.6zm4.34-23H18.55c.06-.18.12-.36.15-.51h15c-.01.2-.01.37-.01.58zm-20.15 1.76c-.82-.08-.95-1-.91-1.81.17-3.56 4.36-10.2 11.76-10.2 4.69 0 8.13 1.38 9.7 3.88a5.36 5.36 0 0 1 .65 4.44H17.39l-.06.69A4 4 0 0 1 16.12 17a3.35 3.35 0 0 1-2.55.69zm3.51.51a4.5 4.5 0 0 0 1-1.23h15.58c-.12 3.28-.78 9.41-3.84 12.62a6.41 6.41 0 0 1-4.87 2.06c-6.4 0-8.67-7.81-9-12.78a4.19 4.19 0 0 0 1.13-.67zm7.87 15a7.94 7.94 0 0 0 6-2.53c.16-.17.31-.34.45-.51v4.83c-.84.66-3.67 2.69-6.58 2.69s-5.65-2-6.47-2.68v-5a8.39 8.39 0 0 0 6.6 3.15zM3.3 42.56l11.35-5.12-2 2.47a.75.75 0 0 0 .58 1.23h2.46l-1.38 1.68a.75.75 0 0 0 .09 1l5.31 4.54H1.83zm26.62 5.84l5.31-4.54a.75.75 0 0 0 .09-1l-1.38-1.68h2.46a.75.75 0 0 0 .6-1.27l-2.09-2.53 11.49 5.18 1.47 5.84z"/><path d="M25.43 13.55c1.35 0 2.36-1.69 2.36-2.78v-3h-4.9v3a2.87 2.87 0 0 0 2.54 2.78zm-1-4.28h1.87v1.5c0 .49-.58 1.28-.86 1.28a1.42 1.42 0 0 1-1-1.3z"/></g></symbol><symbol id="icon_support-icon-5" viewBox="0 0 50 50"><g id="Layer_2_copy"><path d="M27.05 25.63A2.61 2.61 0 0 0 27.2 23l8.3-4.72a.75.75 0 0 0 .35-.86l-4.25-15a.75.75 0 0 0-.72-.55H18a.75.75 0 0 0-.24.13.74.74 0 0 0-.14.16v.09a.72.72 0 0 0 0 .1l-4 15.22a.75.75 0 0 0 .38.86L22.47 23a2.61 2.61 0 0 0 .16 2.66 11.84 11.84 0 1 0 4.42 0zm-2.85-2.41l.65-.19.64.19a1.14 1.14 0 0 1 .52.94 1.16 1.16 0 0 1-2.32 0 1.14 1.14 0 0 1 .51-.94zm10.05-6l-8.12 4.62a2.63 2.63 0 0 0-1.28-.34 2.63 2.63 0 0 0-.42 0L19.19 3.31h11.12zm-16-11.84l4.63 16.1L15 17.4zm6.62 42.21a10.34 10.34 0 1 1 10.31-10.34 10.35 10.35 0 0 1-10.34 10.34z"/><path d="M24.84 29.63a7.63 7.63 0 1 0 7.63 7.63 7.64 7.64 0 0 0-7.63-7.63zm0 13.76A6.13 6.13 0 1 1 31 37.25a6.13 6.13 0 0 1-6.16 6.13z"/></g></symbol><symbol id="icon_support-icon-6" viewBox="0 0 50 50"><g id="Layer_2_copy"><path d="M39.12 34.49a.75.75 0 0 0-.71-.52h-8.84l-2.43-7.47A2.61 2.61 0 0 0 28.3 23l8.7-4.55a.75.75 0 0 0 .38-.86l-4-15.22a.72.72 0 0 0 0-.1v-.09a.74.74 0 0 0-.3-.18.75.75 0 0 0-.24-.13H19.89a.75.75 0 0 0-.72.55l-4.25 15a.75.75 0 0 0 .35.86l8.3 4.72a2.63 2.63 0 0 0-.3 1.2 2.65 2.65 0 0 0 1.79 2.5L22.69 34h-8.84a.75.75 0 0 0-.44 1.36l7.15 5.19-2.73 8.4a.75.75 0 0 0 1.15.84l7.15-5.19 7.15 5.19a.75.75 0 0 0 1.15-.84l-2.73-8.4 7.15-5.19a.75.75 0 0 0 .27-.87zm-11.2-13l4.63-16.1 3.19 12zM20.46 3.31h11.12l-5.23 18.23a2.43 2.43 0 0 0-1.7.3l-8.12-4.62zm4.82 19.91l.64-.19.65.19a1.12 1.12 0 0 1-.09 1.93.71.71 0 0 0-.86.1 1.12 1.12 0 0 1-.34-2zm5.1 16.41a.75.75 0 0 0-.27.84l2.19 6.73-5.73-4.2a.75.75 0 0 0-.88 0L20 47.19l2.19-6.73a.75.75 0 0 0-.27-.84l-5.72-4.16h7.07a.75.75 0 0 0 .71-.52l2.18-6.73L28.32 35a.75.75 0 0 0 .71.52h7.07z"/><path d="M26.61 33.94a.52.52 0 0 0-1 0l-.94 2.88h-3a.5.5 0 0 0-.29.9l2.45 1.78-.94 2.88a.5.5 0 0 0 .77.56l2.45-1.78L28.59 43a.5.5 0 0 0 .77-.56l-.94-2.88 2.45-1.78a.5.5 0 0 0-.29-.9h-3zm.93 5a.5.5 0 0 0-.18.56l.57 1.77-1.5-1.09a.5.5 0 0 0-.59 0l-1.5 1.09.57-1.77a.5.5 0 0 0-.18-.56l-1.5-1.09h1.86a.5.5 0 0 0 .48-.35l.57-1.77.57 1.77a.5.5 0 0 0 .48.35H29z"/></g></symbol><symbol id="icon_support-icon-7" viewBox="0 0 50 50"><path d="M49.71 16.93a.75.75 0 0 0 0-1.5h-1.45v-5.15h1.45a.75.75 0 0 0 0-1.5h-1.45v-5a.75.75 0 0 0-1.5 0v5H42.4v-5a.75.75 0 0 0-1.5 0v5h-4.72v-5a.75.75 0 0 0-1.5 0v5H30v-5a.75.75 0 0 0-1.5 0v5H28a.75.75 0 0 0-.29.06 14.48 14.48 0 0 0-5.68-1.58c-6.22-.65-8.62 2.56-9.49 4.53-1.25 2.91-.54 7.42-.54 7.62a.76.76 0 0 0 .08.25l.13.24a3.11 3.11 0 0 0-.39 2.54c.31 1.55.79 3.12.81 3.19a.75.75 0 0 0 .27.39l.81.59a20 20 0 0 0 2.14 3.66l-1.15 1.68c-1.36.48-8.3 2.91-9.87 3.59a5.67 5.67 0 0 0-3.6 4.35c-.41 2-1.27 8.89-1.31 9.18a.75.75 0 0 0 .74.84h41.85a.75.75 0 0 0 .74-.86c0-.32-1.22-7.94-1.63-10-.5-2.5-3.75-3.84-5.12-4.29S29.93 32.4 28.75 32a.72.72 0 0 0-.06-.17l-1.14-1.93c.35-.49.67-1 .95-1.45v1.9a.75.75 0 0 0 1.5 0v-4.58l.67-.58a.75.75 0 0 0 .24-.41l.24-1.14h3.53v6.59a.75.75 0 0 0 1.5 0v-6.58h4.72v6.59a.75.75 0 0 0 1.5 0v-6.59h4.36v6.59a.75.75 0 0 0 1.5 0v-6.59h1.45a.75.75 0 0 0 0-1.5h-1.45v-5.22zm-2.95-6.65v5.15H42.4v-5.15zm-5.86 0v5.15h-4.72v-5.15zm-6.23 0v5.15H31.2a10.63 10.63 0 0 0-.16-2 6.75 6.75 0 0 0-1-2.59v-.61zM14 12.4c1.23-2.76 4.05-4.05 8-3.65 3.33.35 5.45 1.17 6.62 2.65a.73.73 0 0 0 .27.37 5.43 5.43 0 0 1 .76 2 12.91 12.91 0 0 1-.16 4.56c-.34-1.1-.9-2.07-1.8-2.29-.94-.38-2.15.16-3.43.73a8.06 8.06 0 0 1-2.45.82 5.53 5.53 0 0 1-2.14-.7c-1.22-.57-2.61-1.21-3.94-.72s-1.73 1.94-1.95 3.36l-.24-.45c-.19-.74-.59-4.41.46-6.68zm26.2 27c.32 1.59 1.15 6.93 1.48 9H1.52c.25-1.95.87-6.72 1.18-8.22a4.18 4.18 0 0 1 2.72-3.27c1.45-.62 8-2.91 9.62-3.49l6.08 4.82a.75.75 0 0 0 .92 0l6.32-4.83c1.44.53 6.4 2.36 7.66 2.78.89.31 3.78 1.4 4.14 3.18zm-12.87-7l-5.73 4.3-5.41-4.29.65-1a6.7 6.7 0 0 0 4.75 2.45c1.94 0 3.63-1.26 5-2.78zm-5.69 0c-1.64 0-3.08-1.21-4.2-2.59a18.77 18.77 0 0 1-2.39-4 .75.75 0 0 0-.25-.32l-.8-.55c-.14-.49-.48-1.67-.7-2.8a2.73 2.73 0 0 1 0-.31l.41.75a.75.75 0 0 0 .66.39h.2a.75.75 0 0 0 .55-.76c-.09-1.74.24-4.31 1.1-4.63s1.79.21 2.79.67a6.55 6.55 0 0 0 2.82.84 8.88 8.88 0 0 0 3-1c.73-.32 1.94-.86 2.27-.71l.18.06c.54.1 1.13 2.28 1.22 4.48a.75.75 0 0 0 1.45.24L30 22l-.09.41a.73.73 0 0 0-.17.46.72.72 0 0 0 0 .18l-.24 1.15-.85.73a.74.74 0 0 0-.2.28c-.83 2.02-3.68 7.2-6.86 7.2zm9.88-10.27l.3-1.42a.75.75 0 0 0-.3-.77l-.76-.53a20.88 20.88 0 0 0 .42-2.49h3.56v5.21zm4.71 0v-5.2h4.67v5.21zm10.58 0H42.4v-5.2h4.36z" id="Layer_2_copy"/></symbol><symbol id="icon_support-icon-8" viewBox="0 0 50 50"><g id="Layer_2_copy"><path d="M24.71 15.64a4.33 4.33 0 1 0-4.33-4.33 4.33 4.33 0 0 0 4.33 4.33zm0-7.16a2.83 2.83 0 1 1-2.83 2.83 2.83 2.83 0 0 1 2.83-2.82zM28.61 39a.75.75 0 0 0-.85.63 9.52 9.52 0 1 1-15.84-8.43.75.75 0 1 0-1-1.11 11 11 0 1 0 18.34 9.75.75.75 0 0 0-.65-.84z"/><path d="M44.56 43.09l-.45-.63-.7-1a1.53 1.53 0 0 0-2-.48L39.1 42.1c-1.6-2.92-4.84-8.85-5.13-9.47-.55-1.19-2.28-1.77-3.64-2-1-.2-4.67-.79-6.26-1 .33-2 1.2-7.22 1.3-8.83.16-2.35-.73-3.59-2.87-4a7.49 7.49 0 0 0-3.46.26c-2.89 1-9.64 3.55-10 4.09L7.73 23c-1.16 1.65-2.6 3.71-3 4.32a2.94 2.94 0 0 0 .57 3.9 2.74 2.74 0 0 0 3.47-.56c.5-.59 3.29-4.77 4-5.82.57-.24 2.14-.89 2.67-1.15-.29 1.54-1.1 6-1.28 7.36-.26 2 1.47 4.4 2.89 4.59L29.3 37.4c.94 1.69 5.15 9.18 5.75 10.12a3.14 3.14 0 0 0 2.53 1.6 2.07 2.07 0 0 0 1-.25c.84-.45 5.14-3.28 5.55-3.58a1.65 1.65 0 0 0 .43-2.2zm-1.34.91c-.29.21-4.59 3.05-5.38 3.48-.42.23-1.1-.14-1.54-.84-.64-1-5.83-10.28-5.88-10.37a.75.75 0 0 0-.55-.38l-12.64-1.77a3.39 3.39 0 0 1-1.61-2.91c.21-1.62 1.36-7.74 1.37-7.8a.75.75 0 0 0-.18-.64 1.91 1.91 0 0 0-1.34-.64 1.44 1.44 0 0 0-.65.16c-.44.22-2.21 1-2.86 1.23a.75.75 0 0 0-.34.28c-1.41 2.12-3.64 5.43-4 5.87a1.29 1.29 0 0 1-1.46.33A1.45 1.45 0 0 1 6 28.12c.39-.6 1.89-2.73 3-4.28L10.26 22c1.08-.54 8.32-3.27 9.32-3.63a6.07 6.07 0 0 1 2.65-.19c1.4.28 1.77.82 1.66 2.45-.12 1.88-1.4 9.35-1.41 9.42a.75.75 0 0 0 .62.87c.06 0 5.69.91 7 1.16 1.54.31 2.4.82 2.57 1.19.39.85 5.31 9.81 5.52 10.19a.75.75 0 0 0 1 .31L42 42.33h.14l.72 1 .41.54a.27.27 0 0 1-.05.13z"/></g></symbol><symbol id="icon_support-icon-9" viewBox="0 0 50 50"><g id="Layer_2_copy"><path d="M30.22 13.22a4.33 4.33 0 1 0-4.33-4.33 4.33 4.33 0 0 0 4.33 4.33zm0-7.16a2.83 2.83 0 1 1-2.83 2.83 2.83 2.83 0 0 1 2.83-2.82zM14.2 31.09a4 4 0 1 0-4-4 4 4 0 0 0 4 4zm0-6.42a2.46 2.46 0 1 1-2.46 2.46 2.46 2.46 0 0 1 2.46-2.47zm28.75 4.24c-.27-.89-2.52-9-3-10.9s-1-2.69-2-3c-.56-.21-3.86-1.27-4-1.31l-.27-.09-.26.11a6 6 0 0 1-1.54.42 14 14 0 0 1-2.19-.14h-.26c-1.57.34-4.29 1.09-4.78 2.3-.42 1-3.35 9.38-4 11.53-.52 1.63.31 2.26.69 2.46a2.22 2.22 0 0 0 2.54-.48 70.5 70.5 0 0 0 3-7.59 2.17 2.17 0 0 1 .11-.28c0 1.26-.61 22.42-.69 24.41A3.52 3.52 0 0 0 27 49a2.15 2.15 0 0 0 1.61.62 2.33 2.33 0 0 0 2.16-1.78v-.15c0-.13.89-12.78 1-13.59a3.29 3.29 0 0 1 .19-.89 3.64 3.64 0 0 1 .09.55c0 .22.1 1.35.21 2.87.27 3.77.67 9.46.82 10.68.28 2.37 1.75 2.37 2.45 2.37a2 2 0 0 0 2.25-1.85c0-.39-.07-3.7-.26-9.53s-.44-13.65-.43-15.91c.39 1.57 1 4.37 1.37 5.78l.24 1a3.25 3.25 0 0 0 1.58 2.06 1.71 1.71 0 0 0 1.39.18 2 2 0 0 0 1.28-2.5zm-1.74 1.14a1.6 1.6 0 0 1-1-1.16l-.24-1c-.91-3.89-1.54-6.57-1.69-7a1.39 1.39 0 0 0-1.41-1.05c-.71.09-1.12.76-1.21 2-.08 1 .13 7.83.42 16.6.14 4.41.29 9 .27 9.37 0 .13 0 .47-.75.47s-.84 0-1-1-.56-7.08-.81-10.61c-.11-1.53-.19-2.67-.21-2.9-.16-1.81-.94-2.19-1.57-2.19-1.1 0-1.61 1.36-1.7 2.53-.07.79-.86 12.25-1 13.51-.06.17-.27.63-.69.63s-.48-.25-.52-.25-.33-.51-.29-1.59.76-23.84.68-24.63a1.66 1.66 0 0 0-1.35-1.49c-.35 0-1.2 0-1.68 1.46-.58 1.75-2.48 6.65-2.8 7.14a.83.83 0 0 1-.69.07s-.08-.22.06-.66c.67-2.06 3.61-10.43 4-11.41.22-.36 1.91-1 3.58-1.38a14.93 14.93 0 0 0 2.39.09 7.08 7.08 0 0 0 1.74-.43c1.08.35 3.27 1.05 3.67 1.2.19.07.57.21 1 2s2.74 10.06 3 11a.51.51 0 0 1-.2.69z"/><path d="M18.78 30.34a13.22 13.22 0 0 1-2.18.88l-1.14.28-.19.08a6.4 6.4 0 0 1-3.44.05 2.78 2.78 0 0 0-3.4.16 39.43 39.43 0 0 0-4 5.15c-1.14 1.73-.25 2.59.05 2.82a1.67 1.67 0 0 0 2.12 0c.25-.3 1.43-1.64 2.25-2.52a1 1 0 0 1 .12.51c0 .21-.08.79-.17 1.57-.25 2.2-.68 5.88-.68 7.58a2.44 2.44 0 0 0 .71 2 2 2 0 0 0 1.78.19l.26-.06c.82-.08 1-.94 1.38-3a18.85 18.85 0 0 1 .83-3.32 18.13 18.13 0 0 1 .92 3.72c.12.72.23 1.34.34 1.74a1.76 1.76 0 0 0 1.77 1.37h.32c.63-.1 1.57-.54 1.57-1.22 0-.07 0-.57-.12-1.32-.22-2.28-.68-7-.68-9.2s.95-2.67 2.25-3.51l.72-.48a3.2 3.2 0 0 0 1.55-2 1.7 1.7 0 0 0-.36-1.32c-.36-.42-1.13-1.05-2.58-.15zm.53 2.24l-.67.45c-1.38.89-2.94 1.9-2.94 4.77 0 2.24.46 7 .69 9.34l.08.85A.82.82 0 0 1 16 48s-.12 0-.18-.25-.2-.94-.31-1.59C15 43.5 14.6 41 13.09 41H13c-1.21.11-1.63 1.86-2.17 4.72-.12.65-.28 1.49-.41 1.88h-.12a2.53 2.53 0 0 1-.49.09s-.14-.16-.14-.86c0-1.62.42-5.24.67-7.41.09-.81.16-1.42.18-1.64a2.2 2.2 0 0 0-1.1-2.1 1.36 1.36 0 0 0-1.57.4c-.66.71-1.8 2-2.24 2.51a.37.37 0 0 1-.19-.06s-.06-.22.31-.79a39.22 39.22 0 0 1 3.74-4.86 1.31 1.31 0 0 1 1.49-.07c1 .73 3.92.6 5 .11l1.1-.28a14.48 14.48 0 0 0 2.56-1c.41-.25.56-.23.6-.19s.08.16.08.18-.16.37-.99.95z"/></g></symbol><symbol id="icon_table" viewBox="0 0 28 20"><path class="st1" d="M15.1 0H0v20h28V0H15.1zm0 12V8h4.4v4h-4.4zm4.4 2v4h-4.4v-4h4.4zm-6.4-2H2V8h11.1v4zm8.4-4H26v4h-4.5V8zM26 6h-4.5V2H26v4zm-6.5-4v4h-4.4V2h4.4zm-6.4 0v4H2V2h11.1zM2 14h11.1v4H2v-4zm19.5 4v-4H26v4h-4.5z" id="Layer_2_copy"/></symbol><symbol id="icon_telegram" viewBox="-34 43.4 18 15.1"><path d="M-27.2 57.6l.3-4.2 7.7-6.9c.3-.3-.1-.5-.5-.2l-9.5 6-4.1-1.3c-.9-.2-.9-.9.2-1.3l16-6.2c.7-.3 1.4.2 1.1 1.3l-2.7 12.8c-.2.9-.7 1.1-1.5.7l-4.1-3.1-2 1.9c-.3.4-.5.5-.9.5z"/></symbol><symbol id="icon_triangle-arrow" viewBox="0 0 9 18"><path d="M0 0v18l9-9z"/></symbol><symbol id="icon_tw" viewBox="0 0 24.12 20.68"><path d="M21.66 5.89v-.68a10 10 0 0 0 2.48-2.65 9.45 9.45 0 0 1-2.84.78A5 5 0 0 0 23.45.5a9.44 9.44 0 0 1-3.14 1.2A4.91 4.91 0 0 0 16.7 0a5 5 0 0 0-4.95 5.16 5.29 5.29 0 0 0 .13 1.19A13.92 13.92 0 0 1 1.68.72 5.46 5.46 0 0 0 1 3.36a5.43 5.43 0 0 0 2.21 4.42A4.75 4.75 0 0 1 1 7.1v.07a5.27 5.27 0 0 0 4 5.21 4.82 4.82 0 0 1-1.3.18 4.79 4.79 0 0 1-.93-.11 5 5 0 0 0 4.62 3.69 9.55 9.55 0 0 1-6.14 2.24A9.62 9.62 0 0 1 0 18.29a13.28 13.28 0 0 0 7.59 2.38c9.1 0 14.08-7.92 14.08-14.79zm0 0" fill-rule="evenodd"/></symbol><symbol id="icon_user" viewBox="0 0 15.6 16.5"><path class="cls-1" d="M14.11 9a6.09 6.09 0 0 0-2-1.62A5 5 0 0 0 12.65 5 5 5 0 0 0 2.58 5a5 5 0 0 0 .66 2.44A6 6 0 0 0 1.49 9 7.36 7.36 0 0 0 0 13.57c0 1.09.15 2.93 1.19 2.93h13.22c1 0 1.19-1.83 1.19-2.93A7.36 7.36 0 0 0 14.11 9zM7.62 1.5A3.54 3.54 0 1 1 4.08 5a3.54 3.54 0 0 1 3.54-3.5zM14 15H1.65a6.62 6.62 0 0 1 .66-4.61 4.55 4.55 0 0 1 1.86-1.7 5 5 0 0 0 7-.12 4.61 4.61 0 0 1 2.1 1.82A6.62 6.62 0 0 1 14 15z" id="Layer_2"/></symbol><symbol id="icon_user_2" viewBox="974 -846 1536 1792"><path d="M2175-62c31.3 9.3 61.2 22 89.5 38s58 40.3 89 73 57.5 71.2 79.5 115.5 40.3 101.7 55 172 22 149.2 22 236.5c0 102.7-33.3 190.5-100 263.5S2263 946 2169 946h-854c-94 0-174.3-36.5-241-109.5S974 675.7 974 573c0-87.3 7.3-166.2 22-236.5s33-127.7 55-172 48.5-82.8 79.5-115.5 60.7-57 89-73 58.2-28.7 89.5-38c-52.7-83.3-79-174-79-272 0-69.3 13.5-135.5 40.5-198.5S1334-650 1380-696s100.5-82.5 163.5-109.5S1672.7-846 1742-846s135.5 13.5 198.5 40.5S2058-742 2104-696s82.5 100.5 109.5 163.5S2254-403.3 2254-334c0 98-26.3 188.7-79 272zm-433-656c-106 0-196.5 37.5-271.5 112.5S1358-440 1358-334s37.5 196.5 112.5 271.5S1636 50 1742 50s196.5-37.5 271.5-112.5S2126-228 2126-334s-37.5-196.5-112.5-271.5S1848-718 1742-718zm427 1536c58.7 0 108.8-23.8 150.5-71.5S2382 641 2382 573c0-159.3-26.2-285-78.5-377S2176 55.7 2078 51c-96.7 84.7-208.7 127-336 127s-239.3-42.3-336-127c-98 4.7-173.2 53-225.5 145S1102 413.7 1102 573c0 68 20.8 125.8 62.5 173.5S1256.3 818 1315 818h854z"/></symbol><symbol id="icon_vk" viewBox="0 0 22 12.55"><path d="M21.88 11.34l-.07-.14a11.41 11.41 0 0 0-2.19-2.53q-.73-.7-.93-.94a.88.88 0 0 1-.16-.93 8.65 8.65 0 0 1 1-1.5l.74-1q2-2.64 1.72-3.37L21.9.79a.67.67 0 0 0-.35-.19 1.79 1.79 0 0 0-.73 0h-3.3a.43.43 0 0 0-.23 0h-.21a.5.5 0 0 0-.13.12.79.79 0 0 0-.11.2 18.73 18.73 0 0 1-1.27 2.68q-.42.71-.78 1.23a6 6 0 0 1-.6.77 4.12 4.12 0 0 1-.44.39c-.13.1-.23.14-.3.13h-.19a.75.75 0 0 1-.26-.33 1.25 1.25 0 0 1-.13-.45V1.46a2.64 2.64 0 0 0 0-.52 1.77 1.77 0 0 0-.12-.37.61.61 0 0 0-.23-.27 1.32 1.32 0 0 0-.38-.16A7.68 7.68 0 0 0 10.58 0a7.52 7.52 0 0 0-2.73.28 1.54 1.54 0 0 0-.44.34q-.2.25-.06.28a1.41 1.41 0 0 1 1 .49l.07.14a2.16 2.16 0 0 1 .16.53 5.29 5.29 0 0 1 .1.84 8.83 8.83 0 0 1 0 1.43q-.06.59-.11.93a1.86 1.86 0 0 1-.15.54 2.18 2.18 0 0 1-.16.2l-.06.1a.85.85 0 0 1-.31.06A.73.73 0 0 1 7.5 6a2.75 2.75 0 0 1-.5-.45 5.89 5.89 0 0 1-.56-.78q-.31-.5-.64-1.19l-.18-.33q-.17-.32-.47-.93t-.5-1.2a.76.76 0 0 0-.27-.36h-.06L4.14.63a1.22 1.22 0 0 0-.27-.08L.73.57a.8.8 0 0 0-.65.22L0 .86A.37.37 0 0 0 0 1a.91.91 0 0 0 .07.31Q.76 3 1.56 4.47T3 6.89q.6.92 1.21 1.73t.82 1l.32.34.29.28a6.73 6.73 0 0 0 .81.66 13.76 13.76 0 0 0 1.18.76 6.41 6.41 0 0 0 1.51.61 5.19 5.19 0 0 0 1.67.19h1.32a.91.91 0 0 0 .61-.25v-.06a.76.76 0 0 0 .09-.21 1.16 1.16 0 0 0 0-.31 3.8 3.8 0 0 1 .07-.89 2.33 2.33 0 0 1 .2-.6 1.44 1.44 0 0 1 .25-.34 1 1 0 0 1 .19-.17h.09a.73.73 0 0 1 .65.18 3.84 3.84 0 0 1 .7.66q.33.4.78.89a5.47 5.47 0 0 0 .8.73l.23.14a2.77 2.77 0 0 0 .6.25 1.28 1.28 0 0 0 .64.06h2.93a1.33 1.33 0 0 0 .68-.14.57.57 0 0 0 .36-.4.89.89 0 0 0 0-.39 1.49 1.49 0 0 0-.08-.3zm0 0"/></symbol><symbol id="icon_wifi" viewBox="0 0 50 50"><g id="Layer_2_copy"><circle cx="25.57" cy="36.59" r="4.37"/><path d="M12.09 30.89a1 1 0 0 1-.81-1.58c2.89-4.06 8.36-6.58 14.29-6.58 5.4 0 10.44 2.08 13.5 5.58a1 1 0 1 1-1.51 1.32c-2.68-3.06-7.16-4.89-12-4.89-5.29 0-10.14 2.2-12.66 5.74a1 1 0 0 1-.81.41z"/><path d="M45.71 23.47a1 1 0 0 1-.74-.33 26 26 0 0 0-19.41-8.23 26 26 0 0 0-19.4 8.23 1 1 0 0 1-1.48-1.34 28 28 0 0 1 20.89-8.89 28 28 0 0 1 20.89 8.89 1 1 0 0 1-.74 1.67z"/></g></symbol><symbol id="icon_windows" viewBox="0 0 480 480"><path d="M.176 224L.001 67.963l192-26.072V224H.176zM224.001 37.241L479.937 0v224H224.001V37.241zM479.999 256l-.062 224-255.936-36.008V256h255.998zM192.001 439.918L.157 413.621.147 256h191.854v183.918z"/></symbol><symbol id="icon_youtube-play" viewBox="-35 43 20 16"><path d="M-27 55.5v-9l6 4.5m4-7.6c-.6-.2-4.3-.4-8-.4s-7.4.2-8 .4c-1.6.5-2 4-2 7.6 0 3.6.4 7.1 2 7.6.6.2 4.3.4 8 .4s7.4-.2 8-.4c1.6-.5 2-4 2-7.6 0-3.6-.4-7.1-2-7.6z"/></symbol><symbol id="icon_yt" viewBox="0 0 21.35 15.5"><path d="M21.27 4.41v-.18A4.52 4.52 0 0 0 16.89.06L14 0H4.39A4.47 4.47 0 0 0 .08 4.24v.17A96.59 96.59 0 0 0 .07 11v.18a4.49 4.49 0 0 0 4.34 4.19l3 .06h6.61l2.89-.06a4.54 4.54 0 0 0 4.37-4.19V11c.1-1.78.1-4.76-.01-6.59zm-1.81 6.54v.18a2.73 2.73 0 0 1-2.59 2.48l-2.87.05H7.45l-3-.06a2.64 2.64 0 0 1-2.56-2.47V11c-.09-1.78-.09-4.68 0-6.46v-.21a2.63 2.63 0 0 1 2.56-2.46H16.9a2.67 2.67 0 0 1 2.59 2.47v.18c.07 1.77.07 4.66-.03 6.43z"/><path d="M14.29 6.74L9.08 4a.91.91 0 0 0-1.33.8v5.46a.91.91 0 0 0 1.33.8l5.21-2.73a.9.9 0 0 0 0-1.6zm-2.37.8L9.57 8.77V6.31z"/></symbol></svg>