<svg xmlns="http://www.w3.org/2000/svg">
    <symbol id="icon_angle-arrow-slim" viewBox="0 0 14.39 27">
      <path fill="none" stroke="#fff" stroke-linecap="round" stroke-miterlimit="50" stroke-width="2" d="M1.2 1l12 13-12 12"/>
    </symbol>
    <symbol id="icon_angle-arrow" viewBox="0 0 284.935 284.936">
      <title>angle-arrow</title><g><path d="M222.701,135.9L89.652,2.857C87.748,0.955,85.557,0,83.084,0c-2.474,0-4.664,0.955-6.567,2.857L62.244,17.133 c-1.906,1.903-2.855,4.089-2.855,6.567c0,2.478,0.949,4.664,2.855,6.567l112.204,112.204L62.244,254.677 c-1.906,1.903-2.855,4.093-2.855,6.564c0,2.477,0.949,4.667,2.855,6.57l14.274,14.271c1.903,1.905,4.093,2.854,6.567,2.854	c2.473,0,4.663-0.951,6.567-2.854l133.042-133.044c1.902-1.902,2.854-4.093,2.854-6.567S224.603,137.807,222.701,135.9z"/></g>
    </symbol>
    <symbol id="icon_basket" viewBox="0 0 59 59">
       <g> <path d="M29.5,51c0.552,0,1-0.447,1-1V17c0-0.553-0.448-1-1-1s-1,0.447-1,1v33C28.5,50.553,28.948,51,29.5,51z"/> <path d="M19.5,51c0.552,0,1-0.447,1-1V17c0-0.553-0.448-1-1-1s-1,0.447-1,1v33C18.5,50.553,18.948,51,19.5,51z"/> <path d="M39.5,51c0.552,0,1-0.447,1-1V17c0-0.553-0.448-1-1-1s-1,0.447-1,1v33C38.5,50.553,38.948,51,39.5,51z"/> <path d="M52.5,6H38.456c-0.11-1.25-0.495-3.358-1.813-4.711C35.809,0.434,34.751,0,33.499,0H23.5c-1.252,0-2.31,0.434-3.144,1.289
		C19.038,2.642,18.653,4.75,18.543,6H6.5c-0.552,0-1,0.447-1,1s0.448,1,1,1h2.041l1.915,46.021C10.493,55.743,11.565,59,15.364,59
		h28.272c3.799,0,4.871-3.257,4.907-4.958L50.459,8H52.5c0.552,0,1-0.447,1-1S53.052,6,52.5,6z M21.792,2.681
		C22.24,2.223,22.799,2,23.5,2h9.999c0.701,0,1.26,0.223,1.708,0.681c0.805,0.823,1.128,2.271,1.24,3.319H20.553
		C20.665,4.952,20.988,3.504,21.792,2.681z M46.544,53.979C46.538,54.288,46.4,57,43.636,57H15.364
		c-2.734,0-2.898-2.717-2.909-3.042L10.542,8h37.915L46.544,53.979z"/> </g>                
    </symbol>
    <symbol id="icon_basketball-ball" viewBox="0 0 77.832 77.832">
       <g> <path d="M38.916,0C17.458,0,0,17.458,0,38.916c0,2.489,0.245,4.923,0.693,7.284l-0.146,0.175c0.07,0.059,0.138,0.109,0.208,0.167
		c3.555,17.819,19.312,31.29,38.161,31.29c21.458,0,38.916-17.458,38.916-38.916S60.374,0,38.916,0z M72.061,25.249
		c-0.052,12.625-11.312,15.317-16.045,15.888c3.945-13.604,2.821-26.663,1.959-32.572C64.236,12.512,69.199,18.337,72.061,25.249z
		 M54.559,6.658c0.653,3.375,3.119,18.577-1.675,34.318c-9.122-2.418-10.416-9.061-12.143-18.104
		c-1.169-6.126-2.491-12.99-6.694-19.474c1.594-0.217,3.217-0.339,4.869-0.339C44.521,3.059,49.829,4.354,54.559,6.658z
		 M30.764,4.005c4.453,6.291,5.793,13.262,6.973,19.441c1.714,8.979,3.346,17.479,14.175,20.446
		c-0.799,2.201-1.749,4.398-2.877,6.562c-22.46-10.88-36.241-28.358-39.237-32.423C14.786,11.094,22.187,6.007,30.764,4.005z
		 M8.018,20.751c4.195,5.486,17.939,21.856,39.521,32.371c-0.844,1.407-1.773,2.791-2.789,4.147
		c-5.908-2.934-11.457-3.388-16.834-3.826c-7.44-0.607-15.128-1.256-24.354-8.571c-0.326-1.938-0.504-3.926-0.504-5.956
		C3.059,32.29,4.872,26.083,8.018,20.751z M4.647,49.475c8.612,5.83,15.922,6.438,23.021,7.018c5.113,0.417,9.972,0.82,15.12,3.232
		c-4.148,4.854-9.563,9.235-16.591,12.709C15.932,68.525,7.908,60.038,4.647,49.475z M30.319,73.725
		c6.382-3.564,11.38-7.873,15.283-12.574c1.639,0.906,4.851,3.021,5.688,6.066c0.497,1.805,0.046,3.756-1.312,5.803
		c-3.485,1.133-7.201,1.754-11.061,1.754C35.953,74.773,33.074,74.405,30.319,73.725z M54.134,71.374
		c0.507-1.685,0.552-3.351,0.101-4.983c-1.068-3.863-4.598-6.434-6.729-7.677c1.028-1.403,1.967-2.833,2.823-4.284
		c5.354,2.402,11.157,4.416,17.387,5.82C64.193,64.993,59.529,68.834,54.134,71.374z M69.557,57.523
		c-6.373-1.342-12.293-3.354-17.74-5.776c1.27-2.456,2.322-4.952,3.191-7.446c2.686-0.195,10.21-1.199,15.299-6.387
		c1.709-1.742,2.957-3.786,3.758-6.096c0.463,2.295,0.709,4.668,0.709,7.098C74.773,45.725,72.865,52.096,69.557,57.523z"/> </g>                
    </symbol>
    <symbol id="icon_briefcase" viewBox="0 0 50 50">
      <title>depfin icons</title><g id="Layer_2_copy" data-name="Layer 2 copy"><path d="M24.81,27.57c-13.94,0-20.53-5.64-20.8-5.88a.75.75,0,0,1-.25-.56V18.05A3.09,3.09,0,0,1,6.84,15H42.77a3.09,3.09,0,0,1,3.09,3.09v3.12a.75.75,0,0,1-.26.57C45.33,22,38.75,27.57,24.81,27.57ZM5.25,20.76c1.32,1,7.7,5.31,19.55,5.31S43,21.8,44.36,20.81V18.05a1.59,1.59,0,0,0-1.59-1.59H6.84a1.59,1.59,0,0,0-1.59,1.59Z"/><path d="M42.77,42.33H6.84c-1.49,0-3.09-1.11-3.09-4.22v-14A.75.75,0,0,1,5,23.5c.06.05,6.18,5.09,19.82,5.09s19.77-4.8,19.83-4.85a.75.75,0,0,1,1.22.58V39.24A3.09,3.09,0,0,1,42.77,42.33ZM5.25,25.51v12.6c0,.82.16,2.72,1.59,2.72H42.77a1.59,1.59,0,0,0,1.59-1.59V25.72c-2.46,1.47-8.69,4.36-19.55,4.36S7.72,27.05,5.25,25.51Z"/><path d="M33.06,16.12a.75.75,0,0,1-.75-.75V12.92a1.76,1.76,0,0,0-1.76-1.76H19.07a1.76,1.76,0,0,0-1.76,1.76v2.45a.75.75,0,0,1-1.5,0V12.92a3.26,3.26,0,0,1,3.26-3.26H30.55a3.26,3.26,0,0,1,3.26,3.26v2.45A.75.75,0,0,1,33.06,16.12Z"/><path d="M27.47,32.76H22.14A1.75,1.75,0,0,1,20.39,31V29.65a.75.75,0,0,1,1.5,0V31a.25.25,0,0,0,.25.25h5.33a.25.25,0,0,0,.25-.25V29.65a.75.75,0,0,1,1.5,0V31A1.75,1.75,0,0,1,27.47,32.76Z"/></g>
    </symbol>
    <symbol id="icon_burger" viewBox="0 0 32 25">
      <title>burger</title><rect width="32" height="3" rx="1.5" ry="1.5"/><rect y="10.97" width="32" height="3" rx="1.5" ry="1.5"/><rect y="22" width="32" height="3" rx="1.5" ry="1.5"/>
    </symbol>
    <symbol id="icon_calc" viewBox="35.1 -32.1 152.8 165.5">
        <g id="Layer_2"> <path class="st0" d="M184.9,133.4H38.1c-1.7,0-3-1.3-3-3V-29.1c0-1.7,1.3-3,3-3h146.8c1.7,0,3,1.3,3,3v159.5
		C187.9,132,186.6,133.4,184.9,133.4z M39.1,129.4h144.8V-28.1H39.1L39.1,129.4z"/> <path class="st0" d="M170.3,27.6H52.8c-1.7,0-3-1.3-3-3v-37.9c0-1.7,1.3-3,3-3h117.5c1.7,0,3,1.3,3,3v37.9
		C173.3,26.3,171.9,27.6,170.3,27.6L170.3,27.6z M53.7,23.6h115.5v-35.9H53.8L53.7,23.6z"/> <path class="st0" d="M70.8,61.5h-7.3c-3.4,0-6.2-2.8-6.2-6.2V48c0-3.4,2.8-6.2,6.2-6.2h7.3c3.4,0,6.2,2.8,6.2,6.2v7.3
		C77,58.7,74.2,61.5,70.8,61.5C70.8,61.5,70.8,61.5,70.8,61.5z M63.5,45.9c-1.2,0-2.1,0.9-2.2,2.1v7.3c0,1.2,1,2.2,2.2,2.2h0h7.3
		c1.2,0,2.2-1,2.2-2.2l0,0V48c0-1.2-1-2.2-2.2-2.2l0,0L63.5,45.9z"/> <path class="st0" d="M100.4,61.5h-7.3c-3.4,0-6.2-2.8-6.2-6.2V48c0-3.4,2.8-6.2,6.2-6.2h7.3c3.4,0,6.2,2.8,6.2,6.2v7.3
		C106.5,58.7,103.8,61.5,100.4,61.5C100.4,61.5,100.4,61.5,100.4,61.5z M93.1,45.9c-1.2,0-2.1,0.9-2.2,2.1v7.3c0,1.2,1,2.2,2.2,2.2
		l0,0h7.3c1.2,0,2.2-1,2.2-2.2v0V48c0-1.2-1-2.2-2.2-2.2h0L93.1,45.9z"/> <path class="st0" d="M129.9,61.5h-7.3c-3.4,0-6.2-2.8-6.2-6.2V48c0-3.4,2.8-6.2,6.2-6.2h7.3c3.4,0,6.2,2.8,6.2,6.2v7.3
		C136.1,58.7,133.4,61.5,129.9,61.5C130,61.5,130,61.5,129.9,61.5z M122.6,45.9c-1.2,0-2.1,0.9-2.2,2.1v7.3c0,1.2,1,2.2,2.2,2.2h0
		h7.3c1.2,0,2.2-1,2.2-2.2v0V48c0-1.2-1-2.2-2.2-2.2h0L122.6,45.9z"/> <path class="st0" d="M159.5,61.5h-7.3c-3.4,0-6.2-2.8-6.2-6.2V48c0-3.4,2.8-6.2,6.2-6.2h7.3c3.4,0,6.2,2.8,6.2,6.2v7.3
		C165.7,58.7,163,61.5,159.5,61.5C159.5,61.5,159.5,61.5,159.5,61.5z M152.2,45.9c-1.2,0-2.1,0.9-2.2,2.1v7.3c0,1.2,1,2.2,2.2,2.2h0
		h7.3c1.2,0,2.2-1,2.2-2.2v0V48c0-1.2-1-2.2-2.2-2.2l0,0L152.2,45.9z"/> <path class="st0" d="M70.8,89.2h-7.3c-3.4,0-6.2-2.8-6.2-6.2v-7.3c0-3.4,2.8-6.2,6.2-6.2h7.3c3.4,0,6.2,2.8,6.2,6.2v7.3
		C76.9,86.5,74.2,89.2,70.8,89.2z M63.5,73.6c-1.2,0-2.2,1-2.2,2.2l0,0v7.3c0,1.2,1,2.2,2.2,2.2h0h7.3c1.2,0,2.2-1,2.2-2.2l0,0v-7.3
		c0-1.2-1-2.2-2.2-2.2l0,0H63.5z"/> <path class="st0" d="M100.4,89.2h-7.3c-3.4,0-6.2-2.8-6.2-6.2v-7.3c0-3.4,2.8-6.2,6.2-6.2h7.3c3.4,0,6.2,2.8,6.2,6.2v7.3
		C106.5,86.5,103.8,89.2,100.4,89.2z M93.1,73.6c-1.2,0-2.2,1-2.2,2.2l0,0v7.3c0,1.2,1,2.2,2.2,2.2l0,0h7.3c1.2,0,2.2-1,2.2-2.2v0
		v-7.3c0-1.2-1-2.2-2.2-2.2h0H93.1z"/> <path class="st0" d="M129.9,89.2h-7.3c-3.4,0-6.2-2.8-6.2-6.2v-7.3c0-3.4,2.8-6.2,6.2-6.2h7.3c3.4,0,6.2,2.8,6.2,6.2v7.3
		C136.1,86.5,133.3,89.2,129.9,89.2z M122.6,73.6c-1.2,0-2.2,1-2.2,2.2v0v7.3c0,1.2,1,2.2,2.2,2.2h0h7.3c1.2,0,2.2-1,2.2-2.2v0v-7.3
		c0-1.2-1-2.2-2.2-2.2l0,0H122.6z"/> <path class="st0" d="M159.5,117h-7.3c-3.4,0-6.2-2.8-6.2-6.2v-35c0-3.4,2.8-6.2,6.2-6.2h7.3c3.4,0,6.2,2.8,6.2,6.2v35
		C165.7,114.2,162.9,117,159.5,117z M152.2,73.7c-1.2,0-2.2,1-2.2,2.2v0v35c0,1.2,1,2.2,2.2,2.2h0h7.3c1.2,0,2.2-1,2.2-2.2l0,0v-35
		c0-1.2-1-2.2-2.2-2.2l0,0L152.2,73.7z"/> <path class="st0" d="M70.8,117h-7.3c-3.4,0-6.2-2.8-6.2-6.2v-7.3c0-3.4,2.8-6.2,6.2-6.2h7.3c3.4,0,6.2,2.8,6.2,6.2v7.3
		C76.9,114.2,74.2,117,70.8,117z M63.5,101.4c-1.2,0-2.2,1-2.2,2.2l0,0v7.3c0,1.2,1,2.2,2.2,2.2h7.3c1.2,0,2.2-1,2.2-2.2l0,0v-7.3
		c0-1.2-1-2.2-2.2-2.2l0,0L63.5,101.4z"/> <path class="st0" d="M100.4,117h-7.3c-3.4,0-6.2-2.8-6.2-6.2v-7.3c0-3.4,2.8-6.2,6.2-6.2h7.3c3.4,0,6.2,2.8,6.2,6.2v7.3
		C106.5,114.2,103.8,117,100.4,117z M93.1,101.4c-1.2,0-2.2,1-2.2,2.2l0,0v7.3c0,1.2,1,2.2,2.2,2.2h7.3c1.2,0,2.2-1,2.2-2.2l0,0
		v-7.3c0-1.2-1-2.2-2.2-2.2h0L93.1,101.4z"/> <path class="st0" d="M129.9,117h-7.3c-3.4,0-6.2-2.8-6.2-6.2v-7.3c0-3.4,2.8-6.2,6.2-6.2h7.3c3.4,0,6.2,2.8,6.2,6.2v7.3
		C136.1,114.2,133.3,117,129.9,117z M122.6,101.4c-1.2,0-2.2,1-2.2,2.2l0,0v7.3c0,1.2,1,2.2,2.2,2.2h7.3c1.2,0,2.2-1,2.2-2.2l0,0
		v-7.3c0-1.2-1-2.2-2.2-2.2l0,0L122.6,101.4z"/> </g> 
    </symbol>
    <symbol id="icon_cancel" viewBox="0 0 212.982 212.982">
       <g id="Close"> <path style="fill-rule:evenodd;clip-rule:evenodd;" d="M131.804,106.491l75.936-75.936c6.99-6.99,6.99-18.323,0-25.312
		c-6.99-6.99-18.322-6.99-25.312,0l-75.937,75.937L30.554,5.242c-6.99-6.99-18.322-6.99-25.312,0c-6.989,6.99-6.989,18.323,0,25.312
		l75.937,75.936L5.242,182.427c-6.989,6.99-6.989,18.323,0,25.312c6.99,6.99,18.322,6.99,25.312,0l75.937-75.937l75.937,75.937
		c6.989,6.99,18.322,6.99,25.312,0c6.99-6.99,6.99-18.322,0-25.312L131.804,106.491z"/> </g>                
    </symbol>
    <symbol id="icon_car" viewBox="0 0 50 50">
      <title>depfin icons</title><g id="Layer_2_copy" data-name="Layer 2 copy"><path d="M45.17,23.7a3,3,0,0,0-1.46-5.54H41.29l-1.65-4.64a5.5,5.5,0,0,0-5.18-3.65H15.54a5.5,5.5,0,0,0-5.18,3.65L8.71,18.16H6.29A3,3,0,0,0,4.83,23.7a3.15,3.15,0,0,0-1.44,2.64V36.66a2.72,2.72,0,0,0,2,2.61v2.9A2.61,2.61,0,0,0,8,44.78h2.36a2.61,2.61,0,0,0,2.61-2.61v-2.8H37.06v2.8a2.61,2.61,0,0,0,2.61,2.61H42a2.61,2.61,0,0,0,2.61-2.61v-2.9a2.72,2.72,0,0,0,2-2.61V26.34A3.15,3.15,0,0,0,45.17,23.7ZM11.77,14a4,4,0,0,1,3.76-2.66H34.46A4,4,0,0,1,38.23,14l1.54,4.33a.74.74,0,0,0,0,.33l.35,1.2a1,1,0,0,1-.93,1.24H10.61a1,1,0,0,1-.91-1.3l.24-.64h0Zm-.33,28.15a1.11,1.11,0,0,1-1.11,1.11H8a1.11,1.11,0,0,1-1.11-1.11v-2.8h4.58ZM42,43.28H39.67a1.11,1.11,0,0,1-1.11-1.11v-2.8h4.58v2.8A1.11,1.11,0,0,1,42,43.28Zm3.07-6.62a1.22,1.22,0,0,1-1.22,1.22H6.11a1.22,1.22,0,0,1-1.22-1.22V26.34A1.65,1.65,0,0,1,6.54,24.7a.75.75,0,0,0,.75-.75v-.61a.75.75,0,0,0-.75-.75H6.29a1.46,1.46,0,0,1,0-2.92H8.21a2.44,2.44,0,0,0,2.4,3H39.2a2.44,2.44,0,0,0,2.4-3h2.1a1.46,1.46,0,1,1,0,2.92h-.25a.75.75,0,0,0-.75.75v.61a.75.75,0,0,0,.75.75,1.65,1.65,0,0,1,1.65,1.65Z"/><path d="M10.62,26.51a3,3,0,1,0,3,3A3,3,0,0,0,10.62,26.51Zm0,4.49a1.49,1.49,0,1,1,1.49-1.49A1.5,1.5,0,0,1,10.62,31Z"/><path d="M39.88,26.51a3,3,0,1,0,3,3A3,3,0,0,0,39.88,26.51Zm0,4.49a1.49,1.49,0,1,1,1.49-1.49A1.5,1.5,0,0,1,39.88,31Z"/><path d="M31.67,31H18.33a.75.75,0,0,0-.75.75v3.39a.75.75,0,0,0,.75.75H31.67a.75.75,0,0,0,.75-.75V31.75A.75.75,0,0,0,31.67,31Zm-.75,3.39H19.08V32.5H30.92Z"/></g>
    </symbol>
    <symbol id="icon_caret" viewBox="0 0 11 6">
      <title>caret</title><line x1="0.5" y1="0.5" x2="5.5" y2="5.5" fill="none" stroke="#000" stroke-linecap="round" stroke-miterlimit="10"/><line x1="10.5" y1="0.5" x2="5.5" y2="5.5" fill="none" stroke="#000" stroke-linecap="round" stroke-miterlimit="10"/>
    </symbol>
    <symbol id="icon_check-mark" viewBox="0 0 26 26">
       <path d="m.3,14c-0.2-0.2-0.3-0.5-0.3-0.7s0.1-0.5 0.3-0.7l1.4-1.4c0.4-0.4 1-0.4 1.4,0l.1,.1 5.5,5.9c0.2,0.2 0.5,0.2 0.7,0l13.4-13.9h0.1v-8.88178e-16c0.4-0.4 1-0.4 1.4,0l1.4,1.4c0.4,0.4 0.4,1 0,1.4l0,0-16,16.6c-0.2,0.2-0.4,0.3-0.7,0.3-0.3,0-0.5-0.1-0.7-0.3l-7.8-8.4-.2-.3z"/> 
    </symbol>
    <symbol id="icon_clean" viewBox="-37.8 37.1 17.7 27.5">
        <title>clean</title> <g id="Layer_2"> <path class="st0" d="M-22.3,52.7l0.6-1.5c0.1-0.1,0.1-0.3,0-0.4l-0.6-1.4c-0.1-0.2-0.3-0.3-0.5-0.3h-2.8c0.3-1.6-0.5-3.1-1.9-3.8
		v-6.8c-0.2-1-1.1-1.6-2-1.4c-0.7,0.1-1.3,0.7-1.4,1.4v6.8c-1.4,0.7-2.2,2.2-1.9,3.8h-2.7c-0.2,0-0.3,0.1-0.4,0.2l-0.8,1.4
		c-0.1,0.1-0.1,0.3,0,0.5l0.7,1.5l-1.8,11.4c0,0.3,0.1,0.5,0.4,0.6c0,0,0.1,0,0.1,0h10.5c0.2,0,0.4-0.1,0.5-0.3l1.2-2.7l1.2,2.7
		c0.1,0.2,0.3,0.3,0.5,0.3h2.9c0.3,0,0.5-0.2,0.5-0.5c0,0,0-0.1,0-0.1L-22.3,52.7z M-30,38.5c0-0.4,0.4-0.7,0.8-0.7
		c0.4,0,0.6,0.3,0.7,0.7V45c-0.5-0.1-1-0.1-1.5,0V38.5z M-31.2,46.7c1.1-1.1,2.8-1.1,3.9,0c0.7,0.6,0.9,1.6,0.8,2.5h-5.3
		C-32.1,48.3-31.9,47.3-31.2,46.7z M-35.3,50.1h12.2l0.4,0.9l-0.5,1.1h-12.1l-0.6-1.1L-35.3,50.1z M-23.2,63.6l-1.5-3.4
		c-0.1-0.3-0.5-0.3-0.7-0.2c-0.1,0-0.2,0.1-0.2,0.2l-1.5,3.4h-9.6l1.6-10.5h11.9l2.1,10.5H-23.2z"/> </g> 
    </symbol>
    <symbol id="icon_close" viewBox="0 0 23.51 23.51">
      <title>close</title><path d="M13.87,11.75l9.19-9.19A1.5,1.5,0,1,0,20.95.44L11.75,9.63,2.56.44A1.5,1.5,0,0,0,.44,2.56l9.19,9.19L.44,20.95a1.5,1.5,0,0,0,2.12,2.12l9.19-9.19,9.19,9.19a1.5,1.5,0,1,0,2.12-2.12Z"/>
    </symbol>
    <symbol id="icon_crane" viewBox="0 0 50 50">
      <title>depfin icons</title><g id="Layer_2_copy" data-name="Layer 2 copy"><path d="M47.24,16.34l-6.05-6a.75.75,0,0,0-.53-.22H17.32L14.21,3.3a.82.82,0,0,0-.69-.44.75.75,0,0,0-.68.46L10.21,9.49h-.15V8a.75.75,0,0,0-.75-.75H2.85A.75.75,0,0,0,2.1,8v8.92a.75.75,0,0,0,.75.75H4.47v3.65a.75.75,0,0,0,.75.75H9.71V46H3.5a.75.75,0,0,0,0,1.5h20a.75.75,0,1,0,0-1.5h-5.8V17.46l15.52.09v1.94a.75.75,0,0,0,.75.75h.8v6.28l-3.56,3.79a.75.75,0,0,0-.2.51v4a.75.75,0,0,0,.75.75h3.44a.73.73,0,0,0,.33-.08.73.73,0,0,0,.33.08h3.44a.75.75,0,0,0,.75-.75v-4a.75.75,0,0,0-.2-.51l-3.56-3.79V20.24h.8a.75.75,0,0,0,.75-.75V17.57l8.82,0h0a.75.75,0,0,0,.53-1.28ZM38.6,31.12v3H35.91a.73.73,0,0,0-.33.08.73.73,0,0,0-.33-.08H32.57v-3l3-3.21ZM26.31,16l3.95-4.36h0l4.21,4.41ZM11.7,41.18h4.56v4.19ZM4.83,15.55,9.29,11H9.4a.73.73,0,0,0,.56.62v3.94ZM11,12l3.79,3.51H11Zm1-.4h3.27v3Zm2.75,4.91L11,20.11V16.55Zm1.5,23.63H12L16.26,37Zm-.63-3.91-4.42,3.28V36.27Zm-4.42-1V32.07l4.19,3.21Zm.73-3.91h4.32v3.31Zm0-1,4.3-3.22v3.22Zm-.75-.69V26.45h4.3Zm0-4.22v-3l4.24,3Zm5-.65-4.24-3h4.24Zm-4.53-4,4.24-4H16a.73.73,0,0,0,.23,0v4Zm5-9.12h2.37l-2.37,2.76Zm8.46,4.06-3.49-4.06h7.16Zm6.44-4.06h7.62l-3.72,4.08ZM13.55,5.47l2,4.37a.74.74,0,0,0-.21.3H11.56Zm-5,3.23v1.54s0,0,0,0l-5,5.1V8.7ZM6,20.51V16.87a.74.74,0,0,0-.08-.32H10v4Zm5.24,21.58L15.45,46H11.21ZM17,16h0a.74.74,0,0,0-.23,0v-.06l3.67-4.28L24.17,16Zm19.38,2.78H34.78V17.55h1.61Zm.84-2.67-.09,0-.08,0h-.43l3.89-4.26,4.37,4.31Z"/></g>
    </symbol>
    <symbol id="icon_cross" viewBox="0 0 26 26">
       <path fill-rule="evenodd" stroke="rgb(0, 0, 0)" stroke-width="1px" stroke-linecap="round" stroke-linejoin="miter" fill="#000" d="M22.505,20.127 L21.140,21.490 L12.407,12.774 L3.411,21.803 L2.058,20.444 L10.632,11.839 L2.058,3.234 L3.411,1.876 L12.064,10.560 L21.140,1.501 L22.505,2.864 L13.857,11.496 L22.505,20.127 Z"/> 
    </symbol>
    <symbol id="icon_darts" viewBox="0 0 50 50">
      <title>depfin icons</title><g id="Layer_2_copy" data-name="Layer 2 copy"><path d="M25.21,44.26A19.18,19.18,0,1,1,44.39,25.08,19.2,19.2,0,0,1,25.21,44.26Zm0-36.86A17.68,17.68,0,1,0,42.89,25.08,17.7,17.7,0,0,0,25.21,7.39Z"/><path d="M25.21,37.4A12.32,12.32,0,1,1,37.53,25.08,12.34,12.34,0,0,1,25.21,37.4Zm0-23.14A10.82,10.82,0,1,0,36,25.08,10.83,10.83,0,0,0,25.21,14.25Z"/><path d="M25.21,30.31a5.24,5.24,0,1,1,5.24-5.24A5.24,5.24,0,0,1,25.21,30.31Zm0-9a3.74,3.74,0,1,0,3.74,3.74A3.74,3.74,0,0,0,25.21,21.34Z"/></g>
    </symbol>
    <symbol id="icon_delete" viewBox="0 0 348.333 348.334">
       <g> <path d="M336.559,68.611L231.016,174.165l105.543,105.549c15.699,15.705,15.699,41.145,0,56.85
		c-7.844,7.844-18.128,11.769-28.407,11.769c-10.296,0-20.581-3.919-28.419-11.769L174.167,231.003L68.609,336.563
		c-7.843,7.844-18.128,11.769-28.416,11.769c-10.285,0-20.563-3.919-28.413-11.769c-15.699-15.698-15.699-41.139,0-56.85
		l105.54-105.549L11.774,68.611c-15.699-15.699-15.699-41.145,0-56.844c15.696-15.687,41.127-15.687,56.829,0l105.563,105.554
		L279.721,11.767c15.705-15.687,41.139-15.687,56.832,0C352.258,27.466,352.258,52.912,336.559,68.611z"/> </g>                
    </symbol>
    <symbol id="icon_depfin-icons-27" viewBox="0 0 50 50">
         <g id="Layer_2_copy"> <path d="M25.7,28.3c-5.2,0-9.4-4.2-9.4-9.4s4.2-9.4,9.4-9.4s9.4,4.2,9.4,9.4S30.9,28.3,25.7,28.3z M25.7,10.9
		c-4.4,0-7.9,3.6-7.9,7.9s3.6,7.9,7.9,7.9s7.9-3.6,7.9-7.9S30.1,10.9,25.7,10.9z"/> <path d="M23.8,22.8c-0.2,0-0.4-0.1-0.5-0.2l-3.3-3.5c-0.3-0.3-0.3-0.8,0-1.1c0.3-0.3,0.8-0.3,1.1,0l2.9,3l7-5.6
		c0.3-0.3,0.8-0.2,1.1,0.1c0.3,0.3,0.2,0.8-0.1,1.1l-7.6,6C24.1,22.7,23.9,22.8,23.8,22.8z"/> <path d="M25.9,33.4c-0.8,0-1.5-0.3-2.1-0.9c-0.7-0.7-2-1-3-0.8c-0.8,0.2-1.6,0.1-2.2-0.3c-0.7-0.4-1.2-1-1.4-1.8
		c-0.2-0.9-1.3-1.9-2.2-2.2c-0.8-0.2-1.4-0.7-1.8-1.4c-0.4-0.7-0.5-1.5-0.3-2.2c0.3-0.9-0.1-2.3-0.8-3c-0.6-0.6-0.9-1.3-0.9-2.1
		c0-0.8,0.3-1.5,0.9-2.1c0.7-0.7,1-2,0.8-3c-0.2-0.8-0.1-1.6,0.3-2.2c0.4-0.7,1-1.2,1.8-1.4C16,9.9,17,8.9,17.2,8
		c0.2-0.8,0.7-1.4,1.4-1.8c0.7-0.4,1.5-0.5,2.2-0.3c0.9,0.3,2.3-0.1,3-0.8l0,0C24.9,4,26.9,4,28,5.1c0.7,0.7,2,1,3,0.8
		c0.8-0.2,1.6-0.1,2.2,0.3s1.2,1,1.4,1.8c0.2,0.9,1.3,1.9,2.2,2.2c0.8,0.2,1.4,0.7,1.8,1.4c0.4,0.7,0.5,1.5,0.3,2.2
		c-0.3,0.9,0.1,2.3,0.8,3c0.6,0.6,0.9,1.3,0.9,2.1c0,0.8-0.3,1.5-0.9,2.1c-0.7,0.7-1,2-0.8,3c0.2,0.8,0.1,1.6-0.3,2.2
		c-0.4,0.7-1,1.2-1.8,1.4c-0.9,0.2-1.9,1.3-2.2,2.2c-0.2,0.8-0.7,1.4-1.4,1.8c-0.7,0.4-1.5,0.5-2.2,0.3c-0.9-0.3-2.3,0.1-3,0.8
		C27.4,33.1,26.7,33.4,25.9,33.4z M21.5,30.2c1.2,0,2.6,0.5,3.4,1.3c0.5,0.6,1.5,0.6,2,0c1-1.1,3-1.6,4.4-1.2
		c0.4,0.1,0.8,0.1,1.1-0.1s0.6-0.5,0.7-0.9c0.4-1.4,1.8-2.9,3.2-3.2c0.4-0.1,0.7-0.3,0.9-0.7s0.2-0.7,0.1-1.1
		c-0.4-1.4,0.1-3.4,1.2-4.4c0.3-0.3,0.4-0.6,0.4-1c0-0.4-0.2-0.8-0.4-1c-1.1-1-1.6-3-1.2-4.4c0.1-0.4,0.1-0.8-0.1-1.1
		c-0.2-0.3-0.5-0.6-0.9-0.7c-1.4-0.4-2.9-1.8-3.2-3.2C33,8,32.8,7.7,32.4,7.5c-0.3-0.2-0.7-0.2-1.1-0.1c-1.4,0.4-3.4-0.1-4.4-1.2
		c-0.5-0.6-1.5-0.6-2,0l-0.5-0.5l0.5,0.5c-1,1.1-3,1.6-4.4,1.2c-0.4-0.1-0.8-0.1-1.1,0.1C19,7.7,18.8,8,18.7,8.4
		c-0.4,1.4-1.8,2.9-3.2,3.2c-0.4,0.1-0.7,0.3-0.9,0.7c-0.2,0.3-0.2,0.7-0.1,1.1c0.4,1.4-0.1,3.4-1.2,4.4c-0.3,0.3-0.4,0.6-0.4,1
		c0,0.4,0.2,0.8,0.4,1c1.1,1,1.6,3,1.2,4.4c-0.1,0.4-0.1,0.8,0.1,1.1s0.5,0.6,0.9,0.7c1.4,0.4,2.9,1.8,3.2,3.2
		c0.1,0.4,0.3,0.7,0.7,0.9c0.3,0.2,0.7,0.2,1.1,0.1C20.8,30.2,21.1,30.2,21.5,30.2z"/> <path d="M19.9,46.8c-0.2,0-0.4-0.1-0.6-0.3l-3-3.7l-4.8,0.2c-0.3,0-0.5-0.1-0.7-0.3c-0.1-0.2-0.2-0.5-0.1-0.7l6-13.6
		c0.2-0.4,0.6-0.6,1-0.4c0.4,0.2,0.5,0.6,0.4,1l-5.5,12.5l3.9-0.2c0.2,0,0.5,0.1,0.6,0.3l2.5,3L24.9,33c0.2-0.4,0.6-0.5,1-0.4
		c0.4,0.2,0.6,0.6,0.4,1l-5.6,12.8c-0.1,0.2-0.3,0.4-0.6,0.4C20,46.8,20,46.8,19.9,46.8z"/> <path d="M32,46.8c0,0-0.1,0-0.1,0c-0.3,0-0.5-0.2-0.6-0.4l-5.7-12.9c-0.2-0.4,0-0.8,0.4-1c0.4-0.2,0.8,0,1,0.4l5.2,11.8l2.5-3
		c0.1-0.2,0.4-0.3,0.6-0.3l3.9,0.2l-5.6-12.8c-0.2-0.4,0-0.8,0.4-1c0.4-0.2,0.8,0,1,0.4l6.1,13.9c0.1,0.2,0.1,0.5-0.1,0.7
		c-0.1,0.2-0.4,0.3-0.7,0.3l-4.8-0.2l-3,3.7C32.4,46.7,32.2,46.8,32,46.8z"/> </g> 
    </symbol>
    <symbol id="icon_depfin-icons-28" viewBox="0 0 50 50">
         <g id="Layer_2_copy"> <path d="M42.7,17.8H7.4c-0.4,0-0.8-0.3-0.8-0.8s0.3-0.8,0.8-0.8h35.4c0.4,0,0.8,0.3,0.8,0.8S43.2,17.8,42.7,17.8z"/> <path d="M40.9,38.4H9.2c-0.4,0-0.8-0.3-0.8-0.8s0.3-0.8,0.8-0.8h31.8c0.4,0,0.8,0.3,0.8,0.8S41.4,38.4,40.9,38.4z"/> <path d="M42.8,15H7.3c-0.3,0-0.6-0.2-0.7-0.6c-0.1-0.3,0.1-0.7,0.4-0.8l17.8-9.2c0.2-0.1,0.5-0.1,0.7,0l17.8,9.2
		c0.3,0.2,0.5,0.5,0.4,0.8C43.5,14.8,43.2,15,42.8,15z M10.4,13.5h29.4L25,5.9L10.4,13.5z"/> <path d="M41.8,44.9H8.3c-1,0-1.8-0.8-1.8-1.8v-1.6c0-1,0.8-1.8,1.8-1.8h33.6c1,0,1.8,0.8,1.8,1.8v1.6
		C43.6,44.1,42.8,44.9,41.8,44.9z M8.3,41.3c-0.1,0-0.2,0.1-0.2,0.2v1.6c0,0.1,0.1,0.2,0.2,0.2h33.6c0.1,0,0.2-0.1,0.2-0.2v-1.6
		c0-0.1-0.1-0.2-0.2-0.2H8.3z"/> <path d="M10.9,35.6c-0.4,0-0.8-0.3-0.8-0.8V20c0-0.4,0.3-0.8,0.8-0.8s0.8,0.3,0.8,0.8v14.8C11.7,35.2,11.3,35.6,10.9,35.6z"/> <path d="M16.4,35.6c-0.4,0-0.7-0.3-0.7-0.8V20c0-0.4,0.3-0.8,0.7-0.8c0.4,0,0.8,0.3,0.8,0.8v14.8C17.1,35.2,16.8,35.6,16.4,35.6z"/> <path d="M22.3,35.6c-0.4,0-0.8-0.3-0.8-0.8V20c0-0.4,0.3-0.8,0.8-0.8s0.8,0.3,0.8,0.8v14.8C23.1,35.2,22.7,35.6,22.3,35.6z"/> <path d="M27.8,35.6c-0.4,0-0.8-0.3-0.8-0.8V20c0-0.4,0.3-0.8,0.8-0.8s0.8,0.3,0.8,0.8v14.8C28.5,35.2,28.2,35.6,27.8,35.6z"/> <path d="M33.7,35.6c-0.4,0-0.8-0.3-0.8-0.8V20c0-0.4,0.3-0.8,0.8-0.8s0.8,0.3,0.8,0.8v14.8C34.5,35.2,34.1,35.6,33.7,35.6z"/> <path d="M38.9,35.6c-0.4,0-0.8-0.3-0.8-0.8V20c0-0.4,0.3-0.8,0.8-0.8s0.8,0.3,0.8,0.8v14.8C39.6,35.2,39.3,35.6,38.9,35.6z"/> </g> 
    </symbol>
    <symbol id="icon_depfin-icons-29" viewBox="0 0 50 50">
         <g id="Layer_2_copy"> <path d="M26.3,46.1c-0.1,0-0.2,0-0.3,0H24c-0.2,0-0.4,0-0.6,0h-0.3c-0.1,0-0.2,0-0.3-0.1c-2.4-0.1-5.3-0.4-7.9-1.3
		c-5.1-1.7-7.7-5-7.7-9.8c0-13.1,11.5-21.9,12-22.3c0.1-0.1,0.3-0.2,0.5-0.2h10.6c0.2,0,0.3,0.1,0.5,0.2c0.5,0.4,12,9.2,12,22.3
		c0,4.8-2.6,8.2-7.7,9.8c-2.6,0.9-5.4,1.2-7.9,1.3c-0.1,0-0.2,0.1-0.3,0.1h-0.3C26.5,46.1,26.4,46.1,26.3,46.1z M19.9,14
		c-1.5,1.2-11.2,9.5-11.2,20.9c0,4.2,2.2,6.9,6.7,8.4c3.2,1,6.8,1.2,9.5,1.3c2.7,0,6.3-0.2,9.5-1.3c4.5-1.5,6.7-4.2,6.7-8.4
		c0-11.5-9.7-19.7-11.2-20.9H19.9z"/> <path d="M19.7,14c-0.2,0-0.4-0.1-0.6-0.3c-0.1-0.1-2.6-3.1-3.6-4.4c-0.7-0.9-0.8-2-0.3-2.9c0.4-0.7,1.2-1.1,2.1-0.9
		c1.5,0.2,2.9,0.5,3.7,0.7c0.2-0.1,0.6-0.4,0.9-0.7C22.8,4.8,23.9,4,25,4c1.2,0,2.2,0.7,3.2,1.3c0.4,0.3,0.9,0.6,1.2,0.7
		c0.5-0.1,2.2-0.2,3.2-0.5c1-0.2,2,0.1,2.5,0.9c0.5,0.7,0.5,1.6-0.1,2.5c-1,1.6-4.1,4.8-4.3,4.9c-0.3,0.3-0.8,0.3-1.1,0
		c-0.3-0.3-0.3-0.8,0-1.1c0,0,3.2-3.2,4.1-4.7C34,7.8,34.1,7.5,34,7.2c-0.1-0.2-0.5-0.4-1-0.3c-1.3,0.3-3.4,0.5-3.5,0.5
		c-0.1,0-0.2,0-0.3,0c-0.6-0.1-1.2-0.5-1.8-0.9C26.6,6,25.7,5.5,25,5.5c-0.6,0-1.5,0.7-2.1,1.2c-0.8,0.6-1.5,1.1-2.1,1
		C20,7.4,18.6,7.2,17.2,7c-0.2,0-0.5,0-0.7,0.2c-0.1,0.2-0.1,0.7,0.2,1.2c0.9,1.3,3.5,4.3,3.5,4.3c0.3,0.3,0.2,0.8-0.1,1.1
		C20,13.9,19.8,14,19.7,14z"/> <path d="M32.1,23.2c-0.4,0-0.7-0.3-0.7-0.7c-0.2-3.4-1.8-6.7-2.6-8.1c-0.8,0.9-2.1,2.5-2.2,4.3c0,0.4-0.4,0.7-0.8,0.7
		c-0.4,0-0.7-0.4-0.7-0.8c0.3-3.3,3.3-5.9,3.4-6c0.2-0.1,0.4-0.2,0.6-0.2c0.2,0,0.4,0.1,0.5,0.3c0.1,0.2,3.1,4.6,3.4,9.6
		C32.9,22.9,32.6,23.2,32.1,23.2C32.2,23.2,32.2,23.2,32.1,23.2z"/> </g> 
    </symbol>
    <symbol id="icon_depfin-icons-30" viewBox="0 0 50 50">
         <g id="Layer_2_copy"> <path d="M8.1,29c-0.4,0-0.8-0.3-0.8-0.8v-4.4c0-0.4,0.3-0.8,0.8-0.8s0.8,0.3,0.8,0.8v4.4C8.8,28.6,8.5,29,8.1,29z"/> <path d="M42.9,41.9H9.1c-1,0-1.8-0.8-1.8-1.8v-4.8c0-0.4,0.3-0.8,0.8-0.8s0.8,0.3,0.8,0.8v4.8c0,0.1,0.1,0.2,0.2,0.2h33.9
		c0.1,0,0.2-0.1,0.2-0.2v-29c0-0.1-0.1-0.2-0.2-0.2H9.1c-0.1,0-0.2,0.1-0.2,0.2V17c0,0.4-0.3,0.8-0.8,0.8S7.3,17.4,7.3,17v-5.9
		c0-1,0.8-1.8,1.8-1.8h33.9c1,0,1.8,0.8,1.8,1.8v29C44.7,41.1,43.9,41.9,42.9,41.9z"/> <path d="M10.5,24.5H5.7c-1,0-1.8-0.8-1.8-1.8V18c0-1,0.8-1.8,1.8-1.8h4.8c1,0,1.8,0.8,1.8,1.8v4.8C12.2,23.7,11.4,24.5,10.5,24.5z
		 M5.7,17.8c-0.1,0-0.2,0.1-0.2,0.2v4.8c0,0.1,0.1,0.2,0.2,0.2h4.8c0.1,0,0.2-0.1,0.2-0.2V18c0-0.1-0.1-0.2-0.2-0.2H5.7z"/> <path d="M10.5,35.7H5.7c-1,0-1.8-0.8-1.8-1.8v-4.8c0-1,0.8-1.8,1.8-1.8h4.8c1,0,1.8,0.8,1.8,1.8V34C12.2,34.9,11.4,35.7,10.5,35.7z
		 M5.7,29c-0.1,0-0.2,0.1-0.2,0.2V34c0,0.1,0.1,0.2,0.2,0.2h4.8c0.1,0,0.2-0.1,0.2-0.2v-4.8c0-0.1-0.1-0.2-0.2-0.2H5.7z"/> <path d="M26.1,32.4c-3.6,0-6.6-3-6.6-6.6s3-6.6,6.6-6.6c3.6,0,6.6,3,6.6,6.6S29.8,32.4,26.1,32.4z M26.1,20.7
		c-2.8,0-5.1,2.3-5.1,5.1s2.3,5.1,5.1,5.1c2.8,0,5.1-2.3,5.1-5.1S29,20.7,26.1,20.7z"/> <path d="M37.5,26.3c-0.4,0-0.8-0.3-0.8-0.8V19c0-0.4,0.3-0.8,0.8-0.8s0.8,0.3,0.8,0.8v6.6C38.3,26,37.9,26.3,37.5,26.3z"/> </g> 
    </symbol>
    <symbol id="icon_diagram-wave" viewBox="0 0 18.19 53.59">
      <title>diagram-wave</title><g id="&#x421;&#x43B;&#x43E;&#x439;_2" data-name="&#x421;&#x43B;&#x43E;&#x439; 2"><g id="Layer_1" data-name="Layer 1"><path class="cls-1" d="M.5,26.8c0,6.48,4.58,7.62,4.58,13.53S.5,45.47.5,53.09H13.11c0-7.62,4.58-6.86,4.58-12.77s-4.58-7.05-4.58-13.53"/><path class="cls-1" d="M13.11,26.8c0-7.62,4.58-6.86,4.58-12.77S13.11,7,13.11.5H.5C.5,7,5.08,8.12,5.08,14S.5,19.17.5,26.8H.86"/></g></g>
    </symbol>
    <symbol id="icon_download" viewBox="0 0 18 18">
      <path fill="#fee300" d="M0 18v-2h18v2zM8 0h2v7h2.97c.76 0 1.23.8.25 1.8L9.02 13S6.78 10.86 5 8.98C4.06 8 4.32 7 5.25 7H8z"/>
    </symbol>
    <symbol id="icon_favor-classic" viewBox="0 0 55.867 55.867">
       <path d="M55.818,21.578c-0.118-0.362-0.431-0.626-0.808-0.681L36.92,18.268L28.83,1.876c-0.168-0.342-0.516-0.558-0.896-0.558
	s-0.729,0.216-0.896,0.558l-8.091,16.393l-18.09,2.629c-0.377,0.055-0.689,0.318-0.808,0.681c-0.117,0.361-0.02,0.759,0.253,1.024
	l13.091,12.76l-3.091,18.018c-0.064,0.375,0.09,0.754,0.397,0.978c0.309,0.226,0.718,0.255,1.053,0.076l16.182-8.506l16.18,8.506
	c0.146,0.077,0.307,0.115,0.466,0.115c0.207,0,0.413-0.064,0.588-0.191c0.308-0.224,0.462-0.603,0.397-0.978l-3.09-18.017
	l13.091-12.761C55.838,22.336,55.936,21.939,55.818,21.578z"/>                
    </symbol>
    <symbol id="icon_favor" viewBox="0 0 18 16">
      <path fill="#ffd400" d="M9 0l3.2 4.21 4.81 1.9-2.83 4.5-.23 5.39L9 14.57 4.05 16l-.23-5.39L1 6.11l4.8-1.9z"/>
    </symbol>
    <symbol id="icon_fb" viewBox="0 0 10.27 19">
      <title>facebook</title><path d="M9.89,0H7.42A4.33,4.33,0,0,0,2.86,4.68V6.83H.39A.39.39,0,0,0,0,7.22v3.12a.39.39,0,0,0,.39.39H2.86v7.88a.39.39,0,0,0,.39.39H6.48a.39.39,0,0,0,.39-.39V10.73h2.9a.39.39,0,0,0,.39-.39V7.22A.39.39,0,0,0,10,6.95a.39.39,0,0,0-.27-.11H6.87V5c0-.88.21-1.32,1.35-1.32H9.89a.39.39,0,0,0,.39-.39V.39A.39.39,0,0,0,9.89,0Zm0,0"/>
    </symbol>
    <symbol id="icon_football-player" viewBox="0 0 512 640">
      <g><path d="M427.7,260.6l-93.7-81.3c-1-0.8-2.1-1.6-3.2-2.2l-56.2-31.2c-2.8-1.6-5.9-2.4-9.1-2.4H152.9c-10.4,0-18.7,8.4-18.7,18.7   c0,10.4,8.4,18.7,18.7,18.7h89.2l-77,135.7c-5.1,9-1.9,20.5,7.1,25.6c2.9,1.6,6.1,2.4,9.2,2.4c6.5,0,12.9-3.4,16.3-9.5l31.6-55.7   l11.3,7.1l-64,112.8c-5.1,9-1.9,20.5,7.1,25.6c2.9,1.6,6.1,2.4,9.2,2.4c6.5,0,12.9-3.4,16.3-9.5l112.9-199.1l80.9,70.1   c3.6,3.1,7.9,4.6,12.3,4.6c5.2,0,10.5-2.2,14.2-6.5C436.3,279.2,435.5,267.4,427.7,260.6z"/><circle cx="321.6" cy="106" r="37.5"/><circle cx="115.4" cy="406" r="37.5"/></g><text x="0" y="527" fill="#000000" font-size="5px" font-weight="bold" font-family="&apos;Helvetica Neue&apos;, Helvetica, Arial-Unicode, Arial, Sans-serif">Created by Creative Stall</text><text x="0" y="532" fill="#000000" font-size="5px" font-weight="bold" font-family="&apos;Helvetica Neue&apos;, Helvetica, Arial-Unicode, Arial, Sans-serif">from the Noun Project</text>
    </symbol>
    <symbol id="icon_football" viewBox="0 0 50 50">
      <title>depfin icons</title><g id="Layer_2_copy" data-name="Layer 2 copy"><path d="M25.52,7.48a17.8,17.8,0,1,0,17.8,17.8A17.82,17.82,0,0,0,25.52,7.48Zm11.85,5.89a.49.49,0,0,0,.11.23c.95,1,1.33,3.92,1.44,5.47l-3.35,3.19a17.49,17.49,0,0,0-6.36-2.76l-2-6A7.65,7.65,0,0,1,30,11l.05,0,6,2.12a.75.75,0,0,0,.8-.2C37.06,13.08,37.22,13.22,37.37,13.37Zm-24,18.72a.74.74,0,0,0,0-.14l-1.1-7.15a.72.72,0,0,0,0-.08,8.84,8.84,0,0,1,1-1.23l1.48-1.21a10,10,0,0,1,1.52-.83l6,4a28.8,28.8,0,0,0,.87,6.41l-4.91,3.34A17.88,17.88,0,0,1,13.37,32.09Zm10.72-.41h0a28.06,28.06,0,0,1-.84-6.22l5.78-5a16.71,16.71,0,0,1,6.06,2.65l.67,7.43a25,25,0,0,1-5.5,4.09ZM39.94,19h0A22.33,22.33,0,0,0,39.5,16a16.72,16.72,0,0,1,2.11,4.5ZM28.56,8.77a.74.74,0,0,0,.13.59l.65.87a8.66,8.66,0,0,0-3,2.75l-7.3.4a15.23,15.23,0,0,0-2.54-2.26,16.58,16.58,0,0,1,12-2.33ZM15.68,11.68a.49.49,0,0,0,.11.11A15.13,15.13,0,0,1,18.28,14L15.9,20.5h0a10.69,10.69,0,0,0-4.23,3.28L9.78,21a.74.74,0,0,0-.42-.29A16.8,16.8,0,0,1,15.68,11.68ZM11.09,33.85l1.64-1a18.73,18.73,0,0,0,5.08,3.29.72.72,0,0,0,.06.16l2.39,3.78-.76.57a.49.49,0,0,0-.15.21A16.84,16.84,0,0,1,11.09,33.85Zm9.3,7.42.61-.46,0,0c.11,0,2.82.32,4.47.32a25.4,25.4,0,0,0,3.31-.27c.59,0,1.65.06,2.68.06h.07a16.68,16.68,0,0,1-11.2.34Zm13.33-1.34a.49.49,0,0,0-.31-.07,30.78,30.78,0,0,1-3.55,0l.79-4.35a25.16,25.16,0,0,0,5.62-4.12.74.74,0,0,0,.2,0l4.57.23A16.85,16.85,0,0,1,33.72,39.94Z"/></g>
    </symbol>
    <symbol id="icon_go" viewBox="0 0 26.42 16.78">
      <title>google_plus</title><path d="M0,8A8.37,8.37,0,0,1,8.39,0,8.5,8.5,0,0,1,14,2.08a29.87,29.87,0,0,1-2.13,2.2C10,3,7.25,2.59,5.34,4.11a5.37,5.37,0,0,0-.23,8.37c2.55,2.32,7.38,1.17,8.08-2.38-1.6,0-3.2,0-4.8-.05,0-1,0-1.91,0-2.86,2.67,0,5.34,0,8,0a9.62,9.62,0,0,1-1.51,6.49c-2.09,2.94-6.28,3.79-9.55,2.54A8.4,8.4,0,0,1,0,8Z" fill="#fff"/><path d="M21.62,4.78H24c0,.8,0,1.6,0,2.4l2.4,0V9.58L24,9.6q0,1.2,0,2.4H21.62c0-.8,0-1.59,0-2.39l-2.4,0V7.19l2.4,0Q21.61,6,21.62,4.78Z" fill="#fff"/>
    </symbol>
    <symbol id="icon_graphic" viewBox="0 0 24 24">
         <g id="Layer_2_copy"> <path class="st1" d="M8.2,12c0-0.1,0-0.2,0-0.3h-2c0,0.1,0,0.2,0,0.3c0,2.4,1.5,4.5,3.6,5.4l0.7-1.9C9.1,14.9,8.2,13.6,8.2,12z"/> <path class="st1" d="M15.9,3.9l-0.9,1.8C17.4,6.9,19,9.2,19,12c0,3.9-3.1,7-7,7c-3.9,0-7-3.1-7-7c0-0.1,0-0.2,0-0.3H3
		c0,0.1,0,0.2,0,0.3c0,5,4,9,9,9c5,0,9-4,9-9C21,8.4,18.9,5.4,15.9,3.9z"/> <path class="st1" d="M20.6,6.9C21.5,8.4,22,10.1,22,12c0,5.5-4.5,10-10,10C6.5,22,2,17.5,2,12c0-0.1,0-0.2,0-0.3H0
		c0,0.1,0,0.2,0,0.3c0,6.6,5.4,12,12,12c6.6,0,12-5.4,12-12c0-2.3-0.6-4.3-1.7-6.1L20.6,6.9z"/> </g> 
    </symbol>
    <symbol id="icon_green-daw" viewBox="0 0 21 21">
       <g> <g> <path fill-rule="evenodd" clip-rule="evenodd" fill="#85C441" d="M10.5,0C4.7,0,0,4.7,0,10.5S4.7,21,10.5,21S21,16.3,21,10.5
			S16.3,0,10.5,0z M15.6,8.2L11,15.6c-0.5,0.5-1.4,0.5-1.9,0c0,0,0,0,0-0.1c0,0-0.1,0-0.1-0.1L5.4,12c-0.5-0.5-0.5-1.3,0-1.9
			c0.5-0.5,1.4-0.5,1.9,0l2.5,2.4l3.9-6.2c0.5-0.5,1.4-0.5,1.9,0C16.1,6.9,16.1,7.7,15.6,8.2z"/> </g> </g> 
    </symbol>
    <symbol id="icon_health-care" viewBox="0 0 50 50">
      <title>depfin icons</title><g id="Layer_2_copy" data-name="Layer 2 copy"><path d="M17.1,29.27a13.9,13.9,0,0,1-3.7-3.73,3.58,3.58,0,0,0-2.93-1.81C10,21.14,9.39,17,9.33,16a3.5,3.5,0,0,0-2.17-3,1.5,1.5,0,0,0-1.67.87c-.68,1.28-.71,5.59-.68,12,0,.84,0,1.66,0,2.42,0,3.49,3.67,6.24,6.63,8.44,1.15.86,2.89,2.15,2.93,2.63v6a.75.75,0,0,0,.75.75H23a.75.75,0,0,0,.75-.75V38.55c0-3.42-.82-4.8-1.53-5.61A33.87,33.87,0,0,0,17.1,29.27Zm5.15,15.4H15.87V39.38c0-1.19-1.48-2.3-3.53-3.83-2.68-2-6-4.49-6-7.24,0-.76,0-1.58,0-2.43,0-4.09,0-10.26.51-11.31l.06-.1a2.26,2.26,0,0,1,1,1.62c.08,1.22.95,6.62,1.2,8.17a3.3,3.3,0,0,0-.36,4c.79,1.59,2.67,3.32,4.49,5,1.31,1.21,2.79,2.57,3,3.22A.75.75,0,0,0,17.6,36c-.32-1-1.51-2.09-3.42-3.85-1.64-1.51-3.5-3.22-4.17-4.56s-.11-2.07.16-2.31c.28,0,1.17-.09,2,1.13a15.44,15.44,0,0,0,4.18,4.19,33.71,33.71,0,0,1,4.77,3.37c.35.4,1.16,1.32,1.16,4.62Z"/><path d="M45.37,13.88A1.5,1.5,0,0,0,43.7,13a3.44,3.44,0,0,0-2.17,3c-.06,1-.71,5.14-1.13,7.72a3.58,3.58,0,0,0-2.93,1.81,13.94,13.94,0,0,1-3.7,3.73,33.9,33.9,0,0,0-5.12,3.67c-.71.81-1.53,2.18-1.53,5.61v6.87a.75.75,0,0,0,.75.75h7.88a.75.75,0,0,0,.75-.75v-6c0-.48,1.78-1.77,2.93-2.63,3-2.2,6.63-4.94,6.63-8.44,0-.76,0-1.57,0-2.41C46.08,19.48,46.05,15.17,45.37,13.88Zm-.82,12c0,.84,0,1.66,0,2.42,0,2.74-3.34,5.23-6,7.24C36.47,37.08,35,38.19,35,39.38v5.29H28.61V38.55c0-3.3.81-4.22,1.16-4.62a33.76,33.76,0,0,1,4.77-3.37,15.48,15.48,0,0,0,4.18-4.19,2,2,0,0,1,2-1.13c.23.21.85.92.16,2.31s-2.53,3.05-4.17,4.56C34.78,33.87,33.59,35,33.27,36a.75.75,0,0,0,1.42.47c.22-.65,1.7-2,3-3.22,1.82-1.68,3.7-3.41,4.49-5a3.3,3.3,0,0,0-.36-4c.25-1.54,1.13-7,1.2-8.17A2.43,2.43,0,0,1,44,14.46a.4.4,0,0,1,.09.13C44.6,15.63,44.57,21.81,44.56,25.9Z"/><path d="M25.77,27.82C26.27,27.51,38,20.12,38,11.57a6.76,6.76,0,0,0-7-6.67,7.16,7.16,0,0,0-5.71,2.54A7.16,7.16,0,0,0,19.67,4.9a6.76,6.76,0,0,0-7,6.67c0,8.55,11.77,15.94,12.27,16.25h0l0,0a.74.74,0,0,0,.33.08h0a.74.74,0,0,0,.33-.08l0,0ZM14.21,11.57A5.27,5.27,0,0,1,19.67,6.4a5.52,5.52,0,0,1,5,2.69l.05.07a.72.72,0,0,0,.1.12l.12.09.07.06h0l.15,0,.14,0,.14,0,.15,0h0l.07-.05.12-.1A.72.72,0,0,0,26,9.16a.7.7,0,0,0,.06-.07,5.55,5.55,0,0,1,5-2.69,5.27,5.27,0,0,1,5.46,5.17c0,6.9-9.15,13.37-11.17,14.71C23.36,24.94,14.21,18.47,14.21,11.57Z"/></g>
    </symbol>
    <symbol id="icon_health-cross" viewBox="0 0 50 50">
      <title>depfin icons</title><g id="Layer_2_copy" data-name="Layer 2 copy"><path d="M42.84,5.89H8A1.75,1.75,0,0,0,6.21,7.64V42.51A1.75,1.75,0,0,0,8,44.26H42.84a1.75,1.75,0,0,0,1.75-1.75V7.64A1.75,1.75,0,0,0,42.84,5.89Zm.25,36.62a.25.25,0,0,1-.25.25H8a.25.25,0,0,1-.25-.25V7.64A.25.25,0,0,1,8,7.39H42.84a.25.25,0,0,1,.25.25Z"/><path d="M36.07,20H30.32V14.22a1.75,1.75,0,0,0-1.75-1.75H22.17a1.75,1.75,0,0,0-1.75,1.75V20H14.67a1.75,1.75,0,0,0-1.75,1.75v6.39a1.75,1.75,0,0,0,1.75,1.75h5.75v5.75a1.75,1.75,0,0,0,1.75,1.75h6.39a1.75,1.75,0,0,0,1.75-1.75V29.87h5.75a1.75,1.75,0,0,0,1.75-1.75V21.73A1.75,1.75,0,0,0,36.07,20Zm.25,8.15a.26.26,0,0,1-.25.25h-6.5a.75.75,0,0,0-.75.75v6.5a.26.26,0,0,1-.25.25H22.17a.26.26,0,0,1-.25-.25v-6.5a.75.75,0,0,0-.75-.75h-6.5a.26.26,0,0,1-.25-.25V21.73a.26.26,0,0,1,.25-.25h6.5a.75.75,0,0,0,.75-.75v-6.5a.26.26,0,0,1,.25-.25h6.39a.26.26,0,0,1,.25.25v6.5a.75.75,0,0,0,.75.75h6.5a.26.26,0,0,1,.25.25Z"/></g>
    </symbol>
    <symbol id="icon_home" viewBox="0 0 50 50">
      <title>depfin icons</title><g id="Layer_2_copy" data-name="Layer 2 copy"><path d="M48.38,28.24,27.83,7.68a3.89,3.89,0,0,0-5.5,0L1.76,28.24a.75.75,0,0,0,.53,1.28H9l.12,14.3a.75.75,0,0,0,.75.74H20.2a.75.75,0,0,0,.75-.75V31.44h8.22V43.81a.75.75,0,0,0,.75.75h9.72a.75.75,0,0,0,.75-.75V29.52h7.47a.75.75,0,0,0,.53-1.28ZM39.63,28a.75.75,0,0,0-.75.75v14.3H30.66V30.69a.75.75,0,0,0-.75-.75H20.2a.75.75,0,0,0-.75.75V43.06H10.6l-.12-14.3A.75.75,0,0,0,9.73,28H4.11L23.39,8.74a2.39,2.39,0,0,1,3.38,0L46,28Z"/></g>
    </symbol>
    <symbol id="icon_icon-cross" viewBox="0 0 32.526 32.526">
       <polygon points="32.526,2.828 29.698,0 16.263,13.435 2.828,0 0,2.828 13.435,16.263 0,29.698 2.828,32.526 16.263,19.091 
	29.698,32.526 32.526,29.698 19.091,16.263 "/>                
    </symbol>
    <symbol id="icon_icon-error" viewBox="0 0 426.667 426.667">
       <path style="fill:#F05228;" d="M213.333,0C95.514,0,0,95.514,0,213.333s95.514,213.333,213.333,213.333
	s213.333-95.514,213.333-213.333S331.153,0,213.333,0z M330.995,276.689l-54.302,54.306l-63.36-63.356l-63.36,63.36l-54.302-54.31
	l63.356-63.356l-63.356-63.36l54.302-54.302l63.36,63.356l63.36-63.356l54.302,54.302l-63.356,63.36L330.995,276.689z"/>                
    </symbol>
    <symbol id="icon_icon-glass" viewBox="0 0 451 451">
       <g> <path d="M447.05,428l-109.6-109.6c29.4-33.8,47.2-77.9,47.2-126.1C384.65,86.2,298.35,0,192.35,0C86.25,0,0.05,86.3,0.05,192.3
		s86.3,192.3,192.3,192.3c48.2,0,92.3-17.8,126.1-47.2L428.05,447c2.6,2.6,6.1,4,9.5,4s6.9-1.3,9.5-4
		C452.25,441.8,452.25,433.2,447.05,428z M26.95,192.3c0-91.2,74.2-165.3,165.3-165.3c91.2,0,165.3,74.2,165.3,165.3
		s-74.1,165.4-165.3,165.4C101.15,357.7,26.95,283.5,26.95,192.3z"/> </g>                
    </symbol>
    <symbol id="icon_icon-next" viewBox="0 0 21.43 39">
      <path fill="none" stroke="#fff" stroke-linecap="round" stroke-miterlimit="50" stroke-width="2" d="M1.29 37.81l18.93-18.48L1.62 1.17"/>
    </symbol>
    <symbol id="icon_icon-ok-ch" viewBox="0 0 8 8">
       <path fill-rule="evenodd" fill="rgb(13, 70, 161)" d="M7.832,1.555 L4.687,6.273 L4.707,6.293 L4.606,6.394 L3.832,7.555 L3.600,7.400 L3.293,7.707 L0.293,4.707 L1.707,3.293 L3.245,4.830 L6.168,0.445 L7.832,1.555 Z"/> 
    </symbol>
    <symbol id="icon_icon-prev" viewBox="0 0 21.43 39">
      <path fill="none" stroke="#fff" stroke-linecap="round" stroke-miterlimit="50" stroke-width="2" d="M20.14 37.81L1.22 19.33l18.6-18.16"/>
    </symbol>
    <symbol id="icon_icon-rss" viewBox="0 0 16 19">
       <path fill-rule="evenodd" fill="rgb(254, 227, 0)" d="M13.141,5.781 C12.504,5.781 11.921,5.564 11.446,5.208 L5.643,8.583 C5.689,8.788 5.719,9.000 5.719,9.219 C5.719,9.573 5.646,9.908 5.530,10.221 L11.390,13.664 C11.869,13.309 12.455,13.094 13.094,13.094 C14.699,13.094 16.000,14.416 16.000,16.047 C16.000,17.678 14.699,19.000 13.094,19.000 C11.489,19.000 10.188,17.678 10.188,16.047 C10.188,15.715 10.254,15.401 10.353,15.103 L4.426,11.620 C3.975,11.918 3.438,12.094 2.859,12.094 C1.280,12.094 -0.000,10.807 -0.000,9.219 C-0.000,7.631 1.280,6.344 2.859,6.344 C3.598,6.344 4.265,6.633 4.772,7.095 L10.439,3.799 C10.345,3.512 10.281,3.210 10.281,2.891 C10.281,1.294 11.561,-0.000 13.141,-0.000 C14.720,-0.000 16.000,1.294 16.000,2.891 C16.000,4.487 14.720,5.781 13.141,5.781 Z"/> 
    </symbol>
    <symbol id="icon_info" viewBox="0 0 401.998 401.998">
       <g> <g> <path d="M164.454,91.363h73.098c4.945,0,9.226-1.807,12.847-5.424c3.61-3.614,5.421-7.898,5.421-12.847V18.274
			c0-4.948-1.811-9.229-5.428-12.85C246.777,1.812,242.49,0,237.544,0h-73.091c-4.946,0-9.229,1.812-12.847,5.424
			c-3.615,3.617-5.424,7.902-5.424,12.85v54.818c0,4.949,1.809,9.233,5.424,12.847C155.224,89.556,159.507,91.363,164.454,91.363z"/> <path d="M286.936,334.331c-3.613-3.617-7.897-5.427-12.847-5.427h-18.274V164.452c0-4.947-1.807-9.229-5.421-12.845
			c-3.62-3.617-7.904-5.426-12.847-5.426H127.912c-4.949,0-9.231,1.809-12.847,5.426c-3.618,3.616-5.424,7.898-5.424,12.845v36.547
			c0,4.946,1.807,9.231,5.424,12.845c3.615,3.621,7.898,5.428,12.847,5.428h18.274v109.633h-18.274
			c-4.949,0-9.231,1.81-12.847,5.427c-3.618,3.614-5.424,7.898-5.424,12.847v36.546c0,4.948,1.807,9.232,5.424,12.854
			c3.615,3.61,7.898,5.421,12.847,5.421h146.177c4.949,0,9.233-1.811,12.847-5.421c3.614-3.621,5.421-7.905,5.421-12.854v-36.546
			C292.357,342.229,290.56,337.945,286.936,334.331z"/> </g> </g>                
    </symbol>
    <symbol id="icon_information" viewBox="0 0 512 512">
       <g> <g> <path d="M285.172,331.453c-12.453,13.25-20.547,18.781-26.094,18.781c-3.859,0-5.172-3.422-4.312-11.142
			c2.593-20.062,17.531-84.578,21.781-107.625c4.266-19.719,3-29.953-2.562-29.953c-10.641,0-36.733,17.516-53.827,35.016
			c-0.875,1.344-2.562,8.578-1.688,11.125c0,0.875,1.266,1.312,1.266,1.312c10.266-8.125,18.391-12.844,23.109-12.844
			c2.109,0,2.938,3.406,1.688,9.406c-5.125,25.625-13.672,65.405-20.078,98.28c-5.984,28.672-2.172,40.188,6.812,40.188
			s33.766-11.983,53.906-38.906c0.812-2.094,1.641-10.188,1.25-12.358C286.422,331.906,285.172,331.453,285.172,331.453z"/> <path d="M281.281,128c-7.297,0-16.25,3.414-20.516,7.703c-1.688,2.141-3.406,8.539-3.859,11.945
			c0.453,7.711,2.578,11.984,6.859,14.562c2.108,1.68,16.219,0.414,19.219-1.312c5.188-3.398,9.828-10.25,10.703-18.375
			c0.375-3.82-0.438-8.984-2.142-11.531C290.688,129.719,287.25,128,281.281,128z"/> <path d="M256,0C114.609,0,0,114.609,0,256c0,141.391,114.609,256,256,256c141.391,0,256-114.609,256-256
			C512,114.609,397.391,0,256,0z M256,472c-119.297,0-216-96.703-216-216S136.703,40,256,40s216,96.703,216,216S375.297,472,256,472
			z"/> </g> </g>                
    </symbol>
    <symbol id="icon_insta" viewBox="0 0 19.48 20">
      <title>instagram</title><path d="M13.62,20H5.86A5.87,5.87,0,0,1,0,14.14V5.86A5.87,5.87,0,0,1,5.86,0h7.75a5.87,5.87,0,0,1,5.86,5.86v8.27A5.87,5.87,0,0,1,13.62,20ZM5.86,2.12A3.75,3.75,0,0,0,2.12,5.86v8.27a3.75,3.75,0,0,0,3.75,3.75h7.75a3.75,3.75,0,0,0,3.75-3.75V5.86a3.75,3.75,0,0,0-3.75-3.75Z"/><path d="M9.74,15.53A5.56,5.56,0,0,1,4.18,10a5.65,5.65,0,0,1,1.7-4A5.32,5.32,0,0,1,9.78,4.42a5.73,5.73,0,0,1,4.13,1.69A5.38,5.38,0,0,1,15.3,10h0a5.68,5.68,0,0,1-1.64,3.9A5.47,5.47,0,0,1,9.74,15.53ZM9.62,7a2.76,2.76,0,0,0-1.93.8A3,3,0,0,0,6.77,10a3,3,0,1,0,5.94,0A2.9,2.9,0,0,0,12,7.88,3.22,3.22,0,0,0,9.7,7Z"/><circle cx="14.99" cy="4.7" r="1.2"/>
    </symbol>
    <symbol id="icon_light" viewBox="0 0 50 50">
      <title>depfin icons</title><g id="Layer_2_copy" data-name="Layer 2 copy"><path d="M26.09,32.45A8.43,8.43,0,1,1,34.52,24,8.44,8.44,0,0,1,26.09,32.45Zm0-15.37A6.93,6.93,0,1,0,33,24,6.94,6.94,0,0,0,26.09,17.08Z"/><path d="M14.69,24.76H6.83a.75.75,0,0,1,0-1.5h7.86a.75.75,0,0,1,0,1.5Z"/><path d="M18,16.7a.75.75,0,0,1-.53-.22l-5.56-5.56A.75.75,0,0,1,13,9.86l5.56,5.56A.75.75,0,0,1,18,16.7Z"/><path d="M26.09,13.36a.75.75,0,0,1-.75-.75V4.75a.75.75,0,0,1,1.5,0v7.86A.75.75,0,0,1,26.09,13.36Z"/><path d="M34.15,16.7a.75.75,0,0,1-.53-1.28l5.56-5.56a.75.75,0,0,1,1.06,1.06l-5.56,5.56A.75.75,0,0,1,34.15,16.7Z"/><path d="M45.35,24.76H37.49a.75.75,0,0,1,0-1.5h7.86a.75.75,0,1,1,0,1.5Z"/><path d="M39.7,38.38a.75.75,0,0,1-.53-.22L33.62,32.6a.75.75,0,1,1,1.06-1.06l5.56,5.56a.75.75,0,0,1-.53,1.28Z"/><path d="M12.47,38.38a.75.75,0,0,1-.53-1.28l5.56-5.56a.75.75,0,1,1,1.06,1.06L13,38.16A.75.75,0,0,1,12.47,38.38Z"/><path d="M22.51,37.24a.75.75,0,0,1-.08-1.5l7.43-.85A.75.75,0,0,1,30,36.39l-7.43.85Z"/><path d="M22.51,42a.75.75,0,0,1-.08-1.5l7.43-.85A.75.75,0,1,1,30,41.18L22.6,42Z"/><path d="M23.75,46.59a.75.75,0,0,1-.08-1.5l4.8-.55A.75.75,0,1,1,28.63,46l-4.8.55Z"/></g>
    </symbol>
    <symbol id="icon_odnokl" viewBox="0 0 12.01 20">
      <title>odnoklassniki</title><path d="M5,14.09A7.78,7.78,0,0,1,.87,12.61c-.15-.12-.3-.23-.44-.36a1.18,1.18,0,0,1-.16-1.67,1.18,1.18,0,0,1,1.57-.35,2.49,2.49,0,0,1,.34.2,6.8,6.8,0,0,0,7.53.07,2,2,0,0,1,.73-.38,1.15,1.15,0,0,1,1.32.53,1.12,1.12,0,0,1-.08,1.47A6.1,6.1,0,0,1,9.5,13.53,10.34,10.34,0,0,1,7,14.09l.27.29,3.46,3.47A1.15,1.15,0,0,1,11,19.19a1.37,1.37,0,0,1-1.28.8,1.25,1.25,0,0,1-.81-.41C8,18.7,7.15,17.84,6.3,16.95c-.25-.26-.37-.21-.58,0-.87.9-1.76,1.79-2.66,2.67a1.11,1.11,0,0,1-1.34.24,1.36,1.36,0,0,1-.79-1.25,1.25,1.25,0,0,1,.42-.84l3.41-3.42L5,14.09Zm0,0" fill-rule="evenodd"/><path d="M6,10.12a5.06,5.06,0,1,1,5.09-5,5.06,5.06,0,0,1-5.09,5ZM8.48,5.06A2.48,2.48,0,1,0,6,7.54,2.47,2.47,0,0,0,8.48,5.06Zm0,0" fill-rule="evenodd"/>
    </symbol>
    <symbol id="icon_paint" viewBox="0 0 50 50">
      <title>depfin icons</title><g id="Layer_2_copy" data-name="Layer 2 copy"><path d="M21.93,45.28a23.42,23.42,0,0,1-11.7-3.15C6.11,39.62,3.93,36,3.93,31.72c0-9.13,11.2-14,19.28-14a28.43,28.43,0,0,1,5.6.47.75.75,0,1,1-.27,1.48,27.07,27.07,0,0,0-5.33-.45,24.25,24.25,0,0,0-11.56,3.16C8.82,24,5.43,27,5.43,31.72S9.91,43.78,21.93,43.78c7.26,0,15.38-2.35,15.38-5.5,0-1.73-.94-2.48-2-3.36s-2.2-1.76-2.2-3.56A5.49,5.49,0,0,1,35.6,26.6c1-.8,1.71-1.37,1.71-2.87,0-.58-.58-1.24-1.64-1.86a.75.75,0,0,1,.76-1.29c1.58.92,2.38,2,2.38,3.15a4.74,4.74,0,0,1-2.27,4,4,4,0,0,0-2,3.6c0,1,.59,1.55,1.64,2.39s2.6,2.08,2.6,4.53C38.81,43.05,28.74,45.28,21.93,45.28Z"/><path d="M29.81,40.33c-2.07,0-3.7-1.2-3.7-2.73s1.62-2.73,3.7-2.73,3.7,1.2,3.7,2.73S31.89,40.33,29.81,40.33Zm0-4c-1.29,0-2.2.65-2.2,1.23s.9,1.23,2.2,1.23S32,38.18,32,37.6,31.11,36.37,29.81,36.37Z"/><path d="M17.85,40.89c-2.07,0-3.7-1.2-3.7-2.73s1.62-2.73,3.7-2.73,3.7,1.2,3.7,2.73S19.92,40.89,17.85,40.89Zm0-4c-1.29,0-2.2.65-2.2,1.23s.9,1.23,2.2,1.23,2.2-.65,2.2-1.23S19.15,36.93,17.85,36.93Z"/><path d="M12,34.23c-2.07,0-3.7-1.2-3.7-2.73s1.62-2.73,3.7-2.73,3.7,1.2,3.7,2.73S14,34.23,12,34.23Zm0-4c-1.29,0-2.2.65-2.2,1.23s.9,1.23,2.2,1.23,2.2-.65,2.2-1.23S13.25,30.27,12,30.27Z"/><path d="M17.06,27.73c-2.07,0-3.7-1.2-3.7-2.73s1.62-2.73,3.7-2.73,3.7,1.2,3.7,2.73S19.13,27.73,17.06,27.73Zm0-4c-1.29,0-2.2.65-2.2,1.23s.9,1.23,2.2,1.23,2.2-.65,2.2-1.23S18.35,23.77,17.06,23.77Z"/><path d="M23.41,31.95a.75.75,0,0,1-.75-.69c-.45-5.25,3-6.61,4.23-6.92A96.21,96.21,0,0,1,44.32,3.72h0a.82.82,0,0,1,.78-.17.76.76,0,0,1,.5.58c.23,1.26-11.2,17.8-16.27,22.25,0,1.25-.64,4.95-5.82,5.56ZM41.25,8.69A91.72,91.72,0,0,0,28,25.37a.75.75,0,0,1-.56.37c-.35,0-3.32.58-3.34,4.58,4-.85,3.71-4.07,3.7-4.22a.75.75,0,0,1,.27-.65C31.84,22.36,37.74,14,41.25,8.69Zm3.57-4.41h0Z"/></g>
    </symbol>
    <symbol id="icon_park" viewBox="0 0 50 50">
      <title>depfin icons</title><g id="Layer_2_copy" data-name="Layer 2 copy"><path d="M23.71,38H22.09v-9.1a.75.75,0,0,0-1.5,0V31H4.16V28.94a.75.75,0,0,0-1.5,0V38H.82a.75.75,0,1,0,0,1.5H2.66v2.81a.75.75,0,0,0,1.5,0V39.54H20.59v2.81a.75.75,0,0,0,1.5,0V39.54h1.62a.75.75,0,0,0,0-1.5Zm-3.12-5.55v2.14H4.16V32.49ZM4.16,38V36.13H20.59V38Z"/><path d="M49.53,31.72c0-2.86-2.49-13.81-6.64-13.81a2.6,2.6,0,0,0-1.22.33c-1.77-5.59-4.6-11.09-8-11.09-5.84,0-10,16.1-10,21.23a10,10,0,0,0,9.5,10v4a.75.75,0,0,0,1.5,0v-4a9.89,9.89,0,0,0,4-1.31,6.36,6.36,0,0,0,3.47,1.3v4a.75.75,0,0,0,1.5,0v-4A6.64,6.64,0,0,0,49.53,31.72ZM34.68,30.46l2.93-2.59a.75.75,0,0,0-1-1.12l-1.94,1.71V26.27a.75.75,0,0,0-1.5,0V31l-2.28-1.74A.75.75,0,0,0,30,30.42l3.19,2.44v4a8.48,8.48,0,0,1-8-8.46c0-5.22,4.22-19.73,8.48-19.73s8.48,14.51,8.48,19.73a8.49,8.49,0,0,1-7.46,8.41Zm9,6.33V36a.75.75,0,0,0-1.5,0v.83A5,5,0,0,1,40,36.12a10,10,0,0,0,3.69-7.74,36.86,36.86,0,0,0-1.53-8.65,1.35,1.35,0,0,1,.78-.31c2.4,0,5.14,8.74,5.14,12.31A5.13,5.13,0,0,1,43.64,36.79Z"/></g>
    </symbol>
    <symbol id="icon_pen" viewBox="0 0 512 512">
       <g> <path d="M444.125,135.765L149.953,429.938l-67.875-67.875L376.219,67.859L444.125,135.765z M444.125,0l-45.281,45.234
		l67.906,67.906L512,67.859L444.125,0z M66.063,391.312L0,512l120.703-66.062L66.063,391.312z"/> </g>                
    </symbol>
    <symbol id="icon_refresh" viewBox="0 0 20.19 17.77">
      <title>Asset 16</title><g id="Layer_2" data-name="Layer 2"><g id="Layer_1-2" data-name="Layer 1"><path class="cls-1" d="M8.51,17.62a8.93,8.93,0,0,0,9.2-4.16.65.65,0,1,0-1.12-.67A7.58,7.58,0,0,1,2.52,9l.13.15a.65.65,0,0,0,1-.85L2.54,7a.65.65,0,0,0-.26-.22h0l-.09,0H2a.65.65,0,0,0-.41.15L.23,8.07a.65.65,0,0,0,.85,1l.14-.12A8.9,8.9,0,0,0,8.51,17.62Zm9.2-6.84h0l.07.07,0,0,.07,0,0,0L18,11l.06,0h.3l.08,0h0l.08,0,0,0,0,0L20,9.7a.65.65,0,0,0-.85-1L19,8.83A8.88,8.88,0,0,0,2.45,4.35.65.65,0,1,0,3.57,5a7.58,7.58,0,0,1,14.1,3.74l-.14-.16a.65.65,0,1,0-1,.85Z"/></g></g>
    </symbol>
    <symbol id="icon_reply" viewBox="0 0 511.63 511.631">
       <g> <path d="M496.5,233.842c-30.841-76.706-114.112-115.06-249.823-115.06h-63.953V45.693c0-4.952-1.809-9.235-5.424-12.85
		c-3.617-3.617-7.896-5.426-12.847-5.426c-4.952,0-9.235,1.809-12.85,5.426L5.424,179.021C1.809,182.641,0,186.922,0,191.871
		c0,4.948,1.809,9.229,5.424,12.847L151.604,350.9c3.619,3.613,7.902,5.428,12.85,5.428c4.947,0,9.229-1.814,12.847-5.428
		c3.616-3.614,5.424-7.898,5.424-12.848v-73.094h63.953c18.649,0,35.349,0.568,50.099,1.708c14.749,1.143,29.413,3.189,43.968,6.143
		c14.564,2.95,27.224,6.991,37.979,12.135c10.753,5.144,20.794,11.756,30.122,19.842c9.329,8.094,16.943,17.7,22.847,28.839
		c5.896,11.136,10.513,24.311,13.846,39.539c3.326,15.229,4.997,32.456,4.997,51.675c0,10.466-0.479,22.176-1.428,35.118
		c0,1.137-0.236,3.375-0.715,6.708c-0.473,3.333-0.712,5.852-0.712,7.562c0,2.851,0.808,5.232,2.423,7.136
		c1.622,1.902,3.86,2.851,6.714,2.851c3.046,0,5.708-1.615,7.994-4.853c1.328-1.711,2.561-3.806,3.71-6.283
		c1.143-2.471,2.43-5.325,3.854-8.562c1.431-3.237,2.43-5.513,2.998-6.848c24.17-54.238,36.258-97.158,36.258-128.756
		C511.63,291.039,506.589,259.344,496.5,233.842z"/> </g>                
    </symbol>
    <symbol id="icon_right-arrow" viewBox="0 0 612 612">
       <g> <path d="M612,306C612,137.004,474.995,0,306,0C137.004,0,0,137.004,0,306c0,168.995,137.004,306,306,306
		C474.995,612,612,474.995,612,306z M153,292.146h271.228l-76.5-97.419h27.818L459,306l-83.454,111.272h-27.818l76.5-97.363H153
		V292.146z"/> </g>                
    </symbol>
    <symbol id="icon_safe-shield" viewBox="0 0 50 50">
      <title>depfin icons</title><g id="Layer_2_copy" data-name="Layer 2 copy"><path d="M25.5,45.36a.75.75,0,0,1-.43-.13c-.64-.45-15.73-11.07-15.73-19.56V12.37a.75.75,0,0,1,.44-.68L25.18,4.58a.75.75,0,0,1,.63,0l15.41,7.11a.75.75,0,0,1,.44.68V25.66c0,9-15.1,19.15-15.74,19.57A.75.75,0,0,1,25.5,45.36ZM10.84,12.85V25.66c0,7,12.23,16.25,14.67,18C28,42,40.15,33.1,40.15,25.66V12.85L25.5,6.09Z"/><path d="M24.44,28.12a.75.75,0,0,1-.5-.19l-5.21-4.74a.75.75,0,0,1,1-1.11l5.21,4.74a.75.75,0,0,1-.5,1.31Z"/><path d="M24.44,28.12a.75.75,0,0,1-.53-1.28l8.53-8.41a.75.75,0,1,1,1.05,1.07L25,27.9A.75.75,0,0,1,24.44,28.12Z"/></g>
    </symbol>
    <symbol id="icon_search" viewBox="0 0 56.966 56.966">
       <path d="M55.146,51.887L41.588,37.786c3.486-4.144,5.396-9.358,5.396-14.786c0-12.682-10.318-23-23-23s-23,10.318-23,23
	s10.318,23,23,23c4.761,0,9.298-1.436,13.177-4.162l13.661,14.208c0.571,0.593,1.339,0.92,2.162,0.92
	c0.779,0,1.518-0.297,2.079-0.837C56.255,54.982,56.293,53.08,55.146,51.887z M23.984,6c9.374,0,17,7.626,17,17s-7.626,17-17,17
	s-17-7.626-17-17S14.61,6,23.984,6z"/>                
    </symbol>
    <symbol id="icon_share-option" viewBox="0 0 511.626 511.627">
       <g> <path d="M506.206,179.012L360.025,32.834c-3.617-3.617-7.898-5.426-12.847-5.426s-9.233,1.809-12.847,5.426
		c-3.617,3.619-5.428,7.902-5.428,12.85v73.089h-63.953c-135.716,0-218.984,38.354-249.823,115.06C5.042,259.335,0,291.03,0,328.907
		c0,31.594,12.087,74.514,36.259,128.762c0.57,1.335,1.566,3.614,2.996,6.849c1.429,3.233,2.712,6.088,3.854,8.565
		c1.146,2.471,2.384,4.565,3.715,6.276c2.282,3.237,4.948,4.859,7.994,4.859c2.855,0,5.092-0.951,6.711-2.854
		c1.615-1.902,2.424-4.284,2.424-7.132c0-1.718-0.238-4.236-0.715-7.569c-0.476-3.333-0.715-5.564-0.715-6.708
		c-0.953-12.938-1.429-24.653-1.429-35.114c0-19.223,1.668-36.449,4.996-51.675c3.333-15.229,7.948-28.407,13.85-39.543
		c5.901-11.14,13.512-20.745,22.841-28.835c9.325-8.09,19.364-14.702,30.118-19.842c10.756-5.141,23.413-9.186,37.974-12.135
		c14.56-2.95,29.215-4.997,43.968-6.14s31.455-1.711,50.109-1.711h63.953v73.091c0,4.948,1.807,9.232,5.421,12.847
		c3.62,3.613,7.901,5.424,12.847,5.424c4.948,0,9.232-1.811,12.854-5.424l146.178-146.183c3.617-3.617,5.424-7.898,5.424-12.847
		C511.626,186.92,509.82,182.636,506.206,179.012z"/> </g>                
    </symbol>
    <symbol id="icon_share" viewBox="0 0 16 19">
      <path fill="#fee300" d="M10.52 3.75a1 1 0 0 1 .04-.22l.73-2.57a1 1 0 0 1 1.23-.68l2.52.73a1 1 0 0 1 .69 1.25l-.74 2.56a1 1 0 0 1-1.23.68l-1.88-.55-6.47 3.77-.35 1.22 6.36 3.74a.99.99 0 0 1 1.03-.3l2.59.75c.53.16.84.72.69 1.25l-.76 2.66a.99.99 0 0 1-1.23.68l-2.6-.76a1.01 1.01 0 0 1-.68-1.24l.38-1.33L4.4 11.6a1 1 0 0 1-.93.2L.96 11.1a1 1 0 0 1-.68-1.24L1 7.3a1 1 0 0 1 1.24-.69l2.23.65z"/>
    </symbol>
    <symbol id="icon_soccer-ball" viewBox="0 0 72.371 72.372">
       <g> <path d="M22.57,2.648c-4.489,1.82-8.517,4.496-11.971,7.949C7.144,14.051,4.471,18.08,2.65,22.568C0.892,26.904,0,31.486,0,36.186
		c0,4.699,0.892,9.281,2.65,13.615c1.821,4.489,4.495,8.518,7.949,11.971c3.454,3.455,7.481,6.129,11.971,7.949
		c4.336,1.76,8.917,2.649,13.617,2.649c4.7,0,9.28-0.892,13.616-2.649c4.488-1.82,8.518-4.494,11.971-7.949
		c3.455-3.453,6.129-7.48,7.949-11.971c1.758-4.334,2.648-8.916,2.648-13.615c0-4.7-0.891-9.282-2.648-13.618
		c-1.82-4.488-4.496-8.518-7.949-11.971s-7.479-6.129-11.971-7.949C45.467,0.891,40.887,0,36.187,0
		C31.487,0,26.906,0.891,22.57,2.648z M9.044,51.419c-1.743-1.094-3.349-2.354-4.771-3.838c-2.172-6.112-2.54-12.729-1.101-19.01
		c0.677-1.335,1.447-2.617,2.318-3.845c0.269-0.379,0.518-0.774,0.806-1.142l8.166,4.832c0,0.064,0,0.134,0,0.205
		c-0.021,4.392,0.425,8.752,1.313,13.049c0.003,0.02,0.006,0.031,0.01,0.049l-6.333,9.93C9.314,51.579,9.177,51.503,9.044,51.419z
		 M33.324,68.206c1.409,0.719,2.858,1.326,4.347,1.82c-6.325,0.275-12.713-1.207-18.36-4.447L33,68.018
		C33.105,68.085,33.212,68.149,33.324,68.206z M33.274,65.735L17.12,62.856c-1.89-2.295-3.59-4.723-5.051-7.318
		c-0.372-0.66-0.787-1.301-1.102-1.99l6.327-9.92c0.14,0.035,0.296,0.072,0.473,0.119c3.958,1.059,7.986,1.812,12.042,2.402
		c0.237,0.033,0.435,0.062,0.604,0.08l7.584,13.113c-1.316,1.85-2.647,3.69-4.007,5.51C33.764,65.155,33.524,65.446,33.274,65.735z
		 M60.15,60.149c-1.286,1.287-2.651,2.447-4.08,3.481c-0.237-1.894-0.646-3.75-1.223-5.563l8.092-15.096
		c2.229-1.015,4.379-2.166,6.375-3.593c0.261-0.185,0.478-0.392,0.646-0.618C69.374,46.561,66.104,54.196,60.15,60.149z
		 M59.791,40.571c0.301,0.574,0.598,1.154,0.896,1.742l-7.816,14.58c-0.045,0.01-0.088,0.02-0.133,0.026
		c-4.225,0.789-8.484,1.209-12.779,1.229l-7.8-13.487c1.214-2.254,2.417-4.517,3.61-6.781c0.81-1.536,1.606-3.082,2.401-4.627
		l16.143-1.658C56.29,34.495,58.163,37.457,59.791,40.571z M56.516,23.277c-0.766,2.023-1.586,4.025-2.401,6.031l-15.726,1.615
		c-0.188-0.248-0.383-0.492-0.588-0.725c-1.857-2.103-3.726-4.193-5.592-6.289c0.017-0.021,0.034-0.037,0.051-0.056
		c-0.753-0.752-1.508-1.504-2.261-2.258l4.378-13.181c0.302-0.08,0.606-0.147,0.913-0.18c2.38-0.242,4.763-0.516,7.149-0.654
		c1.461-0.082,2.93-0.129,4.416-0.024l10.832,12.209C57.314,20.943,56.95,22.124,56.516,23.277z M60.15,12.221
		c2.988,2.99,5.302,6.402,6.938,10.047c-2.024-1.393-4.188-2.539-6.463-3.473c-0.354-0.146-0.717-0.275-1.086-0.402L48.877,6.376
		c0.074-0.519,0.113-1.039,0.129-1.563C53.062,6.464,56.864,8.936,60.15,12.221z M25.334,4.182c0.042,0.031,0.062,0.057,0.086,0.064
		c2.437,0.842,4.654,2.082,6.744,3.553l-4.09,12.317c-0.021,0.006-0.041,0.012-0.061,0.021c-0.837,0.346-1.69,0.656-2.514,1.031
		c-3.395,1.543-6.705,3.252-9.823,5.301l-8.071-4.775c0.012-0.252,0.055-0.508,0.141-0.736c0.542-1.444,1.075-2.896,1.688-4.311
		c0.472-1.09,1.01-2.143,1.597-3.172c0.384-0.424,0.782-0.844,1.192-1.254c3.833-3.832,8.363-6.553,13.186-8.162
		C25.384,4.098,25.358,4.139,25.334,4.182z"/> </g>                
    </symbol>
    <symbol id="icon_study" viewBox="0 0 50 50">
      <title>depfin icons</title><g id="Layer_2_copy" data-name="Layer 2 copy"><path d="M45.91,20.42l-21.45-7.6a.75.75,0,0,0-.5,0L2.51,20.42a.75.75,0,0,0,0,1.41l8.15,2.88v7.8a.75.75,0,0,0,.19.5c.18.2,4.52,4.92,13.36,4.92s13.48-4.7,13.68-4.9a.75.75,0,0,0,.21-.52V24.6l3.49-1.24v4.78a2.5,2.5,0,1,0,1.5,0V22.83l2.82-1a.75.75,0,0,0,0-1.41Zm-3.57,11.1a1,1,0,1,1,1-1A1,1,0,0,1,42.34,31.52Zm-5.74.67a18.85,18.85,0,0,1-12.39,4.25c-7.15,0-11.16-3.38-12.05-4.23v-7L24,29.43a.75.75,0,0,0,.5,0l12.14-4.3ZM24.21,27.93,5,21.13l19.2-6.8,19.2,6.8Z"/></g>
    </symbol>
    <symbol id="icon_support-icon-1" viewBox="0 0 50 50">
      <title>depfin icons</title><g id="Layer_2_copy" data-name="Layer 2 copy"><path d="M21.31,13.14A4.28,4.28,0,1,0,17,8.86,4.29,4.29,0,0,0,21.31,13.14Zm0-7.07a2.78,2.78,0,1,1-2.78,2.78A2.79,2.79,0,0,1,21.31,6.07Z"/><path d="M37.66,24.29a2.8,2.8,0,1,0-2.8-2.8A2.8,2.8,0,0,0,37.66,24.29Zm0-4.09a1.3,1.3,0,1,1-1.3,1.3A1.3,1.3,0,0,1,37.66,20.2Z"/><path d="M39.35,28.66H23.07a.75.75,0,0,0,0,1.5H25.3V49.1a.75.75,0,0,0,1.5,0v-15h9v15a.75.75,0,0,0,1.5,0V30.16h2a.75.75,0,0,0,0-1.5Zm-3.5,4h-9V30.16h9Z"/><path d="M31.87,23.95a.75.75,0,0,0,1,.24l1.48-.85a.75.75,0,0,0-.75-1.3l-.87.5L30.44,19a.75.75,0,1,0-1.25.82Z"/><path d="M24.52,22.71a.75.75,0,0,0,.55.91l2.33.57c.8,1.24,2.46,3.55,3.82,3.55h3a.75.75,0,0,0,.66-.39L36,25.4a.75.75,0,0,0-1.31-.72l-.86,1.56H31.22c-.45-.06-1.74-1.54-2.72-3.1a.75.75,0,0,0-.46-.33l-2.62-.65A.75.75,0,0,0,24.52,22.71Z"/><path d="M22.83,24.88a.74.74,0,0,0,.24,0,.75.75,0,0,0,.24-1.46L22,23l1.19-6.51c.19-1.05-.71-2.17-2.11-2.6l-3.37-1c-1.4-.43-2.77,0-3.17,1L7.73,30.78a3.35,3.35,0,0,0,.09,2.73A3.63,3.63,0,0,0,10,35.4l.14,0V48a1.89,1.89,0,0,0,1.89,1.89h2.49A1.89,1.89,0,0,0,16.46,48V37.22h.14a3.45,3.45,0,0,0,1.8-.5,3.29,3.29,0,0,0,1.54-2.25l1.82-10Zm-2.16-9.53c.76.23,1.1.74,1.07.89l-1.15,6.3-3-1-.46-7.25.2,0Zm-6.1,33H12.07a.39.39,0,0,1-.39-.39V35.9l3.27,1V48A.39.39,0,0,1,14.57,48.35Zm3.89-14.13a1.81,1.81,0,0,1-.84,1.24,2,2,0,0,1-1.66.18L10.48,34a2.1,2.1,0,0,1-1.31-1.1,1.86,1.86,0,0,1,0-1.52l6.54-16.16.44,6.94a.75.75,0,0,0,.51.66L20.32,24Z"/></g>
    </symbol>
    <symbol id="icon_support-icon-10" viewBox="0 0 50 50">
      <title>depfin icons</title><g id="Layer_2_copy" data-name="Layer 2 copy"><path d="M49.69,39.48c-.23,0-5.56.26-8.22,1.28-1.31.5-3.23,1.36-5.08,2.2s-3.73,1.68-5,2.16c-.59.22-1.14.48-1.66.72-1.73.81-3,1.39-4.71.43C22.47,44.84,5.55,33,3.68,31.15c-.51-.49-2.06-2-2.07-2.86a.65.65,0,0,1,.23-.49c.58-.58,1.6-.3,3.6,1,2.56,1.68,8.37,5.42,10.71,6.41a4,4,0,0,0,.92,2.3,5.11,5.11,0,0,0,3.61,1.84c1.56.11,3.18.08,5.05,0,1,0,2,0,3.13,0a18.78,18.78,0,0,1,2.85.24,12.8,12.8,0,0,0,1.83.17,6.3,6.3,0,0,0,2.16-.38,22.21,22.21,0,0,0,4.74-2.53.75.75,0,0,0-.87-1.22A21.06,21.06,0,0,1,35.22,38a6,6,0,0,1-3.28.14,20.09,20.09,0,0,0-3.06-.25c-1.12,0-2.17,0-3.16,0-1.84,0-3.43.06-4.92,0a3.6,3.6,0,0,1-2.55-1.29,2.36,2.36,0,0,1-.58-1.77,3,3,0,0,1,3.13-2.28l1,.06a34,34,0,0,0,7-.07,26.4,26.4,0,0,0,4.89-2.08c1.94-1,4.34-2.13,5.14-2.13A8.91,8.91,0,0,1,42,29.4a24.4,24.4,0,0,0,3.23,1.31c2.92.89,4.14,0,4.36-.14a.73.73,0,0,0,.1-1,.77.77,0,0,0-1-.16s-.82.54-3-.12a22.9,22.9,0,0,1-3-1.24A9.74,9.74,0,0,0,38.8,26.8c-1.07,0-2.9.86-5.8,2.29a27.25,27.25,0,0,1-4.51,2,33.2,33.2,0,0,1-6.58,0l-1-.06a4.56,4.56,0,0,0-.46,0,.74.74,0,0,0-.17-.17c-.07,0-6.7-4.42-7.48-5s-2.24-1.28-3.28-1a13.68,13.68,0,0,0-1.84.81A2.66,2.66,0,0,0,7,25.53a5.6,5.6,0,0,0-2.61.91c-1.2-.54-2.52-.76-3.57.29A2.14,2.14,0,0,0,.12,28.3c0,1.31,1.22,2.66,2.52,3.93,2,1.93,19,13.85,21.66,15.35a5,5,0,0,0,2.48.69,8.57,8.57,0,0,0,3.59-1.07c.49-.23,1-.47,1.56-.68,1.31-.5,3.23-1.36,5.08-2.2s3.73-1.68,5-2.16c2.44-.93,7.7-1.18,7.75-1.18a.75.75,0,0,0,.71-.78A.74.74,0,0,0,49.69,39.48ZM9.89,26.38a3.67,3.67,0,0,1,2,.76c.63.44,4.76,3.17,6.61,4.39-.12.06-.24.14-.36.21a.71.71,0,0,0-.1-.09c-3-1.8-6.47-3.83-8.73-5A5.59,5.59,0,0,1,9.89,26.38ZM6.78,27c.69.19,5.72,3.07,10.21,5.76a4,4,0,0,0-.56.94A117.18,117.18,0,0,1,6.27,27.56l-.36-.23A2.8,2.8,0,0,1,6.78,27Z"/><path d="M24,26a.68.68,0,0,0,.68,0,.68.68,0,0,0,.68,0c.58-.34,14.28-8.51,13.82-17.27C39,5.46,37.87,3.23,35.84,2.12,32,0,26.19,2.77,24.65,3.57,23.11,2.77,17.31,0,13.47,2.12c-2,1.11-3.15,3.34-3.32,6.63C9.7,17.51,23.39,25.68,24,26ZM14.19,3.43c3.63-2,10,1.61,10.1,1.65h0a.73.73,0,0,0,.2.06h.25A.73.73,0,0,0,25,5.09h0c.07,0,6.47-3.64,10.1-1.65,1.54.84,2.4,2.66,2.54,5.39C38,16.37,25.74,24,24.65,24.68c-1.09-.66-13.39-8.3-13-15.85C11.79,6.09,12.64,4.28,14.19,3.43Z"/></g>
    </symbol>
    <symbol id="icon_support-icon-11" viewBox="0 0 50 50">
      <title>depfin icons</title><g id="Layer_2_copy" data-name="Layer 2 copy"><path d="M14,26.61,6.65,24.7a.74.74,0,0,0-.65.13.75.75,0,0,0-.29.59V36.89a.75.75,0,0,0,.58.73l7.36,1.76.17,0a.75.75,0,0,0,.75-.75V27.34A.75.75,0,0,0,14,26.61ZM13.07,37.7,7.21,36.3V26.39l5.86,1.53Z"/><path d="M48,4.53a.74.74,0,0,0-.65-.13L25,10.22,2.62,4.4A.74.74,0,0,0,2,4.53a.75.75,0,0,0-.29.59V40.2a.75.75,0,0,0,.58.73l22.5,5.37.17,0H25l.17,0,22.5-5.37a.75.75,0,0,0,.58-.73V5.13A.75.75,0,0,0,48,4.53ZM24.18,44.62l-21-5V6.1l21,5.47Zm22.58-5-21,5V11.57l21-5.47Z"/><path d="M5.67,10.63l15.74,4.1.19,0a.75.75,0,0,0,.19-1.48L6.05,9.18a.75.75,0,1,0-.38,1.45Z"/><path d="M5.67,13.16l15.74,4.1.19,0a.75.75,0,0,0,.19-1.48L6.05,11.71a.75.75,0,1,0-.38,1.45Z"/><path d="M5.67,15.69l15.74,4.1.19,0a.75.75,0,0,0,.19-1.48L6.05,14.24a.75.75,0,1,0-.38,1.45Z"/><path d="M29,14.75l.19,0,15.74-4.1a.75.75,0,0,0-.38-1.45l-15.74,4.1A.75.75,0,0,0,29,14.75Z"/><path d="M29,17.28l.19,0,15.74-4.1a.75.75,0,0,0-.38-1.45l-15.74,4.1A.75.75,0,0,0,29,17.28Z"/><path d="M29,19.81l.19,0,15.74-4.1a.75.75,0,1,0-.38-1.45l-15.74,4.1A.75.75,0,0,0,29,19.81Z"/><path d="M44.62,18.09l-15.74,4.1a.37.37,0,0,0,.09.74h.1l15.74-4.1a.37.37,0,0,0-.19-.73Z"/><path d="M44.62,33l-15.74,4.1a.37.37,0,0,0,.09.74h.1l15.74-4.1a.37.37,0,1,0-.19-.73Z"/><path d="M44.62,35.67l-15.74,4.1a.37.37,0,0,0,.09.74h.1l15.74-4.1a.37.37,0,0,0-.19-.73Z"/><path d="M29.08,25.08h.1l8.56-2.23a.37.37,0,0,0-.19-.73L29,24.34a.37.37,0,0,0,.09.74Z"/><path d="M28.6,27.58A.38.38,0,0,0,29,28h.1l8.56-2.23a.37.37,0,1,0-.19-.73l-8.56,2.23A.37.37,0,0,0,28.6,27.58Z"/></g>
    </symbol>
    <symbol id="icon_support-icon-12" viewBox="0 0 50 50">
      <title>depfin icons</title><g id="Layer_2_copy" data-name="Layer 2 copy"><path d="M40.61,36.58l-9.25-8c1.29-1.5,2.23-2.66,2.57-3.18,1.63-2.51,2.31-4,1.94-7.34a75.12,75.12,0,0,0-1.49-7.84l0-.07a3.8,3.8,0,0,0-.2-.71c-.71-1.81-2.29-3-4.82-3.74A28.66,28.66,0,0,0,21,5.7C19.75,6,16.18,7,15.56,10.16h0c-.09.25-2.16,6.28-2.11,9.06a11.59,11.59,0,0,0,1.86,5.93,38.46,38.46,0,0,0,3.07,3.47C15,31.68,11.6,34.7,9.08,36.91A.75.75,0,0,0,9,38l6.44,7.21a.75.75,0,0,0,.56.25h0a.75.75,0,0,0,.55-.25c.32-.36,4.33-4.76,8.42-9.35l8.14,9.34a.75.75,0,0,0,.57.26h0a.75.75,0,0,0,.57-.26l6.42-7.53A.75.75,0,0,0,40.61,36.58ZM21.42,7.15a23.13,23.13,0,0,1,4-.25,16.85,16.85,0,0,1,3.49.25c2,.57,3.3,1.5,3.82,2.85a5,5,0,0,1-.34,3.37,11.19,11.19,0,0,0-3.62-1.8,23.06,23.06,0,0,0-7.37,0,9.53,9.53,0,0,0-4.18,1.91A13.73,13.73,0,0,1,17,11.38C16.81,8.75,19.13,7.77,21.42,7.15Zm10.37,7.62a19,19,0,0,1-1.14,2,60.29,60.29,0,0,1-6,6.1c-2.21-2.16-5.29-5.26-5.76-6-.11-.17-.23-.33-.36-.5A7.53,7.53,0,0,1,17.73,15,8.55,8.55,0,0,1,21.63,13a21.58,21.58,0,0,1,6.88,0A10.81,10.81,0,0,1,31.79,14.77ZM16.53,24.28a10.07,10.07,0,0,1-1.58-5.09,21.39,21.39,0,0,1,.93-5c.08.29.16.57.25.81v0a8.2,8.2,0,0,0,1.21,2.15l.32.45c.65,1,4.49,4.76,5.92,6.17-1.29,1.21-2.69,2.48-4.1,3.77A38,38,0,0,1,16.53,24.28ZM16,43.56l-5.38-6c1.43-1.26,5.25-4.63,9.27-8.28L20,29.2l0,0c5.24-4.76,10.79-10,11.88-11.59a19.24,19.24,0,0,0,1.81-3.37c.26,1.32.53,2.8.67,4,.33,2.94-.18,4-1.7,6.36C31.5,26.39,21.58,37.44,16,43.56Zm17.68,0L26,34.7c1.56-1.75,3.08-3.48,4.38-5l8.69,7.51Z"/></g>
    </symbol>
    <symbol id="icon_support-icon-2" viewBox="0 0 50 50">
      <title>depfin icons</title><g id="Layer_2_copy" data-name="Layer 2 copy"><path d="M18.84,9.11a4.33,4.33,0,1,0-4.33-4.33A4.33,4.33,0,0,0,18.84,9.11Zm0-7.16A2.83,2.83,0,1,1,16,4.78,2.83,2.83,0,0,1,18.84,2Z"/><path d="M24.64,21.8a3.28,3.28,0,1,0,3.28,3.28A3.28,3.28,0,0,0,24.64,21.8Zm0,5.06a1.78,1.78,0,1,1,1.78-1.78A1.78,1.78,0,0,1,24.64,26.86Z"/><path d="M30,11.53A4.33,4.33,0,1,0,25.65,7.2,4.33,4.33,0,0,0,30,11.53Zm0-7.16A2.83,2.83,0,1,1,27.15,7.2,2.83,2.83,0,0,1,30,4.37Z"/><path d="M42.3,28.44c-.59-1.24-5.42-12.3-5.94-13.6s-1.12-2.46-2.81-2.46H27.49c-.69-.6-2.71-2.2-4.57-2.2H15.6c-4.31,0-6.24,3.32-6.24,6.6V28.14c0,2.1.64,2.92,2.27,2.92h1.08V46.63c0,2,1.4,3.27,3.57,3.27h5a.75.75,0,0,0,.63-1.16l-.45-.7V34.15A.75.75,0,0,0,20,33.91s-.29.86-1.12,2.7a7.81,7.81,0,0,1-1.69,2.67c-.16-.11-.2-.3.06-1,.36-.95,1.55-3.61,1.59-3.7.38-.71.66-1.31.9-1.81s.4-.83.58-1.16C20.59,31.07,21,31,22,31h4.8c.41,0,1.78.06,2.12.9.6,1.47,1.12,3.17,1.58,4.68.17.55.33,1.07.47,1.53.22.69.13,1,.08,1.05a.41.41,0,0,1-.21.16,19.86,19.86,0,0,1-2-5.66.75.75,0,0,0-1.48.17V47.78l-.61,1a.75.75,0,0,0,.63,1.15H32c2,0,2.94-1.1,2.94-3.26V36.47h3a.75.75,0,0,0,.72-1L36.3,27.08C37,28.67,37.67,30,38,30.68a2.41,2.41,0,0,0,3.24,1.21A2.55,2.55,0,0,0,42.3,28.44Zm-1.7,2.12c-.43.23-.9,0-1.25-.62-1.27-2.24-6-13.22-6-13.33a.75.75,0,0,0-1.41.5L37,35H34.2a.75.75,0,0,0-.75.75V46.64c0,1.17-.22,1.76-1.44,1.76H28.72a.75.75,0,0,0,.12-.4V38.85c1,2.29,1.77,2.12,2.13,2A2,2,0,0,0,32.33,40a2.77,2.77,0,0,0,.05-2.26c-.14-.45-.3-1-.46-1.51-.47-1.53-1-3.27-1.62-4.81-.48-1.16-1.76-1.83-3.51-1.83H22A3,3,0,0,0,19,30.9c-.2.35-.4.76-.63,1.25s-.51,1.07-.87,1.76c-.07.13-1.31,2.91-1.67,3.87-.2.54-.82,2.19.89,3,1.19.53,2.37-1.16,3.23-2.9V48.26a.77.77,0,0,0,0,.14H16.28c-.77,0-2.07-.23-2.07-1.77V15.39a.75.75,0,0,0-1.5,0V29.56H11.63c-.6,0-.77,0-.77-1.42V16.8c0-.52.13-5.1,4.74-5.1h7.32c1.34,0,3.18,1.44,3.77,2a.75.75,0,0,0,.51.2h6.35c.64,0,.89.19,1.42,1.51s5.38,12.44,6,13.68A1.07,1.07,0,0,1,40.6,30.56Z"/></g>
    </symbol>
    <symbol id="icon_support-icon-3" viewBox="0 0 50 50">
      <title>depfin icons</title><g id="Layer_2_copy" data-name="Layer 2 copy"><path d="M18,17.19a4.92,4.92,0,0,0,2.94-.73c1.59-.89,2.15-3.54,1.2-5.67A3,3,0,0,0,20.38,9.1a3.59,3.59,0,0,0-2.78.27,7,7,0,0,0-2.17,2.47l-3.67,3c-.59.29-3.36,1.9-5.15,6.9-2.15,6-2.75,20.53-2.77,21.14a.75.75,0,0,0,.75.78H8.14l.42,2.19a.72.72,0,0,0-.06.23l-.25,3.1A.75.75,0,0,0,9,50h4.53a.75.75,0,0,0,.75-.75c0-.79-.32-2.19-1.51-2.36-.24,0-.68-.47-1-.92l.8-2.3h2.83a.75.75,0,0,0,.75-.73l.33-12.33.22.2.27.36v2.41a.75.75,0,0,0,1.5,0v-.87h0a.75.75,0,0,0,.58-.27l.25-.3a.73.73,0,0,0,.22.09s.51.12.51.88V48.86a.75.75,0,0,0,1.5,0V33.08a2.32,2.32,0,0,0-1.24-2.18l.52-.62a.75.75,0,0,0-.29-1.17l-1.73-.71-2.07-2.33s0,0,0-.05C17,23.09,17.82,18.17,18,17.19Zm2.21-2c-.72.4-2,.9-2.7.23l2-2.08L21,12.38A2.79,2.79,0,0,1,20.21,15.15Zm-3.6-2.37.06-.09a5.89,5.89,0,0,1,1.62-2,2.15,2.15,0,0,1,1.6-.18,1.34,1.34,0,0,1,.61.45l-1.87,1.1a.76.76,0,0,0-.16.13L16.77,14A4.09,4.09,0,0,1,16.61,12.78Zm-1.19,1.88-.69.07a.72.72,0,0,0-.19.06l-.25-.12.93-.75A6,6,0,0,0,15.42,14.67ZM12.54,48.33a.31.31,0,0,1,.08.13H9.81l.13-1.67h.58A3.53,3.53,0,0,0,12.54,48.33Zm-2.16-3H10l-.32-1.67H11Zm7.84-15,.35-.39.46.19-.5.6Zm-1-1.11-5.1-4.71.06-5.25a.75.75,0,0,0-.74-.76h0a.75.75,0,0,0-.75.74L10.6,24.8a.75.75,0,0,0,.24.56L15,29.21l-.35,12.91H5.37C5.53,39,6.23,27.24,8,22.2c1.69-4.74,4.29-6,4.41-6.07a1.68,1.68,0,0,1,1.59.08,1,1,0,0,1,.43.53c-.12.72-1.41,6.92-1.42,7a.75.75,0,0,0,.17.65L17.36,29Zm-2.62-5.54c.28-1.37,1.25-6,1.36-6.67a1.63,1.63,0,0,0-.12-.86l.33,0a2.83,2.83,0,0,0,.47.5.72.72,0,0,0-.06.14c0,.21-.83,4.51-1.18,7.82Z"/><path d="M43.18,45.92a.74.74,0,0,0,.08-.31l.54-21.1s0,0,0,0a.73.73,0,0,0,0-.11.72.72,0,0,0,0-.1c-.3-.91-2.28-7-3.71-10.78a.73.73,0,0,0-.1-.27,19.68,19.68,0,0,0-1.14-2.65c-.88-1.38-2.72-1.51-3.7-1.47a5.11,5.11,0,0,0,.29-1h0V8a5.61,5.61,0,0,0-.72-3.74l1.42-.78a.75.75,0,1,0-.72-1.31l-1,.54-.05,0L30.76,1.21a.75.75,0,0,0-.8.15L26.37,4.74a.75.75,0,0,0-.18.83l.56,1.37L25,7.88a.75.75,0,1,0,.72,1.31l1.1-.61c.22,1.24.78,3.56,2.05,4.49a2.13,2.13,0,0,0,1.27.43,2.2,2.2,0,0,0,.42,0,27.76,27.76,0,0,0,1.21,4.3c.47,1,1.49,3.48,1.9,4.47l-3.06,3.37a.74.74,0,0,0-.18.44l-1.7.77a.75.75,0,0,0-.17,1.26l.32.27a3.37,3.37,0,0,0-.73,2.25V48.86a.75.75,0,0,0,1.5,0V30.6a1.9,1.9,0,0,1,.37-1.29L31,30a.75.75,0,0,0,.48.18h.09v.67a.75.75,0,1,0,1.5,0V28.58a.73.73,0,0,0-.11-.37.75.75,0,0,0,.52-.22l1.71-1.73.68,1.79L37.88,45.3c-.66.28-1.55.66-2.4,1.06a2.21,2.21,0,0,0-1.29,1.4,2.41,2.41,0,0,0,.33,1.85.75.75,0,0,0,.62.33h3.47a.75.75,0,0,0,.37-.1l.62-.35.57.31a.75.75,0,0,0,.36.09h2.15a.75.75,0,0,0,.75-.75V46.47A.74.74,0,0,0,43.18,45.92Zm-3.85-1.19-2-16.43,4.9-2.55-.49,19.07ZM33.41,5.09a2.38,2.38,0,0,1,.52,1.41c-.27-.2-.54-.4-.72-.56a1.15,1.15,0,0,0-1-.28,1.31,1.31,0,0,0-.17.06L33.33,5Zm-5.63.39,2.86-2.7,2.09.87L28.07,6.21Zm3.65.6-.09.06h0ZM29.8,11.87c-.83-.6-1.36-2.73-1.54-4.05l1.73-1,.38,1A.75.75,0,0,0,31,8.4.76.76,0,0,0,31.72,8a3.84,3.84,0,0,1,.66-.82c.43.35,1,.77,1.43,1C33.41,9.59,32,11.65,30.32,12A.61.61,0,0,1,29.8,11.87Zm3.38,5.29A28.53,28.53,0,0,1,32,12.92a7.12,7.12,0,0,0,2.33-2.33.74.74,0,0,0,.36,0l.21,0c-.78.93-1,2.35-.51,4.25.25,1.06,1,4.08,1.32,5.17l-.9,1C34.34,19.84,33.58,18,33.18,17.15ZM31.13,28.23l-.64-.53,1-.44,0,0Zm1.72-1.77L32.31,26l2.82-3.1,0,0,2-2.17a.75.75,0,0,0,.17-.69s-1.12-4.27-1.42-5.53c-.62-2.62.22-3.26,1.23-3.55a1.31,1.31,0,0,1,.45.4,19.06,19.06,0,0,1,1,2.43l-.13,7-3.29,3.33h0a.74.74,0,0,0-.43.45Zm6.88-4.82a.75.75,0,0,0,.22-.51L40,17.79c.73,2.11,1.5,4.39,2.13,6.33L37,26.82l-.65-1.72Zm2.2,26.75H40.72L40,48a.75.75,0,0,0-.73,0l-.81.46H35.63a.61.61,0,0,1,0-.29.8.8,0,0,1,.48-.44c1.55-.73,3.31-1.43,3.33-1.43l.07,0,2.45.09a.72.72,0,0,0,0,.15Z"/></g>
    </symbol>
    <symbol id="icon_support-icon-4" viewBox="0 0 50 50">
      <title>depfin icons</title><g id="Layer_2_copy" data-name="Layer 2 copy"><path d="M49.54,49l-1.8-7.13a.75.75,0,0,0-.42-.5L32.86,34.82V27.76c2.18-4.39,2.34-10.19,2.33-12.28h.56l.2-.42a6.66,6.66,0,0,0-.56-6.29c-1.31-2.09-4.28-4.58-11-4.58-8.45,0-13.05,7.45-13.25,11.63-.09,1.94.77,3.23,2.26,3.38q.33,0,.65,0l.36,0a22.78,22.78,0,0,0,2.39,8.55v7.08L2.35,41.34a.75.75,0,0,0-.42.5L.14,49a.75.75,0,0,0,.73.93h48a.75.75,0,0,0,.73-.93ZM31.77,40.86,33.7,43.2l-6.08,5.2H26l6.26-11.83,2.52,3.06H32.35a.75.75,0,0,0-.58,1.23ZM22,48.4l-6.08-5.2,1.93-2.34a.75.75,0,0,0-.58-1.23H14.78L17.2,36.7,23.52,48.4Zm4.26-3.62c-.32,0-.83.06-1.65.06a10.32,10.32,0,0,1-1.33-.07l-.47-.86a8.28,8.28,0,0,0,1.79.19,8.56,8.56,0,0,0,2.16-.27Zm-.41.78-1.06,2-1.08-2c.26,0,.55,0,.9,0C25.09,45.59,25.5,45.58,25.83,45.57Zm1.42-2.68a7.38,7.38,0,0,1-2.66.47A6.92,6.92,0,0,1,22.31,43l-.5-.92a8.33,8.33,0,0,0,2.78.53,8.6,8.6,0,0,0,3.19-.72Zm1.11-2.09a8.86,8.86,0,0,1-3.77,1.06A8.29,8.29,0,0,1,21.25,41l-.51-.94a10,10,0,0,0,3.85,1A11.51,11.51,0,0,0,28.76,40Zm1-1.86a12.64,12.64,0,0,1-4.75,1.43A11,11,0,0,1,20.13,39l-.81-1.5a11.15,11.15,0,0,0,5.46,1.67A11.27,11.27,0,0,0,30,37.6Zm4.34-23H18.55c.06-.18.12-.36.15-.51h15C33.69,15.62,33.69,15.79,33.69,16ZM13.57,17.69c-.82-.08-.95-1-.91-1.81.17-3.56,4.36-10.2,11.76-10.2,4.69,0,8.13,1.38,9.7,3.88A5.36,5.36,0,0,1,34.77,14L18.08,14h-.69l-.06.69A4,4,0,0,1,16.12,17,3.35,3.35,0,0,1,13.57,17.69Zm3.51.51a4.5,4.5,0,0,0,1-1.23H33.66c-.12,3.28-.78,9.41-3.84,12.62a6.41,6.41,0,0,1-4.87,2.06c-6.4,0-8.67-7.81-9-12.78A4.19,4.19,0,0,0,17.08,18.2Zm7.87,15a7.94,7.94,0,0,0,6-2.53c.16-.17.31-.34.45-.51v4.83c-.84.66-3.67,2.69-6.58,2.69s-5.65-2-6.47-2.68V30A8.39,8.39,0,0,0,24.95,33.15ZM3.3,42.56l11.35-5.12-2,2.47a.75.75,0,0,0,.58,1.23h2.46l-1.38,1.68a.75.75,0,0,0,.09,1l5.31,4.54H1.83ZM29.92,48.4l5.31-4.54a.75.75,0,0,0,.09-1l-1.38-1.68h2.46A.75.75,0,0,0,37,39.91l-2.09-2.53,11.49,5.18,1.47,5.84Z"/><path d="M25.43,13.55c1.35,0,2.36-1.69,2.36-2.78v-3H22.89v3A2.87,2.87,0,0,0,25.43,13.55Zm-1-4.28H26.3v1.5c0,.49-.58,1.28-.86,1.28a1.42,1.42,0,0,1-1-1.3Z"/></g>
    </symbol>
    <symbol id="icon_support-icon-5" viewBox="0 0 50 50">
      <title>depfin icons</title><g id="Layer_2_copy" data-name="Layer 2 copy"><path d="M27.05,25.63A2.61,2.61,0,0,0,27.2,23l8.3-4.72a.75.75,0,0,0,.35-.86l-4.25-15a.75.75,0,0,0-.72-.55H18.19l-.14,0H18a.75.75,0,0,0-.24.13l0,0a.74.74,0,0,0-.14.16l0,.09a.72.72,0,0,0,0,.1l-4,15.22a.75.75,0,0,0,.38.86L22.47,23a2.61,2.61,0,0,0,.16,2.66,11.84,11.84,0,1,0,4.42,0ZM24.2,23.22l.65-.19.64.19a1.14,1.14,0,0,1,.52.94,1.16,1.16,0,0,1-2.32,0A1.14,1.14,0,0,1,24.2,23.22Zm10.05-6-8.12,4.62a2.63,2.63,0,0,0-1.28-.34h0a2.63,2.63,0,0,0-.42,0L19.19,3.31H30.31Zm-16-11.84,4.63,16.1L15,17.4Zm6.62,42.21A10.34,10.34,0,1,1,35.18,37.25,10.35,10.35,0,0,1,24.84,47.59Z"/><path d="M24.84,29.63a7.63,7.63,0,1,0,7.63,7.63A7.64,7.64,0,0,0,24.84,29.63Zm0,13.76A6.13,6.13,0,1,1,31,37.25,6.13,6.13,0,0,1,24.84,43.38Z"/></g>
    </symbol>
    <symbol id="icon_support-icon-6" viewBox="0 0 50 50">
      <title>depfin icons</title><g id="Layer_2_copy" data-name="Layer 2 copy"><path d="M39.12,34.49a.75.75,0,0,0-.71-.52H29.57l-2.43-7.47A2.61,2.61,0,0,0,28.3,23L37,18.45a.75.75,0,0,0,.38-.86l-4-15.22a.72.72,0,0,0,0-.1l0-.09A.74.74,0,0,0,33.08,2l0,0a.75.75,0,0,0-.24-.13h-.08l-.14,0H19.89a.75.75,0,0,0-.72.55l-4.25,15a.75.75,0,0,0,.35.86L23.57,23a2.63,2.63,0,0,0-.3,1.2,2.65,2.65,0,0,0,1.79,2.5L22.69,34H13.85a.75.75,0,0,0-.44,1.36l7.15,5.19-2.73,8.4a.75.75,0,0,0,1.15.84l7.15-5.19,7.15,5.19a.75.75,0,0,0,1.15-.84l-2.73-8.4,7.15-5.19A.75.75,0,0,0,39.12,34.49Zm-11.2-13,4.63-16.1,3.19,12ZM20.46,3.31H31.58L26.35,21.54a2.43,2.43,0,0,0-1.7.3l-8.12-4.62Zm4.82,19.91.64-.19.65.19a1.12,1.12,0,0,1-.09,1.93.71.71,0,0,0-.86.1,1.12,1.12,0,0,1-.34-2Zm5.1,16.41a.75.75,0,0,0-.27.84l2.19,6.73L26.57,43a.75.75,0,0,0-.88,0L20,47.19l2.19-6.73a.75.75,0,0,0-.27-.84l-5.72-4.16h7.07a.75.75,0,0,0,.71-.52l2.18-6.73L28.32,35a.75.75,0,0,0,.71.52H36.1Z"/><path d="M26.61,33.94a.52.52,0,0,0-1,0l-.94,2.88h-3a.5.5,0,0,0-.29.9l2.45,1.78-.94,2.88a.5.5,0,0,0,.77.56l2.45-1.78L28.59,43a.5.5,0,0,0,.77-.56l-.94-2.88,2.45-1.78a.5.5,0,0,0-.29-.9h-3Zm.93,5a.5.5,0,0,0-.18.56l.57,1.77-1.5-1.09a.5.5,0,0,0-.59,0l-1.5,1.09.57-1.77a.5.5,0,0,0-.18-.56l-1.5-1.09h1.86a.5.5,0,0,0,.48-.35l.57-1.77.57,1.77a.5.5,0,0,0,.48.35H29Z"/></g>
    </symbol>
    <symbol id="icon_support-icon-7" viewBox="0 0 50 50">
      <title>depfin icons</title><g id="Layer_2_copy" data-name="Layer 2 copy"><path d="M49.71,16.93a.75.75,0,0,0,0-1.5H48.26V10.28h1.45a.75.75,0,0,0,0-1.5H48.26v-5a.75.75,0,0,0-1.5,0v5H42.4v-5a.75.75,0,0,0-1.5,0v5H36.18v-5a.75.75,0,0,0-1.5,0v5H30v-5a.75.75,0,0,0-1.5,0v5H28a.75.75,0,0,0-.29.06,14.48,14.48,0,0,0-5.68-1.58c-6.22-.65-8.62,2.56-9.49,4.53C11.29,14.7,12,19.21,12,19.41a.76.76,0,0,0,.08.25l.13.24a3.11,3.11,0,0,0-.39,2.54c.31,1.55.79,3.12.81,3.19a.75.75,0,0,0,.27.39l.81.59a20,20,0,0,0,2.14,3.66L14.7,31.95c-1.36.48-8.3,2.91-9.87,3.59a5.67,5.67,0,0,0-3.6,4.35c-.41,2-1.27,8.89-1.31,9.18a.75.75,0,0,0,.74.84H42.51a.75.75,0,0,0,.74-.86c0-.32-1.22-7.94-1.63-10-.5-2.5-3.75-3.84-5.12-4.29S29.93,32.4,28.75,32a.72.72,0,0,0-.06-.17l-1.14-1.93c.35-.49.67-1,.95-1.45v1.9a.75.75,0,0,0,1.5,0V25.77l.67-.58a.75.75,0,0,0,.24-.41l.24-1.14h3.53v6.59a.75.75,0,0,0,1.5,0V23.65H40.9v6.59a.75.75,0,0,0,1.5,0V23.65h4.36v6.59a.75.75,0,0,0,1.5,0V23.65h1.45a.75.75,0,0,0,0-1.5H48.26V16.93Zm-2.95-6.65v5.15H42.4V10.28Zm-5.86,0v5.15H36.18V10.28Zm-6.23,0v5.15H31.2a10.63,10.63,0,0,0-.16-2,6.75,6.75,0,0,0-1-2.59v-.61ZM14,12.4c1.23-2.76,4.05-4.05,8-3.65,3.33.35,5.45,1.17,6.62,2.65a.73.73,0,0,0,.27.37,5.43,5.43,0,0,1,.76,2,12.91,12.91,0,0,1-.16,4.56c-.34-1.1-.9-2.07-1.8-2.29-.94-.38-2.15.16-3.43.73a8.06,8.06,0,0,1-2.45.82,5.53,5.53,0,0,1-2.14-.7c-1.22-.57-2.61-1.21-3.94-.72s-1.73,1.94-1.95,3.36l-.24-.45C13.35,18.34,12.95,14.67,14,12.4Zm26.2,27c.32,1.59,1.15,6.93,1.48,9H1.52c.25-1.95.87-6.72,1.18-8.22a4.18,4.18,0,0,1,2.72-3.27c1.45-.62,8-2.91,9.62-3.49l6.08,4.82a.75.75,0,0,0,.92,0l6.32-4.83c1.44.53,6.4,2.36,7.66,2.78C36.91,36.5,39.8,37.59,40.16,39.37Zm-12.87-7L21.6,36.7l-5.41-4.29.65-1a6.7,6.7,0,0,0,4.75,2.45c1.94,0,3.63-1.26,5-2.78Zm-5.69,0c-1.64,0-3.08-1.21-4.2-2.59h0a18.77,18.77,0,0,1-2.39-4,.75.75,0,0,0-.25-.32L14,24.94c-.14-.49-.48-1.67-.7-2.8a2.73,2.73,0,0,1,0-.31l.41.75a.75.75,0,0,0,.66.39l.2,0a.75.75,0,0,0,.55-.76c-.09-1.74.24-4.31,1.1-4.63s1.79.21,2.79.67a6.55,6.55,0,0,0,2.82.84,8.88,8.88,0,0,0,3-1c.73-.32,1.94-.86,2.27-.71l.18.06c.54.1,1.13,2.28,1.22,4.48a.75.75,0,0,0,1.45.24L30,22l-.09.41a.73.73,0,0,0-.17.46.72.72,0,0,0,0,.18l-.24,1.15-.85.73a.74.74,0,0,0-.2.28C27.62,27.23,24.77,32.41,21.59,32.41Zm9.88-10.27.3-1.42a.75.75,0,0,0-.3-.77l-.76-.53a20.88,20.88,0,0,0,.42-2.49h3.56v5.21Zm4.71,0V16.93H40.9v5.21Zm10.58,0H42.4V16.93h4.36Z"/></g>
    </symbol>
    <symbol id="icon_support-icon-8" viewBox="0 0 50 50">
      <title>depfin icons</title><g id="Layer_2_copy" data-name="Layer 2 copy"><path d="M24.71,15.64a4.33,4.33,0,1,0-4.33-4.33A4.33,4.33,0,0,0,24.71,15.64Zm0-7.16a2.83,2.83,0,1,1-2.83,2.83A2.83,2.83,0,0,1,24.71,8.49Z"/><path d="M28.61,39a.75.75,0,0,0-.85.63,9.52,9.52,0,1,1-15.84-8.43.75.75,0,1,0-1-1.11,11,11,0,1,0,18.34,9.75A.75.75,0,0,0,28.61,39Z"/><path d="M44.56,43.09l-.45-.63-.7-1a1.53,1.53,0,0,0-2-.48L39.1,42.1c-1.6-2.92-4.84-8.85-5.13-9.47-.55-1.19-2.28-1.77-3.64-2-1-.2-4.67-.79-6.26-1,.33-2,1.2-7.22,1.3-8.83.16-2.35-.73-3.59-2.87-4a7.49,7.49,0,0,0-3.46.26c-2.89,1-9.64,3.55-10,4.09L7.73,23c-1.16,1.65-2.6,3.71-3,4.32a2.94,2.94,0,0,0,.57,3.9,2.74,2.74,0,0,0,3.47-.56c.5-.59,3.29-4.77,4-5.82.57-.24,2.14-.89,2.67-1.15-.29,1.54-1.1,6-1.28,7.36-.26,2,1.47,4.4,2.89,4.59l12.25,1.76c.94,1.69,5.15,9.18,5.75,10.12a3.14,3.14,0,0,0,2.53,1.6,2.07,2.07,0,0,0,1-.25c.84-.45,5.14-3.28,5.55-3.58A1.65,1.65,0,0,0,44.56,43.09ZM43.22,44c-.29.21-4.59,3.05-5.38,3.48-.42.23-1.1-.14-1.54-.84-.64-1-5.83-10.28-5.88-10.37a.75.75,0,0,0-.55-.38L17.23,34.12a3.39,3.39,0,0,1-1.61-2.91c.21-1.62,1.36-7.74,1.37-7.8a.75.75,0,0,0-.18-.64,1.91,1.91,0,0,0-1.34-.64,1.44,1.44,0,0,0-.65.16c-.44.22-2.21,1-2.86,1.23a.75.75,0,0,0-.34.28c-1.41,2.12-3.64,5.43-4,5.87A1.29,1.29,0,0,1,6.16,30,1.45,1.45,0,0,1,6,28.12c.39-.6,1.89-2.73,3-4.28L10.26,22c1.08-.54,8.32-3.27,9.32-3.63a6.07,6.07,0,0,1,2.65-.19c1.4.28,1.77.82,1.66,2.45-.12,1.88-1.4,9.35-1.41,9.42a.75.75,0,0,0,.62.87c.06,0,5.69.91,7,1.16,1.54.31,2.4.82,2.57,1.19.39.85,5.31,9.81,5.52,10.19a.75.75,0,0,0,1,.31L42,42.33c.08,0,.12,0,.14,0l.72,1,.41.54A.27.27,0,0,1,43.22,44Z"/></g>
    </symbol>
    <symbol id="icon_support-icon-9" viewBox="0 0 50 50">
      <title>depfin icons</title><g id="Layer_2_copy" data-name="Layer 2 copy"><path d="M30.22,13.22a4.33,4.33,0,1,0-4.33-4.33A4.33,4.33,0,0,0,30.22,13.22Zm0-7.16a2.83,2.83,0,1,1-2.83,2.83A2.83,2.83,0,0,1,30.22,6.07Z"/><path d="M14.2,31.09a4,4,0,1,0-4-4A4,4,0,0,0,14.2,31.09Zm0-6.42a2.46,2.46,0,1,1-2.46,2.46A2.46,2.46,0,0,1,14.2,24.66Z"/><path d="M42.95,28.91c-.27-.89-2.52-9-3-10.9s-1-2.69-2-3c-.56-.21-3.86-1.27-4-1.31l-.27-.09-.26.11a6,6,0,0,1-1.54.42A14,14,0,0,1,29.69,14l-.13,0-.13,0c-1.57.34-4.29,1.09-4.78,2.3-.42,1-3.35,9.38-4,11.53-.52,1.63.31,2.26.69,2.46a2.22,2.22,0,0,0,2.54-.48,70.5,70.5,0,0,0,3-7.59,2.17,2.17,0,0,1,.11-.28c0,1.26-.61,22.42-.69,24.41A3.52,3.52,0,0,0,27,49a2.15,2.15,0,0,0,1.61.62,2.33,2.33,0,0,0,2.16-1.78l0-.15c0-.13.89-12.78,1-13.59a3.29,3.29,0,0,1,.19-.89,3.64,3.64,0,0,1,.09.55c0,.22.1,1.35.21,2.87.27,3.77.67,9.46.82,10.68.28,2.37,1.75,2.37,2.45,2.37a2,2,0,0,0,2.25-1.85c0-.39-.07-3.7-.26-9.53s-.44-13.65-.43-15.91c.39,1.57,1,4.37,1.37,5.78l.24,1a3.25,3.25,0,0,0,1.58,2.06,1.71,1.71,0,0,0,1.39.18A2,2,0,0,0,42.95,28.91Zm-1.74,1.14a1.6,1.6,0,0,1-1-1.16l-.24-1c-.91-3.89-1.54-6.57-1.69-7a1.39,1.39,0,0,0-1.41-1.05c-.71.09-1.12.76-1.21,2-.08,1,.13,7.83.42,16.6.14,4.41.29,9,.27,9.37,0,.13,0,.47-.75.47s-.84,0-1-1-.56-7.08-.81-10.61c-.11-1.53-.19-2.67-.21-2.9-.16-1.81-.94-2.19-1.57-2.19-1.1,0-1.61,1.36-1.7,2.53-.07.79-.86,12.25-1,13.51-.06.17-.27.63-.69.63S28.14,48,28.1,48s-.33-.51-.29-1.59.76-23.84.68-24.63a1.66,1.66,0,0,0-1.35-1.49c-.35,0-1.2,0-1.68,1.46-.58,1.75-2.48,6.65-2.8,7.14a.83.83,0,0,1-.69.07s-.08-.22.06-.66c.67-2.06,3.61-10.43,4-11.41.22-.36,1.91-1,3.58-1.38A14.93,14.93,0,0,0,32,15.6a7.08,7.08,0,0,0,1.74-.43c1.08.35,3.27,1.05,3.67,1.2.19.07.57.21,1,2s2.74,10.06,3,11A.51.51,0,0,1,41.21,30.06Z"/><path d="M18.78,30.34a13.22,13.22,0,0,1-2.18.88l-1.14.28-.19.08a6.4,6.4,0,0,1-3.44.05,2.78,2.78,0,0,0-3.4.16,39.43,39.43,0,0,0-4,5.15c-1.14,1.73-.25,2.59.05,2.82a1.67,1.67,0,0,0,2.12,0c.25-.3,1.43-1.64,2.25-2.52a1,1,0,0,1,.12.51c0,.21-.08.79-.17,1.57-.25,2.2-.68,5.88-.68,7.58a2.44,2.44,0,0,0,.71,2,2,2,0,0,0,1.78.19l.26-.06c.82-.08,1-.94,1.38-3a18.85,18.85,0,0,1,.83-3.32A18.13,18.13,0,0,1,14,46.43c.12.72.23,1.34.34,1.74a1.76,1.76,0,0,0,1.77,1.37l.32,0C17.06,49.44,18,49,18,48.32c0-.07,0-.57-.12-1.32-.22-2.28-.68-7-.68-9.2s.95-2.67,2.25-3.51l.72-.48a3.2,3.2,0,0,0,1.55-2,1.7,1.7,0,0,0-.36-1.32C21,30.07,20.23,29.44,18.78,30.34Zm.53,2.24-.67.45c-1.38.89-2.94,1.9-2.94,4.77,0,2.24.46,7,.69,9.34l.08.85A.82.82,0,0,1,16,48s-.12,0-.18-.25-.2-.94-.31-1.59C15,43.5,14.6,41,13.09,41H13c-1.21.11-1.63,1.86-2.17,4.72-.12.65-.28,1.49-.41,1.88l-.12,0a2.53,2.53,0,0,1-.49.09s-.14-.16-.14-.86c0-1.62.42-5.24.67-7.41.09-.81.16-1.42.18-1.64a2.2,2.2,0,0,0-1.1-2.1,1.36,1.36,0,0,0-1.57.4c-.66.71-1.8,2-2.24,2.51a.37.37,0,0,1-.19-.06s-.06-.22.31-.79a39.22,39.22,0,0,1,3.74-4.86,1.31,1.31,0,0,1,1.49-.07c1,.73,3.92.6,5,.11l1.1-.28a14.48,14.48,0,0,0,2.56-1c.41-.25.56-.23.6-.19s.08.16.08.18S20.14,32,19.31,32.58Z"/></g>
    </symbol>
    <symbol id="icon_table" viewBox="0 0 28 20">
         <g id="Layer_2_copy"> <path class="st1" d="M15.1,0h-2H0v20h28V0H15.1z M15.1,12V8h4.4V12H15.1z M19.5,14v4h-4.4v-4H19.5z M13.1,12H2V8h11.1V12z M21.5,8
		H26V12h-4.5V8z M26,6h-4.5V2H26V6z M19.5,2v4h-4.4V2H19.5z M13.1,2v4H2V2H13.1z M2,14h11.1v4H2V14z M21.5,18v-4H26v4H21.5z"/> </g> 
    </symbol>
    <symbol id="icon_triangle-arrow" viewBox="0 0 9 18">
      <path d="M0 0v18l9-9z"/>
    </symbol>
    <symbol id="icon_tw" viewBox="0 0 24.12 20.68">
      <title>twitter</title><path d="M21.66,5.89c0-.23,0-.45,0-.68a10,10,0,0,0,2.48-2.65,9.45,9.45,0,0,1-2.84.78A5,5,0,0,0,23.45.5a9.44,9.44,0,0,1-3.14,1.2A4.91,4.91,0,0,0,16.7,0a5,5,0,0,0-4.95,5.16,5.29,5.29,0,0,0,.13,1.19A13.92,13.92,0,0,1,1.68.72,5.46,5.46,0,0,0,1,3.36,5.43,5.43,0,0,0,3.21,7.78,4.75,4.75,0,0,1,1,7.1v.07a5.27,5.27,0,0,0,4,5.21,4.82,4.82,0,0,1-1.3.18,4.79,4.79,0,0,1-.93-.11,5,5,0,0,0,4.62,3.69,9.55,9.55,0,0,1-6.14,2.24A9.62,9.62,0,0,1,0,18.29a13.28,13.28,0,0,0,7.59,2.38c9.1,0,14.08-7.92,14.08-14.79Zm0,0" fill="#fff" fill-rule="evenodd"/>
    </symbol>
    <symbol id="icon_vk" viewBox="0 0 22 12.55">
      <title>vkontakte</title><path d="M21.88,11.34l-.07-.14a11.41,11.41,0,0,0-2.19-2.53l0,0h0q-.73-.7-.93-.94a.88.88,0,0,1-.16-.93,8.65,8.65,0,0,1,1-1.5l.74-1q2-2.64,1.72-3.37L21.9.79A.67.67,0,0,0,21.55.6a1.79,1.79,0,0,0-.73,0l-3.3,0a.43.43,0,0,0-.23,0l-.15,0-.06,0,0,0a.5.5,0,0,0-.13.12.79.79,0,0,0-.11.2A18.73,18.73,0,0,1,15.57,3.6q-.42.71-.78,1.23a6,6,0,0,1-.6.77,4.12,4.12,0,0,1-.44.39c-.13.1-.23.14-.3.13l-.19,0A.75.75,0,0,1,13,5.79a1.25,1.25,0,0,1-.13-.45q0-.27,0-.46c0-.13,0-.31,0-.55s0-.4,0-.48q0-.44,0-.95t0-.81q0-.3,0-.63a2.64,2.64,0,0,0,0-.52,1.77,1.77,0,0,0-.12-.37.61.61,0,0,0-.23-.27,1.32,1.32,0,0,0-.38-.16A7.68,7.68,0,0,0,10.58,0,7.52,7.52,0,0,0,7.85.28a1.54,1.54,0,0,0-.44.34Q7.21.87,7.35.9a1.41,1.41,0,0,1,1,.49l.07.14a2.16,2.16,0,0,1,.16.53,5.29,5.29,0,0,1,.1.84,8.83,8.83,0,0,1,0,1.43q-.06.59-.11.93a1.86,1.86,0,0,1-.15.54A2.18,2.18,0,0,1,8.26,6L8.2,6.1a.85.85,0,0,1-.31.06A.73.73,0,0,1,7.5,6,2.75,2.75,0,0,1,7,5.55a5.89,5.89,0,0,1-.56-.78q-.31-.5-.64-1.19l-.18-.33q-.17-.32-.47-.93T4.65,1.12A.76.76,0,0,0,4.38.76l-.06,0L4.14.63A1.22,1.22,0,0,0,3.87.55L.73.57A.8.8,0,0,0,.08.79L0,.86A.37.37,0,0,0,0,1a.91.91,0,0,0,.07.31Q.76,3,1.56,4.47T3,6.89q.6.92,1.21,1.73t.82,1l.32.34.29.28a6.73,6.73,0,0,0,.81.66,13.76,13.76,0,0,0,1.18.76,6.41,6.41,0,0,0,1.51.61,5.19,5.19,0,0,0,1.67.19h1.32a.91.91,0,0,0,.61-.25l0-.06a.76.76,0,0,0,.09-.21,1.16,1.16,0,0,0,0-.31,3.8,3.8,0,0,1,.07-.89,2.33,2.33,0,0,1,.2-.6,1.44,1.44,0,0,1,.25-.34,1,1,0,0,1,.19-.17l.09,0a.73.73,0,0,1,.65.18,3.84,3.84,0,0,1,.7.66q.33.4.78.89a5.47,5.47,0,0,0,.8.73l.23.14a2.77,2.77,0,0,0,.6.25,1.28,1.28,0,0,0,.64.06l2.93,0a1.33,1.33,0,0,0,.68-.14A.57.57,0,0,0,22,12a.89.89,0,0,0,0-.39,1.49,1.49,0,0,0-.08-.3Zm0,0"/>
    </symbol>
    <symbol id="icon_wifi" viewBox="0 0 50 50">
      <title>depfin icons</title><g id="Layer_2_copy" data-name="Layer 2 copy"><circle cx="25.57" cy="36.59" r="4.37"/><path d="M12.09,30.89a1,1,0,0,1-.81-1.58c2.89-4.06,8.36-6.58,14.29-6.58,5.4,0,10.44,2.08,13.5,5.58a1,1,0,1,1-1.51,1.32c-2.68-3.06-7.16-4.89-12-4.89-5.29,0-10.14,2.2-12.66,5.74A1,1,0,0,1,12.09,30.89Z"/><path d="M45.71,23.47a1,1,0,0,1-.74-.33,26,26,0,0,0-19.41-8.23,26,26,0,0,0-19.4,8.23A1,1,0,0,1,4.68,21.8a28,28,0,0,1,20.89-8.89A28,28,0,0,1,46.46,21.8a1,1,0,0,1-.74,1.67Z"/></g>
    </symbol>
    <symbol id="icon_yt" viewBox="0 0 21.35 15.5">
      <title>youtube</title><path d="M21.27,4.41V4.23A4.52,4.52,0,0,0,16.89.06L14,0c-1.9,0-4.87,0-6.61,0l-3,0A4.47,4.47,0,0,0,.08,4.24v.17C0,6.25,0,9.22.07,11v.18a4.49,4.49,0,0,0,4.34,4.19l3,.06,3.29,0,3.32,0,2.89-.06a4.54,4.54,0,0,0,4.37-4.19v-.18C21.38,9.22,21.38,6.24,21.27,4.41Zm-1.81,6.54v.18a2.73,2.73,0,0,1-2.59,2.48L14,13.66c-1.8,0-4.74,0-6.55,0l-3-.06a2.64,2.64,0,0,1-2.56-2.47V11c-.09-1.78-.09-4.68,0-6.46V4.33A2.63,2.63,0,0,1,4.45,1.87l3,0,3.23,0,3.32,0,2.9,0a2.67,2.67,0,0,1,2.59,2.47v.18C19.56,6.29,19.56,9.18,19.46,10.95Z" fill="#fff"/><path d="M14.29,6.74,9.08,4a.91.91,0,0,0-1.33.8v5.46a.91.91,0,0,0,1.33.8l5.21-2.73a.9.9,0,0,0,0-1.6Zm-2.37.8L9.57,8.77V6.31Z" fill="#fff"/>
    </symbol></svg>