<svg xmlns="http://www.w3.org/2000/svg"><symbol id="icon_angle-arrow" viewBox="0 0 284.935 284.936"><path d="M222.701 135.9L89.652 2.857C87.748.955 85.557 0 83.084 0c-2.474 0-4.664.955-6.567 2.857L62.244 17.133c-1.906 1.903-2.855 4.089-2.855 6.567 0 2.478.949 4.664 2.855 6.567l112.204 112.204L62.244 254.677c-1.906 1.903-2.855 4.093-2.855 6.564 0 2.477.949 4.667 2.855 6.57l14.274 14.271c1.903 1.905 4.093 2.854 6.567 2.854 2.473 0 4.663-.951 6.567-2.854l133.042-133.044c1.902-1.902 2.854-4.093 2.854-6.567s-.945-4.664-2.847-6.571z"/></symbol><symbol id="icon_basket" viewBox="0 0 59 59"><path d="M29.5 51a1 1 0 0 0 1-1V17a1 1 0 1 0-2 0v33a1 1 0 0 0 1 1zm-10 0a1 1 0 0 0 1-1V17a1 1 0 1 0-2 0v33a1 1 0 0 0 1 1zm20 0a1 1 0 0 0 1-1V17a1 1 0 1 0-2 0v33a1 1 0 0 0 1 1z"/><path d="M52.5 6H38.456c-.11-1.25-.495-3.358-1.813-4.711C35.809.434 34.751 0 33.499 0H23.5c-1.252 0-2.31.434-3.144 1.289C19.038 2.642 18.653 4.75 18.543 6H6.5a1 1 0 1 0 0 2h2.041l1.915 46.021C10.493 55.743 11.565 59 15.364 59h28.272c3.799 0 4.871-3.257 4.907-4.958L50.459 8H52.5a1 1 0 1 0 0-2zM21.792 2.681C22.24 2.223 22.799 2 23.5 2h9.999c.701 0 1.26.223 1.708.681.805.823 1.128 2.271 1.24 3.319H20.553c.112-1.048.435-2.496 1.239-3.319zm24.752 51.298C46.538 54.288 46.4 57 43.636 57H15.364c-2.734 0-2.898-2.717-2.909-3.042L10.542 8h37.915l-1.913 45.979z"/></symbol><symbol id="icon_burger" viewBox="0 0 32 25"><rect width="32" height="3" rx="1.5" ry="1.5"/><rect y="10.97" width="32" height="3" rx="1.5" ry="1.5"/><rect y="22" width="32" height="3" rx="1.5" ry="1.5"/></symbol><symbol id="icon_check-mark" viewBox="0 0 26 26"><path d="M.3 14c-.2-.2-.3-.5-.3-.7s.1-.5.3-.7l1.4-1.4c.4-.4 1-.4 1.4 0l.1.1 5.5 5.9c.2.2.5.2.7 0L22.8 3.3h.1c.4-.4 1-.4 1.4 0l1.4 1.4c.4.4.4 1 0 1.4l-16 16.6c-.2.2-.4.3-.7.3-.3 0-.5-.1-.7-.3L.5 14.3.3 14z"/></symbol><symbol id="icon_close" viewBox="0 0 23.51 23.51"><path d="M13.87 11.75l9.19-9.19A1.5 1.5 0 1 0 20.95.44l-9.2 9.19L2.56.44A1.5 1.5 0 0 0 .44 2.56l9.19 9.19-9.19 9.2a1.5 1.5 0 0 0 2.12 2.12l9.19-9.19 9.19 9.19a1.5 1.5 0 1 0 2.12-2.12z"/></symbol><symbol id="icon_cross" viewBox="0 0 26 26"><path fill-rule="evenodd" stroke-linecap="round" d="M22.505 20.127L21.14 21.49l-8.733-8.716-8.996 9.029-1.353-1.359 8.574-8.605-8.574-8.605 1.353-1.358 8.653 8.684 9.076-9.059 1.365 1.363-8.648 8.632 8.648 8.631z"/></symbol><symbol id="icon_favor" viewBox="0 0 482.207 482.207"><path d="M482.207 186.973l-159.699-33.705-81.404-141.465L159.7 153.268 0 186.973l109.388 121.134-17.294 162.297 149.01-66.6 149.01 66.6-17.294-162.296 109.387-121.135zm-241.103 183.97L127.45 421.741l13.191-123.788-83.433-92.393 121.807-25.707 62.09-107.9 62.09 107.9L425 205.561l-83.433 92.393 13.191 123.788-113.654-50.799z"/></symbol><symbol id="icon_fb" viewBox="0 0 10.27 19"><path d="M9.89 0H7.42a4.33 4.33 0 0 0-4.56 4.68v2.15H.39a.39.39 0 0 0-.39.39v3.12a.39.39 0 0 0 .39.39h2.47v7.88a.39.39 0 0 0 .39.39h3.23a.39.39 0 0 0 .39-.39v-7.88h2.9a.39.39 0 0 0 .39-.39V7.22a.39.39 0 0 0-.16-.27.39.39 0 0 0-.27-.11H6.87V5c0-.88.21-1.32 1.35-1.32h1.67a.39.39 0 0 0 .39-.39V.39A.39.39 0 0 0 9.89 0zm0 0"/></symbol><symbol id="icon_go" viewBox="0 0 26.42 16.78"><path d="M0 8a8.37 8.37 0 0 1 8.39-8A8.5 8.5 0 0 1 14 2.08a29.87 29.87 0 0 1-2.13 2.2C10 3 7.25 2.59 5.34 4.11a5.37 5.37 0 0 0-.23 8.37c2.55 2.32 7.38 1.17 8.08-2.38-1.6 0-3.2 0-4.8-.05V7.19h8a9.62 9.62 0 0 1-1.51 6.49c-2.09 2.94-6.28 3.79-9.55 2.54A8.4 8.4 0 0 1 0 8zm21.62-3.22H24v2.4h2.4v2.4L24 9.6V12h-2.38V9.61h-2.4V7.19h2.4q-.01-1.19 0-2.41z"/></symbol><symbol id="icon_green-daw" viewBox="0 0 21 21"><path fill-rule="evenodd" clip-rule="evenodd" d="M10.5 0C4.7 0 0 4.7 0 10.5S4.7 21 10.5 21 21 16.3 21 10.5 16.3 0 10.5 0zm5.1 8.2L11 15.6c-.5.5-1.4.5-1.9 0v-.1s-.1 0-.1-.1L5.4 12c-.5-.5-.5-1.3 0-1.9.5-.5 1.4-.5 1.9 0l2.5 2.4 3.9-6.2c.5-.5 1.4-.5 1.9 0 .5.6.5 1.4 0 1.9z"/></symbol><symbol id="icon_icon-error" viewBox="0 0 426.667 426.667"><path d="M213.333 0C95.514 0 0 95.514 0 213.333s95.514 213.333 213.333 213.333 213.333-95.514 213.333-213.333S331.153 0 213.333 0zm117.662 276.689l-54.302 54.306-63.36-63.356-63.36 63.36-54.302-54.31 63.356-63.356-63.356-63.36 54.302-54.302 63.36 63.356 63.36-63.356 54.302 54.302-63.356 63.36 63.356 63.356z"/></symbol><symbol id="icon_icon-glass" viewBox="0 0 451 451"><path d="M447.05 428l-109.6-109.6c29.4-33.8 47.2-77.9 47.2-126.1C384.65 86.2 298.35 0 192.35 0 86.25 0 .05 86.3.05 192.3s86.3 192.3 192.3 192.3c48.2 0 92.3-17.8 126.1-47.2L428.05 447c2.6 2.6 6.1 4 9.5 4s6.9-1.3 9.5-4c5.2-5.2 5.2-13.8 0-19zM26.95 192.3c0-91.2 74.2-165.3 165.3-165.3 91.2 0 165.3 74.2 165.3 165.3s-74.1 165.4-165.3 165.4c-91.1 0-165.3-74.2-165.3-165.4z"/></symbol><symbol id="icon_icon-rss" viewBox="0 0 16 19"><path fill-rule="evenodd" d="M13.141 5.781c-.637 0-1.22-.217-1.695-.573L5.643 8.583c.046.205.076.417.076.636 0 .354-.073.689-.189 1.002l5.86 3.443a2.85 2.85 0 0 1 1.704-.57c1.605 0 2.906 1.322 2.906 2.953C16 17.678 14.699 19 13.094 19c-1.605 0-2.906-1.322-2.906-2.953 0-.332.066-.646.165-.944L4.426 11.62a2.832 2.832 0 0 1-1.567.474A2.867 2.867 0 0 1 0 9.219a2.867 2.867 0 0 1 2.859-2.875 2.83 2.83 0 0 1 1.913.751l5.667-3.296a2.904 2.904 0 0 1-.158-.908c0-1.597 1.28-2.891 2.86-2.891C14.72 0 16 1.294 16 2.891c0 1.596-1.28 2.89-2.859 2.89z"/></symbol><symbol id="icon_info" viewBox="0 0 401.998 401.998"><path d="M164.454 91.363h73.098c4.945 0 9.226-1.807 12.847-5.424 3.61-3.614 5.421-7.898 5.421-12.847V18.274c0-4.948-1.811-9.229-5.428-12.85C246.777 1.812 242.49 0 237.544 0h-73.091c-4.946 0-9.229 1.812-12.847 5.424-3.615 3.617-5.424 7.902-5.424 12.85v54.818c0 4.949 1.809 9.233 5.424 12.847 3.618 3.617 7.901 5.424 12.848 5.424zm122.482 242.968c-3.613-3.617-7.897-5.427-12.847-5.427h-18.274V164.452c0-4.947-1.807-9.229-5.421-12.845-3.62-3.617-7.904-5.426-12.847-5.426H127.912c-4.949 0-9.231 1.809-12.847 5.426-3.618 3.616-5.424 7.898-5.424 12.845v36.547c0 4.946 1.807 9.231 5.424 12.845 3.615 3.621 7.898 5.428 12.847 5.428h18.274v109.633h-18.274c-4.949 0-9.231 1.81-12.847 5.427-3.618 3.614-5.424 7.898-5.424 12.847v36.546c0 4.948 1.807 9.232 5.424 12.854 3.615 3.61 7.898 5.421 12.847 5.421h146.177c4.949 0 9.233-1.811 12.847-5.421 3.614-3.621 5.421-7.905 5.421-12.854v-36.546c0-4.95-1.797-9.234-5.421-12.848z"/></symbol><symbol id="icon_insta" viewBox="0 0 19.48 20"><path d="M13.62 20H5.86A5.87 5.87 0 0 1 0 14.14V5.86A5.87 5.87 0 0 1 5.86 0h7.75a5.87 5.87 0 0 1 5.86 5.86v8.27A5.87 5.87 0 0 1 13.62 20zM5.86 2.12a3.75 3.75 0 0 0-3.74 3.74v8.27a3.75 3.75 0 0 0 3.75 3.75h7.75a3.75 3.75 0 0 0 3.75-3.75V5.86a3.75 3.75 0 0 0-3.75-3.75z"/><path d="M9.74 15.53A5.56 5.56 0 0 1 4.18 10a5.65 5.65 0 0 1 1.7-4 5.32 5.32 0 0 1 3.9-1.58 5.73 5.73 0 0 1 4.13 1.69A5.38 5.38 0 0 1 15.3 10a5.68 5.68 0 0 1-1.64 3.9 5.47 5.47 0 0 1-3.92 1.63zM9.62 7a2.76 2.76 0 0 0-1.93.8 3 3 0 0 0-.92 2.2 3 3 0 1 0 5.94 0A2.9 2.9 0 0 0 12 7.88 3.22 3.22 0 0 0 9.7 7z"/><circle cx="14.99" cy="4.7" r="1.2"/></symbol><symbol id="icon_odnokl" viewBox="0 0 12.01 20"><path d="M5 14.09a7.78 7.78 0 0 1-4.13-1.48c-.15-.12-.3-.23-.44-.36a1.18 1.18 0 0 1-.16-1.67 1.18 1.18 0 0 1 1.57-.35 2.49 2.49 0 0 1 .34.2 6.8 6.8 0 0 0 7.53.07 2 2 0 0 1 .73-.38 1.15 1.15 0 0 1 1.32.53 1.12 1.12 0 0 1-.08 1.47 6.1 6.1 0 0 1-2.18 1.41 10.34 10.34 0 0 1-2.5.56l.27.29 3.46 3.47a1.15 1.15 0 0 1 .27 1.34 1.37 1.37 0 0 1-1.28.8 1.25 1.25 0 0 1-.81-.41 92.21 92.21 0 0 1-2.61-2.63c-.25-.26-.37-.21-.58 0-.87.9-1.76 1.79-2.66 2.67a1.11 1.11 0 0 1-1.34.24 1.36 1.36 0 0 1-.79-1.25 1.25 1.25 0 0 1 .42-.84l3.41-3.42.24-.26zm0 0" fill-rule="evenodd"/><path d="M6 10.12a5.06 5.06 0 1 1 5.09-5 5.06 5.06 0 0 1-5.09 5zm2.48-5.06A2.48 2.48 0 1 0 6 7.54a2.47 2.47 0 0 0 2.48-2.48zm0 0" fill-rule="evenodd"/></symbol><symbol id="icon_pen" viewBox="0 0 512 512"><path d="M444.125 135.765L149.953 429.938l-67.875-67.875L376.219 67.859l67.906 67.906zm0-135.765l-45.281 45.234 67.906 67.906L512 67.859 444.125 0zM66.063 391.312L0 512l120.703-66.062-54.64-54.626z"/></symbol><symbol id="icon_right-arrow" viewBox="0 0 612 612"><path d="M612 306C612 137.004 474.995 0 306 0 137.004 0 0 137.004 0 306c0 168.995 137.004 306 306 306 168.995 0 306-137.005 306-306zm-459-13.854h271.228l-76.5-97.419h27.818L459 306l-83.454 111.272h-27.818l76.5-97.363H153v-27.763z"/></symbol><symbol id="icon_search" viewBox="0 0 56.966 56.966"><path d="M55.146 51.887L41.588 37.786A22.926 22.926 0 0 0 46.984 23c0-12.682-10.318-23-23-23s-23 10.318-23 23 10.318 23 23 23c4.761 0 9.298-1.436 13.177-4.162l13.661 14.208c.571.593 1.339.92 2.162.92.779 0 1.518-.297 2.079-.837a3.004 3.004 0 0 0 .083-4.242zM23.984 6c9.374 0 17 7.626 17 17s-7.626 17-17 17-17-7.626-17-17 7.626-17 17-17z"/></symbol><symbol id="icon_share-option" viewBox="0 0 511.626 511.627"><path d="M506.206 179.012L360.025 32.834c-3.617-3.617-7.898-5.426-12.847-5.426s-9.233 1.809-12.847 5.426c-3.617 3.619-5.428 7.902-5.428 12.85v73.089H264.95c-135.716 0-218.984 38.354-249.823 115.06C5.042 259.335 0 291.03 0 328.907c0 31.594 12.087 74.514 36.259 128.762.57 1.335 1.566 3.614 2.996 6.849a603.829 603.829 0 0 0 3.854 8.565c1.146 2.471 2.384 4.565 3.715 6.276 2.282 3.237 4.948 4.859 7.994 4.859 2.855 0 5.092-.951 6.711-2.854 1.615-1.902 2.424-4.284 2.424-7.132 0-1.718-.238-4.236-.715-7.569-.476-3.333-.715-5.564-.715-6.708-.953-12.938-1.429-24.653-1.429-35.114 0-19.223 1.668-36.449 4.996-51.675 3.333-15.229 7.948-28.407 13.85-39.543 5.901-11.14 13.512-20.745 22.841-28.835 9.325-8.09 19.364-14.702 30.118-19.842 10.756-5.141 23.413-9.186 37.974-12.135 14.56-2.95 29.215-4.997 43.968-6.14s31.455-1.711 50.109-1.711h63.953v73.091c0 4.948 1.807 9.232 5.421 12.847 3.62 3.613 7.901 5.424 12.847 5.424 4.948 0 9.232-1.811 12.854-5.424l146.178-146.183c3.617-3.617 5.424-7.898 5.424-12.847-.001-4.948-1.807-9.232-5.421-12.856z"/></symbol><symbol id="icon_tw" viewBox="0 0 24.12 20.68"><path d="M21.66 5.89v-.68a10 10 0 0 0 2.48-2.65 9.45 9.45 0 0 1-2.84.78A5 5 0 0 0 23.45.5a9.44 9.44 0 0 1-3.14 1.2A4.91 4.91 0 0 0 16.7 0a5 5 0 0 0-4.95 5.16 5.29 5.29 0 0 0 .13 1.19A13.92 13.92 0 0 1 1.68.72 5.46 5.46 0 0 0 1 3.36a5.43 5.43 0 0 0 2.21 4.42A4.75 4.75 0 0 1 1 7.1v.07a5.27 5.27 0 0 0 4 5.21 4.82 4.82 0 0 1-1.3.18 4.79 4.79 0 0 1-.93-.11 5 5 0 0 0 4.62 3.69 9.55 9.55 0 0 1-6.14 2.24A9.62 9.62 0 0 1 0 18.29a13.28 13.28 0 0 0 7.59 2.38c9.1 0 14.08-7.92 14.08-14.79zm0 0" fill-rule="evenodd"/></symbol><symbol id="icon_vk" viewBox="0 0 22 12.55"><path d="M21.88 11.34l-.07-.14a11.41 11.41 0 0 0-2.19-2.53q-.73-.7-.93-.94a.88.88 0 0 1-.16-.93 8.65 8.65 0 0 1 1-1.5l.74-1q2-2.64 1.72-3.37L21.9.79a.67.67 0 0 0-.35-.19 1.79 1.79 0 0 0-.73 0h-3.3a.43.43 0 0 0-.23 0h-.21a.5.5 0 0 0-.13.12.79.79 0 0 0-.11.2 18.73 18.73 0 0 1-1.27 2.68q-.42.71-.78 1.23a6 6 0 0 1-.6.77 4.12 4.12 0 0 1-.44.39c-.13.1-.23.14-.3.13h-.19a.75.75 0 0 1-.26-.33 1.25 1.25 0 0 1-.13-.45V1.46a2.64 2.64 0 0 0 0-.52 1.77 1.77 0 0 0-.12-.37.61.61 0 0 0-.23-.27 1.32 1.32 0 0 0-.38-.16A7.68 7.68 0 0 0 10.58 0a7.52 7.52 0 0 0-2.73.28 1.54 1.54 0 0 0-.44.34q-.2.25-.06.28a1.41 1.41 0 0 1 1 .49l.07.14a2.16 2.16 0 0 1 .16.53 5.29 5.29 0 0 1 .1.84 8.83 8.83 0 0 1 0 1.43q-.06.59-.11.93a1.86 1.86 0 0 1-.15.54 2.18 2.18 0 0 1-.16.2l-.06.1a.85.85 0 0 1-.31.06A.73.73 0 0 1 7.5 6a2.75 2.75 0 0 1-.5-.45 5.89 5.89 0 0 1-.56-.78q-.31-.5-.64-1.19l-.18-.33q-.17-.32-.47-.93t-.5-1.2a.76.76 0 0 0-.27-.36h-.06L4.14.63a1.22 1.22 0 0 0-.27-.08L.73.57a.8.8 0 0 0-.65.22L0 .86A.37.37 0 0 0 0 1a.91.91 0 0 0 .07.31Q.76 3 1.56 4.47T3 6.89q.6.92 1.21 1.73t.82 1l.32.34.29.28a6.73 6.73 0 0 0 .81.66 13.76 13.76 0 0 0 1.18.76 6.41 6.41 0 0 0 1.51.61 5.19 5.19 0 0 0 1.67.19h1.32a.91.91 0 0 0 .61-.25v-.06a.76.76 0 0 0 .09-.21 1.16 1.16 0 0 0 0-.31 3.8 3.8 0 0 1 .07-.89 2.33 2.33 0 0 1 .2-.6 1.44 1.44 0 0 1 .25-.34 1 1 0 0 1 .19-.17h.09a.73.73 0 0 1 .65.18 3.84 3.84 0 0 1 .7.66q.33.4.78.89a5.47 5.47 0 0 0 .8.73l.23.14a2.77 2.77 0 0 0 .6.25 1.28 1.28 0 0 0 .64.06h2.93a1.33 1.33 0 0 0 .68-.14.57.57 0 0 0 .36-.4.89.89 0 0 0 0-.39 1.49 1.49 0 0 0-.08-.3zm0 0"/></symbol><symbol id="icon_yt" viewBox="0 0 21.35 15.5"><path d="M21.27 4.41v-.18A4.52 4.52 0 0 0 16.89.06L14 0H4.39A4.47 4.47 0 0 0 .08 4.24v.17A96.59 96.59 0 0 0 .07 11v.18a4.49 4.49 0 0 0 4.34 4.19l3 .06h6.61l2.89-.06a4.54 4.54 0 0 0 4.37-4.19V11c.1-1.78.1-4.76-.01-6.59zm-1.81 6.54v.18a2.73 2.73 0 0 1-2.59 2.48l-2.87.05H7.45l-3-.06a2.64 2.64 0 0 1-2.56-2.47V11c-.09-1.78-.09-4.68 0-6.46v-.21a2.63 2.63 0 0 1 2.56-2.46H16.9a2.67 2.67 0 0 1 2.59 2.47v.18c.07 1.77.07 4.66-.03 6.43z"/><path d="M14.29 6.74L9.08 4a.91.91 0 0 0-1.33.8v5.46a.91.91 0 0 0 1.33.8l5.21-2.73a.9.9 0 0 0 0-1.6zm-2.37.8L9.57 8.77V6.31z"/></symbol></svg>