<svg xmlns="http://www.w3.org/2000/svg" viewBox="0 0 1185.31 676.42"><title>map_russia</title><g fill="#d9dee2" stroke="#d9dee2"><path data-name="vectormap1 MOW" d="M154.52 290.8l-3.52-1.17-4.69 1.17-1.17 4.69 1.17 3.52 4.69 2.34 3.52-2.34 2.34-3.52z" stroke-width="1.1"/><path data-name="vectormap1 SPE" d="M160.38 201.74l-3.52-1.17-4.69 1.17-1.17 4.69 1.17 3.52 4.69 2.34 3.52-2.34 2.34-3.52z" stroke-width="1.1"/><path data-name="vectormap1 YAR" d="M184.99 268.54l1.17-1.17-3.52-1.17-1.18 1.16 1.17 1.17h2.34zm8.2 1.17h-1.17l-1.17 1.21-3.52-2.34v4.69l-1.17 3.52-2.34 2.34v-3.52l-3.52 1.17-1.17-1.17 1.17-1.17h1.16l-1.17-7h-2.33l-2.34 1.17 1.17 1.17-1.17 1.14-1.16 1.13h-2.34v2.34l-1.17 2.34v5.86l1.17 1.17-3.52 2.34-3.52 3.52v4.69l3.52 3.52 3.52-1.17 7-2.34 5.86 2.34 7-4.69 8.2-3.52v-1.17l1.17-2.34-4.69-5.86v-5.86l-3.52-3.52z" stroke-width="1.1"/><path data-name="vectormap1 CHE" d="M302.18 404.48V408l-2.34 4.69 1.17 1.17 1.17 1.17h-4.72l-1.17 1.17h-1.17l-2.34-1.17-1.17 2.34-1.15 1.17h-1.17v-2.34l-1.17-1.17-2.34 1.17v-2.34l1.17-1.17-3.49-3.52-3.52 1.17-1.17 1.17v1.17h-1.17v1.17l2.34 8.2v1.17h4.69v1.17l1.17 1.17h12.89l-2.34 3.52-3.52 3.52-1.19 2.32-1.18-1.14-1.17-1.17-1.17 1.17h-4.66l-3.52 5.86-3.52 5.86-1.17 1.17-2.34 2.34v2.34h-1.17v1.17l1.17 1.17v2.34h1.17l1.17-1.17 3.52 2.34 3.52 2.34-2.37 2.38-2.34 2.34h1.17l4.71 1.16 4.69-1.17 1.17-3.52v-2.34l1.17-1.17h1.17l1.17-1.17H294l4.69 2.34 3.52 2.34-2.34-4.69-2.41-3.51 2.34-2.34h2.34l-2.34-1.17-2.34-2.35h1.17l1.17-1.17 1.17-1.17-1.17-1.17h4.69v1.17l1.17 1.17 3.52 1.17 2.34 1.17v1.17l1.17 1.17 1.17-1.17h3.6l3.52 1.17v-2.34l-1.17-1.17 2.34-2.34v-2.34l-3.52-2.34-4.69-3.52 2.34-2.34 1.17-1.17 1.17-2.34v-1.17h1.17l1.17-1.17h2.34l1.17-4.69v-5.86l-1.17-2.34v-1.17l-1.17-1.17-2.34-1.17h-1.17l-1.16 1.14-5.86-3.52-5.86-4.69v-1.17h-2.38l-1.17 1.17z" stroke-width="1.1"/><path data-name="vectormap1 ULY" d="M210.78 371.66l-1.17-2.34-4.69-1.17v-2.34l-3.52-2.34-2.34-3.55-4.69 7-2.34-1.17h-4.69l1.17 4.69-1.17 4.69 1.12 2.39v2.34l-3.52 4.69-3.48 2.37 3.52 5.86h7l1.17 1.17v1.17l2.34-3.52 2.34-5.86h3.52l2.34-1.17h1.17l2.34 1.17h2.34l2.34 2.34 3.58 2.34v-1.17h3.52l2.34-3.52 1.17-2.34-2.34-3.52v-3.52l-1.17-2.34h-5.86l-2.34-2.34z" stroke-width="1.1"/><path data-name="vectormap1 TYU" d="M399.46 395.1l-4.69 1.17-1.17 1.17v1.17h-2.34l-2.34-1.17h-5.86l-1.17-1.17h-1.17l-2.34 1.17-1.17 2.34h-3.52l-3.52-1.17v2.31l-1.17 1.17v4.69l-2.34 1.17h-4.69v-1.13h-3.51l-2.34 1.17-2.34 4.69-1.17 5.86v1.17h1.17l-1.2 1.21h-2.34l-1.17 3.52v3.48l2.34 1.17 2.34 1.17v4.66h3.52v1.17l1.17 1.17 1.17-1.17 1.17 1.17 2.34 3.52 1.17 3.52 1.17 1.17 2.34 1.17h1.17l1.17 3.52 2.32 4.76h1.17v-1.17l1.17 1.17v1.17h1.17l2.34 1.17 2.34 2.34 1.17 2.34h2.34l1.17-1.17v-2.34h1.17l2.34-1.17-1.17-1.17v-1.17h2.34v-1.17l-1.17-1.17 1.17-1.17 2.34-1.17v-1.17l1.17-1.17h1.17v-2.34l1.17-1.17h1.17v-3.52l2.34 1.17 3.52-1.17-1.17-8.2v-1.17h-3.52l-1.17-1.17 1.17-1.17 2.34-1.17v-7l3.52-2.34 3.52-2.34 1.17 1.17 1.17 2.34-1.09 1.1v2.34h2.34l2.34 1.17 2.34 1.17 3.52 2.34 1.17-1.17h2.34l8.2 2.34 9.38-3.52-2.34-2.34h-3.52l-1.14-1.19-1.19-1.14-3.52-2.34-2.34-1.17v-2.34l1.17-3.52h-2.34l-2.34-2.34 1.17-1.17v-1.22l-1.17-1.17h-1.17l-1.18-4.73-2.34-3.52-1.17-1.17h-1.18l-1.17-1.17-3.52-1.14h-3.51l-1.2-1.16-1.17-2.34h-2.34l-1.17 1.17-2.32 3.51z" stroke-width="1.1"/><path data-name="vectormap1 TUL" d="M134.37 307.21h-1.91l-.35 1.17-1.29 1.17h-.94l-.59-1.17-2.81-1.17-2.7-1.17h-.32l-.47 1.17h-2.33l-2 1.17-.59 1.17-.82 1.17.82 5.86 2.58 4.69 1.29 1.17 1.17 1.17-.23 2.31.12 3.52 2 2.34 1.52 1.17h2.23l.47-1.17.94-1.17h1.88l1.52-1.17h1.9l5.74-9.38-.12-2.34 1.76-2.34h1.17l-1.17-1.17v-4.69h-1.76l-2.46-3.52h-1.41l-1.64 1.17h-1.17z" stroke-width="1.1"/><path data-name="vectormap1 RYA" d="M160.38 317.76l-2.34-1.17v1.17h-7l-2.38 1.16h-1.2l-1.17-1.17-1.14 1.17-2.34 1.17h-1.65l-5.7 9.39.82 2.34v2.34h2.58l2.7 1.17-.35 2.34.47 2.34 2.34 1.17h3.44l1.17 2.34 1.17 1.17h2.34l1.17-1.17 7 3.52h2.34l1.17-1.17v-1.17l1.17 1.17h2.47l-1.17-2.34h-2.34l2.34-1.17h2.34l1.17-1.17 2.34-1.17v-2.34l1.17-2.34V333l-2.34-1.17h-1.21l1.17-1.17v-2.34l-4.69-5.86-3.52-4.69h-2.34z" stroke-width="1.1"/><path data-name="vectormap1 ORL" d="M117.26 310.73l-4.69-1.17-4.69-1.17-.42 1.16h-.82l-2.58 1.17h-1.88l-.51 1.2-.35 2.34-2.86 1.15-1.29 2.34 1.52 1.17 2 1.17v3.52l3 1.17 2.23 1.17.12 2.34.23 3.52 1.17 1.17 1.17 1.17-.35 1.17v2.34h1.76l.35 1.17h.82l3.87-1.17 1.41 1.17.35-2.34-.12-1.17.59-1.17.7-2.34 4.92-2.34-.03-3.55.23-2.34-1.17-1.17-1.29-1.17-2.58-5.86-.82-4.69z" stroke-width="1.1"/><path data-name="vectormap1 OMS" d="M440.46 425.57l-9.38 3.52-8.2-2.34h-2.34l-1.16 1.17-3.52-2.34-2.34-1.17-2.34-1.17h-2.34v-2.32l1.17-1.17-1.17-2.34-1.17-1.17-3.52 2.34-3.53 2.34v7l-2.34 1.17-1.17 1.17 1.17 1.17h3.52v1.17l1.17 9.38h-3.51l-2.34-1.17v3.52h-1.17l-1.17 1.17v2.34h-1.17l-1.15 1.17v1.17l-2.34 1.17-1.17 1.17 1.17 1.17-1.21 1.23h-1.17v1.17l1.17 1.17-2.34 1.17h-1.17v2.34l2.34 3.52-1.17 5.86v2.34h1.17l-3.52 4.69 1.17 2.34 1.17 1.17 1.17 1.17h1.17l1.17-1.17h1.17v1.17h1.22v-1.17l1.17-1.17v8.2l2.34-1.17v-1.17l2.34 1.17 2.34 2.34 1.17 1.17h2.34v1.17l-1.17 1.17-2.34-1.17-2.34 3.52 1.17 2.34 2.34-1.17 5.86 3.52h1.17l4.69-2.34h3.52l2.34-2.34h2.34l1.17-3.52 1.17-2.34 1.17-1.17v-1.17l-1.17-3.52-1.17-2.34 1.17-5.86 2.34-2.34-1.17-1.17v-2.41h2.34l2.34-2.34 2.34-1.17h4.69v-2.34l-1.17-2.34 1.17-2.34 2.34-1.17v-2.3l1.17-2.34 1.17-1.17v-2.34l-1.18-1.23-1.17-2.34 1.17-1.18v-2.34l-1.17-2.34v-4.72l-1.17-1.17v-1.17h1.17v-3.52h1.17v-3.52z" stroke-width="1.1"/><path data-name="vectormap1 LIP" d="M135.46 329.48h-1.88l-1.52 1.17h-1.88l-.94 1.17-.47 1.17h-2.23l-1.52-1.17-2-2.34-2.56 1.17-2.34 1.17-.7 2.34-.59 1.17.12 2.34-.35 1.17-1.41-1.17-3.87 1.17.7 2.34 2.23 2.34 3.28 1.17 2.81 1.17v1.17h-.12l1.05 1.17h1.41l1.05 2.34-.35 1.17 2.93 2.34 3.16 3.52 2.23-1.17 1.88-1.17-1.17-7 4.1-4.69 5.16-3.52-.47-2.34.35-2.34-2.7-1.17h-2.58v-2.35l-.81-2.34z" stroke-width="1.1"/><path data-name="vectormap1 KRS" d="M100.73 321.27v-1.17l-2-1.17-1.52-1.17h-4.68l-.82 1.16-2.11-2.34-2.23 2.34-1.17 1.17-2.11-1.17-.35 1.17-.28 1.18-2.93 2.34 2 3.52 2.7 3.52-.35 1.17-.59 1.17h.59l.35 1.17h-.55l-.59 1.17 2.23 2.34h4.22l1.05 2.34 1.29 1.17 5.51 2.34 7 3.52 1.05 1.17 1.05 2.34 1.64-2.34 1.33-2.29 1.52 1.17h1.76v-1.17l.7-1.17-.23-1.17-2.23-2.34-.7-2.34h-.82l-.35-1.17h-1.76v-1.17l.35-1.17-1.17-2.34-1.17-1.17-.23-3.52-.12-2.44-2.23-1.17-3-1.17v-2.34z" stroke-width="1.1"/><path data-name="vectormap1 KGN" d="M351.4 418.54l-5.86 1.17-3.51 1.21-2.34-2.34-1.17-1.17h-2.34l-2.34-2.34-2.38-1.22-3.52 1.17-3.48 2.35v5.86l-1.18 4.69h-2.34l-1.17 1.17h-1.17v1.17l-1.14 2.34-1.17 1.17-2.34 2.34 4.69 3.52 3.52 2.34v2.34l-2.34 1.17 1.17 1.17v3.52l5.86 1.17 5.86 1.17 2.34 1.17 1.17 1.17 1.17-1.17 1.17-1.17h2.34l3.52 1.17 1.17 1.17 9.38 1.17 9.38 1.17 1.17-1.17 1.17-1.17h1.17l2.34 1.17 1.17-1.17h1.09l-2.34-4.69-1.17-3.52h-1.17l-2.32-1.15-1.17-1.17-1.17-3.52-2.34-3.52-1.17-1.17-1.15 1.18-1.17-1.17v-1.2h-3.52v-4.69l-2.34-1.17-2.37-1.14v-4.69l1.17-2.34z" stroke-width="1.1"/><path data-name="vectormap1 KGD" d="M34.29 188.85zm5.27-1.17l1.41-1.17-1.41 1.17-1.29 1.17h.12zm11.6 3.52l-6.7-1.18-1.64-2.34-1.88-1.17-1.41 1.17-1.17 1.17h.5l1.29 3.52-2.69-1.18-3.52-1.17 4.92 9.38 5.63 8.2 3.28 4.69h1.05l1.29-1.17 4.1-1.17-1.05-8.2-.35-3.52-.12-3.52-.59-1.17h-1.53l-1.29 1.17-1.28 1.21-2.11-2.34-.82-2.34h6.09z" stroke-width="1.1"/><path data-name="vectormap1 IVA" d="M203.74 306.04l-2.34-1.17-2.34-1.17-1.17-2.34-1.17-2.34-1.17 1.17-2.34 1.17-8.2-4.69-5.86-2.34-5.86 2.34 1.17 3.52-1.17 4.69h4.69l1.17 2.34 1.17 2.34 3.52 3.52h1.17v3.52l2.34 1.17 2.34 1.17h1.17l1.17 1.17 1.17-1.17 2.34-2.34 2.34 1.17 2.34 1.17 2.34-1.17 1.17-2.34 2.34-1.17h1.17v-1.17l-2.34-3.52h-3.52l1.17-1.17 1.17-2.34z" stroke-width="1.1"/><path data-name="vectormap1 KHA" d="M970.17 354.09l-2.34-2.34-1.17-1.17-1.2 1.16-1.15 1.18-1.17-1.17h-2.34l-1.17 2.34-2.34 3.52-1.17-1.17-1.17-1.17-1.17 1.17h-2.32l-5.86-2.34h-4.69l-1.17 7v7l-1.17 1.17-2.34 1.17v2.34l-1.17 1.17-1.17 1.17v2.34l-1.17 4.69 2.34 3.52 1.17 5.86 1.17 4.69 2.34 2.34 1.17 3.52-1.17 1.17-2.38-2.33-1.17 1.17-1.17 1.17-1.17 4.69-4.69 3.52-2.34 1.17h-1.17l-2.34-1.17-1.17 1.17v3.52l-1.17 1.17-5.86 2.34-5.86 2.34h-2.34l-2.34 2.34-1.17 2.34-1.17 7-1.17 3.52 1.17 4.69h-3.52l2.34 3.52 3.52 2.34-1.17 1.17-1.17 1.17v3.52l-2.37 1.3-1.17 2.34h2.34l1.17 1.17 2.34 1.17 1.17 2.34v2.34l-1.17 1.17h-2.34v5.86l-1.17 5.86 4.69 1.17 3.52-2.34 1.17 1.17h1.17l2.34-1.17 1.17-1.17 2.37 1.09 1.17 1.17h2.34l-1.17 3.52-2.34 2.39v2.34l-2.34 2.34-2.34 2.34-1.17 1.17-1.17 1.17v7l-3.52 2.34v4.69l3.52 1.17h4.69l2.33 2.36 2.34 3.52h4.66l1.17-1.17 2.34-1.17 4.69-2.34 2.34-2.34 1.17-2.34h2.34l3.52-1.17 1.17-1.17h1.17v-1.17l3.52 1.17 1.17 4.69v4.69l1.17 2.34v2.34l-1.17 1.17h-4.69l-5.86 1.17 1.17 2.34v4.69l-2.34 1.17-2.34 1.17-1.17 1.17-1.17 2.34v2.34l-3.52 2.34-3.52 2.34 1.17 2.34v1.17l-1.15 2.37-1.18 3.53v7l1.17-1.17 1.17 1.17v1.17h1.17l1.17-1.17 1.17 1.17v1.17h1.15l2.34 1.17v8.2l1.17 3.52v3.52l4.69-2.34h1.17l1.17-1.17 1.17-2.34h2.34l2.34 1.17 2.34-1.17h2.34l1.17 1.17 2.34 3.52h2.42l2.34 1.17h3.52l1.14-2.29h5.86l2.34-1.17 1.17 2.34 1.17 2.34-3.52 2.34-1.17 2.34 1.17 2.34 1.17 1.17 2.34 2.34-2.34 3.52-1.17 1.17v5.86l1.17 5.86 2.34-2.34v-2.34l1.17-3.52 2.34-3.52h1.17l1.17 1.17 1.17-1.17 1.17 1.17v2.34l1.17-1.17 1.17-1.17 1.17 1.17 1.17 1.17 5.86-2.34 4.69-3.52v-4.69l4.69-2.34 2.34-7h-4.69l-1.17-1.17v-1.18l-1.12-1.2-1.17-1.17v-1.17h2.34l2.34-3.52 4.69-2.34v1.17l2.34 2.34 2.34 2.34-1.17 2.34v2.34l2.34 1.17h3.52l2.34-10.55 2.34-8.2v-1.17l-1.17-2.34v-4.69l-1.17-1.17v-3.52l-1.17-3.52-1.17-2.34-1.17-2.34v-3.46l-5.86-16.41v-2.39l1.17-5.86-1.17-4.69 1.17-2.34-1.17-1.17-1.17 1.17-2.34-3.52v-3.52h-1.17l-1.17-1.17-4.69-2.34h3.52l1.17-2.34-1.17-2.34h-2.34l-2.34-1.17-1.17-1.17h-3.52l-3.52-2.34v-1.17l-2.34-1.23h-1.17l-1.17-1.17h-2.35l-1.17 1.17-1.17 1.17-3.52 1.17h-1.17l1.17 2.34v9.38l-1.17-2.34v-4.69l-2.34 4.69-5.86 5.86v-3.52l2.34-4.69H969l-1.17 1.17h-1.17l-2.34-1.17 1.17-1.17 1.17-1.17v-1.13l-3.52 3.52 1.17 1.17v3.52h-2.34v1.17l-2.34-5.86-3.52-5.86-8.2 3.52-5.86-2.34 2.34-3.52 1.17-2.34 2.34-3.52 1.17-3.52 1.17-2.34 1.17-1.17 3.52-5.86 1.17-7 1.17-1.17 1.17-1.17v-1.17l-1.17-1.17 1.19-2.39v-3.52l1.17-1.17 2.34-5.86 2.34-4.69 1.17-2.34v-2.34l1.17-1.17 1.17-2.34v-5.86l1.17-4.69 2.34-2.34 1.17-9.38 5.86-8.2h1.17l1.17-1.17 1.17-1.17 1.19-1.16 5.86-2.34 5.86-3.52h1.17l1.17-1.17h1.17v2.34l2.34 1.17 1.17-2.34-1.17-3.52h4.69v-3.52l-3.52-3.52-4.69-2.34h-4.65l-3.52-1.17v-4.69l3.52-1.18-1.17-2.34v-2.34l1.17-1.17-3.52-5.86-7-4.69-4.74 1.2-5.86 1.17v3.52l-1.17 3.52z" stroke-width="1.1"/><path data-name="vectormap1 CE" d="M86.32 479.48l-.47-1.17-1.76 1.17-2.58 1.17h-1.05l.94 1.17 2.58 1.17-2.46 5.86h-.24l-.47 1.17-3.75 1.17-3.28-1.17-.47-1.17h-2.85l.35 1.17-.23 1.17h1.68l1.88 2.34.58 2.39.23 1.17 1.29 1.17 1.29 2.34 2.46-1.17h2.58l1.29 1.17.47-1.17h4.22l1.17-2.34 2-3.52 2.93-1.17 2.58-1.17.35-2.34-.59-2.34h-4l.12-1.17.35-1.21h-1.52L90.3 483l-.12-1.17-.23-1.17h-2.69l-.94-1.17z" stroke-width="1.1"/><path data-name="vectormap1 SE" d="M76.71 478.31l-1.76 1.17h-1.41l-.94-1.17h-1.14l-1.29 1.17-.71-1.17-1-1.17-2.58 1.17-2.7 1.17-1.05-1.17h-1.01l1.76 5.86.12 2.34 3.4 1.17 4.1 1.17h4.57l.94-3.52-1.17-1.17 1.29-2.34 1.88-2.34h.94l2.58 1.17-.47-3.52-2.93-2.34-1.41 2.34v1.17z" stroke-width="1.1"/><path data-name="vectormap1 KL" d="M127.1 430.26l-1.17-2.34h-3.47v-2.34l-1.76-1.17-.82 2.34-1.52 2.34-4.34-2.34-5.74 2.34-.7 1.17 2 1.17h3.52l-1.7 3.49-3.28 2.34-.23 1.17-.23 1.17h-6l-.94 2.34-1.26 1.21h-.47l-.59-1.17-1.76 1.17-2.11-1.17-3.63-8.2-5-3.52-3.16 1.17-4.28 1.17.82 1.17h1.18l-.12 1.15.23 1.17 1.41-1.17h1.48l.35 1.17-.7 1.17h7l1.05 3.52.94 2.34 1.76 2.34 1.41 2.34-.35 2.34-.47 3.52.7 2.34 1.64 2.34 2.7 5.86.94 5.86.82 1.17 1.88 1.17 3.52 5.86 2.46 3.52h1.35l.82 1.17.94-1.17h.7l3.63-2.34 3.87-1.17.82-1.17h1.22v-1.18l-.82-1.17-.82-1.17h-1.88l-.48-1.13h-.5l1.05-3.52 4-1.17-.82-1.17-1.17-1.17.35-1.17.47-1.17-1.18-1.16-.2-1.19h4.34l4.22-1.17.44-4.64.59-5.86 2.58-1.17h2l-2.46-2.34h-3l-1.17-2.34-.35-3.52 1.05-2.34 1.52-1.17-1.01-1.26-1.41-1.17-.7-3.52z" stroke-width="1.1"/><path data-name="vectormap1 IN" d="M81.4 481.82l-.94-1.17h-1.52l-.35-1.17H78l-1.88 2.34-1.29 2.34 1.17 1.17-.94 3.52-1.76 1.17 3.75 1.17 3.75-1.17.47-1.17h.23l2.46-4.69-2.58-2.34z" stroke-width="1.1"/><path data-name="vectormap1 AL" d="M526.02 548.62h-1.17l-1.17-1.17-1.22-1.17-1.17 1.17h-1.13l-1.17-1.17-2.35-2.36-3.52 1.17-1.17 2.34 1.17 2.34-2.34 2.34-1.17-1.19h-3.52l-1.17-1.17-1.17-1.17-1.17 2.34-1.17 2.34h-2.34l-1.17 1.17-1.17 1.17h-8.2l-2.34 1.17-1.17 1.17-2.34-1.17-2.34 1.17 2.34 2.34 2.34 2.34v4.69h-3.56l2.34 5.86 3.52 4.69 1.17 3.52 1.17 3.52 1.17 1.17H492l2.34 1.17 1.17 1.17 4.69-1.17 3.52-1.17v1.17l-1.17 1.17 5.86 8.2h4.69l2.34-1.17 1.17-2.34 5.86 1.17h3.52l1.17-1.17h1.17l1.17 1.17 2.34-3.52 1.17-2.34-1.17-2.34v-1.15h-2.34v-1.17l3.52-2.34h2.34v-2.34l-2.31-1.15v-4.69h-1.17l-1.17-1.17v-3.52l-1.17-4.69-1.17 1.17-2.34 1.17-3.57-1.16-2.34-3.52 1.17-1.17 1.17-1.17v-3.52l2.34-1.17 2.34-2.34v-3.52h-1.17z" stroke-width="1.1"/><path data-name="vectormap1 AD" d="M55.85 429.09l-.59-3.52-3.16 1.17-4-1.17-1.88-2.34-1.17-1.17-.94 1.17.35 1.17.59 1.17 2.13 2.35 1.88 2.34h.7l1.05-2.34h1.29l.82 3.52-.35 3.48h-2.7l-2.7 3.52.29 1.2.35 1.17-1.17 1.17h-1.57l.23-1.17-.47-1.17-.94 1.17h-1.17l-.47 1.17 1.41 3.52 2.34 2.34 2.34-1.17 1.52-3.52h1.05l.94-1.17 1.52-2.34 2.58-1.17-.35 2.34-.47 2.34h1.88l.59-1.17.59-1.17.7-1.17 1.41-1.17-1.17-5.86z" stroke-width="1.1"/><path data-name="vectormap1 KIR" d="M265.85 289.63l-5.86-1.17-2.34 2.34-4.69 3.52-2.34-1.17-2.34 1.17v2.34l1.17 1.17h3.52L251.8 299l-1.17 1.17 1.17 2.34-2.34 2.36-1.17 2.34-1.17 3.52v3.52l-2.34 1.17h-4.69v1.17l-2.34-1.17h-1.19l-3.52 2.34-2.34 1.16 3.52 4.69 3.52 4.69-1.17 1.17-2.34 1.17-2.34 1.17-4.69-2.34-1.17 1.17-1.17 2.34-1.17 1.17-1.23 1.19 1.17 1.17 1.17 1.17 1.17 2.34h4.69l1.17 1.17h2.34l1.17 1.17 2.34 1.17v1.17l1.17-1.17h2.34v1.17l-1.17 2.34 1.17 1.17h1.27v4.71l1.17 1.17-1.17 1.17-1.17 1.17 3.52 1.17-1.17 3.52v2.34h1.17v1.17h-1.17l1.17 3.52 2.34 1.17 1.17-3.52 1.14-4.68h2.34l1.16-1.2 1.17-4.69 2.34-3.52h2.34l1.17 1.17h2.34l2.34-1.17 2.34-7 4.69-2.34 2.34 2.34 2.34 1.17h2.34l1.17 1.17v1.17l1.17 1.17h2.41l1.17-1.17 2.34-1.17 1.17-3.52 1.17-1.17-2.34-2.34v-3.52l5.86-3.52 3.52-4.69-4.69-3.52-4.69-4.69v-1.16h-3.51l-4.69 1.17-3.54-1.17-4.69-2.34v1.17h-2.34l-2.34 2.34-3.52 2.34v-2.34l1.17-1.17-1.17-3.52v-2.34l-1.17-2.34-2.34-2.34 2.34-3.52 4.69-1.17v-3.52l3.52-5.86-2.34-2.34-1.17-3.52v1.17z" stroke-width="1.1"/><path data-name="vectormap1 TAM" d="M153.35 343.54l-1.17 1.17h-2.34l-1.17-1.17-1.21-2.35h-3.52l-2.34-1.17-5.14 3.52-4.1 4.69 1.17 7-1.88 1.17-2.19 1.2.94 1.17 1.17 1.17-.59 2.34-.35 1.17 2.11 1.17 2.46 1.17 1.29 2.34 1.17 2.34h1.76l-.23 1.17 1.52 1.17 5.63-2.34 5.86-2.34 2.34-1.17 1.17-1.17v-5.87l-1.17-3.52 1.17-1.17 1.17-2.34-1.17-1.17 1.17-1.17 1.17-2.34 1.17-1.17z" stroke-width="1.1"/><path data-name="vectormap1 KOS" d="M218.98 284.92l-1.17-1.17h-1.17v-2.34l-1.18 1.19-1.17 1.17-3.52-1.17-3.52-1.17-1.17 1.17v1.17l-4.68 1.15-1.17 2.34v1.17l-8.2 3.52-7 4.69 8.2 4.69 2.34-1.17 1.17-1.17 1.17 2.34 1.17 2.34 2.34 1.17 2.34 1.17-1.17 2.34-1.17 1.17h3.52l2.34 3.52 4.69 2.34h4.69l2.34-2.34 1.17-1.17 3.52 3.52v2.34h2.34l4.69 1.17 2.34-1.17 3.52-2.34h1.17l2.34 1.17v-1.17h4.69l2.34-1.17v-3.52l1.17-3.52 1.17-2.34-1.17-2.34-2.34-1.17-1.17 1.17-1.17 1.17h-1.15l-2.34-1.17-1.17 1.17h-1.17l-8.2-5.86-1.17-2.34-1.17-2.34-2.34-1.17-1.17-1.17v-1.17l-4.69-1.17v-3.53z" stroke-width="1.1"/><path data-name="vectormap1 CHU" d="M1032.28 146.66h-1.17l-1.17 3.52 4.69 2.34 2.34-1.17 2.34-2.34-1.17-1.17-1.17-2.34h-2.34zm32.81-74.42l-3.52 2.34v1.64l-1.11.7-1.17.94-1.17 5 1.17 5.16 1.17 2.7 2.34 1.41 1.17.59 2.34-6.45 3.52-1.88 1.17-1.17v-1.37l2.34-5-1.17-5-2.34.35zm79.69 24.38l-1.17 1.88-1.17 1.29-1.17 1.17 1.17.23 1.17-.82 2.34.59 2.34.94v2.58h2.34l2.34 1.17h-2.34v2.34h-1.17l-1.17-1.17-1.17 1.17h-3.52v-2.34l-2.34-1.17-4.69-3.4-1.17-.23h-1.17v2.46l-1.17-.35v-.47l-1.17-1.52-2.34-1.17-2.34.7-1.17 1.17 3.52.59-1.17 1.05-2.34 2.34-1.17-2.34-1.17-1.29-1.17 1.05-2.34 1.41-1.17-1.17-1.17-.23-3.52 1.41-3.52 2.34-1.17-1.17h-1.19l-2.34 1.17-2.34 1.17-1.17-1.17-2.34-1.17-3.52 1.17-3.52 2.34h-5.86l-1.17 1.17-2.34 1.17v-1.17h1.17v-1.17h-1.17l-2.34 1.17-1.17 1.17-2.34 1.17h-2.34l-1.17 1.17-3.52 1.17-3.52 1.17h-1.17v2.34l-1.17-1.17h-1.17l-4.69 5.86-1.17 1.17-2.34 2.34h-2.34l1.17 1.17v1.17h-2.34l-2.34 1.17-1.17 1.17-2.34 1.17-3.52 2.34-3.52 1.17 1.17 1.17 1.17 1.17 1.17 2.34v3.52h2.34l1.17-1.17 5.86 3.52 1.17 5.86-1.17 2.34v2.34h-3.52l-2.34-2.34-3.52 1.17-3.52 1.17-2.34-2.34-5.86-2.34-1.17 1.17v5.86l-2.34 2.34h-2.34l-2.34 1.17-1.17 1.17-2.34 2.34-3.52 1.17-2.34-1.17v1.17l-1.21 1.2-1.17 1.17h-1.17l-1.17 2.34v1.17l-1.17 1.17-1.22 1.15 1.17 2.34 1.17 1.17h1.17l1.17 1.17 1.17 2.34h1.17l2.34 1.17v2.34l2.34 3.52 1.17 2.34-2.34 1.17-1.17 1.17-8.2 9.38-5.86 8.2 1.17 1.17 1.17 1.17-1.17 2.34v2.34l7 4.69 7 2.34v1.17l-1.17 1.17 2.34 4.69 2.34 3.52h3.52l2.34 1.17 1.17 4.69h3.52l2.34-1.17h3.52l2.34 1.17h5.86l3.52-2.34 3.52 1.17h5.86l2.34-2.34 3.52-2.34-1.17-2.34 2.34-2.34 1.17-1.17 2.34-1.17h3.52v-1.17l4.69-2.34h1.17l2.34-1.17 2.34-2.34 1.17-1.17 2.34-1.17h2.34l1.17 1.17 3.52-1.17 3.52-1.17h2.34l1.17 1.17h5.86l1.17 5.86 1.17 7 4.69-1.17h4.69l4.69 1.17 3.52 1.17h1.17l1.17-1.17h1.17l1.17-1.17v-3.52h1.17l2.34-2.34 11.72-12.89 1.17 1.17 2.34 1.17 2.34-1.17h2.34v1.17l1.17 1.17 1.17-3.52v-4.69l2.34-7 2.34-7h-2.34v-1.17l-1.17-1.17h1.17v-1.17l2.34 2.34 5.86-3.52 5.86-3.52-1.17-1.17v-4.69l-3.52-1.17-3.52-1.17v-2.37l-3.52 1.17-3.52-1.17-5.86-3.52-7-3.52-1.17 3.52-4.69 1.17-2.34-2.34-1.17-1.17-1.17 3.52v1.17h-2.34v2.34l-1.17-1.17 1.17-1.17h-4.69v1.17l1.17 2.34-2.34 1.17-1.17 1.17 1.17-2.34 1.17-1.17v-1.17l-1.17-2.34h1.17l7-3.52-1.17-1.17v-1.17h4.69l4.69-3.52 2.34-7-1.17-7-2.34-7h-3.52l-4.69-1.17-1.17-3.52 1.17-2.34h-1.17l-1.17-1.17 2.34-1.17 1.17 1.17v-4.69l2.34 3.52 1.17 3.52h2.34l1.17-1.17h1.37l2.34 4.69 1.17-1.17 1.17-1.17 2.34-5.86 2.34-3.52 2.34-1.17 3.52-1.17 3.52 2.34 2.34 1.17 4.69-1.17 3.52-2.34 1.17-1.17 1.17-1.17 3.52 1.17 3.52-1.17v-2.34l-1.17-1.17v-1.17l2.34 2.34 1.17 1.17 1.17-2.34-2.34-2.34h1.16l1.17-1.17v-1.17h-2.34l-2.34 1.17-1.17-1.17-1.17-1.17v1.17h-1.15l1.17-2.34v-4.69l-1.17-1.17-1.17-1.17-2.34-1.17h-5.86l2.34-1.17 2.34-1.17 2.34-2 1.17-2.58v-.9l-2.34.35-2.34-.82 2.34-.82 3.52-2.11-2.34-1.52-1.17-1.17v-6.7l-1.17.35-1.17.94-1.17.23-1.17.12-3.52.94-2.34.82-5.86.12h-3.52l-2.34 2.93-1.17 2.93-1.17.94v.23l1.17.94v.94l-2.34-.7-1.17-1.17z" stroke-width="1.1"/><path data-name="vectormap1 YEV" d="M964.31 573.23h-3.52l-1.17-1.17h-2.34l-3.52-3.52-1.17-1.17h-2.34l-2.34 1.17-2.34-1.17h-2.34l-1.17 2.34-1.18 1.21h-1.17l-3.52 2.34h-1.17l-1.17 1.17-1.18 3.49-1.21 2.34v4.66l1.17 1.17 2.34 2.34v2.34l1.17 2.34 1.17 1.17 1.17 1.17 2.34 1.17 2.34-1.17h1.17l7-3.52h2.34l1.17-2.34v-2.34l2.34-1.17 2.34-2.34h2.34l2.34-4.69 3.52-2.34h4.69l3.52-2.34-1.17-2.34-1.17-2.34-2.24 1.23h-4.69l-2.34 2.34z" stroke-width="1.1"/><path data-name="vectormap1 TY" d="M608.05 540.42h-2.34l-5.86 2.34-3.52-1.17-1.17 1.17h-2.34v-1.17h-1.17l-1.19 1.17h-3.5l-1.17 2.34-1.17 3.52-2.34 1.17-2.35 1.13-5.86 8.2-8.2 4.69-8.2-1.17-7-2.34-1.21-2.3-2.34-1.17-3.52 1.17-3.52 1.17v5.86h-4.69l-4.69-1.17v8.2l1.17 1.17h1.17v4.69l2.34 1.17v2.34h-2.34l-3.52 2.34 1.17 1.17h1.17v1.17l1.17 2.34 4.69-1.17h4.74v-2.36l1.17-2.34 5.86 1.17 2.34-1.17 2.34-1.17h4.69v-1.17l1.17-1.17h1.17v1.17h1.17v1.17h1.17l2.34-1.17v2.34l1.17 2.34h4.69l5.86 1.17 1.17 3.52 1.17 4.69 4.69 1.17 4.69 1.17h1.14l1.17-1.17 5.86 2.34h2.34l3.52 1.17 1.17 1.17 1.17 1.17 8.2-4.69 1.17-3.52 1.17-3.52h-1.17l-1.17-2.34v-3.52l-1.17-1.17 2.34-5.86 3.52-4.69h1.17l1.17-1.17 2.34-2.34 1.17-2.34v-2.34l-1.17-1.17v-2.34l1.17-1.17v-5.86h1.17v-2.36l-1.14-1.12h-4.69l-5.86-4.69-5.86-5.86v1.17z" stroke-width="1.1"/><path data-name="vectormap1 SAK" d="M1107.29 581.44l-2.34 1.17h-2.34v2.31l-1.17 4.69-1.17 4.69 1.17 1.17h1.17v-4.69l1.17-4.69 2.34-2.34 1.17-1.17v-1.17zm7 8.2v-2.34l-1.17 1.17-1.17 1.17h2.34zm8.2-31.64l-1.17-2.34h-1.17l-1.17 3.52-1.17 2.34h-4.69v1.17l1.17 1.17-1.17 2.34-1.17 2.34v2.38l-1.17 2.34v2.34l-1.17 2.34 1.17 1.17 1.17-5.86 1.17-1.17 1.17-1.17v-2.34l2.34-2.34 1.17-3.52 2.34-2.34 2.34-2.34zm8.2-19.92l-1.17 1.17-2.34 5.86v1.17l-1.17 1.17 2.34 1.17 2.34-8.2v-2.34zm9.38-17.58l-1.17-3.52v3.52l-1.17 2.34v1.17zm1.17-16.41v2.34l1.17-1.17v-1.17h-1.17zm1.17-17.58l-1.17-2.34 1.17 1.17v1.17zm-1.17-14.06l1.17 2.34v1.13l1.17-1.17-1.17-3.52-1.17 1.17zm4.69-22.27v-2.34h-1.17l-1.17 2.34h2.34zm-3.52 7l-2.34 4.69 1.17 1.17 2.34-2.34 1.17-3.52v-3.52l-1.17-2.34-1.17-1.17-1.17 1.17 1.17 2.34v3.52zm-97.27 58.6l-5.86-7-4.69-5.86-3.52-4.69v1.17h-1.17v-2.34l-2.34-1.17-2.34-2.34-1.17-5.86-2.34-7h-1.17l-2.34-2.34-1.17-2.34h1.17l1.17 1.17v1.17h1.17l-4.69-5.86-3.52-4.69v-2.38l-3.52-2.34-1.17-1.17v2.34h-1.18l-1.17 1.17 2.34 1.17 3.52 2.34v1.17h1.17v2.34h-1.17v1.17l1.17 1.17-1.17 3.52-1.17-1.17h-1.17l-2.34 1.17v2.34l1.17 2.34 1.17 1.17 2.34 8.2 2.34 8.2 4.69 3.52 5.86 4.69 1.17 3.52v4.69l2.34 2.34 1.17 2.34 7 21.09v1.18l4.69 3.52 2.34 4.69 1.17 3.52v4.69l2.34 2.34 1.17 2.34 2.34 9.38 4.69 7 1.17-1.17v-2.31l-1.17-5.86 1.17-4.69 1.17 1.17 3.52-1.17 2.34 1.17 2.34 1.17 1.17 2.34 1.17 1.17-2.34-5.86-2.34-4.69-1.17 1.17-2.34-1.17-2.34-1.17-2.34-2.34-4.69-3.52-3.52-5.86-1.17-7v-5.86l-1.17-2.34v-2.36l1.17-1.17 1.17-2.34 5.86-1.17 5.86 2.34 2.34 1.17 1.17 1.17-2.34-2.34-3.52-2.34-2.34-2.34-1.17-2.34-7-7z" stroke-width="1.1"/><path data-name="vectormap1 AMU" d="M917.46 483l2.34-2.34 1.17-3.52h-2.34l-1.17-1.22-2.34-1.17-1.2 1.17-2.34 1.17h-1.17l-1.18-1.17-3.52 2.34-4.69-1.17-2.34 2.34h-3.52l-1.17 1.17v1.17l-2.34 1.17-2.34 2.34v1.17l-1.17 1.17-3.52-1.17-3.52-1.17v1.17h-4.64l-1.17 2.34v1.17l-2.34-1.17h-1.17l-2.34 1.17-3.52 2.34h-3.56l-1.17-1.17h-3.52l-3.52 1.17-5.86-1.17-2.34-2.34-2.34-2.34-5.86-1.17h-7l-1.17-1.17-2.34-1.17h-4.69l-2.34-1.17-2.34-1.17-2.41-1.12-4.69 1.17-4.69 2.34v4.69h1.17l1.17 2.34v1.17l2.34 1.17 3.52 1.17-2.34 1.17h-1.17v2.34l2.34 2.34h1.17v-1.17l2.34-1.17 3.52-1.17 2.34 3.52 1.17 3.52h1.17l2.34-1.17 2.34 5.86-2.34 5.86 1.17 1.17h1.17l3.52 2.34-1.17 1.17-1.17 1.17v3.52l-1.17 2.34 3.52 3.52 2.34 3.52h5.86l2.34-1.17 2.34-1.17h1.17l1.17-1.17 2.34 1.17 2.34 1.17 1.17-1.17 3.52 2.34 3.52 1.17v-1.16h7l1.17 1.17v1.17h1.17l1.17 1.17h1.17v2.34h1.17l2.47 2.35 1.17 1.17 1.17 4.69 5.86 7h1.17v1.17l1.17 1.17v2.34l2.34 2.34 2.34 3.52 1.17 1.17 1.17 3.52h1.17l1.17 1.17v2.34l3.5 5.9 4.69-1.17 4.69-1.17 1.17 1.17h2.34v1.17h1.17l1.17-1.17 1.17 1.17v-1.17h1.2v-1.17l4.69 3.52 8.2 1.17h1.11l1.17-2.34 1.17-3.52 1.17-1.17v-3.52l-1.17-3.52V558l-1.17-1.17h-2.34v-1.17l-1.17-1.17-1.17 1.17h-1.17v-2.34h-1.17l-1.15 1.16v-7l1.17-3.52 1.17-2.34v-1.2l-1.17-2.34 3.52-2.34 3.52-2.34 1.17-1.17-1.17-1.17 1.17-2.34 1.17-1.17 2.34-1.17 2.34-1.17v-4.69l-1.17-2.34 5.86-1.17h4.69l1.17-1.17v-2.34l-1.17-2.34v-4.69l-1.16-3.55-3.52-1.17h-1.17l-1.17 1.17-3.52 1.17h-2.34l-1.17 2.34-2.34 2.34-4.69 2.34-2.34 1.17-1.19 1.19h-4.69l-2.31-3.55-2.34-2.34h-4.69l-3.52-1.17v-4.69l3.52-2.34v-7l1.17-1.17 1.17-1.17 2.34-2.34 2.34-2.34v-2.34z" stroke-width="1.1"/><path data-name="vectormap1 BU" d="M751.03 494.72h-2.34l-2.34-2.34v-2.34l-1.17 1.17h-7l-1.17-1.17-1.17-1.17-1.17 2.34-3.52 2.34h-5.86l-1.17-1.17h-1.17v-1.17h-1.17l-2.34 1.17-1.17 2.34h-1.17l-1.17-1.17-2.4 2.37-3.52 2.34 1.17 5.86h2.34v2.34l2.34 1.17 1.17 2.34h-2.34v2.34l-2.34 9.38 1.17 9.38 3.52-12.89 2.34-4.69 3.52-1.17-1.17 15.23-2.35 16.37-1.17 1.17-1.17 1.17v-3.52l-1.17-1.17-1.17 2.35-1.17 2.34h3.52v2.34l-1.18 2.32h-2.34l-2.34 3.52-3.52 4.69-14.06 5.86-1.15 3.56-1.17 3.52-8.2 4.69-4.72 1.16-1.17 1.17-3.52 3.52h-4.69l-1.17 1.17h-1.17v-4.69l-1.19-2.34-2.34-1.17v-2.34l-1.16-2.32-8.2-7-1.17 1.17h-1.13l-1.17-2.34-1.17-3.52-5.86-3.52-4.69-3.52-1.17-3.52v-2.34l-5.94 4.59-4.69 3.52-1.17-1.17h-1.14v5.86l-1.17 1.17v2.34l1.17 1.17v2.34l1.17 1.17 2.34 1.17 8.2 4.69 7 3.52h1.17l1.17 1.17 4.69 1.17 3.52 1.17v7l7 8.2 10.55 2.34 9.38-2.34 2.34-1.17h1.17l4.69 1.17 4.69 1.17h3.52l3.52 2.34 2.34 2.34h2.34l2.34 1.17v-4.69l2.34-3.52h2.34l2.34-2.34-2.34-1.17-2.34-2.34 1.17-2.34 2.34-2.34-1.17-3.52 1.17-2.34h4.69l3.52 1.17 2.34-2.34 3.52-2.34h3.52l2.34 1.17 1.17-1.17 2.34-2.34 2.34-2.34 2.34-1.17 2.34-1.17 1.17-3.52 1.17-1.17h1.17l2.34 1.17 1.17-2.34 2.34-1.17 5.86-1.17 5.86-4.69-2.34-7-2.34-4.69 2.34-1.17v-1.13l7-5.86 5.86-5.86 2.34-1.17 2.34-1.17h2.34l2.34-1.17v-8.2l-5.86-4.69-3.37-2.38v-4.69l-1.18-2.31v-1.17l-1.17-2.34v-3.49l-1.17-1.17-1.17-1.17h-1.17l2.34-1.17-1.17-2.34 2.34-2.34h1.17l1.17-1.17-5.86-1.17-5.86 7-5.86 2.34-4.69-1.17-2.34 1.17z" stroke-width="1.1"/><path data-name="vectormap1 KK" d="M552.97 513.47l-2.34-2.34-2.34 1.17h-3.52l-3.52-3.52-3.52-3.52-1.17 1.17v5.86l-1.17 3.52-1.17 4.69h3.52l2.34 2.34-1.17 1.17-1.17 1.17 1.17 2.34-1.17 2.4h-1.17l-2.34 2.34v2.34l1.17 3.52-1.17 2.34 1.17 2.34 1.17 3.52-4.69 3.52-4.69 2.34-2.34 2.34-2.39 1.13v3.52l-1.17 1.17v1.17l1.17 3.52 3.52 1.17 2.34-1.17 2.34-1.17 4.69 1.17h4.69v-5.86l3.52-1.17 3.52-1.17 1.17-3.52 2.34-2.34 1.17-1.17h2.34l2.34-4.69v-1.19l2.34-1.17 2.34-2.34v-1.17l-1.17-1.17-1.12-1.15v-1.17l-1.17-1.17 2.34-5.86-2.34-7-1.17-7-3.52-1.17z" stroke-width="1.1"/><path data-name="vectormap1 KEM" d="M528.36 483h-8.2l-1.17 1.17-1.17-1.17h-1.17l-2.34 2.34-1.17 1.17h-1.18l-1.17-1.17-2.33 1.17h-2.34l-1.17 2.34v1.17l1.17 3.52v3.52l1.17 1.17-1.17 2.34-1.2 2.35 1.17 2.34v2.34l-1.17 1.17-1.17 2.34 2.34 2.34 1.17 2.34 1.17 1.17h1.17v2.34l1.17 1.17 1.17 1.17 1.17 1.17v3.52l1.17 2.34 2.34 1.17 1.17 1.17-1.17 1.17-1.16 2.38v1.17h1.17v1.19l-1.17 1.16 1.17 2.34v3.5l2.34 2.34 1.17 1.17h1.17l1.17-1.17 1.17 1.17 1.17 1.17h1.17l1.17-1.17v4.69l4.69-2.34 4.69-3.52-1.17-3.52-1.17-2.34 1.17-2.34-1.17-3.52 1.17-2.34 1.17-2.34 2.34-1.17v-1.17l-1.17-2.34 1.17-1.17 1.17-1.17-2.34-2.34h-3.52l1.17-4.69 2.34-3.52-1.17-1.17v-4.69l1.17-1.17 3.52-3.52 3.52-1.17v-1.17l-1.17-10.55-1.11-1.17-1.17-1.17 1.17-2.34h1.17l-1.17-1.17v-1.18h-4.69l-3.52 2.34-2.34-1.17-2.34-1.17-1.17 1.17z" stroke-width="1.1"/><path data-name="vectormap1 NVS" d="M446.33 452.53l-2.34-1.17-2.34-2.34-1.19 2.33v1.17l-1.16 2.4v2.34l-2.34 1.17-1.17 2.34 1.17 2.34v2.34h-4.69l-2.34 1.17-2.35 2.3h-2.34v2.34l1.17 1.17-2.34 2.34-1.17 5.86 1.17 2.34 1.17 3.52v1.17l-1.17 1.17-1.17 2.34-1.17 3.52h4.69l1.17-1.17 1.17-1.17 1.17 1.17h3.53l-2.37 2.4-2.34 1.17 3.52 7 4.69 8.2 1.17-2.34 2.34-1.17 1.17 1.17v1.17l2.34-1.17h2.34l3.52 1.17h3.52l1.17-1.17 8.2-3.52 7-2.34v1.17l1.17 3.52 1.17 1.17v2.34h1.17l1.17 1.17-1.17 1.17h-1.17l5.86 7 3.52-3.52 5.86-3.52v2.34h2.34v-2.34h9.38l1.17-1.17 3.52-2.34 1.17-2.34 1.17-1.17v-2.34l-1.14-2.31 1.17-2.34 1.17-2.34-1.17-1.17v-3.52l-1.17-3.52v-1.17l1.17-2.34h-5.86l-1.17-1.17-1.17 3.52-2.34 1.17h-1.17v-1.17l-1.17-1.17 1.17-1.17 1.17-1.17v-8.2h-3.52l-1.17 1.17v1.17l-1.17-1.17h-7l-1-4.69-8.35-1.17-5.88-9.35-8.23-4.63 1.09-1.21z" stroke-width="1.1"/><path data-name="vectormap1 ALT" d="M494.38 514.64h-4.69v2.34h-1.17l-1.17-2.34-5.89 3.51-3.52 3.52-4.69-7 1.17-1.17-1.17-1.17h-1.17v-2.41l-1.17-1.17-1.17-3.52v-1.17l-7 2.34-8.2 3.52-1.17 1.17h-3.52l-3.52-1.17h-2.34l-1.17 1.17-1.17-2.34h-1.19l-1.16 1.17-2.34 2.34 8.2 42.19 4.69-1.17v-2.36h2.34v-1.17l1.17-1.17 2.34 5.86 2.34 4.69 4.69 1.17 2.34 1.17h4.69v-1.17h3.52l1.17-1.17 4.69 3.52 2.34 4.69H485v-4.69l-2.34-2.34-2.34-2.34 2.34-1.17 2.34 1.17v-1.17h1.17l2.34-1.17h8.2l1.17-1.17 1.17-1.17h2.34l1.17-2.34 1.17-2.34 1.17 1.17 1.17 1.17h3.52l1.17 1.17 2.34-2.34-1.17-2.34 1.17-2.34 3.52-1.17v-3.51l-1.16-2.34 1.17-1.17v-1.17l-1.17-1.18 1.17-2.34 1.17-2.34h-1.17l-2.34-1.17-1.17-2.34v-3.52l-1.17-1.17-1.17-1.17-1.17-1.17V517h-1.15l-2.34-1.17v-2.34l-2.34-2.34-3.52 2.34-1.17 1.17h-2.34l-2.34-1.17v1.17z" stroke-width="1.1"/><path data-name="vectormap1 DA" d="M109.17 481.82l-2.46-3.52-3.52-5.86-1.88-1.17-.85-1.16-2.11 1.17-3.28 2.34-1.61-1.17-1.76 1.17h.76l-.28 2.3h-4l1.76 1.17-.59 3.52h.59l.23 1.17.12 1.17 1.64 1.17h1.53l-.35 1.17-.12 1.17h4l.59 2.34-.35 2.34-2.58 1.17-2.93 1.17-2 3.52-1.17 2.34h-4.22l-.47 1.17-1.29-1.17h-2.58l-2.46 1.17-1.41 1.17-1.76 2.34 2.35 5.9 3 4.69.82 8.2 2.58 7h2.81l3-1.17h4l3.4-2.34v-10.49l1.17-10.55 6.68-5.86 2.93-1.17-.47-1.17h-1.64l.47-3.52.47-3.52-1.76-5.86 4.92-2.34z" stroke-width="1.1"/><path data-name="vectormap1 STA" d="M86.46 438.46l-3.28-1.17.7-1.17-.42-1.2h-1.48l-1.41 1.17-.23-1.17.12-1.14h-1.17l-.83-1.18-2-2.34-2.34-1.17-.59 2.34-.59 1.17-2.11-1.17-1.76-1.17-1.52 2.34-.94 3.52 1.05 3.52-.7 2.34.94 1.17-1.76 2.34-1.88 1.17-.47-1.17h-.56l.12 4.69 1.88 2.34 1.52 3.52h1.64l1.52 1.17-.45 1.18h-2.7l-2 1.17.47 1.17h1.29l-.94 1.19-1.41 2.34h2.7l3 1.17.59 1.16-.23 1.17 3.28 2.34h2.58l2.23 2.34 1.29 1.17h.59l-.94 1.17h-1.15l2.93 2.34.47 3.52 2.58-1.17 1.76-1.17.47 1.17.94 1.17h2.11l.59-3.52-1.77-1.2h4l.27-2.3h-.7l1.7-1.17 1.64 1.17 3.28-2.34 2.11-1.17-.94-5.86-2.7-5.86-1.64-2.34-.7-2.34.47-2.34.35-3.52-1.41-2.34-1.76-2.34-.94-2.34-1.05-2.34h-3.71z" stroke-width="1.1"/><path data-name="vectormap1 KB" d="M70.46 466.59l-.59-1.17-3-1.17h-6l-4.57 3.52 3.16 4.68 1.64 5.86h1.05l1.05 1.17 2.7-1.17 2.56-1.17 1 1.17.7 1.17 1.3-1.17h1.17l.94 1.17h1.41l1.76-1.17 1.41-3.52h1.17l.94-1.17h-.62l-1.29-1.17-2.23-2.34h-2.58l-3.28-2.34z" stroke-width="1.1"/><path data-name="vectormap1 KC" d="M65.22 452.53l-1.88-2.34h-1.88l.12 1.17-4.22 2.34-1.9-2.35-1.88-3.52-4 2.34-3.87 2.34 4.1 8.2 6.45 7 4.57-3.52h3.28l1.47-2.27.94-1.17h-1.3l-.47-1.17 2-1.17h2.71l.47-1.17-1.52-1.17h-1.66l-1.52-3.52z" stroke-width="1.1"/><path data-name="vectormap1 ROS" d="M117.46 383.38h-.94l-.82 1.17-5 1.17-4.8-1.17-2.7-2.34-3.74 3.52-4.92-1.17-.82 1.17v2.34h.94l.7 1.17h-5l-.35 1.17.35 1.17-.99 2.34-.82 1.17-2.09 2.36-3 1.17-3.75-2.34-3.63-3.52h-4.62l-2.11-1.17-2.95 2.33-3.16 2.34 2 1.17 1.05 1.17 3.4 1.17 2.57 1.15-.23 1.17h-.7l-.94 2.34-.7-1.17h-1.23l-2.11-1.17h-1.83l-.23 1.17.47 1.17-1.52 1.17-.59 1.17 3.63 1.17 5.27 2.34 1.41 1.17.5 2.4-1.05 1.17h-.86l.23 1.17.47 1.17-.47 1.17-.59 1.17 2.7 4.69h2l-.59 1.17h-.7l.12 2.36-.59 1.17 2.33 1.17 2 2.34 4.22-1.17 3.16-1.17 5 3.52 3.63 8.2 2.11 1.17 1.76-1.17.59 1.17h.53l1.29-1.17.94-2.34h6l.23-1.17h.23l3.28-3.52 1.64-3.52h-3.52l-2-1.17.7-1.17-.7-1.17-.82-1.17h-1.88l.59-1.17v-1.17h-2l.23-1.17.94-5.86-1.76-3.52-1.17-2.34.59-1.17h1.19l1.41-1.17 1.52-1.17 3.87 1.17 4.2-2.36-.23-3.52-.61-2.38-.7-1.17h-.46l3.28-3.52 3.16-2.34-1.17-5.86-.27-4.65z" stroke-width="1.1"/><path data-name="vectormap1 SAM" d="M224.84 386.92l-2.38-3.54-1.14 3.54-2.34 2.34h-2.34l-1.18 1.16-3.52-2.34-2.34-2.34h-2.34l-2.34-1.17h-1.17l-2.34 1.17h-3.52l-2.34 5.86-2.34 3.52v1.17l1.17 2.34v2.29l1.17 1.17 2.34 1.17v3.52h1.17v3.52l1.17 1.17 1.17 4.69 1.17 3.52 9.38-1.17 3.52-3.52 4.69-2.34 1.17-1.17h2.34l2.34-2.34 2.34-3.52 2.34-1.17 2.34-1.17 2.34-4.69 3.52-1.17-2.34-2.34h-1.17v-3.52l-1.17-1.17-2.34-2.34h-2.34l-2.34 1.17-2.34-3.52v1.22z" stroke-width="1.1"/><path data-name="vectormap1 ME" d="M237.73 344.71v-1.17l-2.34-1.17-1.17-1.17h-1.17l-1.17 1.17-1.17-1.17-1.17-1.17h-3.52l-1.17-2.34-1.17-1.17-1.22-1.18-3.52-2.34h-4.69l-1.17 1.17-1.17-1.17h-1.17l-1.17 2.34 1.17 2.34h-1.17l-1.11 2.34 1.17 1.17-1.17 2.35h3.52l1.17 1.17 5.86 1.17 1.17 3.52v1.17l1.17 1.17v2.34l1.17 3.52h2.34l2.34-1.17h3.52v-1.17h4.69l3.52 2.34 2.34-1.17 1.17-1.17 1.17-1.17-1.15-1.17v-4.69h-1.17l-1.17-1.17 1.17-2.34v-1.17h-2.34l-1.17 1.17z" stroke-width="1.1"/><path data-name="vectormap1 CU" d="M213.12 344.71l-1.17-1.17h-3.49l-1.17 1.17-2.37 1.21v3.52l1.17 2.34h-3.52l-2.34 1.14v1.17h-1.17v1.17h1.17l-1.17 4.66 2.34 3.52 3.52 2.34 1.17-1.17h1.17l1.17 1.17h4.69l1.17-3.52-1.17-1.17v-1.17l5.86-1.17v-1.17h3.48l-1.17-3.52v-2.34l-1.17-1.17v-1.17l-1.14-3.46-5.86-1.17z" stroke-width="1.1"/><path data-name="vectormap1 NIZ" d="M218.98 313.07l-2.34 2.34h-4.69l-4.69-2.34v1.17h-1.17l-2.34 1.17-1.17 2.34-2.35 1.17-2.34-1.17-2.34-1.17-2.35 2.34-1.17 1.17-1.18-1.17h-1.17v2.34l-1.22 1.18v1.17h-5.86l-3.52 1.17-3.52 2.34-4.69 1.17v2.34h-1.11v1.17h1.17l2.34 1.17v2.34l-1.17 1.17 2.34 2.34 1.17 1.17h2.34l2.34 1.17 2.34 8.2 2.34 4.69 2.34-1.17 2.34-1.17v1.21h1.17l2.34-1.17 3.52-1.17 1.17 1.17-1.14 1.17 1.17 1.17h2.34v-1.17l2.34-1.17h3.52l-1.17-2.34v-3.49l2.34-1.17 1.17-1.17 1.17-2.34-1.13-1.22 1.17-2.34h1.17l-1.17-2.34 1.17-2.34h1.17l1.17 1.17 1.17-1.17 1.15-1.18 3.52 1.17 3.52 2.34 1.17-1.17 1.17-1.17 1.17-2.34 1.17-1.17 4.69 2.34 2.34-1.17 2.34-1.17 1.17-1.17-3.52-4.69-3.5-4.7-4.69-1.17h-2.34v-2.34l-3.52-3.49z" stroke-width="1.1"/><path data-name="vectormap1 MOS" d="M145.15 276.74l-1.17 1.18h-1.17l-2.46 1.17-3.28 1.17-2 4.69-4.45 4.69 1.76 1.17h1.29l1.05 2.34 1.17 2.34 3.63 1.17 1.17 5.86-1.17 1.17-.94 2.34 2.46 3.52h1.76v4.69l1.17 1.17h-1.17l-1.76 2.34.12 2.34h1.64l2.34-1.17 1.17-1.17 1.15 1.17h1.17l2.34-1.17h7v-1.17l2.34 1.17h2.34l2.34-7-2.34-2.34-1.17-1.17-1.17-2.34-1.17-1.17 2.34-7 3.52-5.86 1.17-1.17-1.17-2.34-1.1-2.44h-3.52l-2.34-1.17-1.17 1.17h-1.17l-1.17-1.17-3.52-1.17-3.55-1.15-1.17-2.34-1.17-2.34zm5.86 12.89l3.52 1.17 2.34 4.69-2.34 3.52-3.52 2.34-4.69-2.34-1.17-3.52 1.17-4.69 4.69-1.17z" stroke-width="1.1"/><path data-name="vectormap1 KLU" d="M135.89 295.49l-1.17-2.34-1.05-2.34h-1.29l-1.76-1.17-9 2.34-1.16-1.18-1.05-1.17-1.05 1.17h-2l-1.76-3.52-2.46-1.17-1.05 1.17-.82 1.17h-1.88l-2 1.17.7 5.86 1.17 4.69-1.88 2.34-1.17 1.17 2.7 4.69 4.69 1.17 4.69 1.17.82-1.17.59-1.17 2-1.17h2.34l.47-1.17h.35l2.7 1.17 2.81 1.17h.59l.94 1.17 1.29-1.17.35-1.17h3l1.64-1.17 1.41-1.17.94-1.17 1.17-2.34-1.17-4.69-3.63-2.34v1.17z" stroke-width="1.1"/><path data-name="vectormap1 BEL" d="M105.46 354.09l1.88-1.17.23-2.34-1.11-2.35-1-1.18-7-3.52-5.51-2.34-1.29-2.34-1.05-1.17h-4.29l-2.23-2.34-4.22 7 1.52 1.17 2.35 2.41.59 2.34.82 2.34.12 1.17 3.86 1.15 3.75 2.34h-.42l-.87 4.66v3.52l1.52 1.17 1.52-1.17 1.41 4.69 2.81 4.69.82-1.17 1.05-1.17 1.17-2.34 1.76-3.52h1.17l1.17-1.17-.23-2.34v-3.52h1.7l1.17-2.34h-1.64l-1.53-2.33v1.17z" stroke-width="1.1"/><path data-name="vectormap1 ZAB" d="M789.7 463.07l-3.52-1.15-2.34 2.34 2.34 2.34-1.17 1.17h-1.17v3.52h-1.17v1.17l1.17 8.2h2.34v7h-1.17l-1.17-1.17-2.38 2.37-1.17 1.17-2.34-1.17h-4.69l-2.34 1.17v2.34l-1.17 1.17h1.17l1.17 1.17 1.17 1.17v2.34l-1.17 1.17h1.17l1.17 2.34v1.19l1.17 2.34-1.14 1.17 1.17 3.52 3.52 2.34 5.86 4.69v9.38h-2.34l-3.52 1.17h-1.17l-2.34 1.17-5.86 5.86-7 5.86-1.17 1.17-1.17 1.17 2.34 4.69 2.34 7-5.86 4.69-7 1.17-1.17 1.17-2.34 2.34-1.17-1.17h-1.17l-1.17 2.34-1.17 2.34-2.34 1.17-3.52 1.17-1.17 2.34-2.34 2.34-1.24 1.23-2.34-1.17h-3.52l-3.52 2.34-2.34 2.34h-1.18l-2.35-1.17h-4.69l-1.17 2.34 1.17 3.52v1.14l-2.34 1.17-2.34 2.34 3.52 2.34 2.34 2.34-2.34 1.17h-2.34l-2.34 3.52v4.69l2.34 2.34 4.69 4.69 8.2 1.17 8.2 1.17h1.17l1.17-1.17 1.17 1.17h2.34l2.34-1.17 3.52-2.34 8.2-2.34 8.2-2.34 2.34-4.69 8.2-7 5.86 1.17 4.69 2.34H785l7-1.17 5.86 3.52 8.2 1.17 2.34-3.52 3.52-3.52 3.52-2.34 2.34-2.34v-2.37h-1.17v-1.17l2.34-9.38 2.34-10.55 3.52-4.69 2.34-4.69-1.17-1.17-1.17-1.17v-2.34l-1.17-1.17-3.52 1.17-1.17-3.52 1.17-2.34 3.52-3.52v-1.17l1.17-1.17 4.69-2.34 5.86-3.52-2.34-3.52-3.52-3.52 1.17-2.34v-3.52l1.17-1.17 1.17-1.17-3.52-2.34h-1.17l-1.17-1.17 2.34-5.86-2.34-5.86-2.29 1.21h-1.17l-1.17-3.52-2.35-3.48-3.52 1.17-2.34 1.17v1.17h-1.17l-2.34-2.34v-2.34h1.17l1.17-1.17-2.34-1.17-2.34-1.21-1.17-1.17v-2.34h-2.34l1.17-4.69-3.52-4.69-1.14-4.69h-1.17l-1.17 1.17-2.34-4.69v-7l-4.69 1.17-2.34-1.17z" stroke-width="1.1"/><path data-name="vectormap1 PRI" d="M1017.05 573.23h-3.52l-2.34-1.17v-2.34l1.17-2.34-1.17-2.34-2.34-2.34-1.17-1.17-3.52 2.34-3.52 3.52h-2.34v1.17l1.17 1.17 1.17 1.17v1.17l1.17 1.17h4.65l-2.34 7-4.69 2.34v4.69l-4.69 3.52-5.86 2.34-1.17-1.17-1.17-1.17-1.17 1.17-1.17 1.17v-2.34l-1.17-1.17-1.17 1.17-1.17-1.17h-1.17l-2.34 3.52-1.17 3.52V599l-2.34 2.34v12.89l-1.17 2.34 1.17 2.34-1.17 1.17-1.17 2.34 1.17 3.52-2.34 2.34h-9.38l-3.52 1.17-1.17 4.69-2.34 1.17-1.17 1.17 1.17 2.34 1.17 2.34 3.52 7 1.17 7 1.17 1.17v1.17l-1.17 8.2-3.52 1.17-1.17 2.34h1.17l1.17 1.17 1.17 2.34 1.17 2.34 1.17-2.34v-1.17l-1.17-1.17-1.14-1.05h5.86v-2.34l1.17-4.69 2.34-3.52-1.17-1.17 1.17-1.17H969v3.48l1.17-1.17 1.17-1.17 1.17-1.17v-1.17l1.17 3.52v2.34h1.17v-1.18h1.17l1.17 1.17 1.17-1.17 2.34 1.17 1.17 1.17v-2.34l1.17 1.17 2.34-1.17 2.34-2.34 7-7 4.69-8.2 1.17-1.17v-2.34h1.17v-4.69l1.17-3.52v-2.34l2.34-2.34 1.17-5.86 2.34-7 2.34-7 2.34-5.86 1.17-5.86 1.17-7v-5.86l1.17-4.69v-3.52z" stroke-width="1.1"/><path data-name="vectormap1 KAM" d="M1127.21 301.35h-2.34v14.06h1.17v-3.49l1.17-2.34v-2.34l1.17-1.17 1.17-2.34zm4.69-73.83l-1.17 1.17v3.52h-2.34l-1.17 1.17-1.17 1.17-3.52-1.17-4.69-1.17h-4.69l-4.69 1.17-1.17-7-1.17-5.86h-5.86l-1.17-1.17h-2.34l-3.52 1.17-3.52 1.17v-1.17h-3.52l-2.34 1.17-1.17 1.17-2.34 2.34-2.34 1.17h-1.17l-4.69 1.17v1.17l-1.17 1.17h-2.34l-2.34 1.17-1.17 1.17-2.34 1.17 1.17 3.52 1.17 1.17 2.34 4.69v4.69l2.34 3.52 3.52 3.52v2.34l1.17 2.34v1.17l1.17 2.34 2.34 2.34 4.69 2.34 1.17 3.52-1.17 1.17 1.17 1.17h1.17v3.52l1.17 1.17 1.17 2.34h1.17l1.17-1.17v-1.17l1.17 1.17h2.34v-3.52h-3.52l-2.34-4.65v-2.34l-1.17-1.17-1.17-3.52 3.52-2.34 1.17-3.52h5.86l-2.34 2.34-1.17 4.69 2.34 3.52 2.34 3.52v2.34l1.17 2.34h2.34l1.17 3.52v2.34l1.17 1.17 1.17 1.17-1.17 2.34-2.34 2.34v3.52l-1.17 1.17-1.17 2.34v3.52l1.17 1.17-1.17 7v5.86l-1.17 1.17v1.17l-1.17 4.69v4.65l1.17 1.17 1.17 1.17v1.17l-1.17 1.17v7l-1.17 4.69-1.17 4.69-1.17 2.34-1.17 1.17v3.52l-2.34 1.17-2.34 1.17 2.34 1.17 2.34 3.52v7l-1.17 5.86 2.34 7 3.52 7 16.41 22.27 21.09 21.09 3.52 5.86 4.69 4.69 3.52 2.34 1.17-5.86v-5.86l1.17-1.17 1.14-3.34-1.17-10.55-2.34-2.34h-1.17v-2.34l-1.17-2.34h-1.15l-1.17-1.17 1.17-1.17 2.34 1.17 3.52-8.2 2.34-1.17h1.17v-1.19l-5.87-4.7-2.34-7v-5.86l3.52-5.86h1.17l1.17 1.17 2.34-4.69v-3.52l-3.52-2.34-3.52-2.34-3.52-8.2 1.17-8.2v-1.16l-1.17-1.17 1.17-2.34 1.17 1.17v3.52h2.34l1.17-3.52-5.86-4.69v-1.17l-1.17 1.17-1.17 1.17-3.52-3.52-2.34-3.52v-3.52l-1.17-3.52h-5.86l-1.17 1.17 1.17 1.17-2.34 1.17-2.34-1.17-3.52-10.55v-7l-1.17-1.17h1.17v-1.17h-1.17v-3.52l-1.17-1.17h-1.17l-1.17-5.86 2.34-4.69 1.17-1.17-1.17-1.17h3.52l2.34 1.17 1.17-3.52-2.34-1.17v-1.21l2.34-4.69 1.17-4.69 1.17 1.17 4.69 7v-8.2l1.17-5.86 3.52-7 4.69-2.34 5.86-2.34 4.69 2.34h3.52l-1.17-3.52-2.34-3.52 1.17-2.34 1.17-3.52v-5.86l1.17-1.17-1.17-2.34h-1.17l1.17-1.17h1.17l-1.17-1.17-1.17-1.17h1.17l1.17-3.52-1.17-1.17h-1.17l1.17-1.17 1.17-1.17v-3.52h-1.17v-2.34h1.17l1.17-2.34v-2.34l1.17-1.17-1.17-1.17v-1.17h-2.34l-2.34 1.17-2.34-2.34-1.17-1.17-11.72 14.06-2.34 1.17z" stroke-width="1.1"/><path data-name="vectormap1 MAG" d="M1034.63 241.58h-1.17l-2.34 1.17h-3.52l-1.17-4.69-2.34-1.17h-3.52v2.34l-2.34 1.17-1.17 3.52-1.17 2.34h-1.17l-2.34-1.17-1.17 1.17-1.17 1.17-3.52 1.17-4.69 1.17v2.34h-3.52v2.34l1.17 2.34-1.17 2.34-1.17 2.34v3.52l2.34 1.17-2.34 3.52v5.86l2.32 2.38 2.34 1.17-1.17 2.34v1.17h1.17v2.32h-2.34l-1.17 3.52-1.17 2.34-1.17 1.17-2.34 1.17v1.17l-1.15 2.37-3.52-1.17-4.69-2.34-1.17 2.34-2.34 2.34h-2.34l-2.34 1.17 2.34 3.52-1.17 3.52-1.17 1.17-1.17-1.17-1.17 1.17-1.17 1.17-2.34 1.17h-2.34l-1.17 3.52-1.24 4.69 1.17 10.55 2.34 2.34 3.52 2.34v1.17l-1.17 2.34 1.17 1.17v2.34l-1.17 2.34v4.69l5.86-1.17 4.69-1.17 7 4.69 3.52 7h-1.17v3.53l1.24 1.2-3.52 1.17v5.86h8.2l4.69 2.34 3.52 3.52v3.52l3.52-1.17h1.17l2.34-2.34 2.34-2.34h2.34l3.52-1.17-1.17-1.17h-1.17V367h1.17v-4.69l3.52-1.17 3.53-1.22h3.52v1.17h2.34v-2.34l3.52-2.34 2.34 1.17 2.34 1.17 2.34-1.17h1.17v1.17h-1.17l-2.4 2.37-2.34 1.17 1.17 3.52h1.17l2.34-1.17 2.34-3.52 1.17-1.17h2.34l2.34-1.17v-3.52l1.17-2.34 3.52-1.17h2.34l1.17-1.17v-2.34h3.52l-1.17-1.17h1.17l1.17-1.17-1.17-2.34-2.34-1.17-2.34 1.17-1.17 1.17v1.19l-1.17 1.17h-1.17v-4.69h-1.17l-1.17-1.17v-1.21l1.17-1.17h-1.17v-7l2.34-4.69 1.17-5.86-1.17-1.17v-4.69l1.17-2.34-1.17-2.34-1.17-2.34 2.34-4.69 1.17-3.52h2.34l1.17-1.17 4.69-7h3.52l2.34 1.17 1.17-3.52v-2.34l2.34 2.34 1.17 2.34v4.69l1.17 1.17 1.17 1.17v1.17l1.17 1.17 1.17-1.17 1.17-1.17 1.17 2.34 1.17 3.52 2.34-11.72 2.34-12.89h-1.17l-1.17-2.34-1.17-1.17v-3.58h-1.17l-1.17-1.17v-4.69l-4.69-2.34-3.52-2.34v-3.52l-1.17-2.34v-2.34l-3.52-3.52-2.34-3.52v-4.69l-2.34-4.69-2.34-1.17-2.34 1.17-2.34 3.52h-5.86l-4.69-1.17-3.52 2.34h-3.49l-2.34-1.17h-3.52z" stroke-width="1.1"/><path data-name="vectormap1 VOR" d="M120.3 347.05v-1.13l-2.84-1.21-3.28-1.17.23 1.17-.7 1.17v1.17h-1.76l-1.49-1.13-1.29 2.34-1.64 2.34-.23 2.32-1.84 1.17 1.52 1.17h1.64l-1.16 2.34h-1.64v3.52l.23 2.34-1.17 1.17h-1.22l-1.76 3.52-1.17 3.52h-.94l-.94 1.17 1.29 7 2.11 1.17.94 1.17 2.7 2.34 4.8 1.17 5-1.17.82-1.17h.95l2.58-1.17 2.46-2.34-.35-2.34.12-2.34h2.93l2.81 1.17 1.76-1.17h1.52l1.05 2.34 1.29 1.17 3 1.17 2.58 1.17 1.64-4.69-.23-3.52-1.52-1.17.23-1.17h-1.76l-1.11-2.31-1.29-2.34-2.46-1.17-2.11-1.17.35-1.17.59-2.34-1.17-1.17-.91-1.19-3.16-3.52-2.93-2.34.35-1.17-1.05-2.34h-1.41l-1.05-1.17h.12z" stroke-width="1.1"/><path data-name="vectormap1 SMO" d="M132.96 273.22l-4.5-1.17-6.16-1.13-4.57-5.86-4.92-5.86-1.64-2.34h-2.46l-1.52 1.17-2.58 2.34-3.52 3.52h-2.23l-.12 2.34.23 1.17h.35l.12 1.17h-1.05l-1.17 1.17-1.05 2.34-.47 3.52.46 2.32-.12 1.17-1.17 1.17-1.41 1.17.7 1.17 1.3 1.17.35 3.52-1.17 1.17.23 2.34-.47 1.17h2.58l1.17-1.17h4.1l4.1-1.17 2-1.17h1.88l.82-1.17 1.05-1.17 2.46 1.17 1.76 3.52h2l1.05-1.17 1.05 1.17 1.17 1.17 9-2.34 4.45-4.69 2-4.69-1.52-1.17-1.76-2.34-.47-1.17z" stroke-width="1.1"/><path data-name="vectormap1 lake-onega" d="M196.84 227.07l2.38-1.19 1.19-3.56-1.19-5.94 1.19-5.94v1.19h1.19l1.19-2.38 1.19-2.38v3.56h1.19l1.19-3.56 1.19-2.38v3.56l1.19-2.38 1.19-1.19-1.19 3.56-2.38 4.75h1.19l1.19-2.38v1.19l2.38 1.19 2.38-4.75v-1.12h-1.19v-1.19l-1.21 1.19 1.19-3.56 1.19-3.56 1.19 10.69-5.94 8.32-1.19 3.56-1.19 4.75v1.19l-3.56 1.19-4.75 1.19-1.19-1.19-1.19-2.38h1.19z" stroke-width="1.1"/><path data-name="vectormap1 lake-ladoga" d="M176.65 216.38l-1.19-1.19-2.38 2.38-3.56 1.19-2.38-3.56h-3.56l-2.38-1.19-1.19-1.19h1.19l1.19-2.38 1.19-2.38 2.38-5.94 3.56-4.75v-5.94l1.19 1.19h8.32l1.19-1.19 1.19 11.88-3.56 13.07h-1.19z" stroke-width="1.1"/><path data-name="vectormap1 lake-rybinsk" d="M187.34 273.4l-1.19 3.52-2.38 2.38v-3.56l-3.56 1.18-1.19-1.19 1.19-1.19h1.19l-1.19-7.13 1.19-7.13v7.13l1.19 1.19h2.38l1.19-1.19v-3.49l1.19-3.56 1.19 1.19-1.2 2.37v9.5z" stroke-width="1.1"/><path data-name="vectormap1 lake-baykal" d="M717.16 518.11l2.38-4.75 3.56-1.19-1.19 15.44-2.38 16.63-1.19 1.19-1.19 1.19v-3.56l-1.18-1.14-1.19 2.38-1.19 2.38h3.56v2.38l-1.19 2.38h-2.38l-2.36 3.48-3.56 4.75-14.26 5.94-1.19 3.56-1.19 3.56-8.32 4.75-4.75 1.19-1.18 1.25v-1.19l-8.31-2.41 3.56-1.19 5.94-2.38-1.19-1.19-2.38-1.19v-1.19l-1.19-1.19v-1.17l3.56 3.56 4.75 2.38 14.26-15.44 17.82-26.13z" stroke-width="1.1"/><path data-name="vectormap1 SVE" d="M359.61 337.68l-3.52-2.34-3.52-2.34v-3.52l-1.17-1.17v-1.17l-2.34 1.17v1.17l-3.52 4.69-2.34 4.69v2.34l-5.86 5.86-5.88 5.86-2.34 1.17-2.34 1.17-3.52 3.52 2.34 5.86-2.34 3.52v4.69l-3.52 3.52-5.86 1.17-1.17 3.52v2.34h-3.52l-2.34-2.34-2.34 2.34-2.33 3.52h-5.86l-2.34 1.17v1.17l-1.17 3.52-2.35 2.32v3.52h1.17l1.17 1.17 4.69 2.34 3.52 2.34h1.17l1.17-1.17h2.34v1.17l5.86 4.69 5.86 3.52 1.17-1.17h1.17l2.34 1.17 1.17 1.17v1.17l1.17 2.34 3.52-2.34 3.52-1.17 2.34 1.17 2.34 2.34h2.34l1.17 1.17 2.34 2.34 3.52-2.34h5.86l-1.15 2.39h2.34l1.17-1.17h-1.17v-1.17l1.17-5.86 2.34-4.69 2.38-1.21h3.52v1.17h4.69l2.34-1.17v-4.69l1.17-2.34v-3.52l-1.17-1.17v-10.54l-3.55-2.35-3.52-3.52 1.17-3.52 1.17-4.69v-2.34l-1.17-1.17v-5.85l1.17-4.69 2.34-4.69-2.34-3.52-1.16-2.3-3.52-8.2z" stroke-width=".93"/><path data-name="vectormap1 PER" d="M311.56 323.62l-2.34-2.34-2.35-2.36h-2.34l-2.34-1.17-1.17-1.17 1.17-2.34-2.35-2.32h-2.38l-7-2.34-2.34 5.86 1.17 3.52-2.34 1.17 4.69 5.86 4.69 2.34-3.52 4.69-5.86 3.52v3.52l2.34 2.34-1.17 1.17-1.17 3.52-2.34 1.17-1.15 2.31-3.52 10.55-4.69 10.55-1.17 1.17-1.17-1.17v1.17l-1.17 1.17h-1.17l-1.17 1.17v5.86l1.17-1.17h1.17l1.17 3.52 1.17 2.34 3.52 1.17h3.52v1.17l1.17 1.17 1.17 1.18h1.17l1.17 3.52v1.17h4.66l2.34-2.34 1.17-3.52v-1.17h2.34l5.86-1.17 2.34-3.52 2.34-2.34 2.34 2.34h3.52v-2.34l1.17-3.52 5.86-1.17 3.52-3.52v-4.69l2.34-3.52-2.34-5.86 3.52-3.52 2.34-1.17 2.34-1.16 5.86-5.86 5.86-5.86v-2.34l2.34-4.69 3.52-3.52-11.72-2.34-7-5.86h-3.52l-2.34 1.17h-1.17l-1.17-1.17-1.17 1.17h-2.34v-1.17h-4.69l-2.34 1.17z" stroke-width=".93"/><path data-name="vectormap1 CR" d="M4.09 385.2l3.08-4.47-2.39-6-2.32-1.26-.26-1.55 5.37.27 5.62 1.13 3.78 3.17-.68-4.57 3 3.45.36 1.55 3.51 3.18 1.69 4.34-1.39 3.48-.6 6.7 2.2.6 1.62-.23.49 2 2.15.47 2.86 3.79h-3.47l-1.25 2.15-4.89-4.06-1.11-2.79-2.69-.25-5.54-2.16-3.77-1.22-4.89.14z" stroke-width=".93"/><path data-name="vectormap1 SEV" d="M4.57 393.11l-3-2.06-1.06-4.23 3.55-1.62z" stroke-width=".93"/><path data-name="vectormap1 KDA" d="M71.55 410.34L66.28 408l-3.63-1.17.59-1.17 1.52-1.17-.47-1.17.23-1.17-1.29-1.23h-1.64v1.17l-.35 1.17h-.12l-1.05-1.17-.61-1.17-1.64-1.17h-1.5l-.7-1.17-.82-1.17v7l.35 5.86-.59-1.17h-.59l-.11-2.28v-1.17l-1.52 1.17-1.64 1.17v-1.17h.46l-.82-1.17-2.23 1.17-2.11 1.17h-2.54l-1.52 1.17h-1.91l-3.17-2.34-2-3.52-.35 2.34.23 1.17-2-1.17h-1.62l1.41 2.34 1.17 4.69-.82 2.34.23 2.34.82 1.17h1.41l.12 3.54-.12 2.34 2.46 7 .7 8.2.23 9.38h3.87l1.52 2.34.94 1.17h.82l3.75-2.34 4-1.17 1.83 2.37 1.88 2.34 4.22-2.34-.1-1.17h1.88l-.12-4.69h.59l.47 1.17 1.88-1.17 1.76-2.34-.94-1.17.7-2.34-1.05-3.52.94-3.52 1.52-2.34 1.76 1.17 2.11 1.17.59-1.17.59-2.34.58-1.17-.12-2.34h.7l.59-1.17h-2l-2.7-4.69.59-1.17.47-1.17-.47-1.17-.23-1.17h.82l1.09-1.19-.47-2.34-1.41-1.17zm-16.29 15.23l.59 3.52 3.28 3.52 1.17 5.86-1.41 1.17-.7 1.17-.59 1.17-.59 1.17h-1.86l.47-2.34.35-2.34-2.58 1.17-1.52 2.34-.94 1.17h-1.06l-1.52 2.34-2.34 2.34-2.34-2.34-1.41-3.52.47-1.17 1.17-1.17h.94l.47 1.17-.23 1.17h1.52l1.17-1.17-.31-1.16-.23-2.34 2.7-2.34h2.7l.35-3.52-.88-3.52h-1.29l-1.05 2.34h-.7l-1.88-2.34-2.11-2.34-.61-1.18-.35-1.17.94-1.17 1.17 1.17 1.88 2.34 4 1.17z" stroke-width=".93"/><path data-name="vectormap1 ORE" d="M245.93 426.74l1.17-3.52h-1.17l-1.17-1.17v-1.13l-1.17-1.17-1.13-1.21v-7l1.17-2.34v-1.17l-2.34-2.34v-2.34l1.17-1.17v-1.26h-1.17l-2.34-3.52-3.52 2.34-2.34 3.52-2.34 1.17-2.34 1.17-2.34 3.52-2.34 2.34h-2.34l-1.17 1.17-4.76 2.4-3.52 3.52-9.38 1.17v1.2l2.34 3.52v2.34l3.52 2.34h5.86v5.8l3.52 1.17 2.34 2.34 1.17 2.34v2.34l1.17 4.69 1.17 4.69-1.19 1.21v2.34l2.34-1.17 1.17-2.34 1.17 1.17h1.17v3.52l2.34 2.34 1.17 2.34h3.52l1.17-1.17 1.17-1.17 4.69 1.17 4.69 2.34 1.17 2.34v1.17h2.34l2.34-1.17 1.17 1.17 1.17 1.17h2.34l1.17 3.52-1.17 2.34 5.86 8.2h3.52l2.34-2.34 1.17 2.34v1.17l8.2 3.52 7-5.86-3.52-5.86-3.52-4.69h1.17v-1.17l-1.17-2.34v-2.34h-1.17l2.34-3.52 2.34-1.17-3.52-3.52-3.4-1.11-1.17 1.17h-1.17v-2.34l-1.17-1.17-1.18 2.34h-2.34l-3.52 4.69-4.69-1.17v-1.17l-2.34-1.17h-4.69l-1.17-1.18-1.17-2.34h-1.16l2.34-5.86-1.17-1.17-1.17-1.23 2.34-2.34 2.34-3.52-3.52-2.34-2.34 3.52h-1.17l-1.18-4.72-1.17-3.52 1.17 1.17h1.17v-2.34l-1.17-1.17v-2.34z" stroke-width=".93"/><path data-name="vectormap1 BA" d="M282.26 389.24l-1.17-1.17v-1.15h-3.52l-3.52-1.17-3.51 1.17-3.52 1.17h-4.69l-4.69 2.34-4.69 1.17-1.17-1.17v1.17l-1.17 1.17 1.17 1.17v2.34l-1.17 2.34-1.15 1.17h-2.34v1.13l-1.17 2.34-2.34 4.69-1.15 3.56v7l1.17 1.17 1.13 1.24v1.17l1.17 1.17h1.17l-1.17 3.52v2.34l1.17 2.34v1.17h-2.34l1.17 3.52 1.17 3.52h1.17l2.34-2.34 3.52 1.17-2.34 3.52-2.33 2.3 1.17 1.17 1.17 1.17-2.34 5.87h1.17l1.17 2.34 1.17 1.17h4.69l2.34 1.17 1.17 1.17 4.69 1.17 2.34-4.69h2.34l1.17-2.34v-1.17h1.17v-2.34l2.34-2.34 1.17-1.17 3.52-5.86 3.52-5.86h2.34l2.34-1.17h1.17l2.34 1.17v1.14l1.17-2.34 3.52-3.52 2.34-3.52-5.86-1.17-7 1.17-1.17-1.17v-1.17h-4.69v-1.17l-2.34-8.2v-1.17h1.17v-1.17l1.17-1.17 3.52-1.17 3.52 2.34-1.17 2.34v2.34l2.34-1.17 1.17 1.17v2.34h1.15l1.17-1.17 1.17-2.34 2.34 1.17h1.17l1.17-1.17h4.69l-1.17-1.17-1.17-1.17 2.34-4.69v-3.52H301l-3.54-2.32-4.69-2.34-1.17-1.17h-1.14v-3.52h-4.69v-1.18l-1.17-3.52h-1.14l-1.17-1.17z" stroke-width=".93"/><path data-name="vectormap1 TA" d="M241.24 356.43l-2.34 1.17-3.52-2.34h-4.69v1.17h-3.52l-2.34 1.17-1.17-1.17h-1.2l-2.34 1.17h-1.17v1.17l-5.83 1.15v1.17l1.17 1.17-1.17 3.52h-4.66l-1.17-1.17h-1.17l-1.17 1.17v2.34l4.69 1.17 1.17 2.34 2.34 2.34h5.86l1.17 2.34v3.52l2.34 3.52 2.34 3.52 2.34 2.34 2.34-1.17h2.34l2.34 2.34 1.17 2.34v2.34h1.17l2.34 2.34 2.34 3.52h1.22v1.17l-1.17 1.17v2.34l2.34 2.34 2.34-4.69 1.17-2.34v-1.17h2.32l1.17-1.17 1.17-2.34v-3.52l-1.17-1.17v1.17l1.17-1.17v-1.12l1.17 1.17 4.69-1.17 4.69-2.34-1.17-2.34-2.34-2.34h-1.17l-1.21-2.36h3.52l3.52-2.34-2.34-1.17-1.17 1.17v-4.69h1.17l-2.34-1.17-2.36 1.17 1.17 1.17v1.17l-2.34 1.17-1.17-1.17h-1.16v-1.17h-3.5l-2.34-2.34-1.17-1.17h-1.19l2.34-1.17 1.17-1.17h-1.17l-2.34-1.17-1.17-3.52h1.17v-1.17h-1.17v-2.35l1.17-3.52-3.52-1.17z" stroke-width=".93"/><path data-name="vectormap1 UD" d="M283.46 350.57l-2.34-1.17-1.17-1.17v-1.17l-1.2-1.14h-2.34l-2.34-1.17-2.34-2.34-4.7 3.51-2.34 5.86-2.35 1.14h-3.52l-2.36-1.18-2.34 3.52-1.16 4.66-1.17 1.17h-2.33l-1.17 4.69-1.17 3.52 1.17 1.17h-1.17l-2.34 1.17 1.17 1.17h1.17l2.34 2.34h3.52v1.17h1.17l1.17 1.17 2.34-1.17v-1.17l-1.2-1.14 2.34-1.17 2.34 1.17h-1.17v4.69l1.17-1.17 2.34 1.17-3.52 2.34h-3.5l1.17 2.34h1.17l2.34 2.34 1.17 2.34 2.34 1.17 2.34-1.17 3.52-1.17 3.52-1.17-1.17-2.34-1.17-3.52h-1.17l-1.17 1.17v-5.86l1.17-1.17h1.17l1.17-1.17v-1.17l1.17 1.17 1.17-1.17 4.69-10.55 3.57-10.54z" stroke-width=".93"/><path data-name="vectormap1 NEN" d="M360.78 182.99h-5.86l-4.69 4.69 1.17 4.69 5.86 1.17h1.2l1.17-1.17h1.17l1.17-1.17v1.17l-1.17 1.17h1.17l1.17-1.17v-4.69zm53.91 27l2.34 1.17v3.52l3.52 2.34 2.34-3.52-1.17-3.58-1.17-3.52v-2.34l-1.17-2.34h-2.34v2.34h-2.34v5.86zm-32.81-1.17l-3.52-1.17-4.69-1.17-5.86 1.17 1.17 1.17v2.34h-2.34l-1.18-1.24v-1.17l1.17-1.17-3.52-1.17h-4.65l-1.17-1.17-7 1.17-7-1.17-1.17-1.17v1.17h-1.26v3.52l-1.17-2.34-2.34-1.17-1.17-1.17-4.72 3.52-4.69 4.69-5.84-2.37-4.69-3.52 1.22-3.48 1.17-2.34-1.17-2.36-1.21-2.3 4.69-2.34 3.52-1.17 5.86 3.52 1.17-1.17 1.17-1.17v-1.17h1.17v-7l-3.52-4.69-4.69-3.52-1.16-3.6-1.17-1.17v9.38l-7 5.86-5.86 4.69v7l-4.73 3.55-2.34 2.34v3.52l4.69 7 3.52 7 1.17 2.34 1.17 1.17v1.17h2.34v-1.17l2.34-1.17h2.34l2.34 1.17 2.34 2.34h8.2l9.38 1.17 2.34-1.17 1.17-1.17 1.17 1.17v1.17l2.34-1.17h2.34l5.86 4.69 7 5.86 35.16 21.09 1.17 1.17 1.17 1.17 7-1.17 8.2-2.34v-1.17l1.17-2.34 1.17 1.17h1.17l2.34-1.17 2.34-1.17 2.34-1.17 2.34-1.17 1.17-1.17h2.34l2.34 1.17 2.34-3.52v-2.34l-1.17-1.17-2.34-3.52 1.17-1.17 1.17-1.17 2.46-2.27v-2.34l-3.52-5.86-4.69-4.69-5.86-4.69-1.17-1.17-1.17-1.17-1.17 1.17-1.17 1.17-1.17-1.17h-1.17l-1.17 1.17v7l-1.17 7-1.17-1.17h-1.17l-2.34 1.17-2.34-1.17h-1.17l-1.17 2.34-3.52 1.17-1.17-2.34 1.17-2.34 2.34-1.17h1.17v-2.31l-1.2-2.34h1.17l-8.2-1.17-7 1.17-2.34-3.52-7-2.34-4.69 1.17v1.17l-1.17 1.17-1.17-2.34h-2.34l-1.26 1.17h-1.17l1.17-1.17v-2.34l-2.34-1.17h-2.34l1.17-1.17v-1.17h2.34l2.34 1.17 1.17-2.34 1.17-2.34h1.17l1.22-1.21v-1.17h3.52z" stroke-width=".93"/><path data-name="vectormap1 ARK" d="M397.11 170.1v-2.34h-2.34v2.34l1.17 1.17-1.17 4.65 3.52-3.52v-1.17zm27-25.78l-3.52-1.17h-3.52v2.34h-1.21v2.34l-2.34-1.17H410V149l1.17 1.17H410v1.17l-1.17 1.17-3.52 2.34-2.34 2.34-1.17-1.17v-1.17l-1.17-1.17-2.34 1.17-2.34 2.34-1.17 3.52v3.52h2.34v1.17l1.17-1.17 1.17-1.17v1.17l-1.17 2.34 2.34 2.34 1.17-1.17-1.18 1.18-1.16 4.69 1.17 1.17 1.17 2.34h-2.34l-1.18-1.2v1.17l-1.17 1.17h-1.17v2.34l1.17 2.34h2.35l1.17 2.34v2.34h2.34v-1.17h1.17l1.17 2.34 1.17 2.34 1.17 1.17v-2.28l1.17-1.17v2.34l2.34 3.52v-2.34l1.17 1.17h2.34l-1.17-3.52-1.17-3.52v-5.86l1.17-5.86 1.17-4.69 2.34-4.69h1.17l1.17-2.34 1.17-2.34 1.17-2.34 1.17 1.17 2.34-1.17v-1.17l-1.17-1.17h1.17l2.34 1.17 1.17-1.17v-1.17h-1.17l-1.17-1.17 3.52 1.17v-2.35h2.34l-1.17-3.52-2.34-2.34v-1.17l-1.17-1.17h-3.49zm27-25.78l-2.44 2.38v1.17h1.17v1.17l1.17 1.17h-2.34l-2.34 1.17h1.13l1.17 1.17v1.15l1.17 1.17-2.34-1.17-3.52-1.17-1.13 1.17 1.17 2.34h-4.69l1.17 1.16v1.17h-1.17l-1.17-1.17v2.34l1.17 2.34-1.16-1.18-2.34-2.34-2.33 1.19v2.34-1.19l-2.34-1.17-2.37 1.17-1.17 1.17-1.17-1.17 2.34 3.52 4.69 1.17v1.17h-7l-2.34 1.17v1.17h3.52l2.34 2.34 1.17 2.34 1.17-1.17v3.52l2.34 1.17 1.17-1.17v1.17l1.17-1.17 2.34-1.17-1.17-2.34v-2.34l1.17 3.52h2.34l1.17-1.17-1.17-2.34-1.2-1.17v-1.17l2.34 1.17 1.17 2.34v1.17l1.17-2.34 1.17-2.34-1.17-1.17v-1.17h1.17v-1.17h1.15v5.86l1.17-1.17 1.17-1.17 2.34-1.17 2.34-3.52-1.17-1.17v-1.2h1.17v2.34l2.34 1.17 1.17-1.17 1.17-2.34 1.17 3.52 1.17-1.17v-2.35h1.17v2.34l2.34-1.17v-1.17l1.17 1.17 1.28-1.17v-1.17l-1.17-1.17h2.34l1.17-1.17-1.17 1.17 2.34-1.17 3.52-1.17v1.17l1.17-1.17h1.17l3.52-1.17h19.92l11.69-1.15 3.52-2.34 2.34-3.52 2.34-2.34-1.17-3.52-5.86-2.34-7 2.34v1.17l-1.17 1.17h-1.17v-1.17h-15.27l-3.52-3.52-2.34-1.17-1.2 2.34-3.52 1.17h1.17v-1.17h-2.34l-2.31 1.17-2.34-1.17h-3.52l-2.34 1.17h-2.34v1.17h-3.52v2.34l-1.18 1.22-1.17-1.17-1.17-1.17-1.17 1.17-1.18 1.17-2.34 1.17v-1.17l-1.17-2.34zm58.6-85.67v-2.95l-2.34-.59-1.17 2.46v3.52zm-12.99-10.43l-1.17 2.93 3.52.55 1.17-3.52h-3.52zm12.89.48l3.52 2 1.17-1.17-2.34-2.58-2.35 1.75zm-5.86 5.27v.93l2.34-1.52h-1.17zm-1.17-9.38v-.95l-1.17-.12v2.81zm1.17 1.29l-1.17.94v2.46l2.34-2.34v-.7zm7 .12l1.17-.94-3.46-3.88-1.17 2 1.17 2zm-24.61 5v.82l1.17.7 1.17-1.64v-1.84l-2.34-.12v2.11zm1.17-7l-2.34 1.52 1.17 1.41 1.17-1.29v-1.64zm-9.38-17v1.52l1.17.23v2.46l3.52-.12 2.34-.7 1.17-.23v.12l1.17.23 1.17 2.93 1.17-.94V4.15l-1.17-2.46h-2.34l-2.34.23-1.17-.12-1.16-.22-2.34-1.05-1.17.7zm18.75 5v-.7l-1.17.35-2.34.47-1.17.47v2.7l-4.69.12-3.52-.94v.82l1.17 1.05h-1.17l-1.17-.59v1.95h-1.16v-2l-2.34-.35-1.17 1.64v1.71l2.34-.12v1.52l-1.17.7-1.17.7 1.17.35 1.17-.12 1.17.97 1.2-1v.7l1.17.12 1.17-1.82-1.17-1.29v-.1l3.52.39 1.17 1.17 1.17-.82 2.34-.7 7-.35-1.17-2.46-2.31-.84v-.26l1.17-.82 1.17-.12 1.17-1.17v-.47h-2.34v-.82zm3.52-3.16l-1.17 1.05 1.17.35 2.34-.47V2.86l-1.17-.59zm42.26 12.46l2.34 2.11 1.17-1.88-2.34-2.23zm-9.38 18l2.34 2.23 4.69.23 3.52-3v-.23l1.17-4-2.34-1.16-1.17 1.76-1.21 1.57-1.17-.23-3.52.47-2.34 2.46zm-16.41 7.5l-1.21-1.36-2.34 2 2.34 1.75zm0-9.38l-5.86-.7v6.21h1.17v-.7l1.17.12 1.17-.47-1.17-.82v-.66l3.52.47 1.17-2zm4.69-1.17l-1.17 1.17v2.81l1.17.23v-.06l1.17-.12v1.17l1.17 1.64 3.52-1.17 3.52-2.7 1.17-1.76v-1.86l-1.17-.7h-2.38l-2.34-1.52-2.34-.59zm-2.34-6.33l1.14 1.78 2.34-.7-1.17-1.76zm-2.34 3l-1.22-.49-1.16 1.27 1.16.37zm0-10l-1.22-1.22-1.17-1.17-1.17-1.17v-1.22l-1.17.35-1.17.82 1.17 2.46 1.18 2.93 1.17 3.52 3.52 1.88zm2.34-.82l-1.17-1.41-1.17.12 1.17 2.46v2.7l1.17 2.11 1.17.23v-4.8zm3.44.37l1.17-1.41-2.34-.12-1.17 1.29zm8.2 10.08l2.34-2.23-2.34-1.05-3.52 1.88zm-1.17-13.59l-1.17.7v1.88l1.17-.7v-1.88zm4.69-8.67l-2.34-.47v-.36l-1.17.12v1.05l-1.17 1.17 2.34 1.05 3.52-1.52-1.17-1.05zm-9.38 3.75v3.4l3.52.59-1.17-4h-2.34zm-5.86 2.58V9.43l-1.17.47v2.81l2.39 1.21h3.52l1.17.23v-.23l-1.17-3.16-3.52 1.05zm-225 183.87h-1.17l-1.13 1.21h-3.52l-3.52 1.17-2.34-1.17-1.17-1.17-3.52 1.17h-4.69l-4.69 3.52-1.17 4.69-1.17 4.69h-1.17l-1.17 1.1 1.17-1.17-1.17-1.17-1.17-1.17v1.17h-1.17l-2.34-1.17-1.18-3.49-2.34-3.52-2.34-1.17-1.17 1.17v-1.18l1.17-1.17h2.34l-1.17-5.86-3.52-4.69-2.34 1.17-2.34 1.17-1.17 9.38h1.17l2.34 1.17-2.35 3.53-3.47 3.51-1.17-1.17h-1.17v1.17l-2.39-3.51-2.34-4.69-2.34 2.34-2.34 1.17-1.17-1.17-1.17-1.17-1.19 3.52-1.17 3.52-1.17 2.34-2.38 2.33 1.17 4.69 2.34 3.52-2.34 2.34-2.34 2.34v1.17l-1.17 3.52-2.34 3.52-1.17-1.17-1.15 1.17-1.17 1.17-1.17 3.54-1.17 3.52-1.17 2.34v4.69h1.17l1.17 1.17v2.28l2.34 1.17h1.17l1.17 2.34v1.17h1.17l1.17 1.17 1.17 1.17 1.17 1.17 1.17 1.17v2.34h3.52l2.34-1.17v1.17h1.17l1.17 1.17 1.17 1.17v1.17l1.17 2.34h1.17l2.34 1.17v2.34h3.52l2.34-1.17 2.34 3.52 3.52 5.86 2.34-1.17h4.7v4.69h2.34l1.17 4.69 5.86 1.17 1.17 2.34 2.34 2.34 2.34-1.17h2.34l7-2.34 1.17-2.34 1.27-3.48 5.86-4.69 4.69-4.69-1.17-2.34-1.2-2.28h-1.18l-1.17 1.17h-4.69l-1.14 2.31v1.17h-2.34l-1.17-1.17h-2.34l-1.17-1.17 1.17-4.69 3.52-4.69h2.33l3.52-1.17-1.17-2.34V258l2.34-3.52v-5.86l-2.37-4.7v-4.69l8.2 2.34 8.2 5.86v3.49l1.17 1.17 2.34-2.34 1.17 2.34 2.34-1.17h1.17v1.17l1.17 1.17 1.17-1.17h1.17l2.34 2.34 1.17 1.17 1.17-1.17 1.17-1.17v-1.17l-1.14-1.17 1.17-4.69 1.17-3.52-1.17-1.17h-2.3l1.17-3.52 3.52-4.69 3.52-4.69-2.34-2.34-2.34-1.17h-2.34l-2.34 1.17v1.17h-2.34v-1.17l-1.17-1.17-1.17-2.34-3.52-7-4.69-7v-3.52l-5.96 4.65 1.17-2.34-1.17-1.15-1.17-1.17-1.17 1.17 1.17-1.17 2.34-1.17-4.69-9.38z" stroke-width=".93"/><path data-name="vectormap1 SA" d="M718.21 195.92h-2.34v3.52h-1.17l1.17 2.34 3.52 2.34 2.34-1.17 1.17-2.34zm121.88-15.23l-2.34-3.52-3.52-1.25 2.34 2.34 3.52 2.34zm-11.72-27V149l-1.17-1.17-2.34 1.17 2.34 3.52v2.34zm29.3 11.72l1.17 4.69 1.17 1.17h2.34v-4.69zm19.92 14.06l2.34-4.69v-1.17l-1.17-1.17-5.86-3.52h-5.86l-2.34 3.52v4.69l-1.17 2.34-1.17 1.17-1.17 1.17h2.34l2.34-1.17 2.34-1.17h3.52l5.86-1.17v1.17zm-8.2-44.55l1.17-1.17-5.86-1.17-4.69-1.17-1.17 1.17-2.38 1.19-4.69-2.34-3.52-1.17v1.17l1.17 1.17h-1.17l-1.17 1.17v1.15l1.17 2.34v1.17l1.17 1.17-3.52-1.17-3.44-1.15-2.34-1.17h-1.17l-1.2-1.19v-1.17l-1.17 1.17-1.17 2.34-1.17 2.34-1.17 1.17-1.17 1.17 1.17 1.17v3.52l-1.17 2.34h1.17l1.17 1.17v2.34l1.17 2.34 2.34 2.34 3.52 1.17 1.19 2.39 1.17 1.17h5.83v-7l1.17 1.17 1.17 1.17 1.17-1.17 1.17-1.17 4.69-3.52h4.69l1.17-1.17 1.17-1.17 1.17-1.17-2.34-1.17h-2.33l-4.69-3.52-2.34-4.69 3.52-3.52v1.17l7 9.38 3.52-4.69-1.17-4.69zm28.13-7l-1.17 1.17-3.52-1.17-3.52 1.17v1.17l-1.17 1.17-2.34-1.17v-1.17h-3.52l-2.34 1.17v2.34l-1.17 1.17-2.31-2.35v-1.17l-1.17 2.34 1.17 4.69 4.69 1.17 5.86 1.17 7-2.34 4.69-4.69v-2.34zm77.35 42.19l-18.76 11.71-5.86 7-4.69 2.34-4.69-2.34-4.69-2.34h-5.86l-4.69-1.17v1.17l-1.17 1.19h-2.34l-1.17-1.17 1.17-2.34 2.34-1.17-2.34-2.34-3.52-2.34-4.69 1.17-3.52 1.17-4.69 9.38-4.69 8.2h-1.15v-2.31l-1.17-1.17 2.34-1.17 1.17-1.17-1.17-1.17v-2.34l2.34-1.17 1.17-2.34-2.34 1.17-5.86 3.52-1.17 1.17-1.17 1.17-1.17-2.34 3.52-3.52h1.17l3.52-2.34 3.52-1.17-12.89 1.17-12.89 4.69h-5.86l-2.34 1.17 1.17 1.17 2.34 1.17-1.19 3.5-3.52 1.17-2.33 5.83 1.17 1.17 2.34-1.17v2.34l1.17 1.17 1.17 2.34v2.34l2.34 1.17v2.34h-2.34v2.34l-1.17-1.17-1.17-1.17h-1.17l-1.17 1.17h-2.34v7l-4.69-2.34-8.2-1.17-3.53 4.72-4.69 3.52-4.69-1.17-3.52-2.34-1.17-2.34 2.34-1.17-2.34-1.17-1.17 10.55-1.17 12.89-1.16 1.15-1.17-1.17-1.17-1.17v1.17h-2.34l-1.17-1.17v-1.17h-3.52l-2.35-3.49-2.34-3.52h-1.17l-1.2-1.19 1.17-1.17 1.17-1.17-1.17-2.34-2.34-1.17 1.17 1.16v1.17l-1.17 1.17-2.34-2.34-1.17-2.34-5.86-3.52-2.34-1.17h3.52l2.34 2.34 2.34 2.34h3.52l2.34-2.34-1.18-3.51-2.34-2.34v-4.69l-1.15-2.37v-1.17l-2.34-2.34h-2.34l-7-5.86-2.34 1.17-2.39 1.2h-5.86l-3.52-2.34-4.72-1.19v1.17l-1.17 1.17-2.34 5.86 1.17 4.69v4.69l-2.34-1.17h-3.52v1.17h-2.34l-2.34 1.17-1.12 1.18-3.52-1.17-2.34-1.17h-7l-2.34-1.17v-2.34l2.34-2.34-1.23-1.21h-9.38l-2.34-1.17-1.19 1.17h-1.17l-2.34-1.17h-2.34l-1.15 1.17-1.17 1.17-2.34 1.17-3.49 1.2v3.52l-2.34-2.34 1.17-2.34-1.17-3.52-2.34-2.34v3.48l-1.17 1.17h-3.52l-3.52-2.34-1.22 1.17-1.17 3.52-2.34 2.34 1.17 1.17h1.17v3.52l1.17 1.17-1.17 4.69 1.17 4.69 1.17 1.17v3.52l1.17 1.17 2.34 1.17 2.34 2.34 1.17 4.69v4.69l2.34 4.69 1.17 3.52v1.17l-4.69 3.52-4.69 3.52-1.17 3.52v2.34l-1.17 1.17-2.34 1.17v4.69l-2.34 3.52h-2.34l-3.52-1.17-3.52 1.17-2.32 2.32h-2.34l-2.34-1.17v1.17h-1.17l-1.17 2.34v1.17l1.17 4.69 2.34 3.52v16.41l-1.18 12.87-3.52 2.34-2.34 2.34 1.17 1.17 1.17 1.17v8.2l1.17 2.34v5.86l1.17 2.34 2.34 2.34 2.34 2.34-1.17 2.34-1.13 1.22-2.34 3.52v3.52l-2.34 3.52 2.34 4.69h2.34l1.17 1.17 1.17 1.17 4.69 1.17h8.2l1.17 2.34 1.17 3.52-1.17 1.17-2.4 3.53 3.52 2.34 4.69 2.34 1.17 8.2v5.86l2.34 2.34 1.17 3.52-1.17 3.52-2.34 1.17 1.17 5.86 3.55 3.53-2.34 5.86-2.34 7v4.69l-1.17 1.17-1.17 5.86 1.17 4.69h2.34l5.86-1.17 1.17-2.34 3.52 1.17h1.17v-1.17h1.17l1.17 1.17 1.17-1.17h3.52l1.17-1.17 2.34-2.34v1.17l2.34 2.34 1.17 1.17-1.17 3.52 5.86-5.86 4.69-7h2.34l1.17-2.34 1.17-3.52 2.34-1.17h2.34l3.52-3.52h4.69l3.52 1.17 2.34 2.34 2.34 1.17v2.34l1.17 1.17v2.34H785l5.86 1.17 1.17 1.17v2.34l1.17 2.34v3.52l1.17 2.34 1.17 1.17v1.17l1.17 2.34v7l2.34 4.69 1.17-1.17h1.24l1.17 4.69 3.52 4.69 4.69-2.34 4.69-1.17 2.34 1.17 2.34 1.17 2.34 1.17h4.69l2.34 1.17 1.17 1.17h7l5.86 1.17 2.34 2.34 2.34 2.34 5.86 1.17 3.52-1.17h3.52l2.34 1.17h2.34l3.52-2.34 2.34-1.17h2.34l1.17 1.17 1.17-1.17v-2.34h4.69l1.17-1.17 2.34 1.17 3.52 1.17 1.17-1.17v-1.17l2.34-2.34 2.34-1.17v-1.17l1.17-1.17h3.52l2.34-2.34 1.17-5.86v-4.69l2.34-1.17 1.17-1.17v-2.29l-1.17-2.34-2.34-1.17-1.17-1.17h-2.34l1.19-2.32 2.34-1.17v-3.52l1.17-1.17 1.17-1.17-3.52-2.34-2.34-3.52h3.52l-1.17-4.69 1.17-3.52 1.17-7 1.17-2.34 2.34-2.34h2.34l5.86-2.34 5.86-2.34 1.17-1.17v-2.34l1.17-2.34h1.18l1.17 1.17h1.17l2.34-1.17 5.86-3.52 1.17-4.69v-1.17l1.19-1.31 2.34 2.34 1.17-1.17-1.17-3.52-1.17-2.34-2.34-4.69-1.17-5.86-2.34-3.52 1.17-4.69v-1.17l1.17-1.17v-1.17l1.17-1.17v-2.34l2.34-1.17 1.17-1.17v-7l1.17-7h4.69l5.86 2.34h2.34l1.17-1.17 1.17 1.17 1.17 1.17 2.34-3.52 2.34-2.34h2.34v1.16l1.17-1.17 1.17-1.17 1.17 1.17 2.34 2.34 1.17-3.52v-8.2l1.17-2.34v-2.34l-1.17-1.17 1.17-2.34v-1.17l-2.34-2.34-3.52-2.34-1.16-10.57 1.17-4.69 1.17-3.52h2.34l2.34-1.17 1.17-1.17 1.17-1.17 1.17 1.17 1.17-1.17 1.17-3.52-2.34-3.52 2.34-1.17h2.34l2.34-2.34 1.17-2.34 4.69 2.34 3.52 1.17 1.17-2.34v-1.17l2.34-1.17 1.17-1.17 1.17-2.34 2.34-3.52h1.17v-2.34h-1.17v-1.17l1.17-2.34-1.17-1.17-3.52-2.34v-5.86l2.34-3.52-2.34-1.17v-3.52l1.17-2.34 1.17-2.34-1.17-2.34v-2.34h3.52v-2.34l4.69-1.17 3.52-1.17 1.17-1.17 1.17-1.17 2.34 1.17h1.17l1.17-2.34 1.17-3.52 2.34-1.17v-2.36l-2.34-3.52-2.34-4.69 1.17-1.17v-1.17l-7-2.34-7-4.69V217l1.17-2.34-1.17-1.17-1.17-1.17 5.86-8.2 8.2-9.38 1.17-1.17 2.34-1.17-1.17-2.34-2.34-3.52v-2.34l-2.34-1.17h-1.17l-1.17-2.34-1.17-1.17h-1.17l-1.17-1.17-1.22-2.43-1.17 2.34v2.34h-1.17v-1.17h-1.17v5.86l-1.17-2.34-2.34-2.34-3.52 1.17h-4.69l-1.17-3.52-2.34-4.69-12.89-3.52zm-114.86 49.21l2.34 1.17 2.34-1.17v-1.17l-1.17-1.17-2.34 1.17z" stroke-width=".93"/><path data-name="vectormap1 IRK" d="M707.67 378.7h-3.52v4.69h-1.17l-2.34 1.17-1.18 1.17-1.17 1.19-1.17-1.17h-3.52v1.17l-2.34 5.86-1.17 5.86 1.17 2.28 1.17 3.52-1.17 1.17-1.17 2.34 1.17 1.17v2.34l-4.69 5.86-5.86 5.86h-2.34l-1.17 1.17v1.17l-1.17 5.86 2.34 9.38 3.52 1.17 2.34 2.34v4.69h-3.52v1.17l-1.17 1.17-1.17 1.17 2.34 2.34 2.34 3.52-1.17 3.59-2.34 2.34v1.17l-2.34 3.49h-1.17l-1.17-1.17-1.17-1.17h-2.34v-2.34h-1.19l-2.34-1.17v-3.52l-1.17-1.17-3.52 1.17-2.34 1.17-1.17 2.34v1.17l-9.38 5.86-4.69 9.38 1.17 1.17-1.17 1.17 1.17 1.17v2.34l-4.69-2.34-2.34-7v-2.36h-2.34l-1.17 1.17-1.17 4.69h-4.69l-2.34-1.17h-3.52l-3.52-1.17-3.48 5.86-2.34 5.86 1.17 1.17 2.34 2.34v5.86l1.17 1.17-1.17 1.17h-1.17l-3.55 2.35-4.69 4.69-1.17 3.52 1.17 2.34-1.17 1.17-1.17 1.17v2.34l-1.17 3.52v3.52h-1.17l-3.52 1.17-3.56 2.34v2.34l1.17 1.17 2.34 1.17 2.34 3.52 2.34 3.52h2.34l5.86 4.69 5.86 4.69h4.75l1.17 1.17v2.34l1.17 1.17 4.66-3.56 4.69-4.69 1.17 2.34 1.17 3.52 4.69 3.52 5.86 3.52 1.17 3.52 1.17 2.34h1.17l1.17-1.17 8.2 7v2.34l1.17 2.34 1.17 1.17 2.34 2.34v2.34l-1.14 2.43h2.34l1.17-1.17h4.69l3.52-3.52v-1.17l-8.2-2.34 3.52-1.17 5.86-2.34-1.16-1.15-2.34-1.17v-1.17l-1.17-1.17v-1.17l3.52 3.52 4.69 2.34 14.06-15.23 17.58-25.78-1.17-9.38 1.17-9.38 1.17-2.34h2.34l-1.17-2.34-2.34-1.17v-1.17l-1.17-1.17h-1.17l-1.17-5.86 2.34-2.34 3.52-2.34 1.17 1.17h1.17l1.17-2.34 2.34-2.34 1.17 1.17v1.17h1.17l1.17 1.17h5.86l3.52-2.34 1.17-2.34 1.17 1.17 1.17 1.17H744l2.34-1.17v2.34l2.34 2.34h2.34l2.34-1.17 4.69 1.17 5.86-2.34 5.86-7 4.69 1.17v1.17h-1.17l1.17 1.17h3.52l2.34 1.17 1.17-1.17 2.34-2.34 1.17 1.17h1.17v-7h-2.34l-1.17-8.2v-1.17h1.17v-3.52H785l1.17-1.17-2.34-2.34 2.34-2.34 3.52 1.17 2.34 1.17 4.69-1.17-1.17-2.34v-1.17l-1.17-1.17-1.17-2.34v-3.52l-1.17-2.34v-2.34l-1.17-2.34h-11.72v-2.34l-1.17-1.17v-2.34l-2.34-1.17-2.34-2.34-3.52-1.36h-4.69l-3.52 2.34-2.34 1.17-2.34 1.17-1.17 3.52-1.17 2.34h-2.34l-4.69 7-5.86 5.86 1.17-3.52-2.37-1.1-1.17-2.34v-1.17l-2.34 2.34-2.34 1.17h-5.85v1.22h-1.17l-3.52-1.17-1.17 2.34-5.86 1.17h-2.34l-1.17-4.69v-5.86l1.17-1.17 1.17-1.17v-3.52l2.34-7 2.35-5.93-3.52-3.52-1.17-5.86 2.34-2.34 1.17-2.34-2.34-3.52-2.34-2.34v-5.86l-1.17-8.2-3.52-3.52-4.69-1.17 3.52-3.52 1.17-1.17-1.17-3.52-1.17-2.34z" stroke-width=".93"/><path data-name="vectormap1 KYA" d="M538.91 207.6l1.17 2.34h3.52v-7l-4.69 4.69zm28.13-39.84h1.17v1.16l1.17 1.17 1.17-4.69-1.17-1.17v1.17zm7-88.24v-1.07l-1.17-.82-3.52-1.52 2.34 1.88v1.63zm19.92-26.84l-3.5-.95-2.34 1.05 1.18 1.14h1.16l2.34.7zm119.57 103.35l1.17 1.17v1.17l2.34 1.17-1.17-3.52-1.17-1.17-1.17 1.17zm-76.17-9.38h3.52l2.34-3.52h-2.34l-1.17 1.17-1.17 1.17-1.17 1.17zm-1.18-58.73l1.17-3.4-2.34-2.34-3.55-1.15-1.17-.59-2.34 1.41v3l2.34.94 1.17.94v2.34zm25.78 1.76l-3.5-6.19-3.52 2.58-2.35 3.85-1.13 1.42-1.17.7 1.17-1.52 1.17-1.29v-.59l-1.17.59-2.34.94-1.17-.23 4.69-2.7 1.17-4.45-3.52-1.29-4.69.47-1.17.23v.59h-1.17l-1.17.47-2.34 2.11 1.17 1.41v1.41l-1.17.23-1.17.12-1.23 1.38-1.17 1.76-1.17.47v1.77l1.17.35v-1.88l1.17-.35v2.93l1.17-.12 1.17.47-1.17 2.23v2.37l1.17.7v2.58l1.17 1.29h1.17l1.17-1.17v2.34h3.52l2.34 2.34 2.34 2.34 4.69 1.17 4.69-3.52-1.17-2.34v-2.34l-1.15-2.24v-.15l1.17-.12 1.17-5.51 1.17-5.63zm25.78 32.34h-1.17v1.17l-1.17 1.17h1.17zm1.17 4.69h2.34l1.17-1.17-1.17-1.17h-2.34l-1.17 1.17v1.17h1.17zm-19.92-24v-2.79l-1.17.47-1.17 1.17-1.19 2.91v2.34l1.17 1.17h-1.17l-1.17 1.17v3.52h-1.17v-1.17l-1.17 2.34-1.17 2.34v3.52l-2.32 3.52-1.17 3.52 2.34 2.34 3.52-2.34 2.34-2.34h4.69l7-2.34 3.52-1.17 1.17-3.52v-3.52l-1.17-2.34h-1.17v1.17h-1.17v-3.51l-1.17-1.17-1.17-1.17v-2.34l-2.34 2.34-2.34 3.52v1.17h-1.18v-1.17l3.52-9.73-2.34-1.29-1.17-.12v2.11zm49.22 61.53v1.17l-1.17-2.34v-2.35l-1.17-1.17h-2.34l-2.34-3.52-2.34-3.52-1.17 1.17-1.22-1.16h-1.17v1.17h-5.83l-2.34 1.17-1.17-1.17h-1.17l-1.17 1.17-2.34 4.69h-3.52l2.34-5.86V149h-7l1.17-1.17v-1.17l-3.52 1.17-2.34-1.17 2.34-1.17 2.34-2.34 1.17-1.17h1.17l1.17-1.17-2.34-2.34-3.52-1.17-1.17-1.17v-1.21h-2.34l-2.34 1.17h-1.17l-7 8.2-4.69 8.2 1.17 1.17v3.52l-7 2.34-1.17-1.17h-2.34v1.17l2.34 3.52 1.17 2.34h-2.43l-1.17-2.34-2.34 1.17h-1.17v1.17l-1.17 1.17h-1.17v1.17h-3.52l-1.18 1.2h-1.17v-1.17l-1.17-1.17-2.34 1.17-1.18 1.17 1.17-2.34 1.17-1.17-7-2.34-7 1.17-1.17 1.17 2.34 1.17h2.34v1.17l-2.4 1.17h-2.34l-4.69 1.17-3.52 1.17h-7l-2.34 1.17-4.69 2.34-2.34 2.34h-7l1.17 1.17 2.34 1.17-1.17 1.17-2.34 1.17-1.25 2.37v2.34l-2.34-2.34-3.52-1.17v1.17l3.52 3.52 2.34 2.34-1.17 1.17-1.17-1.17-1.17-1.17-1.17 1.17h-2.32l2.34 2.34 3.52 3.52-1.17 1.17v7h-1.19l-2.34 1.17h-1.16l1.17-1.17 1.17-1.17 1.17-1.17v-1.17l-4.69-1.17-3.52 1.17h-5.86l-7-1.17-7-1.17h-3.52l-2.34-1.17v1.17l-1.17 2.34-1.17 1.17 1.17 1.17v1.17h-1.17v2.34l1.17 1.17-1.17 3.52-1.24 2.38v2.34l-1.17 1.17 3.52 3.52 3.52 2.34v7l3.52 2.34 1.17 4.69-2.34 3.52-2.36 3.54 1.17 2.34-1.17 10.55-2.34 1.17-2.34 1.17 3.52 8.2 1.17 4.69h-1.17v-1.12l-2.34-1.17-1.17-1.17v-4.69l-1.19-2.39-1.17-1.17 4.69-11.72-1.17-2.34-2.35-1.17 1.17-1.17v-2.34l3.52-2.34 3.52-4.69-3.52-2.34-5.86-1.17-1.17-3.52-1.17-3.52-3.49-4.69-3.52-3.52h-3.52l1.17 2.34 1.17 2.34 2.34 2.34 2.34 2.34v3.52l-2.34 2.34-1.17 1.17v-1.17h-2.34v4.69l2.34 2.34 2.34 2.34v5.86l-1.17 5.86h-2.34l-2.36-1.19-2.34 2.34-4.69 3.52h-1.17v1.17l-2.34 1.17v3.52l1.17 2.34 1.17 3.52 3.52 2.34 2.34 2.34v1.17h1.17l2.34-1.17 2.34-2.34 1.17 1.17v1.17l1.17 1.17 1.17 1.17-1.17 7-1.17 7-2.34 5.86-4.69 2.34v4.68l1.17 2.34v-1.17 1.17l-2.34 2.34v1.17l1.17 2.34 1.17 2.34 1.17 5.86-1.17 4.69v8.2l1.17 3.52 3.52 1.17v8.2l-1.17 2.34h-1.17l1.17 3.52h2.34l1.17 2.34 2.34 1.17 2.34-1.17 1.17 3.52-1.17 7-4.69 7h-2.34l-1.17 1.17v2.34l1.17 1.17 2.34 1.17-1.17 2.34-1.17 1.17v1.17l-1.17 2.34-3.52 4.69-5.86 4.69 1.17 8.2 4.69 2.34 2.34 2.34-8.2 4.69-9.38 2.34v15.47l5.86 2.34 3.52-1.17 4.69 1.17 3.52 1.17 2.34 1.17v1.17l1.17 1.17h1.17l2.34 2.34v3.52l1.17 2.34 3.52 1.17 2.34 3.52-2.34 1.17-2.34 2.34-2.34 3.52v3.52l4.69 4.69 3.52 5.86-1.17 1.17h-1.17v2.34l-1.17 1.17h-2.34l-2.34 4.69-1.15 2.35v2.34l1.17 1.17h-1.17l-1.17 2.34 1.17 1.17 1.17 1.17 1.17 10.55v1.17l-3.52 1.17-3.52 3.52 3.52 3.52 3.52 3.52h3.52l2.34-1.17 2.34 2.34 3.52 1.17 1.17 7 2.34 7-2.34 5.86 1.17 1.17v1.26l1.17 1.17 1.17 1.17v1.17l-2.34 2.34-2.4 1.15v1.17l-2.34 4.69h-2.34l-1.15 1.14-2.34 2.34-1.17 3.52 2.34 1.17 1.17 2.34 7 2.34 8.2 1.17 8.2-4.69 5.86-8.2 2.34-1.17 2.34-1.17 1.17-3.52 1.17-2.34h3.55l1.17-1.17h1.17v1.17h2.34l1.17-1.17 3.52 1.17 5.86-2.34-2.32-3.45-2.34-3.52-2.34-1.17-1.23-1.19v-2.34l3.52-2.34 3.52-1.17h1.17l1.17-3.52v-5.86l1.17-1.17 1.17-1.17v-5.86l4.69-4.69 3.52-2.34h1.17l1.17-1.17-1.17-1.17v-5.86l-1.1-2.35-2.34-1.17 2.34-5.86 3.52-5.86 3.52 1.17h3.52l2.34 1.17h4.69l1.17-4.69 1.17-1.17h2.34v1.17l2.34 8.2 4.69 2.34v-5.86h-1.17l4.69-9.38 9.38-5.86v-1.17l1.17-2.34 3.52-2.34h2.34l1.17 1.17v3.52l2.34 1.17h2.26l-1.17 1.17v1.17h2.34l1.17 1.17 1.17 1.17h1.17l2.34-3.52v-1.17l2.34-2.34 1.17-3.52-2.34-3.52-2.34-2.34 1.17-1.17 1.17-1.17V449h3.52v-4.68l-2.34-2.34-3.52-1.17-2.34-9.38 1.17-5.86v-1.17l2.34-1.17 1.17-1.17 5.86-4.69 4.69-5.86v-2.34l-1.17-1.17 1.17-2.34 1.17-1.17-1.11-3.57-1.17-3.52 1.17-4.69 3.52-5.86-1.17-1.17 2.34-1.17 1.17 1.17 1.17 1.17 1.17-1.17 1.17-1.17 2.34-1.17h1.17v-4.69h-4.68l-4.69-1.17-1.17-1.17-1.14-1.13h-2.34l-2.34-4.69 2.34-3.52v-3.52l2.34-3.53 1.17-1.17 1.17-2.34-2.34-2.32-2.34-2.34-1.17-2.34v-5.86l-1.17-2.34v-8.2l-1.17-1.17-1.17-1.17 2.34-2.34 3.48-2.41 1.2-12.85v-16.41l-2.34-3.52-1.17-4.69v-1.17l1.17-2.34h1.17v-1.17l2.34 1.17h2.34l2.34-2.34 3.52-1.17 3.52 1.17h2.34l2.34-3.52v-4.69l2.34-1.17 1.17-1.17v-2.34l1.17-3.52 4.69-3.52 4.69-3.52v-1.17l-1.17-3.52-2.34-4.69v-4.69l-1.17-4.69-2.34-2.34-2.37-1.13-1.17-1.17v-3.52l-1.17-1.17-1.17-4.69 1.17-4.69-1.17-1.17v-3.52h-1.17l-1.17-1.17 2.34-2.34 1.17-3.52 1.17-1.17v-2.34l1.17-1.17-2.34 1.17-1.17 1.17-2.34-1.17-3.52 2.34v3.52h2.34l3.52-1.17v1.17l-1.17 1.17h-1.17l-2.39 3.49-2.34 1.17-1.17-1.17-1.17 2.34-2.32 1.18v3.52l-2.34-1.17-1.17-1.17v1.17h-8.2l-1.17 3.52-3.52 3.52h-1.17l1.17-2.34 2.34-2.34v-2.34l1.17-2.34 3.52-1.17 1.17-3.52-1.17-1.17-2.34-1.17h-1.17l7 1.17 4.69-4.69h1.19l1.17-2.34 1.17-2.34 2.34-2.34 2.34-2.34 1.17-3.52 7-4.69v-1.17l1.17-1.17 2.34-3.52 3.52-3.52 1.17-5.86-2.29-1.24-1.17-2.34v1.17l-1.18 1.17v-3.52h1.17l2.34 1.17v2.35l1.17-2.34v-5.86h-2.33v-3.52l-2.35-2.28v2.34zm-85.55-89.19l-1.17.23-1.17.7 1.14.48 1.17.35 1.17 1.05 1.17 1.17-1.17.12-1.17-.12v.82l1.17.23 1.17.12 1.17 1.29 1.17.7 2.34-.82 1.17-1.05 9.38-1.17 1.17-.59v-6.32l2.34-1.41 1.17-1.41v-1.28l-1.17-1.29v-.23l-1.17-.59-2.34-5.51-1.17-4.34-2.34-.12v1.64l-5.86 3.28-4.69 3.75v2l1.17.47v1.05l-1.17 1.17v1.3l-1.17 1.29-1.17.59-1.17.59v.93l1.21.8v.35h-1.18v-.22zm-2.34-19.69l-1.17 1.56v1h1.17l2.34 1.05 2.34-2.93zm9.37 106.56l-2.34-1.17 1.17 2.34 2.34 1.17v-2.34h-1.17z" stroke-width=".93"/><path data-name="vectormap1 TOM" d="M502.58 412.68l-2.34-1.17h-3.52l-1.17-2.34-1.17-2.34-4.69 1.17H485l-2.34-2.34v-2.34h-2.34l-2.34 1.17-1.17-1.17-1.17-1.17-4.7-1.23-4.69-1.17-1.17-1.17v3.52l-1.17 2.34h-1.17l-1.17 1.17-1.17 4.69-3.52 5.86h-7l-4.72 4.76-4.7 4.65v3.52h-1.17v3.52h-1.17v1.17l1.17 1.17v4.69l1.17 2.34v2.34l-1.17 1.17 1.17 2.34 1.17 1.17 2.34 2.34 2.34 1.17 14.06 4.69-1.17 1.17 8.2 4.69 5.86 9.38 8.2 1.17 1.17 4.69h7l1.17 1.17v-1.17l1.17-1.17h3.52l1.17 2.34-1.17 1.17v4.69l-1.17 1.17-1.17 1.17h1.17v1.17l1.17 1.17 2.34-1.17 1.17-3.52 1.17 1.17h8.29l2.34-1.17 1.17 1.17h1.17l1.17-1.17 2.34-2.34h1.17l1.17 1.17 1.17-1.17h8.2l1.17-1.17 2.34 1.17 2.34 1.17 3.52-2.34h4.73l1.17-3.52 2.34-4.69h2.34l1.17-1.17v-2.34h1.17v-1.17l-2.34-5.86-4.69-4.69v-3.45l1.17-3.52 3.52-2.34 2.34-1.17-2.34-3.52-3.52-1.17-1.17-2.34v-3.52l-2.37-2.42h-1.17l-1.17-1.17v-1.17l-2.34-1.17-4.69-1.17-3.52-1.17-4.69 1.17-4.68-2.32v-15.24l-3.53-1.17-3.52-2.34-2.34 1.17-3.52 2.34h-1.17l-1.17 1.17-2.34-1.17h1.17z" stroke-width=".93"/><path data-name="vectormap1 KHM" d="M454.53 351.74l-2.34-2.34h-5.86l-5.87-1.17v-8.2l-2.34-1.17-1.17-3.52v-3.52l1.17-1.17 1.17-2.34-2.34-2.39h-1.17l-1.17-1.17v-1.13h-2.34l-1.17 1.17h-7l-2.38 1.13-3.52-3.52-2.34-3.48 2.34-1.17 1.17-1.17-2.34-1.17-1.17-1.17-3.52-2.32-3.52-1.17h-1.16l-1.2 1.17-1.17-1.17v-1.17h-2.34l-2.34 1.17-1.15-1.2h-3.52l-1.17-2.34 1.17-2.34-3.48-1.18-1.17-2.34 1.17-2.34h2.34l1.17-3.52 2.34-3.52v-1.17l-1.17-1.17v-3.51l-1.17-3.52-2.34 1.17-3.55 1.15v2.34h-2.34l-2.34 1.17-2.34 1.17-1.17-2.34v-1.14h-2.34l-2.34 1.17h-1.17l-1.17 1.17-2.41 1.17-1.17 1.17-1.17 7-4.66 4.72-4.69 4.69-2.31 4.71-2.34 5.86v1.14h1.17l-1.17 2.34h-2.34l-1.17 3.52-1.17 2.34v1.17l1.17 1.17v3.52l3.52 2.34 3.52 2.34 3.52 8.2 1.17 2.34 2.34 3.52-2.34 4.69-1.17 4.69-1.17 2.34v3.52l2.34 1.17v2.34l-1.17 4.69-1.17 4.69 3.52 2.34 3.52 2.34v12.89l1.17 1.17 3.52 1.17h3.52l1.17-2.34 2.34-1.17h1.17v1.17h7l2.34 1.17h1.19l1.17-1.17 1.17-1.17 4.69-1.17 2.34-3.52 1.17-1.17h2.34l1.17 2.34v1.19h4.69l3.52 1.17 1.17 1.17 1.17 1.17h1.17l2.34 3.52 1.17 4.69h1.17l1.17 1.17-1.17 1.17v1.17l2.34 2.34h1.17v3.52l-1.17 2.34 3.52 2.34 3.52 1.17 1.17 1.17 1.17 1.17h3.52l2.34 2.34 4.67-4.62 4.69-4.69h7l3.52-5.86 1.17-4.69 1.17-1.17h1.17l1.17-2.34-1.17-2.34v-1.21h1.17l1.17 1.17 4.69 1.17 4.69 1.17 1.17 1.17 1.17 1.17 2.34-1.17h2.34v2.34l2.34 2.34h4.69l4.69-1.17v2.34l1.17 2.34h4.69l1.17 1.17 2.34 1.17 1.17-1.17h1.17l3.52-2.34 2.34-1.17 3.52 2.34 2.34 1.17 10.55-2.34 7-4.69-1.17-2.34-4.62-2.37-1.17-8.2-2.34-4.69-2.34-2.34h-4.69l-2.34-3.52-2.34-3.52h-4.69l-3.52-3.52v-1.17l-1.17-2.34-5.86 2.34-5.86 2.34-2.34-1.17-2.34-1.17h-8.2l-2.34-2.34-1.17-4.69-5.86-3.52-4.71-3.49-5.86-1.17-2.34-1.17-2.34-2.34-2.34-3.52h1.17z" stroke-width=".93"/><path data-name="vectormap1 YAN" d="M504.92 182.99v-1.17h-2.34l-5.86 2.34v3.52l4.69 1.17 3.52-1.17v-4.69zm15.23 29.3v-4.69l1.17-3.52v-2.34l-1.17-1.17-1.17 3.52-1.16 5.83-3.52 3.52-5.84 1.19-1.17 1.17h-1.17l-1.17 2.34-1.17 1.17-1.17 1.17-1.17 1.17v1.17l1.17 1.17v1.17l-1.17 2.34 1.17 4.69v4.73l-3.52 3.52-2.34 2.34-1.17 3.52-1.17 2.34-1.2 2.28v4.69l-1.17 2.34-1.17 3.52h3.52l1.17 1.17 1.17 1.17 2.34-1.17h2.34l7 4.69 3.52 7v1.17l-1.17 1.17 1.17 3.52v3.52h-2.34l-3.52 2.34-1.17 3.52 4.69 4.69 3.52 2.34h-2.34l-2.31-1.11-2.34 1.17h-1.17v-3.52l-1.17-2.34v-1.17l1.17-2.34v-2.37l1.17-1.17 1.17-1.17h-1.17v-1.17l1.17-1.17v-4.69l-1.17-2.34v-4.69h-12.91l-2.34 3.52-1.17 2.34v3.54l-2.34 8.2-2.34 2.34-3.56 1.17-1.17 3.52-2.34 2.34-3.49 1.17-3.52 2.34-2.34-1.17-1.14 1.18-2.34 3.52h-3.56v-1.17l-1.17-1.17-4.69-1.17-3.52-2.34-2.34-1.17-1.17-2.34-1.21-3.54v-3.51l4.69 2.34 5.86 2.34-1.17 1.17h-2.34v1.17l3.52 2.34h4.69v-2.34l1.17-2.34h1.17l2.34-1.17 1.17-1.17h1.17v-2.34l4.69-2.34 4.69-2.34 1.17-3.52v-2.34l3.52-2.34 2.34-3.52-2.34-4.69-1.17-7 3.52-5.86 2.34-5.86 2.34-7 1.17-1.17 1.17-1.17 3.52-7-1.17-5.86v-5.86l4.69-4.69 7-11.72v-3.62l-2.34-3.52-5.86-2.34-2.34-1.17-2.34-1.17h-1.17l1.17-1.17h-1.17v-1.17l-5.86 7-5.84 8.24-9.38 7-7 3.52h1.17l-1.17 2.34h-1.17l-1.17 2.34h2.34l1.17 1.17-2.34 3.52-2.34 4.69v2.34l-1.17 2.34-1.17-1.17h-1.17l-2.34 2.34-1.19 3.57v1.17l1.17-1.17h1.17l1.17 2.34 1.17 2.34h1.17v2.32l-1.17 1.17v5.83l2.34 2.34v1.17l-7 8.2h-2.34l1.17-1.17v-1.17l-1.17-1.17-1.17-1.17-1.17-8.2-2.41-3.48-3.52-4.69h1.17l2.35 2.34v1.17l-2.34-4.69-4.66-3.48-2.34 1.17-1.17 2.34h-1.17l2.34 3.52 1.17 2.34v2.34l-2.34 2.29-2.34 2.34-1.15 4.73 2.34 3.52 1.17 3.52-4.69 2.34-5.87 3.55-1.17 1.17-1.17 2.34h-4.69l-4.69 1.17h-3.52l-2.34 2.32v1.17l-3.52 1.17-3.52 2.34v1.17l-2.33-1.17h-3.52l1.17 3.52v2.34l1.17 2.34v1.17l-2.34 2.34-1.17 4.69h-2.31l-1.17 2.34 1.17 2.34 3.52 1.17-1.17 2.34 1.17 2.34h3.48l1.17 1.17 2.34-1.17h2.34v1.17l1.15 1.22 1.17-1.17h1.17l3.52 1.17 3.52 2.34 1.17 1.17 2.34 1.17-1.17 1.17-2.32 1.15 2.34 3.52 3.52 3.52 2.34-1.17 2.34-1.17 3.52 1.17h1.17l1.17-1.17h2.34v1.17l1.17 1.17h1.17l2.34 2.34-1.17 1.17-1.17 2.34v3.52l1.17 2.34 2.35 2.35v8.2l5.86 1.17 5.86-1.17 2.34 3.52 1.17 3.52 2.34 2.34 2.34 1.17 5.86 1.17 4.69 3.52 5.86 3.52 1.17 3.52 2.34 3.52h8.2l2.34 1.17 2.34 1.17 7-2.34 4.69-2.34h1.17v3.52l3.52 3.52h4.69l2.34 3.52 2.34 3.52h4.69l2.34 2.34 2.34 3.52 5.86-3.52 3.52-4.69 1.17-2.34v-1.17l1.17-1.17 1.17-2.34-2.34-1.17-1.17-1.17v-2.34l1.17-1.17h2.34l4.69-7 1.17-7-1.1-3.62-2.34 1.17-2.35-1.17-1.17-2.34h-2.34l-1.17-3.52h1.17l1.17-2.34v-8.2l-3.52-1.17-1.17-3.52v-8.2l1.17-4.69-1.17-5.86-1.17-3.52-1.17-1.17v-1.17l2.34-2.34v-1.17l-1.17-1.17v-4.69l4.69-2.34 2.34-5.86 1.17-8.2 1.17-5.86-1.17-1.17-1.17-1.17v-1.17l-1.17-1.16-2.34 2.34h-3.52l-2.34-2.34-3.52-2.34-1.17-3.52-1.17-2.34v-3.52l2.34-1.17v-1.21l1.17-1.17 4.69-2.34 2.34-2.34 2.34 1.17h2.34l1.17-5.86v-7l-2.34-1.17-2.34-2.34v-4.69h3.52l2.34-2.34v-3.52l-2.34-2.34-2.34-2.34-1.17-2.34-1.17-2.34h-3.52l-3.52 2.34h2.34l1.17 2.34v2.34l-4.69-1.17-1.17-3.52-4.69 1.17-1.17 4.69 1.17 4.69 2.34 3.52H526l2.34 2.34-1.17 5.86-1.17-2.34-1.17-2.34-7-3.52-5.86-4.69 1.17-1.17 2.34-4.69-1.17-2.34 3.52-3.52 2.34-3.52zm12.89 2.34l1.17-1.17v-2.34l-1.16-1.2-5.86 2.34 4.69 2.34h1.17zm-11.72-17.58l-4.68-1.13 1.17 3.52h1.17l1.17-2.34h1.17zm5.86-5.86l1.17 1.17 1.17-1.17-2.34-1.17-1.17 1.17h1.17z" stroke-width=".93"/><path data-name="vectormap1 KO" d="M365.46 239.24l-7-5.86-5.86-4.69h-4.69l-1.17-1.17-1.17 1.17-2.34 1.17-9.38-1.17h-8.2l-3.52 4.69-3.52 4.69-1.15 3.51h2.34l1.17 1.17-1.17 3.52-1.17 3.52 1.17 2.34v1.17l-1.17 1.17-1.17 1.18-1.17-1.17-2.34-2.34h-1.17l-1.17 1.17-1.17-1.17v-1.22h-3.52l-1.17-1.17-2.39 1.17-1.17-1.17v-2.34l-8.2-5.86-8.2-3.52v5.89l2.34 4.69v5.86l-2.34 3.52v2.34l1.17 2.34-3.5 1.18h-2.34l-3.52 4.69-1.17 4.69 1.17 1.17h1.17l1.17-1.17 1.17 1.17 2.34 1.17v-1.17l1.17-2.34 3.52-1.17 1.17 1.17 1.15-1.14h1.17l1.17 2.34 1.17 2.34-4.69 4.69-5.82 4.63-1.17 3.52-1.17 2.34-7 2.34h-2.34l-2.34 1.17-3.52 5.86v3.52l-4.69 1.17-2.34 3.52 2.34 2.34 1.17 2.34v2.34l1.17 3.52-1.17 1.17v2.34l3.52-2.34 2.34-2.34h2.34v-1.17l4.69 2.34 3.52 1.17 4.65-1.15h3.52v1.17l2.34-1.17-1.17-3.52 2.34-5.86 7 2.34h2.34l2.34 2.34-1.17 2.34 3.52 2.34 2.34-1.17 2.34 3.52 2.34 1.17h2.34l3.52-1.17 1.17 1.17v1.17l1.17-1.17h3.52l1.2 1.2 2.34-1.17 3.52-1.17 7 7 11.72 1.17v-1.17l2.34-1.17 1.17-2.34 1.17-3.52h2.34l1.2-2.33-1.17-1.17v-1.17l2.37-4.66 2.34-4.69 4.66-4.71 4.69-4.69 1.17-7 1.17-1.17 2.34-1.17 1.17-1.17h1.17l2.34-1.17h2.34v1.17l1.17 2.34 2.34-1.17 2.34-1.17 2.34-1.17v-1.23l3.52-1.17 2.34-1.17h3.56l2.34 1.17 3.52-3.52 3.52-1.17v-1.14l2.34-2.34h3.52l4.69-1.17h4.69l1.17-1.17 1.17-2.34 5.86-2.34 4.69-3.52-1.17-3.52-2.34-3.53 1.17-4.69h1.17l1.17-1.17-2.36-1.21h-2.34l-1.17 1.17-2.34 1.17-2.34 1.17-2.34 1.17-2.34 1.17h-1.17l-1.17-1.17-1.17 2.34v1.17l-8.2 2.34-7 1.17-1.17-1.17-1.17-1.17-35.23-21.04z" stroke-width=".93"/><path data-name="vectormap1 TVE" d="M156.87 249.79l-3.52-2.34-1.17 1.17-1.17 1.17-3.55 1.13-3.52 1.17h-1.17l-1.14-1.17-1.05-1.17-6.45-1.17-6.56-2.34-1.64-1.17-1.52-2.34-1.88 1.19-1.64 1.17h.12l.59 1.17-1.05 1.17-1.09 1.18v2.31l-.7 2.34-3 2.34-2.93 3.52 4.92 5.86 4.57 5.86 6.21 1.17 4.45 1.17.35 2.34.47 1.17 1.76 2.34 1.64 1.17 3.16-1.17 2.46-1.17h1.17l1.17-1.17 1.17 2.34 1.17 2.34 3.52 1.17 3.52 1.17 1.17 1.17 1.17-1.17 1.17-1.17 2.34 1.17 2.34 1.17h1.17l1.17 2.34v2.34l3.52-4.69 3.52-1.17-1.17-2.34v-4.69l1.17-2.34v-1.11l1.17-1.17 1.18-1.13h2.34v-1.17l-1.17-1.17 2.34-1.17h2.34l1.17-7-4.69-1.17-3.52-1.17h-2.34l-1.17-1.17-1.17-1.17-2.34-1.17h-1.17l-1.17 1.17-2.34-1.17-1.17-1.17h-1.17l-2.34-3.52z" stroke-width=".93"/><path data-name="vectormap1 BRY" d="M98.15 290.8l-1.17 1.17h-4.8l-2.23-1.17h-2.49l-2-3.52-3.52-1.17-1.05 1.17-.35 2.34-.7 1.17h-.79l-1.76 2.34-1.83 2.36-1.05 2.34h-.87l.92 1.18-.23 1.17h.7l2.93 1.17 2.23-1.17 1.05 1.17.7 2.34 2.23 1.17 1.88 1.17 2.81 3.52.35 3.52-1.52 2.34-.22 3.51 2.23-2.34 2.11 2.34.82-1.17.59-1.17.7 1.17h.47l2.93-1.17 1.29-1.17 2.81-1.17.35-2.34.47-2.34 1.88 1.17 2.58-1.17h.86l.47-1.17-2.7-4.69 1.17-2.34 1.88-1.17-1.17-5.86-.7-4.69-4.1 1.17h-4.1z" stroke-width=".93"/><path data-name="vectormap1 MUR" d="M277.57 102.13v.59l-2.34 1.76-3.52-1.41-2.34-.82-1.17.94-2.34 1.29-1.17-1.88-1.17-.12-2.34-.35v2.34l-4.72 2.34-3.52 4.69v2.34l-1.17 5.86-1.17 4.69-3.52 1.17h-4.62l-7 5.86 4.69 5.86 3.52 5.86v3.52l1.17 3.52 3.52-1.17 1.17 1.17h1.17l1.17 1.17v-4.69l1.17-2.34v-4.69l2.34 4.69v1.17h-1.17v5.86h2.25l1.17 5.86h-1.17v1.17l1.17 1.17h1.17v5.86l2.34 3.52 3.52 4.69 3.52 5.86 2.34 4.69 11.72 3.52 7-1.17 5.86-2.34 1.17-1.17v-2.34l2.34-2.34 2.34-3.52-1.17-2.34-1.17-1.17 1.17-3.52 1.17-3.52h-2.34v-7l-1.15-1.23v1.17l-1.17-8.2v-12.89l-1.17-2.34h-1.17l1.17-1.17-1.17-1.17v-1.17h-2.34l-1.15-3.52-1.17-2.34-2.34-1.17-2.34 1.17-1.15-1.18 2.34-1.17 2.34-2.34-2.34-1.17 1.17-1.17-1.17-1.17-2.34-1.18h1.17l1.17-1.17-1.17-1.17v-1.17l2.34 2.34 3.49 1.17-1.17-3.52-1.17-4.69v1.17h-3.52v1.17l-1.14-1.17v-1.17l-1.17-2.34v-1.17l-1.17 1.17v1.17h-2.34l-1.17-3.4v-.12z" stroke-width=".93"/><path data-name="vectormap1 PNZ" d="M179.13 359.92l-2.34 2.34h-2.33l-3.52-7-2.34-4.69-1.14 1.17-1.22 1.18-3.52-2.34-1.17-3.52h-2.34l-1.17 1.17-1.17 2.34-1.17 1.17 1.17 1.17v2.34l-2.34 1.17 1.17 3.52v5.86l-1.17 1.17-2.34 1.17 2.34 2.34 3.52 2.34 1.17 2.34 1.17 1.17h2.34l1.17 1.17 1.17 1.17v1.17l3.52 2.34h2.34l1.17 1.17v2.34l3.52-1.17h2.34l2.34 1.17 1.16 1.23 3.52-2.34 3.52-4.69v-2.37l-1.17-2.34 1.17-4.69-1.17-4.69-4.69-2.34-3.51-3.54z" stroke-width=".93"/><path data-name="vectormap1 VLA" d="M177.96 306.04l-2.34-1.17h-2.34l1.17-4.69-1.17-3.52-4.69 1.17-3.52-3.52v-3.52l-3.52 5.86-2.34 7 1.17 1.17 1.17 2.34 1.17 1.17 2.34 2.34-2.34 7 3.52 4.69 4.69 5.86 4.69-1.17 2.34-2.34h8.2v-1.09h2.3v-1.17l1.17-1.17v-2.36l-2.34-1.17-2.34-1.17v-3.52h-1.17l-3.52-3.52-1.17-2.34-1.17-1.17z" stroke-width=".93"/><path data-name="vectormap1 LEN" d="M153.35 186.5l-2.34 1.17 1.17 1.17 1.17 1.17h2.34l1.17 1.17h-1.17l-1.17 1.17v1.17h-1.17v4.69l1.17 2.34h2.34l3.52 1.17 2.34 4.69-2.34 3.51-3.52 2.34-4.68-2.34-1.17-3.52 1.17-3.52-2.34-2.34-1.17 1.17-1.21-1.14-1.17-1.17-1.17-1.17-1.17 1.17h-1.17v-2.34h-1.41l-.82 1.17-1.76 1.17h.59l-1.41 2.34-2.11-1.17-2 1.17h-2.11l1.17 3.52.94 2.34 1.17 2.34 1.05 2.34-.82 4.69 1.76 3.52h1.76l2.34-1.17 1.64 1.17 1.17 2.34 2.34-1.17h3.52v1.17l2.34 1.17 2.34-1.17 2.34-1.17v1.17l1.17 1.17 1.17 1.17v4.69h4.69l1.17 1.17v1.17l2.45 3.52v2.34l1.17 2.34 2.34 3.52h3.49l2.34 1.17 1.16-1.17 1.17-1.17h2.33l1.17-1.17h-1.17v-1.17l1.17-1.17v-3.52l3.52-2.34 3.52-1.17 2.34-2.34v-1.17l1.17-1.17h3.52l2.34-1.17-1.17-1.17-1.17-4.69-1.17-1.17h-2.34l-2.34-2.34-2.39-2.36h-1.17v1.17l1.17 2.34h-2.3l-1.17-1.17h-8.2l-1.17-1.17-2.34 2.34-3.52 1.17-2.3-3.51h-3.52l-2.34-1.17-1.17-1.17h1.17l1.17-2.34 1.17-2.34 2.34-5.86 3.52-4.69v-3.52l-2.34-3.52v-3.52h-8.2l-5.86-1.17z" stroke-width=".93"/><path data-name="vectormap1 AST" d="M133.66 427.92h-1.52l-1.29-1.17-.23 1.17h-.23l-.93-1.18h-1.52l-2 1.17 1.17 2.34.7 3.52 1.41 1.17.94 1.17-1.52 1.17-1.05 2.34.35 3.52 1.17 2.34h3l2.46 2.34h-2l-2.58 1.17-.53 5.93-.47 4.69-4.22 1.17h-4.31l.2 1.14 1.17 1.17-.47 1.17-.35 1.17 1.17 1.17.82 1.17-4 1.17-1.05 3.52.51 1.16h2.34l.82 1.17.84 1.13v1.17h1.17l-.23 1.17h1.05l.7-1.17 3.4 2.34.12 1.17h.12l1.29-1.17h.59l-.23 1.17.82-1.17 1.17-1.17.7 1.17-.12 1.17-.94 1.17-.47 1.17 1.41-1.17 1.41-1.17 3.28-2.34 3.4-1.17.59 1.17-2.17-9.34h.7l1.41 2.34h2.34l1.17-8.2v-9.38l-2.34-2.34-1.88-2.34-1.17 1.17-1.17-1.17 1.05-3.52 2-2.34-.47-3.52-1.17-3.52 2.81-2.34-1.17-2.34-.7-2.34-3.47-1.16h-3.8z" stroke-width=".93"/><path data-name="vectormap1 VGG" d="M146.32 389.24v-1.17h-3.52l-2.81-2.34-.7-4.69-2.58-1.17-3-1.17-1.29-1.17-1.05-2.34h-1.52l-1.76 1.17-2.81-1.17h-2.93l-.12 2.34.35 2.34-2.46 2.34-2.66 1.17.23 4.69 1.17 5.86-3.16 2.34-3.24 3.52h.47l.7 1.17.59 2.34.24 3.52-4.22 2.34-3.87-1.17-1.52 1.17-1.39 1.18h-1.2l-.59 1.17 1.17 2.34 1.76 3.52-.94 4.69-.2 2.34h2v1.17l-.59 1.17h1.88l.82 1.17.7 1.17 5.74-2.34 4.34 2.34 1.52-2.34.82-2.34 1.76 1.17v2.35h3.52l2-1.17h1.49l.94 1.17h.23l.23-1.17 1.29 1.17h5.31l3.52 1.17.7 2.34 1.17 2.34 2.34-1.17 1.17-1.17h3.52v-2.34l1.17-3.52 4.69-3.52 5.86-1.17 1.17-1.17 1.17-1.17v-1.17l-2.34-4.69-1.17-3.52h-2.34l-2.34-1.17v-2.34l-1.17-1.17h-1.17l-1.17 1.17-1.17-1.17v-1.17h-1.17l-1.17-1.17 2.34-1.17 2.34-3.52-1.23-3.53-1.17-1.17h-1.17v-2.33h-2.38l-1.17-1.17z" stroke-width=".93"/><path data-name="vectormap1 SAR" d="M172.1 384.56l-1.17-1.17-2.34-1.17-3.52-2.34v-1.17l-1.17-1.17-1.17-1.17h-2.34l-1.17-1.17-1.17-2.34-3.52-1.17-2.34-3.52-4.73 2.32-6.8 2.34.23 3.52-1.64 4.69.7 4.69 2.81 2.34h3.52v1.17l1.18 1.18h2.34v2.34h1.17l1.17 1.17 1.17 3.52-2.3 3.47-2.34 1.17 1.17 1.17h1.17v1.17l1.17 1.17 1.17-1.17h1.17l1.17 1.17v2.34l2.34 1.17h2.34l1.17 3.52 2.34 4.69v1.17l3.52 5.86v7l5.86-2.34 1.17-3.52 1.17-3.52h1.17v1.17l1.17 1.17h5.86l1.17-1.17 1.17-2.34 9.38 2.34 2.34-1.17 2.34-1.17 1.17 1.17h1.17v-2.34l-1.17-4.69-1.17-3.52-1.17-1.17v-4.69h-1.17v-2.34l-2.34-1.17-1.15-1.13v-2.3l-1.17-3.52v-1.18l-1.17-1.17-7-1.17-3.57-4.66-1.17-1.17-2.34-1.17h-2.34l-3.52 1.17v-1.17z" stroke-width=".93"/><path data-name="vectormap1 MO" d="M196.71 350.57l-3.52 1.17-2.34 1.18h-1.17v-1.17l-2.34 1.17-2.34 1.17-2.34-4.69-2.34-8.2-2.34-1.17h-2.34l-1.18-1.18-2.34-2.34v3.52l-2.34 1.17-1.17 1.17h-4.69l2.34 1.17 1.2 2.38-2.34-1.17h-1.17v1.17l-2.34 1.17 2.34 3.52 2.34 2.34 1.17-1.17 1.17-1.17 2.34 4.69 3.52 7h2.34l2.34-2.34 3.52 3.52 4.69 2.34h4.69l2.34 1.17 4.69-7 1.17-4.69h-1.21v-1.17h-1.17l-1.18-1.21 1.17-1.17-1.17-1.17z" stroke-width=".93"/><path data-name="vectormap1 KR" d="M240.07 137.28l-4.69-5.86-3.52 8.2-4.69 5.86h-3.52l-3.52 2.34h-1.17v1.17l-1.17 1.17-3.52 1.17-1.17 3.52 1.17 1.17-1.17 1.17-3.52 3.52-1.12 4.7-3.52 1.17h-3.52l-1.17 8.2-1.17 9.38-15.23 2.34-16.39 1.17v2.34l2.34 3.52v-1.17l1.17 1.17h8.2l1.17-1.17 1.12 11.72-3.52 12.89h7l1.17 1.17h2.35l-1.17-2.34v-1.17h1.17l2.34 2.34 2.34 2.34h2.34l1.17 1.17 1.17 4.69 1.17 1.17 1.17-3.52-1.17-5.86 1.17-5.86v1.17h1.17l1.17-2.34 1.17-2.34v3.52h1.17l1.17-3.52 1.17-2.34v3.52l1.17-2.34 1.17-1.17-1.06 3.51-2.34 4.69h1.17l1.17-2.34v1.17l2.34 1.17 2.34-4.69v-1.17h-1.17v-1.17l-1.17 1.17 1.17-3.52 1.17-3.52 1.17 10.55-5.85 8.21-1.17 3.52-1.17 4.69h2.34l2.34 2.34 3.52 3.52 1.17-1.17 1.17-1.17h1.17v1.17l2.34-3.52 1.17-3.52v-1.17l2.34-2.34 2.34-2.34-2.34-3.52-1.22-4.7 2.34-2.34 1.17-2.34 1.17-3.52 1.17-3.52 1.17 1.17 1.17 1.17 2.34-1.17 2.34-2.34v-2.3l1.17-2.34v-3.56h-2.34v-5.86l1.17-1.17 4.69-5.86 1.17-2.34 1.17-3.52h1.17l1.17 1.17 2.34-2.34 1.17-1.17v1.17h1.25l1.17-7-2.34-7h3.52l-1.17-2.34-1.18-2.41 1.17-1.17h-1.17l-1.17-1.17-3.52 1.17-1.17-3.52 1.17-3.52-4.69-5.86z" stroke-width=".93"/><path data-name="vectormap1 PSK" d="M133.9 207.6l-.94-2.34-1.17-3.52-2.58 3.52-2.7 2.34h-3.63l-1.87 2.32.82 1.17.59 1.17-1.76 3.52-1.64-1.17.47-1.17.35-1.17h-.7l-.23 1.17h-1.17l-.94-1.17-2.11 1.17h-2.23v1.17h.47l-.12 1.17-1.17 3.52-2.7 2.34-2.93 1.17.23 1.17.12 1.17-2.9 3.54-3.87 4.69h-.13l.12 1.17.88 1.17 1.17 1.17-.47 1.17-.12 1.17h1.05l1.52 2.34-1.41 3.52-.94 1.17h1.76l.94 1.17h2l2.11 5.86v2.34l.59 1.17h2.46l1.64 2.34 3-2.34 2.93-2.34.77-3.54v-2.34l1.05-1.17 1.05-1.17-.59-1.17h-.12l1.64-1.17 1.88-1.17-.23-2.34 2.11-2.34.59-2.34 3.52-1.17.23-1.17.12-1.17h1.41l1.05-1.17-1.17-3.52-.82-4.69 5.86-2.34-1.76-3.52.82-4.69-1.03-2.35-1.17-2.34z" stroke-width=".93"/><path data-name="vectormap1 NGR" d="M149.84 222.83v-1.17h-3.52l-2.34 1.17-1.17-2.34-1.64-1.17-2.23 1.17h-1.88l-5.86 2.34.82 4.69 1.17 3.52-1.05 1.17h-1.41l-.12 1.17-.23 1.17-3.52 1.17-.59 2.34-2.11 2.34.23 2.34 1.52 2.34 1.64 1.17 6.56 2.34 6.45 1.17 2.23 1.17 1.17 1.17 3.5-1.18 3.52-1.17 1.17-1.17 1.17-1.17 3.52 2.34 2.34 3.52h1.17l1.17 1.17 2.34 1.17 1.17-1.17h1.17l2.34 1.17 1.17 2.34h1.17l2.34 1.17v-7l-1.12-1.2h-1.17v-1.17h-1.17v-2.34l1.17-3.52-2.34-3.52-1.13-2.3v-3.52l-2.34-2.34v-1.17l-1.17-1.17h-4.69v-4.69l-1.17-1.17-1.17-1.17v-1.17l-2.34 1.17-2.34 1.17-2.34-1.17z" stroke-width=".93"/><path data-name="vectormap1 VLG" d="M216.63 252.13h-1.17l-2.34-1.21v-2.34l-1.17-1.17h-1.17v-4.69l1.17-2.34 1.17-3.52 1.17-3.52-3.52-3.52-2.31-2.3h-2.34v1.17l-3.52 1.17-4.69 1.17-1.17-1.17-1.17-2.34h-2.34l-1.17 1.17v1.17l-2.34 2.34-3.52 1.17-3.52 2.34v3.52l-1.22 1.18v1.17h1.17l-1.17 1.17h-2.34l-1.16 1.17-1.17 1.17-2.33-1.17h-3.52l-1.17 3.52v2.34h1.17v1.14h1.17l1.17 1.17v7h3.52l4.69 1.17v7l1.17-1.17 3.52 1.17v-3.52l1.17-3.52 1.17 1.17-1.17 2.34v4.69l3.52 2.34 1.17-1.17h1.17l3.52 3.52v5.86l4.69 5.86 4.69-1.17v-1.17l1.17-1.17 3.52 1.17 3.52 1.17 1.17-1.17 1.17-1.17v2.34h1.17l1.17 1.17v3.52l4.69 1.17v1.17l1.17 1.17 2.34 1.17 1.17 2.34 1.17 2.34 8.2 5.86h1.17l1.17-1.17 2.34 1.17h1.17l1.17-1.17 1.17-1.17 2.34 1.17 1.17 2.34 2.34-2.34-1.17-2.34 1.17-1.17 1.17-1.17h-3.49l-1.17-2.34v-1.06l2.34-1.17h2.34l4.69-2.34 2.34-2.34-1.17-4.69-2.37-1.18v-3.52h-7l-3.52-4.69-2.35-3.47-2.34 1.17h-3.52v-3.52h-2.34l-1.17-1.17-1.17-1.17v-1.21l-1.17-1.17-1.17-1.17h-1.17v-1.17h-2.34l-3.52 1.17v-2.34l-1.22-1.18-1.17-1.17-1.17-1.17-1.17-1.17h-1.17v-1.17l-1.17-2.34z" stroke-width=".93"/></g></svg>