<?xml version="1.0" encoding="utf-8"?>
<!-- Generator: Adobe Illustrator 18.1.0, SVG Export Plug-In . SVG Version: 6.00 Build 0)  -->
<svg version="1.1" id="Social_Icons_Color" xmlns="http://www.w3.org/2000/svg" xmlns:xlink="http://www.w3.org/1999/xlink" x="0px"
	 y="0px" viewBox="0 0 70 56.9" enable-background="new 0 0 70 56.9" xml:space="preserve">
<path id="Twitter_2_" fill="#FFFFFF" d="M70,6.7c-2.6,1.1-5.3,1.9-8.2,2.3c3-1.8,5.2-4.6,6.3-7.9c-2.8,1.6-5.8,2.8-9.1,3.5
	C56.3,1.7,52.6,0,48.5,0c-7.9,0-14.4,6.4-14.4,14.4c0,1.1,0.1,2.2,0.4,3.3C22.5,17,12,11.3,4.9,2.6C3.6,4.7,2.9,7.2,2.9,9.8
	c0,5,2.5,9.4,6.4,12C7,21.7,4.7,21.1,2.8,20c0,0.1,0,0.1,0,0.2c0,7,5,12.8,11.5,14.1c-1.2,0.3-2.5,0.5-3.8,0.5
	c-0.9,0-1.8-0.1-2.7-0.3c1.8,5.7,7.1,9.9,13.4,10c-4.9,3.9-11.1,6.1-17.8,6.1c-1.2,0-2.3-0.1-3.4-0.2c6.4,4.1,13.9,6.5,22,6.5
	C48.4,56.9,62.9,35,62.9,16c0-0.6,0-1.2,0-1.9C65.6,12.1,68.1,9.6,70,6.7z"/>
</svg>
