<svg xmlns="http://www.w3.org/2000/svg" viewBox="0 0 70 56.9"><path fill="#FFF" d="M70 6.7c-2.6 1.1-5.3 1.9-8.2 2.3 3-1.8 5.2-4.6 6.3-7.9-2.8 1.6-5.8 2.8-9.1 3.5C56.3 1.7 52.6 0 48.5 0c-7.9 0-14.4 6.4-14.4 14.4 0 1.1.1 2.2.4 3.3C22.5 17 12 11.3 4.9 2.6c-1.3 2.1-2 4.6-2 7.2 0 5 2.5 9.4 6.4 12-2.3-.1-4.6-.7-6.5-1.8v.2c0 7 5 12.8 11.5 14.1-1.2.3-2.5.5-3.8.5-.9 0-1.8-.1-2.7-.3 1.8 5.7 7.1 9.9 13.4 10-4.9 3.9-11.1 6.1-17.8 6.1-1.2 0-2.3-.1-3.4-.2 6.4 4.1 13.9 6.5 22 6.5C48.4 56.9 62.9 35 62.9 16v-1.9c2.7-2 5.2-4.5 7.1-7.4z"/></svg>