<?xml version="1.0" encoding="utf-8"?>
<!-- Generator: Adobe Illustrator 19.0.0, SVG Export Plug-In . SVG Version: 6.00 Build 0)  -->
<svg version="1.1" id="Слой_1" xmlns="http://www.w3.org/2000/svg" xmlns:xlink="http://www.w3.org/1999/xlink" x="0px" y="0px"
	 viewBox="-37.8 37.1 17.7 27.5" style="enable-background:new -37.8 37.1 17.7 27.5;" xml:space="preserve">
<style type="text/css">
	.st0{fill:#FEE300;}
</style>
<title>clean</title>
<g id="Layer_2">
	<path class="st0" d="M-22.3,52.7l0.6-1.5c0.1-0.1,0.1-0.3,0-0.4l-0.6-1.4c-0.1-0.2-0.3-0.3-0.5-0.3h-2.8c0.3-1.6-0.5-3.1-1.9-3.8
		v-6.8c-0.2-1-1.1-1.6-2-1.4c-0.7,0.1-1.3,0.7-1.4,1.4v6.8c-1.4,0.7-2.2,2.2-1.9,3.8h-2.7c-0.2,0-0.3,0.1-0.4,0.2l-0.8,1.4
		c-0.1,0.1-0.1,0.3,0,0.5l0.7,1.5l-1.8,11.4c0,0.3,0.1,0.5,0.4,0.6c0,0,0.1,0,0.1,0h10.5c0.2,0,0.4-0.1,0.5-0.3l1.2-2.7l1.2,2.7
		c0.1,0.2,0.3,0.3,0.5,0.3h2.9c0.3,0,0.5-0.2,0.5-0.5c0,0,0-0.1,0-0.1L-22.3,52.7z M-30,38.5c0-0.4,0.4-0.7,0.8-0.7
		c0.4,0,0.6,0.3,0.7,0.7V45c-0.5-0.1-1-0.1-1.5,0V38.5z M-31.2,46.7c1.1-1.1,2.8-1.1,3.9,0c0.7,0.6,0.9,1.6,0.8,2.5h-5.3
		C-32.1,48.3-31.9,47.3-31.2,46.7z M-35.3,50.1h12.2l0.4,0.9l-0.5,1.1h-12.1l-0.6-1.1L-35.3,50.1z M-23.2,63.6l-1.5-3.4
		c-0.1-0.3-0.5-0.3-0.7-0.2c-0.1,0-0.2,0.1-0.2,0.2l-1.5,3.4h-9.6l1.6-10.5h11.9l2.1,10.5H-23.2z"/>
</g>
</svg>
