<svg xmlns="http://www.w3.org/2000/svg" viewBox="0 0 43.34 34.91"><title>depfin icons-32</title><path d="M42,43.45H39.67a2.61,2.61,0,0,1-2.61-2.61V38H12.94v2.8a2.61,2.61,0,0,1-2.61,2.61H8a2.61,2.61,0,0,1-2.61-2.61v-2.9a2.72,2.72,0,0,1-2-2.61V25a3.14,3.14,0,0,1,1.44-2.64,3,3,0,0,1,1.46-5.54H8.71l1.65-4.64a5.5,5.5,0,0,1,5.18-3.65H34.46a5.5,5.5,0,0,1,5.18,3.65l1.65,4.64h2.42a3,3,0,0,1,1.46,5.54A3.14,3.14,0,0,1,46.61,25V35.33a2.72,2.72,0,0,1-2,2.61v2.9A2.61,2.61,0,0,1,42,43.45ZM12.19,36.55H37.81a0.75,0.75,0,0,1,.75.75v3.55A1.11,1.11,0,0,0,39.67,42H42a1.11,1.11,0,0,0,1.11-1.11V37.3a0.75,0.75,0,0,1,.75-0.75,1.22,1.22,0,0,0,1.22-1.22V25a1.65,1.65,0,0,0-1.65-1.65,0.75,0.75,0,0,1-.75-0.75V22a0.75,0.75,0,0,1,.75-0.75h0.25a1.46,1.46,0,1,0,0-2.92H40.76a0.75,0.75,0,0,1-.71-0.5l-1.83-5.14A4,4,0,0,0,34.46,10H15.54a4,4,0,0,0-3.76,2.66L9.95,17.83a0.75,0.75,0,0,1-.71.5H6.29a1.46,1.46,0,0,0,0,2.92H6.54a0.75,0.75,0,0,1,.75.75v0.61a0.75,0.75,0,0,1-.75.75A1.65,1.65,0,0,0,4.89,25V35.33a1.22,1.22,0,0,0,1.22,1.22,0.75,0.75,0,0,1,.75.75v3.55A1.11,1.11,0,0,0,8,42h2.36a1.11,1.11,0,0,0,1.11-1.11V37.3A0.75,0.75,0,0,1,12.19,36.55Z" transform="translate(-3.33 -8.54)" fill="#b30653"/><path d="M10.62,31.17a3,3,0,1,1,3-3A3,3,0,0,1,10.62,31.17Zm0-4.49a1.49,1.49,0,1,0,1.49,1.49A1.49,1.49,0,0,0,10.62,26.68Z" transform="translate(-3.33 -8.54)" fill="#b30653"/><path d="M39.88,31.17a3,3,0,1,1,3-3A3,3,0,0,1,39.88,31.17Zm0-4.49a1.49,1.49,0,1,0,1.49,1.49A1.49,1.49,0,0,0,39.88,26.68Z" transform="translate(-3.33 -8.54)" fill="#b30653"/><path d="M31.67,34.56H18.33a0.75,0.75,0,0,1-.75-0.75V30.42a0.75,0.75,0,0,1,.75-0.75H31.67a0.75,0.75,0,0,1,.75.75v3.39A0.75,0.75,0,0,1,31.67,34.56Zm-12.59-1.5H30.92V31.17H19.08v1.89Z" transform="translate(-3.33 -8.54)" fill="#b30653"/><path d="M39.2,21.28H10.61A2.47,2.47,0,0,1,8.3,18l0.24-.64a0.75,0.75,0,0,1,1.41.52l-0.24.64a1,1,0,0,0,.91,1.3H39.2a1,1,0,0,0,.93-1.24l-0.35-1.2a0.75,0.75,0,0,1,1.44-.43h0l0.35,1.2a2.47,2.47,0,0,1-2.37,3.16h0Z" transform="translate(-3.33 -8.54)" fill="#b30653"/></svg>