<svg xmlns="http://www.w3.org/2000/svg" viewBox="0 0 35.6 42.1"><title>depfin icons-29</title><path d="M26.3,46.1H23.1a0.37,0.37,0,0,1-.3-0.1,28.34,28.34,0,0,1-7.9-1.3c-5.1-1.7-7.7-5-7.7-9.8,0-13.1,11.5-21.9,12-22.3a0.76,0.76,0,0,1,.5-0.2H30.3a1.06,1.06,0,0,1,.5.2c0.5,0.4,12,9.2,12,22.3,0,4.8-2.6,8.2-7.7,9.8A27.77,27.77,0,0,1,27.2,46c-0.1,0-.2.1-0.3,0.1H26.3ZM19.9,14C18.4,15.2,8.7,23.5,8.7,34.9c0,4.2,2.2,6.9,6.7,8.4a37.27,37.27,0,0,0,9.5,1.3,30.1,30.1,0,0,0,9.5-1.3c4.5-1.5,6.7-4.2,6.7-8.4,0-11.5-9.7-19.7-11.2-20.9h-10Z" transform="translate(-7.2 -4)" fill="#00a7e7"/><path d="M19.7,14a0.86,0.86,0,0,1-.6-0.3c-0.1-.1-2.6-3.1-3.6-4.4a2.6,2.6,0,0,1-.3-2.9,1.89,1.89,0,0,1,2.1-.9,35.67,35.67,0,0,1,3.7.7,4.43,4.43,0,0,0,.9-0.7A5.64,5.64,0,0,1,25,4a6.42,6.42,0,0,1,3.2,1.3,5.23,5.23,0,0,0,1.2.7,28.63,28.63,0,0,0,3.2-.5,2.33,2.33,0,0,1,2.5.9A2.11,2.11,0,0,1,35,8.9a35.26,35.26,0,0,1-4.3,4.9,0.78,0.78,0,1,1-1.1-1.1A40.38,40.38,0,0,0,33.7,8,0.67,0.67,0,0,0,34,7.2a0.94,0.94,0,0,0-1-.3,30.53,30.53,0,0,1-3.5.5H29.2a5.07,5.07,0,0,1-1.8-.9,5.37,5.37,0,0,0-2.4-1,4.55,4.55,0,0,0-2.1,1.2,3.33,3.33,0,0,1-2.1,1A20.83,20.83,0,0,0,17.2,7a1,1,0,0,0-.7.2,1.43,1.43,0,0,0,.2,1.2c0.9,1.3,3.5,4.3,3.5,4.3a0.79,0.79,0,0,1-.1,1.1A0.76,0.76,0,0,1,19.7,14Z" transform="translate(-7.2 -4)" fill="#00a7e7"/><path d="M32.1,23.2a0.68,0.68,0,0,1-.7-0.7,20.16,20.16,0,0,0-2.6-8.1,7.68,7.68,0,0,0-2.2,4.3,0.75,0.75,0,1,1-1.5-.1c0.3-3.3,3.3-5.9,3.4-6a1.42,1.42,0,0,1,.6-0.2,0.55,0.55,0,0,1,.5.3A22,22,0,0,1,33,22.3a0.89,0.89,0,0,1-.9.9h0Z" transform="translate(-7.2 -4)" fill="#00a7e7"/></svg>