<svg xmlns="http://www.w3.org/2000/svg" viewBox="0 0 40.9 32.6"><title>depfin icons-30</title><path d="M8.1,29a0.79,0.79,0,0,1-.8-0.8V23.8A0.79,0.79,0,0,1,8.1,23a0.74,0.74,0,0,1,.8.8v4.4A1,1,0,0,1,8.1,29Z" transform="translate(-3.9 -9.3)" fill="#34ad67"/><path d="M42.9,41.9H9.1a1.79,1.79,0,0,1-1.8-1.8V35.3a0.79,0.79,0,0,1,.8-0.8,0.74,0.74,0,0,1,.8.8v4.8a0.22,0.22,0,0,0,.2.2H43a0.22,0.22,0,0,0,.2-0.2v-29a0.22,0.22,0,0,0-.2-0.2H9.1a0.22,0.22,0,0,0-.2.2V17a0.8,0.8,0,0,1-1.6,0V11.1A1.79,1.79,0,0,1,9.1,9.3H43a1.79,1.79,0,0,1,1.8,1.8v29A2,2,0,0,1,42.9,41.9Z" transform="translate(-3.9 -9.3)" fill="#34ad67"/><path d="M10.5,24.5H5.7a1.79,1.79,0,0,1-1.8-1.8V18a1.79,1.79,0,0,1,1.8-1.8h4.8A1.79,1.79,0,0,1,12.3,18v4.8A1.92,1.92,0,0,1,10.5,24.5ZM5.7,17.8a0.22,0.22,0,0,0-.2.2v4.8a0.22,0.22,0,0,0,.2.2h4.8a0.22,0.22,0,0,0,.2-0.2V18a0.22,0.22,0,0,0-.2-0.2H5.7Z" transform="translate(-3.9 -9.3)" fill="#34ad67"/><path d="M10.5,35.7H5.7a1.79,1.79,0,0,1-1.8-1.8V29.1a1.79,1.79,0,0,1,1.8-1.8h4.8a1.79,1.79,0,0,1,1.8,1.8V34A1.92,1.92,0,0,1,10.5,35.7ZM5.7,29a0.22,0.22,0,0,0-.2.2V34a0.22,0.22,0,0,0,.2.2h4.8a0.22,0.22,0,0,0,.2-0.2V29.2a0.22,0.22,0,0,0-.2-0.2H5.7Z" transform="translate(-3.9 -9.3)" fill="#34ad67"/><path d="M26.1,32.4a6.6,6.6,0,1,1,6.6-6.6A6.66,6.66,0,0,1,26.1,32.4Zm0-11.7a5.1,5.1,0,1,0,5.1,5.1A5.06,5.06,0,0,0,26.1,20.7Z" transform="translate(-3.9 -9.3)" fill="#34ad67"/><path d="M37.5,26.3a0.79,0.79,0,0,1-.8-0.8V19a0.79,0.79,0,0,1,.8-0.8,0.74,0.74,0,0,1,.8.8v6.6A0.77,0.77,0,0,1,37.5,26.3Z" transform="translate(-3.9 -9.3)" fill="#34ad67"/></svg>