<svg xmlns="http://www.w3.org/2000/svg" viewBox="0 0 31.62 7.41"><title>depfin-icons-34</title><path d="M12.9,28.71A3.71,3.71,0,1,1,16.61,25,3.71,3.71,0,0,1,12.9,28.71Zm0-5.91A2.21,2.21,0,1,0,15.11,25h0A2.21,2.21,0,0,0,12.9,22.79Z" transform="translate(-9.19 -21.29)" fill="#9ca1ae"/><path d="M25,28.71A3.71,3.71,0,1,1,28.71,25,3.71,3.71,0,0,1,25,28.71Zm0-5.91A2.21,2.21,0,1,0,27.21,25h0A2.21,2.21,0,0,0,25,22.79Z" transform="translate(-9.19 -21.29)" fill="#9ca1ae"/><path d="M37.1,28.71A3.71,3.71,0,1,1,40.81,25,3.71,3.71,0,0,1,37.1,28.71Zm0-5.91A2.21,2.21,0,1,0,39.31,25,2.21,2.21,0,0,0,37.1,22.79Z" transform="translate(-9.19 -21.29)" fill="#9ca1ae"/></svg>