<svg xmlns="http://www.w3.org/2000/svg" viewBox="0 0 43.51 31.09"><title>depfin-icons-31</title><path d="M25,40.73a0.75,0.75,0,0,1-.65-0.38l-6-10.45L16.4,35.4h1.23a0.75,0.75,0,0,1,.75.75v3.54a0.75,0.75,0,0,1-.75.75H4a0.75,0.75,0,0,1-.75-0.75V36.15A0.75,0.75,0,0,1,4,35.4H6.08l9.61-25.28A0.75,0.75,0,0,1,17,10l8,14.65L33,10a0.75,0.75,0,0,1,1.36.09L43.92,35.4H46a0.75,0.75,0,0,1,.75.75v3.54a0.75,0.75,0,0,1-.75.75H32.37a0.75,0.75,0,0,1-.75-0.75V36.15a0.75,0.75,0,0,1,.75-0.75H33.6l-1.94-5.5-6,10.45A0.75,0.75,0,0,1,25,40.73Zm8.12-1.79H45.26v-2H43.4a0.75,0.75,0,0,1-.7-0.48L33.49,12.18,25.66,26.61a0.78,0.78,0,0,1-1.32,0L16.51,12.18,7.3,36.41a0.75,0.75,0,0,1-.7.48H4.74v2H16.88v-2H15.34a0.75,0.75,0,0,1-.71-1l2.83-8a0.75,0.75,0,0,1,1.36-.12L25,38.47l6.18-10.74a0.75,0.75,0,0,1,1.36.12l2.83,8a0.75,0.75,0,0,1-.71,1H33.12v2Z" transform="translate(-3.24 -9.64)" fill="#30b069"/></svg>