<svg xmlns="http://www.w3.org/2000/svg" viewBox="0 0 31.41 44.05"><title>depfin-icons-27</title><path d="M25.7,28.4a9.8,9.8,0,1,1,9.8-9.8A9.82,9.82,0,0,1,25.7,28.4Zm0-18a8.2,8.2,0,1,0,8.2,8.2A8.17,8.17,0,0,0,25.7,10.4Z" transform="translate(-10.16 -3.57)" fill="#fca805"/><path d="M23.7,22.7a0.76,0.76,0,0,1-.5-0.2l-3.4-3.6a0.78,0.78,0,0,1,1.1-1.1l3,3.1,7.3-5.8a0.78,0.78,0,0,1,1,1.2l-7.9,6.2A3.93,3.93,0,0,1,23.7,22.7Z" transform="translate(-10.16 -3.57)" fill="#fca805"/><path d="M25.9,33.7a3.1,3.1,0,0,1-2.2-.9,3.79,3.79,0,0,0-3.1-.8,3,3,0,0,1-2.3-.3,3.24,3.24,0,0,1-1.5-1.9,3.74,3.74,0,0,0-2.3-2.3A2.85,2.85,0,0,1,12.6,26a3.12,3.12,0,0,1-.3-2.3,3.55,3.55,0,0,0-.8-3.1,2.94,2.94,0,0,1-.9-2.2,3.1,3.1,0,0,1,.9-2.2,3.79,3.79,0,0,0,.8-3.1,3,3,0,0,1,.3-2.3,3.24,3.24,0,0,1,1.9-1.5,2.91,2.91,0,0,0,2.3-2.1,2.85,2.85,0,0,1,1.5-1.9,4.5,4.5,0,0,1,2.3-.1,3.55,3.55,0,0,0,3.1-.8h0a3.35,3.35,0,0,1,4.4,0,3.79,3.79,0,0,0,3.1.8,3,3,0,0,1,2.3.3A3.67,3.67,0,0,1,35,7.4a3.74,3.74,0,0,0,2.3,2.3,2.85,2.85,0,0,1,1.9,1.5,3.18,3.18,0,0,1,.3,2.3,3.55,3.55,0,0,0,.8,3.1,2.94,2.94,0,0,1,.9,2.2,3.1,3.1,0,0,1-.9,2.2,3.79,3.79,0,0,0-.8,3.1,3,3,0,0,1-.3,2.3,3.24,3.24,0,0,1-1.9,1.5A3.74,3.74,0,0,0,35,30.2a2.85,2.85,0,0,1-1.5,1.9,3.12,3.12,0,0,1-2.3.3,3.55,3.55,0,0,0-3.1.8A7.12,7.12,0,0,1,25.9,33.7Zm-4.6-3.3a5.39,5.39,0,0,1,3.5,1.3,1.45,1.45,0,0,0,2.1,0,4.81,4.81,0,0,1,4.6-1.2,1.38,1.38,0,0,0,1.1-.1,1.6,1.6,0,0,0,.7-0.9,5,5,0,0,1,3.3-3.3,1.27,1.27,0,0,0,.9-0.7,1.42,1.42,0,0,0,.1-1.1,5.14,5.14,0,0,1,1.2-4.6,1.28,1.28,0,0,0,.4-1,1.53,1.53,0,0,0-.4-1,4.81,4.81,0,0,1-1.2-4.6,1.38,1.38,0,0,0-.1-1.1,1.6,1.6,0,0,0-.9-0.7,5,5,0,0,1-3.3-3.3,1.26,1.26,0,0,0-.7-1A1.38,1.38,0,0,0,31.5,7a5.14,5.14,0,0,1-4.6-1.2,1.45,1.45,0,0,0-2.1,0L24.3,5l0.5,0.5a4.81,4.81,0,0,1-4.6,1.2,1.38,1.38,0,0,0-1.1.1,1.27,1.27,0,0,0-.7.9A5,5,0,0,1,15.1,11a1.27,1.27,0,0,0-.9.7,1.9,1.9,0,0,0-.1,1.3,5.14,5.14,0,0,1-1.2,4.6,1.28,1.28,0,0,0-.4,1,1.53,1.53,0,0,0,.4,1,4.81,4.81,0,0,1,1.2,4.6,1.38,1.38,0,0,0,.1,1.1,1.6,1.6,0,0,0,.9.7,5,5,0,0,1,3.3,3.3,1.27,1.27,0,0,0,.7.9,1.38,1.38,0,0,0,1.1.1A4.1,4.1,0,0,0,21.3,30.4Z" transform="translate(-10.16 -3.57)" fill="#fca805"/><path d="M19.7,47.6a0.86,0.86,0,0,1-.6-0.3L16,43.5l-5,.2a0.91,0.91,0,0,1-.7-0.3,0.88,0.88,0,0,1-.1-0.7l6.2-14.1a0.73,0.73,0,0,1,1-.4,0.82,0.82,0,0,1,.4,1l-5.7,13,4-.2a0.71,0.71,0,0,1,.6.3l2.6,3.1,5.5-12a0.82,0.82,0,0,1,1-.4,0.73,0.73,0,0,1,.4,1L20.4,47.3a0.56,0.56,0,0,1-.7.3h0Z" transform="translate(-10.16 -3.57)" fill="#fca805"/><path d="M32.2,47.6h0a0.72,0.72,0,0,1-.7-0.4L25.6,33.8a0.76,0.76,0,1,1,1.4-.6l5.4,12.2L35,42.3a0.71,0.71,0,0,1,.6-0.3l4,0.2L33.8,28.9a0.76,0.76,0,0,1,1.4-.6l6.3,14.4a0.62,0.62,0,0,1-.1.7,0.78,0.78,0,0,1-.7.3l-5-.2-3.1,3.8A0.35,0.35,0,0,1,32.2,47.6Z" transform="translate(-10.16 -3.57)" fill="#fca805"/></svg>