<svg xmlns="http://www.w3.org/2000/svg" viewBox="0 0 47.8 44.02"><title>depfin-icons-33</title><path d="M48.25,26.68c-1-1-2.26-.78-3.4-0.28a5.25,5.25,0,0,0-2.49-.87,2.43,2.43,0,0,0-.62.21A12.83,12.83,0,0,0,40,25c-1-.3-2.5.47-3.15,0.92s-7,4.66-7.09,4.71a0.73,0.73,0,0,0-.16.16c-0.14,0-.28,0-0.42,0l-1,.05a31.52,31.52,0,0,1-6.24,0,25.87,25.87,0,0,1-4.26-1.85c-2.75-1.35-4.49-2.17-5.51-2.17A9.25,9.25,0,0,0,8.53,27.9a21.67,21.67,0,0,1-2.87,1.17c-2,.59-2.74.16-2.8,0.12a0.75,0.75,0,0,0-.94,1.17c0.21,0.17,1.38,1,4.17.14a23.14,23.14,0,0,0,3.07-1.25,8.43,8.43,0,0,1,3-1c0.74,0,3,1.12,4.85,2a25,25,0,0,0,4.64,2,32.3,32.3,0,0,0,6.6.06l1-.05a2.8,2.8,0,0,1,2.92,2.13A2.2,2.2,0,0,1,31.65,36a3.37,3.37,0,0,1-2.39,1.21c-1.42.1-2.92,0.07-4.66,0-0.94,0-1.93,0-3,0a19,19,0,0,0-2.91.24,5.68,5.68,0,0,1-3.09-.13,19.9,19.9,0,0,1-4.13-2.21,0.75,0.75,0,0,0-.87,1.22,21.05,21.05,0,0,0,4.5,2.4,6,6,0,0,0,2.06.36,12.18,12.18,0,0,0,1.74-.16,17.8,17.8,0,0,1,2.7-.23c1.05,0,2,0,3,0,1.77,0,3.31.06,4.79,0A4.88,4.88,0,0,0,32.81,37a3.79,3.79,0,0,0,.88-2.18,100.47,100.47,0,0,0,10.13-6.07c1.89-1.24,2.83-1.51,3.37-1a0.57,0.57,0,0,1,.21.44c0,0.81-1.47,2.22-1.95,2.68-1.77,1.71-17.79,13-20.22,14.32-1.61.9-2.79,0.35-4.43-.41-0.5-.23-1-0.47-1.58-0.69-1.2-.46-3-1.27-4.73-2S10.93,40.43,9.69,40c-2.53-1-7.59-1.2-7.8-1.21a0.75,0.75,0,1,0-.08,1.5h0c0.05,0,5,.24,7.33,1.12,1.2,0.46,3,1.27,4.73,2S17.45,45,18.7,45.49c0.52,0.2,1,.43,1.48.65a8.16,8.16,0,0,0,3.42,1A4.78,4.78,0,0,0,26,46.49c2.56-1.43,18.64-12.73,20.53-14.55,1.24-1.2,2.39-2.49,2.4-3.75A2.06,2.06,0,0,0,48.25,26.68Zm-10.52.45a3.51,3.51,0,0,1,1.86-.71l0.46,0.18Q37.4,28,31.85,31.34l-0.08.08c-0.09-.05-0.16-0.11-0.25-0.16C33.3,30.07,37.14,27.53,37.73,27.12Zm-4.31,6.14a3.78,3.78,0,0,0-.49-0.82c3.68-2.2,8.93-5.24,9.56-5.42a2.38,2.38,0,0,1,.8.25L43,27.45A107.68,107.68,0,0,1,33.41,33.26Z" transform="translate(-1.1 -3.13)" fill="#0096e1"/><path d="M12.25,15.54h3.44v6.92a0.75,0.75,0,0,0,.75.75h5a0.75,0.75,0,0,0,.75-0.75V16.52h3.45v5.94a0.75,0.75,0,0,0,.75.75h5.27a0.75,0.75,0,0,0,.75-0.74l0.06-6.92h3A0.75,0.75,0,0,0,36,14.26L25.52,3.79a2.4,2.4,0,0,0-3.32,0L11.72,14.26a0.75,0.75,0,0,0,.53,1.28h0Zm11-10.69a0.87,0.87,0,0,1,1.2,0L33.65,14h-2a0.75,0.75,0,0,0-.75.74l-0.06,6.92H27.09V15.77A0.75,0.75,0,0,0,26.34,15H21.39a0.75,0.75,0,0,0-.75.75v5.94H17.19V14.79A0.75,0.75,0,0,0,16.44,14H14.06Z" transform="translate(-1.1 -3.13)" fill="#0096e1"/></svg>