<svg xmlns="http://www.w3.org/2000/svg" viewBox="0 0 37.23 40.58"><title>depfin icons-28</title><path d="M42.7,17.8H7.4A0.79,0.79,0,0,1,6.6,17a0.74,0.74,0,0,1,.8-0.8H42.8a0.79,0.79,0,0,1,.8.8A0.82,0.82,0,0,1,42.7,17.8Z" transform="translate(-6.5 -4.32)" fill="#ce4c72"/><path d="M40.9,38.4H9.2a0.79,0.79,0,0,1-.8-0.8,0.74,0.74,0,0,1,.8-0.8H41a0.79,0.79,0,0,1,.8.8A0.82,0.82,0,0,1,40.9,38.4Z" transform="translate(-6.5 -4.32)" fill="#ce4c72"/><path d="M42.8,15H7.3a0.73,0.73,0,0,1-.7-0.6A0.68,0.68,0,0,1,7,13.6L24.8,4.4a0.85,0.85,0,0,1,.7,0l17.8,9.2a0.74,0.74,0,0,1,.4.8A1,1,0,0,1,42.8,15ZM10.4,13.5H39.8L25,5.9Z" transform="translate(-6.5 -4.32)" fill="#ce4c72"/><path d="M41.8,44.9H8.3a1.79,1.79,0,0,1-1.8-1.8V41.5a1.79,1.79,0,0,1,1.8-1.8H41.9a1.79,1.79,0,0,1,1.8,1.8v1.6A2,2,0,0,1,41.8,44.9ZM8.3,41.3a0.22,0.22,0,0,0-.2.2v1.6a0.22,0.22,0,0,0,.2.2H41.9a0.22,0.22,0,0,0,.2-0.2V41.5a0.22,0.22,0,0,0-.2-0.2H8.3Z" transform="translate(-6.5 -4.32)" fill="#ce4c72"/><path d="M10.9,35.6a0.79,0.79,0,0,1-.8-0.8V20a0.79,0.79,0,0,1,.8-0.8,0.74,0.74,0,0,1,.8.8V34.8A0.86,0.86,0,0,1,10.9,35.6Z" transform="translate(-6.5 -4.32)" fill="#ce4c72"/><path d="M16.4,35.6a0.71,0.71,0,0,1-.7-0.8V20a0.77,0.77,0,0,1,.7-0.8,0.79,0.79,0,0,1,.8.8V34.8A1,1,0,0,1,16.4,35.6Z" transform="translate(-6.5 -4.32)" fill="#ce4c72"/><path d="M22.3,35.6a0.79,0.79,0,0,1-.8-0.8V20a0.79,0.79,0,0,1,.8-0.8,0.74,0.74,0,0,1,.8.8V34.8A0.86,0.86,0,0,1,22.3,35.6Z" transform="translate(-6.5 -4.32)" fill="#ce4c72"/><path d="M27.8,35.6a0.79,0.79,0,0,1-.8-0.8V20a0.79,0.79,0,0,1,.8-0.8,0.74,0.74,0,0,1,.8.8V34.8A1,1,0,0,1,27.8,35.6Z" transform="translate(-6.5 -4.32)" fill="#ce4c72"/><path d="M33.7,35.6a0.79,0.79,0,0,1-.8-0.8V20a0.79,0.79,0,0,1,.8-0.8,0.74,0.74,0,0,1,.8.8V34.8A0.86,0.86,0,0,1,33.7,35.6Z" transform="translate(-6.5 -4.32)" fill="#ce4c72"/><path d="M38.9,35.6a0.79,0.79,0,0,1-.8-0.8V20a0.79,0.79,0,0,1,.8-0.8,0.74,0.74,0,0,1,.8.8V34.8A1,1,0,0,1,38.9,35.6Z" transform="translate(-6.5 -4.32)" fill="#ce4c72"/></svg>