<?xml version="1.0" encoding="utf-8"?>
<!-- Generator: Adobe Illustrator 19.2.1, SVG Export Plug-In . SVG Version: 6.00 Build 0)  -->
<svg version="1.1" id="Слой_1" xmlns="http://www.w3.org/2000/svg" xmlns:xlink="http://www.w3.org/1999/xlink" x="0px" y="0px"
	 viewBox="0 0 50 50" style="enable-background:new 0 0 50 50;" xml:space="preserve">
<style type="text/css">
	.st0{fill:#9CA1AE;}
</style>
<g id="Layer_1">
</g>
<g id="Layer_2_copy">
	<path class="st0" d="M25.7,28.4c-5.4,0-9.8-4.4-9.8-9.8s4.4-9.8,9.8-9.8s9.8,4.4,9.8,9.8S31.1,28.4,25.7,28.4z M25.7,10.4
		c-4.6,0-8.2,3.7-8.2,8.2s3.7,8.2,8.2,8.2s8.2-3.7,8.2-8.2S30.3,10.4,25.7,10.4z"/>
	<path class="st0" d="M23.7,22.7c-0.2,0-0.4-0.1-0.5-0.2l-3.4-3.6c-0.3-0.3-0.3-0.8,0-1.1c0.3-0.3,0.8-0.3,1.1,0l3,3.1l7.3-5.8
		c0.3-0.3,0.8-0.2,1.1,0.1c0.3,0.3,0.2,0.8-0.1,1.1l-7.9,6.2C24,22.6,23.8,22.7,23.7,22.7z"/>
	<path class="st0" d="M25.9,33.7c-0.8,0-1.6-0.3-2.2-0.9c-0.7-0.7-2.1-1-3.1-0.8c-0.8,0.2-1.7,0.1-2.3-0.3c-0.7-0.4-1.2-1-1.5-1.9
		c-0.2-0.9-1.3-2-2.3-2.3c-0.8-0.2-1.5-0.7-1.9-1.5c-0.4-0.7-0.5-1.6-0.3-2.3c0.3-0.9-0.1-2.4-0.8-3.1c-0.6-0.6-0.9-1.3-0.9-2.2
		c0-0.8,0.3-1.6,0.9-2.2c0.7-0.7,1-2.1,0.8-3.1c-0.2-0.8-0.1-1.7,0.3-2.3c0.4-0.7,1-1.2,1.9-1.5c1-0.1,2.1-1.1,2.3-2.1
		c0.2-0.8,0.7-1.5,1.5-1.9C19,5.1,19.9,5,20.6,5.2c0.9,0.3,2.4-0.1,3.1-0.8l0,0c1.1-1.1,3.2-1.1,4.4,0c0.7,0.7,2.1,1,3.1,0.8
		C32,5,32.9,5.1,33.5,5.5c0.6,0.4,1.2,1,1.5,1.9c0.2,0.9,1.3,2,2.3,2.3c0.8,0.2,1.5,0.7,1.9,1.5s0.5,1.6,0.3,2.3
		c-0.3,0.9,0.1,2.4,0.8,3.1c0.6,0.6,0.9,1.3,0.9,2.2c0,0.8-0.3,1.6-0.9,2.2c-0.7,0.7-1,2.1-0.8,3.1c0.2,0.8,0.1,1.7-0.3,2.3
		c-0.4,0.7-1,1.2-1.9,1.5c-0.9,0.2-2,1.3-2.3,2.3c-0.2,0.8-0.7,1.5-1.5,1.9c-0.7,0.4-1.6,0.5-2.3,0.3c-0.9-0.3-2.4,0.1-3.1,0.8
		C27.5,33.4,26.7,33.7,25.9,33.7z M21.3,30.4c1.2,0,2.7,0.5,3.5,1.3c0.5,0.6,1.6,0.6,2.1,0c1-1.1,3.1-1.7,4.6-1.2
		c0.4,0.1,0.8,0.1,1.1-0.1c0.3-0.2,0.6-0.5,0.7-0.9c0.4-1.5,1.9-3,3.3-3.3c0.4-0.1,0.7-0.3,0.9-0.7c0.2-0.4,0.2-0.7,0.1-1.1
		c-0.4-1.5,0.1-3.5,1.2-4.6c0.3-0.3,0.4-0.6,0.4-1s-0.2-0.8-0.4-1c-1.1-1-1.7-3.1-1.2-4.6c0.1-0.4,0.1-0.8-0.1-1.1
		c-0.2-0.3-0.5-0.6-0.9-0.7c-1.5-0.4-3-1.9-3.3-3.3c-0.1-0.5-0.3-0.8-0.7-1c-0.3-0.2-0.7-0.2-1.1-0.1c-1.5,0.4-3.5-0.1-4.6-1.2
		c-0.5-0.6-1.6-0.6-2.1,0L24.3,5l0.5,0.5c-1,1.1-3.1,1.7-4.6,1.2c-0.4-0.1-0.8-0.1-1.1,0.1c-0.4,0.2-0.6,0.5-0.7,0.9
		c-0.4,1.5-1.9,3-3.3,3.3c-0.4,0.1-0.7,0.3-0.9,0.7C14,12.1,14,12.5,14.1,13c0.4,1.5-0.1,3.5-1.2,4.6c-0.3,0.3-0.4,0.6-0.4,1
		s0.2,0.8,0.4,1c1.1,1,1.7,3.1,1.2,4.6C14,24.6,14,25,14.2,25.3s0.5,0.6,0.9,0.7c1.5,0.4,3,1.9,3.3,3.3c0.1,0.4,0.3,0.7,0.7,0.9
		c0.3,0.2,0.7,0.2,1.1,0.1C20.6,30.4,20.9,30.4,21.3,30.4z"/>
	<path class="st0" d="M19.7,47.6c-0.2,0-0.4-0.1-0.6-0.3l-3.1-3.8l-5,0.2c-0.3,0-0.5-0.1-0.7-0.3c-0.1-0.2-0.2-0.5-0.1-0.7l6.2-14.1
		c0.2-0.4,0.6-0.6,1-0.4c0.4,0.2,0.5,0.6,0.4,1l-5.7,13l4-0.2c0.2,0,0.5,0.1,0.6,0.3l2.6,3.1l5.5-12c0.2-0.4,0.6-0.5,1-0.4
		c0.4,0.2,0.6,0.6,0.4,1l-5.8,13.3c-0.1,0.2-0.3,0.4-0.6,0.4C19.8,47.6,19.8,47.6,19.7,47.6z"/>
	<path class="st0" d="M32.2,47.6h-0.1c-0.3,0-0.5-0.2-0.6-0.4l-5.9-13.4c-0.2-0.4,0-0.8,0.4-1c0.4-0.2,0.8,0,1,0.4l5.4,12.2l2.6-3.1
		c0.1-0.2,0.4-0.3,0.6-0.3l4,0.2l-5.8-13.3c-0.2-0.4,0-0.8,0.4-1c0.4-0.2,0.8,0,1,0.4l6.3,14.4c0.1,0.2,0.1,0.5-0.1,0.7
		c-0.1,0.2-0.4,0.3-0.7,0.3l-5-0.2l-3.1,3.8C32.6,47.5,32.4,47.6,32.2,47.6z"/>
</g>
</svg>
