<svg id="svg3102" xmlns="http://www.w3.org/2000/svg" viewBox="0 0 1185.31 676.42"><title>map_russia</title><g id="g3124"><path id="vectormap1_MOW" data-name="vectormap1 MOW" d="M156.06,304.88l-3.52-1.17-4.69,1.17-1.17,4.69,1.17,3.52,4.69,2.34,3.52-2.34,2.34-3.52Z" transform="translate(-1.54 -14.08)" fill="#d9dee2" stroke="#d9dee2" stroke-width="1.1"/><path id="vectormap1_SPE" data-name="vectormap1 SPE" d="M161.92,215.82l-3.52-1.17-4.69,1.17-1.17,4.69,1.17,3.52,4.69,2.34,3.52-2.34,2.34-3.52Z" transform="translate(-1.54 -14.08)" fill="#d9dee2" stroke="#d9dee2" stroke-width="1.1"/><path id="vectormap1_YAR" data-name="vectormap1 YAR" d="M186.53,282.62l1.17-1.17-3.52-1.17L183,281.44l1.17,1.17h2.34Zm8.2,1.17h-1.17L192.39,285l-3.52-2.34v4.69l-1.17,3.52-2.34,2.34v-3.52l-3.52,1.17-1.17-1.17,1.17-1.17H183l-1.17-7H179.5l-2.34,1.17,1.17,1.17L177.16,285,176,286.13h-2.34v2.34l-1.17,2.34v5.86l1.17,1.17-3.52,2.34-3.52,3.52v4.69l3.52,3.52,3.52-1.17,7-2.34,5.86,2.34,7-4.69,8.2-3.52v-1.17l1.17-2.34-4.69-5.86V287.3l-3.52-3.52h0Z" transform="translate(-1.54 -14.08)" fill="#d9dee2" stroke="#d9dee2" stroke-width="1.1"/><path id="vectormap1_CHE" data-name="vectormap1 CHE" d="M303.72,418.56v3.52l-2.34,4.69,1.17,1.17,1.17,1.17H299l-1.17,1.17h-1.17l-2.34-1.17-1.17,2.34L292,432.62h-1.17v-2.34l-1.17-1.17-2.34,1.17v-2.34l1.17-1.17L285,423.25l-3.52,1.17-1.17,1.17v1.17h-1.17v1.17l2.34,8.2v1.17h4.69v1.17l1.17,1.17h12.89l-2.34,3.52-3.52,3.52L293.18,449,292,447.86l-1.17-1.17-1.17,1.17H285l-3.52,5.86-3.52,5.86-1.17,1.17-2.34,2.34v2.34h-1.17v1.17l1.17,1.17v2.34h1.17l1.17-1.17,3.52,2.34,3.52,2.34L281.46,476l-2.34,2.34h1.17L285,479.5l4.69-1.17,1.17-3.52v-2.34l1.17-1.17h1.17l1.17-1.17h1.17l4.69,2.34,3.52,2.34-2.34-4.69L299,466.61l2.34-2.34h2.34l-2.34-1.17L299,460.75h1.17l1.17-1.17,1.17-1.17-1.17-1.17h4.69v1.17l1.17,1.17,3.52,1.17,2.34,1.17v1.17l1.17,1.17,1.17-1.17H319l3.52,1.17v-1.17h0v-1.17l-1.17-1.17,2.34-2.34v-2.34l-3.52-2.34-4.69-3.52,2.34-2.34,1.17-1.17,1.17-2.34v-1.17h1.17l1.17-1.17h2.34l1.17-4.69v-5.86l-1.17-2.34v-1.17l-1.17-1.17-2.34-1.17h-1.17L319,426.76l-5.86-3.52-5.86-4.69v-1.17H304.9l-1.17,1.17h0Z" transform="translate(-1.54 -14.08)" fill="#d9dee2" stroke="#d9dee2" stroke-width="1.1"/><path id="vectormap1_ULY" data-name="vectormap1 ULY" d="M212.32,385.74l-1.17-2.34-4.69-1.17v-2.34l-3.52-2.34L200.6,374l-4.69,7-2.34-1.17h-4.69l1.17,4.69-1.17,4.69L190,391.6v2.34l-3.52,4.69L183,401l3.52,5.86h7l1.17,1.17v1.17l2.34-3.52,2.34-5.86h3.52l2.34-1.17h1.17l2.34,1.17h2.34l2.34,2.34L217,404.5v-1.17h3.52l2.34-3.52,1.17-2.34-2.34-3.52v-3.52l-1.17-2.34h-5.86l-2.34-2.34h0Z" transform="translate(-1.54 -14.08)" fill="#d9dee2" stroke="#d9dee2" stroke-width="1.1"/><path id="vectormap1_TYU" data-name="vectormap1 TYU" d="M401,409.18l-4.69,1.17-1.17,1.17v1.17h-2.34l-2.34-1.17h-5.86l-1.17-1.17h-1.17l-2.34,1.17-1.17,2.34h-3.52l-3.52-1.17V415l-1.17,1.17v4.69l-2.34,1.17h-4.69V420.9H360l-2.34,1.17-2.34,4.69-1.17,5.86v1.17h1.17L354.12,435h-2.34l-1.17,3.52V442l2.34,1.17,2.34,1.17V449h3.52v1.17l1.17,1.17,1.17-1.17,1.17,1.17,2.34,3.52,1.17,3.52,1.17,1.17,2.34,1.17h1.17l1.17,3.52L374,469h1.17v-1.17l1.17,1.17v1.17h1.17l2.34,1.17,2.34,2.34,1.17,2.34h2.34l1.17-1.17v-2.34h1.17l2.34-1.17-1.17-1.17V469h2.34v-1.17l-1.17-1.17,1.17-1.17,2.34-1.17v-1.17l1.17-1.17h1.17v-2.34l1.17-1.17h1.17v-3.52l2.34,1.17,3.52-1.17-1.17-8.2v-1.17h-3.52l-1.17-1.17,1.17-1.17,2.34-1.17v-7l3.52-2.34,3.52-2.34,1.17,1.17,1.17,2.34L410.37,435v2.34h2.34l2.34,1.17,2.34,1.17,3.52,2.34,1.17-1.17h2.34l8.2,2.34,9.38-3.52-2.34-2.34h-3.52L435,436.14,433.81,435l-3.52-2.34-2.34-1.17v-2.34l1.17-3.52h-2.34l-2.34-2.34,1.17-1.17V420.9l-1.17-1.17h-1.17L422.09,415l-2.34-3.52-1.17-1.17H417.4l-1.17-1.17L412.71,408H409.2L408,406.84l-1.17-2.34h-2.34l-1.17,1.17L401,409.18h0Z" transform="translate(-1.54 -14.08)" fill="#d9dee2" stroke="#d9dee2" stroke-width="1.1"/><path id="vectormap1_TUL" data-name="vectormap1 TUL" d="M135.91,321.29H134l-0.35,1.17-1.29,1.17h-0.94l-0.59-1.17-2.81-1.17-2.7-1.17H125l-0.47,1.17H122.2l-2,1.17-0.59,1.17-0.82,1.17,0.82,5.86,2.58,4.69,1.29,1.17,1.17,1.17L124.42,340l0.12,3.52,2,2.34,1.52,1.17h2.23l0.47-1.17,0.94-1.17h1.88l1.52-1.17H137l5.74-9.38-0.12-2.34,1.76-2.34h1.17l-1.17-1.17v-4.69h-1.76l-2.46-3.52h-1.41l-1.64,1.17h-1.17Z" transform="translate(-1.54 -14.08)" fill="#d9dee2" stroke="#d9dee2" stroke-width="1.1"/><path id="vectormap1_RYA" data-name="vectormap1 RYA" d="M161.92,331.84l-2.34-1.17v1.17h-7L150.2,333H149l-1.17-1.17L146.69,333l-2.34,1.17H142.7L137,343.56l0.82,2.34v2.34h2.58l2.7,1.17-0.35,2.34,0.47,2.34,2.34,1.17H149l1.17,2.34,1.17,1.17h2.34l1.17-1.17,7,3.52h2.34l1.17-1.17h0v-1.17l1.17,1.17H169l-1.17-2.34h-2.34l2.34-1.17h2.34l1.17-1.17,2.34-1.17v-2.34h0l1.17-2.34v-2.34l-2.34-1.17H171.3l1.17-1.17v-2.34l-4.69-5.86-3.52-4.69h-2.34Z" transform="translate(-1.54 -14.08)" fill="#d9dee2" stroke="#d9dee2" stroke-width="1.1"/><path id="vectormap1_ORL" data-name="vectormap1 ORL" d="M118.8,324.81l-4.69-1.17-4.69-1.17L109,323.63h-0.82l-2.58,1.17h-1.88L103.21,326l-0.35,2.34L100,329.49l-1.29,2.34,1.52,1.17,2,1.17v3.52l3,1.17,2.23,1.17,0.12,2.34,0.23,3.52,1.17,1.17,1.17,1.17-0.35,1.17v2.34h1.76l0.35,1.17h0.82l3.87-1.17,1.41,1.17,0.35-2.34-0.12-1.17,0.59-1.17,0.7-2.34,4.92-2.34L124.42,340l0.23-2.34-1.17-1.17-1.29-1.17-2.58-5.86-0.82-4.69h0Z" transform="translate(-1.54 -14.08)" fill="#d9dee2" stroke="#d9dee2" stroke-width="1.1"/><path id="vectormap1_OMS" data-name="vectormap1 OMS" d="M442,439.65l-9.38,3.52-8.2-2.34h-2.34L420.92,442l-3.52-2.34-2.34-1.17-2.34-1.17h-2.34V435l1.17-1.17-1.17-2.34-1.17-1.17-3.52,2.34L402.16,435v7l-2.34,1.17-1.17,1.17,1.17,1.17h3.52v1.17l1.17,9.38H401l-2.34-1.17v3.52h-1.17l-1.17,1.17v2.34h-1.17L394,463.09v1.17l-2.34,1.17-1.17,1.17,1.17,1.17L390.45,469h-1.17v1.17l1.17,1.17-2.34,1.17h-1.17v2.34l2.34,3.52-1.17,5.86v2.34h1.17l-3.52,4.69,1.17,2.34,1.17,1.17,1.17,1.17h1.17l1.17-1.17h1.17v1.17H394v-1.17l1.17-1.17v8.2l2.34-1.17v-1.17l2.34,1.17,2.34,2.34,1.17,1.17h2.34v1.17l-1.17,1.17-2.34-1.17-2.34,3.52,1.17,2.34,2.34-1.17,5.86,3.52h1.17l4.69-2.34h3.52l2.34-2.34h2.34l1.17-3.52,1.17-2.34,1.17-1.17v-1.17l-1.17-3.52-1.17-2.34,1.17-5.86,2.34-2.34-1.17-1.17V483h2.34l2.34-2.34,2.34-1.17h4.69v-2.34l-1.17-2.34,1.17-2.34,2.34-1.17V469l1.17-2.34,1.17-1.17v-2.34L442,461.92l-1.17-2.34L442,458.4v-2.34l-1.17-2.34V449l-1.17-1.17v-1.17h1.17v-3.52H442v-3.52Z" transform="translate(-1.54 -14.08)" fill="#d9dee2" stroke="#d9dee2" stroke-width="1.1"/><path id="vectormap1_LIP" data-name="vectormap1 LIP" d="M137,343.56h-1.88l-1.52,1.17h-1.88l-0.94,1.17-0.47,1.17h-2.23l-1.52-1.17-2-2.34L122,344.73l-2.34,1.17-0.7,2.34-0.59,1.17,0.12,2.34-0.35,1.17-1.41-1.17-3.87,1.17,0.7,2.34,2.23,2.34,3.28,1.17,2.81,1.17v1.17h-0.12l1.05,1.17h1.41l1.05,2.34-0.35,1.17,2.93,2.34,3.16,3.52,2.23-1.17,1.88-1.17-1.17-7,4.1-4.69,5.16-3.52-0.47-2.34,0.35-2.34-2.7-1.17h-2.58V345.9L137,343.56h0Z" transform="translate(-1.54 -14.08)" fill="#d9dee2" stroke="#d9dee2" stroke-width="1.1"/><path id="vectormap1_KRS" data-name="vectormap1 KRS" d="M102.27,335.35v-1.17l-2-1.17-1.52-1.17H94.07L93.25,333l-2.11-2.34L88.91,333l-1.17,1.17L85.63,333l-0.35,1.17L85,335.35l-2.93,2.34,2,3.52,2.7,3.52-0.35,1.17-0.59,1.17h0.59l0.35,1.17H86.22l-0.59,1.17,2.23,2.34h4.22l1.05,2.34,1.29,1.17,5.51,2.34,7,3.52,1.05,1.17,1.05,2.34,1.64-2.34L112,360l1.52,1.17h1.76V360l0.7-1.17-0.23-1.17h0l-2.23-2.34-0.7-2.34H112l-0.35-1.17h-1.76v-1.17l0.35-1.17-1.17-2.34-1.17-1.17-0.23-3.52L107.55,340l-2.23-1.17-3-1.17v-2.34h0Z" transform="translate(-1.54 -14.08)" fill="#d9dee2" stroke="#d9dee2" stroke-width="1.1"/><path id="vectormap1_KGN" data-name="vectormap1 KGN" d="M352.94,432.62l-5.86,1.17L343.57,435l-2.34-2.34-1.17-1.17h-2.34l-2.34-2.34L333,427.93l-3.52,1.17L326,431.45v5.86L324.82,442h-2.34l-1.17,1.17h-1.17v1.17L319,446.68l-1.17,1.17-2.34,2.34,4.69,3.52,3.52,2.34v2.34l-2.34,1.17,1.17,1.17v3.52l5.86,1.17,5.86,1.17,2.34,1.17,1.17,1.17,1.17-1.17,1.17-1.17h2.34l3.52,1.17,1.17,1.17,9.38,1.17,9.38,1.17,1.17-1.17,1.17-1.17h1.17l2.34,1.17,1.17-1.17H374l-2.34-4.69-1.17-3.52h-1.17L367,459.57l-1.17-1.17-1.17-3.52-2.34-3.52-1.17-1.17L360,451.37l-1.17-1.17V449h-3.52v-4.69l-2.34-1.17L350.6,442v-4.69l1.17-2.34Z" transform="translate(-1.54 -14.08)" fill="#d9dee2" stroke="#d9dee2" stroke-width="1.1"/><path id="vectormap1_KGD" data-name="vectormap1 KGD" d="M35.83,202.93h0Zm5.27-1.17,1.41-1.17-1.41,1.17-1.29,1.17h0.12Zm11.6,3.52h0L46,204.1l-1.64-2.34-1.88-1.17-1.41,1.17-1.17,1.17H40.4l1.29,3.52L39,205.27l-3.52-1.17,4.92,9.38,5.63,8.2,3.28,4.69h1.05l1.29-1.17,4.1-1.17-1.05-8.2-0.35-3.52-0.12-3.52-0.59-1.17H52.11l-1.29,1.17L49.54,210l-2.11-2.34-0.82-2.34H52.7Z" transform="translate(-1.54 -14.08)" fill="#d9dee2" stroke="#d9dee2" stroke-width="1.1"/><path id="vectormap1_IVA" data-name="vectormap1 IVA" d="M205.28,320.12l-2.34-1.17-2.34-1.17-1.17-2.34-1.17-2.34-1.17,1.17-2.34,1.17-8.2-4.69-5.86-2.34-5.86,2.34h0l1.17,3.52-1.17,4.69h4.69l1.17,2.34,1.17,2.34,3.52,3.52h1.17v3.52l2.34,1.17,2.34,1.17h1.17l1.17,1.17,1.17-1.17,2.34-2.34,2.34,1.17,2.34,1.17,2.34-1.17,1.17-2.34,2.34-1.17h1.17v-1.17l-2.34-3.52h-3.52l1.17-1.17,1.17-2.34h0Z" transform="translate(-1.54 -14.08)" fill="#d9dee2" stroke="#d9dee2" stroke-width="1.1"/><path id="vectormap1_KHA" data-name="vectormap1 KHA" d="M971.71,368.17l-2.34-2.34-1.17-1.17L967,365.82,965.85,367l-1.17-1.17h-2.34l-1.17,2.34-2.34,3.52-1.17-1.17-1.17-1.17-1.17,1.17H953l-5.86-2.34h-4.69l-1.17,7v7l-1.17,1.17-2.34,1.17v2.34l-1.17,1.17-1.17,1.17v2.34l-1.17,4.69,2.34,3.52,1.17,5.86,1.17,4.69,2.34,2.34,1.17,3.52-1.17,1.17L938.9,415l-1.17,1.17-1.17,1.17-1.17,4.69-4.69,3.52h0l-2.34,1.17h-1.17l-2.34-1.17h0l-1.17,1.17v3.52l-1.17,1.17-5.86,2.34-5.86,2.34h-2.34l-2.34,2.34-1.17,2.34-1.17,7-1.17,3.52,1.17,4.69h-3.52l2.34,3.52,3.52,2.34-1.17,1.17-1.17,1.17v3.52L901.4,469l-1.17,2.34h2.34l1.17,1.17,2.34,1.17,1.17,2.34v2.34l-1.17,1.17h-2.34v5.86l-1.17,5.86,4.69,1.17,3.52-2.34,1.17,1.17h1.17l2.34-1.17,1.17-1.17L919,490l1.17,1.17h2.34l-1.17,3.52L919,497.08v2.34l-2.34,2.34-2.34,2.34-1.17,1.17-1.17,1.17v7l-3.52,2.34v4.69l3.52,1.17h4.69L919,524l2.34,3.52H926l1.17-1.17,2.34-1.17,4.69-2.34,2.34-2.34,1.17-2.34h2.34l3.52-1.17,1.17-1.17h1.17v-1.17l3.52,1.17,1.17,4.69v4.69l1.17,2.34v2.34l-1.17,1.17h-4.69l-5.86,1.17h0l1.17,2.34v4.69l-2.34,1.17-2.34,1.17-1.17,1.17-1.17,2.34v2.34l-3.52,2.34-3.52,2.34,1.17,2.34v1.17L927.18,558,926,561.53v7l1.17-1.17h0l1.17,1.17v1.17h1.17l1.17-1.17,1.17,1.17v1.17H933l2.34,1.17v8.2l1.17,3.52v3.52l4.69-2.34h1.17l1.17-1.17,1.17-2.34h2.34l2.34,1.17,2.34-1.17h2.34l1.17,1.17,2.34,3.52H960l2.34,1.17h3.52L967,585h5.86l2.34-1.17,1.17,2.34h0l1.17,2.34-3.52,2.34-1.17,2.34,1.17,2.34,1.17,1.17,2.34,2.34-2.34,3.52-1.17,1.17v5.86l1.17,5.86,2.34-2.34v-2.34l1.17-3.52,2.34-3.52h1.17l1.17,1.17,1.17-1.17,1.17,1.17v2.34l1.17-1.17,1.17-1.17,1.17,1.17,1.17,1.17,5.86-2.34,4.69-3.52v-4.69l4.69-2.34,2.34-7h-4.69l-1.17-1.17V585L1001,583.8l-1.17-1.17v-1.17h2.34l2.34-3.52,4.69-2.34h0v1.17l2.34,2.34,2.34,2.34-1.17,2.34v2.34l2.34,1.17h3.52l2.34-10.55,2.34-8.2v-1.17l-1.17-2.34v-4.69l-1.17-1.17v-3.52l-1.17-3.52-1.17-2.34-1.17-2.34V544h0l-5.86-16.41V525.2l1.17-5.86-1.17-4.69,1.17-2.34-1.17-1.17-1.17,1.17-2.34-3.52v-3.52h-1.17l-1.17-1.17-4.69-2.34h3.52l1.17-2.34-1.17-2.34h-2.34l-2.34-1.17h0l-1.17-1.17h-3.52l-3.52-2.34v-1.17L989.29,490h-1.17l-1.17-1.17H984.6L983.43,490l-1.17,1.17-3.52,1.17h-1.17l1.17,2.34v9.38l-1.17-2.34v-4.69h0l-2.34,4.69-5.86,5.86v-3.52l2.34-4.69h-1.17l-1.17,1.17H968.2l-2.34-1.17,1.17-1.17,1.17-1.17V495.9l-3.52,3.52,1.17,1.17v3.52h-2.34v1.17h0l-2.34-5.86-3.52-5.86-8.2,3.52-5.86-2.34,2.34-3.52,1.17-2.34,2.34-3.52,1.17-3.52,1.17-2.34,1.17-1.17,3.52-5.86,1.17-7,1.17-1.17,1.17-1.17v-1.17l-1.17-1.17L960,458.4v-3.52l1.17-1.17,2.34-5.86,2.34-4.69,1.17-2.34v-2.34l1.17-1.17,1.17-2.34v-5.86l1.17-4.69,2.34-2.34,1.17-9.38,5.86-8.2h1.17l1.17-1.17,1.17-1.17L984.6,401l5.86-2.34,5.86-3.52h1.17l1.17-1.17h1.17v2.34l2.34,1.17,1.17-2.34-1.17-3.52h4.69v-3.52l-3.52-3.52-4.69-2.34H994l-3.52-1.17v-4.69L994,375.2l-1.17-2.34v-2.34l1.17-1.17-3.52-5.86-7-4.69L978.74,360l-5.86,1.17v3.52l-1.17,3.52h0Z" transform="translate(-1.54 -14.08)" fill="#d9dee2" stroke="#d9dee2" stroke-width="1.1"/><path id="vectormap1_CE" data-name="vectormap1 CE" d="M87.86,493.56l-0.47-1.17-1.76,1.17-2.58,1.17H82l0.94,1.17,2.58,1.17-2.46,5.86H82.82l-0.47,1.17h0l-3.75,1.17-3.28-1.17-0.47-1.17H72l0.35,1.17-0.23,1.17H73.8l1.88,2.34L76.26,510l0.23,1.17,1.29,1.17,1.29,2.34,2.46-1.17h2.58l1.29,1.17,0.47-1.17h4.22l1.17-2.34,2-3.52,2.93-1.17,2.58-1.17,0.35-2.34-0.59-2.34h-4l0.12-1.17L95,498.25H93.48l-1.64-1.17-0.12-1.17-0.23-1.17H88.8l-0.94-1.17h0Z" transform="translate(-1.54 -14.08)" fill="#d9dee2" stroke="#d9dee2" stroke-width="1.1"/><path id="vectormap1_SE" data-name="vectormap1 SE" d="M78.25,492.39l-1.76,1.17H75.08l-0.94-1.17H73l-1.29,1.17L71,492.39,70,491.22l-2.58,1.17-2.7,1.17-1.05-1.17H62.66l1.76,5.86,0.12,2.34,3.4,1.17,4.1,1.17h4.57l0.94-3.52-1.17-1.17,1.29-2.34,1.88-2.34h0.94l2.58,1.17-0.47-3.52-2.93-2.34-1.41,2.34v1.17Z" transform="translate(-1.54 -14.08)" fill="#d9dee2" stroke="#d9dee2" stroke-width="1.1"/><path id="vectormap1_KL" data-name="vectormap1 KL" d="M128.64,444.34L127.47,442H124v-2.34l-1.76-1.17-0.82,2.34-1.52,2.34-4.34-2.34-5.74,2.34-0.7,1.17,2,1.17h3.52L112.94,449l-3.28,2.34-0.23,1.17-0.23,1.17h-6l-0.94,2.34L101,457.23h-0.47l-0.59-1.17-1.76,1.17-2.11-1.17-3.63-8.2-5-3.52-3.16,1.17L80,446.68l0.82,1.17H82L81.88,449l0.23,1.17L83.52,449H85l0.35,1.17-0.7,1.17h7l1.05,3.52,0.94,2.34,1.76,2.34,1.41,2.34-0.35,2.34-0.47,3.52,0.7,2.34,1.64,2.34,2.7,5.86,0.94,5.86,0.82,1.17,1.88,1.17,3.52,5.86,2.46,3.52H112l0.82,1.17,0.94-1.17h0.7l3.63-2.34,3.87-1.17,0.82-1.17H124V490l-0.82-1.17-0.82-1.17h-1.88L120,486.53H119.5l1.05-3.52,4-1.17-0.82-1.17-1.17-1.17,0.35-1.17,0.47-1.17L122.2,476,122,474.81h4.34l4.22-1.17L131,469l0.59-5.86,2.58-1.17h2l-2.46-2.34h-3l-1.17-2.34-0.35-3.52,1.05-2.34,1.52-1.17L130.75,449l-1.41-1.17-0.7-3.52h0Z" transform="translate(-1.54 -14.08)" fill="#d9dee2" stroke="#d9dee2" stroke-width="1.1"/><path id="vectormap1_IN" data-name="vectormap1 IN" d="M82.94,495.9L82,494.73H80.48l-0.35-1.17H79.54l-1.88,2.34-1.29,2.34,1.17,1.17-0.94,3.52-1.76,1.17,3.75,1.17,3.75-1.17h0l0.47-1.17h0.23l2.46-4.69-2.58-2.34h0Z" transform="translate(-1.54 -14.08)" fill="#d9dee2" stroke="#d9dee2" stroke-width="1.1"/><path id="vectormap1_AL" data-name="vectormap1 AL" d="M527.56,562.7h-1.17l-1.17-1.17L524,560.36l-1.17,1.17H521.7l-1.17-1.17L518.18,558l-3.52,1.17-1.17,2.34,1.17,2.34-2.34,2.34L511.15,565h-3.52l-1.17-1.17-1.17-1.17L504.12,565l-1.17,2.34h-2.34l-1.17,1.17-1.17,1.17h-8.2l-2.34,1.17-1.17,1.17h0l-2.34-1.17-2.34,1.17,2.34,2.34,2.34,2.34v4.69H483l2.34,5.86,3.52,4.69,1.17,3.52,1.17,3.52,1.17,1.17h1.17l2.34,1.17,1.17,1.17,4.69-1.17,3.52-1.17v1.17l-1.17,1.17,5.86,8.2h4.69l2.34-1.17,1.17-2.34,5.86,1.17h3.52l1.17-1.17h1.17l1.17,1.17,2.34-3.52,1.17-2.34-1.17-2.34V599h-2.34v-1.17l3.52-2.34h2.34v-2.34L534.59,592v-4.69h-1.17l-1.17-1.17v-3.52l-1.17-4.69-1.17,1.17-2.34,1.17L524,579.11l-2.34-3.52,1.17-1.17,1.17-1.17v-3.52l2.34-1.17,2.34-2.34V562.7h-1.17Z" transform="translate(-1.54 -14.08)" fill="#d9dee2" stroke="#d9dee2" stroke-width="1.1"/><path id="vectormap1_AD" data-name="vectormap1 AD" d="M57.39,443.17l-0.59-3.52-3.16,1.17-4-1.17-1.88-2.34-1.17-1.17-0.94,1.17L46,438.48l0.59,1.17L48.72,442l1.88,2.34h0.7L52.35,442h1.29l0.82,3.52L54.11,449h-2.7l-2.7,3.52L49,453.72l0.35,1.17-1.17,1.17H46.61l0.23-1.17-0.47-1.17-0.94,1.17H44.26l-0.47,1.17,1.41,3.52,2.34,2.34,2.34-1.17,1.52-3.52h1.05l0.94-1.17,1.52-2.34,2.58-1.17-0.35,2.34-0.47,2.34h1.88l0.59-1.17,0.59-1.17,0.7-1.17,1.41-1.17-1.17-5.86Z" transform="translate(-1.54 -14.08)" fill="#d9dee2" stroke="#d9dee2" stroke-width="1.1"/><path id="vectormap1_KIR" data-name="vectormap1 KIR" d="M267.39,303.71l-5.86-1.17-2.34,2.34-4.69,3.52-2.34-1.17-2.34,1.17v2.34l1.17,1.17h3.52l-1.17,1.17-1.17,1.17,1.17,2.34L251,318.95l-1.17,2.34-1.17,3.52v3.52l-2.34,1.17h-4.69v1.17l-2.34-1.17H238.1l-3.52,2.34L232.24,333l3.52,4.69,3.52,4.69-1.17,1.17h0l-2.34,1.17-2.34,1.17-4.69-2.34-1.17,1.17-1.17,2.34-1.17,1.17L224,349.42l1.17,1.17,1.17,1.17,1.17,2.34h4.69l1.17,1.17h2.34l1.17,1.17,2.34,1.17v1.17h0l1.17-1.17h2.34v1.17l-1.17,2.34,1.17,1.17H244V367l1.17,1.17L244,369.34l-1.17,1.17,3.52,1.17-1.17,3.52v2.34h1.17v1.17h-1.17l1.17,3.52,2.34,1.17,1.17-3.52L251,375.2h2.34L254.5,374l1.17-4.69,2.34-3.52h2.34l1.17,1.17h2.34l2.34-1.17,2.34-7,4.69-2.34,2.34,2.34,2.34,1.17h2.34l1.17,1.17v1.17l1.17,1.17H285l1.17-1.17,2.34-1.17,1.17-3.52,1.17-1.17-2.34-2.34v-3.52l5.86-3.52,3.52-4.69-4.69-3.52-4.69-4.69V333H285l-4.69,1.17L276.77,333l-4.69-2.34v1.17h-2.34l-2.34,2.34-3.52,2.34v-2.34l1.17-1.17-1.17-3.52v-2.34h0l-1.17-2.34-2.34-2.34,2.34-3.52,4.69-1.17v-3.52l3.52-5.86-2.34-2.34-1.17-3.52v1.17Z" transform="translate(-1.54 -14.08)" fill="#d9dee2" stroke="#d9dee2" stroke-width="1.1"/><path id="vectormap1_TAM" data-name="vectormap1 TAM" d="M154.89,357.62l-1.17,1.17h-2.34l-1.17-1.17L149,355.27h-3.52l-2.34-1.17L138,357.62l-4.1,4.69,1.17,7-1.88,1.17L131,371.68l0.94,1.17,1.17,1.17-0.59,2.34-0.35,1.17,2.11,1.17,2.46,1.17,1.29,2.34,1.17,2.34h1.76l-0.23,1.17,1.52,1.17,5.63-2.34,5.86-2.34,2.34-1.17,1.17-1.17V374l-1.17-3.52,1.17-1.17,1.17-2.34h0l-1.17-1.17,1.17-1.17,1.17-2.34,1.17-1.17h0Z" transform="translate(-1.54 -14.08)" fill="#d9dee2" stroke="#d9dee2" stroke-width="1.1"/><path id="vectormap1_KOS" data-name="vectormap1 KOS" d="M220.52,299l-1.17-1.17h-1.17v-2.34L217,296.68l-1.17,1.17-3.52-1.17-3.52-1.17-1.17,1.17v1.17L202.94,299l-1.17,2.34v1.17l-8.2,3.52-7,4.69,8.2,4.69,2.34-1.17,1.17-1.17,1.17,2.34,1.17,2.34,2.34,1.17,2.34,1.17-1.17,2.34-1.17,1.17h3.52l2.34,3.52,4.69,2.34h4.69l2.34-2.34,1.17-1.17,3.52,3.52v2.34h2.34l4.69,1.17,2.34-1.17,3.52-2.34h1.17l2.34,1.17v-1.17h4.69l2.34-1.17v-3.52l1.17-3.52,1.17-2.34-1.17-2.34-2.34-1.17-1.17,1.17-1.17,1.17H244l-2.34-1.17-1.17,1.17h-1.17l-8.2-5.86-1.17-2.34-1.17-2.34-2.34-1.17-1.17-1.17h0v-1.17l-4.69-1.17V299h0Z" transform="translate(-1.54 -14.08)" fill="#d9dee2" stroke="#d9dee2" stroke-width="1.1"/><path id="vectormap1_CHU" data-name="vectormap1 CHU" d="M1033.82,160.74h-1.17l-1.17,3.52,4.69,2.34,2.34-1.17,2.34-2.34-1.17-1.17-1.17-2.34h-2.34Zm32.81-74.42-3.52,2.34v1.64L1062,91l-1.17.94-1.17,5,1.17,5.16,1.17,2.7,2.34,1.41,1.17,0.59h0l2.34-6.45,3.52-1.88,1.17-1.17V95.93l2.34-5-1.17-5-2.34.35Zm79.69,24.38-1.17,1.88-1.17,1.29-1.17,1.17,1.17,0.23,1.17-.82,2.34,0.59,2.34,0.94v2.58h2.34l2.34,1.17h-2.34v2.34H1151l-1.17-1.17-1.17,1.17h-3.52v-2.34l-2.34-1.17-4.69-3.4-1.17-.23h-1.17v2.46l-1.17-.35v-0.47l-1.17-1.52-2.34-1.17-2.34.7-1.17,1.17,3.52,0.59-1.17,1.05-2.34,2.34-1.17-2.34-1.17-1.29-1.17,1.05-2.34,1.41-1.17-1.17-1.17-.23-3.52,1.41-3.52,2.34-1.17-1.17H1110l-2.34,1.17-2.34,1.17-1.17-1.17-2.34-1.17-3.52,1.17-3.52,2.34h-5.86l-1.17,1.17-2.34,1.17h0v-1.17h1.17v-1.17h-1.17l-2.34,1.17-1.17,1.17-2.34,1.17h-2.34l-1.17,1.17-3.52,1.17-3.52,1.17h-1.17v2.34l-1.17-1.17h-1.17l-4.69,5.86-1.17,1.17-2.34,2.34h-2.34l1.17,1.17v1.17h-2.34l-2.34,1.17h0l-1.17,1.17-2.34,1.17-3.52,2.34-3.52,1.17,1.17,1.17,1.17,1.17,1.17,2.34v3.52h2.34l1.17-1.17,5.86,3.52,1.17,5.86-1.17,2.34v2.34h-3.52l-2.34-2.34-3.52,1.17-3.52,1.17-2.34-2.34-5.86-2.34-1.17,1.17v5.86l-2.34,2.34h-2.34l-2.34,1.17-1.17,1.17-2.34,2.34-3.52,1.17-2.34-1.17v1.17h0L1013.9,183l-1.17,1.17h-1.17l-1.17,2.34v1.17l-1.17,1.17L1008,190h0l1.17,2.34,1.17,1.17h1.17l1.17,1.17h0l1.17,2.34h1.17l2.34,1.17v2.34l2.34,3.52,1.17,2.34-2.34,1.17-1.17,1.17-8.2,9.38-5.86,8.2,1.17,1.17,1.17,1.17-1.17,2.34v2.34l7,4.69,7,2.34v1.17l-1.17,1.17,2.34,4.69,2.34,3.52h3.52l2.34,1.17h0l1.17,4.69h3.52l2.34-1.17h3.52l2.34,1.17h5.86l3.52-2.34,3.52,1.17h5.86l2.34-2.34,3.52-2.34-1.17-2.34,2.34-2.34,1.17-1.17,2.34-1.17h3.52v-1.17l4.69-2.34h1.17l2.34-1.17,2.34-2.34,1.17-1.17h0l2.34-1.17h2.34l1.17,1.17h0l3.52-1.17,3.52-1.17h2.34l1.17,1.17h5.86l1.17,5.86,1.17,7,4.69-1.17h4.69l4.69,1.17,3.52,1.17h1.17l1.17-1.17h1.17l1.17-1.17v-3.52h1.17l2.34-2.34,11.72-12.89,1.17,1.17,2.34,1.17,2.34-1.17h2.34v1.17l1.17,1.17,1.17-3.52v-4.69l2.34-7,2.34-7h-2.34v-1.17l-1.17-1.17h1.17v-1.17l2.34,2.34h0l5.86-3.52,5.86-3.52-1.17-1.17v-4.69l-3.52-1.17-3.52-1.17V190l-3.52,1.17-3.52-1.17-5.86-3.52-7-3.52-1.17,3.52-4.69,1.17-2.34-2.34-1.17-1.17-1.17,3.52v1.17h-2.34v2.34l-1.17-1.17,1.17-1.17h-4.69V190l1.17,2.34-2.34,1.17-1.17,1.17,1.17-2.34,1.17-1.17V190l-1.17-2.34h1.17l7-3.52-1.17-1.17v-1.17h4.69l4.69-3.52,2.34-7-1.17-7-2.34-7h-3.52l-4.69-1.17-1.17-3.52,1.17-2.34h-1.17l-1.17-1.17,2.34-1.17,1.17,1.17v-4.69l2.34,3.52,1.17,3.52h2.34l1.17-1.17H1144l2.34,4.69,1.17-1.17,1.17-1.17,2.34-5.86,2.34-3.52,2.34-1.17,3.52-1.17,3.52,2.34,2.34,1.17,4.69-1.17,3.52-2.34,1.17-1.17,1.17-1.17,3.52,1.17,3.52-1.17v-2.34l-1.17-1.17v-1.17l2.34,2.34,1.17,1.17,1.17-2.34-2.34-2.34H1185l1.17-1.17v-1.17h-2.34l-2.34,1.17-1.17-1.17-1.17-1.17v1.17H1178l1.17-2.34v-4.69l-1.17-1.17-1.17-1.17-2.34-1.17h-5.86l2.34-1.17,2.34-1.17,2.34-2,1.17-2.58V112l-2.34.35-2.34-.82,2.34-.82,3.52-2.11-2.34-1.52-1.17-1.17V99.21l-1.17.35-1.17.94-1.17.23-1.17.12-3.52.94-2.34.82-5.86.12h-3.52l-2.34,2.93-1.17,2.93-1.17.94v0.23l1.17,0.94v0.94l-2.34-.7-1.17-1.17Z" transform="translate(-1.54 -14.08)" fill="#d9dee2" stroke="#d9dee2" stroke-width="1.1"/><path id="vectormap1_YEV" data-name="vectormap1 YEV" d="M965.85,587.31h-3.52l-1.17-1.17h-2.34l-3.52-3.52-1.17-1.17h-2.34l-2.34,1.17-2.34-1.17h-2.34l-1.17,2.34L942.42,585h-1.17l-3.52,2.34h-1.17l-1.17,1.17L934.21,592,933,594.34V599l1.17,1.17,2.34,2.34v2.34l1.17,2.34,1.17,1.17,1.17,1.17h0l2.34,1.17,2.34-1.17h1.17l7-3.52h2.34l1.17-2.34v-2.34l2.34-1.17,2.34-2.34h2.34l2.34-4.69,3.52-2.34h4.69l3.52-2.34-1.17-2.34h0l-1.17-2.34L972.89,585H968.2l-2.34,2.34h0Z" transform="translate(-1.54 -14.08)" fill="#d9dee2" stroke="#d9dee2" stroke-width="1.1"/><path id="vectormap1_TY" data-name="vectormap1 TY" d="M609.59,554.5h-2.34l-5.86,2.34-3.52-1.17-1.17,1.17h-2.34v-1.17h-1.17L592,556.84H588.5l-1.17,2.34-1.17,3.52-2.34,1.17L581.47,565l-5.86,8.2-8.2,4.69-8.2-1.17-7-2.34L551,572.08l-2.34-1.17-3.52,1.17-3.52,1.17v5.86h-4.69l-4.69-1.17v8.2l1.17,1.17h1.17V592l2.34,1.17v2.34h-2.34l-3.52,2.34,1.17,1.17h1.17v1.17l1.17,2.34,4.69-1.17H544V599l1.17-2.34,5.86,1.17,2.34-1.17,2.34-1.17h4.69v-1.17l1.17-1.17h1.17v1.17h1.17v1.17h1.17l2.34-1.17v2.34l1.17,2.34h4.69l5.86,1.17,1.17,3.52,1.17,4.69,4.69,1.17,4.69,1.17H592l1.17-1.17,5.86,2.34h2.34l3.52,1.17,1.17,1.17,1.17,1.17,8.2-4.69,1.17-3.52,1.17-3.52h-1.17l-1.17-2.34v-3.52l-1.17-1.17,2.34-5.86,3.52-4.69h1.17l1.17-1.17,2.34-2.34,1.17-2.34v-2.34l-1.17-1.17v-2.34l1.17-1.17v-5.86h1.17V565L626,563.88h-4.69l-5.86-4.69-5.86-5.86v1.17Z" transform="translate(-1.54 -14.08)" fill="#d9dee2" stroke="#d9dee2" stroke-width="1.1"/><path id="vectormap1_SAK" data-name="vectormap1 SAK" d="M1108.83,595.52h0l-2.34,1.17h-2.34V599l-1.17,4.69-1.17,4.69,1.17,1.17h1.17v-4.69l1.17-4.69,2.34-2.34,1.17-1.17v-1.17Zm7,8.2v-2.34l-1.17,1.17-1.17,1.17h2.34Zm8.2-31.64-1.17-2.34h-1.17l-1.17,3.52-1.17,2.34h-4.69v1.17l1.17,1.17-1.17,2.34-1.17,2.34V585l-1.17,2.34v2.34l-1.17,2.34,1.17,1.17,1.17-5.86,1.17-1.17,1.17-1.17v-2.34l2.34-2.34,1.17-3.52,2.34-2.34,2.34-2.34h0Zm8.2-19.92h0l-1.17,1.17-2.34,5.86v1.17l-1.17,1.17,2.34,1.17,2.34-8.2v-2.34Zm9.38-17.58-1.17-3.52v3.52l-1.17,2.34v1.17h0Zm1.17-16.41v2.34l1.17-1.17v-1.17h-1.17Zm1.17-17.58h0l-1.17-2.34,1.17,1.17v1.17Zm-1.17-14.06,1.17,2.34V490l1.17-1.17-1.17-3.52-1.17,1.17h0Zm4.69-22.27v-2.34h-1.17l-1.17,2.34h2.34Zm-3.52,7-2.34,4.69,1.17,1.17,2.34-2.34,1.17-3.52v-3.52l-1.17-2.34-1.17-1.17-1.17,1.17,1.17,2.34v3.52Zm-97.27,58.6-5.86-7-4.69-5.86-3.52-4.69v1.17h-1.17v-2.34l-2.34-1.17-2.34-2.34-1.17-5.86-2.34-7h0v0h-1.17l-2.34-2.34-1.17-2.34h1.17l1.17,1.17v1.17h1.17l-4.69-5.86-3.52-4.69V479.5l-3.52-2.34-1.17-1.17v2.34H1008l-1.17,1.17,2.34,1.17,3.52,2.34v1.17h1.17v2.34h-1.17v1.17h0l1.17,1.17-1.17,3.52-1.17-1.17h-1.17l-2.34,1.17v2.34l1.17,2.34,1.17,1.17,2.34,8.2,2.34,8.2,4.69,3.52,5.86,4.69,1.17,3.52v4.69l2.34,2.34,1.17,2.34,7,21.09V558l4.69,3.52,2.34,4.69,1.17,3.52v4.69l2.34,2.34,1.17,2.34,2.34,9.38,4.69,7,1.17-1.17V592l-1.17-5.86,1.17-4.69,1.17,1.17h0l3.52-1.17,2.34,1.17,2.34,1.17,1.17,2.34,1.17,1.17-2.34-5.86-2.34-4.69-1.17,1.17-2.34-1.17-2.34-1.17-2.34-2.34-4.69-3.52-3.52-5.86-1.17-7V551l-1.17-2.34V546.3l1.17-1.17,1.17-2.34,5.86-1.17,5.86,2.34,2.34,1.17,1.17,1.17-2.34-2.34-3.52-2.34-2.34-2.34-1.17-2.34-7-7h0Z" transform="translate(-1.54 -14.08)" fill="#d9dee2" stroke="#d9dee2" stroke-width="1.1"/><path id="vectormap1_AMU" data-name="vectormap1 AMU" d="M919,497.08l2.34-2.34,1.17-3.52h-2.34L919,490l-2.34-1.17L915.46,490l-2.34,1.17h-1.17L910.77,490l-3.52,2.34-4.69-1.17-2.34,2.34h-3.52l-1.17,1.17v1.17l-2.34,1.17-2.34,2.34v1.17l-1.17,1.17-3.52-1.17-3.52-1.17v1.17H878l-1.17,2.34v1.17l-2.34-1.17h-1.17l-2.34,1.17-3.52,2.34H863.9l-1.17-1.17h-3.52l-3.52,1.17-5.86-1.17-2.34-2.34-2.34-2.34-5.86-1.17h-7l-1.17-1.17-2.34-1.17h-4.69l-2.34-1.17-2.34-1.17L817,493.56l-4.69,1.17-4.69,2.34v4.69h1.17l1.17,2.34v1.17l2.34,1.17,3.52,1.17-2.34,1.17h-1.17v2.34l2.34,2.34h1.17v-1.17l2.34-1.17,3.52-1.17,2.34,3.52,1.17,3.52h1.17l2.34-1.17,2.34,5.86-2.34,5.86,1.17,1.17h1.17l3.52,2.34-1.17,1.17-1.17,1.17v3.52l-1.17,2.34h0l3.52,3.52,2.34,3.52h5.86l2.34-1.17,2.34-1.17h1.17l1.17-1.17,2.34,1.17,2.34,1.17h0l1.17-1.17,3.52,2.34,3.52,1.17V546.3h7l1.17,1.17v1.17h1.17l1.17,1.17h1.17v2.34h1.17L878,554.5l1.17,1.17,1.17,4.69,5.86,7h1.17v1.17l1.17,1.17v2.34l2.34,2.34,2.34,3.52,1.17,1.17,1.17,3.52h1.17l1.17,1.17v2.34L901.4,592l4.69-1.17,4.69-1.17h0l1.17,1.17h2.34V592h1.17l1.17-1.17,1.17,1.17v-1.17H919v-1.17l4.69,3.52,8.2,1.17H933l1.17-2.34,1.17-3.52,1.17-1.17h0V583.8l-1.17-3.52v-8.2l-1.17-1.17h-2.34v-1.17l-1.17-1.17-1.17,1.17h-1.17v-2.34h-1.17L926,568.56v-7l1.17-3.52,1.17-2.34V554.5l-1.17-2.34,3.52-2.34,3.52-2.34,1.17-1.17-1.17-1.17,1.17-2.34,1.17-1.17,2.34-1.17,2.34-1.17v-4.69l-1.17-2.34h0l5.86-1.17h4.69l1.17-1.17v-2.34l-1.17-2.34v-4.69L949.45,517l-3.52-1.17h-1.17L943.59,517l-3.52,1.17h-2.34l-1.17,2.34-2.34,2.34-4.69,2.34-2.34,1.17L926,527.55h-4.69L919,524l-2.34-2.34h-4.69l-3.52-1.17v-4.69l3.52-2.34v-7l1.17-1.17,1.17-1.17,2.34-2.34,2.34-2.34v-2.34h0Z" transform="translate(-1.54 -14.08)" fill="#d9dee2" stroke="#d9dee2" stroke-width="1.1"/><path id="vectormap1_BU" data-name="vectormap1 BU" d="M752.57,508.8h-2.34l-2.34-2.34v-2.34l-1.17,1.17h-7l-1.17-1.17-1.17-1.17-1.17,2.34-3.52,2.34h-5.86l-1.17-1.17h-1.17v-1.17h-1.17l-2.34,1.17-1.17,2.34h-1.17l-1.17-1.17L715.07,510l-3.52,2.34,1.17,5.86h2.34v2.34l2.34,1.17,1.17,2.34h-2.34v2.34l-2.34,9.38,1.17,9.38,3.52-12.89,2.34-4.69,3.52-1.17-1.17,15.23L720.92,558l-1.17,1.17-1.17,1.17v-3.52l-1.17-1.17L716.24,558l-1.17,2.34h3.52v2.34L717.41,565h-2.34l-2.34,3.52-3.52,4.69-14.06,5.86L694,582.63l-1.17,3.52-8.2,4.69L679.91,592l-1.17,1.17-3.52,3.52h-4.69l-1.17,1.17h-1.17v-4.69L667,590.83l-2.34-1.17v-2.34L663.5,585l-8.2-7-1.17,1.17H653l-1.17-2.34-1.17-3.52-5.86-3.52-4.69-3.52-1.17-3.52v-2.34L633,565l-4.69,3.52-1.17-1.17H626v5.86l-1.17,1.17v2.34l1.17,1.17v2.34l1.17,1.17,2.34,1.17,8.2,4.69,7,3.52h1.17l1.17,1.17,4.69,1.17,3.52,1.17v7l7,8.2,10.55,2.34,9.38-2.34,2.34-1.17h1.17l4.69,1.17,4.69,1.17h3.52l3.52,2.34,2.34,2.34h2.34l2.34,1.17v-4.69l2.34-3.52h2.34l2.34-2.34-2.34-1.17-2.34-2.34,1.17-2.34,2.34-2.34h0l-1.17-3.52,1.17-2.34h4.69l3.52,1.17h0l2.34-2.34,3.52-2.34h3.52l2.34,1.17,1.17-1.17,2.34-2.34,2.34-2.34,2.34-1.17,2.34-1.17,1.17-3.52,1.17-1.17h1.17l2.34,1.17,1.17-2.34,2.34-1.17,5.86-1.17,5.86-4.69-2.34-7-2.34-4.69,2.34-1.17V554.5l7-5.86,5.86-5.86,2.34-1.17,2.34-1.17h2.34l2.34-1.17v-8.2l-5.86-4.69L777.18,524v-4.69h0L776,517h0v-1.17h0l-1.17-2.34v-1.17h0V510l-1.17-1.17-1.17-1.17h-1.17l2.34-1.17-1.17-2.34,2.34-2.34H776l1.17-1.17-5.86-1.17-5.86,7-5.86,2.34-4.69-1.17-2.34,1.17h0Z" transform="translate(-1.54 -14.08)" fill="#d9dee2" stroke="#d9dee2" stroke-width="1.1"/><path id="vectormap1_KK" data-name="vectormap1 KK" d="M554.51,527.55l-2.34-2.34-2.34,1.17h-3.52l-3.52-3.52-3.52-3.52-1.17,1.17v5.86l-1.17,3.52-1.17,4.69h3.52l2.34,2.34-1.17,1.17-1.17,1.17,1.17,2.34L539.28,544h-1.17l-2.34,2.34v2.34l1.17,3.52-1.17,2.34,1.17,2.34,1.17,3.52-4.69,3.52-4.69,2.34-2.34,2.34L524,569.73v3.52l-1.17,1.17v1.17l1.17,3.52,3.52,1.17,2.34-1.17,2.34-1.17,4.69,1.17h4.69v-5.86l3.52-1.17,3.52-1.17,1.17-3.52,2.34-2.34,1.17-1.17h2.34l2.34-4.69V558l2.34-1.17,2.34-2.34v-1.17l-1.17-1.17L560.37,551v-1.17h0l-1.17-1.17,2.34-5.86-2.34-7-1.17-7-3.52-1.17h0Z" transform="translate(-1.54 -14.08)" fill="#d9dee2" stroke="#d9dee2" stroke-width="1.1"/><path id="vectormap1_KEM" data-name="vectormap1 KEM" d="M529.9,497.08h-8.2l-1.17,1.17-1.17-1.17h-1.17l-2.34,2.34-1.17,1.17H513.5l-1.17-1.17L510,500.59h-2.34l-1.17,2.34v1.17l1.17,3.52v3.52l1.17,1.17-1.17,2.34L506.46,517l1.17,2.34v2.34l-1.17,1.17-1.17,2.34,2.34,2.34,1.17,2.34,1.17,1.17h1.17v2.34l1.17,1.17,1.17,1.17,1.17,1.17v3.52l1.17,2.34,2.34,1.17,1.17,1.17-1.17,1.17L517,548.64v1.17h1.17V551L517,552.16l1.17,2.34V558l2.34,2.34,1.17,1.17h1.17l1.17-1.17,1.17,1.17,1.17,1.17h1.17l1.17-1.17v4.69l4.69-2.34,4.69-3.52-1.17-3.52-1.17-2.34,1.17-2.34-1.17-3.52,1.17-2.34,1.17-2.34,2.34-1.17v-1.17l-1.17-2.34,1.17-1.17,1.17-1.17-2.34-2.34h-3.52l1.17-4.69,2.34-3.52-1.17-1.17v-4.69l1.17-1.17,3.52-3.52,3.52-1.17v-1.17l-1.17-10.55L544,501.76l-1.17-1.17,1.17-2.34h1.17L544,497.08V495.9h-4.69l-3.52,2.34-2.34-1.17-2.34-1.17-1.17,1.17h0Z" transform="translate(-1.54 -14.08)" fill="#d9dee2" stroke="#d9dee2" stroke-width="1.1"/><path id="vectormap1_NVS" data-name="vectormap1 NVS" d="M447.87,466.61l-2.34-1.17-2.34-2.34L442,465.43v1.17L440.84,469v2.34l-2.34,1.17-1.17,2.34,1.17,2.34v2.34h-4.69l-2.34,1.17L429.12,483h-2.34v2.34l1.17,1.17-2.34,2.34-1.17,5.86,1.17,2.34,1.17,3.52v1.17l-1.17,1.17-1.17,2.34-1.17,3.52h4.69l1.17-1.17,1.17-1.17,1.17,1.17H435L432.63,510l-2.34,1.17,3.52,7,4.69,8.2,1.17-2.34,2.34-1.17,1.17,1.17v1.17l2.34-1.17h2.34l3.52,1.17h3.52l1.17-1.17h0l8.2-3.52,7-2.34v1.17l1.17,3.52,1.17,1.17v2.34h1.17l1.17,1.17-1.17,1.17h-1.17l5.86,7,3.52-3.52,5.86-3.52v2.34h2.34v-2.34h9.38l1.17-1.17,3.52-2.34,1.17-2.34,1.17-1.17v-2.34L506.46,517l1.17-2.34,1.17-2.34-1.17-1.17v-3.52l-1.17-3.52v-1.17l1.17-2.34h-5.86l-1.17-1.17-1.17,3.52-2.34,1.17h-1.17v-1.17h0l-1.17-1.17,1.17-1.17,1.17-1.17v-8.2h-3.52l-1.17,1.17v1.17l-1.17-1.17h-7l-1-4.69-8.35-1.17L469,477.2l-8.23-4.63,1.09-1.21Z" transform="translate(-1.54 -14.08)" fill="#d9dee2" stroke="#d9dee2" stroke-width="1.1"/><path id="vectormap1_ALT" data-name="vectormap1 ALT" d="M495.92,528.72h-4.69v2.34h-1.17l-1.17-2.34L483,532.23l-3.52,3.52-4.69-7h0l1.17-1.17-1.17-1.17h-1.17V524l-1.17-1.17-1.17-3.52v-1.17l-7,2.34-8.2,3.52h0l-1.17,1.17h-3.52L447.87,524h-2.34l-1.17,1.17-1.17-2.34H442L440.84,524l-2.34,2.34,8.2,42.19,4.69-1.17V565h2.34v-1.17l1.17-1.17,2.34,5.86,2.34,4.69,4.69,1.17,2.34,1.17h4.69v-1.17h3.52l1.17-1.17,4.69,3.52,2.34,4.69h3.52v-4.69l-2.34-2.34-2.34-2.34,2.34-1.17,2.34,1.17v-1.17h1.17l2.34-1.17h8.2l1.17-1.17,1.17-1.17h2.34l1.17-2.34,1.17-2.34,1.17,1.17,1.17,1.17h3.52l1.17,1.17,2.34-2.34-1.17-2.34,1.17-2.34,3.52-1.17V554.5L517,552.16l1.17-1.17v-1.17L517,548.64h0l1.17-2.34,1.17-2.34h-1.17l-2.34-1.17-1.17-2.34v-3.52l-1.17-1.17-1.17-1.17-1.17-1.17v-2.34H510l-2.34-1.17v-2.34l-2.34-2.34-3.52,2.34-1.17,1.17h-2.34l-2.34-1.17v1.17Z" transform="translate(-1.54 -14.08)" fill="#d9dee2" stroke="#d9dee2" stroke-width="1.1"/><path id="vectormap1_DA" data-name="vectormap1 DA" d="M110.71,495.9l-2.46-3.52-3.52-5.86-1.88-1.17L102,484.19l-2.11,1.17-3.28,2.34L95,486.53l-1.76,1.17H94L93.72,490h-4l1.76,1.17-0.59,3.52h0.59l0.23,1.17,0.12,1.17,1.64,1.17H95l-0.35,1.17-0.12,1.17h4l0.59,2.34-0.35,2.34-2.58,1.17-2.93,1.17-2,3.52-1.17,2.34H85.87l-0.47,1.17-1.29-1.17H81.53l-2.46,1.17-1.41,1.17-1.76,2.34L78.25,524l3,4.69,0.82,8.2,2.58,7h2.81l3-1.17h4l3.4-2.34V529.89l1.17-10.55,6.68-5.86,2.93-1.17-0.47-1.17h-1.64l0.47-3.52,0.47-3.52-1.76-5.86,4.92-2.34h0Z" transform="translate(-1.54 -14.08)" fill="#d9dee2" stroke="#d9dee2" stroke-width="1.1"/><path id="vectormap1_STA" data-name="vectormap1 STA" d="M88,452.54l-3.28-1.17,0.7-1.17L85,449H83.52l-1.41,1.17L81.88,449,82,447.86H80.83L80,446.68l-2-2.34-2.34-1.17-0.59,2.34-0.59,1.17-2.11-1.17-1.76-1.17-1.52,2.34-0.94,3.52,1.05,3.52-0.7,2.34,0.94,1.17-1.76,2.34-1.88,1.17-0.47-1.17H64.77l0.12,4.69,1.88,2.34,1.52,3.52h1.64l1.52,1.17L71,472.47h-2.7l-2,1.17,0.47,1.17h1.29L67.12,476l-1.41,2.34h2.7l3,1.17L72,480.67l-0.23,1.17,3.28,2.34h2.58l2.23,2.34,1.29,1.17h0.59l-0.94,1.17H79.65l2.93,2.34,0.47,3.52,2.58-1.17,1.76-1.17,0.47,1.17,0.94,1.17h2.11l0.59-3.52L89.73,490h4L94,487.7h-0.7L95,486.53l1.64,1.17,3.28-2.34,2.11-1.17-0.94-5.86-2.7-5.86-1.64-2.34-0.7-2.34,0.47-2.34,0.35-3.52-1.41-2.34-1.76-2.34-0.94-2.34-1.05-2.34H88Z" transform="translate(-1.54 -14.08)" fill="#d9dee2" stroke="#d9dee2" stroke-width="1.1"/><path id="vectormap1_KB" data-name="vectormap1 KB" d="M72,480.67l-0.59-1.17-3-1.17h-6l-4.57,3.52L61,486.53l1.64,5.86h1.05l1.05,1.17,2.7-1.17L70,491.22,71,492.39l0.7,1.17L73,492.39h1.17l0.94,1.17h1.41l1.76-1.17,1.41-3.52h1.17l0.94-1.17H81.18l-1.29-1.17-2.23-2.34H75.08l-3.28-2.34Z" transform="translate(-1.54 -14.08)" fill="#d9dee2" stroke="#d9dee2" stroke-width="1.1"/><path id="vectormap1_KC" data-name="vectormap1 KC" d="M66.76,466.61l-1.88-2.34H63l0.12,1.17-4.22,2.34L57,465.43l-1.88-3.52-4,2.34-3.87,2.34,4.1,8.2,6.45,7,4.57-3.52h3.28L67.12,476l0.94-1.17H66.76l-0.47-1.17,2-1.17H71l0.47-1.17-1.52-1.17H68.29l-1.52-3.52h0Z" transform="translate(-1.54 -14.08)" fill="#d9dee2" stroke="#d9dee2" stroke-width="1.1"/><path id="vectormap1_ROS" data-name="vectormap1 ROS" d="M119,397.46h-0.94l-0.82,1.17-5,1.17-4.8-1.17-2.7-2.34L101,399.81l-4.92-1.17-0.82,1.17v2.34h0.94l0.7,1.17h-5l-0.35,1.17,0.35,1.17L90.91,408l-0.82,1.17L88,411.53l-3,1.17-3.75-2.34-3.63-3.52H73l-2.11-1.17L67.94,408l-3.16,2.34,2,1.17,1.05,1.17,3.4,1.17L73.8,415l-0.23,1.17h-0.7l-0.94,2.34-0.7-1.17H70l-2.11-1.17H66.06l-0.23,1.17,0.47,1.17-1.52,1.17-0.59,1.17,3.63,1.17,5.27,2.34,1.41,1.17L75,427.93l-1.05,1.17H73.09l0.23,1.17,0.47,1.17-0.47,1.17-0.59,1.17,2.7,4.69h2l-0.59,1.17h-0.7L76.26,442l-0.59,1.17L78,444.34l2,2.34,4.22-1.17,3.16-1.17,5,3.52,3.63,8.2,2.11,1.17,1.76-1.17,0.59,1.17H101l1.29-1.17,0.94-2.34h6l0.23-1.17h0.23l3.28-3.52,1.64-3.52h-3.52l-2-1.17,0.7-1.17-0.7-1.17-0.82-1.17h-1.88l0.59-1.17v-1.17h-2l0.23-1.17,0.94-5.86-1.76-3.52-1.17-2.34,0.59-1.17H105l1.41-1.17,1.52-1.17,3.87,1.17L116,420.9l-0.23-3.52L115.16,415l-0.7-1.17H114l3.28-3.52,3.16-2.34-1.17-5.86L119,397.46h0Z" transform="translate(-1.54 -14.08)" fill="#d9dee2" stroke="#d9dee2" stroke-width="1.1"/><path id="vectormap1_SAM" data-name="vectormap1 SAM" d="M226.38,401L224,397.46,222.86,401l-2.34,2.34h-2.34L217,404.5h0l-3.52-2.34-2.34-2.34H208.8l-2.34-1.17h-1.17l-2.34,1.17h-3.52l-2.34,5.86-2.34,3.52v1.17l1.17,2.34V415l1.17,1.17,2.34,1.17v3.52h1.17v3.52h0l1.17,1.17,1.17,4.69,1.17,3.52,9.38-1.17,3.52-3.52,4.69-2.34,1.17-1.17h2.34l2.34-2.34,2.34-3.52,2.34-1.17,2.34-1.17,2.34-4.69,3.52-1.17-2.34-2.34h-1.17v-3.52l-1.17-1.17-2.34-2.34h-2.34l-2.34,1.17-2.34-3.52V401Z" transform="translate(-1.54 -14.08)" fill="#d9dee2" stroke="#d9dee2" stroke-width="1.1"/><path id="vectormap1_ME" data-name="vectormap1 ME" d="M239.27,358.79v-1.17l-2.34-1.17-1.17-1.17h-1.17l-1.17,1.17-1.17-1.17-1.17-1.17h-3.52l-1.17-2.34-1.17-1.17L224,349.42l-3.52-2.34h-4.69l-1.17,1.17-1.17-1.17h-1.17l-1.17,2.34,1.17,2.34h-1.17L210,354.1l1.17,1.17L210,357.62h3.52l1.17,1.17,5.86,1.17,1.17,3.52v1.17l1.17,1.17v2.34l1.17,3.52h2.34l2.34-1.17h3.52v-1.17h4.69l3.52,2.34,2.34-1.17h0l1.17-1.17,1.17-1.17L244,367v-4.69h-1.17l-1.17-1.17,1.17-2.34v-1.17h-2.34l-1.17,1.17h0Z" transform="translate(-1.54 -14.08)" fill="#d9dee2" stroke="#d9dee2" stroke-width="1.1"/><path id="vectormap1_CU" data-name="vectormap1 CU" d="M214.66,358.79l-1.17-1.17H210l-1.17,1.17L206.46,360h0v3.52l1.17,2.34h-3.52L201.77,367v1.17H200.6v1.17h1.17L200.6,374l2.34,3.52,3.52,2.34,1.17-1.17h1.17l1.17,1.17h4.69l1.17-3.52-1.17-1.17V374l5.86-1.17h0v-1.17H224l-1.17-3.52v-2.34l-1.17-1.17v-1.17L220.52,360l-5.86-1.17h0Z" transform="translate(-1.54 -14.08)" fill="#d9dee2" stroke="#d9dee2" stroke-width="1.1"/><path id="vectormap1_NIZ" data-name="vectormap1 NIZ" d="M220.52,327.15l-2.34,2.34h-4.69l-4.69-2.34v1.17h-1.17l-2.34,1.17-1.17,2.34L201.77,333l-2.34-1.17-2.34-1.17L194.74,333l-1.17,1.17L192.39,333h-1.17v2.34L190,336.52v1.17h-5.86l-3.52,1.17-3.52,2.34-4.69,1.17v2.34H171.3v1.17h1.17l2.34,1.17v2.34l-1.17,1.17,2.34,2.34,1.17,1.17h2.34l2.34,1.17,2.34,8.2,2.34,4.69,2.34-1.17,2.34-1.17V367h1.17l2.34-1.17,3.52-1.17,1.17,1.17L198.25,367l1.17,1.17h2.34V367l2.34-1.17h3.52l-1.17-2.34V360h0l2.34-1.17,1.17-1.17,1.17-2.34L210,354.1l1.17-2.34h1.17l-1.17-2.34,1.17-2.34h1.17l1.17,1.17,1.17-1.17L217,345.9l3.52,1.17,3.52,2.34,1.17-1.17,1.17-1.17,1.17-2.34,1.17-1.17,4.69,2.34,2.34-1.17,2.34-1.17h0l1.17-1.17-3.52-4.69L232.24,333l-4.69-1.17h-2.34v-2.34L221.69,326Z" transform="translate(-1.54 -14.08)" fill="#d9dee2" stroke="#d9dee2" stroke-width="1.1"/><path id="vectormap1_MOS" data-name="vectormap1 MOS" d="M146.69,290.82L145.52,292h-1.17l-2.46,1.17-3.28,1.17-2,4.69-4.45,4.69,1.76,1.17h1.29l1.05,2.34,1.17,2.34,3.63,1.17,1.17,5.86-1.17,1.17-0.94,2.34h0l2.46,3.52h1.76v4.69l1.17,1.17h-1.17l-1.76,2.34,0.12,2.34h1.64l2.34-1.17,1.17-1.17L149,333h1.17l2.34-1.17h7v-1.17l2.34,1.17h2.34l2.34-7-2.34-2.34-1.17-1.17h0l-1.17-2.34-1.17-1.17,2.34-7,3.52-5.86,1.17-1.17-1.17-2.34L165.44,299h-3.52l-2.34-1.17L158.41,299h-1.17l-1.17-1.17-3.52-1.17L149,295.51l-1.17-2.34-1.17-2.34h0Zm5.86,12.89,3.52,1.17,2.34,4.69-2.34,3.52-3.52,2.34-4.69-2.34-1.17-3.52,1.17-4.69,4.69-1.17h0Z" transform="translate(-1.54 -14.08)" fill="#d9dee2" stroke="#d9dee2" stroke-width="1.1"/><path id="vectormap1_KLU" data-name="vectormap1 KLU" d="M137.43,309.57l-1.17-2.34-1.05-2.34h-1.29l-1.76-1.17-9,2.34L122,304.88l-1.05-1.17-1.05,1.17h-2l-1.76-3.52-2.46-1.17-1.05,1.17-0.82,1.17h-1.88l-2,1.17,0.7,5.86,1.17,4.69-1.88,2.34-1.17,1.17,2.7,4.69,4.69,1.17,4.69,1.17,0.82-1.17,0.59-1.17,2-1.17h2.34l0.47-1.17h0.35l2.7,1.17,2.81,1.17h0.59l0.94,1.17,1.29-1.17,0.35-1.17h3l1.64-1.17,1.41-1.17,0.94-1.17,1.17-2.34-1.17-4.69-3.63-2.34v1.17Z" transform="translate(-1.54 -14.08)" fill="#d9dee2" stroke="#d9dee2" stroke-width="1.1"/><path id="vectormap1_BEL" data-name="vectormap1 BEL" d="M107,368.17l1.88-1.17,0.23-2.34L108,362.31,107,361.13l-7-3.52-5.51-2.34-1.29-2.34-1.05-1.17H87.86l-2.23-2.34-4.22,7,1.52,1.17L85.28,360l0.59,2.34,0.82,2.34,0.12,1.17L90.67,367l3.75,2.34H94L93.13,374v3.52l1.52,1.17,1.52-1.17,1.41,4.69,2.81,4.69,0.82-1.17,1.05-1.17,1.17-2.34,1.76-3.52h1.17l1.17-1.17-0.23-2.34v-3.52H109l1.17-2.34h-1.64L107,367v1.17Z" transform="translate(-1.54 -14.08)" fill="#d9dee2" stroke="#d9dee2" stroke-width="1.1"/><path id="vectormap1_ZAB" data-name="vectormap1 ZAB" d="M791.24,477.15L787.72,476l-2.34,2.34,2.34,2.34-1.17,1.17h-1.17v3.52h-1.17v1.17l1.17,8.2h2.34v7h-1.17l-1.17-1.17L783,502.94l-1.17,1.17-2.34-1.17h-4.69l-2.34,1.17v2.34l-1.17,1.17h1.17l1.17,1.17,1.17,1.17v2.34l-1.17,1.17h1.17l1.17,2.34h0V517h0l1.17,2.34L776,520.51h0l1.17,3.52,3.52,2.34,5.86,4.69v9.38h-2.34l-3.52,1.17h-1.17l-2.34,1.17-5.86,5.86-7,5.86-1.17,1.17-1.17,1.17,2.34,4.69,2.34,7-5.86,4.69-7,1.17-1.17,1.17-2.34,2.34-1.17-1.17h-1.17l-1.17,2.34-1.17,2.34-2.34,1.17-3.52,1.17-1.17,2.34-2.34,2.34L735,589.66l-2.34-1.17h-3.52l-3.52,2.34-2.34,2.34H722.1L719.75,592h-4.69l-1.17,2.34,1.17,3.52h0V599l-2.34,1.17-2.34,2.34,3.52,2.34,2.34,2.34-2.34,1.17h-2.34l-2.34,3.52v4.69l2.34,2.34,4.69,4.69,8.2,1.17,8.2,1.17h1.17l1.17-1.17,1.17,1.17h2.34l2.34-1.17,3.52-2.34,8.2-2.34,8.2-2.34,2.34-4.69,8.2-7,5.86,1.17,4.69,2.34h4.69l7-1.17,5.86,3.52,8.2,1.17,2.34-3.52,3.52-3.52,3.52-2.34,2.34-2.34V599h-1.17v-1.17l2.34-9.38,2.34-10.55,3.52-4.69,2.34-4.69-1.17-1.17-1.17-1.17v-2.34l-1.17-1.17-3.52,1.17-1.17-3.52,1.17-2.34,3.52-3.52v-1.17l1.17-1.17,4.69-2.34,5.86-3.52-2.34-3.52-3.52-3.52h0l1.17-2.34v-3.52l1.17-1.17,1.17-1.17-3.52-2.34h-1.17l-1.17-1.17,2.34-5.86-2.34-5.86L826.4,517h-1.17l-1.17-3.52L821.71,510l-3.52,1.17-2.34,1.17v1.17h-1.17l-2.34-2.34v-2.34h1.17l1.17-1.17-2.34-1.17L810,505.28l-1.17-1.17v-2.34h-2.34l1.17-4.69-3.52-4.69L803,487.7h-1.17l-1.17,1.17h0l-2.34-4.69v-7l-4.69,1.17-2.34-1.17h0Z" transform="translate(-1.54 -14.08)" fill="#d9dee2" stroke="#d9dee2" stroke-width="1.1"/><path id="vectormap1_PRI" data-name="vectormap1 PRI" d="M1018.59,587.31h-3.52l-2.34-1.17V583.8l1.17-2.34-1.17-2.34-2.34-2.34-1.17-1.17h0l-3.52,2.34-3.52,3.52h-2.34v1.17l1.17,1.17,1.17,1.17v1.17l1.17,1.17H1008l-2.34,7-4.69,2.34v4.69l-4.69,3.52-5.86,2.34-1.17-1.17-1.17-1.17-1.17,1.17-1.17,1.17v-2.34l-1.17-1.17-1.17,1.17-1.17-1.17h-1.17l-2.34,3.52-1.17,3.52v2.34l-2.34,2.34v12.89l-1.17,2.34,1.17,2.34-1.17,1.17-1.17,2.34,1.17,3.52-2.34,2.34h-9.38l-3.52,1.17-1.17,4.69-2.34,1.17-1.17,1.17,1.17,2.34,1.17,2.34,3.52,7,1.17,7,1.17,1.17v1.17l-1.17,8.2-3.52,1.17-1.17,2.34h1.17l1.17,1.17,1.17,2.34,1.17,2.34,1.17-2.34v-1.17l-1.17-1.17L960,683.41h5.86v-2.34l1.17-4.69,2.34-3.52-1.17-1.17,1.17-1.17h1.17V674l1.17-1.17,1.17-1.17,1.17-1.17v-1.17l1.17,3.52v2.34h1.17V674h1.17l1.17,1.17,1.17-1.17h0l2.34,1.17,1.17,1.17h0V674l1.17,1.17h0l2.34-1.17,2.34-2.34,7-7,4.69-8.2,1.17-1.17v-2.34h1.17v-4.69l1.17-3.52v-2.34l2.34-2.34,1.17-5.86,2.34-7,2.34-7,2.34-5.86,1.17-5.86,1.17-7v-5.86l1.17-4.69v-3.52Z" transform="translate(-1.54 -14.08)" fill="#d9dee2" stroke="#d9dee2" stroke-width="1.1"/><path id="vectormap1_KAM" data-name="vectormap1 KAM" d="M1128.75,315.43h-2.34v14.06h1.17V326l1.17-2.34v-2.34l1.17-1.17,1.17-2.34Zm4.69-73.83-1.17,1.17v3.52h-2.34l-1.17,1.17-1.17,1.17-3.52-1.17-4.69-1.17h-4.69l-4.69,1.17-1.17-7-1.17-5.86h-5.86l-1.17-1.17h-2.34l-3.52,1.17-3.52,1.17v-1.17h-3.52l-2.34,1.17h0l-1.17,1.17-2.34,2.34-2.34,1.17h-1.17l-4.69,1.17v1.17l-1.17,1.17h-2.34l-2.34,1.17-1.17,1.17-2.34,1.17,1.17,3.52,1.17,1.17,2.34,4.69v4.69l2.34,3.52,3.52,3.52v2.34l1.17,2.34v1.17l1.17,2.34,2.34,2.34,4.69,2.34,1.17,3.52-1.17,1.17,1.17,1.17h1.17v3.52l1.17,1.17,1.17,2.34h1.17l1.17-1.17V292l1.17,1.17h2.34v-3.52h-3.52L1088.9,285v-2.34l-1.17-1.17-1.17-3.52,3.52-2.34,1.17-3.52h5.86l-2.34,2.34-1.17,4.69,2.34,3.52,2.34,3.52v2.34l1.17,2.34h2.34l1.17,3.52v2.34l1.17,1.17,1.17,1.17-1.17,2.34-2.34,2.34h0v3.52l-1.17,1.17-1.17,2.34v3.52l1.17,1.17-1.17,7v5.86l-1.17,1.17v1.17l-1.17,4.69V340l1.17,1.17,1.17,1.17v1.17l-1.17,1.17v7l-1.17,4.69-1.17,4.69-1.17,2.34-1.17,1.17v3.52l-2.34,1.17-2.34,1.17,2.34,1.17,2.34,3.52v7l-1.17,5.86,2.34,7,3.52,7,16.41,22.27,21.09,21.09,3.52,5.86,4.69,4.69,3.52,2.34h0l1.17-5.86v-5.86l1.17-1.17L1151,442l-1.17-10.55-2.34-2.34h-1.17v-2.34l-1.17-2.34H1144l-1.17-1.17,1.17-1.17,2.34,1.17h0l3.52-8.2,2.34-1.17h1.17V412.7L1147.5,408l-2.34-7v-5.86l3.52-5.86h1.17l1.17,1.17,2.34-4.69v-3.52l-3.52-2.34-3.52-2.34-3.52-8.2,1.17-8.2V360l-1.17-1.17,1.17-2.34,1.17,1.17v3.52h2.34l1.17-3.52-5.86-4.69v-1.17l-1.17,1.17-1.17,1.17-3.52-3.52-2.34-3.52v-3.52l-1.17-3.52h-5.86l-1.17,1.17,1.17,1.17-2.34,1.17-2.34-1.17-3.52-10.55v-7l-1.17-1.17h1.17v-1.17h-1.17v-3.52l-1.17-1.17h-1.17l-1.17-5.86,2.34-4.69,1.17-1.17-1.17-1.17h3.52l2.34,1.17,1.17-3.52-2.34-1.17V300.2l2.34-4.69,1.17-4.69,1.17,1.17,4.69,7v-8.2l1.17-5.86,3.52-7,4.69-2.34,5.86-2.34,4.69,2.34h3.52l-1.17-3.52-2.34-3.52,1.17-2.34,1.17-3.52v-5.86l1.17-1.17-1.17-2.34h-1.17l1.17-1.17h1.17l-1.17-1.17-1.17-1.17h1.17l1.17-3.52-1.17-1.17h-1.17l1.17-1.17,1.17-1.17v-3.52h-1.17v-2.34h1.17l1.17-2.34v-2.34l1.17-1.17-1.17-1.17v-1.17h-2.34l-2.34,1.17-2.34-2.34-1.17-1.17-11.72,14.06-2.34,1.17h0Z" transform="translate(-1.54 -14.08)" fill="#d9dee2" stroke="#d9dee2" stroke-width="1.1"/><path id="vectormap1_MAG" data-name="vectormap1 MAG" d="M1036.17,255.66H1035l-2.34,1.17h-3.52l-1.17-4.69h0l-2.34-1.17h-3.52v2.34l-2.34,1.17-1.17,3.52-1.17,2.34h-1.17l-2.34-1.17-1.17,1.17-1.17,1.17-3.52,1.17-4.69,1.17v2.34h-3.52v2.34l1.17,2.34-1.17,2.34-1.17,2.34v3.52l2.34,1.17-2.34,3.52v5.86L1001,292l2.34,1.17-1.17,2.34v1.17h1.17V299H1001l-1.17,3.52-1.17,2.34-1.17,1.17-2.34,1.17v1.17L994,310.74l-3.52-1.17-4.69-2.34-1.17,2.34-2.34,2.34h-2.34l-2.34,1.17,2.34,3.52-1.17,3.52-1.17,1.17-1.17-1.17-1.17,1.17-1.17,1.17-2.34,1.17h-2.34l-1.17,3.52L967,331.84l1.17,10.55,2.34,2.34,3.52,2.34v1.17l-1.17,2.34,1.17,1.17v2.34l-1.17,2.34v4.69l5.86-1.17,4.69-1.17,7,4.69,3.52,7h-1.17V374L994,375.2l-3.52,1.17v5.86h8.2l4.69,2.34,3.52,3.52v3.52l3.52-1.17h1.17l2.34-2.34,2.34-2.34h2.34l3.52-1.17h0l-1.17-1.17h-1.17v-2.34h1.17v-4.69l3.52-1.17L1028,374h3.52v1.17h2.34v-2.34l3.52-2.34,2.34,1.17,2.34,1.17,2.34-1.17h1.17v1.17h-1.17L1042,375.2l-2.34,1.17,1.17,3.52H1042l2.34-1.17,2.34-3.52,1.17-1.17h2.34l2.34-1.17h0v-3.52l1.17-2.34h0l3.52-1.17h2.34l1.17-1.17v-2.34h3.52l-1.17-1.17h1.17l1.17-1.17h0l-1.17-2.34-2.34-1.17-2.34,1.17-1.17,1.17V360l-1.17,1.17h-1.17v-4.69h-1.17l-1.17-1.17V354.1l1.17-1.17h-1.17v-7l2.34-4.69,1.17-5.86-1.17-1.17v-4.69l1.17-2.34h0l-1.17-2.34-1.17-2.34,2.34-4.69,1.17-3.52h2.34l1.17-1.17,4.69-7h3.52l2.34,1.17,1.17-3.52v-2.34l2.34,2.34,1.17,2.34v4.69l1.17,1.17,1.17,1.17v1.17l1.17,1.17,1.17-1.17,1.17-1.17,1.17,2.34,1.17,3.52,2.34-11.72,2.34-12.89h-1.17l-1.17-2.34-1.17-1.17V287.3h-1.17l-1.17-1.17v-4.69l-4.69-2.34-3.52-2.34v-3.52l-1.17-2.34v-2.34l-3.52-3.52-2.34-3.52v-4.69l-2.34-4.69-2.34-1.17-2.34,1.17-2.34,3.52h-5.86l-4.69-1.17-3.52,2.34H1042l-2.34-1.17h-3.52Z" transform="translate(-1.54 -14.08)" fill="#d9dee2" stroke="#d9dee2" stroke-width="1.1"/><path id="vectormap1_VOR" data-name="vectormap1 VOR" d="M121.84,361.13V360L119,358.79l-3.28-1.17h0l0.23,1.17-0.7,1.17v1.17h-1.76L112,360l-1.29,2.34-1.64,2.34L108.84,367,107,368.17l1.52,1.17h1.64L109,371.68h-1.64v3.52l0.23,2.34-1.17,1.17H105.2l-1.76,3.52-1.17,3.52h-0.94l-0.94,1.17,1.29,7,2.11,1.17,0.94,1.17,2.7,2.34,4.8,1.17,5-1.17,0.82-1.17H119l2.58-1.17,2.46-2.34-0.35-2.34,0.12-2.34h2.93l2.81,1.17,1.76-1.17h1.52l1.05,2.34,1.29,1.17,3,1.17,2.58,1.17,1.64-4.69-0.23-3.52-1.52-1.17,0.23-1.17h-1.76L138,382.23l-1.29-2.34-2.46-1.17-2.11-1.17,0.35-1.17,0.59-2.34-1.17-1.17L131,371.68l-3.16-3.52-2.93-2.34,0.35-1.17-1.05-2.34h-1.41l-1.05-1.17h0.12Z" transform="translate(-1.54 -14.08)" fill="#d9dee2" stroke="#d9dee2" stroke-width="1.1"/><path id="vectormap1_SMO" data-name="vectormap1 SMO" d="M134.5,287.3L130,286.13,123.84,285l-4.57-5.86-4.92-5.86-1.64-2.34h-2.46l-1.52,1.17-2.58,2.34-3.52,3.52H100.4l-0.12,2.34,0.23,1.17h0.35l0.12,1.17H99.93l-1.17,1.17-1.05,2.34-0.47,3.52L97.7,292l-0.12,1.17-1.17,1.17L95,295.51l0.7,1.17L97,297.85l0.35,3.52-1.17,1.17,0.23,2.34-0.47,1.17h2.58l1.17-1.17h4.1l4.1-1.17,2-1.17h1.88l0.82-1.17,1.05-1.17,2.46,1.17,1.76,3.52h2l1.05-1.17,1.05,1.17,1.17,1.17,9-2.34,4.45-4.69,2-4.69-1.52-1.17-1.76-2.34-0.47-1.17Z" transform="translate(-1.54 -14.08)" fill="#d9dee2" stroke="#d9dee2" stroke-width="1.1"/><path id="vectormap1_lake-onega" data-name="vectormap1 lake-onega" d="M198.38,241.15l2.38-1.19,1.19-3.56-1.19-5.94,1.19-5.94v1.19h1.19l1.19-2.38,1.19-2.38v3.56h1.19l1.19-3.56,1.19-2.38v3.56h0l1.19-2.38,1.19-1.19-1.19,3.56-2.38,4.75h1.19l1.19-2.38v1.19l2.38,1.19,2.38-4.75V221h-1.19v-1.19L212.64,221h0l1.19-3.56,1.19-3.56,1.19,10.69-5.94,8.32-1.19,3.56-1.19,4.75v1.19l-3.56,1.19-4.75,1.19-1.19-1.19-1.19-2.38h1.19Z" transform="translate(-1.54 -14.08)" fill="#d9dee2" stroke="#d9dee2" stroke-width="1.1"/><path id="vectormap1_lake-ladoga" data-name="vectormap1 lake-ladoga" d="M178.19,230.46L177,229.27l-2.38,2.38-3.56,1.19-2.38-3.56h-3.56l-2.38-1.19-1.19-1.19h1.19l1.19-2.38,1.19-2.38,2.38-5.94,3.56-4.75v-5.94l1.19,1.19h8.32l1.19-1.19h0l1.19,11.88-3.56,13.07h-1.19Z" transform="translate(-1.54 -14.08)" fill="#d9dee2" stroke="#d9dee2" stroke-width="1.1"/><path id="vectormap1_lake-rybinsk" data-name="vectormap1 lake-rybinsk" d="M188.88,287.48L187.69,291l-2.38,2.38v-3.56L181.75,291l-1.19-1.19,1.19-1.19h1.19l-1.19-7.13,1.19-7.13h0v7.13l1.19,1.19h2.38l1.19-1.19V278l1.19-3.56,1.19,1.19L188.88,278v9.5Z" transform="translate(-1.54 -14.08)" fill="#d9dee2" stroke="#d9dee2" stroke-width="1.1"/><path id="vectormap1_lake-baykal" data-name="vectormap1 lake-baykal" d="M718.7,532.19l2.38-4.75,3.56-1.19-1.19,15.44-2.38,16.63-1.19,1.19-1.19,1.19v-3.56L717.51,556l-1.19,2.38-1.19,2.38h3.56v2.38l-1.19,2.38h-2.38L712.76,569l-3.56,4.75-14.26,5.94-1.19,3.56-1.19,3.56-8.32,4.75-4.75,1.19L678.31,594v-1.19L670,590.4l3.56-1.19,5.94-2.38-1.19-1.19-2.38-1.19v-1.19l-1.19-1.19V580.9l3.56,3.56,4.75,2.38,14.26-15.44,17.82-26.13Z" transform="translate(-1.54 -14.08)" fill="#d9dee2" stroke="#d9dee2" stroke-width="1.1"/><path id="vectormap1_SVE" data-name="vectormap1 SVE" d="M361.15,351.76l-3.52-2.34-3.52-2.34v-3.52l-1.17-1.17v-1.17l-2.34,1.17v1.17l-3.52,4.69-2.34,4.69v2.34l-5.86,5.86L333,367l-2.34,1.17-2.34,1.17-3.52,3.52,2.34,5.86-2.34,3.52v4.69h0l-3.52,3.52-5.86,1.17-1.17,3.52v2.34h-3.52l-2.34-2.34-2.34,2.34L303.72,401h-5.86l-2.34,1.17h0v1.17l-1.17,3.52L292,409.18v3.52h1.17l1.17,1.17,4.69,2.34,3.52,2.34h1.17l1.17-1.17h2.34v1.17l5.86,4.69,5.86,3.52,1.17-1.17h1.17l2.34,1.17,1.17,1.17v1.17l1.17,2.34,3.52-2.34,3.52-1.17,2.34,1.17,2.34,2.34h2.34l1.17,1.17,2.34,2.34,3.52-2.34h5.86L351.77,435h2.34l1.17-1.17h-1.17v-1.17l1.17-5.86,2.34-4.69L360,420.9h3.52v1.17h4.69l2.34-1.17v-4.69l1.17-2.34v-3.52l-1.17-1.17V398.64L367,396.29l-3.52-3.52,1.17-3.52,1.17-4.69v-2.34l-1.17-1.17h0V375.2l1.17-4.69,2.34-4.69-2.34-3.52L364.66,360l-3.52-8.2h0Z" transform="translate(-1.54 -14.08)" fill="#d9dee2" stroke="#d9dee2" stroke-width="0.93"/><path id="vectormap1_PER" data-name="vectormap1 PER" d="M313.1,337.7l-2.34-2.34L308.41,333h-2.34l-2.34-1.17-1.17-1.17,1.17-2.34L301.38,326H299l-7-2.34-2.34,5.86,1.17,3.52-2.34,1.17,4.69,5.86,4.69,2.34-3.52,4.69-5.86,3.52v3.52l2.34,2.34-1.17,1.17-1.17,3.52-2.34,1.17L285,364.65l-3.52,10.55-4.69,10.55-1.17,1.17-1.17-1.17v1.17l-1.17,1.17h-1.17l-1.17,1.17v5.86l1.17-1.17h1.17l1.17,3.52,1.17,2.34,3.52,1.17h3.52v1.17l1.17,1.17L285,404.5h1.17l1.17,3.52v1.17H292l2.34-2.34,1.17-3.52h0v-1.17h2.34l5.86-1.17,2.34-3.52,2.34-2.34,2.34,2.34h3.52v-2.34l1.17-3.52,5.86-1.17,3.52-3.52h0v-4.69l2.34-3.52-2.34-5.86,3.52-3.52,2.34-1.17L333,367l5.86-5.86,5.86-5.86v-2.34l2.34-4.69,3.52-3.52-11.72-2.34-7-5.86h-3.52L326,337.7h-1.17l-1.17-1.17-1.17,1.17h-2.34v-1.17h-4.69l-2.34,1.17h0Z" transform="translate(-1.54 -14.08)" fill="#d9dee2" stroke="#d9dee2" stroke-width="0.93"/><path id="vectormap1_CR" data-name="vectormap1 CR" d="M5.63,399.28l3.08-4.47-2.39-6L4,387.55,3.74,386l5.37,0.27,5.62,1.13,3.78,3.17L17.83,386l3,3.45L21.19,391l3.51,3.18,1.69,4.34L25,402,24.4,408.7l2.2,0.6,1.62-.23,0.49,2,2.15,0.47,2.86,3.79-3.47,0L29,417.48l-4.89-4.06L23,410.63l-2.69-.25-5.54-2.16L11,407l-4.89.14Z" transform="translate(-1.54 -14.08)" fill="#d9dee2" stroke="#d9dee2" stroke-width="0.93"/><path id="vectormap1_SEV" data-name="vectormap1 SEV" d="M6.11,407.19l-3-2.06-1.06-4.23,3.55-1.62Z" transform="translate(-1.54 -14.08)" fill="#d9dee2" stroke="#d9dee2" stroke-width="0.93"/><path id="vectormap1_KDA" data-name="vectormap1 KDA" d="M73.09,424.42l-5.27-2.34-3.63-1.17,0.59-1.17,1.52-1.17-0.47-1.17,0.23-1.17L64.77,415H63.13v1.17l-0.35,1.17H62.66l-1.05-1.17L61,415l-1.64-1.17H57.86l-0.7-1.17-0.82-1.17v7l0.35,5.86-0.59-1.17H55.51L55.4,420.9v-1.17l-1.52,1.17-1.64,1.17V420.9H52.7l-0.82-1.17-2.23,1.17-2.11,1.17H45l-1.52,1.17H41.57L38.4,420.9l-2-3.52-0.35,2.34,0.23,1.17-2-1.17H32.66l1.41,2.34,1.17,4.69-0.82,2.34,0.23,2.34,0.82,1.17h1.41L37,436.14l-0.12,2.34,2.46,7,0.7,8.2,0.23,9.38h3.87l1.52,2.34,0.94,1.17h0.82l3.75-2.34,4-1.17L57,465.43l1.88,2.34,4.22-2.34L63,464.26h1.88l-0.12-4.69h0.59l0.47,1.17,1.88-1.17,1.76-2.34-0.94-1.17,0.7-2.34-1.05-3.52,0.94-3.52,1.52-2.34,1.76,1.17,2.11,1.17,0.59-1.17,0.59-2.34L76.26,442l-0.12-2.34h0.7l0.59-1.17h-2l-2.7-4.69,0.59-1.17,0.47-1.17-0.47-1.17-0.23-1.17h0.82L75,427.93l-0.47-2.34-1.41-1.17h0ZM56.8,439.65l0.59,3.52,3.28,3.52,1.17,5.86-1.41,1.17-0.7,1.17-0.59,1.17-0.59,1.17H56.69l0.47-2.34,0.35-2.34-2.58,1.17-1.52,2.34-0.94,1.17H51.41l-1.52,2.34-2.34,2.34-2.34-2.34-1.41-3.52,0.47-1.17,1.17-1.17h0.94l0.47,1.17-0.23,1.17h1.52l1.17-1.17L49,453.72l-0.23-2.34,2.7-2.34h2.7l0.35-3.52L53.64,442H52.35l-1.05,2.34h-0.7L48.72,442l-2.11-2.34L46,438.48l-0.35-1.17,0.94-1.17,1.17,1.17,1.88,2.34,4,1.17Z" transform="translate(-1.54 -14.08)" fill="#d9dee2" stroke="#d9dee2" stroke-width="0.93"/><path id="vectormap1_ORE" data-name="vectormap1 ORE" d="M247.47,440.82l1.17-3.52h-1.17l-1.17-1.17V435h0l-1.17-1.17L244,432.62v-7l1.17-2.34v-1.17l-2.34-2.34v-2.34l1.17-1.17h0V415h-1.17l-2.34-3.52-3.52,2.34-2.34,3.52-2.34,1.17-2.34,1.17-2.34,3.52-2.34,2.34h-2.34l-1.17,1.17L217,429.11l-3.52,3.52-9.38,1.17V435l2.34,3.52v2.34h0l3.52,2.34h5.86V449l3.52,1.17,2.34,2.34,1.17,2.34v2.34l1.17,4.69,1.17,4.69L224,467.78v2.34l2.34-1.17,1.17-2.34,1.17,1.17h1.17v3.52l2.34,2.34,1.17,2.34h3.52l1.17-1.17,1.17-1.17,4.69,1.17,4.69,2.34,1.17,2.34v1.17h2.34l2.34-1.17,1.17,1.17,1.17,1.17h2.34l1.17,3.52-1.17,2.34,5.86,8.2h3.52l2.34-2.34,1.17,2.34v1.17l8.2,3.52,7-5.86-3.52-5.86-3.52-4.69h1.17V483l-1.17-2.34v-2.34h-1.17l2.34-3.52,2.34-1.17-3.52-3.52L276.77,469l-1.17,1.17h-1.17v-2.34l-1.17-1.17L272.08,469h-2.34l-3.52,4.69-4.69-1.17v-1.17l-2.34-1.17H254.5L253.33,469l-1.17-2.34H251l2.34-5.86-1.17-1.17L251,458.4l2.34-2.34,2.34-3.52-3.52-2.34-2.34,3.52h-1.17L247.47,449l-1.17-3.52,1.17,1.17h1.17v-2.34l-1.17-1.17v-2.34Z" transform="translate(-1.54 -14.08)" fill="#d9dee2" stroke="#d9dee2" stroke-width="0.93"/><path id="vectormap1_BA" data-name="vectormap1 BA" d="M283.8,403.32l-1.17-1.17V401h-3.52l-3.52-1.17L272.08,401l-3.52,1.17h-4.69l-4.69,2.34-4.69,1.17-1.17-1.17v1.17l-1.17,1.17h0l1.17,1.17v2.34l-1.17,2.34L251,413.87h-2.34V415l-1.17,2.34-2.34,4.69h0L244,425.59v7l1.17,1.17L246.3,435h0v1.17l1.17,1.17h1.17l-1.17,3.52v2.34l1.17,2.34v1.17H246.3l1.17,3.52,1.17,3.52h1.17l2.34-2.34,3.52,1.17-2.34,3.52L251,458.4l1.17,1.17,1.17,1.17L251,466.61h1.17l1.17,2.34,1.17,1.17h4.69l2.34,1.17,1.17,1.17,4.69,1.17,2.34-4.69h2.34l1.17-2.34v-1.17h1.17v-2.34l2.34-2.34,1.17-1.17,3.52-5.86,3.52-5.86h2.34l2.34-1.17h1.17l2.34,1.17V449l1.17-2.34,3.52-3.52,2.34-3.52-5.86-1.17-7,1.17-1.17-1.17v-1.17h-4.69v-1.17l-2.34-8.2v-1.17h1.17v-1.17l1.17-1.17,3.52-1.17,3.52,2.34-1.17,2.34v2.34l2.34-1.17,1.17,1.17v2.34H292l1.17-1.17,1.17-2.34,2.34,1.17h1.17l1.17-1.17h4.69l-1.17-1.17-1.17-1.17,2.34-4.69v-3.52h-1.17L299,416.21l-4.69-2.34-1.17-1.17H292v-3.52h-4.69V408l-1.17-3.52H285l-1.17-1.17h0Z" transform="translate(-1.54 -14.08)" fill="#d9dee2" stroke="#d9dee2" stroke-width="0.93"/><path id="vectormap1_TA" data-name="vectormap1 TA" d="M242.78,370.51h0l-2.34,1.17-3.52-2.34h-4.69v1.17h-3.52l-2.34,1.17-1.17-1.17H224l-2.34,1.17h-1.17v1.17h0L214.66,374v1.17l1.17,1.17-1.17,3.52H210l-1.17-1.17h-1.17l-1.17,1.17v2.34l4.69,1.17,1.17,2.34,2.34,2.34h5.86l1.17,2.34v3.52l2.34,3.52,2.34,3.52,2.34,2.34,2.34-1.17h2.34l2.34,2.34,1.17,2.34v2.34h1.17l2.34,2.34,2.34,3.52H244v1.17h0l-1.17,1.17v2.34l2.34,2.34,2.34-4.69,1.17-2.34v-1.17H251l1.17-1.17,1.17-2.34v-3.52h0l-1.17-1.17v1.17l1.17-1.17V404.5l1.17,1.17,4.69-1.17,4.69-2.34-1.17-2.34-2.34-2.34h-1.17L258,395.12h3.52l3.52-2.34-2.34-1.17-1.17,1.17v-4.69h1.17l-2.34-1.17L258,388.09l1.17,1.17v1.17l-2.34,1.17-1.17-1.17H254.5v-1.17H251l-2.34-2.34-1.17-1.17H246.3l2.34-1.17,1.17-1.17h-1.17l-2.34-1.17-1.17-3.52h1.17v-1.17h-1.17V375.2l1.17-3.52-3.52-1.17h0Z" transform="translate(-1.54 -14.08)" fill="#d9dee2" stroke="#d9dee2" stroke-width="0.93"/><path id="vectormap1_UD" data-name="vectormap1 UD" d="M285,364.65l-2.34-1.17-1.17-1.17v-1.17L280.29,360h-2.34l-2.34-1.17-2.34-2.34L268.57,360l-2.34,5.86L263.88,367h-3.52L258,365.82l-2.34,3.52L254.5,374l-1.17,1.17H251l-1.17,4.69-1.17,3.52,1.17,1.17h-1.17l-2.34,1.17,1.17,1.17h1.17l2.34,2.34h3.52v1.17h1.17l1.17,1.17,2.34-1.17v-1.17L258,388.09l2.34-1.17,2.34,1.17h-1.17v4.69l1.17-1.17,2.34,1.17-3.52,2.34H258l1.17,2.34h1.17l2.34,2.34,1.17,2.34,2.34,1.17,2.34-1.17,3.52-1.17,3.52-1.17-1.17-2.34-1.17-3.52h-1.17l-1.17,1.17v-5.86l1.17-1.17h1.17l1.17-1.17v-1.17l1.17,1.17,1.17-1.17,4.69-10.55L285,364.65h0Z" transform="translate(-1.54 -14.08)" fill="#d9dee2" stroke="#d9dee2" stroke-width="0.93"/><path id="vectormap1_NEN" data-name="vectormap1 NEN" d="M362.32,197.07h-5.86l-4.69,4.69,1.17,4.69,5.86,1.17H360l1.17-1.17h1.17l1.17-1.17v1.17h0l-1.17,1.17h1.17l1.17-1.17v-4.69Zm53.91,27,2.34,1.17v3.52l3.52,2.34,2.34-3.52L423.26,224l-1.17-3.52h0v-2.34l-1.17-2.34h-2.34v2.34h-2.34V224h0Zm-32.81-1.17-3.52-1.17-4.69-1.17-5.86,1.17h0l1.17,1.17v2.34h-2.34L367,224v-1.17l1.17-1.17-3.52-1.17H360l-1.17-1.17-7,1.17-7-1.17-1.17-1.17v0h0v1.17H342.4v3.52h0l-1.17-2.34-2.34-1.17-1.17-1.17L333,221.68l-4.69,4.69L322.47,224l-4.69-3.52L319,217l1.17-2.34L319,212.3,317.79,210l4.69-2.34,3.52-1.17,5.86,3.52,1.17-1.17,1.17-1.17v-1.17h1.17v-7l-3.52-4.69-4.69-3.52L326,187.69l-1.17-1.17v9.38l-7,5.86-5.86,4.69v7L307.24,217l-2.34,2.34v3.52l4.69,7,3.52,7,1.17,2.34,1.17,1.17v1.17h2.34v-1.17l2.34-1.17h2.34l2.34,1.17,2.34,2.34h8.2l9.38,1.17,2.34-1.17,1.17-1.17,1.17,1.17v1.17l2.34-1.17h2.34l5.86,4.69,7,5.86,35.16,21.09,1.17,1.17,1.17,1.17,7-1.17,8.2-2.34v-1.17l1.17-2.34,1.17,1.17h1.17l2.34-1.17,2.34-1.17,2.34-1.17,2.34-1.17,1.17-1.17h2.34l2.34,1.17,2.34-3.52v-2.34l-1.17-1.17-2.34-3.52,1.17-1.17,1.17-1.17L442,251v-2.34l-3.52-5.86-4.69-4.69-5.86-4.69-1.17-1.17-1.17-1.17-1.17,1.17-1.17,1.17h0l-1.17-1.17h-1.17l-1.17,1.17v7l-1.17,7h0l-1.17-1.17h-1.17l-2.34,1.17-2.34-1.17h-1.17l-1.17,2.34-3.52,1.17-1.17-2.34,1.17-2.34,2.34-1.17h1.17V241.6L408,239.26h1.17l-8.2-1.17-7,1.17-2.34-3.52-7-2.34-4.69,1.17v1.17l-1.17,1.17-1.17-2.34h-2.34L374,235.74h-1.17l1.17-1.17v-2.34l-2.34-1.17h-2.34l1.17-1.17v-1.17h2.34l2.34,1.17,1.17-2.34,1.17-2.34h1.17L379.9,224v-1.17h3.52Z" transform="translate(-1.54 -14.08)" fill="#d9dee2" stroke="#d9dee2" stroke-width="0.93"/><path id="vectormap1_ARK" data-name="vectormap1 ARK" d="M398.65,184.18v-2.34h-2.34v2.34l1.17,1.17L396.31,190l3.52-3.52v-1.17Zm27-25.78-3.52-1.17h-3.52v2.34H417.4v2.34l-2.34-1.17h-3.52v2.34l1.17,1.17h-1.17v1.17h0l-1.17,1.17-3.52,2.34-2.34,2.34h0l-1.17-1.17v-1.17l-1.17-1.17-2.34,1.17-2.34,2.34-1.17,3.52v3.52h2.34v1.17h0l1.17-1.17,1.17-1.17v1.17l-1.17,2.34,2.34,2.34,1.17-1.17h0L402.16,183,401,187.69l1.17,1.17,1.17,2.34H401L399.82,190v1.17l-1.17,1.17h-1.17v2.34l1.17,2.34H401l1.17,2.34v2.34h2.34v-1.17h1.17l1.17,2.34,1.17,2.34,1.17,1.17v-1.17h0V204.1l1.17-1.17v2.34l2.34,3.52h0v-2.34h0l1.17,1.17h2.34l-1.17-3.52-1.17-3.52v-5.86l1.17-5.86,1.17-4.69,2.34-4.69h1.17l1.17-2.34,1.17-2.34,1.17-2.34h0l1.17,1.17,2.34-1.17v-1.17l-1.17-1.17h1.17l2.34,1.17,1.17-1.17v-1.17h-1.17l-1.17-1.17,3.52,1.17V166.6h2.34l-1.17-3.52-2.34-2.34v-1.17l-1.17-1.17H425.6Zm27-25.78L450.21,135h0v1.17h1.17v1.17l1.17,1.17h-2.34l-2.34,1.17H449l1.17,1.17h0V142l1.17,1.17h0L449,142l-3.52-1.17L444.35,142l1.17,2.34h-4.69L442,145.5v1.17h-1.17l-1.17-1.17v2.34l1.17,2.34L439.67,149l-2.34-2.34L435,147.85v2.34h0V149l-2.34-1.17L430.29,149l-1.17,1.17L427.95,149h0l2.34,3.52,4.69,1.17v1.17h-7l-2.34,1.17v1.17h3.52l2.34,2.34,1.17,2.34,1.17-1.17h0v3.52l2.34,1.17h0l1.17-1.17v1.17l1.17-1.17,2.34-1.17-1.17-2.34h0v-2.34h0l1.17,3.52h2.34l1.17-1.17-1.17-2.34L442,157.22v-1.17h0l2.34,1.17,1.17,2.34h0v1.17l1.17-2.34,1.17-2.34-1.17-1.17v-1.17h1.17v-1.17H449v5.86l1.17-1.17h0l1.17-1.17,2.34-1.17,2.34-3.52-1.17-1.17V149h1.17v2.34l2.34,1.17h0l1.17-1.17,1.17-2.34v0l1.17,3.52,1.17-1.17V149h1.17v2.34l2.34-1.17V149l1.17,1.17L469,149h0v-1.17l-1.17-1.17h2.34l1.17-1.17-1.17,1.17,2.34-1.17,3.52-1.17h0v1.17l1.17-1.17h1.17l3.52-1.17h19.92L513.5,142l3.52-2.34,2.34-3.52,2.34-2.34-1.17-3.52-5.86-2.34-7,2.34v1.17l-1.17,1.17h-1.17v-1.17H490.06l-3.52-3.52-2.34-1.17L483,129.1l-3.52,1.17h1.17V129.1h-2.34L476,130.27l-2.34-1.17h-3.52l-2.34,1.17h-2.34v1.17h-3.52v2.34L460.76,135l-1.17-1.17-1.17-1.17-1.17,1.17L456.07,135l-2.34,1.17h0V135l-1.17-2.34h0Zm58.6-85.67V44l-2.34-.59-1.17,2.46v3.52ZM498.26,36.52l-1.17,2.93L500.61,40l1.17-3.52h-3.52ZM511.15,37l3.52,2,1.17-1.17-2.34-2.58L511.15,37h0Zm-5.86,5.27V43.2l2.34-1.52h-1.17Zm-1.17-9.38V31.94l-1.17-.12v2.81h0Zm1.17,1.29-1.17.94v2.46l2.34-2.34v-0.7Zm7,0.12,1.17-.94L510,29.48l-1.17,2,1.17,2Zm-24.61,5v0.82l1.17,0.7,1.17-1.64V37.34l-2.34-.12v2.11Zm1.17-7-2.34,1.52,1.17,1.41,1.17-1.29V32.3Zm-9.38-17v1.52l1.17,0.23v2.46l3.52-.12,2.34-.7,1.17-.23v0.12l1.17,0.23,1.17,2.93,1.17-.94V18.23l-1.17-2.46h-2.34l-2.34.23-1.17-.12L483,15.66l-2.34-1.05-1.17.7h0Zm18.75,5v-0.7l-1.17.35-2.34.47-1.17.47v2.7l-4.69.12-3.52-.94v0.82l1.17,1.05h-1.17l-1.17-.59V26H483V24l-2.34-.35-1.17,1.64V27l2.34-.12v1.52l-1.17.7-1.17.7,1.17,0.35,1.17-.12L483,31,484.2,30h0v0.7l1.17,0.12h0L486.54,29l-1.17-1.29V27.61L488.89,28l1.17,1.17,1.17-.82,2.34-.7,7-.35-1.17-2.46L497.09,24V23.74l1.17-.82,1.17-.12,1.17-1.17V21.16h-2.34V20.34h0Zm3.52-3.16-1.17,1.05,1.17,0.35,2.34-.47V16.94l-1.17-.59ZM544,29.6l2.34,2.11,1.17-1.88-2.34-2.23Zm-9.38,18,2.34,2.23,4.69,0.23,3.52-3V46.83l1.17-4L544,41.67l-1.17,1.76L541.62,45l-1.17-.23-3.52.47-2.34,2.46h0Zm-16.41,7.5L517,53.74l-2.34,2L517,57.49Zm0-9.38-5.86-.7v6.21h1.17v-0.7l1.17,0.12,1.17-.47-1.17-.82V48.7l3.52,0.47,1.17-2Zm4.69-1.17-1.17,1.17v2.81l1.17,0.23V48.7l1.17-.12v1.17l1.17,1.64,3.52-1.17,3.52-2.7,1.17-1.76V43.9l-1.17-.7H529.9l-2.34-1.52-2.34-.59Zm-2.34-6.33L521.7,40l2.34-.7-1.17-1.76Zm-2.34,3L517,40.73,515.84,42,517,42.37Zm0-10L517,30l-1.17-1.17-1.17-1.17V26.44l-1.17.35-1.17.82,1.17,2.46L514.67,33l1.17,3.52,3.52,1.88Zm2.34-.82-1.17-1.41-1.17.12,1.17,2.46v2.7l1.17,2.11,1.17,0.23v-4.8ZM524,30.77l1.17-1.41-2.34-.12-1.17,1.29Zm8.2,10.08,2.34-2.23-2.34-1.05-3.52,1.88Zm-1.17-13.59-1.17.7v1.88l1.17-.7V27.26Zm4.69-8.67-2.34-.47V17.76l-1.17.12v1.05l-1.17,1.17,2.34,1.05,3.52-1.52-1.17-1.05h0Zm-9.38,3.75v3.4l3.52,0.59-1.17-4h-2.34Zm-5.86,2.58V23.51l-1.17.47v2.81L521.7,28h3.52l1.17,0.23V28l-1.17-3.16-3.52,1.05Zm-225,183.87h-1.17L293.18,210h-3.52l-3.52,1.17L283.8,210l-1.17-1.17L279.11,210h-4.69l-4.69,3.52-1.17,4.69-1.17,4.69h-1.17L265.05,224l1.17-1.17h0l-1.17-1.17-1.17-1.17v1.17h-1.17l-2.34-1.17L259.19,217l-2.34-3.52-2.34-1.17-1.17,1.17V212.3l1.17-1.17h2.34l-1.17-5.86-3.52-4.69-2.34,1.17-2.34,1.17-1.17,9.38h1.17l2.34,1.17L247.47,217,244,220.51h0l-1.17-1.17h-1.17v1.17L239.27,217l-2.34-4.69-2.34,2.34-2.34,1.17-1.17-1.17-1.17-1.17L228.72,217l-1.17,3.52-1.17,2.34L224,225.19l1.17,4.69,2.34,3.52-2.34,2.34-2.34,2.34v1.17h0l-1.17,3.52-2.34,3.52h0l-1.17-1.17L217,246.29l-1.17,1.17L214.66,251l-1.17,3.52-1.17,2.34v4.69h1.17l1.17,1.17V265l2.34,1.17h1.17l1.17,2.34v1.17h1.17l1.17,1.17,1.17,1.17,1.17,1.17,1.17,1.17v2.34h3.52l2.34-1.17v1.17h1.17l1.17,1.17,1.17,1.17v1.17l1.17,2.34h1.17l2.34,1.17v2.34h3.52l2.34-1.17,2.34,3.52,3.52,5.86,2.34-1.17H258v4.69h2.34l1.17,4.69,5.86,1.17,1.17,2.34,2.34,2.34,2.34-1.17h2.34l7-2.34,1.17-2.34L285,299l5.86-4.69,4.69-4.69-1.17-2.34L293.18,285H292l-1.17,1.17h-4.69L285,288.48v1.17h-2.34l-1.17-1.17h-2.34l-1.17-1.17,1.17-4.69,3.52-4.69H285l3.52-1.17-1.17-2.34v-2.34l2.34-3.52v-5.86L287.32,258v-4.69l8.2,2.34,8.2,5.86V265l1.17,1.17,2.34-2.34,1.17,2.34,2.34-1.17h1.17v1.17l1.17,1.17,1.17-1.17h1.17l2.34,2.34,1.17,1.17,1.17-1.17,1.17-1.17v-1.17L320.13,265l1.17-4.69,1.17-3.52-1.17-1.17H319l1.17-3.52,3.52-4.69,3.52-4.69-2.34-2.34-2.34-1.17h-2.34l-2.34,1.17v1.17h-2.34v-1.17l-1.17-1.17-1.17-2.34-3.52-7-4.69-7v-3.52L299,224l1.17-2.34L299,220.51l-1.17-1.17-1.17,1.17,1.17-1.17,2.34-1.17-4.69-9.38h0Z" transform="translate(-1.54 -14.08)" fill="#d9dee2" stroke="#d9dee2" stroke-width="0.93"/><path id="vectormap1_SA" data-name="vectormap1 SA" d="M719.75,210h-2.34v3.52h-1.17l1.17,2.34,3.52,2.34,2.34-1.17,1.17-2.34Zm121.88-15.23-2.34-3.52L835.77,190l2.34,2.34,3.52,2.34h0Zm-11.72-27v-4.69l-1.17-1.17-2.34,1.17,2.34,3.52v2.34Zm29.3,11.72,1.17,4.69,1.17,1.17h2.34v-4.69Zm19.92,14.06,2.34-4.69v-1.17l-1.17-1.17L874.44,183h-5.86l-2.34,3.52v4.69l-1.17,2.34-1.17,1.17-1.17,1.17h2.34l2.34-1.17,2.34-1.17h3.52l5.86-1.17v1.17ZM870.93,149l1.17-1.17-5.86-1.17-4.69-1.17-1.17,1.17L858,147.85l-4.69-2.34-3.52-1.17v1.17l1.17,1.17h-1.17l-1.17,1.17V149l1.17,2.34v1.17l1.17,1.17h0l-3.52-1.17L844,151.36l-2.34-1.17h-1.17L839.29,149v-1.17L838.12,149l-1.17,2.34-1.17,2.34-1.17,1.17-1.17,1.17,1.17,1.17v3.52l-1.17,2.34h1.17l1.17,1.17v2.34l1.17,2.34,2.34,2.34,3.52,1.17L844,174.8l1.17,1.17H851v-7l1.17,1.17,1.17,1.17,1.17-1.17,1.17-1.17,4.69-3.52h4.69l1.17-1.17,1.17-1.17,1.17-1.17-2.34-1.17H863.9l-4.69-3.52-2.34-4.69,3.52-3.52h0v1.17l7,9.38,3.52-4.69-1.17-4.69Zm28.13-7h0l-1.17,1.17L894.37,142l-3.52,1.17v1.17l-1.17,1.17-2.34-1.17v-1.17h-3.52l-2.34,1.17v2.34l-1.17,1.17L878,145.5v-1.17l-1.17,2.34,1.17,4.69,4.69,1.17,5.86,1.17,7-2.34,4.69-4.69v-2.34Zm77.35,42.19L957.65,195.9l-5.86,7-4.69,2.34-4.69-2.34-4.69-2.34h-5.86l-4.69-1.17v1.17L926,201.75h-2.34l-1.17-1.17,1.17-2.34,2.34-1.17-2.34-2.34-3.52-2.34-4.69,1.17-3.52,1.17-4.69,9.38-4.69,8.2H901.4V210h0l-1.17-1.17,2.34-1.17,1.17-1.17-1.17-1.17v-2.34l2.34-1.17,1.17-2.34-2.34,1.17-5.86,3.52-1.17,1.17-1.17,1.17-1.17-2.34,3.52-3.52h1.17l3.52-2.34,3.52-1.17h0l-12.89,1.17-12.89,4.69h-5.86l-2.34,1.17,1.17,1.17,2.34,1.17L874.44,210l-3.52,1.17L868.59,217l1.17,1.17L872.1,217v2.34l1.17,1.17,1.17,2.34v2.34l2.34,1.17v2.34h-2.34v2.34l-1.17-1.17-1.17-1.17h-1.17l-1.17,1.17h-2.34v7l-4.69-2.34-8.2-1.17L851,238.08l-4.69,3.52-4.69-1.17-3.52-2.34-1.17-2.34,2.34-1.17h0l-2.34-1.17-1.17,10.55-1.17,12.89L833.43,258l-1.17-1.17-1.17-1.17h0v1.17h-2.34l-1.17-1.17v-1.17h-3.52L821.71,251l-2.34-3.52h-1.17L817,246.29l1.17-1.17,1.17-1.17-1.17-2.34-2.34-1.17h0L817,241.6v1.17l-1.17,1.17-2.34-2.34-1.17-2.34-5.86-3.52-2.34-1.17h3.52l2.34,2.34,2.34,2.34h3.52l2.34-2.34L817,233.4l-2.34-2.34v-4.69L813.51,224v-1.17l-2.34-2.34h-2.34l-7-5.86-2.34,1.17L797.1,217h-5.86l-3.52-2.34L783,213.47v1.17l-1.17,1.17-2.34,5.86,1.17,4.69v4.69l-2.34-1.17h-3.52v1.17h-2.34l-2.34,1.17L769,233.4l-3.52-1.17-2.34-1.17h-7l-2.34-1.17v-2.34l2.34-2.34L754.91,224h-9.38l-2.34-1.17L742,224h-1.17l-2.34-1.17h-2.34L735,224l-1.17,1.17-2.34,1.17L728,227.54v3.52l-2.34-2.34,1.17-2.34-1.17-3.52-2.34-2.34V224l-1.17,1.17h-3.52l-3.52-2.34L713.89,224l-1.17,3.52-2.34,2.34,1.17,1.17h1.17v3.52l1.17,1.17-1.17,4.69,1.17,4.69,1.17,1.17v3.52l1.17,1.17,2.34,1.17,2.34,2.34,1.17,4.69v4.69l2.34,4.69,1.17,3.52v1.17l-4.69,3.52-4.69,3.52-1.17,3.52v2.34l-1.17,1.17-2.34,1.17v4.69l-2.34,3.52h-2.34l-3.52-1.17-3.52,1.17L697.49,299h-2.34l-2.34-1.17V299h-1.17l-1.17,2.34v1.17l1.17,4.69,2.34,3.52v16.41L692.8,340l-3.52,2.34-2.34,2.34,1.17,1.17,1.17,1.17v8.2l1.17,2.34v5.86l1.17,2.34,2.34,2.34,2.34,2.34-1.17,2.34L694,374l-2.34,3.52v3.52l-2.34,3.52,2.34,4.69H694l1.17,1.17,1.17,1.17,4.69,1.17h8.2l1.17,2.34,1.17,3.52-1.17,1.17L708,403.32l3.52,2.34,4.69,2.34,1.17,8.2v5.86l2.34,2.34,1.17,3.52-1.17,3.52-2.34,1.17,1.17,5.86L722.1,442l-2.34,5.86-2.34,7v4.69l-1.17,1.17-1.17,5.86,1.17,4.69h2.34l5.86-1.17,1.17-2.34,3.52,1.17h1.17v-1.17h1.17l1.17,1.17,1.17-1.17h3.52l1.17-1.17,2.34-2.34v1.17l2.34,2.34,1.17,1.17-1.17,3.52,5.86-5.86,4.69-7h2.34l1.17-2.34,1.17-3.52,2.34-1.17h2.34l3.52-3.52h4.69l3.52,1.17,2.34,2.34,2.34,1.17v2.34l1.17,1.17v2.34h5.86l5.86,1.17,1.17,1.17v2.34l1.17,2.34v3.52l1.17,2.34,1.17,1.17v1.17l1.17,2.34v7l2.34,4.69h0l1.17-1.17H803l1.17,4.69,3.52,4.69,4.69-2.34,4.69-1.17,2.34,1.17,2.34,1.17,2.34,1.17h4.69l2.34,1.17,1.17,1.17h7l5.86,1.17,2.34,2.34,2.34,2.34,5.86,1.17,3.52-1.17h3.52l2.34,1.17h2.34l3.52-2.34,2.34-1.17h2.34l1.17,1.17,1.17-1.17v-2.34h4.69l1.17-1.17,2.34,1.17,3.52,1.17,1.17-1.17v-1.17l2.34-2.34,2.34-1.17v-1.17l1.17-1.17h3.52l2.34-2.34,1.17-5.86v-4.69l2.34-1.17,1.17-1.17V476l-1.17-2.34-2.34-1.17-1.17-1.17h-2.34L901.4,469l2.34-1.17v-3.52l1.17-1.17,1.17-1.17-3.52-2.34-2.34-3.52h3.52l-1.17-4.69,1.17-3.52,1.17-7,1.17-2.34,2.34-2.34h2.34l5.86-2.34,5.86-2.34,1.17-1.17v-2.34l1.17-2.34H926l1.17,1.17h1.17l2.34-1.17h0l5.86-3.52,1.17-4.69v-1.17L938.9,415l2.34,2.34,1.17-1.17-1.17-3.52-1.17-2.34-2.34-4.69-1.17-5.86-2.34-3.52,1.17-4.69v-1.17l1.17-1.17v-1.17l1.17-1.17v-2.34l2.34-1.17,1.17-1.17v-7l1.17-7h4.69l5.86,2.34h2.34l1.17-1.17,1.17,1.17,1.17,1.17,2.34-3.52,2.34-2.34h2.34V367l1.17-1.17,1.17-1.17,1.17,1.17,2.34,2.34,1.17-3.52v-8.2l1.17-2.34v-2.34l-1.17-1.17,1.17-2.34v-1.17l-2.34-2.34-3.52-2.34L967,331.84l1.17-4.69,1.17-3.52h2.34l2.34-1.17,1.17-1.17,1.17-1.17,1.17,1.17,1.17-1.17,1.17-3.52-2.34-3.52,2.34-1.17h2.34l2.34-2.34,1.17-2.34,4.69,2.34,3.52,1.17,1.17-2.34v-1.17l2.34-1.17,1.17-1.17,1.17-2.34,2.34-3.52h1.17v-2.34h-1.17v-1.17l1.17-2.34-1.17-1.17-3.52-2.34v-5.86l2.34-3.52-2.34-1.17v-3.52l1.17-2.34,1.17-2.34-1.17-2.34v-2.34h3.52v-2.34l4.69-1.17,3.52-1.17,1.17-1.17,1.17-1.17,2.34,1.17h1.17l1.17-2.34,1.17-3.52,2.34-1.17V251h0l-2.34-3.52-2.34-4.69,1.17-1.17v-1.17l-7-2.34-7-4.69v-2.34l1.17-2.34-1.17-1.17-1.17-1.17,5.86-8.2,8.2-9.38,1.17-1.17,2.34-1.17-1.17-2.34-2.34-3.52v-2.34l-2.34-1.17h-1.17l-1.17-2.34h0l-1.17-1.17h-1.17l-1.17-1.17L1008,190h0l-1.17,2.34v2.34h-1.17v-1.17h-1.17v5.86l-1.17-2.34-2.34-2.34-3.52,1.17h-4.69l-1.17-3.52-2.34-4.69-12.89-3.52h0ZM861.55,233.4l2.34,1.17,2.34-1.17v-1.17l-1.17-1.17-2.34,1.17Z" transform="translate(-1.54 -14.08)" fill="#d9dee2" stroke="#d9dee2" stroke-width="0.93"/><path id="vectormap1_IRK" data-name="vectormap1 IRK" d="M709.21,392.78h-3.52v4.69h-1.17l-2.34,1.17L701,399.81,699.83,401h0l-1.17-1.17h-3.52V401h0l-2.34,5.86-1.17,5.86L692.8,415l1.17,3.52-1.17,1.17-1.17,2.34,1.17,1.17v2.34l-4.69,5.86-5.86,5.86h-2.34l-1.17,1.17v1.17h0l-1.17,5.86,2.34,9.38,3.52,1.17,2.34,2.34v4.69h-3.52v1.17l-1.17,1.17-1.17,1.17,2.34,2.34,2.34,3.52L683.42,476l-2.34,2.34v1.17L678.74,483h-1.17l-1.17-1.17-1.17-1.17h-2.34v-2.34H671.7l-2.34-1.17v-3.52l-1.17-1.17-3.52,1.17-2.34,1.17-1.17,2.34v1.17l-9.38,5.86-4.69,9.38h0l1.17,1.17-1.17,1.17,1.17,1.17v2.34l-4.69-2.34-2.34-7V487.7h-2.34l-1.17,1.17-1.17,4.69h-4.69l-2.34-1.17H626l-3.52-1.17L619,497.08l-2.34,5.86,1.17,1.17,2.34,2.34v5.86l1.17,1.17-1.17,1.17H619L615.45,517l-4.69,4.69-1.17,3.52,1.17,2.34-1.17,1.17-1.17,1.17v2.34l-1.17,3.52v3.52h-1.17l-3.52,1.17L599,542.78v2.34l1.17,1.17,2.34,1.17,2.34,3.52,2.34,3.52h2.34l5.86,4.69,5.86,4.69H626l1.17,1.17v2.34l1.17,1.17L633,565l4.69-4.69,1.17,2.34,1.17,3.52,4.69,3.52,5.86,3.52,1.17,3.52,1.17,2.34h1.17l1.17-1.17,8.2,7v2.34l1.17,2.34,1.17,1.17,2.34,2.34v2.34L667,597.86h2.34l1.17-1.17h4.69l3.52-3.52V592l-8.2-2.34,3.52-1.17,5.86-2.34L678.74,585l-2.34-1.17v-1.17l-1.17-1.17v-1.17l3.52,3.52,4.69,2.34,14.06-15.23,17.58-25.78-1.17-9.38,1.17-9.38,1.17-2.34h2.34l-1.17-2.34-2.34-1.17v-1.17l-1.17-1.17h-1.17l-1.17-5.86,2.34-2.34,3.52-2.34,1.17,1.17h1.17l1.17-2.34,2.34-2.34,1.17,1.17v1.17h1.17l1.17,1.17h5.86l3.52-2.34,1.17-2.34,1.17,1.17,1.17,1.17h5.86l2.34-1.17v2.34l2.34,2.34h2.34l2.34-1.17,4.69,1.17,5.86-2.34,5.86-7,4.69,1.17v1.17h-1.17l1.17,1.17h3.52l2.34,1.17,1.17-1.17,2.34-2.34,1.17,1.17h1.17v-7h-2.34l-1.17-8.2v-1.17h1.17v-3.52h1.17l1.17-1.17-2.34-2.34,2.34-2.34,3.52,1.17,2.34,1.17,4.69-1.17-1.17-2.34v-1.17l-1.17-1.17-1.17-2.34v-3.52l-1.17-2.34v-2.34l-1.17-2.34H780.69v-2.34l-1.17-1.17v-2.34l-2.34-1.17-2.34-2.34L771.32,449h-4.69l-3.52,2.34-2.34,1.17-2.34,1.17-1.17,3.52-1.17,2.34h-2.34l-4.69,7-5.86,5.86,1.17-3.52L742,467.78l-1.17-2.34v-1.17l-2.34,2.34-2.34,1.17H730.3V469h-1.17l-3.52-1.17-1.17,2.34-5.86,1.17h-2.34l-1.17-4.69v-5.86l1.17-1.17,1.17-1.17v-3.52l2.34-7L722.1,442l-3.52-3.52-1.17-5.86,2.34-2.34,1.17-2.34-2.34-3.52-2.34-2.34v-5.86l-1.17-8.2-3.52-3.52-4.69-1.17,3.52-3.52,1.17-1.17-1.17-3.52-1.17-2.34h0Z" transform="translate(-1.54 -14.08)" fill="#d9dee2" stroke="#d9dee2" stroke-width="0.93"/><path id="vectormap1_KYA" data-name="vectormap1 KYA" d="M540.45,221.68l1.17,2.34h3.52v-7l-4.69,4.69h0Zm28.13-39.84h1.17V183l1.17,1.17,1.17-4.69-1.17-1.17h0v1.17Zm7-88.24V92.53l-1.17-.82-3.52-1.52,2.34,1.88V93.7Zm19.92-26.84L592,65.81l-2.34,1.05L590.84,68H592l2.34,0.7ZM715.07,170.11l1.17,1.17v1.17l2.34,1.17-1.17-3.52-1.17-1.17-1.17,1.17h0Zm-76.17-9.38h3.52l2.34-3.52h-2.34l-1.17,1.17-1.17,1.17-1.17,1.17h0ZM637.72,102l1.17-3.4-2.34-2.34L633,95.11l-1.17-.59-2.34,1.41v3l2.34,0.94,1.17,0.94v2.34Zm25.78,1.76L660,97.57l-3.52,2.58L654.13,104,653,105.42l-1.17.7L653,104.6l1.17-1.29v-0.59l-1.17.59-2.34.94h0l-1.17-.23,4.69-2.7,1.17-4.45-3.52-1.29-4.69.47-1.17.23v0.59h-1.17l-1.17.47-2.34,2.11,1.17,1.41v1.41l-1.17.23-1.17.12L638.89,104l-1.17,1.76-1.17.47V108l1.17,0.35v-1.88l1.17-.35h0v2.93l1.17-.12,1.17,0.47-1.17,2.23V114l1.17,0.7v2.58l1.17,1.29h1.17l1.17-1.17v2.34h3.52l2.34,2.34,2.34,2.34,4.69,1.17,4.69-3.52-1.17-2.34v-2.34L660,115.15V115l1.17-.12,1.17-5.51,1.17-5.63h0Zm25.78,32.34h-1.17v1.17l-1.17,1.17h1.17Zm1.17,4.69h2.34l1.17-1.17-1.17-1.17h-2.34l-1.17,1.17v1.17h1.17Zm-19.92-24V114l-1.17.47-1.17,1.17L667,118.55v2.34h0l1.17,1.17H667l-1.17,1.17h0v3.52h-1.17v-1.17l-1.17,2.34-1.17,2.34v3.52L660,137.3l-1.17,3.52,2.34,2.34,3.52-2.34,2.34-2.34h4.69l7-2.34,3.52-1.17,1.17-3.52v-3.52l-1.17-2.34h-1.17v1.17h-1.17v-2.34h0v-1.17l-1.17-1.17-1.17-1.17v-2.34l-2.34,2.34-2.34,3.52v1.17H671.7v-1.17l3.52-9.73-2.34-1.29-1.17-.12v2.11Zm49.22,61.53v1.17l-1.17-2.34V174.8l-1.17-1.17h-2.34l-2.34-3.52-2.34-3.52-1.17,1.17h0L708,166.6h-1.17v1.17H701l-2.34,1.17-1.17-1.17h-1.17l-1.17,1.17-2.34,4.69h-3.52l2.34-5.86v-4.69h-7l1.17-1.17v-1.17l-3.52,1.17-2.34-1.17,2.34-1.17,2.34-2.34,1.17-1.17h1.17l1.17-1.17-2.34-2.34-3.52-1.17-1.17-1.17V149h-2.34l-2.34,1.17h-1.17l-7,8.2-4.69,8.2,1.17,1.17v3.52l-7,2.34-1.17-1.17h-2.34v1.17l2.34,3.52,1.17,2.34H655.3l-1.17-2.34-2.34,1.17h-1.17v1.17l-1.17,1.17h-1.17v1.17h-3.52L643.58,183h-1.17v-1.17l-1.17-1.17-2.34,1.17L637.72,183l1.17-2.34,1.17-1.17-7-2.34-7,1.17-1.17,1.17,2.34,1.17h2.34v1.17L627.17,183h-2.34l-4.69,1.17-3.52,1.17h-7l-2.34,1.17h0l-4.69,2.34-2.34,2.34h-7l1.17,1.17,2.34,1.17-1.17,1.17-2.34,1.17L592,198.24v2.34l-2.34-2.34-3.52-1.17v1.17l3.52,3.52L592,204.1l-1.17,1.17h0l-1.17-1.17-1.17-1.17-1.17,1.17H585l2.34,2.34,3.52,3.52h0l-1.17,1.17h0v7H588.5l-2.34,1.17H585l1.17-1.17,1.17-1.17,1.17-1.17v-1.17l-4.69-1.17-3.52,1.17h-5.86l-7-1.17-7-1.17h-3.52l-2.34-1.17v1.17l-1.17,2.34-1.17,1.17,1.17,1.17v1.17h-1.17v2.34l1.17,1.17-1.17,3.52L551,227.54v1.17h0v1.17l-1.17,1.17,3.52,3.52,3.52,2.34v7l3.52,2.34,1.17,4.69-2.34,3.52L556.86,258l1.17,2.34-1.17,10.55-2.34,1.17-2.34,1.17,3.52,8.2,1.17,4.69h-1.17V285l-2.34-1.17-1.17-1.17v-4.69L551,275.58l-1.17-1.17,4.69-11.72-1.17-2.34L551,259.18l1.17-1.17v-1.17h0v-1.17l3.52-2.34,3.52-4.69-3.52-2.34-5.86-1.17-1.17-3.52-1.17-3.52L544,233.4l-3.52-3.52h-3.52l1.17,2.34,1.17,2.34,2.34,2.34,2.34,2.34v3.52l-2.34,2.34-1.17,1.17v-1.17h-2.34v4.69l2.34,2.34,2.34,2.34v5.86l-1.17,5.86h-2.34L536.94,265l-2.34,2.34-4.69,3.52h-1.17v1.17h0l-2.34,1.17v3.52l1.17,2.34,1.17,3.52h0l3.52,2.34,2.34,2.34v1.17h1.17l2.34-1.17,2.34-2.34,1.17,1.17v1.17l1.17,1.17,1.17,1.17-1.17,7-1.17,7-2.34,5.86-4.69,2.34v2.34h0v2.34l1.17,2.34v-1.17h0v1.17h0l-2.34,2.34v1.17l1.17,2.34,1.17,2.34,1.17,5.86-1.17,4.69v8.2l1.17,3.52,3.52,1.17v2.34h0v5.86l-1.17,2.34h-1.17l1.17,3.52h2.34l1.17,2.34,2.34,1.17,2.34-1.17,1.17,3.52-1.17,7-4.69,7h-2.34l-1.17,1.17v2.34l1.17,1.17,2.34,1.17-1.17,2.34-1.17,1.17v1.17l-1.17,2.34-3.52,4.69-5.86,4.69,1.17,8.2,4.69,2.34,2.34,2.34-8.2,4.69-9.38,2.34V442l5.86,2.34,3.52-1.17,4.69,1.17,3.52,1.17,2.34,1.17v1.17l1.17,1.17h1.17l2.34,2.34v3.52l1.17,2.34,3.52,1.17,2.34,3.52-2.34,1.17-2.34,2.34-2.34,3.52v3.52l4.69,4.69,3.52,5.86-1.17,1.17H551v2.34l-1.17,1.17h-2.34l-2.34,4.69L544,494.73v2.34l1.17,1.17H544l-1.17,2.34,1.17,1.17,1.17,1.17,1.17,10.55v1.17l-3.52,1.17-3.52,3.52,3.52,3.52,3.52,3.52h3.52l2.34-1.17,2.34,2.34,3.52,1.17,1.17,7,2.34,7-2.34,5.86,1.17,1.17h0V551l1.17,1.17,1.17,1.17v1.17l-2.34,2.34L558,558v1.17l-2.34,4.69h-2.34L552.17,565l-2.34,2.34-1.17,3.52,2.34,1.17,1.17,2.34,7,2.34,8.2,1.17,8.2-4.69,5.86-8.2,2.34-1.17,2.34-1.17,1.17-3.52,1.17-2.34H592l1.17-1.17h1.17v1.17h2.34l1.17-1.17,3.52,1.17,5.86-2.34L604.91,551l-2.34-3.52-2.34-1.17L599,545.12v-2.34l3.52-2.34,3.52-1.17h1.17l1.17-3.52v-5.86l1.17-1.17,1.17-1.17v-5.86l4.69-4.69,3.52-2.34h1.17l1.17-1.17-1.17-1.17v-5.86L619,504.11l-2.34-1.17,2.34-5.86,3.52-5.86,3.52,1.17h3.52l2.34,1.17h4.69l1.17-4.69,1.17-1.17h2.34v1.17l2.34,8.2,4.69,2.34v-5.86h-1.17l4.69-9.38,9.38-5.86v-1.17l1.17-2.34,3.52-2.34h2.34l1.17,1.17v3.52l2.34,1.17H674l-1.17,1.17v1.17h2.34l1.17,1.17,1.17,1.17h1.17l2.34-3.52v-1.17l2.34-2.34,1.17-3.52-2.34-3.52-2.34-2.34,1.17-1.17,1.17-1.17v-1.17h3.52V458.4l-2.34-2.34-3.52-1.17-2.34-9.38,1.17-5.86v-1.17h0l2.34-1.17,1.17-1.17,5.86-4.69,4.69-5.86v-2.34l-1.17-1.17,1.17-2.34,1.17-1.17L692.8,415l-1.17-3.52,1.17-4.69,3.52-5.86-1.17-1.17h0l2.34-1.17,1.17,1.17,1.17,1.17h0l1.17-1.17,1.17-1.17,2.34-1.17h1.17v-4.69H701l-4.69-1.17-1.17-1.17L694,389.26h-2.34l-2.34-4.69,2.34-3.52v-3.52L694,374l1.17-1.17,1.17-2.34L694,368.17l-2.34-2.34-1.17-2.34v-5.86l-1.17-2.34v-8.2l-1.17-1.17-1.17-1.17,2.34-2.34L692.8,340,694,327.15V310.74l-2.34-3.52-1.17-4.69v-1.17l1.17-2.34h1.17v-1.17l2.34,1.17h2.34l2.34-2.34,3.52-1.17,3.52,1.17h2.34l2.34-3.52v-4.69l2.34-1.17,1.17-1.17v-2.34l1.17-3.52,4.69-3.52,4.69-3.52v-1.17l-1.17-3.52-2.34-4.69v-4.69l-1.17-4.69-2.34-2.34L716.24,251l-1.17-1.17v-3.52l-1.17-1.17-1.17-4.69,1.17-4.69-1.17-1.17v-3.52h-1.17l-1.17-1.17,2.34-2.34,1.17-3.52,1.17-1.17v-2.34l1.17-1.17-2.34,1.17-1.17,1.17-2.34-1.17-3.52,2.34v3.52h2.34l3.52-1.17v1.17l-1.17,1.17h-1.17L708,231.05l-2.34,1.17-1.17-1.17h0l-1.17,2.34L701,234.57h0v3.52l-2.34-1.17-1.17-1.17v1.17h-8.2l-1.17,3.52-3.52,3.52h-1.17l1.17-2.34,2.34-2.34v-2.34l1.17-2.34,3.52-1.17,1.17-3.52-1.17-1.17-2.34-1.17h-1.17l7,1.17,4.69-4.69H701l1.17-2.34,1.17-2.34,2.34-2.34,2.34-2.34,1.17-3.52,7-4.69v-1.17l1.17-1.17,2.34-3.52,3.52-3.52,1.17-5.86L722.1,190l-1.17-2.34v1.17L719.75,190h0v-3.52h1.17l2.34,1.17V190l1.17-2.34v-5.86H722.1v-3.52L719.75,176v2.34h0ZM634.2,89.13l-1.17.23-1.17.7L633,90.54l1.17,0.35,1.17,1.05,1.17,1.17-1.17.12-1.17-.12v0.82l1.17,0.23,1.17,0.12,1.17,1.29,1.17,0.7,2.34-.82,1.17-1.05,9.38-1.17,1.17-.59V86.32l2.34-1.41,1.17-1.41V82.22l-1.17-1.29V80.7l-1.17-.59-2.34-5.51-1.17-4.34-2.34-.12v1.64l-5.86,3.28-4.69,3.75v2l1.17,0.47v1.05l-1.17,1.17V84.8l-1.17,1.29-1.17.59-1.17.59V88.2L635.38,89v0.35H634.2V89.13Zm-2.34-19.69L630.69,71V72h1.17l2.34,1.05,2.34-2.93ZM641.23,176l-2.34-1.17h0l1.17,2.34,2.34,1.17V176h-1.17Z" transform="translate(-1.54 -14.08)" fill="#d9dee2" stroke="#d9dee2" stroke-width="0.93"/><path id="vectormap1_TOM" data-name="vectormap1 TOM" d="M504.12,426.76l-2.34-1.17h-3.52l-1.17-2.34-1.17-2.34-4.69,1.17h-4.69l-2.34-2.34v-2.34h-2.34l-2.34,1.17-1.17-1.17-1.17-1.17L472.48,415l-4.69-1.17-1.17-1.17h0v3.52l-1.17,2.34h-1.17l-1.17,1.17-1.17,4.69-3.52,5.86h-7L446.7,435,442,439.65v3.52h-1.17v3.52h-1.17v1.17l1.17,1.17v4.69l1.17,2.34v2.34l-1.17,1.17,1.17,2.34,1.17,1.17,2.34,2.34,2.34,1.17,14.06,4.69-1.17,1.17,8.2,4.69,5.86,9.38,8.2,1.17,1.17,4.69h7l1.17,1.17v-1.17l1.17-1.17h3.52l1.17,2.34-1.17,1.17v4.69l-1.17,1.17-1.17,1.17h1.17v1.17l1.17,1.17h0l2.34-1.17,1.17-3.52,1.17,1.17H510l2.34-1.17,1.17,1.17h1.17l1.17-1.17,2.34-2.34h1.17l1.17,1.17,1.17-1.17h8.2l1.17-1.17,2.34,1.17,2.34,1.17,3.52-2.34H544l1.17-3.52,2.34-4.69h2.34l1.17-1.17v-2.34h1.17V483l-2.34-5.86-4.69-4.69V469l1.17-3.52,3.52-2.34,2.34-1.17-2.34-3.52-3.52-1.17-1.17-2.34v-3.52L542.79,449h-1.17l-1.17-1.17v-1.17l-2.34-1.17-4.69-1.17-3.52-1.17-4.69,1.17L520.53,442V426.76L517,425.59l-3.52-2.34-2.34,1.17-3.52,2.34h-1.17l-1.17,1.17-2.34-1.17h1.17Z" transform="translate(-1.54 -14.08)" fill="#d9dee2" stroke="#d9dee2" stroke-width="0.93"/><path id="vectormap1_KHM" data-name="vectormap1 KHM" d="M456.07,365.82l-2.34-2.34h-5.86L442,362.31v-8.2l-2.34-1.17-1.17-3.52V345.9l1.17-1.17,1.17-2.34L438.49,340h-1.17l-1.17-1.17V337.7h-2.34l-1.17,1.17h-7L423.26,340h0l-3.52-3.52L417.4,333l2.34-1.17,1.17-1.17-2.34-1.17-1.17-1.17L413.88,326l-3.52-1.17H409.2L408,326l-1.17-1.17v-1.17h-2.34l-2.34,1.17L401,323.63h-3.52l-1.17-2.34,1.17-2.34L394,317.77l-1.17-2.34,1.17-2.34h2.34l1.17-3.52,2.34-3.52v-1.17l-1.17-1.17V300.2l-1.17-3.52-2.34,1.17L391.62,299v2.34h-2.34l-2.34,1.17-2.34,1.17-1.17-2.34V300.2h-2.34l-2.34,1.17h-1.17l-1.17,1.17h0L374,303.71l-1.17,1.17-1.17,7L367,316.6l-4.69,4.69L360,326l-2.34,5.86V333h1.17l-1.17,2.34h-2.34l-1.17,3.52-1.17,2.34v1.17l1.17,1.17v3.52l3.52,2.34,3.52,2.34,3.52,8.2,1.17,2.34,2.34,3.52-2.34,4.69-1.17,4.69-1.17,2.34v3.52h0l2.34,1.17v2.34l-1.17,4.69-1.17,4.69,3.52,2.34,3.52,2.34v12.89l1.17,1.17,3.52,1.17h3.52l1.17-2.34,2.34-1.17h1.17v1.17h7l2.34,1.17H394l1.17-1.17,1.17-1.17,4.69-1.17,2.34-3.52,1.17-1.17h2.34l1.17,2.34V408h4.69l3.52,1.17,1.17,1.17,1.17,1.17h1.17l2.34,3.52,1.17,4.69h1.17l1.17,1.17-1.17,1.17v1.17l2.34,2.34h1.17v3.52l-1.17,2.34,3.52,2.34,3.52,1.17,1.17,1.17,1.17,1.17h3.52l2.34,2.34L446.7,435l4.69-4.69h7l3.52-5.86,1.17-4.69,1.17-1.17h1.17l1.17-2.34-1.17-2.34V412.7h1.17l1.17,1.17,4.69,1.17,4.69,1.17,1.17,1.17,1.17,1.17,2.34-1.17h2.34v2.34l2.34,2.34h4.69l4.69-1.17v2.34l1.17,2.34h4.69l1.17,1.17,2.34,1.17,1.17-1.17h1.17l3.52-2.34,2.34-1.17,3.52,2.34,2.34,1.17,10.55-2.34,7-4.69-1.17-2.34L531.07,415l-1.17-8.2-2.34-4.69-2.34-2.34h-4.69l-2.34-3.52-2.34-3.52h-4.69l-3.52-3.52v-1.17l-1.17-2.34h0l-5.86,2.34-5.86,2.34-2.34-1.17-2.34-1.17h-8.2l-2.34-2.34-1.17-4.69-5.86-3.52L467.79,374l-5.86-1.17-2.34-1.17-2.34-2.34-2.34-3.52h1.17Z" transform="translate(-1.54 -14.08)" fill="#d9dee2" stroke="#d9dee2" stroke-width="0.93"/><path id="vectormap1_YAN" data-name="vectormap1 YAN" d="M506.46,197.07V195.9h-2.34l-5.86,2.34v3.52h0l4.69,1.17,3.52-1.17v-4.69h0Zm15.23,29.3v-4.69l1.17-3.52v-2.34l-1.17-1.17-1.17,3.52L519.36,224l-3.52,3.52L510,228.71l-1.17,1.17h-1.17l-1.17,2.34-1.17,1.17-1.17,1.17-1.17,1.17v1.17l1.17,1.17v1.17l-1.17,2.34,1.17,4.69V251l-3.52,3.52-2.34,2.34-1.17,3.52-1.17,2.34L494.75,265v4.69l-1.17,2.34-1.17,3.52h3.52l1.17,1.17,1.17,1.17,2.34-1.17h2.34l7,4.69,3.52,7v1.17l-1.17,1.17,1.17,3.52v3.52h-2.34l-3.52,2.34-1.17,3.52,4.69,4.69,3.52,2.34h-2.34L510,309.57l-2.34,1.17h-1.17v-3.52l-1.17-2.34v-1.17l1.17-2.34V299l1.17-1.17,1.17-1.17h-1.17v-1.17l1.17-1.17v-4.69l-1.17-2.34v-4.69H494.75l-2.34,3.52-1.17,2.34V292l-2.34,8.2-2.34,2.34L483,303.71l-1.17,3.52-2.34,2.34L476,310.74l-3.52,2.34-2.34-1.17L469,313.09l-2.34,3.52H463.1v-1.17l-1.17-1.17-4.69-1.17-3.52-2.34-2.34-1.17-1.17-2.34L449,303.71V300.2h0l4.69,2.34,5.86,2.34-1.17,1.17h-2.34v1.17l3.52,2.34h4.69v-2.34l1.17-2.34h1.17l2.34-1.17,1.17-1.17h1.17V300.2l4.69-2.34,4.69-2.34,1.17-3.52v-2.34l3.52-2.34,2.34-3.52-2.34-4.69-1.17-7,3.52-5.86,2.34-5.86,2.34-7,1.17-1.17,1.17-1.17,3.52-7-1.17-5.86v-5.86l4.69-4.69,7-11.72V212.3l-2.34-3.52-5.86-2.34-2.34-1.17-2.34-1.17h-1.17l1.17-1.17h-1.17v-1.17l-5.86,7L483,217l-9.38,7-7,3.52h1.17l-1.17,2.34h-1.17l-1.17,2.34h2.34l1.17,1.17-2.34,3.52-2.34,4.69v2.34l-1.17,2.34-1.17-1.17h-1.17l-2.34,2.34L456.07,251v1.17h0l1.17-1.17h1.17l1.17,2.34,1.17,2.34h1.17V258l-1.17,1.17V265l2.34,2.34v1.17l-7,8.2h-2.34l1.17-1.17v-1.17l-1.17-1.17-1.17-1.17h0l-1.17-8.2L449,260.35l-3.52-4.69h1.17L449,258v1.17l-2.34-4.69L442,251l-2.34,1.17-1.17,2.34h-1.17l2.34,3.52,1.17,2.34v2.34L438.49,265l-2.34,2.34L435,272.07l2.34,3.52,1.17,3.52-4.69,2.34L427.95,285l-1.17,1.17-1.17,2.34h-4.69l-4.69,1.17h-3.52L410.37,292v1.17l-3.52,1.17-3.52,2.34v1.17L401,296.68h-3.52l1.17,3.52v2.34l1.17,2.34v1.17l-2.34,2.34-1.17,4.69H394l-1.17,2.34,1.17,2.34,3.52,1.17-1.17,2.34,1.17,2.34H401l1.17,1.17,2.34-1.17h2.34v1.17L408,326l1.17-1.17h1.17l3.52,1.17,3.52,2.34,1.17,1.17,2.34,1.17-1.17,1.17L417.4,333l2.34,3.52,3.52,3.52h0l2.34-1.17,2.34-1.17,3.52,1.17h1.17l1.17-1.17h2.34v1.17l1.17,1.17h1.17l2.34,2.34-1.17,1.17-1.17,2.34v3.52l1.17,2.34L442,354.1v8.2l5.86,1.17,5.86-1.17,2.34,3.52,1.17,3.52,2.34,2.34,2.34,1.17,5.86,1.17,4.69,3.52,5.86,3.52,1.17,3.52,2.34,3.52h8.2l2.34,1.17,2.34,1.17,7-2.34,4.69-2.34h1.17v3.52l3.52,3.52h4.69l2.34,3.52,2.34,3.52h4.69l2.34,2.34,2.34,3.52,5.86-3.52,3.52-4.69,1.17-2.34v-1.17l1.17-1.17,1.17-2.34-2.34-1.17-1.17-1.17v-2.34l1.17-1.17h2.34l4.69-7,1.17-7L547.48,367l-2.34,1.17L542.79,367l-1.17-2.34h-2.34l-1.17-3.52h1.17l1.17-2.34v-8.2h0l-3.52-1.17-1.17-3.52v-8.2l1.17-4.69-1.17-5.86-1.17-3.52-1.17-1.17v-1.17l2.34-2.34v-1.17l-1.17-1.17v-4.69l4.69-2.34,2.34-5.86,1.17-8.2,1.17-5.86-1.17-1.17-1.17-1.17v-1.17L540.45,285l-2.34,2.34h-3.52L532.25,285l-3.52-2.34h0l-1.17-3.52-1.17-2.34v-3.52l2.34-1.17h0V270.9l1.17-1.17,4.69-2.34,2.34-2.34,2.34,1.17h2.34l1.17-5.86v-7l-2.34-1.17-2.34-2.34v-4.69h3.52l2.34-2.34v-3.52l-2.34-2.34-2.34-2.34-1.17-2.34-1.17-2.34h-3.52l-3.52,2.34h2.34l1.17,2.34v2.34l-4.69-1.17-1.17-3.52-4.69,1.17-1.17,4.69,1.17,4.69,2.34,3.52h2.34l2.34,2.34-1.17,5.86-1.17-2.34-1.17-2.34-7-3.52-5.86-4.69,1.17-1.17,2.34-4.69-1.17-2.34,3.52-3.52,2.34-3.52h0Zm12.89,2.34,1.17-1.17v-2.34L534.59,224l-5.86,2.34,4.69,2.34h1.17Zm-11.72-17.58L518.18,210l1.17,3.52h1.17l1.17-2.34h1.17Zm5.86-5.86,1.17,1.17,1.17-1.17-2.34-1.17-1.17,1.17h1.17Z" transform="translate(-1.54 -14.08)" fill="#d9dee2" stroke="#d9dee2" stroke-width="0.93"/><path id="vectormap1_KO" data-name="vectormap1 KO" d="M367,253.32l-7-5.86-5.86-4.69h-4.69l-1.17-1.17-1.17,1.17-2.34,1.17-9.38-1.17h-8.2l-3.52,4.69-3.52,4.69L319,255.66h2.34l1.17,1.17-1.17,3.52-1.17,3.52,1.17,2.34v1.17l-1.17,1.17L319,269.73l-1.17-1.17-2.34-2.34h-1.17l-1.17,1.17-1.17-1.17V265h-3.52l-1.17-1.17L304.9,265l-1.17-1.17v-2.34l-8.2-5.86-8.2-3.52V258l2.34,4.69v5.86l-2.34,3.52v2.34l1.17,2.34L285,277.93h-2.34l-3.52,4.69-1.17,4.69,1.17,1.17h1.17l1.17-1.17,1.17,1.17,2.34,1.17v-1.17l1.17-2.34,3.52-1.17,1.17,1.17L292,285h1.17l1.17,2.34,1.17,2.34-4.69,4.69L285,299l-1.17,3.52-1.17,2.34-7,2.34h-2.34l-2.34,1.17-3.52,5.86v3.52l-4.69,1.17-2.34,3.52,2.34,2.34,1.17,2.34h0v2.34l1.17,3.52-1.17,1.17v2.34l3.52-2.34,2.34-2.34h2.34v-1.17l4.69,2.34,3.52,1.17L285,333h3.52v1.17l2.34-1.17-1.17-3.52,2.34-5.86,7,2.34h2.34l2.34,2.34-1.17,2.34h0l3.52,2.34,2.34-1.17,2.34,3.52,2.34,1.17h2.34l3.52-1.17,1.17,1.17v1.17l1.17-1.17h3.52L326,337.7h0l2.34-1.17,3.52-1.17,7,7,11.72,1.17v-1.17l2.34-1.17,1.17-2.34,1.17-3.52h2.34L358.8,333l-1.17-1.17v-1.17L360,326l2.34-4.69L367,316.6l4.69-4.69,1.17-7,1.17-1.17,2.34-1.17h0l1.17-1.17h1.17l2.34-1.17h2.34v1.17l1.17,2.34,2.34-1.17,2.34-1.17,2.34-1.17h0V299l3.52-1.17,2.34-1.17H401l2.34,1.17h0l3.52-3.52,3.52-1.17V292l2.34-2.34h3.52l4.69-1.17h4.69l1.17-1.17,1.17-2.34,5.86-2.34,4.69-3.52-1.17-3.52L435,272.07l1.17-4.69h1.17l1.17-1.17L436.15,265h-2.34l-1.17,1.17-2.34,1.17-2.34,1.17-2.34,1.17-2.34,1.17h-1.17l-1.17-1.17-1.17,2.34v1.17l-8.2,2.34-7,1.17-1.17-1.17-1.17-1.17L367,253.32h0Z" transform="translate(-1.54 -14.08)" fill="#d9dee2" stroke="#d9dee2" stroke-width="0.93"/><path id="vectormap1_TVE" data-name="vectormap1 TVE" d="M158.41,263.87l-3.52-2.34-1.17,1.17-1.17,1.17L149,265l-3.52,1.17h-1.17L143.17,265l-1.05-1.17-6.45-1.17-6.56-2.34-1.64-1.17-1.52-2.34L124.07,258l-1.64,1.17h0.12l0.59,1.17-1.05,1.17L121,262.69V265l-0.7,2.34-3,2.34-2.93,3.52,4.92,5.86,4.57,5.86,6.21,1.17,4.45,1.17,0.35,2.34,0.47,1.17,1.76,2.34,1.64,1.17,3.16-1.17,2.46-1.17h1.17l1.17-1.17,1.17,2.34,1.17,2.34,3.52,1.17,3.52,1.17,1.17,1.17,1.17-1.17,1.17-1.17,2.34,1.17,2.34,1.17h1.17l1.17,2.34v2.34l3.52-4.69,3.52-1.17-1.17-2.34v-4.69l1.17-2.34V287.3l1.17-1.17L176,285h2.34v-1.17l-1.17-1.17,2.34-1.17h2.34l1.17-7h0l-4.69-1.17-3.52-1.17h-2.34l-1.17-1.17-1.17-1.17-2.34-1.17h-1.17l-1.17,1.17-2.34-1.17-1.17-1.17h-1.17l-2.34-3.52h0Z" transform="translate(-1.54 -14.08)" fill="#d9dee2" stroke="#d9dee2" stroke-width="0.93"/><path id="vectormap1_BRY" data-name="vectormap1 BRY" d="M99.69,304.88l-1.17,1.17h-4.8l-2.23-1.17H89l-2-3.52-3.52-1.17-1.05,1.17-0.35,2.34-0.7,1.17H80.59l-1.76,2.34L77,309.57l-1.05,2.34H75.08L76,313.09l-0.23,1.17h0.7l2.93,1.17,2.23-1.17,1.05,1.17,0.7,2.34,2.23,1.17,1.88,1.17,2.81,3.52,0.35,3.52-1.52,2.34L88.91,333l2.23-2.34L93.25,333l0.82-1.17,0.59-1.17,0.7,1.17h0.47l2.93-1.17,1.29-1.17,2.81-1.17,0.35-2.34,0.47-2.34,1.88,1.17,2.58-1.17H109l0.47-1.17-2.7-4.69,1.17-2.34,1.88-1.17-1.17-5.86-0.7-4.69-4.1,1.17h-4.1Z" transform="translate(-1.54 -14.08)" fill="#d9dee2" stroke="#d9dee2" stroke-width="0.93"/><path id="vectormap1_MUR" data-name="vectormap1 MUR" d="M279.11,116.21v0.59l-2.34,1.76-3.52-1.41-2.34-.82-1.17.94-2.34,1.29-1.17-1.88-1.17-.12-2.34-.35v2.34L258,120.89l-3.52,4.69v2.34l-1.17,5.86-1.17,4.69-3.52,1.17H244l-7,5.86,4.69,5.86,3.52,5.86v3.52l1.17,3.52,3.52-1.17,1.17,1.17h1.17l1.17,1.17v-4.69l1.17-2.34v-4.69l2.34,4.69v1.17h-1.17v5.86H258l1.17,5.86H258v1.17l1.17,1.17h1.17v5.86l2.34,3.52,3.52,4.69,3.52,5.86,2.34,4.69,11.72,3.52,7-1.17,5.86-2.34,1.17-1.17v-2.34l2.34-2.34,2.34-3.52h0l-1.17-2.34h0l-1.17-1.17,1.17-3.52,1.17-3.52h-2.34v-7h0L299,170.11v1.17h0l-1.17-8.2V150.19h0l-1.17-2.34h-1.17l1.17-1.17-1.17-1.17v-1.17h-2.34L292,140.82l-1.17-2.34-2.34-1.17-2.34,1.17L285,137.3h0l2.34-1.17,2.34-2.34-2.34-1.17h0l1.17-1.17-1.17-1.17L285,129.1h1.17l1.17-1.17-1.17-1.17v-1.17l2.34,2.34L292,129.1l-1.17-3.52-1.17-4.69v1.17h-3.52v1.17L285,122.06h0v-1.17l-1.17-2.34v-1.17l-1.17,1.17v1.17h-2.34l-1.17-3.4v-0.12h0Z" transform="translate(-1.54 -14.08)" fill="#d9dee2" stroke="#d9dee2" stroke-width="0.93"/><path id="vectormap1_PNZ" data-name="vectormap1 PNZ" d="M180.67,374l-2.34,2.34H176l-3.52-7-2.34-4.69L169,365.82,167.78,367l-3.52-2.34-1.17-3.52h-2.34l-1.17,1.17-1.17,2.34-1.17,1.17,1.17,1.17h0v2.34l-2.34,1.17,1.17,3.52v5.86l-1.17,1.17-2.34,1.17,2.34,2.34,3.52,2.34,1.17,2.34,1.17,1.17h2.34l1.17,1.17,1.17,1.17v1.17l3.52,2.34h2.34l1.17,1.17v2.34l3.52-1.17h2.34l2.34,1.17L183,401l3.52-2.34,3.52-4.69V391.6l-1.17-2.34,1.17-4.69-1.17-4.69-4.69-2.34L180.67,374h0Z" transform="translate(-1.54 -14.08)" fill="#d9dee2" stroke="#d9dee2" stroke-width="0.93"/><path id="vectormap1_VLA" data-name="vectormap1 VLA" d="M179.5,320.12l-2.34-1.17h-2.34l1.17-4.69-1.17-3.52h0l-4.69,1.17-3.52-3.52v-3.52l-3.52,5.86-2.34,7,1.17,1.17,1.17,2.34h0l1.17,1.17,2.34,2.34-2.34,7,3.52,4.69,4.69,5.86,4.69-1.17,2.34-2.34h8.2V337.7H190v-1.17l1.17-1.17V333l-2.34-1.17-2.34-1.17v-3.52h-1.17l-3.52-3.52-1.17-2.34-1.17-1.17h0Z" transform="translate(-1.54 -14.08)" fill="#d9dee2" stroke="#d9dee2" stroke-width="0.93"/><path id="vectormap1_LEN" data-name="vectormap1 LEN" d="M154.89,200.58l-2.34,1.17,1.17,1.17,1.17,1.17h2.34l1.17,1.17h-1.17l-1.17,1.17v1.17h-1.17v4.69l1.17,2.34h2.34l3.52,1.17,2.34,4.69L161.92,224l-3.52,2.34L153.72,224l-1.17-3.52,1.17-3.52-2.34-2.34-1.17,1.17L149,214.65l-1.17-1.17-1.17-1.17-1.17,1.17h-1.17v-2.34h-1.41l-0.82,1.17-1.76,1.17h0.59l-1.41,2.34-2.11-1.17-2,1.17h-2.11l1.17,3.52,0.94,2.34,1.17,2.34,1.05,2.34-0.82,4.69,1.76,3.52h1.76l2.34-1.17,1.64,1.17,1.17,2.34,2.34-1.17h3.52v1.17l2.34,1.17,2.34-1.17,2.34-1.17v1.17h0l1.17,1.17,1.17,1.17v4.69h4.69l1.17,1.17v1.17L169,249.8v2.34l1.17,2.34,2.34,3.52H176l2.34,1.17L179.5,258l1.17-1.17H183l1.17-1.17H183v-1.17l1.17-1.17V249.8l3.52-2.34,3.52-1.17,2.34-2.34v-1.17l1.17-1.17h3.52l2.34-1.17-1.17-1.17h0l-1.17-4.69-1.17-1.17h-2.34l-2.34-2.34L190,228.71h-1.17v1.17l1.17,2.34H187.7l-1.17-1.17h-8.2l-1.17-1.17-2.34,2.34-3.52,1.17L169,229.88h-3.52l-2.34-1.17-1.17-1.17h1.17l1.17-2.34,1.17-2.34,2.34-5.86,3.52-4.69v-3.52L169,205.27v-3.52h-8.2l-5.86-1.17h0Z" transform="translate(-1.54 -14.08)" fill="#d9dee2" stroke="#d9dee2" stroke-width="0.93"/><path id="vectormap1_AST" data-name="vectormap1 AST" d="M135.2,442h-1.52l-1.29-1.17L132.16,442h-0.23L131,440.82h-1.52l-2,1.17,1.17,2.34,0.7,3.52,1.41,1.17,0.94,1.17-1.52,1.17-1.05,2.34,0.35,3.52,1.17,2.34h3l2.46,2.34h-2l-2.58,1.17L131,469l-0.47,4.69-4.22,1.17H122L122.2,476l1.17,1.17-0.47,1.17-0.35,1.17,1.17,1.17,0.82,1.17-4,1.17-1.05,3.52L120,487.7h2.34l0.82,1.17L124,490v1.17h1.17l-0.23,1.17h1.05l0.7-1.17,3.4,2.34,0.12,1.17h0.12l1.29-1.17h0.59l-0.23,1.17,0.82-1.17,1.17-1.17,0.7,1.17-0.12,1.17-0.94,1.17-0.47,1.17,1.41-1.17,1.41-1.17,3.28-2.34,3.4-1.17,0.59,1.17L141.06,483h0.7l1.41,2.34h2.34l1.17-8.2v-9.38l-2.34-2.34-1.88-2.34-1.17,1.17-1.17-1.17,1.05-3.52,2-2.34-0.47-3.52-1.17-3.52,2.81-2.34-1.17-2.34-0.7-2.34L139,442H135.2Z" transform="translate(-1.54 -14.08)" fill="#d9dee2" stroke="#d9dee2" stroke-width="0.93"/><path id="vectormap1_VGG" data-name="vectormap1 VGG" d="M147.86,403.32v-1.17h-3.52l-2.81-2.34-0.7-4.69-2.58-1.17-3-1.17-1.29-1.17-1.05-2.34h-1.52l-1.76,1.17-2.81-1.17h-2.93l-0.12,2.34,0.35,2.34-2.46,2.34L119,397.46l0.23,4.69,1.17,5.86-3.16,2.34L114,413.87h0.47l0.7,1.17,0.59,2.34L116,420.9l-4.22,2.34-3.87-1.17-1.52,1.17L105,424.42H103.8l-0.59,1.17,1.17,2.34,1.76,3.52-0.94,4.69L105,438.48h2v1.17l-0.59,1.17h1.88l0.82,1.17,0.7,1.17,5.74-2.34,4.34,2.34,1.52-2.34,0.82-2.34,1.76,1.17V442h3.52l2-1.17H131l0.94,1.17h0.23l0.23-1.17,1.29,1.17H139l3.52,1.17,0.7,2.34,1.17,2.34,2.34-1.17,1.17-1.17h3.52v-2.34l1.17-3.52,4.69-3.52,5.86-1.17,1.17-1.17,1.17-1.17v-1.17l-2.34-4.69-1.17-3.52h-2.34l-2.34-1.17v-2.34l-1.17-1.17h-1.17l-1.17,1.17h0l-1.17-1.17v-1.17h-1.17l-1.17-1.17h0l2.34-1.17,2.34-3.52L153.72,408l-1.17-1.17h-1.17V404.5H149l-1.17-1.17h0Z" transform="translate(-1.54 -14.08)" fill="#d9dee2" stroke="#d9dee2" stroke-width="0.93"/><path id="vectormap1_SAR" data-name="vectormap1 SAR" d="M173.64,398.64l-1.17-1.17-2.34-1.17-3.52-2.34v-1.17l-1.17-1.17-1.17-1.17h-2.34l-1.17-1.17-1.17-2.34-3.52-1.17-2.34-3.52L149,384.57l-6.8,2.34,0.23,3.52-1.64,4.69,0.7,4.69,2.81,2.34h3.52v1.17L149,404.5h2.34v2.34h1.17l1.17,1.17,1.17,3.52L152.55,415l-2.34,1.17h0l1.17,1.17h1.17v1.17l1.17,1.17h0l1.17-1.17h1.17l1.17,1.17v2.34l2.34,1.17h2.34l1.17,3.52,2.34,4.69v1.17l3.52,5.86v7l5.86-2.34,1.17-3.52,1.17-3.52h1.17v1.17l1.17,1.17h5.86l1.17-1.17,1.17-2.34,9.38,2.34,2.34-1.17,2.34-1.17,1.17,1.17h1.17v-2.34l-1.17-4.69-1.17-3.52-1.17-1.17h0v-4.69h-1.17v-2.34l-2.34-1.17L195.91,415V412.7l-1.17-3.52h0V408l-1.17-1.17-7-1.17L183,401l-1.17-1.17-2.34-1.17h-2.34l-3.52,1.17v-1.17Z" transform="translate(-1.54 -14.08)" fill="#d9dee2" stroke="#d9dee2" stroke-width="0.93"/><path id="vectormap1_MO" data-name="vectormap1 MO" d="M198.25,364.65l-3.52,1.17L192.39,367h-1.17v-1.17L188.88,367l-2.34,1.17-2.34-4.69-2.34-8.2-2.34-1.17h-2.34L176,352.93l-2.34-2.34v3.52l-2.34,1.17-1.17,1.17h-4.69l2.34,1.17L169,360h0l-2.34-1.17h-1.17V360l-2.34,1.17,2.34,3.52,2.34,2.34,1.17-1.17,1.17-1.17,2.34,4.69,3.52,7h2.34l2.34-2.34,3.52,3.52,4.69,2.34h4.69l2.34,1.17,4.69-7,1.17-4.69H200.6v-1.17h-1.17L198.25,367l1.17-1.17-1.17-1.17h0Z" transform="translate(-1.54 -14.08)" fill="#d9dee2" stroke="#d9dee2" stroke-width="0.93"/><path id="vectormap1_KR" data-name="vectormap1 KR" d="M241.61,151.36l-4.69-5.86-3.52,8.2-4.69,5.86h-3.52l-3.52,2.34h-1.17v1.17l-1.17,1.17-3.52,1.17-1.17,3.52,1.17,1.17h0l-1.17,1.17-3.52,3.52L210,179.49l-3.52,1.17h-3.52l-1.17,8.2-1.17,9.38-15.23,2.34L169,201.75v2.34l2.34,3.52v-1.17l1.17,1.17h8.2l1.17-1.17h0L183,218.16l-3.52,12.89h7l1.17,1.17H190l-1.17-2.34v-1.17H190l2.34,2.34,2.34,2.34h2.34l1.17,1.17,1.17,4.69h0l1.17,1.17,1.17-3.52-1.17-5.86,1.17-5.86v1.17h1.17l1.17-2.34,1.17-2.34v3.52h1.17l1.17-3.52,1.17-2.34v3.52h0l1.17-2.34,1.17-1.17L210,222.85l-2.34,4.69h1.17l1.17-2.34v1.17l2.34,1.17,2.34-4.69v-1.17h-1.17v-1.17l-1.17,1.17h0l1.17-3.52,1.17-3.52,1.17,10.55L210,233.4l-1.17,3.52-1.17,4.69H210l2.34,2.34,3.52,3.52,1.17-1.17,1.17-1.17h1.17v1.17l2.34-3.52,1.17-3.52h0v-1.17l2.34-2.34,2.34-2.34-2.34-3.52L224,225.19l2.34-2.34,1.17-2.34,1.17-3.52,1.17-3.52,1.17,1.17,1.17,1.17,2.34-1.17,2.34-2.34V210l1.17-2.34V204.1h-2.34v-5.86l1.17-1.17h0l4.69-5.86,1.17-2.34,1.17-3.52h1.17l1.17,1.17,2.34-2.34,1.17-1.17v1.17H251l1.17-7-2.34-7h3.52l-1.17-2.34L251,165.43l1.17-1.17H251l-1.17-1.17-3.52,1.17-1.17-3.52,1.17-3.52-4.69-5.86h0Z" transform="translate(-1.54 -14.08)" fill="#d9dee2" stroke="#d9dee2" stroke-width="0.93"/><path id="vectormap1_PSK" data-name="vectormap1 PSK" d="M135.44,221.68l-0.94-2.34-1.17-3.52-2.58,3.52-2.7,2.34h-3.63L122.55,224l0.82,1.17,0.59,1.17-1.76,3.52-1.64-1.17,0.47-1.17,0.35-1.17h-0.7l-0.23,1.17h-1.17l-0.94-1.17-2.11,1.17H114v1.17h0.47l-0.12,1.17-1.17,3.52-2.7,2.34-2.93,1.17,0.23,1.17,0.12,1.17L105,242.77l-3.87,4.69H101l0.12,1.17L102,249.8l1.17,1.17-0.47,1.17-0.12,1.17h1.05l1.52,2.34-1.41,3.52-0.94,1.17h1.76l0.94,1.17h2l2.11,5.86v2.34l0.59,1.17h2.46l1.64,2.34,3-2.34,2.93-2.34L121,265v-2.34l1.05-1.17,1.05-1.17-0.59-1.17h-0.12l1.64-1.17,1.88-1.17-0.23-2.34,2.11-2.34,0.59-2.34,3.52-1.17,0.23-1.17,0.12-1.17h1.41l1.05-1.17-1.17-3.52-0.82-4.69,5.86-2.34-1.76-3.52,0.82-4.69L136.61,224l-1.17-2.34h0Z" transform="translate(-1.54 -14.08)" fill="#d9dee2" stroke="#d9dee2" stroke-width="0.93"/><path id="vectormap1_NGR" data-name="vectormap1 NGR" d="M151.38,236.91v-1.17h-3.52l-2.34,1.17-1.17-2.34-1.64-1.17-2.23,1.17H138.6l-5.86,2.34,0.82,4.69,1.17,3.52-1.05,1.17h-1.41l-0.12,1.17-0.23,1.17-3.52,1.17-0.59,2.34-2.11,2.34,0.23,2.34,1.52,2.34,1.64,1.17,6.56,2.34,6.45,1.17,2.23,1.17,1.17,1.17h0L149,265l3.52-1.17,1.17-1.17,1.17-1.17,3.52,2.34,2.34,3.52h1.17l1.17,1.17,2.34,1.17,1.17-1.17h1.17l2.34,1.17,1.17,2.34h1.17l2.34,1.17v-7L173.64,265h-1.17v-1.17H171.3v-2.34l1.17-3.52-2.34-3.52L169,252.15v-3.52l-2.34-2.34v-1.17l-1.17-1.17h-4.69v-4.69l-1.17-1.17-1.17-1.17h0v-1.17l-2.34,1.17-2.34,1.17-2.34-1.17h0Z" transform="translate(-1.54 -14.08)" fill="#d9dee2" stroke="#d9dee2" stroke-width="0.93"/><path id="vectormap1_VLG" data-name="vectormap1 VLG" d="M218.17,266.21H217L214.66,265v-2.34l-1.17-1.17h-1.17v-4.69l1.17-2.34,1.17-3.52,1.17-3.52-3.52-3.52L210,241.6h-2.34v1.17l-3.52,1.17-4.69,1.17-1.17-1.17-1.17-2.34h-2.34l-1.17,1.17v1.17l-2.34,2.34-3.52,1.17-3.52,2.34v3.52L183,254.49v1.17h1.17L183,256.83h-2.34L179.5,258l-1.17,1.17L176,258h-3.52l-1.17,3.52v2.34h1.17V265h1.17l1.17,1.17v7h3.52l4.69,1.17v7l1.17-1.17,3.52,1.17v-3.52l1.17-3.52,1.17,1.17-1.17,2.34v4.69l3.52,2.34,1.17-1.17h1.17l3.52,3.52v5.86l4.69,5.86,4.69-1.17v-1.17l1.17-1.17,3.52,1.17,3.52,1.17,1.17-1.17,1.17-1.17v2.34h1.17l1.17,1.17v3.52l4.69,1.17v1.17h0l1.17,1.17,2.34,1.17,1.17,2.34,1.17,2.34,8.2,5.86h1.17l1.17-1.17,2.34,1.17h1.17l1.17-1.17,1.17-1.17,2.34,1.17,1.17,2.34,2.34-2.34-1.17-2.34,1.17-1.17,1.17-1.17H251l-1.17-2.34V308.4l2.34-1.17h2.34l4.69-2.34,2.34-2.34-1.17-4.69L258,296.68v-3.52h-7l-3.52-4.69L245.13,285l-2.34,1.17h-3.52v-3.52h-2.34l-1.17-1.17-1.17-1.17V279.1l-1.17-1.17-1.17-1.17h-1.17v-1.17h-2.34l-3.52,1.17v-2.34L224,273.24l-1.17-1.17-1.17-1.17-1.17-1.17h-1.17v-1.17l-1.17-2.34h0Z" transform="translate(-1.54 -14.08)" fill="#d9dee2" stroke="#d9dee2" stroke-width="0.93"/></g></svg>