<svg xmlns="http://www.w3.org/2000/svg" viewBox="0 0 12 19.99"><title>ok</title><path d="M5 14.09a7.78 7.78 0 0 1-4.13-1.48c-.15-.12-.3-.23-.44-.36a1.18 1.18 0 0 1-.17-1.66 1.18 1.18 0 0 1 1.57-.35 2.49 2.49 0 0 1 .34.2 6.8 6.8 0 0 0 7.53.07 2 2 0 0 1 .73-.38 1.15 1.15 0 0 1 1.32.53 1.12 1.12 0 0 1-.08 1.47 6.1 6.1 0 0 1-2.17 1.4 10.34 10.34 0 0 1-2.5.56l.27.29 3.46 3.47a1.15 1.15 0 0 1 .27 1.34 1.37 1.37 0 0 1-1.28.8 1.25 1.25 0 0 1-.81-.41C8 18.7 7.15 17.84 6.3 17c-.25-.26-.37-.21-.58 0-.87.9-1.76 1.79-2.66 2.67a1.11 1.11 0 0 1-1.34.24 1.36 1.36 0 0 1-.79-1.25 1.25 1.25 0 0 1 .42-.84l3.41-3.42z" fill="#fff"/><path d="M6 10.12a5.06 5.06 0 1 1 5.09-5 5.06 5.06 0 0 1-5.09 5zm2.48-5.06A2.48 2.48 0 1 0 6 7.54a2.47 2.47 0 0 0 2.48-2.46v-.02z" fill="#fff"/></svg>