<svg xmlns="http://www.w3.org/2000/svg" viewBox="0 0 472.33 319.81"><title>sm</title><path d="M326.84 0a42.71 42.71 0 1 1-42.71 42.71A42.71 42.71 0 0 1 326.84 0zM145.69.32a42.71 42.71 0 1 1-42.71 42.71A42.71 42.71 0 0 1 145.7.32zm313.27 297.94c-11.54 7.33-27.39 3.74-35.3-8.67-7.13-11.18-13.49-22.85-20.79-35.33-82.83 87.38-251.3 87.32-333.83.27-7 11.55-13.66 22.88-20.75 33.92-8.34 13-26.86 17.42-38.16 9.49-10.85-7.62-13.29-26.07-5.86-38.42 17.61-29.26 34.77-58.77 52.24-88.12 6.46-10.86 16.8-14 28.43-12 10.6 1.82 18 9 19.72 19.44 1 6.07.11 13.93-3.11 18.94-4.79 7.45-1.91 11.13 2.66 16.44 22.63 26.3 52.36 40.34 85.14 47.77 47.65 10.8 94.4 6.37 137.75-16.71 15.73-8.37 28.83-21.89 42.41-33.88 2.35-2.07 2.5-8.77 1.2-12.47-7-20.23-.77-33.56 11-37.71 14.76-5.2 28.54-2.19 37.4 14.69 15.31 29.16 33 57.1 49.63 85.55 7.35 12.51 3.05 28.65-9.78 36.8z" fill="#fff"/></svg>