<svg xmlns="http://www.w3.org/2000/svg" viewBox="0 0 70 56.89"><title>tw</title><path d="M70 6.73a28.72 28.72 0 0 1-8.25 2.26 14.4 14.4 0 0 0 6.31-7.95 28.71 28.71 0 0 1-9.12 3.48A14.37 14.37 0 0 0 34.48 17.6a40.76 40.76 0 0 1-29.57-15 14.38 14.38 0 0 0 4.44 19.17 14.31 14.31 0 0 1-6.5-1.79v.18a14.37 14.37 0 0 0 11.52 14.08 14.39 14.39 0 0 1-6.49.25 14.37 14.37 0 0 0 13.41 10A28.8 28.8 0 0 1 3.43 50.6 29.18 29.18 0 0 1 0 50.4a40.64 40.64 0 0 0 22 6.45c26.42 0 40.86-21.88 40.86-40.86v-1.86A29.21 29.21 0 0 0 70 6.73z" fill="#fff"/></svg>