<svg xmlns="http://www.w3.org/2000/svg" viewBox="0 0 261.03 512"><title>ya</title><path d="M238.01 0h-72.74C91.52 0 17.2 54.42 17.2 176c0 63 26.69 112 75.62 139.92L3.27 478c-4.24 7.67-4.36 16.35-.3 23.24A22.14 22.14 0 0 0 22.35 512h45.3c10.29 0 18.32-5 22.16-13.69l84-164.23h6.13v157.45A20.73 20.73 0 0 0 200.35 512h39.58c12.43 0 21.11-8.68 21.11-21.1V22.4c0-13.19-9.52-22.4-23.03-22.4zm-58.1 261.13H169.1c-41.92 0-66.94-34.21-66.94-91.52 0-71.26 31.61-96.65 61.2-96.65h16.55v188.17z" fill="#ff2c2c"/></svg>