<svg        xmlns="http://www.w3.org/2000/svg"
        xmlns:xlink="http://www.w3.org/1999/xlink"
        width="21px" height="21px">
    <path fill-rule="evenodd"  fill="rgb(131, 202, 20)"
          d="M10.500,21.000 C4.701,21.000 -0.000,16.299 -0.000,10.500 C-0.000,4.701 4.701,0.000 10.500,0.000 C16.299,0.000 21.000,4.701 21.000,10.500 C21.000,16.299 16.299,21.000 10.500,21.000 ZM15.599,6.367 C15.067,5.854 14.203,5.854 13.671,6.367 L9.757,12.597 L7.280,10.188 C6.747,9.675 5.884,9.675 5.351,10.188 C4.819,10.700 4.819,11.530 5.351,12.043 L8.900,15.495 C8.927,15.521 8.964,15.530 8.993,15.554 C9.009,15.571 9.014,15.593 9.031,15.609 C9.564,16.121 10.427,16.121 10.960,15.609 L15.599,8.222 C16.132,7.710 16.132,6.879 15.599,6.367 Z"/>
</svg>