<svg xmlns="http://www.w3.org/2000/svg" width="40" height="40" viewBox="0 0 40 40" overflow="scroll"><style>.st0,.st1{fill-rule:evenodd;clip-rule:evenodd;fill:#fff}.st1{fill:#1c1b1b}.st2{fill:#fff}</style><circle class="st0" cx="20" cy="20" r="20" id="Ellipse_1782_13_"/><circle class="st1" cx="20" cy="20" r="17" id="Ellipse_1782_11_"/><path class="st2" d="M5 21h3v-1H5v1zm27-1v1h3v-1h-3zM20 36h1v-3h-1v3zm0-27h1V6h-1v3zM8.7 30.9l.7.7 2.1-2.1-.7-.7-2.1 2.1zm21.9-20.5l-.7-.7-2.1 2.1.7.7 2.1-2.1zm-2.1 19.1l2.1 2.1.7-.7-2.1-2.1-.7.7zM9.4 10.4l2.1 2.1.7-.7-2.1-2.1-.7.7z" id="Shape_1160_3_"/></svg>