<svg xmlns="http://www.w3.org/2000/svg" width="192" height="109" viewBox="0 0 192 109"><style>.st0{fill-rule:evenodd;clip-rule:evenodd}.st0,.st1{fill:#23483b}.st2{fill:#5aaf30}</style><path class="st0" d="M168.9 11.8H23.1L0 109h192z" id="Rectangle_1119_3_"/><path class="st1" d="M95.4 5c3.8 0 6.8 3 6.8 6.8s-3.1 6.8-6.8 6.8-6.8-3-6.8-6.8 3-6.8 6.8-6.8m0-5c-6.5 0-11.8 5.3-11.8 11.8s5.3 11.8 11.8 11.8 11.8-5.3 11.8-11.8S102 0 95.4 0z" id="Ellipse_1780_3_"/><path class="st2" d="M156 40h-42v-6h13c1.1 0 2-.9 2-2v-7c0-1.1-.9-2-2-2H65c-1.1 0-2 .9-2 2v7c0 1.1.9 2 2 2h13v6H37c-5.5 0-10 4.5-10 10v59h139V50c0-5.5-4.5-10-10-10z" id="Rectangle_513_3_"/></svg>