<svg xmlns="http://www.w3.org/2000/svg" viewBox="0 0 22.03 12.58"><title>vk</title><path d="M21.88,11.34l-0.07-.14a11.41,11.41,0,0,0-2.19-2.53h0Q18.89,8,18.69,7.73a0.88,0.88,0,0,1-.16-0.93,8.65,8.65,0,0,1,1-1.5l0.74-1q2-2.64,1.72-3.37L21.9,0.79A0.67,0.67,0,0,0,21.55.6a1.79,1.79,0,0,0-.73,0h-3.3a0.43,0.43,0,0,0-.23,0H17.08A0.5,0.5,0,0,0,17,.72a0.79,0.79,0,0,0-.11.2A18.73,18.73,0,0,1,15.57,3.6q-0.42.71-.78,1.23a6,6,0,0,1-.6.77,4.12,4.12,0,0,1-.44.39,0.45,0.45,0,0,1-.3.13H13.26A0.75,0.75,0,0,1,13,5.79a1.25,1.25,0,0,1-.13-0.45V1.46a2.64,2.64,0,0,0,0-.52A1.77,1.77,0,0,0,12.75.57,0.61,0.61,0,0,0,12.52.3,1.32,1.32,0,0,0,12.14.14,7.68,7.68,0,0,0,10.58,0,7.52,7.52,0,0,0,7.85.28a1.54,1.54,0,0,0-.44.34Q7.21,0.87,7.35.9a1.41,1.41,0,0,1,1,.49L8.42,1.53a2.16,2.16,0,0,1,.16.53,5.29,5.29,0,0,1,.1.84,8.83,8.83,0,0,1,0,1.43q-0.06.59-.11,0.93a1.86,1.86,0,0,1-.15.54L8.26,6,8.2,6.1a0.85,0.85,0,0,1-.31.06A0.73,0.73,0,0,1,7.5,6,2.75,2.75,0,0,1,7,5.55a5.89,5.89,0,0,1-.56-0.78A12.57,12.57,0,0,1,5.8,3.58L5.62,3.25Q5.45,2.93,5.15,2.32a10,10,0,0,1-.5-1.2A0.76,0.76,0,0,0,4.38.76H4.32L4.14,0.63A1.22,1.22,0,0,0,3.87.55l-3.14,0A0.8,0.8,0,0,0,.08.79L0,0.86A0.37,0.37,0,0,0,0,1a0.91,0.91,0,0,0,.07.31A31.58,31.58,0,0,0,1.56,4.47Q2.36,5.94,3,6.89T4.21,8.62a9.19,9.19,0,0,0,.82,1L5.35,10l0.29,0.28a6.73,6.73,0,0,0,.81.66,13.76,13.76,0,0,0,1.18.76,6.41,6.41,0,0,0,1.51.61,5.19,5.19,0,0,0,1.67.19h1.32a0.91,0.91,0,0,0,.61-0.25V12.15a0.76,0.76,0,0,0,.09-0.21,1.16,1.16,0,0,0,0-.31,3.8,3.8,0,0,1,.07-0.89,2.33,2.33,0,0,1,.2-0.6,1.44,1.44,0,0,1,.25-0.34,1,1,0,0,1,.19-0.17h0.09a0.73,0.73,0,0,1,.65.18,3.84,3.84,0,0,1,.7.66q0.33,0.4.78,0.89a5.47,5.47,0,0,0,.8.73l0.23,0.14a2.77,2.77,0,0,0,.6.25,1.28,1.28,0,0,0,.64.06H21a1.33,1.33,0,0,0,.68-0.14A0.57,0.57,0,0,0,22,12a0.89,0.89,0,0,0,0-.39,1.49,1.49,0,0,0-.08-0.3Z" transform="translate(0.01 0.02)" fill="#fff"/></svg>