<svg xmlns="http://www.w3.org/2000/svg" viewBox="0 0 261.03 512"><title>ya</title><path d="M363.49,0H290.75C217,0,142.68,54.42,142.68,176c0,63,26.69,112,75.62,139.92L128.75,478c-4.24,7.67-4.36,16.35-.3,23.24A22.14,22.14,0,0,0,147.83,512h45.3c10.29,0,18.32-5,22.16-13.69l84-164.23h6.13V491.53A20.73,20.73,0,0,0,325.83,512h39.58c12.43,0,21.11-8.68,21.11-21.1V22.4C386.52,9.21,377,0,363.49,0ZM305.39,261.13H294.58c-41.92,0-66.94-34.21-66.94-91.52,0-71.26,31.61-96.65,61.2-96.65h16.55V261.13Z" transform="translate(-125.48)" fill="#ff2c2c"/></svg>