<svg version="1.1" xmlns="http://www.w3.org/2000/svg" width="38" height="38" viewBox="0 0 38 38" enable-background="new 0 0 38 38"><defs><style>.cls-1{fill:#2a3a49;}.cls-2{fill:#d70615;}</style></defs><title>announce_unread_mine</title><g id="Layer_2" data-name="Layer 2"><g id="icons"><g id="announce_unread_mine"><g id="topic_read_mine"><path class="cls-1" d="M37,.85,36.91.77A2.87,2.87,0,0,0,35,0H2.9A2.9,2.9,0,0,0,0,2.9V25.47a2.88,2.88,0,0,0,.85,2.05l.1.09a2.87,2.87,0,0,0,2,.76h.75L3.3,35.64l9.94-7.27H23.68A5.59,5.59,0,0,1,23.32,27H13.2a1.18,1.18,0,0,0-.78.28L4.78,32.88,5,28.47A1.25,1.25,0,0,0,3.94,27h-1a1.53,1.53,0,0,1-1.09-.45l0,0a1.54,1.54,0,0,1-.41-1.05V2.9A1.56,1.56,0,0,1,2.9,1.35H35A1.53,1.53,0,0,1,36,1.8l0,0A1.54,1.54,0,0,1,36.5,2.9V25.47A1.56,1.56,0,0,1,35,27h-.48a5.59,5.59,0,0,1-.36,1.35H35a2.91,2.91,0,0,0,2.9-2.9V2.9A2.89,2.89,0,0,0,37,.85Z"/><circle class="cls-2" cx="28.9" cy="26.23" r="4.29"/></g><path class="cls-1" d="M28.13,7.58A10.87,10.87,0,0,0,20.87,3.4a.62.62,0,0,0-.7.54.62.62,0,0,0,.54.7,9.71,9.71,0,0,1,8.37,10.87.62.62,0,0,0,.54.7h.08a.62.62,0,0,0,.62-.54A10.87,10.87,0,0,0,28.13,7.58Z"/><path class="cls-1" d="M20.47,6.41a.62.62,0,1,0-.16,1.24,6.68,6.68,0,0,1,5.75,7.47.62.62,0,0,0,.54.7h.08a.62.62,0,0,0,.62-.54,7.92,7.92,0,0,0-6.83-8.87Z"/><path class="cls-1" d="M16.53,6.57a.62.62,0,0,0-.93.13l-5.23,8a.63.63,0,0,0,.12.81h0L8.26,17.26a4.29,4.29,0,1,0,5.24,6.8l2.23-1.72h0a.62.62,0,0,0,.48.35h.08a.63.63,0,0,0,.2,0l9.09-3a.63.63,0,0,0,.38-.35.62.62,0,0,0,0-.52A37.84,37.84,0,0,0,16.53,6.57ZM15.12,21.23l-2.39,1.84A3,3,0,1,1,9,18.25l2.39-1.84A21,21,0,0,1,15.12,21.23Zm9.38-2.53-7.89,2.6A22.29,22.29,0,0,0,11.72,15l4.54-7A36.56,36.56,0,0,1,24.51,18.7Z"/></g></g></g></svg>