<svg version="1.1" xmlns="http://www.w3.org/2000/svg" width="38" height="38" viewBox="0 0 38 38" enable-background="new 0 0 38 38"><defs><style>.cls-1{fill:none;}.cls-2{fill:#2a3a49;}</style></defs><title>announce_unread_locked</title><g id="Layer_2" data-name="Layer 2"><g id="icons"><g id="announce_unread_locked"><path class="cls-1" d="M29.15,22.78V21.26a3,3,0,0,0-4-2.88,3.08,3.08,0,0,0-2.05,3v1.42a1.52,1.52,0,0,0-1.52,1.52v3a1.52,1.52,0,0,0,1.52,1.52h6.07a1.52,1.52,0,0,0,1.52-1.52v-3A1.52,1.52,0,0,0,29.15,22.78ZM26.84,26.3v1.21H25.42V26.31a1.22,1.22,0,1,1,1.42,0Zm.8-3.52h-3V21.26a1.52,1.52,0,0,1,3,0Z"/><path class="cls-2" d="M37,.85,36.91.77A2.84,2.84,0,0,0,35,0H2.9A2.9,2.9,0,0,0,0,2.9V25.47a2.9,2.9,0,0,0,.91,2.11h0a2.87,2.87,0,0,0,2,.78h.75L3.3,35.64l9.94-7.27H18A8.94,8.94,0,0,1,17.45,27H13.2a1.18,1.18,0,0,0-.78.28L4.78,32.88,5,28.47A1.25,1.25,0,0,0,3.94,27h-1a1.53,1.53,0,0,1-1.09-.45l0,0a1.54,1.54,0,0,1-.41-1.05V2.9A1.56,1.56,0,0,1,2.9,1.35H35A1.53,1.53,0,0,1,36,1.8l0,0A1.54,1.54,0,0,1,36.5,2.9V25.47A1.56,1.56,0,0,1,35,27h-.17a9.08,9.08,0,0,1-.59,1.35H35a2.91,2.91,0,0,0,2.9-2.9V2.8A2.67,2.67,0,0,0,37,.85Z"/><path class="cls-2" d="M17.52,21l-.91.3A22.29,22.29,0,0,0,11.72,15l4.54-7a36.54,36.54,0,0,1,6.48,7.63,9.07,9.07,0,0,1,1.22-.4,37.82,37.82,0,0,0-7.43-8.65A.61.61,0,0,0,16,6.42a.62.62,0,0,0-.43.28l-5.22,8a.62.62,0,0,0,.11.81h0L8.26,17.26a4.29,4.29,0,1,0,5.24,6.8l2.23-1.72h0a.62.62,0,0,0,.48.35h.08a.63.63,0,0,0,.2,0l.66-.22A9.15,9.15,0,0,1,17.52,21Zm-4.79,2.06A3,3,0,1,1,9,18.25l2.39-1.84a21,21,0,0,1,3.71,4.82Z"/><path class="cls-2" d="M20.31,7.64A6.67,6.67,0,0,1,26.08,15h0a9.13,9.13,0,0,1,1.21.09,7.91,7.91,0,0,0-6.85-8.64.6.6,0,0,0-.46.12.62.62,0,0,0,.3,1.11Z"/><path class="cls-2" d="M20.7,4.64a9.71,9.71,0,0,1,8.38,10.82,9.07,9.07,0,0,1,1.12.47.61.61,0,0,0,.11-.27A11,11,0,0,0,20.87,3.4a.62.62,0,0,0-.7.54.62.62,0,0,0,.54.7Z"/><path class="cls-2" d="M26.11,16.29a7.78,7.78,0,0,0-6,2.84,7.87,7.87,0,0,0-1.63,6.52,7.75,7.75,0,0,0,6.06,6.08,7.87,7.87,0,0,0,6.54-1.62,7.8,7.8,0,0,0-5-13.82Zm4.55,11a1.52,1.52,0,0,1-1.52,1.52H23.08a1.52,1.52,0,0,1-1.52-1.52v-3a1.52,1.52,0,0,1,1.52-1.52V21.35a3.08,3.08,0,0,1,2.05-3,3,3,0,0,1,4,2.88v1.52a1.52,1.52,0,0,1,1.52,1.52Z"/><path class="cls-2" d="M26.11,19.74a1.52,1.52,0,0,0-1.52,1.52v1.52h3V21.26A1.52,1.52,0,0,0,26.11,19.74Z"/><path class="cls-2" d="M26.12,24.09a1.22,1.22,0,0,0-.7,2.21v1.22h1.42V26.3a1.22,1.22,0,0,0-.72-2.21Z"/></g></g></g></svg>