<svg version="1.1" xmlns="http://www.w3.org/2000/svg" width="38" height="38" viewBox="0 0 38 38" enable-background="new 0 0 38 38"><defs><style>.cls-1{fill:#2a3a49;}</style></defs><title>forum_unread_locked</title><g id="Layer_2" data-name="Layer 2"><g id="icons"><g id="forum_unread_locked"><path class="cls-1" d="M31.06,13.56H6.53a.67.67,0,0,0,0,1.35H31.06a.67.67,0,0,0,0-1.35Z"/><path class="cls-1" d="M6.54,8.92H27.47a.68.68,0,0,0,0-1.35H6.54a.68.68,0,0,0,0,1.35Z"/><path class="cls-1" d="M37,.85,36.91.77A2.84,2.84,0,0,0,35,0H2.9A2.9,2.9,0,0,0,0,2.9V25.47a2.9,2.9,0,0,0,.91,2.11h0a2.87,2.87,0,0,0,2,.78h.75L3.3,35.64l9.94-7.27H18A8.94,8.94,0,0,1,17.45,27H13.2a1.18,1.18,0,0,0-.78.28L4.78,32.88,5,28.47A1.25,1.25,0,0,0,3.94,27h-1a1.53,1.53,0,0,1-1.09-.45l0,0a1.54,1.54,0,0,1-.41-1.05V2.9A1.56,1.56,0,0,1,2.9,1.35H35A1.53,1.53,0,0,1,36,1.8l0,0A1.54,1.54,0,0,1,36.5,2.9V25.47A1.56,1.56,0,0,1,35,27h-.17a9.08,9.08,0,0,1-.59,1.35H35a2.91,2.91,0,0,0,2.9-2.9V2.8A2.67,2.67,0,0,0,37,.85Z"/><path class="cls-1" d="M5.86,20.59a.67.67,0,0,0,.67.67H17.43A9.09,9.09,0,0,1,18,19.91H6.54A.68.68,0,0,0,5.86,20.59Z"/><path class="cls-1" d="M26.11,16.29a7.78,7.78,0,0,0-6,2.84,7.87,7.87,0,0,0-1.63,6.52,7.75,7.75,0,0,0,6.06,6.08,7.87,7.87,0,0,0,6.54-1.62,7.8,7.8,0,0,0-5-13.82Zm4.55,11a1.52,1.52,0,0,1-1.52,1.52H23.08a1.52,1.52,0,0,1-1.52-1.52v-3a1.52,1.52,0,0,1,1.52-1.52V21.35a3.08,3.08,0,0,1,2.05-3,3,3,0,0,1,4,2.88v1.52a1.52,1.52,0,0,1,1.52,1.52Z"/><path class="cls-1" d="M26.11,19.74a1.52,1.52,0,0,0-1.52,1.52v1.52h3V21.26A1.52,1.52,0,0,0,26.11,19.74Z"/><path class="cls-1" d="M26.12,24.09a1.22,1.22,0,0,0-.7,2.21v1.22h1.42V26.3a1.22,1.22,0,0,0-.72-2.21Z"/></g></g></g></svg>