<svg version="1.1" xmlns="http://www.w3.org/2000/svg" width="38" height="38" viewBox="0 0 38 38" enable-background="new 0 0 38 38"><defs><style>.cls-1{fill:#c8c8c8;}.cls-2{fill:#2a3a49;fill-rule:evenodd;}</style></defs><title>forum_link</title><g id="Layer_2" data-name="Layer 2"><g id="icons"><g id="forum_link"><path class="cls-1" d="M37,.85,36.91.77A2.87,2.87,0,0,0,35,0H2.9A2.9,2.9,0,0,0,0,2.9V25.47a2.88,2.88,0,0,0,.85,2.05l.1.09a2.87,2.87,0,0,0,2,.76h.75L3.3,35.64l9.94-7.27H35a2.91,2.91,0,0,0,2.9-2.9V2.9A2.89,2.89,0,0,0,37,.85Zm-.5,24.62A1.56,1.56,0,0,1,35,27H13.2a1.18,1.18,0,0,0-.78.28L4.78,32.88,5,28.47A1.25,1.25,0,0,0,3.94,27h-1a1.53,1.53,0,0,1-1.09-.45l0,0a1.54,1.54,0,0,1-.41-1.05V2.9A1.56,1.56,0,0,1,2.9,1.35H35A1.53,1.53,0,0,1,36,1.8l0,0A1.54,1.54,0,0,1,36.5,2.9Z"/><path class="cls-2" d="M22.53,14.12a4.5,4.5,0,0,0-.77-1.59,4.49,4.49,0,0,0-1.37-1.21l-1,.78a1.85,1.85,0,0,0-.36.36,3,3,0,0,1,.62.27,2.92,2.92,0,0,1,.86.76h0a3.44,3.44,0,0,1,.52,1,3,3,0,0,1-.3,2.23,2.88,2.88,0,0,1-.77.88l-3.92,3a2.91,2.91,0,0,1-1,.5,3,3,0,0,1-1.15.06,2.94,2.94,0,0,1-1.09-.38,2.9,2.9,0,0,1-.85-.75A3,3,0,0,1,11.34,19a3,3,0,0,1-.07-1.15,3,3,0,0,1,1.14-2l2.3-1.74c0-.17,0-.35,0-.52a5.91,5.91,0,0,1,.05-.87A5.74,5.74,0,0,1,14.9,12l-3.43,2.59a4.58,4.58,0,0,0-1.67,4.8A4.5,4.5,0,0,0,10.56,21a4.45,4.45,0,0,0,1.32,1.18,4.56,4.56,0,0,0,5-.28l3.93-3a4.53,4.53,0,0,0,1.76-3,4.58,4.58,0,0,0,0-1.39C22.59,14.37,22.56,14.24,22.53,14.12Z"/><path class="cls-2" d="M28.75,9.41A4.57,4.57,0,0,0,24.33,6a4.59,4.59,0,0,0-1.15.15,4.53,4.53,0,0,0-1.58.76l-3.94,3a4.54,4.54,0,0,0-1.76,3,4.66,4.66,0,0,0,0,.7,4.77,4.77,0,0,0,.06.69c0,.14,0,.26.08.39a4.56,4.56,0,0,0,1.53,2.38,4.59,4.59,0,0,0,.61.42l1-.78a1.86,1.86,0,0,0,.36-.36,3,3,0,0,1-.62-.27,2.94,2.94,0,0,1-.86-.76,2.91,2.91,0,0,1-.5-1,3,3,0,0,1-.07-1.15,3,3,0,0,1,.36-1.07,2.92,2.92,0,0,1,.77-.88l3.93-3a2.85,2.85,0,0,1,1-.5,3.09,3.09,0,0,1,1.16-.06A3,3,0,0,1,25.83,8a3,3,0,0,1,1,4,2.87,2.87,0,0,1-.76.86l-2.3,1.74c0,.17,0,.35,0,.52a5.85,5.85,0,0,1-.05.87,5.73,5.73,0,0,1-.15.75l3.43-2.59a4.58,4.58,0,0,0,1.68-4.8Z"/></g></g></g></svg>