<svg xmlns="http://www.w3.org/2000/svg" width="20" height="20" viewBox="0 0 46 46"><defs><style>.cls-1{fill:#fff;}</style></defs><title>setting_2</title><g id="Layer_2" data-name="Layer 2"><g id="Layer_1-2" data-name="Layer 1"><path class="cls-1" d="M42.29,16.82H39.43L39,15.75l2-2a3.71,3.71,0,0,0,0-5.25L37.52,5a3.77,3.77,0,0,0-5.25,0l-2,2-1.07-.44V3.71A3.72,3.72,0,0,0,25.47,0H20.53a3.72,3.72,0,0,0-3.71,3.71V6.57L15.75,7l-2-2A3.77,3.77,0,0,0,8.48,5L5,8.48a3.71,3.71,0,0,0,0,5.25l2,2-.44,1.07H3.71A3.72,3.72,0,0,0,0,20.53v4.93a3.72,3.72,0,0,0,3.71,3.71H6.57L7,30.25l-2,2a3.71,3.71,0,0,0,0,5.26L8.48,41a3.77,3.77,0,0,0,5.25,0l2-2,1.07.44v2.86A3.72,3.72,0,0,0,20.53,46h4.93a3.72,3.72,0,0,0,3.72-3.71V39.43L30.25,39l2,2a3.78,3.78,0,0,0,5.25,0L41,37.52a3.71,3.71,0,0,0,0-5.25l-2-2,.44-1.07h2.86A3.71,3.71,0,0,0,46,25.47V20.53A3.72,3.72,0,0,0,42.29,16.82ZM35.12,27.23l-.53,1.3a4.34,4.34,0,0,0,.82,4.84l1.53,1.53-2,2L33.36,35.4a4.53,4.53,0,0,0-4.78-.85l-1.3.54a4.35,4.35,0,0,0-2.84,4v2.17H21.56V39.1a4.36,4.36,0,0,0-2.78-4l-1.3-.53a4.49,4.49,0,0,0-4.84.82l-1.53,1.53-2-2,1.53-1.53a4.35,4.35,0,0,0,.84-4.77l-.52-1.25a4.35,4.35,0,0,0-4-2.89H4.74V21.56H6.91a4.33,4.33,0,0,0,4-2.75l.55-1.33a4.35,4.35,0,0,0-.82-4.83L9.07,11.11l2-2,1.53,1.53a4.58,4.58,0,0,0,4.78.85l1.29-.54a4.34,4.34,0,0,0,2.84-4V4.74h2.89V6.91a4.35,4.35,0,0,0,2.78,4l1.3.53a4.47,4.47,0,0,0,4.84-.82l1.53-1.53,2,2L35.4,12.65a4.36,4.36,0,0,0-.84,4.77l.54,1.29a4.34,4.34,0,0,0,4,2.85h2.17v2.89H39.1A4.35,4.35,0,0,0,35.12,27.23Z"/><path class="cls-1" d="M23,14.13A8.87,8.87,0,1,0,31.87,23,8.88,8.88,0,0,0,23,14.13Zm0,13A4.14,4.14,0,1,1,27.14,23,4.14,4.14,0,0,1,23,27.14Z"/></g></g></svg>