<svg version="1.1" xmlns="http://www.w3.org/2000/svg" width="38" height="38" viewBox="0 0 38 38" enable-background="new 0 0 38 38"><defs><style>.cls-1{fill:#d70615;}.cls-2{fill:#c8c8c8;}</style></defs><title>sticky_read_locked_mine</title><g id="Layer_2" data-name="Layer 2"><g id="icons"><g id="sticky_read_locked_mine"><path class="cls-1" d="M26.11,16.29a7.78,7.78,0,0,0-6,2.84,7.87,7.87,0,0,0-1.63,6.52,7.75,7.75,0,0,0,6.06,6.08,7.87,7.87,0,0,0,6.54-1.62,7.8,7.8,0,0,0-5-13.82Zm4.55,11a1.52,1.52,0,0,1-1.52,1.52H23.08a1.52,1.52,0,0,1-1.52-1.52v-3a1.52,1.52,0,0,1,1.52-1.52V21.35a3.08,3.08,0,0,1,2.05-3,3,3,0,0,1,4,2.88v1.52a1.52,1.52,0,0,1,1.52,1.52Z"/><path class="cls-1" d="M26.11,19.74a1.52,1.52,0,0,0-1.52,1.52v1.52h3V21.26A1.52,1.52,0,0,0,26.11,19.74Z"/><path class="cls-1" d="M26.12,24.09a1.22,1.22,0,0,0-.7,2.21v1.22h1.42V26.3a1.22,1.22,0,0,0-.72-2.21Z"/><path class="cls-2" d="M28.15,8.25a.68.68,0,0,0-.67-.67H14.64V8.92H27.47A.68.68,0,0,0,28.15,8.25Z"/><path class="cls-2" d="M31.06,13.56H6.53a.67.67,0,0,0,0,1.35H31.06a.67.67,0,0,0,0-1.35Z"/><path class="cls-2" d="M13.2,27a1.18,1.18,0,0,0-.78.28L4.78,32.88,5,28.47A1.25,1.25,0,0,0,3.94,27h-1a1.53,1.53,0,0,1-1.09-.45l0,0a1.54,1.54,0,0,1-.41-1.05V2.9A1.56,1.56,0,0,1,2.9,1.35h.39V0H2.9A2.87,2.87,0,0,0,.12,2.13l0,.07A2.9,2.9,0,0,0,0,2.9H0V25.47a2.9,2.9,0,0,0,.91,2.11h0a2.87,2.87,0,0,0,2,.78h.75L3.3,35.64l9.94-7.27H18A8.94,8.94,0,0,1,17.45,27Z"/><path class="cls-2" d="M37,.85h0L36.91.77l0,0A2.84,2.84,0,0,0,35,0H14.64V1.35H35A1.53,1.53,0,0,1,36,1.8h0l0,0A1.54,1.54,0,0,1,36.5,2.9V25.47A1.56,1.56,0,0,1,35,27h-.17a9.08,9.08,0,0,1-.59,1.35H35a2.91,2.91,0,0,0,2.9-2.9V2.8A2.67,2.67,0,0,0,37,.85Z"/><path class="cls-2" d="M17.43,21.26A9.09,9.09,0,0,1,18,19.91H6.54a.67.67,0,1,0,0,1.35Z"/><polygon class="cls-1" points="8.96 7.6 13.29 9.33 13.29 0 4.64 0 4.64 9.33 8.96 7.6"/></g></g></g></svg>