<svg version="1.1" xmlns="http://www.w3.org/2000/svg" width="38" height="38" viewBox="0 0 38 38" enable-background="new 0 0 38 38"><defs><style>.cls-1{fill:#c8c8c8;}.cls-2{fill:#2a3a49;}</style></defs><title>topic_moved</title><g id="Layer_2" data-name="Layer 2"><g id="icons"><g id="topic_moved"><path class="cls-1" d="M37,.85,36.91.77A2.87,2.87,0,0,0,35,0H2.9A2.9,2.9,0,0,0,0,2.9V25.47a2.88,2.88,0,0,0,.85,2.05l.1.09a2.87,2.87,0,0,0,2,.76h.75L3.3,35.64l9.94-7.27H35a2.91,2.91,0,0,0,2.9-2.9V2.9A2.89,2.89,0,0,0,37,.85Zm-.5,24.62A1.56,1.56,0,0,1,35,27H13.2a1.18,1.18,0,0,0-.78.28L4.78,32.88,5,28.47A1.25,1.25,0,0,0,3.94,27h-1a1.53,1.53,0,0,1-1.09-.45l0,0a1.54,1.54,0,0,1-.41-1.05V2.9A1.56,1.56,0,0,1,2.9,1.35H35A1.53,1.53,0,0,1,36,1.8l0,0A1.54,1.54,0,0,1,36.5,2.9Z"/><path class="cls-2" d="M12.74,23.49a1,1,0,0,1-1-.88v-.05C10.85,18.82,11.3,15.44,13,13a10.25,10.25,0,0,1,6.95-4V6.93a1,1,0,0,1,1.65-.8l6.92,5.43a1,1,0,0,1,0,1.61l-6.92,5.43a1,1,0,0,1-1.65-.8V15.44c-2.65.46-5.61,2.13-6.18,7.14A1,1,0,0,1,12.74,23.49Zm-.33-1.06h0Zm.64-.1v0ZM21.28,7.61v2.57l-.58.08c-3.06.44-5.28,1.63-6.61,3.54a9.73,9.73,0,0,0-1.35,6.81A8.45,8.45,0,0,1,20.54,14l.74-.07v3.19l6.05-4.75Zm6.38,5h0Zm0-.52h0Z"/></g></g></g></svg>