<svg id="Слой_1" data-name="Слой 1" xmlns="http://www.w3.org/2000/svg" viewBox="0 0 32 32"><defs><style>.cls-1{fill:#e30612;}</style></defs><title>32x32findep_favicon</title><path class="cls-1" d="M16,32l-.88-.76a5.82,5.82,0,0,0-4-1.34h-3C4.62,29.9,2.5,28,2.5,24.7V0h27V24.7c0,3.26-2.12,5.2-5.66,5.2h-3a5.83,5.83,0,0,0-4,1.34ZM4.37,1.87V24.7c0,2.75,2.07,3.33,3.8,3.33h3A7.69,7.69,0,0,1,16,29.55,7.7,7.7,0,0,1,20.85,28h3c1.73,0,3.78-.58,3.78-3.33V1.87Z"/><path class="cls-1" d="M18.17,5.41H10.39v9.52H7.76v2.15h2.63v1.54H7.76v2.15h2.63v4H12.8v-4h5.37V18.61H12.8V17.07h5.37a5.7,5.7,0,0,0,6.06-5.83A5.67,5.67,0,0,0,18.17,5.41Zm-.29,9.52H12.8V7.56h5.08a3.6,3.6,0,0,1,3.86,3.69A3.6,3.6,0,0,1,17.88,14.93Z"/></svg>