<svg xmlns="http://www.w3.org/2000/svg" width="16" height="19"><path fill-rule="evenodd" fill="#FEE300" d="M13.141 5.781c-.637 0-1.22-.217-1.695-.573L5.643 8.583c.046.205.076.417.076.636 0 .354-.073.689-.189 1.002l5.86 3.443a2.85 2.85 0 0 1 1.704-.57c1.605 0 2.906 1.322 2.906 2.953C16 17.678 14.699 19 13.094 19c-1.605 0-2.906-1.322-2.906-2.953 0-.332.066-.646.165-.944L4.426 11.62a2.832 2.832 0 0 1-1.567.474A2.867 2.867 0 0 1 0 9.219a2.867 2.867 0 0 1 2.859-2.875 2.83 2.83 0 0 1 1.913.751l5.667-3.296a2.904 2.904 0 0 1-.158-.908c0-1.597 1.28-2.891 2.86-2.891C14.72 0 16 1.294 16 2.891c0 1.596-1.28 2.89-2.859 2.89z"/></svg>