<svg version="1.1"
	 xmlns="http://www.w3.org/2000/svg" xmlns:xlink="http://www.w3.org/1999/xlink" xmlns:a="http://ns.adobe.com/AdobeSVGViewerExtensions/3.0/"
	 x="0px" y="0px" width="22.7px" height="11.4px" viewBox="0 0 22.7 11.4" style="enable-background:new 0 0 22.7 11.4;"
	 xml:space="preserve">
<style type="text/css">
	.st0{fill:#009CE4;}
</style>
<defs>
</defs>
<g id="Shape_1167_3_">
	<g>
		<path class="st0" d="M2.4,4C2.3,4.1,2.3,4.2,2.2,4.2C2.2,4.3,2.1,4.3,2,4.4L1.4,5c0,0,0,0,0,0c0,0,0,0,0,0L2.4,4 M21.7,5.7
			L21.7,5.7l-18,0v0H21.7 M1.4,6.4L1.4,6.4L2,7c0.1,0.1,0.2,0.1,0.2,0.2c0,0.1,0.1,0.2,0.2,0.2L1.4,6.4C1.4,6.4,1.4,6.4,1.4,6.4
			 M5,0L0,5l0.7,0.7L0,6.4l5,5L6.4,10L3.1,6.7h19.6v-2H3.1l3.3-3.3L5,0L5,0z M2.7,6.3L2.1,5.7l0.6-0.6V6.3L2.7,6.3z"/>
	</g>
</g>
</svg>