<svg version="1.1"
	 xmlns="http://www.w3.org/2000/svg" xmlns:xlink="http://www.w3.org/1999/xlink" xmlns:a="http://ns.adobe.com/AdobeSVGViewerExtensions/3.0/"
	 x="0px" y="0px" width="1px" height="26px" viewBox="0 0 1 26" style="overflow:scroll;enable-background:new 0 0 1 26;"
	 xml:space="preserve">
<style type="text/css">
	.st0{fill:#EA0F57;}
</style>
<defs>
</defs>
<g id="Shape_1159_2_">
	<g>
		<path class="st0" d="M1,23H0l0,0l0,0v3h1V23L1,23z M1,17H0l0,0l0,0v3h1V17L1,17z M1,11H0l0,0l0,0v3h1V11L1,11z M1,5H0l0,0l0,0v3h1
			V5L1,5z M1,0H0v1l0,0c0,0.5,0,1,0,1h1V0L1,0z"/>
	</g>
</g>
</svg>