<svg version="1.1"
	 xmlns="http://www.w3.org/2000/svg" xmlns:xlink="http://www.w3.org/1999/xlink" xmlns:a="http://ns.adobe.com/AdobeSVGViewerExtensions/3.0/"
	 x="0px" y="0px" width="192px" height="109px" viewBox="0 0 192 109" style="enable-background:new 0 0 192 109;"
	 xml:space="preserve">
<style type="text/css">
	.st0{fill-rule:evenodd;clip-rule:evenodd;fill:#23483b;}
	.st1{fill:#23483b;}
	.st2{fill:#5AAF30;}
</style>
<defs>
</defs>
<g id="Rectangle_1119_3_">
	<g>
		<polygon class="st0" points="168.9,11.8 23.1,11.8 0,109 192,109 		"/>
	</g>
</g>
<g id="Ellipse_1780_3_">
	<g>
		<path class="st1" d="M95.4,5c3.8,0,6.8,3,6.8,6.8s-3.1,6.8-6.8,6.8s-6.8-3-6.8-6.8S91.6,5,95.4,5 M95.4,0
			c-6.5,0-11.8,5.3-11.8,11.8s5.3,11.8,11.8,11.8s11.8-5.3,11.8-11.8S102,0,95.4,0L95.4,0z"/>
	</g>
</g>
<g id="Rectangle_513_3_">
	<g>
		<path class="st2" d="M156,40h-42v-6h13c1.1,0,2-0.9,2-2v-7c0-1.1-0.9-2-2-2H65c-1.1,0-2,0.9-2,2v7c0,1.1,0.9,2,2,2h13v6H37
			c-5.5,0-10,4.5-10,10v59h139V50C166,44.5,161.5,40,156,40z"/>
	</g>
</g>
</svg>