<svg version="1.1"
	 xmlns="http://www.w3.org/2000/svg" xmlns:xlink="http://www.w3.org/1999/xlink" xmlns:a="http://ns.adobe.com/AdobeSVGViewerExtensions/3.0/"
	 x="0px" y="0px" width="131px" height="132px" viewBox="0 0 131 132" style="overflow:scroll;enable-background:new 0 0 131 132;"
	 xml:space="preserve">
<style type="text/css">
	.st0{fill:#009CE4;}
	.st1{fill-rule:evenodd;clip-rule:evenodd;fill:#009CE4;}
</style>
<defs>
</defs>
<g id="Rectangle_1120_8_">
	<g>
		<path class="st0" d="M116,31H86V19h19c1.7,0,3-1.3,3-3V3c0-1.7-1.3-3-3-3H26c-1.7,0-3,1.3-3,3v13c0,1.7,1.3,3,3,3h20v12H15
			C6.7,31,0,37.7,0,46v86h131V46C131,37.7,124.3,31,116,31z"/>
	</g>
</g>
<g id="Rectangle_1120_6_">
	<g>
		<polygon class="st1" points="46,19 46,20.8 86,27.2 86,19 		"/>
	</g>
</g>
</svg>