<svg version="1.1"
	 xmlns="http://www.w3.org/2000/svg" xmlns:xlink="http://www.w3.org/1999/xlink" xmlns:a="http://ns.adobe.com/AdobeSVGViewerExtensions/3.0/"
	 x="0px" y="0px" width="139.4px" height="84.1px" viewBox="0 0 139.4 84.1"
	 style="overflow:scroll;enable-background:new 0 0 139.4 84.1;" xml:space="preserve">
<style type="text/css">
	.st0{fill-rule:evenodd;clip-rule:evenodd;fill:#EFDF07;}
	.st1{fill:#FEE300;}
</style>
<defs>
</defs>
<g id="Rectangle_1119_3_">
	<g>
		<polygon class="st0" points="119.6,9.9 19.4,10.1 0,84.1 139.4,83.8 		"/>
	</g>
</g>
<g id="Ellipse_1780_2_">
	<g>
		<path class="st1" d="M70,5c2.8,0,5,2.2,5,5c0,1.3-0.5,2.6-1.5,3.5C72.6,14.5,71.4,15,70,15c-2.8,0-5-2.2-5-5
			c0-1.3,0.5-2.6,1.5-3.5C67.4,5.5,68.6,5,70,5L70,5 M70,0C70,0,70,0,70,0c-5.6,0-10,4.5-10,10c0,5.5,4.5,10,10,10c0,0,0,0,0,0
			c5.5,0,10-4.5,10-10C80,4.5,75.5,0,70,0L70,0z"/>
	</g>
</g>
</svg>